<?xml version="1.0" encoding="utf-8"?>
<!-- Generator: Adobe Illustrator 22.1.0, SVG Export Plug-In . SVG Version: 6.00 Build 0)  -->
<svg version="1.1" id="Layer_1" xmlns="http://www.w3.org/2000/svg" xmlns:xlink="http://www.w3.org/1999/xlink" x="0px" y="0px"
	 viewBox="0 0 185 30" style="enable-background:new 0 0 185 30;" xml:space="preserve">
<style type="text/css">
	.st0{fill:#0DBCE6;}
	.st1{fill:#3D4097;}
	.st2{fill:#FFFFFF;stroke:#FFFFFF;stroke-width:0.4641;stroke-miterlimit:10;}
</style>
<g>
	<path class="st0" d="M181.5,25.6h-74.6c-0.5,0-1-0.4-1-1V7.4c0-0.5,0.4-1,1-1h74.6c0.5,0,1,0.4,1,1v17.2
		C182.5,25.1,182.1,25.6,181.5,25.6z"/>
	<g>
		<path class="st0" d="M11.1,14c-1-0.9-2-1.1-3.2-1.1c-1.6,0-3.1,0.6-3.1,1.9c0,1.4,1.8,1.6,3.1,1.9c1.8,0.3,4.3,0.6,4.2,3
			c-0.1,2.3-2.4,2.9-4.2,2.9c-1.8,0-3.6-0.7-4.5-2l0.7-0.7C5.1,21,6.6,21.5,8,21.5c1.2,0,3.1-0.3,3.2-1.9c0-1.5-1.7-1.8-3.3-2
			c-2-0.3-4-0.7-4-2.8c0-2,2-2.9,4.1-2.9c1.5,0,2.8,0.4,3.8,1.4L11.1,14z"/>
		<path class="st0" d="M8,23c-2.1,0-3.9-0.8-4.9-2.3l-0.2-0.3l1.4-1.3l0.3,0.4c0.7,1,1.9,1.5,3.4,1.5c0.8,0,2.7-0.1,2.7-1.5
			c0-1-1.1-1.3-2.9-1.5c-1.9-0.3-4.3-0.7-4.4-3.2c0-0.8,0.3-1.5,0.8-2.1c0.8-0.8,2.1-1.2,3.6-1.2C9.6,11.5,11,12,12,13l0.3,0.3
			l-1.3,1.3l-0.3-0.3c-0.9-0.8-1.8-1-3-1c-1,0-1.8,0.3-2.3,0.7c-0.2,0.2-0.3,0.4-0.3,0.7c0,0.9,1.2,1.1,2.6,1.4l0.4,0.1
			c1.8,0.3,4.5,0.8,4.4,3.4C12.6,22.1,10.2,23,8,23z M4.1,20.5C4.9,21.5,6.3,22,8,22c0.9,0,3.7-0.2,3.7-2.4c0-1.1-0.5-1.6-1.5-2
			c0.8,0.3,1.5,0.9,1.4,2C11.6,21.1,10.2,22,8,22C6.4,22,5.1,21.4,4.1,20.5L4.1,20.5z M7.8,12.4c-1.3,0-2.3,0.3-3,1
			c-0.4,0.4-0.6,0.9-0.6,1.4c0,1.1,0.7,1.6,1.9,1.9c-1-0.3-1.8-0.8-1.8-1.9c0-0.5,0.2-1,0.6-1.4C5.5,12.8,6.6,12.4,7.8,12.4
			c0.4,0,0.7,0,1,0.1C8.5,12.4,8.2,12.4,7.8,12.4z"/>
	</g>
	<g>
		<path class="st0" d="M15.4,17.2c0-3.1,2.3-5.3,5.2-5.3c2.9,0,5.5,2.2,5.4,5.7l-9.6,0c0.2,2.4,2,3.8,4.2,3.8c1.3,0,2.9-0.5,3.7-1.6
			l0.7,0.6c-1,1.3-2.8,2-4.4,2C17.8,22.5,15.4,20.5,15.4,17.2z M24.8,16.8c-0.2-2.4-1.4-4.1-4.2-3.9c-2.1,0.1-3.9,1.4-4.2,3.9H24.8z
			"/>
		<path class="st0" d="M20.6,23c-3.3,0-5.7-2.4-5.7-5.7c0-3.3,2.4-5.7,5.7-5.7c1.6,0,3.1,0.6,4.2,1.7c1.1,1.2,1.7,2.7,1.7,4.5l0,0.5
			l-9.5,0c0.4,2,2.1,2.9,3.6,2.9c1.3,0,2.7-0.6,3.3-1.4l0.3-0.4l1.5,1.2l-0.3,0.4C24.4,22.1,22.6,23,20.6,23z M20.5,12.4
			c-2.6,0.1-4.6,2.1-4.6,4.8c0,2.8,1.9,4.8,4.7,4.8c1.3,0,2.6-0.5,3.5-1.2c-1,0.8-2.4,1.1-3.5,1.1c-2.5,0-4.4-1.7-4.6-4.2l0-0.5l0,0
			l0,0h0l0-0.5C16.2,14.3,18,12.6,20.5,12.4z M24.9,14.8c0.2,0.6,0.4,1.2,0.4,2l0,0.4l0.2,0C25.5,16.3,25.3,15.5,24.9,14.8z
			 M17,16.3h7.3c-0.3-2.1-1.6-3.1-3.7-3C19.1,13.4,17.4,14.3,17,16.3z"/>
	</g>
	<g>
		<path class="st0" d="M30.9,6.9v15.4h-1V6.9H30.9z"/>
		<path class="st0" d="M31.4,22.8h-2V6.5h2V22.8z M30.4,21.9L30.4,21.9l0.1-14.9h-0.1V21.9z"/>
	</g>
	<g>
		<path class="st0" d="M35.9,6.9v15.4h-1V6.9H35.9z"/>
		<path class="st0" d="M36.4,22.8h-2V6.5h2V22.8z M35.4,21.9L35.4,21.9l0.1-14.9h-0.1V21.9z"/>
	</g>
	<g>
		<path class="st0" d="M39.8,17.2c0-3.1,2.3-5.3,5.2-5.3c2.9,0,5.4,1.8,5,5.8h-9.2c0.2,2.4,2,3.8,4.2,3.8c1.3,0,2.9-0.5,3.7-1.6
			l0.7,0.6c-1,1.3-2.8,2-4.4,2C42.1,22.5,39.8,20.5,39.8,17.2z M49.1,16.8c0-2.5-1.7-3.9-4.1-3.9c-2.1,0-3.9,1.4-4.2,3.9H49.1z"/>
		<path class="st0" d="M45,23c-3.3,0-5.7-2.4-5.7-5.7c0-3.3,2.4-5.7,5.7-5.7c1.8,0,3.3,0.6,4.3,1.7c1,1.1,1.4,2.7,1.3,4.6l0,0.4
			h-9.1c0.4,2,2.1,2.8,3.6,2.8c1.3,0,2.7-0.6,3.3-1.4l0.3-0.4l1.5,1.2l-0.3,0.4C48.7,22.1,46.9,23,45,23z M42.1,13.3
			c-1.2,0.9-1.9,2.3-1.9,3.9c0,2.8,1.9,4.8,4.7,4.8c1.3,0,2.6-0.5,3.5-1.2c-1,0.8-2.4,1.1-3.5,1.1c-2.5,0-4.4-1.7-4.6-4.2l0-0.5l0,0
			l0,0h0l0-0.5C40.5,15.3,41.1,14.1,42.1,13.3z M49.6,17.2L49.6,17.2c0.1-1.4-0.3-2.6-1-3.4c0,0-0.1-0.1-0.1-0.1
			c0.7,0.8,1.1,1.8,1.1,3.1L49.6,17.2z M41.4,16.3h7.3c-0.2-1.9-1.5-3-3.6-3C43.1,13.4,41.7,14.5,41.4,16.3z"/>
	</g>
	<g>
		<path class="st1" d="M75.6,27.5V13.5l1,0v1C77.4,13,79,12,81,12c2.8,0.1,5,2,5,5.3c0,3.4-2.3,5.3-5.2,5.3c-1.7,0-3.4-0.8-4.2-2.5
			v7.6H75.6z M84.9,17.2c0-2.9-1.9-4.3-4.2-4.3c-2.4,0-4.1,1.8-4.1,4.3s1.8,4.3,4.1,4.3C83.1,21.6,84.9,20.1,84.9,17.2z"/>
		<path class="st1" d="M77,28h-1.9V13L77,13v0.1c1-1,2.4-1.6,4-1.6c3.3,0.1,5.4,2.4,5.4,5.7c0,3.4-2.3,5.8-5.7,5.8
			c-1.5,0-2.8-0.6-3.8-1.6V28z M76,27.1L76,27.1l0-9l0.2,0.4c-0.1-0.4-0.1-0.8-0.1-1.2c0-0.4,0-0.8,0.1-1.1l-0.2,0.3V14L76,14V27.1z
			 M78.4,21.4c0.7,0.4,1.5,0.7,2.3,0.7c2.9,0,4.7-1.9,4.7-4.8c0-2.8-1.8-4.7-4.5-4.8c-0.3,0-0.6,0-0.9,0.1c0.2,0,0.5-0.1,0.7-0.1
			c2.8,0,4.6,1.9,4.6,4.8c0,2.9-1.8,4.8-4.6,4.8C79.9,22,79.1,21.8,78.4,21.4z M80.8,13.4c-2.1,0-3.7,1.6-3.7,3.8s1.5,3.8,3.7,3.8
			c1.8,0,3.7-1,3.7-3.9C84.5,14.8,83.1,13.4,80.8,13.4z"/>
	</g>
	<g>
		<path class="st1" d="M70.6,22.9V20c-0.9,1.7-2.5,2.5-4.2,2.5c-2.9,0-5.2-1.9-5.2-5.3c0-3.3,2.2-5.2,5-5.3c2,0,3.6,1,4.4,2.6v-1
			l1,0v9.4H70.6z M66.4,21.6c2.3,0,4.1-1.8,4.1-4.3s-1.8-4.3-4.1-4.3c-2.3,0-4.2,1.4-4.2,4.3S64.1,21.6,66.4,21.6z"/>
		<path class="st1" d="M70.1,21.4c-1,1-2.3,1.6-3.8,1.6c-3.4,0-5.7-2.3-5.7-5.8c0-3.3,2.2-5.6,5.4-5.7c1.6,0,3,0.6,4,1.6V13L72,13
			l0,10h-1.9L70.1,21.4z M71.1,14L71.1,14L71,16.5l-0.2-0.3c0.1,0.4,0.1,0.7,0.1,1.1c0,0.4,0,0.8-0.1,1.2l0.2-0.4v4.4h0V14z
			 M66.4,22c-2.8,0-4.6-1.9-4.6-4.8c0-2.9,1.8-4.8,4.6-4.8c0.2,0,0.5,0,0.7,0.1c-0.3-0.1-0.6-0.1-0.9-0.1c-2.7,0.1-4.5,2-4.5,4.8
			C61.7,20.2,63.5,22.1,66.4,22c0.9,0,1.7-0.2,2.3-0.6C68,21.8,67.2,22,66.4,22z M62.7,17.2c0,2.8,1.9,3.9,3.7,3.9
			c2.1,0,3.7-1.6,3.7-3.8s-1.5-3.8-3.7-3.8C64.1,13.4,62.7,14.8,62.7,17.2z"/>
	</g>
	<g>
		<path class="st0" d="M60.4,12.7c0,0-3.3-1.8-5.5,0.8c0,0-1.2,1.4-1,2.9v6h1v-6c0,0,0-2.4,2.4-3.3c0,0,1.4-0.4,2.7,0.4L60.4,12.7z"
			/>
		<path class="st0" d="M55.3,22.9h-2v-6.4c-0.2-1.7,1.1-3.2,1.2-3.3c2.5-2.8,6.1-0.9,6.1-0.9l0.4,0.2l-0.9,1.7l-0.4-0.3
			c-1.1-0.7-2.3-0.3-2.3-0.3c-2.1,0.7-2.1,2.8-2.1,2.9V22.9z M54.3,21.9L54.3,21.9l0.1-5.5c0-1,0.6-3,2.8-3.7c0.1,0,0.6-0.2,1.3-0.1
			c-1-0.1-2.2,0.1-3.2,1.2c0,0-1.1,1.3-0.9,2.6l0,0.1V21.9z"/>
	</g>
	<g>
		<path class="st1" d="M89.5,27.5V13.5l1,0v1c0.8-1.6,2.4-2.6,4.4-2.6c2.8,0.1,5,2,5,5.3c0,3.4-2.3,5.3-5.2,5.3
			c-1.7,0-3.4-0.8-4.2-2.5v7.6H89.5z M98.9,17.2c0-2.9-1.9-4.3-4.2-4.3c-2.4,0-4.1,1.8-4.1,4.3s1.8,4.3,4.1,4.3
			C97,21.6,98.9,20.1,98.9,17.2z"/>
		<path class="st1" d="M90.9,28H89V13L91,13v0.1c1-1,2.4-1.6,4-1.6c3.3,0.1,5.4,2.4,5.4,5.7c0,3.4-2.3,5.8-5.7,5.8
			c-1.5,0-2.8-0.6-3.8-1.6V28z M90,27.1L90,27.1l0-9l0.2,0.4c-0.1-0.4-0.1-0.8-0.1-1.2c0-0.4,0-0.8,0.1-1.1L90,16.5V14L90,14V27.1z
			 M92.4,21.4c0.7,0.4,1.5,0.7,2.3,0.7c2.9,0,4.7-1.9,4.7-4.8c0-2.8-1.8-4.7-4.5-4.8c-0.3,0-0.6,0-0.9,0.1c0.2,0,0.5-0.1,0.7-0.1
			c2.8,0,4.6,1.9,4.6,4.8c0,2.9-1.8,4.8-4.6,4.8C93.8,22,93,21.8,92.4,21.4z M94.7,13.4c-2.1,0-3.7,1.6-3.7,3.8s1.5,3.8,3.7,3.8
			c1.8,0,3.7-1,3.7-3.9C98.4,14.8,97,13.4,94.7,13.4z"/>
	</g>
	<g>
		<path class="st2" d="M114,16.3h4.1v0.5H114v2.7h4.4V20h-4.9v-6.9h4.8v0.5H114V16.3z"/>
		<path class="st2" d="M125.2,13.1h0.6v0l-2.4,3.4l2.5,3.5v0h-0.6l-2.2-3.2l-2.2,3.2h-0.6v0l2.5-3.5l-2.4-3.4v0h0.6l2.1,3
			L125.2,13.1z"/>
		<path class="st2" d="M129.9,13.6h-2.5v-0.5h5.5v0.5h-2.5V20h-0.5V13.6z"/>
		<path class="st2" d="M135.4,16.3h4.1v0.5h-4.1v2.7h4.4V20h-4.9v-6.9h4.8v0.5h-4.3V16.3z"/>
		<path class="st2" d="M142.4,13.1l4.7,5.7v-5.7h0.5V20h-0.2l-4.7-5.7V20h-0.5v-6.9H142.4z"/>
		<path class="st2" d="M154.8,14.4c-0.5-0.8-1.3-0.9-2.1-0.9c-0.8,0-2.1,0.3-2.1,1.4c0,0.9,1,1.1,2.1,1.3c1.3,0.3,2.7,0.5,2.7,2
			c0,1.6-1.6,1.9-2.7,1.9c-1.1,0-2.3-0.4-2.8-1.5l0.5-0.2c0.4,0.8,1.5,1.3,2.4,1.3c0.9,0,2.2-0.2,2.2-1.5c0-1-1.1-1.3-2.3-1.5
			c-1.3-0.2-2.6-0.5-2.6-1.8c0-1.5,1.5-1.9,2.6-1.9c1,0,1.9,0.2,2.5,1.2L154.8,14.4z"/>
		<path class="st2" d="M157.5,20v-6.9h0.5V20H157.5z"/>
		<path class="st2" d="M167.5,16.6c0,1.8-1.2,3.6-3.5,3.6s-3.5-1.8-3.5-3.6c0-1.9,1.2-3.6,3.5-3.6S167.5,14.7,167.5,16.6z M161,16.6
			c0,1.6,1,3.1,3,3.1c2,0,3-1.5,3-3.1c0-1.6-1-3.1-3-3.1S161,14.9,161,16.6z"/>
		<path class="st2" d="M170,13.1l4.7,5.7v-5.7h0.5V20H175l-4.7-5.7V20h-0.5v-6.9H170z"/>
	</g>
</g>
</svg>
