<svg width="94" height="94" viewBox="0 0 94 94" fill="none" xmlns="http://www.w3.org/2000/svg">
<path d="M66.7543 57.7384C65.9124 56.9843 64.6188 57.0579 63.8689 57.8978C59.6062 62.6611 53.4594 65.3912 47 65.3912C40.5426 65.3912 34.3938 62.6611 30.1311 57.8978C29.377 57.0579 28.0876 56.9843 27.2457 57.7384C26.4038 58.4904 26.3343 59.7819 27.0863 60.6238C32.1235 66.2515 39.3819 69.4782 47 69.4782C54.6201 69.4782 61.8785 66.2495 66.9137 60.6238C67.6657 59.7819 67.5942 58.4904 66.7543 57.7384Z" fill="#00A0E3"/>
<path d="M47 0C21.0846 0 0 21.0846 0 47C0 72.9154 21.0846 94 47 94C72.9154 94 94 72.9154 94 47C94 21.0846 72.9154 0 47 0ZM47 89.913C23.3365 89.913 4.08696 70.6635 4.08696 47C4.08696 23.3365 23.3365 4.08696 47 4.08696C70.6635 4.08696 89.913 23.3365 89.913 47C89.913 70.6635 70.6635 89.913 47 89.913Z" fill="#00A0E3"/>
<path d="M63.3478 32.6956C57.7139 32.6956 53.1304 37.2791 53.1304 42.913C53.1304 44.041 54.0458 44.9565 55.1738 44.9565C56.3018 44.9565 57.2173 44.041 57.2173 42.913C57.2173 39.5331 59.9678 36.7826 63.3478 36.7826C66.7277 36.7826 69.4782 39.5331 69.4782 42.913C69.4782 44.041 70.3937 44.9565 71.5217 44.9565C72.6497 44.9565 73.5652 44.041 73.5652 42.913C73.5652 37.2791 68.9816 32.6956 63.3478 32.6956Z" fill="#00A0E3"/>
<path d="M36.7826 42.913C36.7826 44.041 37.6981 44.9565 38.8261 44.9565C39.9541 44.9565 40.8696 44.041 40.8696 42.913C40.8696 37.2791 36.2861 32.6956 30.6522 32.6956C25.0183 32.6956 20.4348 37.2791 20.4348 42.913C20.4348 44.041 21.3503 44.9565 22.4783 44.9565C23.6063 44.9565 24.5218 44.041 24.5218 42.913C24.5218 39.5331 27.2723 36.7826 30.6522 36.7826C34.0321 36.7826 36.7826 39.5331 36.7826 42.913Z" fill="#00A0E3"/>
</svg>
