<svg width="94" height="94" viewBox="0 0 94 94" fill="none" xmlns="http://www.w3.org/2000/svg">
<path d="M47 0C21.0846 0 0 21.0846 0 47C0 72.9154 21.0846 94 47 94C72.9174 94 94 72.9154 94 47C94 21.0846 72.9174 0 47 0ZM47 89.913C23.3365 89.913 4.08696 70.6635 4.08696 47C4.08696 23.3365 23.3365 4.08696 47 4.08696C70.6614 4.08696 89.913 23.3365 89.913 47C89.913 70.6635 70.6614 89.913 47 89.913Z" fill="#F6667F"/>
<path d="M36.7826 38.8261C36.7826 35.4462 34.0321 32.6956 30.6522 32.6956C27.2723 32.6956 24.5217 35.4462 24.5217 38.8261C24.5217 42.206 27.2723 44.9565 30.6522 44.9565C34.0321 44.9565 36.7826 42.206 36.7826 38.8261ZM28.6087 38.8261C28.6087 37.7001 29.5262 36.7826 30.6522 36.7826C31.7781 36.7826 32.6956 37.7001 32.6956 38.8261C32.6956 39.952 31.7781 40.8696 30.6522 40.8696C29.5262 40.8696 28.6087 39.952 28.6087 38.8261Z" fill="#F6667F"/>
<path d="M63.3477 32.6956C59.9678 32.6956 57.2173 35.4462 57.2173 38.8261C57.2173 42.206 59.9678 44.9565 63.3477 44.9565C66.7276 44.9565 69.4782 42.206 69.4782 38.8261C69.4782 35.4462 66.7276 32.6956 63.3477 32.6956ZM63.3477 40.8696C62.2197 40.8696 61.3042 39.952 61.3042 38.8261C61.3042 37.7001 62.2197 36.7826 63.3477 36.7826C64.4757 36.7826 65.3912 37.7001 65.3912 38.8261C65.3912 39.952 64.4757 40.8696 63.3477 40.8696Z" fill="#F6667F"/>
<path d="M47 57.2174C39.3819 57.2174 32.1235 60.4441 27.0863 66.0718C26.3343 66.9137 26.4058 68.2052 27.2457 68.9572C28.0876 69.7112 29.3791 69.6377 30.1311 68.7978C34.3938 64.0344 40.5426 61.3044 47 61.3044C53.4574 61.3044 59.6062 64.0344 63.8689 68.7978C64.2715 69.2494 64.8314 69.4783 65.3913 69.4783C65.8756 69.4783 66.3661 69.3066 66.7543 68.9572C67.5942 68.2052 67.6657 66.9137 66.9137 66.0718C61.8765 60.4461 54.6201 57.2174 47 57.2174Z" fill="#F6667F"/>
</svg>
