<svg width="21" height="15" viewBox="0 0 21 15" fill="none" xmlns="http://www.w3.org/2000/svg">
<path d="M8.4454 12.7315C6.8239 13.9121 5.28267 14.8611 2.90661 15C-0.175851 14.9074 -0.673539 11.9445 0.787418 8.84276C2.1681 5.69471 4.36757 2.91701 7.86744 1.13465C8.87887 0.625406 10.3719 0.0235692 11.8008 0.000421683C13.8718 -0.0227258 15.8786 0.903173 15.7502 3.75032C15.6699 5.92618 13.4705 9.0048 12.3306 11.2501C11.8329 12.2223 11.7526 12.8241 12.5875 12.7778C15.6539 12.5001 18.4152 10.9723 21 9.37516C19.2661 11.0649 10.2596 17.5231 10.2274 13.1019C10.2435 12.5695 10.4201 11.9677 10.7091 11.3427C10.9981 10.7177 11.3994 10.0464 11.8168 9.3983C12.4269 8.37981 13.9521 5.97248 14.4498 4.51418C15.3167 1.78278 13.3741 1.62075 11.7366 0.787439L10.9981 1.38927L11.4315 1.99111C8.99125 2.59294 7.78717 3.14848 4.80104 4.65307L5.13818 5.90303L4.11069 7.38447C4.09464 7.33818 3.93409 7.29188 3.613 7.03726V9.4446C2.28048 10.3011 1.12456 11.7593 2.02361 13.0325C2.11994 13.1482 2.24837 13.2408 2.3447 13.2639C3.99831 14.537 8.4454 12.7315 8.4454 12.7315Z" fill="white"/>
</svg>
