<svg xmlns="http://www.w3.org/2000/svg" width="16" height="16" viewBox="0 0 16 16">
    <g fill="#DBDBDB" fill-rule="nonzero">
        <path d="M13.091 1.131L1.193 13.171a1.195 1.195 0 0 0 0 1.68l.019.018a1.193 1.193 0 0 0 1.697 0l11.898-12.04c.46-.465.46-1.214 0-1.68l-.019-.018a1.193 1.193 0 0 0-1.697 0z"/>
        <path d="M2.909 1.131l11.898 12.04c.46.465.46 1.214 0 1.68l-.019.018a1.193 1.193 0 0 1-1.697 0L1.193 2.829a1.195 1.195 0 0 1 0-1.68l.019-.018a1.193 1.193 0 0 1 1.697 0z"/>
    </g>
</svg>
