<svg width="12" height="12" viewBox="0 0 12 12" fill="none" xmlns="http://www.w3.org/2000/svg">
	<path fill-rule="evenodd" clip-rule="evenodd" d="M9.26266 10.4916C9.39679 10.713 9.32602 11.0012 9.10455 11.1353C8.17072 11.701 7.09717 12 6 12C4.39737 12 2.89059 11.3759 1.75735 10.2426C0.624115 9.10941 0 7.60263 0 6C0 4.39737 0.624115 2.89059 1.75735 1.75735C2.89059 0.624115 4.39737 0 6 0C7.60263 0 9.10941 0.624115 10.2426 1.75735C11.3759 2.89059 12 4.39737 12 6C12 7.18433 11.6485 8.33615 10.9834 9.33087C10.8396 9.54611 10.5484 9.60397 10.3332 9.46005C10.118 9.31613 10.0602 9.02499 10.2041 8.80984C10.7657 7.96976 11.0625 6.9982 11.0625 6C11.0625 3.20856 8.79144 0.9375 6 0.9375C3.20856 0.9375 0.9375 3.20856 0.9375 6C0.9375 8.79144 3.20856 11.0625 6 11.0625C6.92587 11.0625 7.83151 10.8104 8.61887 10.3335C8.84024 10.1993 9.12845 10.2701 9.26266 10.4916ZM6.44531 7.28909V6.65966C7.35168 6.44039 7.97964 5.61807 7.94385 4.68816C7.90494 3.67559 7.07419 2.85226 6.05255 2.81399C5.50671 2.7933 4.99127 2.98885 4.60162 3.36413C4.21866 3.733 4.00781 4.22793 4.00781 4.75784C4.00781 5.01675 4.21765 5.22659 4.47656 5.22659C4.73547 5.22659 4.94531 5.01675 4.94531 4.75784C4.94531 4.48501 5.05417 4.22985 5.25192 4.03942C5.45645 3.84249 5.72809 3.74004 6.0174 3.75076C6.55215 3.7709 6.98685 4.19845 7.00708 4.72424C7.02585 5.21423 6.68765 5.64718 6.2027 5.75356C5.79355 5.84338 5.50781 6.19695 5.50781 6.61352V7.28909C5.50781 7.548 5.71765 7.75784 5.97656 7.75784C6.23547 7.75784 6.44531 7.548 6.44531 7.28909ZM5.97656 9.39844C5.71765 9.39844 5.50781 9.1886 5.50781 8.92969C5.50781 8.67078 5.71765 8.46094 5.97656 8.46094C6.23547 8.46094 6.44531 8.67078 6.44531 8.92969C6.44531 9.1886 6.23547 9.39844 5.97656 9.39844Z" fill="#FFA23C"/>
</svg>
