<?xml version="1.0" encoding="utf-8"?>
<svg version="1.1" id="Layer_1" xmlns="http://www.w3.org/2000/svg" xmlns:xlink="http://www.w3.org/1999/xlink" x="0px" y="0px"
	 viewBox="0 0 280 60" style="enable-background:new 0 0 280 60;" xml:space="preserve">
<style type="text/css">
	.st0{fill:#01C8FE;}
	.st1{fill:#FF8E12;}
	.st2{fill:#FFFFFF;}
	.st3{fill:#FCBD2B;}
</style>
<g id="Layer_2">
	<g>
		<path id="_x2B_-_x2013_" class="st0" d="M210.8,27.6v-5.5h-5.2v-1.6h5.2V15h1.5v5.5h5.2v1.6h-5.2v5.5H210.8z M205.6,32.8v-1.5
			h11.2v1.5H205.6z"/>
		<path id="Calculator" class="st1" d="M162.4,53.3c-1.7,0.7-3.7,1.1-6,1.1c-2.8,0-5-0.8-6.6-2.4c-1.6-1.6-2.4-3.8-2.4-6.6
			c0-2.9,0.8-5.1,2.4-6.6c1.6-1.5,3.9-2.3,6.8-2.3c1.9,0,3.7,0.2,5.6,0.6v2.8c-2.1-0.7-3.9-1.1-5.3-1.1c-1.8,0-3.2,0.6-4.2,1.7
			s-1.5,2.8-1.5,4.9c0,2,0.5,3.7,1.6,4.8c1,1.2,2.5,1.7,4.4,1.7c1.7,0,3.4-0.4,5.1-1.3L162.4,53.3L162.4,53.3z M171.8,52.6
			c-1.2,1.1-2.4,1.6-3.7,1.6c-1.1,0-2-0.3-2.7-1c-0.7-0.7-1-1.6-1-2.6c0-1.4,0.6-2.5,1.7-3.3c1.1-0.8,2.7-1.1,4.9-1.1h0.9v-1.2
			c0-1.3-0.8-2-2.3-2c-1.3,0-2.7,0.4-4.1,1.1v-2.4c1.6-0.6,3.1-0.9,4.6-0.9c3.3,0,5,1.3,5,3.9v5.6c0,1,0.3,1.5,1,1.5
			c0.1,0,0.3,0,0.4,0l0.1,1.9c-0.7,0.2-1.4,0.3-1.9,0.3c-1.4,0-2.3-0.6-2.7-1.6L171.8,52.6L171.8,52.6z M171.8,50.8v-2.6H171
			c-2.2,0-3.3,0.7-3.3,2.1c0,0.5,0.2,0.8,0.5,1.2c0.3,0.3,0.7,0.5,1.2,0.5C170.1,52,171,51.6,171.8,50.8z M179.6,54V35.8h3.5V54
			H179.6z M196.7,53.7c-1.4,0.4-2.7,0.6-4,0.6c-2,0-3.7-0.6-4.8-1.8c-1.2-1.2-1.8-2.8-1.8-4.9s0.6-3.7,1.8-4.9s2.9-1.8,5.1-1.8
			c1,0,2.2,0.2,3.6,0.5V44c-1.4-0.4-2.5-0.7-3.4-0.7c-1,0-1.8,0.4-2.5,1.2c-0.6,0.8-0.9,1.8-0.9,3.1c0,1.3,0.3,2.4,1,3.2
			c0.7,0.8,1.6,1.2,2.7,1.2c1,0,2.1-0.2,3.2-0.7L196.7,53.7L196.7,53.7z M207.9,54v-2.4c-1.1,1.8-2.6,2.7-4.3,2.7
			c-1.1,0-2-0.4-2.7-1.1c-0.6-0.7-1-1.7-1-2.9v-9h3.5v8.1c0,1.4,0.5,2.2,1.4,2.2c1.1,0,2.1-0.8,3.1-2.3v-8h3.5V54L207.9,54L207.9,54
			z M215.6,54V35.8h3.5V54H215.6z M229.7,52.6c-1.2,1.1-2.4,1.6-3.7,1.6c-1.1,0-2-0.3-2.7-1c-0.7-0.7-1-1.6-1-2.6
			c0-1.4,0.6-2.5,1.7-3.3c1.1-0.8,2.7-1.1,4.9-1.1h0.9v-1.2c0-1.3-0.8-2-2.3-2c-1.3,0-2.7,0.4-4.1,1.1v-2.4c1.6-0.6,3.1-0.9,4.6-0.9
			c3.3,0,5,1.3,5,3.9v5.6c0,1,0.3,1.5,1,1.5c0.1,0,0.3,0,0.4,0l0.1,1.9c-0.7,0.2-1.4,0.3-1.9,0.3c-1.4,0-2.3-0.6-2.7-1.6L229.7,52.6
			L229.7,52.6z M229.7,50.8v-2.6h-0.8c-2.2,0-3.3,0.7-3.3,2.1c0,0.5,0.2,0.8,0.5,1.2c0.3,0.3,0.7,0.5,1.2,0.5
			C228,52,228.8,51.6,229.7,50.8z M244,53.9c-0.8,0.2-1.5,0.4-1.9,0.4c-3,0-4.5-1.4-4.5-4.1v-6.7h-1.4v-2.1h1.4v-2.1l3.5-0.4v2.5
			h2.7v2.1H241v6.2c0,1.6,0.6,2.3,1.9,2.3c0.3,0,0.6,0,1-0.2L244,53.9L244,53.9z M252.4,54.3c-2,0-3.6-0.6-4.7-1.8
			c-1.2-1.2-1.8-2.8-1.8-4.8c0-2,0.6-3.7,1.8-4.9c1.2-1.2,2.8-1.8,4.8-1.8s3.7,0.6,4.8,1.8s1.8,2.8,1.8,4.8c0,2.1-0.6,3.7-1.8,4.9
			C256.2,53.7,254.5,54.3,252.4,54.3z M252.5,52.2c2,0,3-1.5,3-4.5c0-1.4-0.3-2.5-0.8-3.3c-0.5-0.8-1.2-1.2-2.2-1.2
			c-0.9,0-1.6,0.4-2.1,1.2s-0.8,1.9-0.8,3.3c0,1.4,0.2,2.5,0.8,3.3C250.9,51.8,251.6,52.2,252.5,52.2z M262.3,54V41.4h3.5v2.4
			c0.9-1.8,2.2-2.7,4.1-2.7c0.2,0,0.4,0,0.6,0.1v3.1c-0.5-0.2-0.9-0.3-1.4-0.3c-1.4,0-2.5,0.7-3.3,2v8L262.3,54L262.3,54z"/>
		<path id="FBA" class="st0" d="M149.7,32.8V15.7h10.9V18h-7.3v5.2h6v2.4h-6v7.2L149.7,32.8L149.7,32.8z M167.2,32.8V15.7h5.9
			c1.7,0,3.1,0.3,4,1c0.9,0.6,1.4,1.6,1.4,2.9c0,2-1.4,3.5-4.1,4.4c3.2,0.8,4.9,2.4,4.9,4.7c0,1.4-0.5,2.4-1.4,3.1
			c-1,0.7-2.3,1.1-4.1,1.1L167.2,32.8L167.2,32.8z M170.6,22.8h0.8c1,0,1.8-0.2,2.4-0.7c0.6-0.5,0.9-1.2,0.9-2
			c0-0.8-0.2-1.3-0.7-1.6c-0.5-0.3-1.4-0.4-2.7-0.4h-0.7L170.6,22.8L170.6,22.8z M170.6,30.4h0.8c1.5,0,2.6-0.2,3.1-0.5
			c0.6-0.3,0.8-0.9,0.8-1.8c0-0.9-0.4-1.6-1.2-2.2s-1.7-0.9-2.9-0.9h-0.7L170.6,30.4L170.6,30.4z M184.1,32.8l6.7-17.2h3.6l6.7,17.2
			h-3.7l-1.8-4.6h-7.1l-1.8,4.6H184.1z M189.4,26h5.4l-2.7-6.8L189.4,26z"/>
	</g>
	<title>Logo white@3x</title>
	<g>
		<path class="st2" d="M26.1,38.2L24.6,35h-9.9l-1.5,3.2H6.9v-0.9l11.3-24.6H21l11.4,24.6v0.9H26.1z M22.5,29.5l-2.9-6.6l-2.9,6.6
			H22.5z M47.9,23.9L38,12.9h-2.4v25.3h6.6V27l5.3,5.6h0.7l5.3-5.6v11.2h6.6V12.9h-2.3C57.9,12.9,47.9,23.9,47.9,23.9z M84.3,13
			H65.2v5.7h9.4L64.3,37.2v1H81l3.4-5.7H73.9L84.3,14L84.3,13L84.3,13z"/>
		<path class="st1" d="M66.8,50.7h-3.2C63.5,56.4,74,56.3,74,50.8c0-3.3-2.5-3.6-5.1-3.9c-1.2-0.1-2.1-0.3-2-1.3
			c0.1-1.5,3.6-1.7,3.6,0h3.1c0.1-5.6-10-5.6-9.9,0c0,2.8,1.9,3.8,4.7,4c1.3,0.1,2.4,0.2,2.4,1.1C70.8,52.3,66.8,52.4,66.8,50.7z
			 M75.5,48.2c0,4.4,3.3,6.6,6.6,6.6c2.8,0,5.7-1.4,6.1-5.1H85c-0.4,1.4-1.5,2.1-2.9,2.1c-2,0-3.2-1.7-3.2-3.6
			c0-2.1,1.3-3.6,3.2-3.6c1.4,0,2.4,0.6,2.8,1.9h3.3c-0.5-3.5-3.4-4.9-6.1-4.9C78.8,41.6,75.5,43.8,75.5,48.2L75.5,48.2z M103,48.2
			c0-9-13.3-9-13.3,0C89.7,57.2,103,57.2,103,48.2z M93.1,48.2c0,4.7,6.5,4.7,6.5,0C99.6,43.6,93.1,43.6,93.1,48.2z M109.5,51.9
			c-1,0-2-0.5-2-1.6v-8.6h-3.2v8.6c0,2.9,2.5,4.5,5.1,4.5c2.7,0,5.1-1.6,5.1-4.5v-8.6h-3.2v8.6C111.5,51.4,110.5,51.9,109.5,51.9
			L109.5,51.9z M119.2,44.7v10h3.3v-10h3.2v-3h-9.6v3H119.2L119.2,44.7z"/>
		<path class="st3" d="M120.7,16.7l-3-13.5l-19.1,6l6.5,3.6L90.8,38.5h12.3l8-14.5l-5.1-2.8C106,21.3,120.7,16.7,120.7,16.7z"/>
		<path class="st1" d="M120.7,16.7l12.8-4l4.1,18.8l-6.3-3.5l-5.8,10.5h-13.7l0,0h1.8l5.4-10l4.9,2.7L120.7,16.7z"/>
	</g>
</g>
</svg>
