<svg xmlns="http://www.w3.org/2000/svg" xmlns:xlink="http://www.w3.org/1999/xlink" width="16" height="16" viewBox="0 0 16 16">
    <defs>
        <path id="a" d="M1.835 2.68A7.652 7.652 0 0 1 10.767.664a.696.696 0 1 1-.567 1.27 6.26 6.26 0 1 0 3.713 5.724V7.01a.696.696 0 0 1 1.391 0v.647A7.652 7.652 0 1 1 1.835 2.68zM14.812.905a.696.696 0 1 1 .984.984L8.144 9.54a.696.696 0 0 1-.984 0L5.073 7.453a.696.696 0 0 1 .984-.984l1.595 1.595z"/>
    </defs>
    <use fill="#129A5F" fill-rule="nonzero" xlink:href="#a"/>
</svg>
