<?xml version="1.0" encoding="UTF-8"?>
<svg width="68px" height="68px" viewBox="0 0 68 68" version="1.1" xmlns="http://www.w3.org/2000/svg" xmlns:xlink="http://www.w3.org/1999/xlink">
    <!-- Generator: Sketch 61.2 (89653) - https://sketch.com -->
    <title>2</title>
    <desc>Created with Sketch.</desc>
    <g id="PREMIUM-ACC-MVP" stroke="none" stroke-width="1" fill="none" fill-rule="evenodd">
        <g id="Banner-Floating-Button-Hint" transform="translate(-1286.000000, -518.000000)">
            <g id="2" transform="translate(1288.000000, 520.000000)">
                <circle id="Oval" stroke="#FFA23C" stroke-width="2.66666667" fill="#FFF9ED" cx="32" cy="32" r="32"></circle>
                <g id="confetti" transform="translate(14.666667, 14.666667)" fill-rule="nonzero">
                    <path d="M17.238312,14.36256 C12.773736,9.89856 7.878312,7.555968 6.303528,9.130176 C6.130728,9.311184 6.003576,9.530712 5.932584,9.770688 L5.90724,9.745344 L4.403304,15.908544 L2.905704,22.053312 L1.130472,29.329344 L0.006696,33.937344 L6.660072,31.419648 L15.122664,28.217664 L21.87396,25.663104 L21.865896,25.65504 C22.091904,25.582968 22.298688,25.460712 22.470696,25.297344 C24.04548,23.72256 21.702888,18.827136 17.238312,14.36256 Z" id="Path" fill="#FCBD2B"></path>
                    <ellipse id="Oval" fill="#D1E3EE" transform="translate(14.387249, 17.211795) rotate(-135.000000) translate(-14.387249, -17.211795) " cx="14.3872491" cy="17.211795" rx="11.4318344" ry="4.03196133"></ellipse>
                    <path d="M21.261096,25.8624 C20.454984,25.876512 19.655208,25.717824 18.915624,25.396992 L13.397544,27.484992 L4.932072,30.684096 L0.392616,32.401728 L0.006696,33.984 L6.660072,31.466304 L15.122664,28.26432 L21.318696,25.92 L21.261096,25.8624 Z" id="Path" fill="#FCBD2B"></path>
                    <g id="Group" transform="translate(10.512000, 3.384000)" fill="#FFBF41">
                        <path d="M17.718696,17.928 C17.64972,17.927784 17.58132,17.915472 17.51652,17.891712 C14.592384,16.796232 11.431512,16.48908 8.351208,17.001216 L6.293736,17.343936 C5.978808,17.388864 5.687064,17.169984 5.642136,16.855056 C5.59872,16.550784 5.801832,16.266024 6.103656,16.208064 L8.161704,15.862464 C11.441592,15.317496 14.807088,15.644304 17.920872,16.809984 C18.220248,16.917552 18.375696,17.247456 18.268128,17.546832 C18.18504,17.778096 17.964432,17.931168 17.718696,17.928 Z" id="Path"></path>
                        <path d="M7.350696,14.472013 C7.0326,14.470128 6.776208,14.210712 6.77806981,13.892616 C6.779376,13.673016 6.905376,13.473288 7.103016,13.3776 L19.199016,7.6176 C19.486296,7.4808 19.830024,7.602768 19.966824,7.890048 C20.103624,8.177328 19.981656,8.521056 19.694376,8.657856 L19.694376,8.657856 L7.598376,14.417856 C7.520904,14.454072 7.436304,14.472576 7.350696,14.472013 Z" id="Path"></path>
                        <path d="M0.614952,13.320001 C0.538992,13.320144 0.463752,13.305096 0.393768,13.275648 C0.100152,13.153176 -0.038592,12.815928 0.08388,12.522312 C0.08388,12.522312 0.08388,12.52224 0.08388,12.52224 L0.921384,10.512576 C2.209968,7.433496 2.510424,4.0302 1.781352,0.772992 C1.706616,0.463752 1.896768,0.152568 2.205936,0.077832 C2.515176,0.003096 2.82636,0.193248 2.901096,0.502416 C2.902752,0.509256 2.904264,0.516096 2.905704,0.523008 C3.68676,4.0122 3.364704,7.657848 1.984104,10.956096 L1.146024,12.96576 C1.0566,13.180104 0.847224,13.319784 0.614952,13.320001 L0.614952,13.320001 Z" id="Path"></path>
                    </g>
                    <circle id="Oval" fill="#F8A750" cx="31.110696" cy="22.464" r="1.152"></circle>
                    <circle id="Oval" fill="#F8A750" cx="17.286696" cy="6.336" r="1.152"></circle>
                    <path d="M12.102696,2.304 C11.466432,2.304 10.950696,1.788264 10.950696,1.152 C10.950696,0.515736 11.466432,0 12.102696,0 C12.73896,0 13.254696,0.515736 13.254696,1.152 C13.254696,1.788264 12.73896,2.304 12.102696,2.304 Z" id="Path" fill="#388CC4"></path>
                    <g id="Group" transform="translate(25.920000, 0.000000)" fill="#F8A750">
                        <path d="M2.310696,4.608 C1.9926,4.608 1.734696,4.350096 1.734696,4.032 L1.734696,3.456 C1.734696,3.137904 1.9926,2.88 2.310696,2.88 C2.628792,2.88 2.886696,3.137904 2.886696,3.456 L2.886696,4.032 C2.886696,4.350096 2.628864,4.608 2.310696,4.608 Z" id="Path"></path>
                        <path d="M2.310696,1.728 C1.9926,1.728 1.734696,1.470096 1.734696,1.152 L1.734696,0.576 C1.734696,0.257904 1.9926,0 2.310696,0 C2.628792,0 2.886696,0.257904 2.886696,0.576 L2.886696,1.152 C2.886696,1.470096 2.628864,1.728 2.310696,1.728 Z" id="Path"></path>
                        <path d="M4.038696,2.88 L3.462696,2.88 C3.1446,2.88 2.886696,2.622096 2.886696,2.304 C2.886696,1.985904 3.1446,1.728 3.462696,1.728 L4.038696,1.728 C4.356792,1.728 4.614696,1.985904 4.614696,2.304 C4.614696,2.622096 4.356864,2.88 4.038696,2.88 Z" id="Path"></path>
                        <path d="M1.158696,2.88 L0.582696,2.88 C0.2646,2.88 0.006696,2.622096 0.006696,2.304 C0.006696,1.985904 0.2646,1.728 0.582696,1.728 L1.158696,1.728 C1.476792,1.728 1.734696,1.985904 1.734696,2.304 C1.734696,2.622096 1.476864,2.88 1.158696,2.88 Z" id="Path"></path>
                    </g>
                    <path d="M4.578984,16.704 C4.514472,16.457472 4.456872,16.20864 4.403304,15.9552 L2.905704,22.099968 L3.020904,23.504832 C3.271968,26.49996 4.558608,29.314008 6.659496,31.463424 L15.122664,28.26432 C15.076584,28.24992 15.028776,28.239552 14.982696,28.224 C9.850896,26.2998 5.97204,22.004712 4.578984,16.704 Z" id="Path" fill="#FFFFFF"></path>
                    <path d="M15.122664,28.26432 C15.076584,28.24992 15.028776,28.239552 14.982696,28.224 C14.428296,28.01412 13.885272,27.775152 13.356072,27.508032 L5.733288,30.392064 C6.022296,30.766896 6.33168,31.125528 6.660072,31.466304 L15.122664,28.26432 Z" id="Path" fill="#F6F6E7"></path>
                    <polygon id="Path" fill="#129A5F" points="24.198696 6.899904 24.198696 9.792 21.3066 9.792 21.3066 6.899904"></polygon>
                    <path d="M13.830696,17.28 C13.5126,17.279928 13.254768,17.021952 13.25484,16.703856 C13.254912,16.540704 13.324104,16.385256 13.445352,16.276032 L19.205352,11.092032 C19.445904,10.88388 19.809648,10.91016 20.0178,11.150712 C20.220192,11.384568 20.20176,11.736504 19.97604,11.947968 L14.21604,17.131968 C14.110344,17.227224 13.97304,17.279928 13.830696,17.28 L13.830696,17.28 Z" id="Path" fill="#FFBF41"></path>
                    <g id="Group" transform="translate(0.000000, 0.576000)">
                        <path d="M30.534696,14.4 C30.2166,14.4 29.958696,14.142096 29.958696,13.824 L29.958696,13.248 C29.958696,12.929904 30.2166,12.672 30.534696,12.672 C30.852792,12.672 31.110696,12.929904 31.110696,13.248 L31.110696,13.824 C31.110696,14.142096 30.852864,14.4 30.534696,14.4 Z" id="Path" fill="#FFDB43"></path>
                        <path d="M32.571432,13.5561623 C32.418576,13.556592 32.271912,13.495824 32.1642,13.387392 L31.756968,12.98016 C31.536,12.751344 31.542264,12.386664 31.77108,12.165696 C31.99428,11.950128 32.34816,11.950128 32.571432,12.165696 L32.978664,12.572928 C33.203592,12.797928 33.20352,13.162608 32.97852,13.387536 C32.870592,13.495464 32.724144,13.5561623 32.571432,13.5561623 L32.571432,13.5561623 Z" id="Path" fill="#FFDB43"></path>
                        <path d="M33.414696,11.52 L32.838696,11.52 C32.5206,11.52 32.262696,11.262096 32.262696,10.944 C32.262696,10.625904 32.5206,10.368 32.838696,10.368 L33.414696,10.368 C33.732792,10.368 33.990696,10.625904 33.990696,10.944 C33.990696,11.262096 33.732864,11.52 33.414696,11.52 Z" id="Path" fill="#FFDB43"></path>
                        <path d="M32.1642,9.891072 C31.846104,9.891 31.588272,9.633096 31.588344,9.314928 C31.588344,9.162216 31.64904,9.015768 31.756968,8.90784 L32.1642,8.500608 C32.393016,8.279568 32.757624,8.285904 32.978664,8.51472 C33.194232,8.73792 33.194232,9.0918 32.978664,9.315072 L32.571432,9.722304 C32.463432,9.830304 32.316984,9.891072 32.1642,9.891072 L32.1642,9.891072 Z" id="Path" fill="#FFDB43"></path>
                        <path d="M30.534696,9.216 C30.2166,9.216 29.958696,8.958096 29.958696,8.64 L29.958696,8.064 C29.958696,7.745904 30.2166,7.488 30.534696,7.488 C30.852792,7.488 31.110696,7.745904 31.110696,8.064 L31.110696,8.64 C31.110696,8.958096 30.852864,9.216 30.534696,9.216 Z" id="Path" fill="#FFDB43"></path>
                        <path d="M28.905192,9.891072 C28.752408,9.891072 28.60596,9.830304 28.49796,9.722304 L28.090728,9.315072 C27.86976,9.086256 27.876024,8.721576 28.10484,8.500608 C28.32804,8.28504 28.68192,8.28504 28.905192,8.500608 L29.312424,8.90784 C29.537352,9.13284 29.53728,9.49752 29.31228,9.722448 C29.204352,9.830376 29.057904,9.891072 28.905192,9.891072 L28.905192,9.891072 Z" id="Path" fill="#FFDB43"></path>
                        <polygon id="Path" fill="#F83535" points="2.886696 0 3.776616 1.803456 5.766696 2.092608 4.326696 3.49632 4.666536 5.478336 2.886696 4.542336 1.106856 5.478336 1.446696 3.49632 0.006696 2.092608 1.996776 1.803456"></polygon>
                    </g>
                    <path d="M33.80868,31.199616 C33.53472,30.228696 32.903928,29.397312 32.042664,28.872 L31.805352,28.516032 C30.47472,26.526168 28.382328,25.173144 26.021736,24.776064 C25.706808,24.731136 25.415064,24.950016 25.370136,25.264944 C25.32672,25.569216 25.529832,25.853976 25.831656,25.911936 C27.534312,26.200944 29.085984,27.065952 30.227112,28.36224 C29.267712,28.534824 28.428624,29.11104 27.923112,29.944512 C27.30276,31.055544 27.70056,32.45904 28.811592,33.079392 C29.922624,33.699744 31.32612,33.301944 31.946472,32.190912 C32.183424,31.733496 32.311368,31.227408 32.320296,30.71232 C32.93316,31.602456 32.982192,32.764896 32.44644,33.703488 C32.284152,33.977088 32.374368,34.330464 32.647968,34.492752 C32.921568,34.65504 33.274944,34.564824 33.437232,34.291224 C33.442416,34.28244 33.447384,34.273584 33.452136,34.264512 C33.975432,33.331464 34.103808,32.227848 33.80868,31.199616 L33.80868,31.199616 Z M30.941928,31.628736 C30.634488,32.1858 29.933712,32.38812 29.37672,32.08068 C28.819656,31.77324 28.617336,31.072464 28.924776,30.515472 C28.926504,30.512376 28.928232,30.509208 28.92996,30.506112 C29.269872,29.949552 29.843208,29.576448 30.489768,29.4912 C30.58992,29.488464 30.689064,29.511504 30.777768,29.558016 C31.263912,29.829312 31.289832,31.005504 30.941928,31.628736 Z" id="Shape" fill="#388CC4"></path>
                </g>
            </g>
        </g>
    </g>
</svg>