<?xml version="1.0" encoding="UTF-8"?>
<svg width="116px" height="28px" viewBox="0 0 116 28" version="1.1" xmlns="http://www.w3.org/2000/svg" xmlns:xlink="http://www.w3.org/1999/xlink">
    <!-- Generator: Sketch 52.2 (67145) - http://www.bohemiancoding.com/sketch -->
    <title>cryptotab-logo</title>
    <desc>Created with Sketch.</desc>
    <g id="Startpage" stroke="none" stroke-width="1" fill="none" fill-rule="evenodd">
        <g id="cryptotab_startpage-03-weather" transform="translate(-20.000000, -355.000000)">
            <g id="ct-block" transform="translate(10.000000, 345.000000)">
                <g id="unregistred">
                    <g id="icon---menu">
                        <g id="active">
                            <g id="dropdown">
                                <g id="cryptotab-logo" transform="translate(10.000000, 10.000000)">
                                    <path d="M44.2023644,17.5168 C44.2921462,17.4719998 44.4184,17.4496 44.5811296,17.4496 C44.7438591,17.4496 44.8841411,17.5139994 45.0019798,17.6428 C45.1198184,17.7716006 45.1787368,17.9199992 45.1787368,18.088 C45.1787368,18.3904015 45.0552887,18.6031994 44.8083887,18.7264 C44.2809204,19.0176015 43.7169868,19.263999 43.1165709,19.4656 C42.5161549,19.667201 41.7979111,19.768 40.9618178,19.768 C40.1257246,19.768 39.3485623,19.6308014 38.6303077,19.3564 C37.9120531,19.0819986 37.289201,18.6816026 36.7617328,18.1552 C35.63946,17.0575945 35.078332,15.5848092 35.078332,13.7368 C35.078332,11.8887908 35.63946,10.4160055 36.7617328,9.3184 C37.8503374,8.24319462 39.2531574,7.7056 40.9702348,7.7056 C41.8007167,7.7056 42.5161549,7.80639899 43.1165709,8.008 C43.7169868,8.20960101 44.1771118,8.39719913 44.4969595,8.5708 C44.8168073,8.74440087 45.0103964,8.88439947 45.0777328,8.9908 C45.1450692,9.09720053 45.1787368,9.23159919 45.1787368,9.394 C45.1787368,9.55640081 45.1198184,9.70199936 45.0019798,9.8308 C44.8841411,9.95960064 44.7438591,10.024 44.5811296,10.024 C44.4184,10.024 44.2921462,10.0016002 44.2023644,9.9568 C43.7534552,9.72159882 43.2933303,9.53120073 42.8219757,9.3856 C42.3506211,9.23999927 41.7642424,9.1672 41.0628219,9.1672 C40.3614014,9.1672 39.7273267,9.28479882 39.1605789,9.52 C38.5938312,9.75520118 38.119678,10.0799979 37.7381053,10.4944 C36.9861825,11.3120041 36.6102267,12.3927933 36.6102267,13.7368 C36.6102267,15.0808067 36.9861825,16.1615959 37.7381053,16.9792 C38.5573644,17.8640044 39.6852317,18.3064 41.1217409,18.3064 C41.7838819,18.3064 42.3506211,18.2336007 42.8219757,18.088 C43.2933303,17.9423993 43.7534552,17.7520012 44.2023644,17.5168 Z M48.6297085,12.4432 C49.4152995,11.3903947 50.2962704,10.864 51.2726478,10.864 L51.3568178,10.864 C51.5700496,10.864 51.746805,10.9367993 51.8870891,11.0824 C52.0273732,11.2280007 52.0975142,11.4099989 52.0975142,11.6284 C52.0975142,11.8468011 52.0245675,12.0203994 51.8786721,12.1492 C51.7327766,12.2780006 51.5476044,12.3424 51.3231498,12.3424 L51.2389798,12.3424 C50.6778433,12.3424 50.1756338,12.4795986 49.732336,12.754 C49.2890383,13.0284014 48.9214994,13.3839978 48.6297085,13.8208 L48.6297085,18.928 C48.6297085,19.1408011 48.5539562,19.3199993 48.4024494,19.4656 C48.2509426,19.6112007 48.068576,19.684 47.8553441,19.684 C47.6421123,19.684 47.4625513,19.6112007 47.3166559,19.4656 C47.1707604,19.3199993 47.0978138,19.1408011 47.0978138,18.928 L47.0978138,11.7208 C47.0978138,11.5079989 47.1707604,11.3260008 47.3166559,11.1748 C47.4625513,11.0235992 47.6421123,10.948 47.8553441,10.948 C48.068576,10.948 48.2509426,11.0235992 48.4024494,11.1748 C48.5539562,11.3260008 48.6297085,11.5079989 48.6297085,11.7208 L48.6297085,12.4432 Z M60.093668,10.948 C60.3068999,10.948 60.4864608,11.0235992 60.6323563,11.1748 C60.7782517,11.3260008 60.8511984,11.4827992 60.8511984,11.6452 C60.8511984,11.8076008 60.8343645,11.9279996 60.8006964,12.0064 L56.2050121,23.0272 C56.0591167,23.3744017 55.8234429,23.548 55.4979838,23.548 C55.2959747,23.548 55.1248307,23.4752007 54.9845466,23.3296 C54.8442625,23.1839993 54.7741215,23.0384007 54.7741215,22.8928 C54.7741215,22.7471993 54.7909553,22.6296004 54.8246235,22.54 L55.918834,19.7344 L52.7540405,12.04 C52.7091496,11.9279994 52.6867045,11.7936008 52.6867045,11.6368 C52.6867045,11.4799992 52.7596511,11.3260008 52.9055466,11.1748 C53.051442,11.0235992 53.2141691,10.948 53.3937328,10.948 C53.7640828,10.948 54.0165904,11.1047984 54.1512632,11.4184 L56.7437004,17.836 L59.3866397,11.452 C59.5325351,11.1159983 59.7682089,10.948 60.093668,10.948 Z M64.116996,12.1408 C64.9474778,11.2895957 65.9070067,10.864 66.9956113,10.864 C68.084216,10.864 69.0156884,11.2503961 69.7900567,12.0232 C70.642984,12.8744043 71.0694413,13.9719933 71.0694413,15.316 C71.0694413,16.6824068 70.642984,17.7855958 69.7900567,18.6256 C69.0044657,19.3872038 68.0701876,19.768 66.9871943,19.768 C65.9042011,19.768 64.9474778,19.3424043 64.116996,18.4912 L64.116996,22.7752 C64.116996,22.9992011 64.0440493,23.1839993 63.8981538,23.3296 C63.7522584,23.4752007 63.5698918,23.548 63.3510486,23.548 C63.1322054,23.548 62.9498388,23.4752007 62.8039433,23.3296 C62.6580479,23.1839993 62.5851012,22.9992011 62.5851012,22.7752 L62.5851012,11.704 C62.5851012,11.4911989 62.6580479,11.3120007 62.8039433,11.1664 C62.9498388,11.0207993 63.1322054,10.948 63.3510486,10.948 C63.5698918,10.948 63.7522584,11.0207993 63.8981538,11.1664 C64.0440493,11.3120007 64.116996,11.4911989 64.116996,11.704 L64.116996,12.1408 Z M64.116996,17.08 C64.8801415,17.9200042 65.7667237,18.34 66.7767692,18.34 C68.0561602,18.34 68.9090748,17.7688057 69.3355385,16.6264 C69.4702112,16.2455981 69.5375466,15.8088025 69.5375466,15.316 C69.5375466,14.3527952 69.2794277,13.5968027 68.7631822,13.048 C68.2693821,12.5439975 67.6072511,12.292 66.7767692,12.292 C65.7667237,12.292 64.8801415,12.7119958 64.116996,13.552 L64.116996,17.08 Z M76.2711498,18.424 C76.5741635,18.424 76.7901977,18.3988003 76.9192591,18.3484 C77.0483205,18.2979997 77.1886025,18.2728 77.3401093,18.2728 C77.4916161,18.2728 77.6290925,18.3287994 77.7525425,18.4408 C77.8759925,18.5528006 77.9377166,18.7207989 77.9377166,18.9448 C77.9377166,19.1688011 77.825491,19.3311995 77.6010364,19.432 C77.1184591,19.6560011 76.7060301,19.768 76.3637368,19.768 C76.0214436,19.768 75.7100176,19.7512002 75.4294494,19.7176 C75.1488812,19.6839998 74.8795398,19.5888008 74.621417,19.432 C74.004167,19.0735982 73.6955466,18.4464045 73.6955466,17.5504 L73.6955466,12.3424 L72.500332,12.3424 C72.2871001,12.3424 72.1804858,12.2360011 72.1804858,12.0232 C72.1804858,11.9223995 72.2309873,11.8272004 72.3319919,11.7376 L74.621417,9.5032 C74.7224216,9.4023995 74.8178133,9.352 74.9075951,9.352 C74.997377,9.352 75.0731292,9.38559966 75.1348543,9.4528 C75.1965793,9.52000034 75.2274413,9.59839955 75.2274413,9.688 L75.2274413,11.032 L77.1296842,11.032 C77.3204706,11.032 77.4775864,11.0935994 77.6010364,11.2168 C77.7244864,11.3400006 77.7862105,11.496799 77.7862105,11.6872 C77.7862105,11.877601 77.7244864,12.0343994 77.6010364,12.1576 C77.4775864,12.2808006 77.3204706,12.3424 77.1296842,12.3424 L75.2274413,12.3424 L75.2274413,17.416 C75.2274413,17.8416021 75.3565007,18.1327992 75.6146235,18.2896 C75.7605189,18.3792004 75.9793589,18.424 76.2711498,18.424 Z M83.3919352,10.864 C84.6937717,10.864 85.7374698,11.2727959 86.5230607,12.0904 C87.3086517,12.9192041 87.7014413,13.9943934 87.7014413,15.316 C87.7014413,16.6376066 87.3086517,17.7127959 86.5230607,18.5416 C85.7374698,19.3592041 84.6937717,19.768 83.3919352,19.768 C82.078876,19.768 81.035178,19.3592041 80.2608097,18.5416 C79.4752187,17.7239959 79.0824291,16.6488067 79.0824291,15.316 C79.0824291,13.9831933 79.4752187,12.9080041 80.2608097,12.0904 C81.035178,11.2727959 82.078876,10.864 83.3919352,10.864 Z M81.5065263,17.6848 C81.7758718,17.9200012 82.0760753,18.0935994 82.4071457,18.2056 C82.7382162,18.3176006 83.0636705,18.3736 83.3835182,18.3736 C83.703366,18.3736 84.0288202,18.3176006 84.3598907,18.2056 C84.6909612,18.0935994 84.9911646,17.9200012 85.2605101,17.6848 C85.8665374,17.1359973 86.1695466,16.3408052 86.1695466,15.2992 C86.1695466,14.291195 85.8665374,13.5072028 85.2605101,12.9472 C84.7554874,12.4879977 84.1326353,12.2584 83.3919352,12.2584 C82.1798806,12.2584 81.3381886,12.8015946 80.866834,13.888 C80.6984931,14.280002 80.6143239,14.7531972 80.6143239,15.3076 C80.6143239,15.8620028 80.6984931,16.335198 80.866834,16.7272 C81.0351749,17.119202 81.2484036,17.4383988 81.5065263,17.6848 Z M96.3877895,7.8736 C96.5897986,7.8736 96.7609426,7.9435993 96.9012267,8.0836 C97.0415108,8.2236007 97.1116518,8.39439899 97.1116518,8.596 C97.1116518,8.79760101 97.0415108,8.96559933 96.9012267,9.1 C96.7609426,9.23440067 96.5897986,9.3016 96.3877895,9.3016 L92.9704858,9.3016 L92.9704858,18.928 C92.9704858,19.1408011 92.8947336,19.3199993 92.7432267,19.4656 C92.5917199,19.6112007 92.4093533,19.684 92.1961215,19.684 C91.9828896,19.684 91.8033287,19.6112007 91.6574332,19.4656 C91.5115377,19.3199993 91.4385911,19.1408011 91.4385911,18.928 L91.4385911,9.3016 L88.0044534,9.3016 C87.8024443,9.3016 87.6341059,9.23440067 87.4994332,9.1 C87.3647605,8.96559933 87.2974251,8.79760101 87.2974251,8.596 C87.2974251,8.39439899 87.3647605,8.2236007 87.4994332,8.0836 C87.6341059,7.9435993 87.8024443,7.8736 88.0044534,7.8736 L96.3877895,7.8736 Z M97.6671741,11.4688 C98.6098833,11.065598 99.586246,10.864 100.596291,10.864 C101.74101,10.864 102.627592,11.2111965 103.256065,11.9056 C103.817201,12.510403 104.097765,13.2663955 104.097765,14.1736 L104.097765,18.928 C104.097765,19.1408011 104.022013,19.3199993 103.870506,19.4656 C103.718999,19.6112007 103.536633,19.684 103.323401,19.684 C103.110169,19.684 102.930608,19.6112007 102.784713,19.4656 C102.638817,19.3199993 102.56587,19.1408011 102.56587,18.928 L102.56587,18.4912 C102.262857,18.8048016 101.856039,19.0959987 101.345405,19.3648 C100.834771,19.6336013 100.186668,19.768 99.4010769,19.768 C98.6267087,19.768 97.9814115,19.5440022 97.465166,19.096 C96.926475,18.6255976 96.6571336,18.0096038 96.6571336,17.248 C96.6571336,16.4191959 96.9713653,15.7696024 97.5998381,15.2992 C98.2844245,14.7839974 99.2607872,14.5264 100.528955,14.5264 L102.56587,14.5264 L102.56587,14.392 C102.56587,13.6415962 102.380698,13.1068016 102.010348,12.7876 C101.639998,12.4683984 101.073259,12.3088 100.310113,12.3088 C99.6591951,12.3088 98.9128949,12.4431987 98.0711903,12.712 C97.9814085,12.7344001 97.8804054,12.7456 97.7681781,12.7456 C97.6559509,12.7456 97.538114,12.6868006 97.414664,12.5692 C97.291214,12.4515994 97.2294899,12.2696012 97.2294899,12.0232 C97.2294899,11.7767988 97.3753832,11.5920006 97.6671741,11.4688 Z M98.1890283,17.08 C98.1890283,17.9760045 98.783824,18.424 99.9734332,18.424 C100.500901,18.424 100.991888,18.2952013 101.446409,18.0376 C101.900929,17.7799987 102.27408,17.4888016 102.56587,17.164 L102.56587,15.7528 L100.730964,15.7528 C99.9341499,15.7528 99.3112978,15.853599 98.8623887,16.0552 C98.4134795,16.256801 98.1890283,16.5983976 98.1890283,17.08 Z M108.222097,12.1408 C109.052579,11.2895957 110.012108,10.864 111.100713,10.864 C112.189317,10.864 113.12079,11.2503961 113.895158,12.0232 C114.748085,12.8744043 115.174543,13.9719933 115.174543,15.316 C115.174543,16.6824068 114.748085,17.7855958 113.895158,18.6256 C113.109567,19.3872038 112.175289,19.768 111.092296,19.768 C110.009302,19.768 109.052579,19.3424043 108.222097,18.4912 L108.222097,18.928 C108.222097,19.1408011 108.149151,19.3199993 108.003255,19.4656 C107.85736,19.6112007 107.674993,19.684 107.45615,19.684 C107.237307,19.684 107.05494,19.6112007 106.909045,19.4656 C106.763149,19.3199993 106.690202,19.1408011 106.690202,18.928 L106.690202,8.0248 C106.690202,7.80079888 106.763149,7.61600073 106.909045,7.4704 C107.05494,7.32479927 107.237307,7.252 107.45615,7.252 C107.674993,7.252 107.85736,7.32479927 108.003255,7.4704 C108.149151,7.61600073 108.222097,7.80079888 108.222097,8.0248 L108.222097,12.1408 Z M108.222097,17.08 C108.985243,17.9200042 109.871825,18.34 110.88187,18.34 C112.161261,18.34 113.014176,17.7688057 113.44064,16.6264 C113.575312,16.2455981 113.642648,15.8088025 113.642648,15.316 C113.642648,14.3527952 113.384529,13.5968027 112.868283,13.048 C112.374483,12.5439975 111.712352,12.292 110.88187,12.292 C109.871825,12.292 108.985243,12.7119958 108.222097,13.552 L108.222097,17.08 Z" id="CryptoTab" fill="#000000"></path>
                                    <g id="icon">
                                        <ellipse id="Oval-2" fill="#F7931A" cx="14.0283401" cy="14" rx="14.0283401" ry="14"></ellipse>
                                        <g id="Group-5" transform="translate(5.611336, 4.900000)" fill="#FFFFFF">
                                            <path d="M13.6860486,14.7168 C13.8207213,14.6495997 14.010102,14.616 14.2541964,14.616 C14.4982907,14.616 14.7087137,14.712599 14.8854717,14.9058 C15.0622296,15.099001 15.1506073,15.3215987 15.1506073,15.5736 C15.1506073,16.0272023 14.9654351,16.3463991 14.595085,16.5312 C13.8038827,16.9680022 12.9579822,17.3375985 12.0573583,17.64 C11.1567344,17.9424015 10.0793686,18.0936 8.82522874,18.0936 C7.57108887,18.0936 6.40534547,17.8878021 5.32796356,17.4762 C4.25058166,17.0645979 3.31630355,16.4640039 2.52510121,15.6744 C0.841691988,14.0279918 0,11.8188139 0,9.0468 C0,6.27478614 0.841691988,4.06560823 2.52510121,2.4192 C4.15800816,0.806391936 6.26223813,0 8.83785425,0 C10.0835771,0 11.1567344,0.151198488 12.0573583,0.4536 C12.9579822,0.756001512 13.6481697,1.0373987 14.1279413,1.2978 C14.6077129,1.5582013 14.8980967,1.7681992 14.9991012,1.9278 C15.1001058,2.0874008 15.1506073,2.28899878 15.1506073,2.5326 C15.1506073,2.77620122 15.0622296,2.99459903 14.8854717,3.1878 C14.7087137,3.38100097 14.4982907,3.4776 14.2541964,3.4776 C14.010102,3.4776 13.8207213,3.44400034 13.6860486,3.3768 C13.0126849,3.02399824 12.3224975,2.73840109 11.6154656,2.52 C10.9084337,2.30159891 10.0288656,2.1924 8.97673482,2.1924 C7.92460405,2.1924 6.9734921,2.36879824 6.12337045,2.7216 C5.27324879,3.07440176 4.56201906,3.56159689 3.98965992,4.1832 C2.86177574,5.40960613 2.29784211,7.03078992 2.29784211,9.0468 C2.29784211,11.0628101 2.86177574,12.6839939 3.98965992,13.9104 C5.21854865,15.2376066 6.91034955,15.9012 9.06511336,15.9012 C10.0583248,15.9012 10.9084337,15.7920011 11.6154656,15.5736 C12.3224975,15.3551989 13.0126849,15.0696018 13.6860486,14.7168 Z" id="C"></path>
                                            <path d="M11.6126595,11.9084001 C11.6799959,11.8748 11.7746862,11.8580001 11.8967334,11.8580001 C12.0187806,11.8580001 12.1239921,11.9062996 12.2123711,12.0029001 C12.30075,12.0995006 12.3449389,12.2107995 12.3449389,12.3368001 C12.3449389,12.5636013 12.2523527,12.7231997 12.0671777,12.8156001 C11.6715766,13.0340012 11.2486263,13.2187994 10.7983143,13.3700002 C10.3480024,13.5212009 9.80931949,13.5968002 9.18224954,13.5968002 C8.55517959,13.5968002 7.97230788,13.4939012 7.43361692,13.2881002 C6.89492596,13.0822991 6.4277869,12.7820021 6.03218572,12.3872001 C5.19048109,11.563996 4.76963509,10.459407 4.76963509,9.07340008 C4.76963509,7.68739313 5.19048109,6.58280415 6.03218572,5.75960002 C6.84863921,4.95319598 7.90075421,4.55 9.1885623,4.55 C9.81142372,4.55 10.3480024,4.62559925 10.7983143,4.7768 C11.2486263,4.92800076 11.59372,5.06869936 11.8336059,5.19890001 C12.0734917,5.32910066 12.2186836,5.43409962 12.2691858,5.51390002 C12.3196881,5.59370042 12.3449389,5.69449941 12.3449389,5.81630002 C12.3449389,5.93810063 12.30075,6.04729954 12.2123711,6.14390003 C12.1239921,6.24050051 12.0187806,6.28880003 11.8967334,6.28880003 C11.7746862,6.28880003 11.6799959,6.2720002 11.6126595,6.23840003 C11.2759777,6.06199914 10.9308839,5.91920057 10.577368,5.81000002 C10.223852,5.70079947 9.78406797,5.64620002 9.25800258,5.64620002 C8.73193719,5.64620002 8.25638121,5.73439914 7.83132037,5.91080002 C7.40625953,6.08720091 7.05064466,6.33079848 6.76446509,6.64160004 C6.20052299,7.25480311 5.91855617,8.06539502 5.91855617,9.07340008 C5.91855617,10.0814051 6.20052299,10.891997 6.76446509,11.5052001 C7.37890947,12.1688035 8.22480993,12.5006001 9.30219185,12.5006001 C9.79879758,12.5006001 10.223852,12.4460007 10.577368,12.3368001 C10.9308839,12.2275996 11.2759777,12.084801 11.6126595,11.9084001 Z" id="C" stroke="#FFFFFF" stroke-width="0.7"></path>
                                        </g>
                                    </g>
                                </g>
                            </g>
                        </g>
                    </g>
                </g>
            </g>
        </g>
    </g>
</svg>