<?xml version="1.0" encoding="UTF-8" standalone="no"?>
<svg width="14px" height="21px" viewBox="0 0 14 21" version="1.1" xmlns="http://www.w3.org/2000/svg" xmlns:xlink="http://www.w3.org/1999/xlink">
    <!-- Generator: Sketch 47 (45396) - http://www.bohemiancoding.com/sketch -->
    <title>dollar</title>
    <desc>Created with Sketch.</desc>
    <defs></defs>
    <g id="Promo" stroke="none" stroke-width="1" fill="none" fill-rule="evenodd">
        <g id="cryptotab_promo-label" transform="translate(-23.000000, -706.000000)" fill="#FFFFFF">
            <g id="new-backgrounds-available" transform="translate(0.000000, 686.000000)">
                <g id="up" transform="translate(10.000000, 10.000000)">
                    <g id="icon">
                        <path d="M20.5820312,30.3554687 L18.9296875,30.3554687 L18.9296875,28.8554687 C15.25,28.6445312 13.0117188,26.7929687 13,23.921875 L16.3515625,23.921875 C16.4335938,25.140625 17.4414062,26.03125 18.9296875,26.1953125 L18.9296875,21.625 L17.6875,21.3320312 C14.8632812,20.6757812 13.3515625,19.046875 13.3515625,16.609375 C13.3515625,13.7382812 15.4140625,11.8867188 18.9296875,11.6054688 L18.9296875,10 L20.5820312,10 L20.5820312,11.6171875 C23.8632812,11.9101562 25.9726562,13.8320312 26.0195312,16.5273438 L22.7617188,16.5273438 C22.7265625,15.4140625 21.8359375,14.5 20.5820312,14.3242188 L20.5820312,18.6953125 L21.8359375,18.9414062 C24.8359375,19.5976562 26.3359375,21.15625 26.3359375,23.6992188 C26.3359375,26.6757812 24.2617188,28.5273437 20.5820312,28.84375 L20.5820312,30.3554687 Z M23.0195312,24.0742188 C23.0195312,22.9375 22.2460938,22.2460938 20.5820312,21.9179688 L20.5820312,26.2070312 C22.1171875,26.1132812 23.0195312,25.3164062 23.0195312,24.0742188 Z M16.7382812,16.3164062 C16.7382812,17.3476562 17.5,18.0507812 18.9296875,18.3554688 L18.9296875,14.3125 C17.6523438,14.3828125 16.7382812,15.203125 16.7382812,16.3164062 Z" id="dollar"></path>
                    </g>
                </g>
            </g>
        </g>
    </g>
</svg>
