<?xml version="1.0" encoding="UTF-8" standalone="no"?>
<svg width="24px" height="20px" viewBox="0 0 24 20" version="1.1" xmlns="http://www.w3.org/2000/svg" xmlns:xlink="http://www.w3.org/1999/xlink">
    <!-- Generator: Sketch 50.2 (55047) - http://www.bohemiancoding.com/sketch -->
    <title>email</title>
    <desc>Created with Sketch.</desc>
    <defs></defs>
    <g id="Extension-Upd" stroke="none" stroke-width="1" fill="none" fill-rule="evenodd">
        <g id="bitmotion_share-popup" transform="translate(-707.000000, -497.000000)" fill="#494949" fill-rule="nonzero">
            <g id="popup" transform="translate(414.000000, 132.000000)">
                <g id="share-icons" transform="translate(30.000000, 345.000000)">
                    <g id="@" transform="translate(240.000000, 0.000000)">
                        <g id="up">
                            <path d="M47,23.3122222 C46.9869091,21.4855556 45.5272727,20 43.7272727,20 L26.2727273,20 C24.4727273,20 23.0130909,21.4788889 23,23.3122222 C23,23.3255556 23,23.3333333 23,23.3466667 L23,36.6666667 C23,38.5066667 24.4661818,40 26.2727273,40 L43.7272727,40 C45.5338182,40 47,38.5066667 47,36.6666667 L47,23.3466667 C47,23.3333333 47,23.3188889 47,23.3122222 Z M26.2727273,22.2222222 L43.7272727,22.2222222 C44.1570909,22.2222222 44.5247273,22.4722222 44.7025455,22.84 L35,29.7566667 L25.2974545,22.84 C25.4741818,22.4722222 25.8429091,22.2222222 26.2727273,22.2222222 Z M43.7272727,37.7777778 L26.2727273,37.7777778 C25.6727273,37.7777778 25.1818182,37.2777778 25.1818182,36.6666667 L25.1818182,25.4655556 L34.3727273,32.0211111 C34.5636364,32.1533333 34.7818182,32.2222222 35,32.2222222 C35.2181818,32.2222222 35.4363636,32.1522222 35.6272727,32.0211111 L44.8181818,25.4655556 L44.8181818,36.6666667 C44.8181818,37.2777778 44.3272727,37.7777778 43.7272727,37.7777778 Z" id="email"></path>
                        </g>
                    </g>
                </g>
            </g>
        </g>
    </g>
</svg>