<?xml version="1.0" encoding="UTF-8" standalone="no"?>
<svg width="24px" height="15px" viewBox="0 0 24 15" version="1.1" xmlns="http://www.w3.org/2000/svg" xmlns:xlink="http://www.w3.org/1999/xlink">
    <!-- Generator: Sketch 50.2 (55047) - http://www.bohemiancoding.com/sketch -->
    <title>gplus</title>
    <desc>Created with Sketch.</desc>
    <defs></defs>
    <g id="Extension-Upd" stroke="none" stroke-width="1" fill="none" fill-rule="evenodd">
        <g id="bitmotion_share-popup" transform="translate(-627.000000, -500.000000)" fill="#FFFFFF">
            <g id="popup" transform="translate(414.000000, 132.000000)">
                <g id="share-icons" transform="translate(30.000000, 345.000000)">
                    <g id="g+" transform="translate(160.000000, 0.000000)">
                        <g id="up">
                            <g id="gplus" transform="translate(23.000000, 23.000000)">
                                <polygon id="+" points="18.9568812 5.95041322 16.4049933 5.95041322 16.4049933 7.80991736 18.9568812 7.80991736 18.9568812 10.4132231 20.7796582 10.4132231 20.7796582 7.80991736 23.3315461 7.80991736 23.3315461 5.95041322 20.7796582 5.95041322 20.7796582 3.34710744 18.9568812 3.34710744"></polygon>
                                <path d="M3.19157734,9.08534417 C3.16436514,9.01395384 3.1389111,8.94182823 3.11526785,8.86904406 C3.11450218,8.86670654 3.11373842,8.86436836 3.11297655,8.86202953 C3.11502485,8.86037932 3.11707283,8.85872937 3.1191208,8.85707942 C2.81457729,7.94289774 2.8109292,6.92359869 3.10817652,6.00305204 C3.11052166,5.9958877 3.11288543,5.98872969 3.11526785,5.98157812 C3.33103294,5.32751125 3.68550415,4.72529115 4.1555638,4.23075278 C4.733506,3.61656804 5.48483085,3.17786465 6.29780287,2.99839508 C6.9913335,2.84684301 7.72339361,2.87476049 8.40151245,3.08613576 C8.97945465,3.26560533 9.51116146,3.59662698 9.94654458,4.02735394 C10.3857807,3.5726977 10.8250167,3.11804146 11.2642528,2.66338522 C11.4954297,2.42010426 11.7381654,2.18479971 11.9616364,1.93354232 C11.9609976,1.93293081 11.9603587,1.93231941 11.9597197,1.93170813 C11.9603588,1.93099025 11.9609976,1.93027224 11.9616364,1.9295541 C11.2912234,1.28745187 10.509075,0.776960657 9.65372054,0.449927223 C8.11254136,-0.136340032 6.37486183,-0.14830467 4.82597675,0.406056884 C4.67882862,0.458173161 4.53351533,0.515505262 4.39027697,0.577830931 C2.8345031,1.25474981 1.52351428,2.52047961 0.764969599,4.08717713 C0.475998503,4.6774326 0.267939313,5.30358198 0.14079203,5.95366063 C-0.175149702,7.56489853 0.0444683312,9.28381817 0.761116651,10.7514804 C1.22732335,11.7086514 1.8977363,12.5621289 2.70685537,13.2281604 C3.47359201,13.858298 4.36362299,14.3289071 5.31144819,14.5881409 C6.50586206,14.9191626 7.77733488,14.9111862 8.97945465,14.6280231 C10.065986,14.3687893 11.0947231,13.8303805 11.915401,13.0486909 C12.7823143,12.2231309 13.4026389,11.138337 13.7301395,9.96979074 C14.0079399,8.98345253 14.0981581,7.94437741 14.0205434,6.91761084 C13.9983467,6.61844295 13.9617892,6.32051658 13.911228,6.02544846 L7.16856911,6.02544846 C7.16856911,6.99059591 7.16856911,7.95574337 7.16471616,8.92089082 L7.16856911,8.92089082 L7.16856911,8.92487903 L11.0709553,8.92487903 C10.9199905,9.84749386 10.389809,10.6904136 9.64096748,11.2122623 C9.64008124,11.2115498 9.63919499,11.2108373 9.63830875,11.2101249 C9.16439615,11.5411465 8.62113049,11.7525218 8.05860008,11.8562153 C7.49221673,11.9559206 6.91042159,11.9718735 6.34789119,11.8522271 C5.77765489,11.7325807 5.23053628,11.4853115 4.75277074,11.138337 C4.05294909,10.6298005 3.50875714,9.90647288 3.19157734,9.08534417 L3.19157734,9.08534417 Z" id="G-Icon"></path>
                            </g>
                        </g>
                    </g>
                </g>
            </g>
        </g>
    </g>
</svg>