<?xml version="1.0" encoding="UTF-8"?>
<svg width="60px" height="26px" viewBox="0 0 60 26" version="1.1" xmlns="http://www.w3.org/2000/svg" xmlns:xlink="http://www.w3.org/1999/xlink">
    <!-- Generator: Sketch 52.2 (67145) - http://www.bohemiancoding.com/sketch -->
    <title>icon_soundcloud</title>
    <desc>Created with Sketch.</desc>
    <defs>
        <linearGradient x1="50%" y1="3.50167411%" x2="50%" y2="100%" id="linearGradient-1">
            <stop stop-color="#FF7700" offset="0%"></stop>
            <stop stop-color="#FE3301" offset="100%"></stop>
        </linearGradient>
    </defs>
    <g id="Startpage" stroke="none" stroke-width="1" fill="none" fill-rule="evenodd">
        <g id="cryptotab_startpage-widgets" transform="translate(-1161.000000, -1156.000000)" fill="url(#linearGradient-1)">
            <g id="side-panel-notes" transform="translate(960.000000, 0.000000)">
                <g id="item" transform="translate(25.000000, 86.000000)">
                    <g transform="translate(156.000000, 1043.000000)" id="Group-5">
                        <g transform="translate(10.000000, 0.000000)">
                            <path d="M46.7976503,27 C45.1326895,27 43.5104505,27.3268206 42.0768991,27.8801066 C41.5194399,28.0953227 41.3716939,28.3164594 41.3663537,28.7457075 L41.3663537,52.1175252 C41.3722872,52.5686797 41.7220714,52.9437537 42.1629359,52.9878626 C42.18222,52.9902309 62.4883924,53 62.6201178,53 C66.6958895,53 70,49.7027827 70,45.6349911 C70,41.5677916 66.6958895,38.2708703 62.6201178,38.2708703 C61.6090368,38.2708703 60.6442378,38.4754292 59.7657722,38.8425104 C59.1780517,32.2060391 53.6010858,27 46.7976503,27 Z M39.0442496,29.5343398 L38.7113761,46.1228538 L39.0445463,52.1435761 C39.0504799,52.5831853 39.4148013,52.946122 39.8577426,52.946122 C40.2994971,52.946122 40.6635219,52.5831853 40.6700488,52.1373594 L40.6700488,52.1441681 L41.0314034,46.1228538 L40.6700488,29.5331557 C40.6635219,29.0885139 40.2994971,28.7249852 39.8577426,28.7249852 C39.4148013,28.7249852 39.0504799,29.0885139 39.0442496,29.5343398 Z M36.576773,30.9120782 L36.2892914,46.1166371 C36.2892914,46.1264062 36.576773,52.2312019 36.576773,52.2312019 C36.5824099,52.6438721 36.9241838,52.9837182 37.3377538,52.9837182 C37.7504339,52.9837182 38.0913177,52.6438721 38.0990313,52.2267614 L38.0990313,52.2314979 L38.0990313,52.2267614 L38.4203344,46.1219657 L38.0990313,30.9114861 C38.0919111,30.4943754 37.7504339,30.1548253 37.3377538,30.1548253 C36.9241838,30.1548253 36.5824099,30.4943754 36.576773,30.9120782 Z M29.1945174,32.5053286 L28.8165487,46.1184133 L29.1951107,52.3670811 C29.2043078,52.7010065 29.4713186,52.9659562 29.8027087,52.9659562 C30.132912,52.9659562 30.3984395,52.7010065 30.4103066,52.3650089 L30.4103066,52.3673771 L30.4103066,52.3650089 L30.4103066,52.3647128 L30.8360405,46.1184133 L30.4103066,32.5053286 C30.4002195,32.1669627 30.132912,31.9023091 29.8027087,31.9023091 C29.4713186,31.9023091 29.2043078,32.1669627 29.1945174,32.5053286 Z M31.6358863,32.8537596 L31.2878822,46.1193014 L31.6364796,52.3078745 C31.6438966,52.6714032 31.933455,52.9594435 32.295403,52.9594435 C32.6546808,52.9594435 32.9445359,52.6714032 32.9540296,52.3049142 L32.9540296,52.3096507 L33.3456455,46.1193014 L32.9540296,32.8537596 C32.9445359,32.4863825 32.6546808,32.1998224 32.295403,32.1998224 C31.933455,32.1998224 31.6438966,32.4869745 31.6358863,32.8537596 Z M26.773026,32.9484902 C26.773026,32.9493783 26.3644994,46.1172291 26.3644994,46.1172291 L26.773026,52.4049734 C26.783113,52.7113677 27.0275763,52.9535228 27.3298919,52.9535228 C27.6295373,52.9535228 27.8737039,52.7119597 27.8864611,52.4026051 L28.3472031,46.1172291 L27.8864611,32.9478982 C27.8742972,32.6385435 27.6295373,32.3969805 27.3298919,32.3969805 C27.0275763,32.3969805 26.783113,32.6394316 26.773026,32.9484902 Z M34.0962426,33.338958 L33.7787964,46.1198934 L34.0962426,52.2696862 C34.1039562,52.6616341 34.4163589,52.9709888 34.8073814,52.9709888 C35.1966238,52.9709888 35.5081364,52.6616341 35.5167401,52.2658378 L35.5167401,52.2708703 L35.8727545,46.1207815 L35.5167401,33.3377738 C35.5081364,32.9428656 35.1966238,32.6329189 34.8073814,32.6329189 C34.4163589,32.6329189 34.1039562,32.9428656 34.0962426,33.338958 Z M24.3699286,33.9615157 C24.3699286,33.9621078 23.9314376,46.116045 23.9314376,46.116045 L24.3711154,52.4692126 C24.3823892,52.7474837 24.6040081,52.9665483 24.8763592,52.9665483 C25.1460401,52.9665483 25.3685491,52.7474837 25.3813063,52.4668443 L25.8770564,46.116045 L25.3813063,33.9615157 C25.3685491,33.6811723 25.1460401,33.4615157 24.8763592,33.4615157 C24.6040081,33.4615157 24.3823892,33.6811723 24.3699286,33.9615157 Z M21.9875988,36.2226169 L21.5182532,46.1148609 L21.9875988,52.5079929 C21.999466,52.7572528 22.1991307,52.955003 22.4415172,52.955003 C22.6821236,52.955003 22.881195,52.7572528 22.8954356,52.5062167 L22.8954356,52.5079929 L23.4267871,46.1148609 L22.8954356,36.2226169 C22.881195,35.9709888 22.6821236,35.7735346 22.4415172,35.7735346 C22.1991307,35.7735346 21.999466,35.9709888 21.9875988,36.2226169 Z M17.2787148,39.5574304 L16.74944,46.1119005 L17.2787148,52.4529307 C17.293252,52.6492007 17.4451515,52.7975133 17.6308724,52.7975133 C17.8151098,52.7975133 17.9661193,52.6492007 17.9824366,52.4529307 L18.5835076,46.1119005 L17.9824366,39.5565423 C17.9661193,39.3599763 17.8151098,39.2116637 17.6308724,39.2116637 C17.4451515,39.2116637 17.293252,39.3599763 17.2787148,39.5574304 Z M14.9533473,39.7309059 C14.9533473,39.7314979 14.3935146,46.1110124 14.3935146,46.1110124 L14.9533473,52.2563647 C14.9690712,52.42836 15.095753,52.5512137 15.2541795,52.5512137 C15.4105291,52.5512137 15.5363209,52.42836 15.554715,52.2581409 L16.1907941,46.1110124 L15.5553083,39.7309059 C15.5363209,39.5606868 15.4105291,39.437537 15.2541795,39.437537 C15.095753,39.437537 14.9690712,39.5612789 14.9533473,39.7309059 Z M19.6236631,40.0322676 L19.1243529,46.1119005 L19.6236631,52.5056246 C19.6373103,52.7312019 19.8096806,52.901717 20.0265527,52.901717 C20.2404581,52.901717 20.4128284,52.7312019 20.4291457,52.5062167 L20.995802,46.1119005 L20.4291457,40.0296033 C20.4137184,39.8052102 20.2410514,39.6355832 20.0265527,39.6355832 C19.8096806,39.6355832 19.6373103,39.8058022 19.6236631,40.0322676 Z M12.6475606,40.7335702 C12.6475606,40.7347543 12.0577633,46.1095323 12.0577633,46.1095323 L12.6475606,51.3679692 C12.6647679,51.5082889 12.7700889,51.6107164 12.897364,51.6107164 C13.0234524,51.6107164 13.1261033,51.5112493 13.1462774,51.3688573 L13.8173646,46.1095323 L13.1468708,40.7335702 C13.1261033,40.5908822 13.0234524,40.4920071 12.897364,40.4920071 C12.7700889,40.4920071 12.6647679,40.5935465 12.6475606,40.7335702 Z M10.4384911,42.7850799 L10,46.1095323 L10.4384911,49.3780343 C10.4551051,49.5159858 10.5538991,49.6119005 10.6793942,49.6119005 C10.8001424,49.6119005 10.8989364,49.5168739 10.9185172,49.3795145 L10.9185172,49.3786264 L10.9185172,49.3795145 L11.4382983,46.1095323 L10.9185172,42.7838958 C10.8998264,42.6468324 10.8001424,42.5506217 10.6793942,42.5506217 C10.5538991,42.5506217 10.4551051,42.6474245 10.4384911,42.7850799 Z" id="icon_soundcloud"></path>
                        </g>
                    </g>
                </g>
            </g>
        </g>
    </g>
</svg>