<?xml version="1.0" encoding="UTF-8"?>
<svg width="23px" height="23px" viewBox="0 0 23 23" version="1.1" xmlns="http://www.w3.org/2000/svg" xmlns:xlink="http://www.w3.org/1999/xlink">
    <!-- Generator: Sketch 52.3 (67297) - http://www.bohemiancoding.com/sketch -->
    <title>Icon</title>
    <desc>Created with Sketch.</desc>
    <defs>
        <path d="M0,1.81437308 C0,0.812322497 0.811826397,0 1.81437308,0 L21.1856269,0 C22.1876775,0 23,0.811826397 23,1.81437308 L23,21.1856269 C23,22.1876775 22.1881736,23 21.1856269,23 L1.81437308,23 C0.812322497,23 0,22.1881736 0,21.1856269 L0,1.81437308 L0,1.81437308 L0,1.81437308 Z M23,16.4934211 L23,21.1856269 C23,22.1876775 22.1881736,23 21.1856269,23 L16.4934211,23 L23,16.4934211 L23,16.4934211 L23,16.4934211 Z" id="path-1"></path>
    </defs>
    <g id="Startpage" stroke="none" stroke-width="1" fill="none" fill-rule="evenodd">
        <g id="cryptotab_startpage-notes" transform="translate(-976.000000, -19.000000)">
            <g id="side-panel-notes" transform="translate(960.000000, 0.000000)">
                <g id="Icon" transform="translate(16.000000, 19.000000)">
                    <g id="Rectangle-227">
                        <mask id="mask-2" fill="white">
                            <use xlink:href="#path-1"></use>
                        </mask>
                        <use id="Mask" fill="#F4B709" xlink:href="#path-1"></use>
                        <rect id="Shape" fill="#FADA80" mask="url(#mask-2)" x="16.3421053" y="16.3421053" width="8.77631579" height="9.07894737" rx="1.8"></rect>
                    </g>
                    <path d="M11.5,3.63157895 C8.49150149,3.63157895 6.05263158,6.07044886 6.05263158,9.07894737 C6.05263158,10.9761432 6.98706893,12.5995208 8.75891566,13.6244796 L8.75891566,17.5526316 L8.75891566,18.1578947 L9.36417882,18.1578947 L13.9210526,18.1578947 L14.5263158,18.1578947 L14.5263158,17.5526316 L14.5263158,13.6244796 C16.197739,12.6576127 16.9473684,11.0459403 16.9473684,9.07894737 C16.9473684,6.07044886 14.5084985,3.63157895 11.5,3.63157895 L11.5,3.63157895 Z M15.7368421,9.07894737 C15.7368421,6.73900409 13.8399433,4.84210526 11.5,4.84210526 C9.16005672,4.84210526 7.26315789,6.73900409 7.26315789,9.07894737 C7.26315789,10.8857761 8.39417066,12.4284427 9.98684211,13.0375931 L9.98684211,14.5263158 L13.3157895,14.5263158 L13.3157895,13.0131579 C14.747205,12.3331666 15.7368421,10.7690818 15.7368421,9.07894737 L15.7368421,9.07894737 Z M9.98684211,18.1578947 L13.3157895,18.1578947 L13.3157895,19.3684211 L9.98684211,19.3684211 L9.98684211,18.1578947 L9.98684211,18.1578947 Z M9.98684211,15.7368421 L13.3157895,15.7368421 L13.3157895,16.9473684 L9.98684211,16.9473684 L9.98684211,15.7368421 L9.98684211,15.7368421 Z" id="Light-Bulb" fill="#FFFFFF"></path>
                </g>
            </g>
        </g>
    </g>
</svg>