<?xml version="1.0" encoding="UTF-8"?>
<svg width="20px" height="20px" viewBox="0 0 20 20" version="1.1" xmlns="http://www.w3.org/2000/svg" xmlns:xlink="http://www.w3.org/1999/xlink">
    <!-- Generator: Sketch 52.2 (67145) - http://www.bohemiancoding.com/sketch -->
    <title>icon_settings_dark</title>
    <desc>Created with Sketch.</desc>
    <g id="Startpage" stroke="none" stroke-width="1" fill="none" fill-rule="evenodd">
        <g id="cryptotab_startpage-settings" transform="translate(-980.000000, -20.000000)" fill="#494949" fill-rule="nonzero">
            <g id="side-panel-notes" transform="translate(960.000000, 0.000000)">
                <g id="top" transform="translate(0.000000, 15.000000)">
                    <path d="M29.7389837,18.501 C31.6609837,18.501 33.2549837,16.907 33.2549837,14.985 C33.2549837,13.063 31.6609837,11.469 29.7389837,11.469 C27.8169837,11.469 26.2229837,13.063 26.2229837,14.985 C26.2229837,16.907 27.8169837,18.501 29.7389837,18.501 Z M37.1919837,15.969 L39.3009837,17.61 C39.4889837,17.751 39.5349837,18.032 39.3949837,18.266 L37.3789837,21.735 C37.2379837,21.969 37.0039837,22.016 36.7699837,21.923 L34.2859837,20.939 C33.7699837,21.314 33.2079837,21.689 32.5979837,21.923 L32.2229837,24.548 C32.1759837,24.782 31.9889837,24.97 31.7539837,24.97 L27.7229837,24.97 C27.4889837,24.97 27.3009837,24.782 27.2539837,24.548 L26.8789837,21.923 C26.2699837,21.689 25.7069837,21.36 25.1909837,20.939 L22.7069837,21.923 C22.4729837,22.017 22.2379837,21.97 22.0979837,21.735 L20.0819837,18.266 C19.9409837,18.032 19.9879837,17.75 20.1759837,17.61 L22.2849837,15.969 C22.2379837,15.641 22.2379837,15.313 22.2379837,14.985 C22.2379837,14.657 22.2379837,14.329 22.2849837,14.001 L20.1759837,12.36 C19.9879837,12.219 19.9419837,11.938 20.0819837,11.704 L22.0979837,8.235 C22.2389837,8.001 22.4729837,7.954 22.7069837,8.047 L25.1909837,9.031 C25.7069837,8.656 26.2689837,8.281 26.8789837,8.047 L27.2539837,5.422 C27.3009837,5.188 27.4879837,5 27.7229837,5 L31.7539837,5 C31.9879837,5 32.1759837,5.188 32.2229837,5.422 L32.5979837,8.047 C33.2069837,8.281 33.7699837,8.61 34.2859837,9.031 L36.7699837,8.047 C37.0039837,7.953 37.2389837,8 37.3789837,8.235 L39.3949837,11.704 C39.5359837,11.938 39.4889837,12.22 39.3009837,12.36 L37.1919837,14.001 C37.2389837,14.329 37.2389837,14.657 37.2389837,14.985 C37.2389837,15.313 37.2389837,15.641 37.1919837,15.969 Z" id="icon_settings_dark"></path>
                </g>
            </g>
        </g>
    </g>
</svg>