<?xml version="1.0" encoding="UTF-8"?>
<svg width="14px" height="16px" viewBox="0 0 14 16" version="1.1" xmlns="http://www.w3.org/2000/svg" xmlns:xlink="http://www.w3.org/1999/xlink">
    <!-- Generator: Sketch 52.2 (67145) - http://www.bohemiancoding.com/sketch -->
    <title>Group 5</title>
    <desc>Created with Sketch.</desc>
    <g id="Startpage" stroke="none" stroke-width="1" fill="none" fill-rule="evenodd">
        <g id="cryptotab_startpage-03-weather" transform="translate(-17.000000, -705.000000)" fill="#FFFFFF">
            <g id="ct-block" transform="translate(10.000000, 345.000000)">
                <g id="unregistred">
                    <g id="icon---menu">
                        <g id="up" transform="translate(0.000000, 335.000000)">
                            <g id="icon_cryptotab" transform="translate(3.000000, 21.000000)">
                                <g id="Group-5" transform="translate(4.500000, 4.200000)">
                                    <path d="M11.9216451,12.6144 C12.0389559,12.5567997 12.2039216,12.528 12.4165473,12.528 C12.6291731,12.528 12.8124684,12.6107992 12.9664387,12.7764 C13.1204091,12.9420008 13.1973931,13.1327989 13.1973931,13.3488 C13.1973931,13.7376019 13.0360932,14.0111992 12.7134887,14.1696 C12.0242881,14.5440019 11.287441,14.8607987 10.5029253,15.12 C9.71840972,15.3792013 8.77993782,15.5088 7.68748149,15.5088 C6.59502515,15.5088 5.57956922,15.3324018 4.64108324,14.9796 C3.70259726,14.6267982 2.88876616,14.1120034 2.19956552,13.4352 C0.733181174,12.0239929 0,10.1304119 0,7.7544 C0,5.37838812 0.733181174,3.48480706 2.19956552,2.0736 C3.62195833,0.691193088 5.45491127,0 7.69847931,0 C8.78360373,0 9.71840972,0.129598704 10.5029253,0.3888 C11.287441,0.648001296 11.8886495,0.889198884 12.3065691,1.1124 C12.7244886,1.33560112 12.9774361,1.51559932 13.0654192,1.6524 C13.1534022,1.78920068 13.1973931,1.96199896 13.1973931,2.1708 C13.1973931,2.37960104 13.1204091,2.56679917 12.9664387,2.7324 C12.8124684,2.89800083 12.6291731,2.9808 12.4165473,2.9808 C12.2039216,2.9808 12.0389559,2.95200029 11.9216451,2.8944 C11.3350914,2.59199849 10.7338828,2.34720094 10.1180014,2.16 C9.50211996,1.97279906 8.73594563,1.8792 7.81945542,1.8792 C6.9029652,1.8792 6.07447047,2.03039849 5.33394638,2.3328 C4.59342229,2.63520151 3.9738842,3.05279734 3.47531352,3.5856 C2.49283601,4.63680526 2.00160462,6.02639136 2.00160462,7.7544 C2.00160462,9.48240864 2.49283601,10.8719947 3.47531352,11.9232 C4.54577409,13.0608057 6.01946825,13.6296 7.89644021,13.6296 C8.76160697,13.6296 9.50211996,13.5360009 10.1180014,13.3488 C10.7338828,13.1615991 11.3350914,12.9168015 11.9216451,12.6144 Z" id="C"></path>
                                    <path d="M10.1155571,10.2072001 C10.1742124,10.1784 10.2566953,10.1640001 10.3630082,10.1640001 C10.4693211,10.1640001 10.5609687,10.2053997 10.6379539,10.2882001 C10.7149391,10.3710005 10.7534311,10.4663996 10.7534311,10.5744001 C10.7534311,10.7688011 10.6727811,10.9055997 10.5114789,10.9848001 C10.1668785,11.1720011 9.79845499,11.3303995 9.40619717,11.4600001 C9.01393935,11.5896008 8.54470339,11.6544001 7.99847521,11.6544001 C7.45224703,11.6544001 6.94451906,11.566201 6.47527606,11.3898001 C6.00603307,11.2133992 5.59911751,10.9560018 5.25451718,10.6176001 C4.52132499,9.91199658 4.1547344,8.96520603 4.1547344,7.77720007 C4.1547344,6.58919411 4.52132499,5.64240356 5.25451718,4.93680002 C5.9657136,4.24559655 6.88219008,3.9 8.00397413,3.9 C8.54653634,3.9 9.01393935,3.96479935 9.40619717,4.0944 C9.79845499,4.22400065 10.0990593,4.34459945 10.308019,4.45620001 C10.5169788,4.56780057 10.6434526,4.65779967 10.6874441,4.72620001 C10.7314356,4.79460036 10.7534311,4.8809995 10.7534311,4.98540002 C10.7534311,5.08980054 10.7149391,5.18339961 10.6379539,5.26620002 C10.5609687,5.34900044 10.4693211,5.39040003 10.3630082,5.39040003 C10.2566953,5.39040003 10.1742124,5.37600017 10.1155571,5.34720003 C9.82228019,5.19599927 9.5216759,5.07360049 9.21373518,4.98000002 C8.90579446,4.88639955 8.52270729,4.83960002 8.06446218,4.83960002 C7.60621706,4.83960002 7.19196969,4.91519926 6.82170764,5.06640002 C6.45144559,5.21760078 6.14167653,5.42639869 5.89239119,5.69280003 C5.40115243,6.21840267 5.15553673,6.91319573 5.15553673,7.77720007 C5.15553673,8.6412044 5.40115243,9.33599747 5.89239119,9.86160011 C6.42762149,10.430403 7.16446858,10.7148001 8.10295458,10.7148001 C8.53553796,10.7148001 8.90579446,10.6680006 9.21373518,10.5744001 C9.5216759,10.4807996 9.82228019,10.3584009 10.1155571,10.2072001 Z" id="C" stroke="#FFFFFF" stroke-width="0.6"></path>
                                </g>
                            </g>
                        </g>
                    </g>
                </g>
            </g>
        </g>
    </g>
</svg>