<?xml version="1.0" encoding="UTF-8"?>
<svg width="48px" height="48px" viewBox="0 0 48 48" version="1.1" xmlns="http://www.w3.org/2000/svg" xmlns:xlink="http://www.w3.org/1999/xlink">
    <!-- Generator: Sketch 52.2 (67145) - http://www.bohemiancoding.com/sketch -->
    <title>icon_spotify</title>
    <desc>Created with Sketch.</desc>
    <g id="Startpage" stroke="none" stroke-width="1" fill="none" fill-rule="evenodd">
        <g id="cryptotab_startpage-widgets" transform="translate(-1167.000000, -581.000000)" fill="#1ED760">
            <g id="side-panel-notes" transform="translate(960.000000, 0.000000)">
                <g id="item" transform="translate(25.000000, 86.000000)">
                    <g transform="translate(156.000000, 479.000000)" id="Group-4">
                        <g transform="translate(10.000000, 0.000000)">
                            <path d="M40,64 C26.745166,64 16,53.254834 16,40 C16,26.745166 26.745166,16 40,16 C53.254834,16 64,26.745166 64,40 C64,53.254834 53.254834,64 40,64 Z M57.5981809,35.0445632 C57.5912527,34.5287846 57.2423907,33.8857402 56.5460524,33.4398833 C56.2772378,33.2678505 55.9966987,33.1128718 55.7147738,32.9627962 C50.6967251,30.2920248 45.2711912,29.1847903 39.6621129,28.7878572 C37.1058169,28.6069777 34.551013,28.6581398 32.0011122,28.8972164 C29.6832532,29.1144424 27.3922542,29.4933621 25.1581732,30.1646523 C23.8521525,30.5571087 23.1707364,31.7464158 23.5273793,32.9666333 C23.8889253,34.2035851 25.0791916,34.8310677 26.3926735,34.4720799 C32.5236058,32.7965191 38.7053805,32.8339315 44.9091123,33.964402 C48.2120561,34.5664101 51.3627925,35.6163003 54.2927855,37.2990025 C55.7775541,38.1518117 57.5896539,37.0559822 57.5981809,35.0445632 Z M35.9821198,36.9328955 C34.2546507,36.8948436 32.5408249,37.0449193 30.8357393,37.2882593 C29.3425503,37.501435 27.8699328,37.8231171 26.4256676,38.2601272 C25.3751379,38.5779721 24.8096895,39.5929015 25.1008874,40.588645 C25.3957094,41.5966462 26.4068016,42.1559126 27.452748,41.8525636 C31.4088621,40.7052521 35.4319134,40.4348388 39.5165724,40.8795233 C43.7105905,41.336039 47.687809,42.4616065 51.334392,44.6382367 C52.2852621,45.2058169 53.3754425,44.9400934 53.9356682,44.0331375 C54.4885393,43.1382261 54.2220697,42.0369606 53.2655504,41.4539251 C52.5547162,41.020539 51.8228841,40.6146525 51.0733584,40.252467 C46.3074966,37.9488907 41.2496906,36.9569843 35.9821198,36.9328955 Z M50.4289209,48.7293452 C46.1550596,46.0663978 41.4602311,44.7961543 36.4701668,44.6820815 C33.4243521,44.647146 31.7327695,44.7250556 27.432386,45.7312772 C26.5969867,45.9267474 26.0103214,46.6820954 26.1748259,47.4752229 C26.3541726,48.3402473 27.1110437,48.8542845 28.0101891,48.6683908 C29.4527398,48.3700273 30.9044113,48.141542 32.3688519,47.9876892 C35.4230093,47.6668195 38.46098,47.735838 41.4768665,48.3555076 C44.1442355,48.9035323 46.6407057,49.8797873 48.952219,51.3262426 C49.6061272,51.735503 50.2983907,51.669659 50.81363,51.1859285 C51.5908225,50.4563575 51.4201106,49.3470406 50.4289209,48.7293452 Z" id="icon_spotify"></path>
                        </g>
                    </g>
                </g>
            </g>
        </g>
    </g>
</svg>