<?xml version="1.0" encoding="UTF-8"?>
<svg width="60px" height="15px" viewBox="0 0 60 15" version="1.1" xmlns="http://www.w3.org/2000/svg" xmlns:xlink="http://www.w3.org/1999/xlink">
    <!-- Generator: Sketch 52.2 (67145) - http://www.bohemiancoding.com/sketch -->
    <title>icon_espn</title>
    <desc>Created with Sketch.</desc>
    <g id="Startpage" stroke="none" stroke-width="1" fill="none" fill-rule="evenodd">
        <g id="cryptotab_startpage-widgets" transform="translate(-1020.000000, -880.000000)" fill="#FFFFFF" fill-rule="nonzero">
            <g id="side-panel-notes" transform="translate(960.000000, 0.000000)">
                <g id="item" transform="translate(25.000000, 86.000000)">
                    <g transform="translate(15.000000, 761.000000)" id="icon">
                        <g transform="translate(10.000000, 0.000000)">
                            <path d="M29.565976,33.0000439 C27.330975,32.9970484 25.8508074,34.1898314 25.6425775,35.9734586 C25.5653589,36.6296689 25.4924785,37.209541 25.4924785,37.209541 L54.5726523,37.209541 C54.5726523,37.209541 54.6273127,36.7750542 54.6698263,36.4263052 C54.8884677,34.6295012 54.1345019,33.0003075 51.3919405,33.0003075 L51.3919405,33.0005183 C51.3919405,33.0005183 30.7442102,33.0013177 29.565976,33 L29.565976,33.0000439 Z M11.8187147,33.0005622 L11.3082911,37.20962 L24.4961851,37.20962 L25.0046131,33.0005622 L11.8184544,33.0005974 L11.8187147,33.0005622 Z M56.0875249,33.0005622 L55.5782292,37.20962 L69.8749475,37.20962 C69.8749475,37.20962 69.8922999,37.0573828 69.9556365,36.5619308 C70.303554,33.7991711 68.5431437,33.0005622 66.8434671,33.0005622 L56.0875249,33.0005974 L56.0875249,33.0005622 Z M55.3812784,38.8121964 L54.2672484,47.9982626 L59.1996943,47.9965057 L60.3145919,38.8139533 L55.3812784,38.8120207 L55.3812784,38.8121964 Z M64.7516242,38.8121964 L63.6358589,47.9982626 L68.5683048,47.9965057 L69.6832024,38.8139533 L64.7516242,38.8120207 L64.7516242,38.8121964 Z M11.1159388,38.8135141 L10,47.9987018 L23.1870264,47.9987018 L23.6728961,44.0140029 L15.4154525,44.0131245 L15.6243765,42.2948548 L23.8785232,42.2948548 L24.3010563,38.8137776 L11.1166329,38.8137776 L11.1159388,38.8135141 Z M25.2989982,38.8135141 C24.9371987,41.210834 26.1223739,42.2945913 27.8020952,42.2945913 C28.7157039,42.2945913 34.4741284,42.2919559 34.4741284,42.2919559 L34.2658985,44.0128609 L24.6691027,44.0137394 L24.1858358,47.9984383 C24.1858358,47.9984383 34.6337713,48.0019521 35.0571721,47.9984383 C35.4068248,47.9729629 37.8509233,47.9053214 38.6829753,45.8813474 C38.9528066,45.2242586 39.1914033,42.8682263 39.2582104,42.3736528 C39.6425681,39.5010855 37.678266,38.8161494 36.1312913,38.8161494 C35.2784164,38.8161494 26.9830575,38.8135141 25.2989982,38.8135141 Z M40.6507479,38.8135141 L39.5367179,47.9987018 L44.4665609,47.9987018 L45.1606606,42.2948548 L51.3528974,42.2948548 C53.1089696,42.2948548 54.0529452,41.3389136 54.2282053,40.0551308 C54.3167031,39.4074415 54.3800396,38.8137776 54.3800396,38.8137776 L40.6507479,38.8137776 L40.6507479,38.8135141 Z" id="icon_espn"></path>
                        </g>
                    </g>
                </g>
            </g>
        </g>
    </g>
</svg>