<?xml version="1.0" encoding="UTF-8" standalone="no"?>
<svg width="33px" height="44px" viewBox="0 0 33 44" version="1.1" xmlns="http://www.w3.org/2000/svg" xmlns:xlink="http://www.w3.org/1999/xlink">
    <!-- Generator: Sketch 44 (41411) - http://www.bohemiancoding.com/sketch -->
    <title>icon_google-docs</title>
    <desc>Created with Sketch.</desc>
    <defs>
        <linearGradient x1="50%" y1="0%" x2="50%" y2="100%" id="linearGradient-1">
            <stop stop-color="#518FF5" offset="0%"></stop>
            <stop stop-color="#4385F4" offset="100%"></stop>
        </linearGradient>
        <path d="M2.00228533,0 C0.899784928,0 0,0.897634756 0,2.00492334 L0,41.9950767 C0,43.1011449 0.896453677,44 2.00228533,44 L30.9977147,44 C32.1002151,44 33,43.1023652 33,41.9950767 L33,10.7141496 L22.2904834,0 L2.00228533,0 Z" id="path-2"></path>
        <filter x="-1.5%" y="-1.1%" width="103.0%" height="102.3%" filterUnits="objectBoundingBox" id="filter-4">
            <feOffset dx="0" dy="-1" in="SourceAlpha" result="shadowOffsetInner1"></feOffset>
            <feComposite in="shadowOffsetInner1" in2="SourceAlpha" operator="arithmetic" k2="-1" k3="1" result="shadowInnerInner1"></feComposite>
            <feColorMatrix values="0 0 0 0 0.223529412   0 0 0 0 0.454901961   0 0 0 0 0.835294118  0 0 0 1 0" type="matrix" in="shadowInnerInner1" result="shadowMatrixInner1"></feColorMatrix>
            <feOffset dx="0" dy="1" in="SourceAlpha" result="shadowOffsetInner2"></feOffset>
            <feComposite in="shadowOffsetInner2" in2="SourceAlpha" operator="arithmetic" k2="-1" k3="1" result="shadowInnerInner2"></feComposite>
            <feColorMatrix values="0 0 0 0 0.423529412   0 0 0 0 0.631372549   0 0 0 0 0.968627451  0 0 0 1 0" type="matrix" in="shadowInnerInner2" result="shadowMatrixInner2"></feColorMatrix>
            <feMerge>
                <feMergeNode in="shadowMatrixInner1"></feMergeNode>
                <feMergeNode in="shadowMatrixInner2"></feMergeNode>
            </feMerge>
        </filter>
        <linearGradient x1="50%" y1="0%" x2="50%" y2="100%" id="linearGradient-5">
            <stop stop-color="#3664B2" offset="0%"></stop>
            <stop stop-color="#4788F4" stop-opacity="0" offset="100%"></stop>
        </linearGradient>
        <linearGradient x1="50%" y1="4.36657266%" x2="50%" y2="28.4136813%" id="linearGradient-6">
            <stop stop-color="#345EA8" offset="0%"></stop>
            <stop stop-color="#2A70E3" stop-opacity="0" offset="100%"></stop>
        </linearGradient>
        <polygon id="path-7" points="22.7808533 10.3189392 33.0353889 20.7175617 33.0353889 10.3189392"></polygon>
    </defs>
    <g id="Extension" stroke="none" stroke-width="1" fill="none" fill-rule="evenodd">
        <g id="extname_newtab-apps" transform="translate(-1004.000000, -123.000000)">
            <g id="side-panel-weather" transform="translate(960.000000, 0.000000)">
                <g id="apps" transform="translate(0.000000, 70.000000)">
                    <g id="icon" transform="translate(15.000000, 53.000000)">
                        <g id="icon_google-docs" transform="translate(29.000000, 0.000000)">
                            <mask id="mask-3" fill="white">
                                <use xlink:href="#path-2"></use>
                            </mask>
                            <g id="Background">
                                <use fill="url(#linearGradient-1)" fill-rule="evenodd" xlink:href="#path-2"></use>
                                <use fill="black" fill-opacity="1" filter="url(#filter-4)" xlink:href="#path-2"></use>
                            </g>
                            <g id="Shadow" mask="url(#mask-3)">
                                <use fill-opacity="0.8" fill="url(#linearGradient-5)" xlink:href="#path-7"></use>
                                <use fill="url(#linearGradient-6)" xlink:href="#path-7"></use>
                            </g>
                            <rect id="Light-Blue" fill="#A6C5FA" mask="url(#mask-3)" x="22" y="-2.52100237" width="13.5299946" height="13.5210024" rx="2.5"></rect>
                            <path d="M8.5,20 L24.5,20 L24.5,21.5 L8.5,21.5 L8.5,20 L8.5,20 Z M8.5,23.5 L24.5,23.5 L24.5,25 L8.5,25 L8.5,23.5 L8.5,23.5 Z M8.5,27 L24.5,27 L24.5,28.5 L8.5,28.5 L8.5,27 L8.5,27 Z M8.5,30.5 L18.5,30.5 L18.5,32 L8.5,32 L8.5,30.5 L8.5,30.5 Z" id="Shape" fill="#FFFFFF" mask="url(#mask-3)"></path>
                        </g>
                    </g>
                </g>
            </g>
        </g>
    </g>
</svg>