<?xml version="1.0" encoding="UTF-8"?>
<svg width="48px" height="17px" viewBox="0 0 48 17" version="1.1" xmlns="http://www.w3.org/2000/svg" xmlns:xlink="http://www.w3.org/1999/xlink">
    <!-- Generator: Sketch 57.1 (83088) - https://sketch.com -->
    <title>icon</title>
    <desc>Created with Sketch.</desc>
    <g id="Page-1" stroke="none" stroke-width="1" fill="none" fill-rule="evenodd">
        <g id="cryptotab_startpage-05" transform="translate(-979.000000, -476.000000)" fill="#494949" fill-rule="nonzero">
            <g id="icons" transform="translate(227.000000, 300.000000)">
                <g id="row" transform="translate(0.000000, 139.000000)">
                    <g id="item" transform="translate(726.000000, 5.000000)">
                        <g id="Group-11" transform="translate(10.000000, 0.000000)">
                            <path d="M28.0042021,32.4395509 C28.4576513,32.0482011 29.0982594,31.9312746 29.6642336,32.1576642 L29.6642336,32.1576642 L44.9576642,38.2715328 C49.670073,36.6948905 54.3649635,35.1357664 59.059854,33.5766423 C60.3562044,33.1386861 63.5620438,33.2437956 63.9124088,34.5051095 C64.280292,35.8715328 61.670073,37.9562044 60.3737226,38.3591241 C58.4642336,39.0072993 56.5372263,39.6379562 54.610219,40.2861314 C47.129927,42.7737226 30.2072993,48.2919708 30.2072993,48.2919708 C28,48.659854 18.4,47.2934307 19.6788321,46.8729927 C21.1678832,46.3824818 29.4014599,43.5094891 33.9036496,41.950365 L33.9036496,41.950365 L27.8248175,34.6627737 C27.3167883,34.049635 27.3343066,33.1386861 27.8948905,32.5430657 L27.8948905,32.5430657 Z M16.5768409,37.8514978 C16.8997372,37.6123212 17.3191241,37.5760584 17.6817518,37.7810219 L17.6817518,37.7810219 L24.1985401,40.9343066 L19.1708029,42.7036496 L16.3854015,39.4452555 C16,38.989781 16.0525547,38.3416058 16.4729927,37.9386861 L16.4729927,37.9386861 Z" id="icon"></path>
                        </g>
                    </g>
                </g>
            </g>
        </g>
    </g>
</svg>