<?xml version="1.0" encoding="UTF-8"?>
<svg width="44px" height="24px" viewBox="0 0 44 24" version="1.1" xmlns="http://www.w3.org/2000/svg" xmlns:xlink="http://www.w3.org/1999/xlink">
    <!-- Generator: Sketch 52.2 (67145) - http://www.bohemiancoding.com/sketch -->
    <title>icon_vk</title>
    <desc>Created with Sketch.</desc>
    <g id="Startpage" stroke="none" stroke-width="1" fill="none" fill-rule="evenodd">
        <g id="cryptotab_startpage-widgets" transform="translate(-1026.000000, -1158.000000)" fill="#FFFFFF">
            <g id="side-panel-notes" transform="translate(960.000000, 0.000000)">
                <g id="item" transform="translate(25.000000, 86.000000)">
                    <g transform="translate(15.000000, 1043.000000)" id="icon_vk">
                        <path d="M47.5276471,52.8999678 L50.1585641,52.8999678 C50.1585641,52.8999678 50.9520876,52.8159772 51.3587114,52.3975243 C51.7319557,52.0135674 51.7198177,51.2951481 51.7198177,51.2951481 C51.7198177,51.2951481 51.6682311,47.9190275 53.3053473,47.4225833 C54.9197047,46.9321384 56.9937899,50.6832169 59.1907726,52.1245549 C60.8521648,53.2164322 62.1160368,52.977959 62.1160368,52.977959 L67.9908412,52.8999678 C67.9908412,52.8999678 71.0647963,52.7184882 69.6082332,50.4072479 C69.4883702,50.2182691 68.7585714,48.6989399 65.2385439,45.5747909 C61.5546531,42.3036585 62.0477604,42.833099 66.485726,37.1772345 C69.1894713,33.7336215 70.2697556,31.6293579 69.9314081,30.729459 C69.6097504,29.8715554 67.6221487,30.0995298 67.6221487,30.0995298 L61.0054074,30.1370256 C61.0054074,30.1370256 60.5153346,30.0740327 60.1511938,30.2810094 C59.7961566,30.4849865 59.5670514,30.9604331 59.5670514,30.9604331 C59.5670514,30.9604331 58.5201466,33.6256336 57.1242737,35.8933788 C54.1777679,40.6748415 53.0003794,40.928313 52.5178929,40.6313464 C51.39816,39.9384242 51.6788519,37.8506588 51.6788519,36.3673255 C51.6788519,31.7313464 52.4132024,29.7995635 50.2465648,29.2986198 C49.5273868,29.1321385 48.9978654,29.021151 47.1589545,29.0061527 C44.7981085,28.9806555 42.799886,29.012152 41.6680151,29.5415925 C40.9154575,29.8940529 40.3358668,30.6799646 40.6893868,30.7249595 C41.1263557,30.7804533 42.1171221,30.9799309 42.6405744,31.6623542 C43.3203039,32.5442551 43.2960278,34.5255325 43.2960278,34.5255325 C43.2960278,34.5255325 43.6859619,39.9819194 42.3856759,40.6598432 C41.493531,41.1232911 40.2706249,40.1753976 37.6442596,35.8348853 C36.298456,33.6121351 35.2818963,31.156911 35.2818963,31.156911 C35.2818963,31.156911 35.0876879,30.6964627 34.7372024,30.4504904 C34.3138888,30.1520239 33.7206427,30.0590343 33.7206427,30.0590343 L27.4346627,30.0995298 C27.4346627,30.0995298 26.4909312,30.1235271 26.1434802,30.5164829 C25.8354778,30.8659437 26.1192041,31.5858628 26.1192041,31.5858628 C26.1192041,31.5858628 31.0411736,42.5961256 36.6140446,48.145502 C41.7256707,53.2329304 47.5276471,52.8999678 47.5276471,52.8999678"></path>
                    </g>
                </g>
            </g>
        </g>
    </g>
</svg>