<?xml version="1.0" encoding="UTF-8" standalone="no"?>
<svg width="47px" height="62px" viewBox="0 0 47 62" version="1.1" xmlns="http://www.w3.org/2000/svg" xmlns:xlink="http://www.w3.org/1999/xlink">
    <!-- Generator: Sketch 49.1 (51147) - http://www.bohemiancoding.com/sketch -->
    <title>icon_btc</title>
    <desc>Created with Sketch.</desc>
    <defs></defs>
    <g id="Page-1" stroke="none" stroke-width="1" fill="none" fill-rule="evenodd">
        <g id="cryptotab--landing--b" transform="translate(-70.000000, -111.000000)" fill="#F7931A">
            <g id="first" transform="translate(-100.000000, -61.000000)">
                <g id="back-pattern" transform="translate(68.000000, 0.000000)">
                    <g id="icon_btc" transform="translate(86.000000, 165.000000)">
                        <g id="bitcoin-logo" transform="translate(38.084632, 38.915368) rotate(17.000000) translate(-38.084632, -38.915368) translate(7.584632, 8.415368)">
                            <g id="Group" transform="translate(30.556087, 29.626264) rotate(-15.000000) translate(-30.556087, -29.626264) translate(7.094548, -0.873736)">
                                <path d="M45.506094,24.4563124 C46.4554417,18.064134 41.6237538,14.6278502 35.017069,12.3354931 L37.1601804,3.67647836 L31.9275906,2.36291423 L29.8411122,10.7937442 C28.4655268,10.4484644 27.0526829,10.1227005 25.648781,9.79993906 L27.7501628,1.31356414 L22.5205537,9.76996262e-15 L20.375952,8.65601235 C19.2373309,8.39480074 18.1195746,8.13659156 17.0346058,7.86487144 L17.0405672,7.83784955 L9.8243326,6.02287921 L8.43235344,11.6524398 C8.43235344,11.6524398 12.3146936,12.5486658 12.2327248,12.6042108 C14.3519907,13.1371426 14.7350086,14.549787 14.6709239,15.6696942 L12.2297441,25.5341856 C12.3757976,25.571716 12.565071,25.6257598 12.7737189,25.7098279 C12.5993489,25.6662926 12.4130562,25.6182537 12.2208021,25.571716 L8.7989775,39.3904107 C8.53965804,40.0389361 7.88241734,41.0117241 6.40101768,40.642425 C6.45317964,40.718987 2.59766561,39.6861503 2.59766561,39.6861503 L0,45.719538 L6.80937131,47.4294232 C8.07616177,47.7491822 9.31761642,48.0839535 10.5396966,48.3992088 L8.37423011,57.1573039 L13.6008585,58.470868 L15.7454602,49.8058484 C17.1732076,50.1961646 18.5592254,50.5564565 19.9154364,50.8957313 L17.7782863,59.5202181 L23.0108761,60.8337823 L25.1763426,52.0922006 C34.0990185,53.7930785 40.8085369,53.1070227 43.6327345,44.9779372 C45.9084863,38.4326348 43.5194685,34.6570762 38.8248921,32.1950817 C42.243736,31.4009383 44.8190465,29.1356031 45.506094,24.4563124 Z M33.5505727,41.3434929 C31.933552,47.8887954 20.9929534,44.3504289 17.4459401,43.4632101 L20.319319,31.8603105 C23.8663323,32.7520329 35.2406203,34.5174631 33.5505727,41.3434929 Z M35.1690838,24.3617358 C33.6936455,30.315559 24.5876577,27.2906085 21.6338004,26.5490077 L24.2389177,16.0254825 C27.192775,16.7670832 36.7056262,18.1512045 35.1690838,24.3617358 Z" id="Shape" fill-rule="nonzero"></path>
                            </g>
                        </g>
                    </g>
                </g>
            </g>
        </g>
    </g>
</svg>
