<?xml version="1.0" encoding="UTF-8"?>
<svg width="80px" height="80px" viewBox="0 0 80 80" version="1.1" xmlns="http://www.w3.org/2000/svg" xmlns:xlink="http://www.w3.org/1999/xlink">
    <!-- Generator: Sketch 52.2 (67145) - http://www.bohemiancoding.com/sketch -->
    <title>icon_maps</title>
    <desc>Created with Sketch.</desc>
    <defs>
        <rect id="path-1" x="0" y="0" width="80" height="80" rx="40"></rect>
        <path d="M60.9375,-6.81821749e-16 C72.5,-6.81821749e-16 80,7.5 80,19.0625 L80,60.9375 C80,72.5 72.5,80 60.9375,80 L19.0625,80 C7.5,80 0,72.5 0,60.9375 L0,19.0625 C0,7.5 7.5,-6.81821743e-16 19.0625,-6.81821743e-16 L60.9375,-6.81821749e-16 Z" id="path-3"></path>
        <path d="M19.201258,56.5324704 C19.201258,56.5324704 20.4815224,43.3644657 28.5199247,34.2438037 C36.5583269,25.1231418 35.3668234,16.2976037 35.3668234,16.2976037 C35.3668234,16.2976037 35.1504609,11.8060401 32.0318218,7.51795133 C29.5257603,4.07214905 24.5448205,0.63911016 17.9005453,0.665842905 C2.98787864,0.725842905 0.739257988,14.3224704 0.739257988,14.3224704 C0.739257988,14.3224704 -1.71607535,23.2458037 6.06992465,32.6484704 C13.855258,42.0511371 15.9739247,49.5131371 16.5019247,56.5324704 C16.5019247,56.5324704 17.907258,59.9718037 19.201258,56.5324704 Z" id="path-5"></path>
        <filter x="-21.4%" y="-7.8%" width="142.8%" height="126.1%" filterUnits="objectBoundingBox" id="filter-6">
            <feOffset dx="0" dy="3" in="SourceAlpha" result="shadowOffsetOuter1"></feOffset>
            <feGaussianBlur stdDeviation="2" in="shadowOffsetOuter1" result="shadowBlurOuter1"></feGaussianBlur>
            <feColorMatrix values="0 0 0 0 0   0 0 0 0 0   0 0 0 0 0  0 0 0 0.2 0" type="matrix" in="shadowBlurOuter1"></feColorMatrix>
        </filter>
    </defs>
    <g id="Startpage" stroke="none" stroke-width="1" fill="none" fill-rule="evenodd">
        <g id="cryptotab_startpage-03" transform="translate(-901.000000, -444.000000)">
            <g id="icons" transform="translate(286.000000, 300.000000)">
                <g id="row" transform="translate(0.000000, 139.000000)">
                    <g id="item" transform="translate(605.000000, 0.000000)">
                        <g id="icon_maps" transform="translate(10.000000, 5.000000)">
                            <mask id="mask-2" fill="white">
                                <use xlink:href="#path-1"></use>
                            </mask>
                            <use id="Mask" fill="#FFFFFF" xlink:href="#path-1"></use>
                            <g id="Google-Maps" mask="url(#mask-2)">
                                <path d="M60.9375,-6.81821749e-16 C72.5,-6.81821749e-16 80,7.5 80,19.0625 L80,60.9375 C80,72.5 72.5,80 60.9375,80 L19.0625,80 C7.5,80 0,72.5 0,60.9375 L0,19.0625 C0,7.5 7.5,-6.81821743e-16 19.0625,-6.81821743e-16 L60.9375,-6.81821749e-16 Z" id="App-Icon-Shape" fill="#F2F2F2"></path>
                                <g id="Icon">
                                    <g id="Areas">
                                        <mask id="mask-4" fill="white">
                                            <use xlink:href="#path-3"></use>
                                        </mask>
                                        <g id="Mask"></g>
                                        <polygon id="Blue" fill="#4889F4" mask="url(#mask-4)" points="4.10266113 82.8385067 40.0656051 46.887167 75.9954735 82.8385057"></polygon>
                                        <polygon id="Gray" fill="#D3D3D3" mask="url(#mask-4)" points="45.8527734 41.0919659 81.7628432 5.1419867 81.7628431 77.0419428"></polygon>
                                        <polygon id="Green" fill="#1EA362" mask="url(#mask-4)" points="-4.37601511 79.3232261 76.4869135 -2.51178062 -4.37601511 -2.51178062"></polygon>
                                        <polygon id="Yellow" fill="#FFDE47" mask="url(#mask-4)" points="75.8968046 -1.89783725 82.6076141 4.33009051 6.84550015 80.0922044 0.817500736 74.0642058"></polygon>
                                        <g id="Pin" mask="url(#mask-4)">
                                            <g transform="translate(44.666667, -0.666667)">
                                                <g id="Page-1" fill="none">
                                                    <use fill="black" fill-opacity="1" filter="url(#filter-6)" xlink:href="#path-5"></use>
                                                    <use fill="#DC4B3E" fill-rule="evenodd" xlink:href="#path-5"></use>
                                                </g>
                                                <circle id="Oval-60" fill="#812C28" fill-rule="evenodd" cx="17.9013142" cy="18.1221645" r="6.33333333"></circle>
                                            </g>
                                        </g>
                                    </g>
                                    <path d="M16.4504283,9.91647414 C13.8576344,10.8052466 11.6483222,12.7490778 10.4177467,15.2089705 C9.98847616,16.0576048 9.67940139,16.9578453 9.49052236,17.8924898 C9.0211866,20.2090321 9.34743219,22.6803928 10.4120231,24.7905106 C11.1045795,26.1666743 12.1004871,27.3937537 13.3024445,28.3513343 C14.4414423,29.2573087 15.7635955,29.9339226 17.1716028,30.3066336 C18.9459209,30.7825569 20.8347112,30.7710888 22.6204766,30.3639737 C24.2345337,29.9912627 25.7627367,29.2171706 26.981865,28.0933036 C28.2696766,26.9063623 29.1911773,25.3467101 29.6776839,23.6666435 C30.2099793,21.8374926 30.2786626,19.8821932 29.9466934,18.0014361 L19.9303813,18.0014361 L19.9303813,22.1643314 L25.7341187,22.1643314 C25.510898,23.4946231 24.7210403,24.7102344 23.6049369,25.4613904 C22.9009333,25.9373137 22.0939047,26.2412165 21.2582581,26.3903009 C20.4226115,26.5336513 19.5526233,26.5508534 18.7169767,26.3845669 C17.8641592,26.2125465 17.0571307,25.8570375 16.3474034,25.3581781 C15.2141292,24.56115 14.3498646,23.3971448 13.9091469,22.0840552 C13.4569819,20.7480296 13.4512583,19.2629196 13.9091469,17.9326279 C14.2296689,16.9922494 14.7562407,16.126413 15.4545207,15.4153951 C16.3130618,14.5323567 17.4291651,13.901615 18.6368462,13.6435843 C19.6670954,13.4256917 20.7545807,13.4658298 21.7619355,13.7697326 C22.6204766,14.0277633 23.4103343,14.5036866 24.0571019,15.1229603 C24.7095931,14.4692825 25.3620843,13.8156047 26.0145754,13.161927 C26.3579919,12.812152 26.7185791,12.4738451 27.0505483,12.1126021 C26.0603643,11.1951596 24.8927485,10.4554716 23.6221078,9.98528233 C21.332665,9.13664802 18.7570419,9.11944597 16.4504283,9.91647414 L16.4504283,9.91647414 Z" id="Google-Icon" fill="#FFFFFF"></path>
                                </g>
                            </g>
                        </g>
                    </g>
                </g>
            </g>
        </g>
    </g>
</svg>