<?xml version="1.0" encoding="UTF-8"?>
<svg width="39px" height="40px" viewBox="0 0 39 40" version="1.1" xmlns="http://www.w3.org/2000/svg" xmlns:xlink="http://www.w3.org/1999/xlink">
    <!-- Generator: Sketch 52.6 (67491) - http://www.bohemiancoding.com/sketch -->
    <title>icon_google</title>
    <desc>Created with Sketch.</desc>
    <g id="Page-1" stroke="none" stroke-width="1" fill="none" fill-rule="evenodd">
        <g id="cryptotab_startpage-widgets" transform="translate(-1030.000000, -2146.000000)">
            <g id="side-panel-notes" transform="translate(960.000000, 0.000000)">
                <g id="item" transform="translate(25.000000, 86.000000)">
                    <g transform="translate(15.000000, 2040.000000)" id="icon_google">
                        <g transform="translate(30.000000, 20.000000)">
                            <path d="M13.3062393,1.09383378 C8.51852968,2.75603217 4.43893606,6.39142091 2.16662355,10.9919571 C1.3739564,12.5790885 0.803236049,14.2627346 0.454462501,16.0107239 C-0.41218692,20.3431635 0.190240117,24.9651475 2.15605466,28.9115282 C3.434891,31.4852547 5.2738788,33.7801609 7.49334683,35.5710456 C9.59655701,37.2654155 12.0379718,38.5308311 14.6379201,39.227882 C17.9142777,40.1179625 21.4020132,40.0965147 24.6995085,39.3351206 C27.679937,38.6380697 30.5018321,37.1903485 32.7530068,35.0884718 C35.1310083,32.8686327 36.8326004,29.9517426 37.7309565,26.8096515 C38.7138638,23.3887399 38.8406905,19.7319035 38.2276946,16.2144772 L19.7321277,16.2144772 L19.7321277,24 L30.4489876,24 C30.0368007,26.4879357 28.5782931,28.7613941 26.5173585,30.1662198 C25.2173844,31.0563003 23.7271701,31.6246649 22.1841114,31.9034853 C20.6410527,32.1715818 19.0345806,32.2037534 17.4915219,31.8927614 C15.9167564,31.5710456 14.4265422,30.9061662 13.1159992,29.9731903 C11.0233579,28.4825737 9.42745468,26.30563 8.61364974,23.849866 C7.778707,21.3512064 7.76813811,18.5737265 8.61364974,16.0857909 C9.20550788,14.3270777 10.1778463,12.7077748 11.4672515,11.3780161 C13.0525858,9.72654155 15.1135204,8.54691689 17.3435573,8.06434316 C19.2459585,7.65683646 21.2540486,7.73190349 23.1141742,8.3002681 C24.6995085,8.78284182 26.1580161,9.67292225 27.3523013,10.8310992 C28.5571553,9.60857909 29.7620094,8.38605898 30.9668635,7.16353887 C31.6009972,6.50938338 32.2668376,5.8766756 32.8798335,5.20107239 C31.0514146,3.48525469 28.89536,2.10187668 26.5490652,1.22252011 C22.321507,-0.36461126 17.5655041,-0.396782842 13.3062393,1.09383378 L13.3062393,1.09383378 Z" id="Shape" fill="#FFFFFF"></path>
                            <path d="M13.3062393,1.09383378 C17.5549352,-0.396782842 22.321507,-0.36461126 26.5490652,1.21179625 C28.89536,2.09115282 31.0408457,3.46380697 32.8798335,5.19034853 C32.2668376,5.86595174 31.6009972,6.49865952 30.9668635,7.15281501 C29.7620094,8.37533512 28.5571553,9.59785523 27.3523013,10.8203753 C26.1580161,9.66219839 24.6995085,8.78284182 23.1141742,8.28954424 C21.2540486,7.72117962 19.2459585,7.63538874 17.3435573,8.0536193 C15.1240893,8.53619303 13.0631547,9.71581769 11.4672515,11.3672922 C10.1778463,12.6863271 9.20550788,14.3163539 8.61364974,16.075067 C6.46816397,14.3806971 4.32267821,12.6970509 2.16662355,11.002681 C4.43893606,6.39142091 8.51852968,2.75603217 13.3062393,1.09383378 L13.3062393,1.09383378 Z" id="Shape" fill="#EA4335"></path>
                            <path d="M0.465031397,16 C0.813804944,14.2627346 1.3845253,12.5683646 2.17719245,10.9812332 C4.32267821,12.6756032 6.46816397,14.3592493 8.62421863,16.0536193 C7.778707,18.5522788 7.778707,21.3297587 8.62421863,23.8176944 C6.47873287,25.5120643 4.33324711,27.2064343 2.18776134,28.8900804 C0.200809012,24.9544236 -0.401618025,20.3324397 0.465031397,16 L0.465031397,16 Z" id="Shape" fill="#FBBC05"></path>
                            <path d="M19.7321277,16.2037534 L38.2276946,16.2037534 C38.8406905,19.7104558 38.7032949,23.3672922 37.7309565,26.7989276 C36.8326004,29.9410188 35.1310083,32.8579088 32.7530068,35.077748 C30.6709344,33.4369973 28.588862,31.7962466 26.5067896,30.155496 C28.5677242,28.7506702 30.0262318,26.4772118 30.4384187,23.9892761 L19.7215588,23.9892761 C19.7321277,21.3941019 19.7321277,18.7989276 19.7321277,16.2037534 L19.7321277,16.2037534 Z" id="Shape" fill="#4285F4"></path>
                            <path d="M2.16662355,28.9008043 C4.31210932,27.2171582 6.45759508,25.5227882 8.60308084,23.8284182 C9.42745468,26.2841823 11.012789,28.461126 13.1054303,29.9517426 C14.4159733,30.8847185 15.9167564,31.5495979 17.480953,31.8713137 C19.0240117,32.1930295 20.6199149,32.150134 22.1735425,31.8820375 C23.7166012,31.6032172 25.2068155,31.0348525 26.5067896,30.1447721 C28.588862,31.7855228 30.6709344,33.4262735 32.7530068,35.0670241 C30.5018321,37.1796247 27.679937,38.616622 24.6995085,39.3136729 C21.4020132,40.075067 17.9142777,40.0965147 14.6379201,39.2064343 C12.0379718,38.5093834 9.59655701,37.2546917 7.49334683,35.5495979 C5.28444769,33.769437 3.44545989,31.4745308 2.16662355,28.9008043 L2.16662355,28.9008043 Z" id="Shape" fill="#34A853"></path>
                        </g>
                    </g>
                </g>
            </g>
        </g>
    </g>
</svg>