<?xml version="1.0" encoding="UTF-8" standalone="no"?>
<svg width="48px" height="47px" viewBox="0 0 48 47" version="1.1" xmlns="http://www.w3.org/2000/svg" xmlns:xlink="http://www.w3.org/1999/xlink">
    <!-- Generator: Sketch 47.1 (45422) - http://www.bohemiancoding.com/sketch -->
    <title>NBC_logo</title>
    <desc>Created with Sketch.</desc>
    <defs></defs>
    <g id="Page-1" stroke="none" stroke-width="1" fill="none" fill-rule="evenodd">
        <g id="everyday-tab_widgets-list" transform="translate(-207.000000, -944.000000)" fill-rule="nonzero">
            <g id="item" transform="translate(25.000000, 87.000000)">
                <g transform="translate(156.000000, 831.000000)" id="NBC_logo">
                    <g transform="translate(26.000000, 26.000000)">
                        <path d="M24.0063269,3.63783363 C23.2602601,1.78162791 21.4430931,-0.223060823 18.0399016,0.0522969589 C13.7046327,0.522044723 12.3536309,4.66292129 13.0086749,7.133322 C11.282109,5.96799106 8.34601054,5.45553131 5.78328295,7.64342755 C2.47448858,10.9493184 4.2443304,15.4200358 6.06326889,16.4924597 C4.05857293,16.3074025 0.890319859,17.6575385 0.189384886,21.1891807 C-0.556260105,25.5740537 2.79758172,28.1302987 6.06326889,28.1302987 L42.2767803,28.1302987 C46.053174,28.1302987 48.1485554,24.8741825 47.9134482,21.8033757 C47.5428612,17.7955957 43.8632267,16.2578801 41.8560844,16.5873005 C43.5330475,15.6548676 45.7728506,11.2744508 42.3672127,7.830839 C39.6639438,5.26811986 36.217645,6.20046869 35.0059192,7.31829517 C35.6591916,5.17739893 34.5880914,0.751915921 30.2033884,0.0518765653 C29.9005413,0.0180769231 29.6087452,0 29.3306151,0 C25.9834376,0.000336314848 24.4785659,2.4388712 24.0063269,3.63783363" id="path3113" fill="#000000"></path>
                        <path d="M6.38653076,8.34119678 C4.47454482,10.0662397 3.77867135,13.9748909 7.22530756,16.259814 L20.9751564,25.6619159 L14.3082179,10.4387084 C12.9112408,6.84636136 9.08946221,6.063 6.38653076,8.34119678" id="path3115" fill="#F37021"></path>
                        <path d="M18.2224534,0.939663685 C15.9874587,0.984982111 12.6314236,3.63774955 14.1249912,7.68849374 L21.0201195,23.8964311 L23.4431494,6.84879964 C24.0038805,2.61283005 20.7875431,0.657411449 18.2224534,0.939663685" id="path3117" fill="#CC004C"></path>
                        <path d="M24.5193954,6.19870304 L25.8231564,6.19870304 C25.8231564,6.19870304 26.5194517,6.19870304 26.6141863,6.52602147 C26.1011178,6.94364043 24.7043937,6.99593739 24.8898137,9.22671377 L27.0817856,23.8942451 L33.9300105,7.64367979 C35.3307838,4.01526297 32.3904675,0.984982111 29.7822707,0.89232737 C29.6605413,0.883583184 29.5382214,0.876520572 29.4118524,0.876520572 C27.0707346,0.876436494 24.3880492,2.57213596 24.5193954,6.19870304" id="path3119" fill="#6460AA"></path>
                        <path d="M33.6543269,10.5766816 L27.1768576,25.617186 L40.922826,16.1654776 C44.0914165,13.9254526 43.5802882,10.3442039 41.8066503,8.57409481 C41.0631142,7.74095886 39.6978559,7.09733631 38.251529,7.09733631 C36.5429315,7.09708408 34.7142917,8.00034168 33.6543269,10.5766816" id="path3121" fill="#0089D0"></path>
                        <path d="M39.3837891,18.3056172 L26.4746573,27.2925385 L42.3693216,27.2925385 C45.6302847,27.2925385 47.7259192,23.9412451 46.794348,20.8660662 C46.1704323,18.9331807 44.3244148,17.4158122 42.1817926,17.4136261 C41.2799156,17.4140465 40.3234587,17.68478 39.3837891,18.3056172" id="path3123" fill="#0DB14B"></path>
                        <path d="M6.01611248,27.2925385 L21.6762601,27.2925385 L8.76400703,18.3056172 C5.78108963,16.3953488 2.42674165,17.5130912 1.2158594,20.6830268 C0.189469244,24.311864 2.75219684,27.2925385 6.01611248,27.2925385" id="path3125" fill="#FCB711"></path>
                        <path d="M23.3589596,39.5884615 L26.2640984,39.5884615 C26.9318805,39.6303327 28.1156837,40.2114848 28.1156837,41.5877692 C28.1156837,43.0272809 26.8870861,43.6080966 26.221413,43.673678 L23.3589596,43.673678 L23.3589596,39.5884615 M23.3146714,33.179898 L25.7058981,33.179898 C26.5232478,33.2238712 27.4897434,33.8258748 27.4897434,34.9435331 C27.4897434,36.0398354 26.7590299,36.7704794 25.8136239,36.9007174 L23.3146714,36.9007174 L23.3146714,33.179898 M20.0454411,30.5130054 L20.0454411,46.3378801 L27.7493989,46.3378801 C29.5779543,46.3378801 31.7516204,44.5112701 31.7516204,42.1244436 C31.7516204,39.6306691 30.1170053,38.4058945 29.0827698,37.9110072 C29.0827698,37.9110072 30.9765343,36.8146208 30.8923445,34.448814 C30.8062144,31.2664347 27.8566186,30.5130054 26.845413,30.5130054 L20.0454411,30.5130054" id="path3127" fill="#FFFFFF"></path>
                        <polygon id="polygon3129" fill="#FFFFFF" points="8.22908963 46.3378801 8.22908963 37.2232433 18.2146081 46.9398837 18.2146081 30.5130054 14.8591634 30.5130054 14.8591634 39.3944919 4.87128295 29.8694669 4.87128295 46.3378801"></polygon>
                        <path d="M32.2910931,38.2540483 C32.375283,43.2584973 35.9829596,47 40.6208225,47 C41.7204359,47 42.8789315,46.7925778 44.0629033,46.3378801 L44.0629033,43.1134615 C43.1245835,43.6849445 42.080478,43.9604705 41.0574622,43.9604705 C38.2508541,43.9604705 35.6026714,41.8905367 35.7122531,38.125576 C35.9013849,35.0715009 38.4099543,32.9626386 41.1134763,32.9626386 C42.1035079,32.9626386 43.1217996,33.2469088 44.0629033,33.8679141 L44.0629033,30.7299284 C42.9655677,30.2865814 41.874812,30.0883238 40.8241265,30.0883238 C36.1979051,30.0882397 32.3799227,33.9776369 32.2910931,38.2540483" id="path3131" fill="#FFFFFF"></path>
                    </g>
                </g>
            </g>
        </g>
    </g>
</svg>