<?xml version="1.0" encoding="UTF-8"?>
<svg width="44px" height="32px" viewBox="0 0 44 32" version="1.1" xmlns="http://www.w3.org/2000/svg" xmlns:xlink="http://www.w3.org/1999/xlink">
    <!-- Generator: Sketch 52.6 (67491) - http://www.bohemiancoding.com/sketch -->
    <title>Yahoo!_icon</title>
    <desc>Created with Sketch.</desc>
    <g id="Page-1" stroke="none" stroke-width="1" fill="none" fill-rule="evenodd">
        <g id="cryptotab_startpage-widgets" transform="translate(-1169.000000, -2150.000000)">
            <g id="side-panel-notes" transform="translate(960.000000, 0.000000)">
                <g id="item" transform="translate(25.000000, 86.000000)">
                    <g transform="translate(156.000000, 2040.000000)" id="Yahoo!_icon">
                        <g transform="translate(28.000000, 24.000000)">
                            <path d="M16.3170868,-2.24396281e-07 C25.5673619,-2.24396281e-07 32.6341762,6.92647129 32.6341762,15.9974954 C32.6341762,25.0685194 25.5673619,31.9976987 16.3170868,31.9976987 C7.06681162,31.9976987 -2.58777679e-06,25.0685194 -2.58777679e-06,15.9974954 C-2.58777679e-06,6.92647129 7.06681162,-2.24396281e-07 16.3170868,-2.24396281e-07 Z" id="path61" fill="#6B0094"></path>
                            <g id="g63" transform="translate(3.358139, 8.851695)" fill="#FFFFFF">
                                <g id="id4">
                                    <path d="M12.2578856,1.65986202 C12.2953469,1.1047695 12.3354841,0.55238475 12.4130826,0 C8.27360451,0 4.13680226,0 0,0 C0,0.55238475 0,1.1047695 0,1.65986202 C1.24692746,1.7383873 2.45906939,1.85752911 3.70867266,1.93605439 C6.05000641,4.81982772 8.39134015,7.70360104 10.7728111,10.6252831 C10.7728111,12.1280946 10.7728111,13.5875817 10.7728111,15.0903932 C9.44560929,15.209535 8.11840753,15.2880603 6.79120578,15.4072021 C6.79120578,15.8810616 6.79120578,16.3928298 6.79120578,16.8666892 C10.8905467,16.8666892 14.9898876,16.8666892 19.0490914,16.8666892 C19.0490914,16.3928298 19.0490914,15.8810616 19.0490914,15.4072021 C17.7218896,15.325969 16.3946879,15.2880603 15.0674861,15.2474438 C15.1076232,13.6688148 15.1450846,12.0495693 15.1852217,10.4682326 C17.4864183,8.41303636 19.7528294,6.36054793 22.0165647,4.30535173 C23.1858936,4.22682644 24.3578984,4.14830116 25.5673645,4.02915935 C25.5673645,3.39824932 25.5673645,2.72672276 25.5673645,2.09310496 C22.0941632,2.13372148 18.6584231,2.17163024 15.1852217,2.25015552 C15.1852217,2.80524804 15.1852217,3.31701627 15.1852217,3.87210878 C16.4722863,3.95063407 17.7620268,3.98854282 19.0490914,4.02915935 C17.3713585,5.49135428 15.6909498,6.91293268 14.013217,8.3751276 C12.2953469,6.24140612 10.5774769,4.06977588 8.8596069,1.93605439 C9.99147453,1.81691258 11.1233422,1.7383873 12.2578856,1.65986202 Z" id="path66"></path>
                                </g>
                            </g>
                            <g id="g68" transform="translate(33.220179, 1.107477)" fill="#6B0094">
                                <g id="id5">
                                    <path d="M10.7754869,0.476567235 C7.61267944,0.316808901 4.49000918,0.159758334 1.36733891,0 C1.20946612,7.54655048 1.05426914,15.1310097 0.899072159,22.6775602 C2.3814709,22.8346108 3.90400679,22.9916613 5.38640553,23.1514197 C7.18187404,15.5669604 8.98001835,8.02040994 10.7754869,0.476567235 Z M0.46826675,30.8523129 C2.26373526,30.8523129 4.05920377,30.8523129 5.85467228,30.8523129 C5.85467228,29.3522092 5.85467228,27.8521056 5.85467228,26.3113854 C3.90400679,26.151627 1.9533413,25.9945765 0,25.8375259 C0.15519698,27.5352967 0.31306977,29.1951587 0.46826675,30.8523129 Z" id="path71"></path>
                                </g>
                            </g>
                        </g>
                    </g>
                </g>
            </g>
        </g>
    </g>
</svg>