<?xml version="1.0" encoding="UTF-8"?>
<svg width="44px" height="48px" viewBox="0 0 44 48" version="1.1" xmlns="http://www.w3.org/2000/svg" xmlns:xlink="http://www.w3.org/1999/xlink">
    <!-- Generator: Sketch 55.2 (78181) - https://sketchapp.com -->
    <title>icon_airbnb</title>
    <desc>Created with Sketch.</desc>
    <defs>
        <path d="M21.8692191,3.58198164 L22.0126104,3.58198164 C23.7323623,3.58198164 25.8697258,4.91255572 26.6123577,6.43908202 L40.2075697,34.3848933 C41.949025,37.9645639 40.4136356,42.2023515 36.756306,43.8719795 L36.4727916,44.0014082 C33.546872,45.3371362 29.1061264,44.5495239 27.3003415,42.6001892 L26.1789148,43.6573929 L25.1212349,44.7794649 C25.179476,44.8353339 25.179476,44.8353339 25.3541994,45.0029412 C25.5289228,45.1705484 25.5289228,45.1705484 25.5871639,45.2264175 C27.6442827,42.9264044 27.6442827,42.9264044 27.2365947,42.5353209 C25.6966786,41.0581228 24.2919836,39.6105615 23.0466887,38.1082228 C21.2737602,35.9693404 19.2220686,33.1386735 18.7854217,32.36023 C18.1413647,31.2120207 17.6773108,30.1168704 17.3640495,29.1157745 C17.2569137,28.7733985 17.1764668,28.4699759 17.1190459,28.2107806 C17.087429,28.0680632 17.0714338,27.9799841 17.0673603,27.9518688 L17.0518588,27.844878 L17.0217671,27.741099 C15.8917275,23.8438612 18.1388197,20.7951837 22.0361196,20.7951837 L22.0361196,17.6984095 C16.0855388,17.6984095 12.372201,22.7363733 14.0754592,28.6105057 L14.0298661,28.3997359 C14.0794179,28.741742 14.2042537,29.3052452 14.4366732,30.0479931 C14.8125691,31.2492518 15.3607426,32.5429213 16.1137295,33.8853282 C16.6577474,34.8551903 18.8098809,37.8244343 20.6917475,40.0947408 C22.0297467,41.7089192 23.5030973,43.2272311 25.1212349,44.7794649 C25.5289228,45.1705484 25.5289228,45.1705484 25.5871639,45.2264175 C27.6442827,42.9264044 27.6442827,42.9264044 27.4695593,42.7587972 C27.2948359,42.59119 27.2948359,42.59119 27.2365947,42.5353209 L25.0574881,44.7145965 C27.7818178,47.6554951 33.638775,48.6942872 37.7384072,46.8227412 L38.0219216,46.6933124 C43.2510463,44.3061355 45.4717752,38.1767606 42.9633578,33.0205514 L29.3681458,5.0747401 C28.1073158,2.48302476 24.8981281,0.485207449 22.0126104,0.485207449 L21.8692191,0.485207449 L21.8692191,3.58198164 L21.8692191,3.58198164 Z" id="path-1"></path>
    </defs>
    <g id="Page-1" stroke="none" stroke-width="1" fill="none" fill-rule="evenodd">
        <g id="cryptotab_startpage-widgets" transform="translate(-1028.000000, -2761.000000)">
            <g id="side-panel-notes" transform="translate(960.000000, 0.000000)">
                <g id="item" transform="translate(20.000000, 91.000000)">
                    <g transform="translate(20.000000, 2654.000000)" id="Airbnb">
                        <g transform="translate(28.000000, 16.000000)">
                            <g id="icon_airbnb">
                                <path d="M14.7472633,5.05695256 L1.12897918,33.05019 C-1.36871476,38.1843566 0.802538181,44.281862 5.96464351,46.6384435 L6.46625023,46.8674348 C10.5244605,48.7200711 16.3161291,47.6659541 19.049436,44.7144149 L16.870161,42.5353209 C16.8119199,42.59119 16.8119199,42.59119 16.6371965,42.7587972 C16.4624731,42.9264044 16.4624731,42.9264044 16.404232,42.9822735 C18.577833,45.1705484 18.577833,45.1705484 18.9855209,44.7794649 C20.6036585,43.2272311 22.0770091,41.7089192 23.4150083,40.0947408 C25.2968748,37.8244343 27.4490083,34.8551903 27.9930263,33.8853282 C28.7460773,32.542807 29.2952997,31.2457831 29.6729834,30.0389999 C29.9062946,29.2935191 30.0321124,28.7273855 30.0823981,28.3839147 L30.0371661,28.5922956 C31.7510332,22.6802271 28.0433958,17.6984098 21.9345192,17.6984103 L21.9195504,20.7951845 C25.9972847,20.7951841 28.2296163,23.7946868 27.0908052,27.7230715 L27.0455733,27.9314524 C27.0413104,27.9605693 27.0249593,28.0500663 26.9928672,28.1944689 C26.934716,28.4561276 26.8535137,28.7619959 26.7456486,29.1066487 C26.4305231,30.1135445 25.9653269,31.212135 25.321334,32.36023 C24.8846872,33.1386735 22.8329956,35.9693404 21.0600671,38.1082228 C19.8147722,39.6105615 18.4100771,41.0581228 16.870161,42.5353209 L16.404232,42.9822735 C18.577833,45.1705484 18.577833,45.1705484 18.7525564,45.0029412 C18.9272798,44.8353339 18.9272798,44.8353339 18.9855209,44.7794649 L17.927841,43.6573929 L16.806246,42.6003709 C14.9875398,44.564286 10.6115793,45.360736 7.73186586,44.0461019 L7.23025914,43.8171106 C3.64693067,42.1812653 2.15061751,37.9791858 3.88476735,34.414532 L17.5030515,6.42129448 C18.2415771,4.90320869 20.3066188,3.58198164 21.9195502,3.58198164 L21.9195502,0.485207449 C19.126114,0.485207449 15.9975689,2.48687089 14.7472633,5.05695256 Z" id="Left" fill="#FF5A5F" fill-rule="nonzero"></path>
                                <mask id="mask-2" fill="white">
                                    <use xlink:href="#path-1"></use>
                                </mask>
                                <use id="Right" fill="#FF5A5F" fill-rule="nonzero" xlink:href="#path-1"></use>
                            </g>
                        </g>
                    </g>
                </g>
            </g>
        </g>
    </g>
</svg>