<?xml version="1.0" encoding="UTF-8"?>
<svg width="52px" height="46px" viewBox="0 0 52 46" version="1.1" xmlns="http://www.w3.org/2000/svg" xmlns:xlink="http://www.w3.org/1999/xlink">
    <!-- Generator: Sketch 55.2 (78181) - https://sketchapp.com -->
    <title>icon_feedly</title>
    <desc>Created with Sketch.</desc>
    <g id="Page-1" stroke="none" stroke-width="1" fill="none" fill-rule="evenodd">
        <g id="cryptotab_startpage-widgets" transform="translate(-1165.000000, -3326.000000)" fill-rule="nonzero">
            <g id="side-panel-notes" transform="translate(960.000000, 0.000000)">
                <g id="item" transform="translate(20.000000, 91.000000)">
                    <g transform="translate(161.000000, 3218.000000)" id="icon_feedly">
                        <g transform="translate(24.000000, 17.000000)">
                            <polygon id="Path" fill="#FFFFFF" points="6.44576687 22.9941435 26.2275665 3.18592593 46.0093661 22.9941435 26.2275665 42.8023611"></polygon>
                            <path d="M16.0399264,44.4860463 L1.40144785,29.7288843 C-0.378887526,27.9461713 -0.378887526,24.0835556 1.40144785,22.3998704 L22.3702086,1.3040787 C24.0516483,-0.379606481 27.8101104,-0.379606481 29.4916564,1.3040787 L50.5591002,22.3998704 C52.3394356,24.1825833 52.3394356,28.0453056 50.5591002,29.7288843 L35.9206217,44.4860463 C35.030454,45.3774028 33.6457014,45.9716759 32.2609489,45.9716759 L19.5018078,45.9716759 C18.2159509,45.9716759 16.9300941,45.3774028 16.0399264,44.4860463 Z M29.3926544,38.7416898 C29.6894479,38.4446065 29.6894479,37.8503333 29.3926544,37.55325 L26.5242536,34.6810185 C26.2275665,34.3838287 25.6341922,34.3838287 25.3373988,34.6810185 L22.468998,37.55325 C22.1723108,37.8503333 22.1723108,38.4446065 22.468998,38.7416898 L24.7439182,40.9206204 L27.1177342,40.9206204 L29.3926544,38.7416898 Z M29.3926544,26.5596759 C29.5904458,26.3616204 29.5904458,25.866375 29.3926544,25.6683194 L26.3264622,22.5980324 C26.1287771,22.3999769 25.6341922,22.3999769 25.4364008,22.5980324 L16.5345112,31.5117037 C16.2378241,31.8088935 16.2378241,32.5021944 16.5345112,32.7992778 L18.6116401,34.8791806 L20.985456,34.8791806 L29.3926544,26.5596759 L29.3926544,26.5596759 Z M29.3926544,14.4765833 C29.5904458,14.2785278 29.6894479,13.6842546 29.3926544,13.4861991 L26.4253579,10.5149398 C26.2275665,10.3168843 25.6341922,10.3168843 25.3373988,10.5149398 L10.4021268,25.4701574 C10.2044417,25.668213 10.1054397,26.2624861 10.3032311,26.4605417 L12.677047,28.7386065 L14.9519673,28.7386065 L29.3926544,14.4765833 L29.3926544,14.4765833 Z" fill="#2CB24C"></path>
                        </g>
                    </g>
                </g>
            </g>
        </g>
    </g>
</svg>