<?xml version="1.0" encoding="UTF-8"?>
<svg width="27px" height="39px" viewBox="0 0 27 39" version="1.1" xmlns="http://www.w3.org/2000/svg" xmlns:xlink="http://www.w3.org/1999/xlink">
    <!-- Generator: Sketch 52.2 (67145) - http://www.bohemiancoding.com/sketch -->
    <title>icon_tumblr</title>
    <desc>Created with Sketch.</desc>
    <g id="Startpage" stroke="none" stroke-width="1" fill="none" fill-rule="evenodd">
        <g id="cryptotab_startpage-widgets" transform="translate(-1035.000000, -1290.000000)">
            <g id="side-panel-notes" transform="translate(960.000000, 0.000000)">
                <g id="item" transform="translate(25.000000, 86.000000)">
                    <g transform="translate(15.000000, 1184.000000)" id="tumblr">
                        <g transform="translate(10.000000, 0.000000)">
                            <g id="up">
                                <g id="icon_tumblr" transform="translate(25.500498, 20.933333)">
                                    <path d="M6.50965007,1.72986893 C6.50965007,1.72986893 6.50965007,0 8.58685841,0 L18.8989841,0 L18.8989841,8.71429596 L24.778668,8.71429596 L24.778668,17.7328932 L19.1089728,17.7328932 L19.1089728,26.8037687 L24.1487019,26.8037687 L26.4081804,34.1647274 C26.4081804,34.1647274 24.1012671,36.5732987 19.3189615,37.1960312 C15.8772753,37.6441936 10.0794582,36.9797741 7.1396162,34.1647262 C7.1396162,34.1647262 4.19977424,31.5733469 4.19977424,27.4644622 L4.19977424,17.7328932 L-2.33134303e-17,17.7328932 L-2.33134303e-17,9.73138091 C-2.33134303e-17,9.73138091 5.61215831,9.71840579 6.50965007,1.72986893 Z" id="White" fill="#FFFFFF"></path>
                                    <path d="M5.45970651,10.8126235 C5.45970651,10.8126235 11.8857811,9.25623592 11.9693566,1.73005671 L17.1942957,1.73005671 L17.1921962,10.3801093 L23.0987583,10.3801093 L23.0987583,15.9831283 L17.1921962,15.9831283 L17.1921962,26.815648 C17.1921962,26.815648 17.4290631,30.7082756 23.0987583,28.5457047 L24.778668,33.7358749 C24.778668,33.7358749 18.0287908,38.3278779 12.8093114,33.7358749 C12.8093114,33.7358749 10.0794582,31.573304 9.65696107,27.4644193 L9.65696107,15.9831283 L5.45970651,15.9831283 L5.45970651,10.9763448 L5.45970651,10.8126235 Z" id="Blue" fill="#36465D"></path>
                                </g>
                            </g>
                        </g>
                    </g>
                </g>
            </g>
        </g>
    </g>
</svg>