<?xml version="1.0" encoding="UTF-8" standalone="no"?>
<svg width="20px" height="20px" viewBox="0 0 20 20" version="1.1" xmlns="http://www.w3.org/2000/svg" xmlns:xlink="http://www.w3.org/1999/xlink">
    <!-- Generator: Sketch 50.2 (55047) - http://www.bohemiancoding.com/sketch -->
    <title>icon_notification_has-new</title>
    <desc>Created with Sketch.</desc>
    <defs></defs>
    <g id="Page-1" stroke="none" stroke-width="1" fill="none" fill-rule="evenodd">
        <g id="cryptotab_newtab_black-theme" transform="translate(-1191.000000, -20.000000)" fill="#FFFFFF" fill-rule="nonzero">
            <g id="top" transform="translate(1191.000000, 7.000000)">
                <g id="notification-new">
                    <path d="M9.985,32.499 C8.86,32.499 7.969,31.608 7.969,30.53 L11.953,30.53 C11.953,31.694 11.081,32.499 9.984,32.499 L9.985,32.499 Z M15.985,21.531 L15.985,26.5 L18.001,28.516 L18.001,29.5 L1.97,29.5 L1.97,28.516 L3.986,26.5 L3.986,21.531 C3.986,18.437 5.627,15.906 8.486,15.203 L8.486,14.5 C8.486,13.656 9.142,13 9.986,13 C10.83,13 11.486,13.656 11.486,14.5 L11.486,15.203 C14.345,15.906 15.986,18.484 15.986,21.531 L15.985,21.531 Z M17.954,21.015 C17.813,18.343 16.454,16.046 14.438,14.593 L15.844,13.187 C18.235,15.015 19.828,17.828 19.969,21.015 L17.953,21.015 L17.954,21.015 Z M5.579,14.593 C3.516,16.046 2.157,18.343 2.016,21.015 L0,21.015 C0.141,17.827 1.734,15.015 4.125,13.187 L5.579,14.593 Z" id="icon_notification_has-new"></path>
                </g>
            </g>
        </g>
    </g>
</svg>
