<?xml version="1.0" encoding="UTF-8"?>
<svg width="60px" height="17px" viewBox="0 0 60 17" version="1.1" xmlns="http://www.w3.org/2000/svg" xmlns:xlink="http://www.w3.org/1999/xlink">
    <!-- Generator: Sketch 52.2 (67145) - http://www.bohemiancoding.com/sketch -->
    <title>icon_bbc</title>
    <desc>Created with Sketch.</desc>
    <g id="Startpage" stroke="none" stroke-width="1" fill="none" fill-rule="evenodd">
        <g id="cryptotab_startpage-widgets" transform="translate(-1020.000000, -1020.000000)" fill="#000000" fill-rule="nonzero">
            <g id="side-panel-notes" transform="translate(960.000000, 0.000000)">
                <g id="item" transform="translate(25.000000, 86.000000)">
                    <g transform="translate(15.000000, 902.000000)" id="icon_bbc">
                        <g transform="translate(20.000000, 31.000000)">
                            <path d="M32.5915475,6.98830073 C32.5915475,5.17906999 30.2947402,5.28633727 30.2947402,5.28633727 L27.9979329,5.28633727 L27.9979329,8.5563007 L30.2947402,8.5563007 C32.6599596,8.5696488 32.5915475,6.98830073 32.5915475,6.98830073 Z M27.9979329,13.5417365 L29.747936,13.5417365 C31.5661871,13.4478173 31.4977751,12.1212089 31.4977751,12.1212089 C31.4977751,10.4727987 29.4880687,10.4459417 29.4880687,10.4459417 L27.9979329,10.4459417 L27.9979329,13.5417365 Z M32.1677866,9.80265965 C32.1677866,9.80265965 33.7399512,10.4592898 33.7263344,12.2016192 C33.7263344,12.2016192 33.9653664,15.0560224 30.1067301,15.4045205 L25.8241689,15.4045205 L25.8241689,3.43690056 L30.732282,3.43690141 C30.732282,3.43690141 34.8337236,3.42339248 34.8337236,6.81413212 C34.8337236,6.81413212 34.9293692,9.11917249 32.1677866,9.80265965 Z M21.0865117,17.7497016 L39.1128396,17.7497016 L39.1128396,1.09770276 L21.0865117,1.09770276 L21.0865117,17.7497016 Z" id="Shape" transform="translate(30.099676, 9.423702) scale(-1, 1) rotate(-180.000000) translate(-30.099676, -9.423702) "></path>
                            <path d="M11.804039,6.98830073 C11.804039,5.17906999 9.50723172,5.28633727 9.50723172,5.28633727 L7.21042444,5.28633727 L7.21042444,8.5563007 L9.50723172,8.5563007 C11.872451,8.5696488 11.804039,6.98830073 11.804039,6.98830073 Z M7.21042444,13.5417365 L8.96042753,13.5417365 C10.7786786,13.4478173 10.7102666,12.1212089 10.7102666,12.1212089 C10.7102666,10.4727987 8.70056019,10.4459417 8.70056019,10.4459417 L7.21042444,10.4459417 L7.21042444,13.5417365 Z M11.3802781,9.80265965 C11.3802781,9.80265965 12.9524426,10.4592898 12.9388259,12.2016192 C12.9388259,12.2016192 13.1778579,15.0560224 9.31922164,15.4045205 L5.0366604,15.4045205 L5.0366604,3.43690056 L9.94477351,3.43690141 C9.94477351,3.43690141 14.0462151,3.42339248 14.0462151,6.81413212 C14.0462151,6.81413212 14.1418607,9.11917249 11.3802781,9.80265965 Z M0.299003204,17.7497016 L18.3253311,17.7497016 L18.3253311,1.09770276 L0.299003204,1.09770276 L0.299003204,17.7497016 Z" id="Shape" transform="translate(9.312167, 9.423702) scale(-1, 1) rotate(-180.000000) translate(-9.312167, -9.423702) "></path>
                            <path d="M56.2226512,14.5466396 L56.2226512,12.3353576 C56.2226512,12.3353576 54.0214895,13.6621268 51.5880222,13.6889839 C51.5880222,13.6889839 47.0492029,13.7758269 46.8441308,9.42370229 C46.8441308,9.42370229 46.6800731,5.42007569 51.533391,5.19219303 C51.533391,5.19219303 53.570495,4.95096226 56.3320776,6.67978275 L56.3320776,4.38809048 C56.3320776,4.38809048 52.6271634,2.23052252 48.3342665,3.89228085 C48.3342665,3.89228085 44.724998,5.18527775 44.5881739,9.42370229 C44.5881739,9.42370229 44.437733,13.7827422 49.2502005,15.2301268 C49.2502005,15.2301268 50.5354282,15.7125883 52.8458523,15.4982146 C52.8458523,15.4982146 54.2265616,15.3640903 56.2226512,14.5466396 Z M41.8740039,1.09770284 L59.9003318,1.09770284 L59.9003318,17.7497017 L41.8740039,17.7497017 L41.8740039,1.09770284 Z" id="Shape" transform="translate(50.887168, 9.423702) scale(-1, 1) rotate(-180.000000) translate(-50.887168, -9.423702) "></path>
                        </g>
                    </g>
                </g>
            </g>
        </g>
    </g>
</svg>