<?xml version="1.0" encoding="UTF-8"?>
<svg width="38px" height="31px" viewBox="0 0 38 31" version="1.1" xmlns="http://www.w3.org/2000/svg" xmlns:xlink="http://www.w3.org/1999/xlink">
    <!-- Generator: Sketch 52.2 (67145) - http://www.bohemiancoding.com/sketch -->
    <title>icon_twitter</title>
    <desc>Created with Sketch.</desc>
    <g id="Startpage" stroke="none" stroke-width="1" fill="none" fill-rule="evenodd">
        <g id="cryptotab_startpage-widgets" transform="translate(-1033.000000, -308.000000)" fill="#FFFFFF">
            <g id="side-panel-notes" transform="translate(960.000000, 0.000000)">
                <g id="item" transform="translate(25.000000, 86.000000)">
                    <g transform="translate(15.000000, 197.000000)" id="icon">
                        <g transform="translate(10.000000, 0.000000)">
                            <g id="icon_twitter" transform="translate(23.000000, 25.000000)">
                                <path d="M2.23119704,1.32996148 C2.23119704,1.32996148 8.72728642,9.30841433 18.6233633,9.78827166 C18.6233633,9.78827166 16.6035026,4.4966427 22.641617,0.869430434 C22.641617,0.869430434 27.5471973,-1.97766015 32.281514,2.63236401 C32.281514,2.63236401 34.4168225,2.53007615 36.9905467,0.660140994 C36.9905467,0.660140994 37.3693302,2.38065103 34.0132321,5.14807965 C34.0132321,5.14807965 35.8804344,4.99865453 38,3.62696022 C38,3.62696022 37.5964095,5.99560761 34.1391752,7.71611765 C34.1391752,7.71611765 35.1910866,26.45695 16.68174,30.5588345 C16.68174,30.5588345 6.89347812,32.7412897 0,27.3978098 C0,27.3978098 7.31233444,28.1501204 11.1970121,24.1236556 C11.1970121,24.1236556 6.32244052,24.5752305 3.92284226,18.8928337 C3.92284226,18.8928337 6.36012805,19.3066988 7.35049903,18.5166783 C7.35049903,18.5166783 2.20877534,18.5539168 1.06622309,10.952562 C1.06622309,10.952562 3.16098173,12.0060798 4.53204444,11.8180021 C4.53204444,11.8180021 -1.28853179,8.26573811 2.23119704,1.32996148" id="Icon"></path>
                            </g>
                        </g>
                    </g>
                </g>
            </g>
        </g>
    </g>
</svg>