<?xml version="1.0" encoding="UTF-8"?>
<svg width="48px" height="41px" viewBox="0 0 48 41" version="1.1" xmlns="http://www.w3.org/2000/svg" xmlns:xlink="http://www.w3.org/1999/xlink">
    <!-- Generator: Sketch 52.2 (67145) - http://www.bohemiancoding.com/sketch -->
    <title>icon_apps</title>
    <desc>Created with Sketch.</desc>
    <g id="Startpage" stroke="none" stroke-width="1" fill="none" fill-rule="evenodd">
        <g id="cryptotab_startpage-03" transform="translate(-554.000000, -462.000000)" fill="#4285F4">
            <g id="icons" transform="translate(286.000000, 300.000000)">
                <g id="row" transform="translate(0.000000, 139.000000)">
                    <g id="item" transform="translate(242.000000, 0.000000)">
                        <path d="M30.1980198,54.7273803 L34.8712871,57.8583957 L28.1386139,63.8447395 C28.1386139,63.8447395 27.6106139,64.2648864 27.7690297,63.5296688 L30.1980198,54.7273803 Z M30.6732673,53.6968312 L42.1848713,34.6087436 L46.8052277,37.4706886 L35.5314059,56.9263062 L30.6732673,53.6968312 Z M42.5808634,33.8998817 L44.495002,30.8016337 C45.5511604,29.3313561 47.8627644,31.2191024 47.8627644,31.2191024 C49.9353188,32.6499961 48.8382891,33.8998817 48.8382891,33.8998817 L47.1221703,36.7355183 L42.5808634,33.8998817 Z M64.7062653,54.1956984 L67.2409188,52.672804 C67.2409188,52.672804 68.1386614,52.0952794 69.4322851,53.43433 C70.7260673,54.7733806 72.8646812,59.6569769 70.4092356,63.6478203 C70.4092356,63.6478203 69.8283248,64.6718002 69.5379485,63.2276735 C69.5379485,63.2276735 69.9339881,61.5998606 66.3431762,59.7357446 C66.3431762,59.7357446 62.9901465,57.3200973 64.072602,54.6419961 L64.7062653,54.1956984 Z M60.3498297,49.3383475 L64.9438891,46.7127056 L67.6960475,51.333848 L63.0164436,54.0907169 L60.3498297,49.3383475 Z M59.8745822,48.471903 L47.1221069,26.758331 C46.013196,24.8679066 47.7293149,24.1326891 47.7293149,24.1326891 L49.1284436,23.3187038 C50.9762059,22.2422647 52.0065426,24.2377651 52.0065426,24.2377651 L64.5213941,45.8988779 L59.8745822,48.471903 Z M26,43.3060663 L36.1386139,43.3060663 L33.029703,48.603193 L26,48.603193 L26,43.3060663 Z M44.1386139,43.2863744 L55.7623762,43.2863744 L58.8712871,48.6425768 L41.1727525,48.6425768 L44.1386139,43.2863744 Z M64.1584158,43.2863744 L74,43.2863744 L74,48.6425768 L67.1287129,48.6425768 L64.1584158,43.2863744 Z" id="icon_apps"></path>
                    </g>
                </g>
            </g>
        </g>
    </g>
</svg>