<?xml version="1.0" encoding="UTF-8"?>
<svg width="25px" height="46px" viewBox="0 0 25 46" version="1.1" xmlns="http://www.w3.org/2000/svg" xmlns:xlink="http://www.w3.org/1999/xlink">
    <!-- Generator: Sketch 52.2 (67145) - http://www.bohemiancoding.com/sketch -->
    <title>icon_netflix</title>
    <desc>Created with Sketch.</desc>
    <g id="Startpage" stroke="none" stroke-width="1" fill="none" fill-rule="evenodd">
        <g id="cryptotab_startpage-widgets" transform="translate(-1037.000000, -582.000000)">
            <g id="side-panel-notes" transform="translate(960.000000, 0.000000)">
                <g id="item" transform="translate(25.000000, 86.000000)">
                    <g transform="translate(15.000000, 479.000000)" id="icon_netflix">
                        <g transform="translate(37.000000, 16.000000)">
                            <path d="M16.0565644,1.21570297 L16.039182,11.3377192 L16.0213906,21.4597353 L15.1997137,19.1101444 C15.1995092,19.1093155 15.1984867,19.1064142 15.1980777,19.1055853 L14.1361145,41.6399404 C15.1802863,44.6278044 15.739591,46.2228654 15.745726,46.2292896 C15.7541104,46.2375788 16.3492025,46.2740516 17.0680164,46.3101099 C19.2467485,46.4197353 21.946135,46.6545287 23.9939877,46.9123247 C24.4682209,46.9720073 24.8761963,47.0024704 24.9007362,46.9802966 C24.9252761,46.9577084 24.938773,36.6516706 24.930593,24.0776911 L24.9154601,1.21570297 L20.4860123,1.21570297 L16.0565644,1.21570297 Z" id="Fill-4" fill="#B1060F"></path>
                            <path d="M0.0332515337,1.18555078 L0.0332515337,24.0707488 C0.0332515337,36.6575767 0.0455214724,46.9681736 0.0602453988,46.9833015 C0.0751738241,46.9984294 0.844294479,46.9248622 1.76965235,46.8197958 C2.69501022,46.7147294 3.97374233,46.5841736 4.61137014,46.5296717 C5.58928425,46.4459501 8.50932515,46.2557116 8.84736196,46.2536393 C8.94572597,46.2530176 8.95206544,45.738669 8.96638037,36.5603851 L8.98130879,26.8679598 L9.68785276,28.8936479 C9.79705521,29.2067747 9.83141104,29.3043808 9.93775051,29.6094256 L10.9993047,7.0804585 C10.7743558,6.43596848 10.8923517,6.77437755 10.6344785,6.03580443 C9.76719836,3.55047685 9.03100204,1.44231063 8.99869121,1.351336 L8.94,1.18555078 L4.48662577,1.18555078 L0.0332515337,1.18555078 Z" id="Fill-8" fill="#B1060F"></path>
                            <path d="M0.0334560327,1.18555078 L8.98130879,26.8795648 L8.98130879,26.8679598 L9.68785276,28.8936479 C13.6205726,40.1703581 15.733456,46.2167521 15.745726,46.229186 C15.7543149,46.2374752 16.3492025,46.273948 17.0680164,46.3100063 C19.2467485,46.4196317 21.946135,46.654425 23.9939877,46.912221 C24.4657669,46.9714893 24.8716973,47.0021595 24.9001227,46.9804002 L16.0213906,21.4552799 L16.0213906,21.459839 L15.1997137,19.1100408 C14.3966462,16.8141228 13.8606544,15.2785373 10.6344785,6.03580443 C9.76719836,3.55047685 9.03100204,1.44231063 8.99869121,1.351336 L8.94,1.18555078 L4.48662577,1.18555078 L0.0334560327,1.18555078 Z" id="Fill-28" fill="#E50914"></path>
                        </g>
                    </g>
                </g>
            </g>
        </g>
    </g>
</svg>