<?xml version="1.0" encoding="UTF-8"?>
<svg width="37px" height="44px" viewBox="0 0 37 44" version="1.1" xmlns="http://www.w3.org/2000/svg" xmlns:xlink="http://www.w3.org/1999/xlink">
    <!-- Generator: Sketch 52.2 (67145) - http://www.bohemiancoding.com/sketch -->
    <title>icon_evernote</title>
    <desc>Created with Sketch.</desc>
    <defs>
        <path d="M59.5582535,38.8123746 C58.9607376,38.7915837 58.3860776,38.8289423 57.8496194,38.9150293 C58.0007941,37.7033136 58.5036217,36.2151448 60.2853943,36.2771925 C62.2575231,36.3450875 62.5334253,38.1996947 62.540282,39.4552661 C61.7093105,39.0868785 60.6798201,38.8513574 59.5582535,38.8123746 M67.9913896,25.655676 C67.6616131,23.8998253 66.6122055,23.0344069 65.6630369,22.693957 C64.6400767,22.3262191 62.5641173,21.9448373 59.9572504,21.6391471 C57.8594147,21.3932305 55.3929477,21.4130468 53.9037292,21.4585268 C53.7251275,20.2403139 52.8664026,19.1273547 51.905153,18.7417497 C49.3456302,17.7171515 45.3889652,17.9650172 44.3738413,18.2476426 C43.5663786,18.4724435 42.6730435,18.9321158 42.1760932,19.6406284 C41.8430515,20.1145944 41.626901,20.7207771 41.6252684,21.5683283 C41.6252684,22.047492 41.6386554,23.1773438 41.6510628,24.1814761 C41.6628172,25.1875574 41.6768572,26.0887101 41.6768572,26.0948824 C41.6762042,26.9911621 40.9454717,27.7204656 40.0410352,27.721765 L35.8897694,27.721765 C35.004597,27.721765 34.3277389,27.8695748 33.8108714,28.1031468 C33.2933508,28.3370437 32.9266785,28.6521547 32.6484908,29.0250903 C32.0940745,29.7657637 31.9977536,30.6792609 32.0000392,31.6125743 C32.0000392,31.6125743 32.008202,32.3740386 32.1923544,33.8492131 C32.3461413,34.9904349 33.5901497,42.9630693 34.7717944,45.3878001 C35.2298899,46.3308593 35.535178,46.7249105 36.4347169,47.1400775 C38.4401498,47.9944507 43.0204516,48.9449816 45.167917,49.2168867 C47.3104847,49.4897664 48.6557117,50.0624888 49.4569706,48.390776 C49.4595827,48.3859031 49.6179407,47.9756091 49.8347443,47.3697512 C50.5308666,45.272476 50.6278405,43.4110468 50.6278405,42.0641907 C50.6278405,41.9271011 50.8296245,41.920604 50.8296245,42.0641907 C50.8296245,43.0153713 50.6471046,46.3808872 53.2020563,47.2833393 C54.211303,47.6387326 56.3035879,47.9564425 58.4301566,48.2046331 C60.3523292,48.4248859 61.7475123,49.1769293 61.7475123,54.0848652 C61.7475123,57.0706236 61.1173454,57.4796183 57.8225189,57.4796183 C55.1513293,57.4796183 54.1329402,57.5478382 54.1329402,55.4378936 C54.1329402,53.7307713 55.8298199,53.9100922 57.0865623,53.9100922 C57.6481618,53.9100922 57.2403491,53.4946005 57.2403491,52.4417397 C57.2403491,51.3937518 57.8992491,50.7882188 57.2762654,50.7732754 C52.9290927,50.6537281 50.3712025,50.7684026 50.3712025,56.1779172 C50.3712025,61.0881271 52.2594179,62 58.4301566,62 C63.2677494,62 64.9718123,61.8424445 66.9697355,55.6763384 C67.3651408,54.4591002 68.3214927,50.7450129 68.8997443,44.5067886 C69.2654371,40.5636773 68.5546218,28.6596264 67.9913896,25.655676 M35.6954951,26.522069 L35.6977807,26.522069 L39.84872,26.522069 C40.0860937,26.5217441 40.2780824,26.3294289 40.278409,26.0948824 C40.278409,26.0932581 40.2277997,22.553294 40.2277997,21.5699526 L40.2277997,21.5579329 C40.2277997,20.7500142 40.3982386,20.0453999 40.6956905,19.4544854 L40.8370699,19.1894023 C40.8217239,19.1920012 40.8060514,19.1994729 40.7897258,19.215066 L32.725221,27.1721074 C32.7095484,27.1844519 32.7000796,27.2013445 32.6951819,27.2188867 C32.8620293,27.136698 33.0902607,27.0242975 33.1222588,27.0103287 C33.8239318,26.6945679 34.6758,26.522069 35.6954951,26.522069" id="path-1"></path>
        <filter x="-1.4%" y="-1.1%" width="102.7%" height="102.3%" filterUnits="objectBoundingBox" id="filter-2">
            <feGaussianBlur stdDeviation="0.5" in="SourceAlpha" result="shadowBlurInner1"></feGaussianBlur>
            <feOffset dx="0" dy="0" in="shadowBlurInner1" result="shadowOffsetInner1"></feOffset>
            <feComposite in="shadowOffsetInner1" in2="SourceAlpha" operator="arithmetic" k2="-1" k3="1" result="shadowInnerInner1"></feComposite>
            <feColorMatrix values="0 0 0 0 0   0 0 0 0 0   0 0 0 0 0  0 0 0 0.1 0" type="matrix" in="shadowInnerInner1"></feColorMatrix>
        </filter>
    </defs>
    <g id="Startpage" stroke="none" stroke-width="1" fill="none" fill-rule="evenodd">
        <g id="cryptotab_startpage-widgets" transform="translate(-1032.000000, -1429.000000)">
            <g id="side-panel-notes" transform="translate(960.000000, 0.000000)">
                <g id="item" transform="translate(25.000000, 86.000000)">
                    <g transform="translate(15.000000, 1325.000000)" id="icon_evernote">
                        <g>
                            <use fill="#01A82D" fill-rule="evenodd" xlink:href="#path-1"></use>
                            <use fill="black" fill-opacity="1" filter="url(#filter-2)" xlink:href="#path-1"></use>
                        </g>
                    </g>
                </g>
            </g>
        </g>
    </g>
</svg>