<?xml version="1.0" encoding="UTF-8"?>
<svg width="48px" height="42px" viewBox="0 0 48 42" version="1.1" xmlns="http://www.w3.org/2000/svg" xmlns:xlink="http://www.w3.org/1999/xlink">
    <!-- Generator: Sketch 52.6 (67491) - http://www.bohemiancoding.com/sketch -->
    <title>Group 8</title>
    <desc>Created with Sketch.</desc>
    <g id="Page-1" stroke="none" stroke-width="1" fill="none" fill-rule="evenodd">
        <g id="cryptotab_startpage-widgets" transform="translate(-1027.000000, -1856.000000)" fill="#E77817">
            <g id="side-panel-notes" transform="translate(960.000000, 0.000000)">
                <g id="item" transform="translate(25.000000, 86.000000)">
                    <g transform="translate(15.000000, 1748.000000)" id="Group-8">
                        <g transform="translate(27.000000, 22.000000)">
                            <path d="M6.814,1.05133595 C8.455,0.232335947 10.323,-0.0136640534 12.14,0.0013359466 C14.96,0.0463359466 17.749,0.658335947 20.409,1.57333595 C19.889,5.38633595 19.33,9.19933595 19.049,13.0393359 C18.914,14.8403359 18.887,16.6553359 18.583,18.4393359 C18.323,20.0303359 17.873,21.6103359 17.061,23.0123359 C16.24,24.4483359 15.033,25.6593359 13.603,26.4893359 C12.166,27.2513359 10.505,27.4323359 8.902,27.4463359 C6.385,27.4323359 3.889,26.9803359 1.461,26.3403359 C1.823,25.1563359 2.138,23.9573359 2.482,22.7683359 C4.693,23.4563359 7.044,23.6273359 9.345,23.4423359 C10.169,23.4113359 11.013,23.1823359 11.651,22.6383359 C12.603,21.8843359 13.149,20.7403359 13.437,19.5833359 C13.687,18.5983359 13.775,17.5773359 13.779,16.5633359 C13.798,16.3973359 13.728,16.2493359 13.653,16.1073359 C12.722,17.2213359 11.617,18.2073359 10.333,18.8963359 C9.134,19.5463359 7.729,19.8923359 6.369,19.6623359 C5.258,19.4713359 4.213,18.9423359 3.373,18.1953359 C2.309,17.1913359 1.732,15.7743359 1.475,14.3563359 C1.103,12.1873359 1.348,9.94633595 1.972,7.84633595 C2.482,6.17033595 3.241,4.55233595 4.326,3.16933595 C4.999,2.30433595 5.833,1.55133595 6.814,1.05133595 Z M10.449,4.04933595 C9.185,4.43733595 8.177,5.43933595 7.605,6.61033595 C6.901,8.05233595 6.482,9.63933595 6.423,11.2433359 C6.404,12.2623359 6.496,13.3223359 6.977,14.2393359 C7.357,14.9643359 8.053,15.5803359 8.894,15.6513359 C10.018,15.7443359 11.15,15.2643359 11.934,14.4663359 C13.012,13.4133359 13.589,11.9743359 14.004,10.5533359 C14.574,8.54433595 14.782,6.45233595 14.852,4.37133595 C14.748,4.28533595 14.632,4.21333595 14.5,4.18033595 C13.2,3.76333595 11.767,3.62933595 10.449,4.04933595 Z" id="Fill-7"></path>
                            <path d="M36.903,0.111335947 C39.182,-0.164664053 41.49,0.102335947 43.723,0.584335947 C44.907,0.843335947 46.075,1.17233595 47.219,1.57433595 C46.618,5.92233595 45.985,10.2733359 45.753,14.6613359 C45.637,16.9273359 45.435,19.2293359 44.637,21.3723359 C43.855,23.5283359 42.33,25.4283359 40.314,26.5413359 C38.686,27.3583359 36.813,27.4833359 35.022,27.4333359 C32.741,27.3413359 30.481,26.9313359 28.279,26.3393359 C28.62,25.1493359 28.954,23.9563359 29.29,22.7653359 C31.691,23.5173359 34.258,23.6563359 36.75,23.3833359 C37.978,23.2303359 38.997,22.3523359 39.582,21.2983359 C40.423,19.7593359 40.6,17.9593359 40.587,16.2333359 C40.53,16.2283359 40.417,16.2173359 40.361,16.2113359 C39.371,17.4063359 38.146,18.4263359 36.741,19.0973359 C35.424,19.7243359 33.873,19.9443359 32.467,19.4943359 C31.282,19.1103359 30.163,18.4023359 29.46,17.3563359 C28.606,16.1223359 28.238,14.6193359 28.136,13.1393359 C27.963,10.2603359 28.672,7.34933595 30.043,4.81933595 C30.796,3.47433595 31.766,2.19933595 33.08,1.36033595 C34.228,0.636335947 35.569,0.282335947 36.903,0.111335947 Z M35.623,4.99333595 C34.705,5.79933595 34.195,6.94533595 33.812,8.07933595 C33.311,9.60633595 33.079,11.2463359 33.33,12.8433359 C33.489,13.8153359 33.93,14.8133359 34.796,15.3493359 C35.532,15.8023359 36.463,15.7153359 37.243,15.4303359 C38.07,15.1483359 38.744,14.5453359 39.275,13.8673359 C39.906,13.0493359 40.316,12.0863359 40.641,11.1123359 C41.343,8.93133595 41.586,6.63233595 41.659,4.35233595 C41.183,4.06933595 40.619,3.99533595 40.086,3.88633595 C38.54,3.62233595 36.8,3.88833595 35.623,4.99333595 Z" id="Fill-8"></path>
                            <path d="M-2.55795385e-13,30.0613359 C2.894,31.9523359 5.982,33.5453359 9.192,34.8283359 C11.883,35.8913359 14.679,36.7263359 17.552,37.1143359 C20.389,37.5123359 23.278,37.3383359 26.092,36.8453359 C30.214,36.1083359 34.211,34.7733359 38.047,33.1083359 C39.413,32.5083359 40.765,31.8723359 42.069,31.1453359 C39.957,33.7923359 37.363,36.0543359 34.45,37.7813359 C30.785,39.9683359 26.586,41.2583359 22.323,41.4773359 C19.417,41.6573359 16.479,41.2493359 13.727,40.3003359 C10.985,39.3683359 8.431,37.9283359 6.127,36.1803359 C3.831,34.4183359 1.753,32.3653359 -2.55795385e-13,30.0613359" id="Fill-12"></path>
                        </g>
                    </g>
                </g>
            </g>
        </g>
    </g>
</svg>