<?xml version="1.0" encoding="UTF-8"?>
<svg width="40px" height="40px" viewBox="0 0 40 40" version="1.1" xmlns="http://www.w3.org/2000/svg" xmlns:xlink="http://www.w3.org/1999/xlink">
    <!-- Generator: Sketch 52.2 (67145) - http://www.bohemiancoding.com/sketch -->
    <title>icon_whatsapp</title>
    <desc>Created with Sketch.</desc>
    <g id="Startpage" stroke="none" stroke-width="1" fill="none" fill-rule="evenodd">
        <g id="cryptotab_startpage-03" transform="translate(-922.000000, -325.000000)" fill="#FFFFFF">
            <g id="icons" transform="translate(286.000000, 300.000000)">
                <g id="row">
                    <g id="item" transform="translate(605.000000, 5.000000)">
                        <g id="icon_whatsapp" transform="translate(31.000000, 20.000000)">
                            <path d="M0.998254197,36.0897916 L9.67007351,33.7113266 L10.9147787,33.3699348 L12.052842,33.9740117 C14.4349875,35.2384399 17.0993908,35.9090909 19.8689089,35.9090909 C29.0101737,35.9090909 36.420633,28.5828414 36.420633,19.5454545 C36.420633,10.5080677 29.0101737,3.18181818 19.8689089,3.18181818 C10.7276441,3.18181818 3.31718475,10.5080677 3.31718475,19.5454545 C3.31718475,22.5175018 4.11683047,25.36622 5.61201429,27.8643215 L6.30844617,29.0278958 L5.94460556,30.3311891 L3.61556309,38.6739235 L1.75693402,39.1836994 L0.485088134,37.9279754 L0.998254197,36.0897916 L0.998254197,36.0897916 L0.998254197,36.0897916 Z M0.0987939439,19.5454545 C0.0987939439,8.75079807 8.9501759,0 19.8689089,0 C30.7876419,0 39.6390238,8.75079807 39.6390238,19.5454545 C39.6390238,30.340111 30.7876419,39.0909091 19.8689089,39.0909091 C16.4913262,39.0909091 13.3115688,38.2535434 10.5304484,36.7773419 L0,39.6655829 L2.84220853,29.4846646 C1.0991879,26.572486 0.0987939439,23.17447 0.0987939439,19.5454545 L0.0987939439,19.5454545 Z" id="Shape" fill-rule="nonzero"></path>
                            <path d="M14.9299725,11.7411193 L16.2453748,14.8424829 C16.2453748,14.8424829 16.7851449,16.0765738 15.6044552,17.043392 C14.4242254,18.0106647 15.2332722,18.98021 15.2332722,18.98021 C15.2332722,18.98021 16.6986756,21.6103262 20.9106296,24.1207808 C20.9106296,24.1207808 22.0343403,24.8911193 23.0200874,23.8588465 C23.0200874,23.8588465 23.6941104,23.1879374 24.2633058,22.4802102 C24.2633058,22.4802102 24.9711438,21.5082212 26.0366391,22.1747556 C26.0366391,22.1747556 27.6083624,23.0449321 29.1437656,23.8315738 C29.1437656,23.8315738 30.5494298,24.3965134 29.931039,25.8733316 C29.931039,25.8733316 28.156427,29.7758189 23.733873,28.8532292 C23.733873,28.8532292 20.5486442,28.5296076 17.7388009,26.5107363 C17.3073292,26.2007241 17.1774538,26.1231024 16.1866734,25.3286396 C16.1111334,25.2680674 15.6415013,24.838675 15.5653412,24.7709604 C15.0433732,24.3068736 14.477377,23.7365888 14.186942,23.427398 C11.9278097,21.0223744 10.9460644,18.9802102 10.9460644,18.9802102 C10.9460644,18.9802102 9.86037545,16.8154313 9.70480241,15.520388 C9.70480241,15.520388 9.17305406,12.6963442 11.5906621,11.0743011 C11.5906621,11.0743011 13.9180185,9.30702835 14.9299725,11.7411193 Z" id="Phone"></path>
                        </g>
                    </g>
                </g>
            </g>
        </g>
    </g>
</svg>