<?xml version="1.0" encoding="UTF-8"?>
<svg width="32px" height="27px" viewBox="0 0 32 27" version="1.1" xmlns="http://www.w3.org/2000/svg" xmlns:xlink="http://www.w3.org/1999/xlink">
    <!-- Generator: Sketch 55.2 (78181) - https://sketchapp.com -->
    <title>icon_telegram</title>
    <desc>Created with Sketch.</desc>
    <g id="Page-1" stroke="none" stroke-width="1" fill="none" fill-rule="evenodd">
        <g id="cryptotab_startpage-widgets" transform="translate(-1173.000000, -375.000000)" fill="#FFFFFF">
            <g id="side-panel-notes" transform="translate(960.000000, 0.000000)">
                <g id="item" transform="translate(20.000000, 91.000000)">
                    <g transform="translate(161.000000, 257.000000)" id="icon">
                        <g transform="translate(10.000000, 0.000000)">
                            <g id="up" transform="translate(22.000000, 27.000000)">
                                <path d="M27.052582,25.3029521 L31.8822043,2.51640341 C32.1177957,1.57188325 32,0.863493135 31.5288173,0.391233058 C31.0576347,-0.0810270193 30.586452,-0.0810270193 29.879678,0.155103019 L1.49092257,11.1351498 C0.901944244,11.3712799 0.430761581,11.6074099 0.195170249,11.9616049 C-0.0404210821,12.3158 -0.0404210821,12.55193 0.0773745836,12.7880601 C0.195170249,13.0241901 0.548557247,13.2603202 1.13753558,13.3783852 L8.44086685,15.6216205 L25.2856471,4.99576881 C25.7568297,4.64157375 26.1102167,4.64157375 26.345808,4.75963877 C26.4636037,4.87770379 26.4636037,4.99576881 26.2280124,5.23189885 L12.5637152,17.7467909 L11.9747368,25.3029521 C12.4459195,25.3029521 12.9171021,25.0668221 13.5060805,24.594562 L17.0399505,21.1706765 L24.3432817,26.6016673 C25.8746254,27.4281225 26.699195,26.9558624 27.052582,25.3029521 Z" id="icon_telegram"></path>
                            </g>
                        </g>
                    </g>
                </g>
            </g>
        </g>
    </g>
</svg>