<?xml version="1.0" encoding="UTF-8"?>
<svg width="80px" height="80px" viewBox="0 0 80 80" version="1.1" xmlns="http://www.w3.org/2000/svg" xmlns:xlink="http://www.w3.org/1999/xlink">
    <!-- Generator: Sketch 55.2 (78181) - https://sketchapp.com -->
    <title>icon_dribbble</title>
    <desc>Created with Sketch.</desc>
    <g id="Page-1" stroke="none" stroke-width="1" fill="none" fill-rule="evenodd">
        <g id="cryptotab_startpage-widgets" transform="translate(-1151.000000, -3028.000000)" fill="#C32361">
            <g id="side-panel-notes" transform="translate(960.000000, 0.000000)">
                <g id="item" transform="translate(20.000000, 91.000000)">
                    <g transform="translate(161.000000, 2936.000000)" id="Group">
                        <g transform="translate(10.000000, 1.000000)">
                            <path d="M19.2899258,65.976089 C24.9066799,70.2991953 31.9420746,72.869863 39.5778809,72.869863 C44.1737518,72.869863 48.552115,71.9386012 52.5345625,70.2544853 C51.8995478,66.8650358 49.5612847,55.3395587 45.3967599,45.2004153 C35.0523148,49.0123439 26.7634469,54.0952828 19.2899258,65.976089 Z M14.6870684,61.6873225 C14.6882663,61.6745858 14.6894549,61.6682542 14.6894549,61.6682542 C14.6894549,61.6682542 24.6847857,44.6857953 43.026733,39.2308236 C41.8932419,36.7606478 40.4506168,33.775852 40.4506168,33.775852 C40.4506168,33.775852 27.6545533,38.6448351 6.29685989,38.7154286 C6.28956471,39.0020271 6.28589872,39.2895258 6.28589872,39.5778809 C6.28589872,48.0635051 9.46060625,55.8076366 14.6870684,61.6873225 Z M7.07814214,32.325377 C10.8338916,32.2988433 25.1396234,31.9565055 37.462322,28.4145573 C35.1216262,23.5588043 27.4324951,12.1839925 25.5270785,9.38747365 C16.2803345,13.6982983 9.34276113,22.132194 7.07814214,32.325377 Z M32.3482957,7.07305882 C34.564481,10.2385516 42.7516407,22.064731 44.2632688,26.1502294 C49.8909136,24.3751593 58.1672796,19.6691646 61.6601486,14.6629398 C55.7837859,9.45083692 48.0504389,6.28589872 39.5778809,6.28589872 C37.0951709,6.28589872 34.6759343,6.55766033 32.3482957,7.07305882 Z M65.5873242,18.7945484 C64.1860594,20.5851227 59.0705221,26.2918103 47.3546082,31.5022771 C48.6941886,34.5899969 49.9307244,37.8835647 49.9307244,37.8835647 C49.9307244,37.8835647 65.0900763,36.700627 72.8685123,39.2748249 C72.7994538,31.5302672 70.0860263,24.4171435 65.5873242,18.7945484 Z M72.4211053,45.0572453 C70.2400144,44.4418413 61.1134303,42.1165113 52.3007513,43.5536314 C55.0246511,51.1206072 57.6782345,63.0420976 58.5189169,66.9602396 C65.7646344,61.938725 70.921163,54.1152611 72.4211053,45.0572453 Z M39.5778809,79.1557617 C17.7196208,79.1557617 0,61.4361409 0,39.5778809 C0,17.7196208 17.7196208,0 39.5778809,0 C61.4361409,0 79.1557617,17.7196208 79.1557617,39.5778809 C79.1557617,61.4361409 61.4361409,79.1557617 39.5778809,79.1557617 Z" id="icon_dribbble"></path>
                        </g>
                    </g>
                </g>
            </g>
        </g>
    </g>
</svg>