<?xml version="1.0" encoding="UTF-8" standalone="no"?>
<svg width="48px" height="30px" viewBox="0 0 48 30" version="1.1" xmlns="http://www.w3.org/2000/svg" xmlns:xlink="http://www.w3.org/1999/xlink">
    <!-- Generator: Sketch 47.1 (45422) - http://www.bohemiancoding.com/sketch -->
    <title>icon_wiki-white</title>
    <desc>Created with Sketch.</desc>
    <defs></defs>
    <g id="Page-1" stroke="none" stroke-width="1" fill="none" fill-rule="evenodd">
        <g id="everyday-tab_widgets-list" transform="translate(-207.000000, -796.000000)" fill-rule="nonzero" fill="#231F20">
            <g id="item" transform="translate(25.000000, 87.000000)">
                <g transform="translate(156.000000, 674.000000)" id="icon_wiki-white">
                    <path d="M73.9982858,35.5106795 C73.9982858,35.6763966 73.9468591,35.8285859 73.8371487,35.9672472 C73.7308668,36.1025265 73.6142996,36.1735482 73.4857327,36.1735482 C72.4366275,36.2716257 71.5743728,36.608133 70.9058253,37.1796881 C70.2372779,37.7512433 69.5464455,38.8419329 68.8316141,40.4517568 L57.9360051,64.6616833 C57.8640077,64.8865851 57.6617292,64.9998816 57.3360266,64.9998816 C57.0891173,65.0044872 56.8597431,64.8744496 56.7394766,64.6616833 L50.6231247,52.0840879 L43.6016624,64.6566103 C43.4808158,64.8704655 43.2498126,65.0006783 43.0016839,64.9948086 C42.6896951,64.9948086 42.482274,64.8815122 42.3845632,64.6566103 L31.6826616,40.4517568 C31.0141142,38.9400104 30.3078538,37.8848316 29.5673089,37.2845296 C28.8301925,36.6842276 27.801658,36.3139005 26.4748485,36.1718572 C26.3617097,36.1718572 26.2519994,36.1092905 26.1542886,35.9926121 C26.054129,35.8805856 25.999219,35.7361434 26.0000084,35.5867741 C26.0000084,35.20461 26.1131472,35.0118369 26.3428532,35.0118369 C27.2959619,35.0118369 28.2970688,35.0541117 29.3358887,35.1386613 C30.3044253,35.2232109 31.2163926,35.2604127 32.0717905,35.2604127 C32.9409021,35.2604127 33.9660082,35.2181379 35.1505371,35.1335883 C36.2458421,35.0538807 37.3435827,35.0110174 38.4418476,35.005073 C38.6681252,35.005073 38.781264,35.199537 38.781264,35.5867741 C38.781264,35.9723202 38.712695,36.1650932 38.5687002,36.1650932 C37.6138773,36.2327329 36.8630471,36.4745447 36.3144954,36.8837646 C35.7659436,37.2946756 35.4916677,37.8307199 35.4916677,38.4952796 C35.4916677,38.8334779 35.6065208,39.2562258 35.8345126,39.7635233 L44.5633422,59.5143049 L49.6888725,50.1123917 L45.005612,40.4433019 C44.1656422,38.7049625 43.4730956,37.5855261 42.9314007,37.0849926 C42.3914201,36.5827681 41.572021,36.2766986 40.4766317,36.1634022 C40.3737782,36.1634022 40.2777817,36.1042175 40.1852136,35.9875391 C40.0934794,35.8718789 40.0450379,35.7285238 40.0480757,35.5817011 C40.0480757,35.199537 40.1457864,35.006764 40.3463507,35.006764 C41.2994593,35.006764 42.1754279,35.0473478 42.9742563,35.1318973 C43.7422288,35.2164469 44.5616279,35.2570307 45.4307396,35.2570307 C46.2844233,35.2570307 47.1878194,35.2130649 48.1426423,35.1285154 C49.1082677,35.0442674 50.0771441,35.0013886 51.0465381,35 C51.2745299,35 51.3893829,35.194464 51.3893829,35.5800101 C51.3893829,35.9689382 51.3173855,36.1583292 51.1751049,36.1583292 C49.2671734,36.2851536 48.3123505,36.8211979 48.3123505,37.7681532 C48.3123505,38.1909011 48.5351996,38.8503878 48.974041,39.7398494 L52.0699299,45.9373335 L55.1555335,40.2809667 C55.5806611,39.4743637 55.7949391,38.7962761 55.7949391,38.2450128 C55.7949391,36.9463313 54.8401162,36.2547158 52.9321847,36.1701662 C52.7607623,36.1701662 52.675051,35.9723202 52.675051,35.5850831 C52.675051,35.4498038 52.7179067,35.3145244 52.8036179,35.192773 C52.8893291,35.0676397 52.9750403,35.006764 53.0607515,35.006764 C53.7464412,35.006764 54.586411,35.0473478 55.5806611,35.1318973 C56.5354839,35.2164469 57.3188844,35.2587217 57.9291482,35.2587217 C58.371418,35.2587217 59.0193948,35.2249019 59.8747927,35.1572622 C60.9547539,35.0591847 61.8632927,35.0101459 62.5866953,35.0101459 C62.7581177,35.0101459 62.843829,35.1741721 62.843829,35.5056065 C62.843829,35.9452643 62.6861203,36.1684752 62.3741315,36.1684752 C61.2684569,36.2783896 60.3684892,36.5810771 59.6999418,37.0748467 C59.021109,37.5703072 58.1777107,38.6931256 57.1663184,40.4399199 L53.0693226,47.9310126 L58.6165521,59.091557 L66.827686,40.2742027 C67.1122472,39.5808962 67.256242,38.9450834 67.256242,38.3667642 C67.256242,36.9801511 66.2997049,36.2479518 64.3934876,36.1634022 C64.2220652,36.1634022 64.136354,35.9689382 64.136354,35.5817011 C64.136354,35.197846 64.2632066,35.006764 64.5203402,35.006764 C65.2163152,35.006764 66.0408571,35.0490388 66.99568,35.1335883 C67.8785054,35.2147559 68.6190503,35.2570307 69.2173145,35.2570307 C69.8430063,35.2570307 70.5715516,35.2130649 71.3943792,35.1302064 C72.2480629,35.0456568 73.0160353,35.001691 73.7000108,35.001691 C73.900575,35.001691 74,35.1657172 74,35.4971515 L73.9982858,35.5106795 Z"></path>
                </g>
            </g>
        </g>
    </g>
</svg>