<?xml version="1.0" encoding="UTF-8"?>
<svg width="64px" height="16px" viewBox="0 0 64 16" version="1.1" xmlns="http://www.w3.org/2000/svg" xmlns:xlink="http://www.w3.org/1999/xlink">
    <!-- Generator: Sketch 55.2 (78181) - https://sketchapp.com -->
    <title>icon_500px</title>
    <desc>Created with Sketch.</desc>
    <g id="Page-1" stroke="none" stroke-width="1" fill="none" fill-rule="evenodd">
        <g id="cryptotab_startpage-widgets" transform="translate(-1018.000000, -2918.000000)" fill="#100F0D" fill-rule="nonzero">
            <g id="side-panel-notes" transform="translate(960.000000, 0.000000)">
                <g id="item" transform="translate(20.000000, 91.000000)">
                    <g transform="translate(20.000000, 2795.000000)" id="icon_500px">
                        <path d="M78.9222413,43.6205838 L81.8139794,46.4907933 C81.9188869,46.5950473 82.1647799,46.8394917 81.6671088,47.3480631 C81.4537115,47.5662218 81.2591208,47.6775869 81.0889659,47.6788568 L81.0858954,47.6788568 C80.9394087,47.6788568 80.840642,47.6008885 80.7633687,47.5243171 L77.86485,44.6473267 L74.971065,47.5372695 C74.7371979,47.7696504 74.4632869,47.7151742 74.1101834,47.365206 C73.751067,47.0068568 73.6923444,46.7316822 73.9253159,46.4991742 L76.8194847,43.6094727 L73.9849341,40.7958855 L73.9647202,40.7762411 C73.8957627,40.7098664 73.7916227,40.6097268 73.7902154,40.4464252 C73.7889361,40.2780315 73.9019036,40.0797077 74.1261755,39.8570411 C74.3155208,39.6689522 74.4948871,39.5736633 74.6596687,39.5736633 L74.6597966,39.5736633 C74.8454318,39.5738157 74.9640285,39.6918601 75.031067,39.7583363 L77.8763643,42.5825902 L80.7858854,39.694349 C80.8226031,39.6580316 80.9250798,39.5742601 81.0896056,39.5742601 L81.0954906,39.5742601 C81.2794626,39.5764443 81.4731578,39.6823871 81.6713307,39.8889395 C81.9978234,40.2292696 82.0523242,40.5127998 81.8331698,40.7315934 L78.9222413,43.6205838 Z M68.4754969,47.7437456 C66.3325684,47.5819679 64.6539198,45.7112378 64.6539198,43.4847743 L64.6539198,36.4447364 C64.6539198,36.0369015 64.9663396,35.9534221 65.4352251,35.9534221 C65.9041107,35.9534221 66.2165305,36.0369015 66.2165305,36.4447364 L66.2165305,43.501333 C66.2165305,44.8885076 67.2332381,46.0796187 68.5310212,46.212952 C69.2761206,46.2883806 69.9923065,46.0568885 70.54934,45.5582219 C71.0961385,45.069079 71.4098377,44.3657267 71.4100936,43.6284188 C71.4100936,43.4174092 71.3059536,42.7302093 70.8307992,42.0923172 C70.4714269,41.6103109 69.7906793,41.0361649 68.5836029,41.0361649 C68.5770781,41.0360125 68.5682506,41.0361649 68.5607023,41.0361649 C68.2509692,41.0361649 67.9865254,41.021676 67.9356069,40.2933585 C67.901448,39.803276 67.9042626,39.5841268 68.3308013,39.5251935 C69.0916368,39.4204316 69.8674409,39.5680506 70.6362085,39.9646347 C71.9489601,40.6425141 72.8283924,41.9269839 72.9317647,43.3170664 C73.0215758,44.524406 72.5828831,45.7022219 71.7280146,46.548698 C70.8699476,47.3980949 69.6850041,47.8331425 68.4754969,47.7437456 Z M24.1086894,43.0778791 C22.573214,43.2966727 21.0759147,42.8912251 19.8563773,41.9594791 L19.8563773,46.1523806 L27.0147947,46.1523806 C27.263464,46.1523806 27.4418324,46.196825 27.4418324,46.9258409 C27.4418324,47.637206 27.153068,47.6653964 26.9625201,47.6653964 L19.0358314,47.6653964 C18.5755624,47.6653964 18.3320336,47.2958726 18.3320336,46.8862219 L18.3320336,40.0048125 C18.3320336,39.6439998 18.5624681,39.5217268 18.9913545,39.4374474 C19.3668173,39.3636951 19.5848587,39.4067935 19.7490262,39.587403 L19.7663103,39.6138411 C20.5214911,40.6942474 22.1646631,41.7408252 23.7264806,41.5510855 C25.5907004,41.3246982 27.0917482,39.8486093 27.2970472,38.0414221 C27.4280409,36.8882919 27.0735174,35.7798094 26.2994532,34.9201396 C25.5352785,34.0713777 24.4413231,33.5845206 23.2985473,33.5845206 C21.6055955,33.5845206 20.1259385,34.6646349 19.5097986,36.2322412 C19.418593,36.46433 19.2645171,36.636165 18.5976006,36.395492 C17.9848075,36.1743491 17.9492754,35.9183999 18.033783,35.6866031 C18.8359314,33.4942476 20.9516249,32.0210814 23.2983043,32.0210814 C24.8876535,32.0210814 26.4086978,32.6974209 27.4714112,33.876838 C28.548172,35.0714793 29.037233,36.6115554 28.8571247,38.2133967 C28.5748594,40.7208379 26.6193956,42.7211807 24.1086894,43.0778791 Z M55.058078,33.6870095 C51.6003509,33.6870095 48.7871656,36.4791618 48.7871656,39.9111109 C48.7871656,43.3431997 51.6003509,46.1353647 55.058078,46.1353647 C58.5155492,46.1353647 61.3284786,43.3431997 61.3284786,39.9111109 C61.3284786,36.4791618 58.5155492,33.6870095 55.058078,33.6870095 Z M55.058078,47.8223488 C50.6628357,47.8223488 47.0871516,44.2733584 47.0871516,39.9111109 C47.0871516,35.5488634 50.6628357,32 55.058078,32 C59.4530644,32 63.0284926,35.5488634 63.0284926,39.9111109 C63.0284926,44.2733584 59.4530644,47.8223488 55.058078,47.8223488 Z M37.8083353,33.6870095 C34.3506082,33.6870095 31.5375508,36.4791618 31.5375508,39.9111109 C31.5375508,43.3431997 34.3506082,46.1353647 37.8083353,46.1353647 C41.2659344,46.1353647 44.0788639,43.3431997 44.0788639,39.9111109 C44.0788639,36.4791618 41.2659344,33.6870095 37.8083353,33.6870095 Z M37.8083353,47.8223488 C33.4132209,47.8223488 29.8374345,44.2733584 29.8374345,39.9111109 C29.8374345,35.5488634 33.4132209,32 37.8083353,32 C42.2033217,32 45.7788778,35.5488634 45.7788778,39.9111109 C45.7788778,44.2733584 42.2033217,47.8223488 37.8083353,47.8223488 L37.8083353,47.8223488 Z" transform="translate(49.983990, 39.911174) scale(1, -1) translate(-49.983990, -39.911174) "></path>
                    </g>
                </g>
            </g>
        </g>
    </g>
</svg>