<?xml version="1.0" encoding="UTF-8"?>
<svg width="46px" height="46px" viewBox="0 0 46 46" version="1.1" xmlns="http://www.w3.org/2000/svg" xmlns:xlink="http://www.w3.org/1999/xlink">
    <!-- Generator: Sketch 52.3 (67297) - http://www.bohemiancoding.com/sketch -->
    <title>icon_notes</title>
    <desc>Created with Sketch.</desc>
    <defs>
        <path d="M0,3.62874616 C0,1.62464499 1.62365279,0 3.62874616,0 L42.3712538,0 C44.375355,0 46,1.62365279 46,3.62874616 L46,42.3712538 C46,44.375355 44.3763472,46 42.3712538,46 L3.62874616,46 C1.62464499,46 0,44.3763472 0,42.3712538 L0,3.62874616 L0,3.62874616 L0,3.62874616 Z M46,32.9868421 L46,42.3712538 C46,44.375355 44.3763472,46 42.3712538,46 L32.9868421,46 L46,32.9868421 L46,32.9868421 L46,32.9868421 Z" id="path-1"></path>
        <rect id="path-3" x="32.6842105" y="32.6842105" width="17.5526316" height="18.1578947" rx="3.6"></rect>
        <filter x="-2.8%" y="-2.8%" width="105.7%" height="105.5%" filterUnits="objectBoundingBox" id="filter-4">
            <feOffset dx="0" dy="1" in="SourceAlpha" result="shadowOffsetInner1"></feOffset>
            <feComposite in="shadowOffsetInner1" in2="SourceAlpha" operator="arithmetic" k2="-1" k3="1" result="shadowInnerInner1"></feComposite>
            <feColorMatrix values="0 0 0 0 0.980392157   0 0 0 0 0.870588235   0 0 0 0 0.552941176  0 0 0 1 0" type="matrix" in="shadowInnerInner1"></feColorMatrix>
        </filter>
    </defs>
    <g id="Startpage" stroke="none" stroke-width="1" fill="none" fill-rule="evenodd">
        <g id="cryptotab_startpage-03" transform="translate(-676.000000, -461.000000)">
            <g id="icons" transform="translate(286.000000, 300.000000)">
                <g id="row" transform="translate(0.000000, 139.000000)">
                    <g id="item" transform="translate(363.000000, 5.000000)">
                        <g id="icon-b" transform="translate(10.000000, 0.000000)">
                            <g id="icon_notes" transform="translate(17.000000, 17.000000)">
                                <g id="Rectangle-227">
                                    <mask id="mask-2" fill="white">
                                        <use xlink:href="#path-1"></use>
                                    </mask>
                                    <path stroke="#FADA80" stroke-width="1.5" d="M0.75,3.62874616 L0.75,42.3712538 C0.75,43.9617593 2.0384841,45.25 3.62874616,45.25 L42.3712538,45.25 C43.9617593,45.25 45.25,43.9615159 45.25,42.3712538 L45.25,3.62874616 C45.25,2.03824075 43.9615159,0.75 42.3712538,0.75 L3.62874616,0.75 C2.03824075,0.75 0.75,2.0384841 0.75,3.62874616 Z M46.75,31.1761819 L46.75,42.3712538 C46.75,44.7898796 44.7902498,46.75 42.3712538,46.75 L31.1761819,46.75 L46.75,31.1761819 Z"></path>
                                    <g id="Shape" mask="url(#mask-2)">
                                        <use fill="#FADA80" fill-rule="evenodd" xlink:href="#path-3"></use>
                                        <use fill="black" fill-opacity="1" filter="url(#filter-4)" xlink:href="#path-3"></use>
                                    </g>
                                </g>
                                <polygon id="Rectangle" fill="#F4B709" points="46 33 46 46 33 46"></polygon>
                                <path d="M23,7.26315789 C16.983003,7.26315789 12.1052632,12.1408977 12.1052632,18.1578947 C12.1052632,21.9522864 13.9741379,25.1990417 17.5178313,27.2489592 L17.5178313,35.1052632 L17.5178313,36.3157895 L18.7283576,36.3157895 L27.8421053,36.3157895 L29.0526316,36.3157895 L29.0526316,35.1052632 L29.0526316,27.2489592 C32.3954781,25.3152255 33.8947368,22.0918805 33.8947368,18.1578947 C33.8947368,12.1408977 29.016997,7.26315789 23,7.26315789 L23,7.26315789 Z M31.4736842,18.1578947 C31.4736842,13.4780082 27.6798866,9.68421053 23,9.68421053 C18.3201134,9.68421053 14.5263158,13.4780082 14.5263158,18.1578947 C14.5263158,21.7715523 16.7883413,24.8568855 19.9736842,26.0751862 L19.9736842,29.0526316 L26.6315789,29.0526316 L26.6315789,26.0263158 C29.4944099,24.6663331 31.4736842,21.5381635 31.4736842,18.1578947 L31.4736842,18.1578947 Z M19.9736842,36.3157895 L26.6315789,36.3157895 L26.6315789,38.7368421 L19.9736842,38.7368421 L19.9736842,36.3157895 L19.9736842,36.3157895 Z M19.9736842,31.4736842 L26.6315789,31.4736842 L26.6315789,33.8947368 L19.9736842,33.8947368 L19.9736842,31.4736842 L19.9736842,31.4736842 Z" id="Light-Bulb" fill="#FFFFFF"></path>
                            </g>
                        </g>
                    </g>
                </g>
            </g>
        </g>
    </g>
</svg>