<?xml version="1.0" encoding="UTF-8"?>
<svg width="44px" height="43px" viewBox="0 0 44 43" version="1.1" xmlns="http://www.w3.org/2000/svg" xmlns:xlink="http://www.w3.org/1999/xlink">
    <!-- Generator: Sketch 52.6 (67491) - http://www.bohemiancoding.com/sketch -->
    <title>favicon_amazon</title>
    <desc>Created with Sketch.</desc>
    <g id="Page-1" stroke="none" stroke-width="1" fill="none" fill-rule="evenodd">
        <g id="cryptotab_startpage-widgets" transform="translate(-1029.000000, -1994.000000)">
            <g id="side-panel-notes" transform="translate(960.000000, 0.000000)">
                <g id="item" transform="translate(25.000000, 86.000000)">
                    <g transform="translate(15.000000, 1889.000000)" id="favicon_amazon">
                        <g transform="translate(29.000000, 19.000000)">
                            <path d="M38.1670943,33.4778154 C32.485283,37.0269692 26.3750943,39.0876615 19.7236226,39.4018923 C13.1418868,39.7161231 6.89554717,38.4724308 0.91154717,35.6608923 C0.645886792,35.5318923 0.337056604,35.2474308 0.0846792453,35.6443538 C-0.167698113,36.0478923 0.20090566,36.1768923 0.476528302,36.3753538 C1.38309434,37.0402 2.28966038,37.7050462 3.23275472,38.3103538 C8.14083019,41.4857385 13.5138113,42.9642769 18.066566,42.9973538 C21.7426415,42.9675846 24.1369057,42.5475077 26.5344906,41.8826615 C31.3130566,40.5628923 35.5038491,38.2111231 39.0670189,34.6553538 C39.4090566,34.3113538 39.8241509,33.9276615 39.4123774,33.3918154 C38.9939623,32.8460462 38.5788679,33.2231231 38.1670943,33.4778154" id="Path" fill="#FF9A00"></path>
                            <path d="M43.1150189,30.2065077 C43.1050566,30.0775077 43.0419623,29.9551231 43.0153962,29.8294308 C42.9157736,29.3994308 42.666717,29.1381231 42.2449811,29.0620462 C39.7378113,28.6353538 37.4630943,29.4986615 35.490566,31.1723538 C35.3245283,31.3145846 35.098717,31.4667385 35.1983396,31.7346615 C35.3245283,32.0885846 35.613434,31.9496615 35.8458868,31.8934308 C37.1044528,31.5692769 38.3763019,31.3145846 39.6680755,31.1888923 C40.8037736,31.0797385 41.2553962,31.4634308 41.2886038,32.6277385 C41.3350943,34.2915077 40.9033962,35.8858154 40.6476981,37.5032769 C40.6045283,37.7579692 40.2824151,38.1019692 40.7141132,38.2574308 C41.0295849,38.3665846 41.1889811,38.0325077 41.3550189,37.7910462 C42.6567547,35.9288154 43.0253585,33.5108923 43.181434,31.5097385 C43.1515472,30.9275846 43.1449057,30.5670462 43.1150189,30.2065077" id="Path" fill="#FF9A00"></path>
                            <path d="M23.3664906,19.2018154 C23.3432453,19.7707385 23.3598491,20.3396615 23.3598491,21.1136615 C23.4196226,23.0949692 23.1041509,25.1920462 21.7426415,27.0046615 C20.7464151,28.3343538 19.4048302,29.1116615 17.7046038,28.9661231 C15.5328302,28.7808923 14.2742642,26.8922 14.3871698,24.4345846 C14.5532075,20.9383538 16.8578113,19.5623538 19.6605283,19.0265077 C20.693283,18.8280462 21.7658868,18.8280462 22.8119245,18.6990462 C23.2535849,18.6461231 23.3830943,18.7916615 23.3664906,19.2018154 M22.2407547,13.6812769 C20.477434,13.8565846 18.7141132,14.0285846 16.9607547,14.3031231 C14.2941887,14.7232 11.677434,15.3880462 9.50566038,17.1808154 C6.1085283,19.9857385 5.16875472,23.7532 5.79637736,28.0432769 C6.34098113,31.7412769 8.33675472,34.2286615 11.8567547,35.1779692 C13.9355472,35.7369692 16.0608302,35.6145846 18.1595472,35.1382769 C20.4043774,34.6288923 22.1809811,33.2793538 23.7550189,31.6188923 C24.2298868,31.1227385 24.4723019,31.0632 24.8209811,31.7181231 C25.4618868,32.9122 26.3750943,33.8780462 27.3447547,34.7810462 C28.1018868,35.4822769 28.6531321,35.4955077 29.4235472,34.8075077 C30.6256604,33.7391231 31.8078491,32.6376615 33.0099623,31.5692769 C34.3913962,30.3421231 34.4478491,30.0543538 33.3453585,28.5956615 C32.106717,26.9550462 31.389434,25.1391231 31.4525283,23.0288154 C31.5156226,20.9846615 31.4658113,18.9372 31.4658113,16.8930462 L31.4492075,16.8930462 C31.4492075,14.5842769 31.5023396,12.2755077 31.4691321,9.96673846 C31.4093585,5.38558462 29.3206038,2.26973846 25.1530566,0.893738462 C21.1980377,-0.416107692 17.2264151,-0.273876923 13.3444528,1.23773846 C9.81116981,2.61043077 7.55969811,5.23673846 6.69298113,9.0902 C6.41735849,10.3107385 6.77932075,10.8102 7.96815094,10.9292769 C9.47909434,11.0814308 10.986717,11.2567385 12.4943396,11.4552 C13.7462642,11.6172769 14.0816604,11.4122 14.4004528,10.1585846 C14.8321509,8.45181538 15.8748679,7.38343077 17.498717,6.90050769 C20.7995472,5.92143077 23.1141132,7.69435385 23.1606038,11.2435077 C23.1672453,11.7032769 23.1074717,12.1729692 23.1738868,12.6261231 C23.3000755,13.4365077 22.9082264,13.6151231 22.2407547,13.6812769" id="Fill-1" fill="#000000"></path>
                        </g>
                    </g>
                </g>
            </g>
        </g>
    </g>
</svg>