<?xml version="1.0" encoding="UTF-8"?>
<svg width="48px" height="48px" viewBox="0 0 48 48" version="1.1" xmlns="http://www.w3.org/2000/svg" xmlns:xlink="http://www.w3.org/1999/xlink">
    <!-- Generator: Sketch 52.2 (67145) - http://www.bohemiancoding.com/sketch -->
    <title>icon_pinterest</title>
    <desc>Created with Sketch.</desc>
    <g id="Startpage" stroke="none" stroke-width="1" fill="none" fill-rule="evenodd">
        <g id="cryptotab_startpage-widgets" transform="translate(-1026.000000, -440.000000)">
            <g id="side-panel-notes" transform="translate(960.000000, 0.000000)">
                <g id="item" transform="translate(25.000000, 86.000000)">
                    <g transform="translate(15.000000, 338.000000)" id="icon_pinterest">
                        <g transform="translate(26.000000, 16.000000)">
                            <circle id="Oval" fill="#BD081C" cx="24" cy="24" r="24"></circle>
                            <path d="M15.6361519,37.9394753 L18.0073507,28.0047235 C18.0073507,28.0047235 18.2473507,26.8047235 17.6343919,25.7335553 C17.6343919,25.7335553 16.2692719,22.3212353 18.9668719,19.4282753 C18.9668719,19.4282753 21.1767919,16.9255553 24.0044719,18.8109953 C24.0044719,18.8109953 25.6172707,20.0799235 24.9673507,22.4847235 L23.0473507,28.4847235 C23.0473507,28.4847235 21.8747121,33.0447235 26.2143919,33.4365953 C26.2143919,33.4365953 30.7974319,34.0538753 33.0073519,27.8460353 C35.2172719,21.6386753 32.6473507,17.6847235 32.6473507,17.6847235 C32.6473507,17.6847235 29.342073,11.8819072 21.8747119,13.1033153 C14.4073507,14.3247235 13.4631919,21.4485953 13.4631919,21.4485953 C13.4631919,21.4485953 12.9025519,25.8357953 15.2444719,29.0349953 L14.1231919,32.8615553 C14.1231919,32.8615553 8.40735084,29.2047235 8.64735185,22.6361153 C8.64735185,22.6361153 8.88735084,11.6847233 20.0886318,9.04472332 C20.0886318,9.04472332 30.2345236,6.4897057 36.24,14.6399999 C39.5999982,19.2 39.3599992,24.1647225 38.64,27.8460352 C37.9200008,31.5273478 35.2004719,33.8839553 35.2004719,33.8839553 C35.2004719,33.8839553 27.8473507,41.6847217 21.4508719,34.8002753 L20.0886319,40.0481153 C20.0886319,40.0481153 18.4902307,45.7340017 16.3273507,47.2047217 L15.3327919,46.9500353 C15.3327919,46.9500353 14.8379119,40.6164353 15.6361519,37.9394753 Z" id="Icon" fill="#FFFFFF"></path>
                        </g>
                    </g>
                </g>
            </g>
        </g>
    </g>
</svg>