<?xml version="1.0" encoding="UTF-8"?>
<svg width="40px" height="40px" viewBox="0 0 40 40" version="1.1" xmlns="http://www.w3.org/2000/svg" xmlns:xlink="http://www.w3.org/1999/xlink">
    <!-- Generator: Sketch 52.6 (67491) - http://www.bohemiancoding.com/sketch -->
    <title>favicon_booking</title>
    <desc>Created with Sketch.</desc>
    <g id="Page-1" stroke="none" stroke-width="1" fill="none" fill-rule="evenodd">
        <g id="cryptotab_startpage-widgets" transform="translate(-1030.000000, -1713.000000)">
            <g id="side-panel-notes" transform="translate(960.000000, 0.000000)">
                <g id="item" transform="translate(25.000000, 86.000000)">
                    <g transform="translate(15.000000, 1607.000000)" id="favicon_booking">
                        <g transform="translate(30.000000, 20.000000)">
                            <path d="M5,0 L35,0 C37.7614237,-5.07265313e-16 40,2.23857625 40,5 L40,35 C40,37.7614237 37.7614237,40 35,40 L0,40 L0,5 C-3.38176876e-16,2.23857625 2.23857625,5.07265313e-16 5,0 Z" id="Rectangle-2" fill="#003580"></path>
                            <g id="Group" transform="translate(10.000000, 7.500000)" fill-rule="nonzero">
                                <path d="M18.5294118,21.3319583 C18.5294118,22.9908125 19.8277757,24.3334167 21.4268199,24.3334167 C23.0307169,24.3334167 24.3345404,22.9908125 24.3345404,21.3319583 C24.3345404,19.6773542 23.0307169,18.3333333 21.4268199,18.3333333 C19.8277757,18.3333333 18.5294118,19.6773542 18.5294118,21.3319583" id="path3374" fill="#499FDD" transform="translate(21.431976, 21.333375) scale(1, -1) translate(-21.431976, -21.333375) "></path>
                                <path d="M8.70496324,4.20758333 L4.64466912,4.21175 L4.64466912,9.21322917 C4.64466912,10.2821875 5.04685662,10.838 5.93595588,10.9659167 L8.70496324,10.9659167 C10.6813235,10.9659167 11.9582537,9.68160417 11.9596691,7.604125 C11.9582537,5.47189583 10.7130699,4.20889583 8.70496324,4.20747917 L8.70496324,4.20758333 Z M4.64466912,17.6996042 L4.64466912,19.0158958 C4.64466912,20.168 5.11783088,20.7159792 6.15615809,20.7863542 L8.23382353,20.7863542 C10.0156618,20.7863542 11.0829044,19.6875417 11.0829044,17.8495625 C11.0829044,16.4479792 10.3523346,14.8125625 8.29933824,14.8125625 L4.64466912,14.8125625 L4.64466912,17.6996042 Z M13.8905331,12.7080625 L13.1565257,13.1330833 L13.7973162,13.6974167 C14.5424449,14.3576875 15.7916728,15.8417083 15.7916728,18.4060625 C15.7916728,22.329375 12.8378493,24.86175 8.26617647,24.86175 L3.0490625,24.86175 L3.0490625,24.8631667 L2.45498162,24.8631667 C1.09959559,24.8119792 0.0151654412,23.6762292 0,22.2710833 L0,0.00141666667 L2.39431985,0.00141666667 C2.40038603,0 2.40240809,0.00141666667 2.40443015,0 L8.36930147,0.00141666667 C13.4513419,0.00141666667 16.7315257,2.8515 16.7315257,7.26591667 C16.7315257,9.642625 15.6713603,11.6746458 13.8895221,12.7080625 L13.8905331,12.7080625 Z" id="path3424" fill="#FFFFFF" transform="translate(8.365763, 12.431583) scale(1, -1) translate(-8.365763, -12.431583) "></path>
                            </g>
                        </g>
                    </g>
                </g>
            </g>
        </g>
    </g>
</svg>