<?xml version="1.0" encoding="UTF-8"?>
<svg width="35px" height="35px" viewBox="0 0 35 35" version="1.1" xmlns="http://www.w3.org/2000/svg" xmlns:xlink="http://www.w3.org/1999/xlink">
    <!-- Generator: Sketch 52.2 (67145) - http://www.bohemiancoding.com/sketch -->
    <title>icon_likedin</title>
    <desc>Created with Sketch.</desc>
    <g id="Startpage" stroke="none" stroke-width="1" fill="none" fill-rule="evenodd">
        <g id="cryptotab_startpage-widgets" transform="translate(-1174.000000, -163.000000)" fill="#FEFEFE">
            <g id="side-panel-notes" transform="translate(960.000000, 0.000000)">
                <g id="item" transform="translate(25.000000, 86.000000)">
                    <g transform="translate(156.000000, 56.000000)" id="icon">
                        <g transform="translate(10.000000, 0.000000)">
                            <g id="icon_likedin" transform="translate(23.000000, 21.000000)">
                                <path d="M4.48206545,0.470333333 C6.71712,0.470333333 8.53326545,2.28244444 8.53326545,4.51146296 C8.53326545,6.74309259 6.71712,8.55433333 4.48206545,8.55433333 C2.24177455,8.55433333 0.429992727,6.74309259 0.429992727,4.51146296 C0.429992727,2.28244444 2.24177455,0.470333333 4.48206545,0.470333333 Z M0.985047273,34.0500926 L7.97821091,34.0500926 L7.97821091,11.6206481 L0.985047273,11.6206481 L0.985047273,34.0500926 Z" id="Fill-4"></path>
                                <path d="M12.3621818,11.6207352 L19.0682182,11.6207352 L19.0682182,14.6853093 L19.1633455,14.6853093 C20.0962909,12.9219389 22.3776,11.0619574 25.7777455,11.0619574 C32.8512,11.0619574 34.1576727,15.7062537 34.1576727,21.7474944 L34.1576727,34.0501796 L27.1758545,34.0501796 L27.1758545,23.1426981 C27.1758545,20.5411611 27.1243636,17.1954574 23.5426909,17.1954574 C19.9051636,17.1954574 19.3501091,20.028513 19.3501091,22.9546981 L19.3501091,34.0501796 L12.3621818,34.0501796 L12.3621818,11.6207352 Z" id="Fill-6"></path>
                            </g>
                        </g>
                    </g>
                </g>
            </g>
        </g>
    </g>
</svg>