<?xml version="1.0" encoding="UTF-8"?>
<svg width="38px" height="48px" viewBox="0 0 38 48" version="1.1" xmlns="http://www.w3.org/2000/svg" xmlns:xlink="http://www.w3.org/1999/xlink">
    <!-- Generator: Sketch 55.2 (78181) - https://sketchapp.com -->
    <title>icon_yelp</title>
    <desc>Created with Sketch.</desc>
    <g id="Page-1" stroke="none" stroke-width="1" fill="none" fill-rule="evenodd">
        <g id="cryptotab_startpage-widgets" transform="translate(-1172.000000, -2761.000000)" fill="#D32323">
            <g id="side-panel-notes" transform="translate(960.000000, 0.000000)">
                <g id="item" transform="translate(20.000000, 91.000000)">
                    <g transform="translate(161.000000, 2654.000000)" id="icon_yelp">
                        <g transform="translate(31.000000, 16.000000)">
                            <path d="M30.384268,12.9006316 C33.3951347,14.7761684 36.7649747,18.5249684 37.719788,24.0457263 L23.246348,26.3825684 C22.4116147,26.0660211 21.7836013,25.5433263 21.863908,24.3142737 L30.384268,12.9006316 Z" id="Fill-4"></path>
                            <path d="M23.6784587,31.3808589 C22.7451787,31.5900379 22.2511787,32.1496168 22.468792,33.2766063 L29.7893653,45.6348379 C33.0446987,44.1453221 36.2936987,40.6688589 37.764552,35.5174484 L23.6784587,31.3808589 Z" id="Fill-6"></path>
                            <path d="M16.1602347,33.1043621 C17.1284747,32.9790568 18.0328747,32.9606147 18.3206613,33.9660884 L18.7525947,47.75472 C13.9965147,48.1056253 10.030328,46.88112 7.34575467,43.1009937 L16.1602347,33.1043621 Z" id="Fill-8"></path>
                            <path d="M14.2589933,26.7271579 C14.9505933,27.5560421 15.3384467,28.4281263 14.4317667,29.4848842 L1.12340667,34.1383579 C-0.445486667,29.8186105 -0.301846667,25.7616 1.12340667,21.9011368 L14.2589933,26.7271579 Z" id="Fill-11"></path>
                            <path d="M3.55948533,5.05882105 C7.307552,1.71423158 11.7021253,-0.639031579 18.423312,0.577642105 L18.423312,22.1220632 C18.135272,23.1563368 17.271152,23.3859789 16.5220453,22.8114947 L3.55948533,5.05882105 Z" id="Fill-1"></path>
                        </g>
                    </g>
                </g>
            </g>
        </g>
    </g>
</svg>