<?xml version="1.0" encoding="UTF-8"?>
<svg width="64px" height="21px" viewBox="0 0 64 21" version="1.1" xmlns="http://www.w3.org/2000/svg" xmlns:xlink="http://www.w3.org/1999/xlink">
    <!-- Generator: Sketch 55.2 (78181) - https://sketchapp.com -->
    <title>icon_hulu</title>
    <desc>Created with Sketch.</desc>
    <g id="Page-1" stroke="none" stroke-width="1" fill="none" fill-rule="evenodd">
        <g id="cryptotab_startpage-widgets" transform="translate(-1018.000000, -3198.000000)" fill="#1BE783" fill-rule="nonzero">
            <g id="side-panel-notes" transform="translate(960.000000, 0.000000)">
                <g id="item" transform="translate(20.000000, 91.000000)">
                    <g transform="translate(20.000000, 3077.000000)" id="icon_hulu">
                        <path d="M57.2013579,51 L62.2853504,51 L62.2853504,30 L57.2013579,30 L57.2013579,51 L57.2013579,51 Z M48.2439629,45.0257011 C48.2439629,45.7752209 47.6344135,46.3823695 46.8831605,46.3823695 L43.9261294,46.3823695 C43.1716777,46.3823695 42.5632158,45.7752209 42.5632158,45.0257011 C42.5632158,44.7433805 42.5632158,36.5527056 42.5632158,36.5527056 L37.4802469,36.5527056 L37.4802469,45.4482898 C37.4802469,49.08398 39.8149976,50.9999363 43.2675115,50.9999363 L48.2438989,50.9999363 L48.2438989,50.9734249 C51.4236894,50.9734249 53.3278915,48.719831 53.3278915,45.4482898 L53.3278915,36.5527056 L48.2439629,36.5527056 C48.2439629,36.5527056 48.2439629,44.7434442 48.2439629,45.0257011 Z M76.917159,36.5527056 C76.917159,36.5527056 76.917159,44.7433805 76.917159,45.0257011 C76.917159,45.7752209 76.3076735,46.3823695 75.5563566,46.3823695 L72.5992615,46.3823695 C71.8458973,46.3823695 71.2374355,45.7752209 71.2374355,45.0257011 C71.2374355,44.7433805 71.2374355,36.5527056 71.2374355,36.5527056 L66.1534429,36.5527056 L66.1534429,45.4482898 C66.1534429,49.08398 68.4881937,50.9999363 71.9407716,50.9999363 L76.917095,50.9999363 L76.917095,50.9734249 C80.0968854,50.9734249 82,48.719831 82,45.4482898 L82,36.5527056 L76.917159,36.5527056 Z M28.060316,36.5527056 C28.060316,36.5527056 25.4122819,36.5527056 24.8006214,36.5527056 C23.6561808,36.5527056 23.082841,36.8600081 23.082841,36.8600081 L23.082841,30 L18,30 L18,51 L23.082905,51 L23.082905,42.5259211 C23.082905,41.7764651 23.6924544,41.1692528 24.444731,41.1692528 L27.4028497,41.1692528 C28.1551263,41.1692528 28.7636521,41.7764651 28.7636521,42.5259211 L28.7636521,51 L33.8476446,51 L33.8476446,41.8698922 C33.8476446,38.0303321 31.2774036,36.5527056 28.060316,36.5527056 Z"></path>
                    </g>
                </g>
            </g>
        </g>
    </g>
</svg>