<?xml version="1.0" encoding="UTF-8" standalone="no"?>
<svg width="48px" height="48px" viewBox="0 0 48 48" version="1.1" xmlns="http://www.w3.org/2000/svg" xmlns:xlink="http://www.w3.org/1999/xlink">
    <!-- Generator: Sketch 47.1 (45422) - http://www.bohemiancoding.com/sketch -->
    <title>Page 1</title>
    <desc>Created with Sketch.</desc>
    <defs></defs>
    <g id="Page-1" stroke="none" stroke-width="1" fill="none" fill-rule="evenodd">
        <g id="everyday-tab_widgets-edit--b" transform="translate(-1167.000000, -159.000000)">
            <g id="item" transform="translate(985.000000, 87.000000)">
                <g transform="translate(156.000000, 46.000000)" id="Page-1">
                    <g transform="translate(26.000000, 26.000000)">
                        <rect id="Rectangle-15" fill="#007AB5" x="0" y="0" width="48" height="48" rx="5"></rect>
                        <path d="M11.4820655,6.47033333 C13.71712,6.47033333 15.5332655,8.28244444 15.5332655,10.511463 C15.5332655,12.7430926 13.71712,14.5543333 11.4820655,14.5543333 C9.24177455,14.5543333 7.42999273,12.7430926 7.42999273,10.511463 C7.42999273,8.28244444 9.24177455,6.47033333 11.4820655,6.47033333 L11.4820655,6.47033333 Z M7.98504727,40.0500926 L14.9782109,40.0500926 L14.9782109,17.6206481 L7.98504727,17.6206481 L7.98504727,40.0500926 Z" id="Fill-4" fill="#FEFEFE"></path>
                        <path d="M19.3621818,17.6207352 L26.0682182,17.6207352 L26.0682182,20.6853093 L26.1633455,20.6853093 C27.0962909,18.9219389 29.3776,17.0619574 32.7777455,17.0619574 C39.8512,17.0619574 41.1576727,21.7062537 41.1576727,27.7474944 L41.1576727,40.0501796 L34.1758545,40.0501796 L34.1758545,29.1426981 C34.1758545,26.5411611 34.1243636,23.1954574 30.5426909,23.1954574 C26.9051636,23.1954574 26.3501091,26.028513 26.3501091,28.9546981 L26.3501091,40.0501796 L19.3621818,40.0501796 L19.3621818,17.6207352 Z" id="Fill-6" fill="#FEFEFE"></path>
                    </g>
                </g>
            </g>
        </g>
    </g>
</svg>