<?xml version="1.0" encoding="UTF-8" standalone="no"?>
<svg width="34px" height="20px" viewBox="0 0 34 20" version="1.1" xmlns="http://www.w3.org/2000/svg" xmlns:xlink="http://www.w3.org/1999/xlink">
    <!-- Generator: Sketch 44 (41411) - http://www.bohemiancoding.com/sketch -->
    <title>icon</title>
    <desc>Created with Sketch.</desc>
    <defs></defs>
    <g id="Extension" stroke="none" stroke-width="1" fill="none" fill-rule="evenodd">
        <g id="extname_newtab-weather" transform="translate(-1203.000000, -250.000000)" fill="#7B8287">
            <g id="side-panel-weather" transform="translate(960.000000, 0.000000)">
                <g id="params" transform="translate(20.000000, 245.000000)">
                    <g id="pressure" transform="translate(200.000000, 5.000000)">
                        <g id="icon" transform="translate(23.000000, 0.000000)">
                            <path d="M2,17 L0,17 C0,7.61115925 7.61115925,0 17,0 C26.3888407,0 34,7.61115925 34,17 L32,17 C32,8.71572875 25.2842712,2 17,2 C8.71572875,2 2,8.71572875 2,17 Z" id="Path"></path>
                            <path d="M0,17 L4,17 L4,17 C4.55228475,17 5,17.4477153 5,18 L5,18 L5,18 C5,18.5522847 4.55228475,19 4,19 L0,19 L0,17 Z" id="Rectangle-12"></path>
                            <path d="M14.5588379,1.52490234 L18.5588379,1.52490234 L18.5588379,1.52490234 C19.1111226,1.52490234 19.5588379,1.97261759 19.5588379,2.52490234 L19.5588379,2.52490234 L19.5588379,2.52490234 C19.5588379,3.07718709 19.1111226,3.52490234 18.5588379,3.52490234 L14.5588379,3.52490234 L14.5588379,1.52490234 Z" id="Rectangle-12" transform="translate(17.058838, 2.524902) rotate(-270.000000) translate(-17.058838, -2.524902) "></path>
                            <path d="M30,17 L34,17 L34,19 L30,19 L30,19 C29.4477153,19 29,18.5522847 29,18 L29,18 L29,18 C29,17.4477153 29.4477153,17 30,17 Z" id="Rectangle-12"></path>
                            <path d="M20.5621778,21.9980701 C18.9053236,21.9980701 17.5621778,20.6549244 17.5621778,18.9980701 C17.5621778,17.8935006 18.5621778,14.2268339 20.5621778,7.99807011 C22.5621778,14.2268339 23.5621778,17.8935006 23.5621778,18.9980701 C23.5621778,20.6549244 22.2190321,21.9980701 20.5621778,21.9980701 Z M20.5621778,19.9980701 C21.1144626,19.9980701 21.5621778,19.5503549 21.5621778,18.9980701 C21.5621778,18.4457854 21.1144626,17.9980701 20.5621778,17.9980701 C20.0098931,17.9980701 19.5621778,18.4457854 19.5621778,18.9980701 C19.5621778,19.5503549 20.0098931,19.9980701 20.5621778,19.9980701 Z" id="Combined-Shape" transform="translate(20.562178, 14.998070) rotate(-300.000000) translate(-20.562178, -14.998070) "></path>
                        </g>
                    </g>
                </g>
            </g>
        </g>
    </g>
</svg>