<?xml version="1.0" encoding="UTF-8"?>
<svg width="41px" height="26px" viewBox="0 0 41 26" version="1.1" xmlns="http://www.w3.org/2000/svg" xmlns:xlink="http://www.w3.org/1999/xlink">
    <!-- Generator: Sketch 55.2 (78181) - https://sketchapp.com -->
    <title>icon_behance</title>
    <desc>Created with Sketch.</desc>
    <g id="Page-1" stroke="none" stroke-width="1" fill="none" fill-rule="evenodd">
        <g id="cryptotab_startpage-widgets" transform="translate(-1030.000000, -3054.000000)" fill="#FFFFFF">
            <g id="side-panel-notes" transform="translate(960.000000, 0.000000)">
                <g id="item" transform="translate(20.000000, 91.000000)">
                    <g transform="translate(20.000000, 2936.000000)" id="Behance">
                        <g transform="translate(10.000000, 0.000000)">
                            <g id="icon_behance" transform="translate(20.571429, 27.428571)">
                                <polygon id="Fill-169" points="26.2857143 5.9115799 36.2408254 5.9115799 36.2408254 3.42857143 26.2857143 3.42857143"></polygon>
                                <path d="M30.747619,10.5084689 C33.1449524,10.5084689 34.2240635,11.535307 34.6769524,13.9898416 L26.6493968,13.9898416 C26.7178413,12.6271011 27.6213968,10.5084689 30.747619,10.5084689 M21.7142857,16.1707604 C21.7142857,21.6266165 25.223619,25.447006 30.887619,25.447006 C34.9551746,25.447006 37.5191746,24.248435 38.9067302,20.0868042 L34.9551746,20.0868042 C34.6427302,21.1794881 33.0422857,21.7979045 31.0600635,21.7979045 C28.315619,21.7979045 26.7871746,20.6669589 26.6493968,17.5953426 L39.6098413,17.5953426 C39.9569524,12.1728542 37.0022857,6.85714286 30.887619,6.85714286 C25.4338413,6.85714286 21.7142857,10.8821881 21.7142857,16.1707604" id="Fill-170"></path>
                                <path d="M4.98888889,20.1537002 L4.98888889,13.4667951 L10.9288889,13.4667951 C13.2582222,13.4667951 14.8546667,14.4580409 14.8546667,16.9468332 C14.8546667,19.4729973 12.98,20.1537002 10.8253333,20.1537002 L4.98888889,20.1537002 Z M4.98888889,4.12247922 L10.0964444,4.12247922 C12.0408889,4.12247922 13.8488889,4.60164069 13.8488889,6.92181435 C13.8488889,8.96614761 12.4231111,9.81813852 10.5128889,9.81813852 L4.98888889,9.81813852 L4.98888889,4.12247922 Z M20.7817778,17.4455704 C20.7817778,14.411326 19.2533333,12.1271896 16.2271111,11.273864 C18.384,10.2492504 19.6,8.57997106 19.6,6.18950258 C19.6,1.65415257 16.4026667,0 11.6786667,0 L0,0 L0,24.5093091 L12.0226667,24.5093091 C16.5053333,24.5093091 20.7817778,22.3924565 20.7817778,17.4455704 L20.7817778,17.4455704 Z" id="Fill-171"></path>
                            </g>
                        </g>
                    </g>
                </g>
            </g>
        </g>
    </g>
</svg>