<?xml version="1.0" encoding="UTF-8"?>
<svg width="60px" height="29px" viewBox="0 0 60 29" version="1.1" xmlns="http://www.w3.org/2000/svg" xmlns:xlink="http://www.w3.org/1999/xlink">
    <!-- Generator: Sketch 52.2 (67145) - http://www.bohemiancoding.com/sketch -->
    <title>icon_cnn</title>
    <desc>Created with Sketch.</desc>
    <defs>
        <polygon id="path-1" points="60 0.000114863778 60 28.8907768 0 28.8907768 0 0.000114863778"></polygon>
    </defs>
    <g id="Startpage" stroke="none" stroke-width="1" fill="none" fill-rule="evenodd">
        <g id="cryptotab_startpage-widgets" transform="translate(-1161.000000, -1014.000000)">
            <g id="side-panel-notes" transform="translate(960.000000, 0.000000)">
                <g id="item" transform="translate(25.000000, 86.000000)">
                    <g transform="translate(156.000000, 902.000000)" id="Group-3">
                        <g transform="translate(10.000000, 0.000000)">
                            <g id="icon_cnn" transform="translate(10.000000, 26.000000)">
                                <mask id="mask-2" fill="white">
                                    <use xlink:href="#path-1"></use>
                                </mask>
                                <g id="Clip-2"></g>
                                <path d="M14.6805226,0.105529474 C-5.03324623,0.105529474 -4.84148744,28.5465926 14.9473568,28.5618558 L22.6894673,28.5618558 C26.0169045,28.5618558 28.1413266,26.5669611 28.1377085,22.8857926 L28.1377085,15.6754768 C28.1377085,15.6754768 32.4842412,22.9505084 34.1913769,25.8013611 C37.0864523,30.6477189 44.0874573,29.69194 44.0687638,23.6391821 L44.0687638,15.6754768 C44.0687638,15.6754768 48.4002211,22.9505084 50.1034372,25.8013611 C52.9988141,30.6477189 60.0188141,29.69194 60.0001206,23.6391821 L60.0001206,0.101561053 L56.4580101,0.101561053 L56.4580101,23.1330558 C56.4616281,24.0161821 56.0030352,24.6709716 55.3713769,24.8800768 C54.7397186,25.0894874 54.0139899,24.8269611 53.5740905,24.1950663 L53.555397,24.1950663 L53.555397,24.1608768 C53.555397,24.1608768 44.2228342,9.05126632 41.8427337,5.11123474 C41.835196,5.10390842 41.8315779,5.11886632 41.8240402,5.11123474 C41.8204221,5.11123474 41.8276583,5.09230842 41.8240402,5.09230842 C41.5798191,4.76109789 41.2638392,4.68905579 41.0045427,4.76903474 C40.737407,4.85267684 40.4856482,5.08498211 40.4892663,5.67108737 L40.4892663,23.1144347 C40.4928844,23.9935926 40.0454472,24.6862347 39.4216281,24.8999189 C38.797206,25.1129926 38.0790151,24.83154 37.6427337,24.1956768 L37.6427337,24.1767505 L37.6243417,24.1767505 C37.6243417,24.1767505 28.2842412,9.03722421 25.9116784,5.10848737 C25.6635377,4.75041368 25.3439397,4.66310842 25.076804,4.74675053 C24.8099698,4.83039263 24.5582111,5.06269789 24.5618291,5.64880316 L24.5618291,5.66772947 L24.5618291,22.9853084 C24.5618291,24.0360242 23.7082613,24.9154874 22.674392,24.9154874 L14.4136884,24.9154874 C10.7889648,24.9154874 8.04042211,23.5946137 6.22444221,21.5997189 C4.4081608,19.6048242 3.51328643,16.9591084 3.51720603,14.3173611 C3.52082412,11.6792768 4.41569849,9.01463474 6.18675377,7.01943474 C7.95780905,5.02484526 10.6158995,3.70763474 14.0524824,3.70397158 L19.0722814,3.70397158 L19.0722814,0.0988136842 L14.6769045,0.0988136842 L14.6805226,0.105529474 Z M24.7008241,0.0142557895 C22.2154975,0.192834737 20.1100704,2.30983474 20.1100704,5.29439263 L20.1100704,19.4937084 C20.1100704,20.0074663 19.7340905,20.4491821 19.1850452,20.4491821 L14.8047437,20.4491821 C5.32172864,20.4607821 6.1641407,8.19103474 14.2367035,8.17577158 L19.0798191,8.17577158 L19.0798191,4.60877158 L14.0600201,4.60877158 C10.8453467,4.60877158 8.46162814,5.82310842 6.8521809,7.63515053 C5.24303518,9.44719263 4.43439196,11.8874663 4.43077387,14.3198032 C4.42685427,16.75214 5.2240402,19.1774558 6.87087437,20.9891926 C8.51801005,22.7975716 11.0069548,24.0158768 14.4173065,24.0158768 L22.6780101,24.0158768 C23.2234372,24.0158768 23.6744925,23.5399716 23.6744925,22.9880558 L23.6744925,5.67047684 C23.6705729,4.77971895 24.1668543,4.08677158 24.8135879,3.88499263 C25.4603216,3.68290842 26.2198191,3.93810842 26.6636382,4.58892947 L26.6826332,4.60816105 C29.0325829,8.49843474 38.3609246,23.6495611 38.3763015,23.6764242 C38.6316784,24.0454874 38.936201,24.1102032 39.1584121,24.0378558 C39.3800201,23.9618453 39.6055477,23.7185505 39.6019296,23.1168768 L39.6019296,5.67017158 C39.5983116,4.77941368 40.0942915,4.08646632 40.7413266,3.88438211 C41.3877588,3.68260316 42.1285628,3.93780316 42.5763015,4.58862421 L42.5763015,4.60755053 L42.6100704,4.60755053 C44.9600201,8.49812947 54.2883618,23.6492558 54.3034372,23.6761189 C54.5554975,24.0415189 54.8524824,24.1138663 55.0855477,24.0375505 C55.3186131,23.96154 55.5519799,23.7332032 55.5480603,23.1354979 L55.5480603,0.104003158 L52.0062513,0.104003158 L52.0062513,13.5459611 C52.0062513,13.5459611 49.8929849,9.89135053 46.275799,3.59865579 C42.7300704,-2.56491263 36.0411256,-0.0141336842 36.0411256,5.29286632 L36.0411256,13.5459611 C36.0411256,13.5459611 33.9655477,9.89135053 30.3447437,3.59865579 C28.795598,0.903487368 26.6337889,-0.128302105 24.7008241,0.0127294737 L24.7008241,0.0142557895 Z" id="Fill-1" fill="#CC0000" mask="url(#mask-2)"></path>
                            </g>
                        </g>
                    </g>
                </g>
            </g>
        </g>
    </g>
</svg>