<?xml version="1.0" encoding="UTF-8"?>
<svg width="43px" height="39px" viewBox="0 0 43 39" version="1.1" xmlns="http://www.w3.org/2000/svg" xmlns:xlink="http://www.w3.org/1999/xlink">
    <!-- Generator: Sketch 52.2 (67145) - http://www.bohemiancoding.com/sketch -->
    <title>Icon_reddit</title>
    <desc>Created with Sketch.</desc>
    <g id="Startpage" stroke="none" stroke-width="1" fill="none" fill-rule="evenodd">
        <g id="cryptotab_startpage-widgets" transform="translate(-1028.000000, -159.000000)" fill="#FFFFFF">
            <g id="side-panel-notes" transform="translate(960.000000, 0.000000)">
                <g id="item" transform="translate(25.000000, 86.000000)">
                    <g transform="translate(15.000000, 56.000000)" id="icon">
                        <g transform="translate(10.000000, 0.000000)">
                            <path d="M40.4342083,29.7327659 C45.2222728,29.9118467 49.5227408,31.3813311 52.643454,33.6550694 C53.4536448,32.7529262 54.5985464,32.1904762 55.8676127,32.1904762 C58.3235209,32.1904762 60.3144279,34.2968698 60.3144279,36.8952381 C60.3144279,38.8147702 59.2279013,40.4658099 57.6700418,41.1974781 C57.7401238,41.6550589 57.7760767,42.1198185 57.7760767,42.5904762 C57.7760767,49.7017998 49.5683208,55.4666667 39.4435408,55.4666667 C29.3187607,55.4666667 21.1110048,49.7017998 21.1110048,42.5904762 C21.1110048,42.1053169 21.1492073,41.6264247 21.2236148,41.1552025 C19.7126876,40.4035797 18.6666667,38.7786504 18.6666667,36.8952381 C18.6666667,34.2968698 20.6575736,32.1904762 23.1134818,32.1904762 C24.3631653,32.1904762 25.4924478,32.7358764 26.3002852,33.6139708 C29.4054333,31.371474 33.6639236,29.9209002 38.4031406,29.734673 L40.9602015,17.5816985 L49.222902,19.505788 C49.7291303,18.232263 50.9602038,17.3333333 52.3985328,17.3333333 C54.2884918,17.3333333 55.8206062,18.8854129 55.8206062,20.8 C55.8206062,22.7145871 54.2884918,24.2666667 52.3985328,24.2666667 C50.6281296,24.2666667 49.1717295,22.9047403 48.994555,21.1586879 L42.4860905,19.6335245 L40.4342083,29.7327659 L40.4342083,29.7327659 Z M31.9631056,49.259037 C32.3052753,49.5680675 32.7386834,49.8691148 33.2712034,50.1438481 C34.7204688,50.891541 36.6648106,51.3302902 39.1669711,51.3302901 C41.6568359,51.3302901 43.691087,50.8967204 45.300263,50.1648195 C45.8802344,49.9010314 46.367414,49.6144513 46.7662266,49.3228247 C47.0217881,49.1359486 47.1989101,48.9792164 47.3026628,48.8702331 C47.6775131,48.4764849 47.6662992,47.849453 47.2776161,47.469718 C46.8889329,47.0899831 46.2699667,47.1013431 45.8951165,47.4950912 C45.8982205,47.4918307 45.8856883,47.5039377 45.8569265,47.5293886 C45.796166,47.5831545 45.7179733,47.646229 45.6217248,47.7166095 C45.3291305,47.9305654 44.9568314,48.1495678 44.499322,48.3576566 C43.1442675,48.9739755 41.383118,49.3493377 39.1669711,49.3493378 C36.9631198,49.3493378 35.3226335,48.979155 34.1586223,48.378628 C33.5212512,48.0498008 33.1943192,47.7545322 33.0973041,47.6142753 C32.7874306,47.1662843 32.1777318,47.0575914 31.7355036,47.3715028 C31.2932754,47.6854143 31.1859806,48.3030581 31.4958541,48.751049 C31.5849825,48.8799039 31.7376074,49.0553783 31.9631056,49.259037 L31.9631056,49.259037 Z M32.2055741,43.5809524 C34.095533,43.5809524 35.6276475,42.0288728 35.6276475,40.1142857 C35.6276475,38.1996986 34.095533,36.647619 32.2055741,36.647619 C30.3156151,36.647619 28.7835007,38.1996986 28.7835007,40.1142857 C28.7835007,42.0288728 30.3156151,43.5809524 32.2055741,43.5809524 L32.2055741,43.5809524 Z M46.5321213,43.5809524 C48.4220803,43.5809524 49.9541947,42.0288728 49.9541947,40.1142857 C49.9541947,38.1996986 48.4220803,36.647619 46.5321213,36.647619 C44.6421624,36.647619 43.110048,38.1996986 43.110048,40.1142857 C43.110048,42.0288728 44.6421624,43.5809524 46.5321213,43.5809524 L46.5321213,43.5809524 Z" id="Icon_reddit"></path>
                        </g>
                    </g>
                </g>
            </g>
        </g>
    </g>
</svg>