<?xml version="1.0" encoding="UTF-8" standalone="no"?>
<svg width="9px" height="11px" viewBox="0 0 9 11" version="1.1" xmlns="http://www.w3.org/2000/svg" xmlns:xlink="http://www.w3.org/1999/xlink">
    <!-- Generator: Sketch 46.2 (44496) - http://www.bohemiancoding.com/sketch -->
    <title>lock</title>
    <desc>Created with Sketch.</desc>
    <defs></defs>
    <g id="Page-1" stroke="none" stroke-width="1" fill="none" fill-rule="evenodd">
        <g id="cryptotab_settings-upd" transform="translate(-992.000000, -394.000000)" fill="#FFFFFF">
            <g id="side-panel-notes" transform="translate(960.000000, 0.000000)">
                <g id="backgound" transform="translate(20.000000, 273.000000)">
                    <g id="line-photos" transform="translate(1.000000, 110.000000)">
                        <path d="M20,16.75 L20,21.25 C20,21.664 19.664,22 19.25,22 L11.75,22 C11.336,22 11,21.664 11,21.25 L11,16.75 C11,16.336 11.336,16 11.75,16 L12,16 L12,14.5 C12,12.578 13.578,11 15.5,11 C17.422,11 19,12.578 19,14.5 L19,16 L19.25,16 C19.664,16 20,16.336 20,16.75 L20,16.75 Z M13.5,16 L17.5,16 L17.5,14.5 C17.5,13.398 16.602,12.5 15.5,12.5 C14.398,12.5 13.5,13.398 13.5,14.5 L13.5,16 Z" id="lock"></path>
                    </g>
                </g>
            </g>
        </g>
    </g>
</svg>
