<?xml version="1.0" encoding="UTF-8" standalone="no"?>
<svg width="19px" height="12px" viewBox="0 0 19 12" version="1.1" xmlns="http://www.w3.org/2000/svg"
     xmlns:xlink="http://www.w3.org/1999/xlink">
    <!-- Generator: Sketch 48.2 (47327) - http://www.bohemiancoding.com/sketch -->
    <title>icon-gplus</title>
    <desc>Created with Sketch.</desc>
    <defs></defs>
    <g id="cryptotab--user-panel--a" stroke="none" stroke-width="1" fill="none" fill-rule="evenodd"
       transform="translate(-629.000000, -609.000000)">
        <g id="referral" transform="translate(470.000000, 165.000000)" fill="#FFFFFF">
            <g id="share-icons" transform="translate(29.000000, 430.000000)">
                <g id="g+" transform="translate(114.000000, 0.000000)">
                    <g id="up">
                        <g id="icon-gplus" transform="translate(16.000000, 14.000000)">
                            <polygon id="+"
                                     points="15.1437154 4.76033058 13.1051383 4.76033058 13.1051383 6.24793388 15.1437154 6.24793388 15.1437154 8.33057851 16.5998419 8.33057851 16.5998419 6.24793388 18.638419 6.24793388 18.638419 4.76033058 16.5998419 4.76033058 16.5998419 2.67768595 15.1437154 2.67768595"></polygon>
                            <path d="M2.54959339,7.26827534 C2.52785491,7.21116307 2.50752093,7.15346258 2.48863352,7.09523524 C2.48802186,7.09336523 2.48741172,7.09149469 2.48680311,7.08962362 C2.48843939,7.08830345 2.49007542,7.08698349 2.49171145,7.08566353 C2.24842668,6.35431819 2.2455124,5.53887895 2.4829686,4.80244163 C2.48484201,4.79671016 2.48673032,4.79098375 2.48863352,4.7852625 C2.66099758,4.262009 2.94416711,3.78023292 3.31967453,3.38460223 C3.78136399,2.89325443 4.38156028,2.54229172 5.03100344,2.39871607 C5.58503078,2.2774744 6.16983743,2.29980839 6.71155305,2.46890861 C7.17324251,2.61248426 7.5979968,2.87730158 7.94580286,3.22188315 C8.29668684,2.85815816 8.64757083,2.49443317 8.99845481,2.13070818 C9.18313059,1.9360834 9.37704016,1.74783977 9.55556009,1.54683385 C9.55504981,1.54634465 9.55453944,1.54585553 9.55402898,1.54536651 C9.55453948,1.5447922 9.55504984,1.54421779 9.55556009,1.54364328 C9.02000032,1.0299615 8.39518059,0.621568526 7.7118802,0.359941778 C6.48070832,-0.109072025 5.09256203,-0.118643736 3.8552343,0.324845507 C3.73768494,0.366538529 3.62160132,0.412404209 3.50717528,0.462264745 C2.26434443,1.00379985 1.21706025,2.01638368 0.611096404,3.2697417 C0.380251677,3.74194608 0.214043474,4.24286558 0.112471794,4.76292851 C-0.13991844,6.05191882 0.0355235519,7.42705453 0.608018474,8.60118433 C0.980447967,9.36692115 1.51600773,10.0497032 2.16237297,10.5825284 C2.77488098,11.0866384 3.48588274,11.4631257 4.24305344,11.6705128 C5.19721164,11.9353301 6.21292844,11.9289489 7.17324251,11.7024185 C8.04121868,11.4950314 8.86302591,11.0643044 9.51862493,10.4389527 C10.2111591,9.77850469 10.7067058,8.91066963 10.9683298,7.97583259 C11.1902509,7.18676203 11.2623217,6.35550193 11.2003192,5.53408867 C11.1825873,5.29475436 11.1533834,5.05641327 11.1129925,4.82035877 L5.72661555,4.82035877 C5.72661555,5.59247673 5.72661555,6.36459469 5.72353762,7.13671266 L5.72661555,7.13671266 L5.72661555,7.13990323 L8.84403897,7.13990323 C8.72344067,7.87799508 8.29990489,8.55233088 7.70169241,8.96980981 C7.70098444,8.96923983 7.70027646,8.96866986 7.69956848,8.96809989 C7.32098313,9.23291721 6.88699504,9.40201742 6.43761731,9.48497224 C5.98516164,9.5647365 5.52039426,9.57749878 5.07101653,9.48178167 C4.61548293,9.38606457 4.17841692,9.18824923 3.79675363,8.91066963 C3.23770071,8.50384042 2.80297266,7.9251783 2.54959339,7.26827534 L2.54959339,7.26827534 Z"
                                  id="G-Icon"></path>
                        </g>
                    </g>
                </g>
            </g>
        </g>
    </g>
</svg>