<?xml version="1.0" encoding="UTF-8" standalone="no"?>
<svg width="16px" height="13px" viewBox="0 0 16 13" version="1.1" xmlns="http://www.w3.org/2000/svg"
     xmlns:xlink="http://www.w3.org/1999/xlink">
    <!-- Generator: Sketch 48.2 (47327) - http://www.bohemiancoding.com/sketch -->
    <title>icon-tw</title>
    <desc>Created with Sketch.</desc>
    <defs></defs>
    <g id="cryptotab--user-panel--a" stroke="none" stroke-width="1" fill="none" fill-rule="evenodd"
       transform="translate(-573.000000, -609.000000)">
        <g id="referral" transform="translate(470.000000, 165.000000)" fill="#FFFFFF">
            <g id="share-icons" transform="translate(29.000000, 430.000000)">
                <g id="tw" transform="translate(57.000000, 0.000000)">
                    <g id="up">
                        <path d="M17.9012862,14.5434251 C17.9012862,14.5434251 20.5253644,17.8034381 24.5228586,17.9995088 C24.5228586,17.9995088 23.7069412,15.8373379 26.1460216,14.3552511 C26.1460216,14.3552511 28.1276179,13.1919238 30.0400326,15.0755896 C30.0400326,15.0755896 30.9025849,15.0337946 31.942234,14.269735 C31.942234,14.269735 32.0952426,14.9727391 30.7395556,16.1035164 C30.7395556,16.1035164 31.493807,16.042461 32.35,15.4819837 C32.35,15.4819837 32.1869707,16.4498182 30.79043,17.1528223 C30.79043,17.1528223 31.2153468,24.8103667 23.738545,26.4864055 C23.738545,26.4864055 19.7846023,27.3781614 17,25.194804 C17,25.194804 19.9537983,25.5021998 21.5230036,23.8569775 C21.5230036,23.8569775 19.5539332,24.041492 18.5846218,21.7196525 C18.5846218,21.7196525 19.569157,21.8887587 19.9692147,21.5659546 C19.9692147,21.5659546 17.892229,21.5811703 17.430698,18.4752404 C17.430698,18.4752404 18.2768703,18.90571 18.8307074,18.8288611 C18.8307074,18.8288611 16.479501,17.3773984 17.9012862,14.5434251"
                              id="icon-tw"></path>
                    </g>
                </g>
            </g>
        </g>
    </g>
</svg>