<?xml version="1.0" encoding="UTF-8" standalone="no"?>
<svg width="22px" height="12px" viewBox="0 0 22 12" version="1.1" xmlns="http://www.w3.org/2000/svg"
     xmlns:xlink="http://www.w3.org/1999/xlink">
    <!-- Generator: Sketch 48.2 (47327) - http://www.bohemiancoding.com/sketch -->
    <title>icon-vk</title>
    <desc>Created with Sketch.</desc>
    <defs></defs>
    <g id="cryptotab--user-panel--a" stroke="none" stroke-width="1" fill="none" fill-rule="evenodd"
       transform="translate(-634.000000, -649.000000)">
        <g id="referral" transform="translate(470.000000, 165.000000)" fill="#FFFFFF">
            <g id="share-icons" transform="translate(29.000000, 430.000000)">
                <g id="vk" transform="translate(121.000000, 40.000000)">
                    <g id="up" transform="translate(0.000000, 0.000000)">
                        <path d="M24.7638235,25.9499839 L26.0792821,25.9499839 C26.0792821,25.9499839 26.4760438,25.9079886 26.6793557,25.6987621 C26.8659779,25.5067837 26.8599088,25.1475741 26.8599088,25.1475741 C26.8599088,25.1475741 26.8341155,23.4595137 27.6526737,23.2112916 C28.4598524,22.9660692 29.4968949,24.8416084 30.5953863,25.5622775 C31.4260824,26.1082161 32.0580184,25.9889795 32.0580184,25.9889795 L34.9954206,25.9499839 C34.9954206,25.9499839 36.5323981,25.8592441 35.8041166,24.703624 C35.7441851,24.6091346 35.3792857,23.8494699 33.6192719,22.2873955 C31.7773265,20.6518292 32.0238802,20.9165495 34.242863,18.0886173 C35.5947356,16.3668107 36.1348778,15.3146789 35.965704,14.8647295 C35.8048752,14.4357777 34.8110743,14.5497649 34.8110743,14.5497649 L31.5027037,14.5685128 C31.5027037,14.5685128 31.2576673,14.5370163 31.0755969,14.6405047 C30.8980783,14.7424932 30.7835257,14.9802165 30.7835257,14.9802165 C30.7835257,14.9802165 30.2600733,16.3128168 29.5621368,17.4466894 C28.088884,19.8374207 27.5001897,19.9641565 27.2589464,19.8156732 C26.69908,19.4692121 26.8394259,18.4253294 26.8394259,17.6836628 C26.8394259,15.3656732 27.2066012,14.3997818 26.1232824,14.1493099 C25.7636934,14.0660693 25.4989327,14.0105755 24.5794773,14.0030763 C23.3990543,13.9903278 22.399943,14.006076 21.8340076,14.2707962 C21.4577288,14.4470264 21.1679334,14.8399823 21.3446934,14.8624798 C21.5631779,14.8902266 22.058561,14.9899654 22.3202872,15.3311771 C22.6601519,15.7721275 22.6480139,16.7627662 22.6480139,16.7627662 C22.6480139,16.7627662 22.8429809,19.4909597 22.1928379,19.8299216 C21.7467655,20.0616456 21.1353124,19.5876988 19.8221298,17.4174427 C19.149228,16.3060676 18.6409482,15.0784555 18.6409482,15.0784555 C18.6409482,15.0784555 18.5438439,14.8482314 18.3686012,14.7252452 C18.1569444,14.5760119 17.8603214,14.5295172 17.8603214,14.5295172 L14.7173313,14.5497649 C14.7173313,14.5497649 14.2454656,14.5617636 14.0717401,14.7582415 C13.9177389,14.9329718 14.0596021,15.2929314 14.0596021,15.2929314 C14.0596021,15.2929314 16.5205868,20.7980628 19.3070223,23.572751 C21.8628354,26.1164652 24.7638235,25.9499839 24.7638235,25.9499839"
                              id="icon-vk"></path>
                    </g>
                </g>
            </g>
        </g>
    </g>
</svg>