<?xml version="1.0" encoding="UTF-8" standalone="no"?>
<svg width="20px" height="16px" viewBox="0 0 20 16" version="1.1" xmlns="http://www.w3.org/2000/svg" xmlns:xlink="http://www.w3.org/1999/xlink">
    <!-- Generator: Sketch 50.2 (55047) - http://www.bohemiancoding.com/sketch -->
    <title>tw</title>
    <desc>Created with Sketch.</desc>
    <defs></defs>
    <g id="Extension-Upd" stroke="none" stroke-width="1" fill="none" fill-rule="evenodd">
        <g id="bitmotion_share-popup" transform="translate(-549.000000, -499.000000)" fill="#FFFFFF">
            <g id="popup" transform="translate(414.000000, 132.000000)">
                <g id="share-icons" transform="translate(30.000000, 345.000000)">
                    <g id="tw" transform="translate(80.000000, 0.000000)">
                        <g id="up">
                            <path d="M26.1282287,22.6792814 C26.1282287,22.6792814 29.4130461,26.7542976 34.4171035,26.9993861 C34.4171035,26.9993861 33.3957393,24.2966723 36.4489767,22.4440639 C36.4489767,22.4440639 38.929536,20.9899048 41.3234941,23.344487 C41.3234941,23.344487 42.4032358,23.2922432 43.704667,22.3371688 C43.704667,22.3371688 43.896203,23.2159239 42.1991559,24.6293955 C42.1991559,24.6293955 43.1433268,24.5530762 44.2151079,23.8524797 C44.2151079,23.8524797 44.0110281,25.0622727 42.2628404,25.9410278 C42.2628404,25.9410278 42.7947507,35.5129583 33.4353009,37.6080069 C33.4353009,37.6080069 28.4857612,38.7227017 25,35.993505 C25,35.993505 28.6975604,36.3777497 30.6618894,34.3212219 C30.6618894,34.3212219 28.1970099,34.5518651 26.9836273,31.6495656 C26.9836273,31.6495656 28.216067,31.8609483 28.7168587,31.4574432 C28.7168587,31.4574432 26.116891,31.4764629 25.5391471,27.5940505 C25.5391471,27.5940505 26.5983843,28.1321375 27.2916769,28.0360764 C27.2916769,28.0360764 24.3484401,26.221748 26.1282287,22.6792814" id="tw"></path>
                        </g>
                    </g>
                </g>
            </g>
        </g>
    </g>
</svg>