<?xml version="1.0" encoding="UTF-8" standalone="no"?>
<svg width="24px" height="13px" viewBox="0 0 24 13" version="1.1" xmlns="http://www.w3.org/2000/svg" xmlns:xlink="http://www.w3.org/1999/xlink">
    <!-- Generator: Sketch 50.2 (55047) - http://www.bohemiancoding.com/sketch -->
    <title>vk</title>
    <desc>Created with Sketch.</desc>
    <defs></defs>
    <g id="Extension-Upd" stroke="none" stroke-width="1" fill="none" fill-rule="evenodd">
        <g id="bitmotion_share-popup" transform="translate(-787.000000, -501.000000)" fill="#FFFFFF">
            <g id="popup" transform="translate(414.000000, 132.000000)">
                <g id="share-icons" transform="translate(30.000000, 345.000000)">
                    <g id="vk" transform="translate(320.000000, 0.000000)">
                        <g id="up">
                            <path d="M34.7423529,36.9458159 L36.1773986,36.9458159 C36.1773986,36.9458159 36.6102296,36.900321 36.8320244,36.673659 C37.0356122,36.4656823 37.0289915,36.0765386 37.0289915,36.0765386 C37.0289915,36.0765386 37.0008533,34.2478066 37.8938258,33.9788993 C38.7743844,33.7132416 39.9057036,35.7450758 41.1040578,36.5258006 C42.0102717,37.1172341 42.6996564,36.9880611 42.6996564,36.9880611 L45.9040952,36.9458159 C45.9040952,36.9458159 47.580798,36.8475144 46.786309,35.5955926 C46.7209292,35.4932291 46.3228571,34.6702591 44.4028421,32.9780117 C42.3934471,31.2061483 42.6624147,31.4929286 45.0831233,28.4293354 C46.5578934,26.564045 47.1471394,25.4242355 46.9625862,24.9367903 C46.7871366,24.4720925 45.7029902,24.5955786 45.7029902,24.5955786 L42.0938586,24.6158889 C42.0938586,24.6158889 41.8265462,24.5817677 41.6279239,24.6938801 C41.4342672,24.8043677 41.3093007,25.0619012 41.3093007,25.0619012 C41.3093007,25.0619012 40.7382618,26.5055515 39.9768765,27.7339135 C38.3696916,30.3238725 37.7274797,30.4611695 37.4643052,30.3003126 C36.8535418,29.9249798 37.0066465,28.7941069 37.0066465,27.9906347 C37.0066465,25.4794793 37.4072013,24.4330969 36.225399,24.1617524 C35.8331201,24.071575 35.5442902,24.0114568 34.5412479,24.0033327 C33.2535137,23.9895217 32.1635742,24.0065823 31.5461901,24.2933626 C31.1357041,24.4842786 30.8195637,24.9099808 31.0123928,24.9343531 C31.2507395,24.9644122 31.7911575,25.0724626 32.076677,25.4421085 C32.4474385,25.9198048 32.434197,26.9929968 32.434197,26.9929968 C32.434197,26.9929968 32.6468883,29.9485397 31.9376414,30.3157484 C31.4510169,30.5667827 30.7839772,30.0533404 29.3514143,27.7022296 C28.6173396,26.4982398 28.0628525,25.1683268 28.0628525,25.1683268 C28.0628525,25.1683268 27.9569207,24.9189173 27.7657468,24.7856823 C27.5348484,24.6240129 27.2112597,24.5736436 27.2112597,24.5736436 L23.7825433,24.5955786 C23.7825433,24.5955786 23.2677806,24.6085772 23.0782619,24.8214283 C22.9102606,25.0107195 23.0650204,25.4006757 23.0650204,25.4006757 C23.0650204,25.4006757 25.749731,31.364568 28.7894789,34.3704803 C31.5776386,37.1261706 34.7423529,36.9458159 34.7423529,36.9458159" id="vk"></path>
                        </g>
                    </g>
                </g>
            </g>
        </g>
    </g>
</svg>