<svg xmlns="http://www.w3.org/2000/svg" width="16" height="16" viewBox="0 0 16 16">
    <g fill="#DBDBDB">
        <path d="M13.091 1.131L1.193 13.171c-.46.465-.46 1.214 0 1.68l.019.018c.463.469 1.218.473 1.687.01l.01-.01 11.898-12.04c.46-.465.46-1.214 0-1.68l-.019-.018c-.463-.469-1.218-.473-1.687-.01l-.01.01z"/>
        <path d="M2.909 1.131l11.898 12.04c.46.465.46 1.214 0 1.68l-.019.018c-.463.469-1.218.473-1.687.01l-.01-.01L1.193 2.829c-.46-.465-.46-1.214 0-1.68l.019-.018c.463-.469 1.218-.473 1.687-.01l.01.01z"/>
    </g>
</svg>
