<svg xmlns="http://www.w3.org/2000/svg" width="16" height="16" viewBox="0 0 16 16">
    <path fill="#FFA23C" fill-rule="nonzero" d="M14.594 3.75h-1.908c.295-.392.47-.879.47-1.406A2.346 2.346 0 0 0 10.812 0c-.778 0-1.352.279-1.806.878-.38.5-.658 1.2-1.006 2.084-.348-.884-.626-1.583-1.006-2.084C6.54.278 5.966 0 5.188 0a2.346 2.346 0 0 0-2.344 2.344c0 .527.175 1.014.47 1.406H1.406C.631 3.75 0 4.38 0 5.156v.938c0 .61.392 1.132.938 1.325v7.175c0 .775.63 1.406 1.406 1.406h11.312c.776 0 1.406-.63 1.406-1.406V7.419c.546-.193.938-.714.938-1.325v-.938c0-.775-.63-1.406-1.406-1.406zM8.86 3.336C9.58 1.514 9.852.938 10.813.938c.775 0 1.406.63 1.406 1.406 0 .775-.631 1.406-1.406 1.406H8.695l.164-.414zM5.188.938c.96 0 1.233.576 1.952 2.398l.164.414H5.187c-.775 0-1.406-.63-1.406-1.406 0-.776.631-1.406 1.406-1.406zm.937 14.124H2.344a.47.47 0 0 1-.469-.468V7.5h4.25v7.563zm0-8.5H1.406a.47.47 0 0 1-.468-.468v-.938a.47.47 0 0 1 .468-.468h4.719v1.875zm2.813 8.5H7.062V4.688h1.875v10.375zm5.187-.468a.47.47 0 0 1-.469.469H9.875V7.5h4.25v7.094zm.938-8.5a.47.47 0 0 1-.47.468H9.876V4.688h4.719a.47.47 0 0 1 .469.47v.937z"/>
</svg>
