<svg xmlns="http://www.w3.org/2000/svg" xmlns:xlink="http://www.w3.org/1999/xlink" width="22" height="22" viewBox="0 0 22 22">
    <defs>
        <path id="prefix__a" d="M11 0c6.075 0 11 4.925 11 11s-4.925 11-11 11S0 17.075 0 11 4.925 0 11 0zm0 2c-4.97 0-9 4.03-9 9s4.03 9 9 9 9-4.03 9-9-4.03-9-9-9zm0 8c.552 0 1 .448 1 1v4c0 .552-.448 1-1 1s-1-.448-1-1v-4c0-.552.448-1 1-1zm-.707-2.707c.39-.39 1.024-.39 1.414 0 .39.39.39 1.024 0 1.414-.39.39-1.024.39-1.414 0-.39-.39-.39-1.024 0-1.414z"/>
    </defs>
    <g fill="none" fill-rule="evenodd" transform="translate(-2790 -3762)">
        <use fill="#323E53" fill-rule="nonzero" xlink:href="#prefix__a"/>
    </g>
</svg>
