<svg xmlns="http://www.w3.org/2000/svg" width="120" height="48" viewBox="0 0 120 48">
    <g fill="none" fill-rule="nonzero">
        <path fill="#323E53" d="M17.61 32.061l-1.352-2.902H7.156l-1.352 2.902H.033v-.857L10.421 8.68h2.539l10.42 22.524v.857h-5.77zm-3.265-7.947l-2.671-6.068-2.605 6.068h5.276zm23.249-5.178L28.558 8.911h-2.176v23.15h6.034V21.772l4.881 5.145h.66l4.913-5.145v10.29h6.035V8.911h-2.11l-9.201 10.024zm33.34-9.959H53.456v5.276h8.574l-9.432 16.918v.89h15.33l3.105-5.276h-9.564l9.465-16.918v-.89z"/>
        <path fill="#FF8E12" d="M54.907 43.549h-2.931c-.068 5.22 9.591 5.084 9.591.102 0-2.966-2.304-3.271-4.66-3.525-1.068-.119-1.949-.305-1.881-1.203.102-1.407 3.288-1.543 3.288.033h2.88c.068-5.117-9.15-5.117-9.049 0 .034 2.576 1.729 3.458 4.304 3.644 1.187.068 2.17.203 2.17 1.034 0 1.39-3.712 1.423-3.712-.085zm7.973-2.305c.017 4.034 3.067 6.067 6.084 6.05 2.525 0 5.186-1.322 5.626-4.677h-2.982c-.322 1.27-1.356 1.915-2.644 1.915-1.796-.017-2.949-1.542-2.949-3.288 0-1.966 1.17-3.304 2.949-3.304 1.27 0 2.17.542 2.593 1.745h2.982c-.457-3.169-3.118-4.508-5.575-4.508-3.017 0-6.067 2.034-6.084 6.067zm31.173 3.373c-.882 0-1.814-.475-1.814-1.44v-7.864h-2.898v7.914c0 2.61 2.288 4.118 4.712 4.118 2.44 0 4.728-1.508 4.728-4.118v-7.914h-2.932v7.863c0 .966-.915 1.44-1.796 1.44zm8.93-6.593v9.152h3v-9.152h2.897v-2.711h-8.812v2.711h2.915zM88.088 41.261c0-8.202-12.167-8.202-12.167 0 0 8.22 12.167 8.22 12.167 0zm-9.05 0c0-4.27 5.949-4.27 5.949 0 0 4.305-5.948 4.305-5.948 0z"/>
        <path fill="#FCBD2B" d="M104.302 12.33L101.578 0l-17.48 5.483 5.964 3.277-13.115 23.607H88.21l7.293-13.266-4.648-2.554z"/>
        <path fill="#FF8E12" d="M104.333 12.383l11.734-3.68 3.802 17.21-5.767-3.17-5.33 9.628H96.184l.002-.004h1.668l4.925-9.15 4.494 2.468z"/>
    </g>
</svg>
