<svg xmlns="http://www.w3.org/2000/svg" width="24" height="21" viewBox="0 0 24 21">
    <path fill="#FFA23C" d="M23.532 5.373c.281-.1.468-.365.468-.663 0-.298-.188-.563-.47-.662L12.235.062c-.151-.053-.317-.053-.468 0L.47 4.048C.19 4.147 0 4.412 0 4.71c0 .298.187.564.468.663l4.475 1.591v4.587c0 .757.79 1.397 2.347 1.903 1.357.44 3.03.683 4.71.683 1.68 0 3.353-.243 4.71-.683 1.558-.506 2.347-1.146 2.347-1.903V6.964l1.848-.657v6.356c-.822.29-1.412 1.075-1.412 1.995 0 .92.59 1.704 1.412 1.994v2.685c0 .389.315.704.703.704.388 0 .703-.315.703-.704v-2.685c.822-.29 1.412-1.074 1.412-1.994 0-.92-.59-1.704-1.412-1.995V5.808l1.221-.435zm-1.924 9.994c-.39 0-.709-.318-.709-.71 0-.39.318-.708.71-.708.39 0 .708.318.708.709 0 .39-.318.709-.709.709zM12 1.47l9.19 3.242L12 7.981 2.81 4.713 12 1.471zm5.651 9.974c-.135.136-.617.461-1.706.772-1.162.331-2.563.514-3.945.514-1.382 0-2.783-.183-3.945-.514-1.089-.31-1.571-.636-1.706-.772v-3.98l5.415 1.925c.077.027.156.04.236.04.08 0 .16-.013.235-.04l5.416-1.926v3.981z"/>
</svg>
