<svg xmlns="http://www.w3.org/2000/svg" width="24" height="24" viewBox="0 0 24 24">
    <g fill="#FFA23C">
        <path d="M16.189 3.939c.387 0 .701-.314.701-.702V.703c0-.388-.314-.702-.701-.702-.388 0-.702.314-.702.702v2.534c0 .388.314.702.702.702zM13.382 3.939c.387 0 .701-.314.701-.702V.703c0-.388-.314-.702-.701-.702-.388 0-.702.314-.702.702v2.534c0 .388.314.702.702.702zM10.575 3.939c.387 0 .701-.314.701-.702V.703c0-.388-.314-.702-.701-.702-.388 0-.702.314-.702.702v2.534c0 .388.314.702.702.702zM7.768 3.939c.387 0 .701-.314.701-.702V.703C8.47.315 8.155 0 7.768 0c-.388 0-.702.314-.702.702v2.534c0 .388.314.702.702.702zM19.085 14.218h1.741c1.725 0 3.129-1.404 3.129-3.129v-.552c0-1.725-1.404-3.128-3.129-3.128h-.346v-.674c.272-.096.467-.355.467-.66 0-.388-.314-.702-.701-.702H3.71c-.388 0-.702.314-.702.701 0 .306.195.565.468.661V9.63c0 2.14.813 4.163 2.29 5.694l1.213 1.258H3.679C1.65 16.582 0 18.236 0 20.268s1.65 3.686 3.679 3.686h19.564c.388 0 .702-.314.702-.702 0-.387-.314-.702-.702-.702h-.132c-.421-.584-.658-1.364-.658-2.186 0-.917.3-1.785.81-2.38.378-.01.682-.32.682-.7 0-.388-.314-.702-.702-.702h-6.266l1.213-1.258c.333-.345.632-.716.895-1.106zm1.741-5.406c.951 0 1.725.774 1.725 1.725v.552c0 .951-.774 1.725-1.725 1.725h-.983c.417-.995.636-2.073.636-3.184v-.818h.347zM3.68 22.55c-1.255 0-2.275-1.023-2.275-2.282 0-1.258 1.02-2.282 2.275-2.282H21.59c-.242.484-.408 1.022-.487 1.59H3.726c-.388 0-.702.314-.702.702 0 .388.314.702.702.702h17.359c.061.553.205 1.085.42 1.57H3.68zm11.348-5.968H8.929L6.776 14.35C5.554 13.081 4.88 11.405 4.88 9.63V6.776h14.196V9.63c0 1.214-.315 2.382-.905 3.404-.068.072-.12.157-.153.252-.241.378-.521.735-.838 1.063l-2.153 2.233z"/>
    </g>
</svg>
