<svg width="100%" height="100%" viewBox="0 0 21 18" fill="none" xmlns="http://www.w3.org/2000/svg">
<path d="M14.567 7.28094L8.76588 3.09132C8.61875 2.98544 8.42488 2.97032 8.26331 3.05282C8.10175 3.13532 8 3.30169 8 3.48319V11.8624C8 12.0439 8.10175 12.2103 8.26331 12.2928C8.33206 12.3279 8.40769 12.3458 8.48331 12.3458C8.583 12.3458 8.68269 12.3148 8.76588 12.2543L14.567 8.06469C14.6928 7.97394 14.7671 7.82819 14.7671 7.67282C14.7671 7.51744 14.6928 7.37169 14.567 7.28094ZM8.96663 10.9171V4.42782L13.4581 7.67282L8.96663 10.9171Z" fill="#FFA23C"/>
<path d="M20.3833 0H0.616711C0.276117 0 0 0.33239 0 0.742398V14.4139C0 14.8239 0.276117 15.1563 0.616711 15.1563H8.32535V16.5152H6.66159C6.321 16.5152 6.04488 16.8476 6.04488 17.2576C6.04488 17.6676 6.321 18 6.66159 18H14.3384C14.679 18 14.9551 17.6676 14.9551 17.2576C14.9551 16.8476 14.679 16.5152 14.3384 16.5152H12.6746V15.1563H20.3833C20.7239 15.1563 21 14.8239 21 14.4139V0.742398C21 0.33239 20.7239 0 20.3833 0ZM11.4412 16.5153H9.55877V15.1563H11.4412V16.5153ZM20 14H1V1H20V14Z" fill="#FFA23C"/>
</svg>
