<svg xmlns="http://www.w3.org/2000/svg" width="24" height="24" viewBox="0 0 24 24">
    <g fill="#FFA23C">
        <path d="M20.485 3.515C18.22 1.248 15.205 0 12 0 8.795 0 5.781 1.248 3.515 3.515 1.248 5.78 0 8.795 0 12c0 3.205 1.248 6.219 3.515 8.485C5.78 22.752 8.795 24 12 24c3.205 0 6.219-1.248 8.485-3.515C22.752 18.22 24 15.205 24 12c0-3.205-1.248-6.219-3.515-8.485zM12 22.594C6.159 22.594 1.406 17.84 1.406 12 1.406 6.159 6.16 1.406 12 1.406c5.841 0 10.594 4.753 10.594 10.594 0 5.841-4.753 10.594-10.594 10.594z"/>
        <path d="M17.568 11.43L9.13 5.336c-.214-.154-.496-.176-.731-.056s-.383.362-.383.626v12.188c0 .264.148.506.383.626.1.051.21.077.32.077.145 0 .29-.045.411-.133l8.438-6.094c.183-.132.291-.344.291-.57 0-.226-.108-.438-.291-.57zm-8.146 5.289V7.28L15.955 12l-6.533 4.719z"/>
    </g>
</svg>
