<svg width="20" height="21" viewBox="0 0 20 21" fill="none" xmlns="http://www.w3.org/2000/svg">
<path fill-rule="evenodd" clip-rule="evenodd" d="M0 9.67818C0 4.34161 4.34161 0 9.67818 0C15.0147 0 19.3564 4.34161 19.3564 9.67818C19.3564 12.3891 18.236 14.8432 16.4341 16.6019C16.5585 16.6248 16.6776 16.6844 16.7739 16.7807L19.8104 19.8172C20.0632 20.0698 20.0632 20.4796 19.8104 20.7321C19.6841 20.8585 19.5186 20.9217 19.353 20.9217C19.1873 20.9217 19.0219 20.8585 18.8955 20.7321L15.859 17.6957C15.7415 17.5783 15.6787 17.427 15.6704 17.2732C14.0212 18.5772 11.939 19.3564 9.67818 19.3564C4.34161 19.3564 0 15.0147 0 9.67818ZM1.3826 9.67818C1.3826 14.0813 5.27504 17.9738 9.67818 17.9738C14.0813 17.9738 17.9738 14.0813 17.9738 9.67818C17.9738 5.27504 14.0811 1.3826 9.67818 1.3826C5.27504 1.3826 1.3826 5.27504 1.3826 9.67818Z" fill="#FFA23C"/>
<path d="M14.176 9.57251L7.84752 5.00201C7.68702 4.88651 7.47552 4.87001 7.29927 4.96001C7.12302 5.05001 7.01202 5.23151 7.01202 5.42951V14.5705C7.01202 14.7685 7.12302 14.95 7.29927 15.04C7.37427 15.0783 7.45677 15.0978 7.53927 15.0978C7.64802 15.0978 7.75677 15.064 7.84752 14.998L14.176 10.4275C14.3133 10.3285 14.3943 10.1695 14.3943 10C14.3943 9.83051 14.3133 9.67151 14.176 9.57251ZM8.06652 13.5393V6.46001L12.9663 10L8.06652 13.5393Z" fill="#FFA23C"/>
</svg>
