<svg xmlns="http://www.w3.org/2000/svg" width="24" height="24" viewBox="0 0 24 24">
    <g fill="#FFA23C">
        <path d="M11.982 0C7.787 0 4.374 3.413 4.374 7.608c0 1.217.28 2.38.83 3.457.47.92 1.134 1.747 1.933 2.409v6.566c0 2.164 1.76 3.925 3.925 3.925h1.841c2.165 0 3.925-1.76 3.925-3.925v-6.566c.799-.662 1.463-1.488 1.934-2.409.55-1.077.829-2.24.829-3.457C19.59 3.413 16.178 0 11.982 0zM8.54 17.519h6.885v1.82H8.54v-1.82zm7.165-4.946c-.177.132-.28.34-.28.56v2.982h-2.74v-6.088c0-.387-.315-.701-.703-.701-.619 0-1.122-.504-1.122-1.123 0-.62.503-1.123 1.122-1.123.62 0 1.123.504 1.123 1.123 0 .387.314.701.702.701.388 0 .702-.314.702-.701 0-1.393-1.134-2.527-2.527-2.527-1.393 0-2.526 1.134-2.526 2.527 0 1.15.772 2.121 1.825 2.426v5.486H8.54v-2.981c0-.22-.105-.429-.281-.561-1.578-1.185-2.482-2.995-2.482-4.965 0-3.421 2.783-6.204 6.204-6.204 3.422 0 6.205 2.783 6.205 6.204 0 1.97-.905 3.78-2.482 4.965zm-2.802 9.988h-1.841c-1.147 0-2.118-.77-2.422-1.82h6.685c-.304 1.05-1.275 1.82-2.422 1.82zM2.117 8.31c.388 0 .702-.314.702-.702 0-.387-.314-.701-.702-.701H.707c-.387 0-.701.314-.701.701 0 .388.314.702.702.702h1.409zM3 3.576l-1.324-.482c-.364-.133-.767.055-.9.419-.132.364.056.767.42.9l1.325.482c.079.028.16.042.24.042.286 0 .555-.177.659-.462.133-.364-.055-.767-.42-.9zM2.434 10.322l-1.324.482c-.365.133-.552.535-.42.9.104.285.373.462.66.462.08 0 .16-.014.24-.043l1.324-.482c.364-.133.552-.535.42-.9-.133-.364-.536-.552-.9-.419zM23.257 6.907h-1.409c-.388 0-.702.314-.702.701 0 .388.314.702.702.702h1.41c.387 0 .701-.314.701-.702 0-.387-.314-.701-.702-.701zM22.769 10.804l-1.325-.482c-.364-.132-.767.055-.9.42-.132.364.056.766.42.899l1.325.482c.079.029.16.043.24.043.286 0 .555-.177.66-.462.132-.365-.056-.767-.42-.9zM21.291 4.937c.08 0 .16-.014.24-.042l1.324-.483c.365-.132.552-.535.42-.9-.133-.363-.536-.551-.9-.418l-1.324.482c-.364.132-.552.535-.42.9.104.284.373.461.66.461z"/>
    </g>
</svg>
