<svg width="100%" height="100%" viewBox="0 0 18 18" fill="none" xmlns="http://www.w3.org/2000/svg">
<path d="M13.9943 8.57246L7.66582 4.00196C7.50532 3.88646 7.29382 3.86996 7.11757 3.95996C6.94132 4.04996 6.83032 4.23146 6.83032 4.42946V13.5705C6.83032 13.7685 6.94132 13.95 7.11757 14.04C7.19257 14.0782 7.27507 14.0977 7.35757 14.0977C7.46632 14.0977 7.57507 14.064 7.66582 13.998L13.9943 9.42746C14.1316 9.32846 14.2126 9.16946 14.2126 8.99996C14.2126 8.83046 14.1316 8.67146 13.9943 8.57246ZM7.88482 12.5392V5.45996L12.7846 8.99996L7.88482 12.5392Z" fill="#FFA23C"/>
<path d="M17.1398 12.8435C17.7106 11.6382 17.9998 10.3454 17.9998 8.99664C17.9998 4.182 14.1831 0.238374 9.40373 0.00682265C5.66039 -0.174462 -1.54753 3.2475 0.296651 11.4026C1.79389 16.8006 7.80736 19.5081 12.802 17.1359C17.487 18.0634 17.1217 17.9974 17.2293 17.9974C17.7162 17.9974 18.0799 17.5507 17.9848 17.0747L17.1398 12.8435ZM15.9304 13.0025L17 17L13.0002 15.9301C12.8303 15.8965 12.6542 15.9211 12.5 16C11.4462 16.5394 9.69279 17 8.5 17C4.39307 17 1 12.6122 1 8.5C1 4.38778 4.89307 1 9 1C13.1353 1 17 4.88778 17 9C17 10.1943 16.5387 11.4448 16 12.5C15.9208 12.6549 15.8964 12.8319 15.9304 13.0025Z" fill="#FFA23C"/>
</svg>
