<svg width="98" height="16" viewBox="0 0 98 16" fill="none" xmlns="http://www.w3.org/2000/svg">
<g clip-path="url(#clip0)">
<path fill-rule="evenodd" clip-rule="evenodd" d="M96.1947 3.01823C96.1622 2.98577 96.1298 2.98577 96.0973 2.95332C96.1947 2.92086 96.2921 2.88841 96.3245 2.85596C96.3894 2.79105 96.3894 2.72614 96.3894 2.66123C96.3894 2.59632 96.3894 2.53141 96.357 2.49896C96.3245 2.43405 96.2921 2.40159 96.2272 2.40159C96.1622 2.36914 96.0973 2.36914 96 2.36914H95.4807V3.50504H95.643V2.98577H95.8053C95.8377 2.98577 95.8702 2.98577 95.9026 2.98577C95.9351 2.98577 95.9351 3.01823 95.9675 3.01823C96 3.01823 96 3.05068 96.0324 3.08314C96.0649 3.11559 96.0973 3.1805 96.1298 3.24541L96.2921 3.47259H96.4868L96.2921 3.14805C96.2921 3.11559 96.2272 3.05068 96.1947 3.01823ZM96 2.85596H95.6754V2.4665H96.0324C96.1298 2.4665 96.1622 2.49896 96.2272 2.53141C96.2596 2.56387 96.2921 2.59632 96.2921 2.66123C96.2921 2.69368 96.2921 2.72614 96.2596 2.75859C96.2272 2.79105 96.2272 2.8235 96.1622 2.8235C96.0973 2.8235 96.0649 2.85596 96 2.85596Z" fill="#FF6A00"/>
<path fill-rule="evenodd" clip-rule="evenodd" d="M95.935 1.84985C95.3508 1.84985 94.864 2.33667 94.864 2.9533C94.864 3.56993 95.3508 4.05675 95.935 4.05675C96.5192 4.05675 97.006 3.56993 97.006 2.9533C97.0385 2.33667 96.5516 1.84985 95.935 1.84985ZM95.935 3.86202C95.4157 3.86202 95.0263 3.44012 95.0263 2.9533C95.0263 2.43403 95.4482 2.04458 95.935 2.04458C96.4543 2.04458 96.8437 2.46649 96.8437 2.9533C96.8437 3.44012 96.4543 3.86202 95.935 3.86202Z" fill="#FF6A00"/>
<path fill-rule="evenodd" clip-rule="evenodd" d="M21.9716 4.83572C21.1927 6.39353 18.8884 8.95743 17.9472 10.0284C17.3306 10.7424 16.714 11.424 16.2921 12.1055C15.8377 12.787 15.5781 13.4037 15.5456 13.9879C15.6105 18.6613 29.3063 11.8134 31.9675 9.99597C28.0405 11.6836 23.8215 13.3063 19.1805 13.6309C17.8823 13.6958 18.0121 13.0142 18.791 11.9757C20.5436 9.60652 23.8864 6.32863 23.9837 3.99191C24.1785 0.973656 21.1278 -0.0324298 17.9797 2.45534e-05C15.7728 0.0324789 13.5334 0.649112 11.9756 1.20084C6.65311 3.08319 3.31031 6.10144 1.20078 9.41179C-1.03857 12.7221 -0.292124 15.9027 4.41376 16C8.04865 15.8702 10.3854 14.8641 12.8194 13.5984C12.8194 13.5984 6.03648 15.5457 3.53749 14.1177C3.40767 14.1177 3.21295 13.9879 3.05067 13.858C1.68759 12.495 3.44013 10.9371 5.48475 10.0609V7.43207C5.8742 7.65925 6.10139 7.75662 6.26366 7.82153L7.78901 6.29617L7.26974 4.96554C11.8134 3.37528 13.6633 2.75865 17.363 2.14201L16.714 1.52538L17.785 0.908747C19.8296 1.59029 21.7444 1.84992 22.1987 3.08319C22.2312 3.05073 22.5233 3.66737 21.9716 4.83572Z" fill="#FF6A00"/>
<path d="M17.8175 0.876221L16.7465 1.49285L17.3956 2.10949C13.6958 2.72612 11.8459 3.34275 7.30225 4.93302L7.82152 6.26364L6.29617 7.789C6.03653 7.69164 5.7769 7.56182 5.51726 7.39955V10.0284C3.47264 10.9371 1.7201 12.5273 3.08319 13.8255C3.213 13.9553 3.44018 14.0527 3.57 14.0851C3.31037 13.9553 3.01828 13.7281 2.95337 13.1764C2.95337 12.0081 4.90063 10.7748 6.00408 10.3853V8.34072C6.81544 8.66527 7.69171 8.82754 8.60043 8.82754C10.353 8.82754 11.9757 8.17845 13.2414 7.13991C13.3063 7.30218 13.3063 7.49691 13.3063 7.72409H13.7931C13.858 7.20482 13.5659 6.78291 13.5659 6.78291C13.1116 6.06892 12.3327 6.10137 12.3327 6.10137C12.3327 6.10137 12.7546 6.2961 13.0467 6.71801C11.9108 7.69164 10.4179 8.27582 8.79515 8.27582C8.11361 8.27582 7.43207 8.17845 6.81544 7.98373L8.43816 6.39346L7.98379 5.22511C11.2292 4.0892 13.9554 3.21293 18.4016 2.43403L17.3956 1.59022L17.9148 1.26567C20.6085 2.01212 22.3611 2.56385 22.2637 3.99184C22.6856 1.91476 20.3165 1.68758 17.8175 0.876221Z" fill="black"/>
<path fill-rule="evenodd" clip-rule="evenodd" d="M88.4056 9.15203V4.0567H89.1521V4.77069C89.3468 4.51106 89.5415 4.31633 89.8012 4.15406C90.0933 3.99179 90.3854 3.92688 90.7424 3.92688C91.0994 3.92688 91.4239 4.02424 91.6511 4.15406C91.8783 4.31633 92.0405 4.51106 92.1379 4.80315C92.5273 4.18651 93.0791 3.92688 93.6957 3.92688C94.215 3.92688 94.572 4.0567 94.8641 4.34879C95.1237 4.64088 95.2535 5.06278 95.2535 5.64696V9.11958H94.3772V5.9066C94.3772 5.5496 94.3448 5.32242 94.3123 5.16015C94.2474 4.99787 94.1501 4.86806 93.9878 4.80315C93.858 4.70578 93.6632 4.67333 93.4685 4.67333C93.1115 4.67333 92.8194 4.77069 92.5922 5.03033C92.3651 5.25751 92.2353 5.64696 92.2353 6.16623V9.11958H91.359V5.84169C91.359 5.48469 91.2616 5.1926 91.1643 4.99787C91.0344 4.80315 90.7748 4.70578 90.4827 4.70578C90.2555 4.70578 90.0284 4.77069 89.8012 4.90051C89.6065 4.99787 89.4442 5.1926 89.3468 5.45223C89.2495 5.67942 89.217 6.06887 89.217 6.49077V9.15203H88.4056Z" fill="#FF6A00"/>
<path fill-rule="evenodd" clip-rule="evenodd" d="M81.0384 8.47055C80.7463 8.69773 80.1946 9.24945 79.1236 9.24945C77.7281 9.24945 76.3975 8.146 76.3975 6.52329C76.3975 4.90057 77.6956 3.79712 79.1236 3.79712C80.1297 3.79712 80.7788 4.34884 81.0384 4.57602C80.8762 4.8032 80.7139 5.25757 80.649 5.45229C80.1622 4.77075 79.4806 4.67339 79.1236 4.67339C78.0851 4.67339 77.2413 5.5172 77.2413 6.55574C77.2413 7.56183 78.0851 8.40564 79.1236 8.40564C79.7078 8.40564 80.2595 8.146 80.649 7.59428C80.7788 8.04864 80.9411 8.34073 81.0384 8.47055Z" fill="#FF6A00"/>
<path d="M75.3914 8.37317H74.5151V9.15207H75.3914V8.37317Z" fill="#FF6A00"/>
<path fill-rule="evenodd" clip-rule="evenodd" d="M84.4462 3.82959C82.9532 3.82959 81.72 5.06286 81.72 6.55576C81.72 8.04866 82.9532 9.28192 84.4462 9.28192C85.9391 9.28192 87.1723 8.04866 87.1723 6.55576C87.1723 5.0304 85.9391 3.82959 84.4462 3.82959ZM84.4462 8.40565C83.4076 8.40565 82.5638 7.56184 82.5638 6.55576C82.5638 5.51722 83.4076 4.6734 84.4462 4.6734C85.4522 4.6734 86.2636 5.51722 86.2636 6.55576C86.2961 7.56184 85.4522 8.40565 84.4462 8.40565Z" fill="#FF6A00"/>
<path d="M57.574 5.87423C57.574 4.57606 56.6003 3.95942 54.6531 3.92697C52.6409 3.89451 51.7971 4.41378 51.6348 5.51723H53.7119C53.8093 5.16023 54.0689 4.96551 54.5557 4.96551C55.0425 4.99796 55.3995 5.22514 55.432 5.87423C54.2961 5.90668 53.4847 5.97159 52.9006 6.10141C51.7971 6.36105 51.2778 6.94522 51.2778 7.75658C51.2778 8.30831 51.505 8.69776 51.9918 8.95739C52.3488 9.15212 52.8356 9.24948 53.4198 9.24948C54.361 9.21703 55.0425 8.95739 55.4644 8.37322V9.11967H57.574V5.87423ZM55.432 6.91277C55.432 7.65922 55.0425 8.04867 54.2961 8.04867C53.8093 8.04867 53.5821 7.8864 53.5821 7.5294C53.5821 7.20486 53.8417 7.01013 54.361 6.91277C54.5557 6.88031 54.9127 6.84786 55.4644 6.84786V6.91277H55.432Z" fill="#FF6A00"/>
<path d="M72.8275 5.87423C72.8275 4.57606 71.8539 3.95942 69.9066 3.92697C67.8945 3.89451 67.0506 4.41378 66.8884 5.51723H68.9654C69.0628 5.16023 69.3224 4.96551 69.8093 4.96551C70.2961 4.99796 70.6531 5.22514 70.6855 5.87423C69.5496 5.90668 68.7383 5.97159 68.1541 6.10141C67.0506 6.36105 66.5314 6.94522 66.5314 7.75658C66.5314 8.30831 66.7586 8.69776 67.2454 8.95739C67.6024 9.15212 68.0892 9.24948 68.6734 9.24948C69.6145 9.21703 70.2961 8.95739 70.718 8.37322V9.11967H72.8275V5.87423ZM70.6855 6.91277C70.6855 7.65922 70.2961 8.04867 69.5496 8.04867C69.0628 8.04867 68.8356 7.8864 68.8356 7.5294C68.8356 7.20486 69.0953 7.01013 69.6145 6.91277C69.8093 6.88031 70.1663 6.84786 70.718 6.84786V6.91277H70.6855Z" fill="#FF6A00"/>
<path d="M29.4685 1.84985L25.8336 9.15209H28.2028L28.787 7.85391H32.4219L32.9736 9.15209H35.6024L32.0649 1.84985H29.4685ZM29.4361 6.23119L30.6369 3.56993L31.7728 6.23119H29.4361Z" fill="#FF6A00"/>
<path d="M38.4908 1.84985H36.219V9.11963H38.4908V1.84985Z" fill="#FF6A00"/>
<path d="M42.2231 1.84985H39.9513V3.27785H42.2231V1.84985Z" fill="#FF6A00"/>
<path d="M42.2231 4.08923H39.9513V9.11966H42.2231V4.08923Z" fill="#FF6A00"/>
<path d="M43.6835 9.1521H45.9228V8.24338V8.21092C46.507 8.95737 47.2534 9.28192 48.1622 9.24946C48.6814 9.21701 49.1358 9.05474 49.5577 8.76265C50.1419 8.30829 50.434 7.69165 50.4664 6.97766C50.5313 6.19875 50.3366 5.51721 49.9147 4.90058C49.4928 4.38131 48.9411 4.05677 48.292 3.99186C47.3833 3.86204 46.5719 4.18658 45.9228 4.86812V1.88232H43.6835V9.1521ZM47.9999 7.43202C47.578 8.0162 47.0587 8.14601 46.4421 7.82147C46.4096 7.78902 46.3772 7.78902 46.3447 7.75656C46.15 7.56184 46.0202 7.33466 45.9553 7.07502C45.8904 6.68557 45.8904 6.29612 45.9877 5.90666C46.0526 5.64703 46.2149 5.4523 46.4096 5.29003C46.6693 5.16021 46.9289 5.09531 47.1885 5.12776C47.578 5.19267 47.8701 5.41985 47.9999 5.77685C48.0973 6.03648 48.1622 6.29612 48.1297 6.55575C48.1946 6.8803 48.1297 7.17238 47.9999 7.43202Z" fill="#FF6A00"/>
<path d="M58.9047 9.1521H61.144V8.24338V8.21092C61.7282 8.95737 62.4746 9.28192 63.3834 9.24946C63.9026 9.21701 64.357 9.05474 64.7789 8.76265C65.3631 8.30829 65.6552 7.69165 65.6876 6.97766C65.7525 6.19875 65.5578 5.51721 65.1359 4.90058C64.714 4.38131 64.1623 4.05677 63.5132 3.99186C62.6045 3.86204 61.7931 4.18658 61.144 4.86812V1.88232H58.9047V9.1521ZM63.2211 7.43202C62.7992 8.0162 62.2799 8.14601 61.6633 7.82147C61.6308 7.78902 61.5984 7.78902 61.5659 7.75656C61.3712 7.56184 61.2414 7.33466 61.1765 7.07502C61.1116 6.68557 61.1116 6.29612 61.2089 5.90666C61.2738 5.64703 61.4361 5.4523 61.6308 5.29003C61.8905 5.16021 62.1501 5.09531 62.4097 5.12776C62.7992 5.19267 63.0913 5.41985 63.2211 5.77685C63.3185 6.03648 63.3834 6.29612 63.3509 6.55575C63.4483 6.8803 63.3834 7.17238 63.2211 7.43202Z" fill="#FF6A00"/>
</g>
<defs>
<clipPath id="clip0">
<rect width="97.0385" height="16" fill="white"/>
</clipPath>
</defs>
</svg>
