<svg xmlns="http://www.w3.org/2000/svg" width="16" height="16" viewBox="0 0 16 16">
    <path fill="#B5B5B5" fill-rule="nonzero" d="M7.969 12.531a.625.625 0 1 1 0-1.25.625.625 0 0 1 0 1.25zm.625-2.812v-.84a2.605 2.605 0 0 0 1.998-2.628C10.54 4.9 9.432 3.803 8.07 3.752a2.62 2.62 0 0 0-1.935.733 2.56 2.56 0 0 0-.791 1.859.625.625 0 1 0 1.25 0c0-.364.145-.704.409-.958.272-.263.634-.4 1.02-.385a1.368 1.368 0 0 1 1.32 1.298A1.356 1.356 0 0 1 8.27 7.671c-.545.12-.926.592-.926 1.147v.9a.625.625 0 1 0 1.25 0zm3.545 5.128a.625.625 0 1 0-.647-1.069A6.738 6.738 0 0 1 8 14.75 6.758 6.758 0 0 1 1.25 8 6.758 6.758 0 0 1 8 1.25 6.758 6.758 0 0 1 14.75 8c0 1.33-.396 2.626-1.145 3.746a.625.625 0 0 0 1.04.695A7.968 7.968 0 0 0 16 8a7.948 7.948 0 0 0-2.343-5.657A7.948 7.948 0 0 0 8 0a7.948 7.948 0 0 0-5.657 2.343A7.948 7.948 0 0 0 0 8c0 2.137.832 4.146 2.343 5.657A7.948 7.948 0 0 0 8 16a7.987 7.987 0 0 0 4.14-1.153z"/>
</svg>
