<svg viewBox="0 0 20 12" fill="none" xmlns="http://www.w3.org/2000/svg">
<path d="M9.65189 10.1852C7.79874 11.1297 6.03734 11.8889 3.32184 12C-0.200973 11.9259 -0.769759 9.55562 0.899906 7.07421C2.47783 4.55576 4.9915 2.33361 8.99136 0.907721C10.1473 0.500325 11.8536 0.0188553 13.4866 0.000337347C15.8535 -0.0181806 18.147 0.722539 18.0002 3.00025C17.9085 4.74094 15.3948 7.20384 14.0921 9.00008C13.5233 9.77784 13.4316 10.2593 14.3857 10.2223C17.8901 10.0001 21.046 8.77787 24 7.50013C22.0184 8.85194 11.7252 14.0185 11.6885 10.4815C11.7069 10.0556 11.9087 9.57414 12.239 9.07416C12.5692 8.57417 13.0279 8.03715 13.505 7.51864C14.2022 6.70385 15.9452 4.77798 16.514 3.61135C17.5048 1.42622 15.2847 1.2966 13.4132 0.629951L12.5692 1.11142L13.0646 1.59289C10.2757 2.07435 8.89962 2.51879 5.4869 3.72246L5.87221 4.72243L4.69794 5.90758C4.67959 5.87054 4.49611 5.83351 4.12915 5.62981V7.55568C2.60627 8.24085 1.28521 9.40748 2.3127 10.426C2.42279 10.5186 2.56957 10.5926 2.67966 10.6111C4.5695 11.6296 9.65189 10.1852 9.65189 10.1852Z" fill="white"/>
</svg>
