<svg width="18" height="18" viewBox="0 0 18 18" fill="none" xmlns="http://www.w3.org/2000/svg">
<path d="M9 18C13.9706 18 18 13.9706 18 9C18 4.02944 13.9706 0 9 0C4.02944 0 0 4.02944 0 9C0 13.9706 4.02944 18 9 18Z" fill="#D80027"/>
<path d="M4.92539 5.47729L5.70234 7.86792H8.21602L6.18398 9.348L6.96094 11.7386L4.92539 10.2621L2.88984 11.7386L3.67031 9.348L1.63477 7.86792H4.14844L4.92539 5.47729Z" fill="#FFDA44"/>
<path d="M10.67 13.9394L10.0758 13.2082L9.19692 13.5492L9.70669 12.7582L9.11255 12.0234L10.0231 12.266L10.5364 11.475L10.5856 12.4172L11.4996 12.6597L10.6172 12.9972L10.67 13.9394Z" fill="#FFDA44"/>
<path d="M11.8512 11.7949L12.1325 10.8949L11.3625 10.35L12.3047 10.3359L12.5825 9.43591L12.8883 10.3289L13.8305 10.3183L13.0747 10.8808L13.377 11.7738L12.6071 11.2289L11.8512 11.7949Z" fill="#FFDA44"/>
<path d="M13.4437 6.60579L13.0289 7.45305L13.7039 8.11047L12.7722 7.97688L12.3574 8.82063L12.1957 7.8925L11.2605 7.75891L12.0972 7.31946L11.9355 6.38782L12.6105 7.04524L13.4437 6.60579Z" fill="#FFDA44"/>
<path d="M10.6946 4.03943L10.6243 4.9781L11.4997 5.33318L10.5821 5.55818L10.5153 6.50037L10.0196 5.6988L9.10205 5.9238L9.71025 5.2031L9.21104 4.40505L10.0864 4.76013L10.6946 4.03943Z" fill="#FFDA44"/>
</svg>
