<svg xmlns="http://www.w3.org/2000/svg" xmlns:xlink="http://www.w3.org/1999/xlink" width="40" height="40" viewBox="0 0 40 40">
    <defs>
        <path id="a" d="M20 40C8.954 40 0 31.046 0 20S8.954 0 20 0s20 8.954 20 20-8.954 20-20 20zm0-3.636c9.037 0 16.364-7.327 16.364-16.364S29.037 3.636 20 3.636 3.636 10.963 3.636 20 10.963 36.364 20 36.364zm1.818-9.091a1.818 1.818 0 1 1-3.636 0V20a1.818 1.818 0 1 1 3.636 0v7.273zM18.714 15.83a1.818 1.818 0 1 1 2.572-2.571 1.818 1.818 0 0 1-2.572 2.571z"/>
    </defs>
    <use fill="#313131" fill-rule="nonzero" xlink:href="#a"/>
</svg>
