<svg width="9" height="9" viewBox="0 0 9 9" fill="none" xmlns="http://www.w3.org/2000/svg">
<path fill-rule="evenodd" clip-rule="evenodd" d="M6.947 7.86868C7.04759 8.03471 6.99451 8.25087 6.82841 8.35146C6.12804 8.77574 5.32288 9 4.5 9C3.29803 9 2.16795 8.53191 1.31802 7.68198C0.468086 6.83205 0 5.70197 0 4.5C0 3.29803 0.468086 2.16795 1.31802 1.31802C2.16795 0.468086 3.29803 0 4.5 0C5.70197 0 6.83205 0.468086 7.68198 1.31802C8.53191 2.16795 9 3.29803 9 4.5C9 5.38824 8.7364 6.25211 8.23755 6.99815C8.12968 7.15958 7.91132 7.20298 7.74989 7.09504C7.58853 6.9871 7.54514 6.76875 7.65308 6.60738C8.07426 5.97732 8.29688 5.24865 8.29688 4.5C8.29688 2.40642 6.59358 0.703125 4.5 0.703125C2.40642 0.703125 0.703125 2.40642 0.703125 4.5C0.703125 6.59358 2.40642 8.29688 4.5 8.29688C5.1944 8.29688 5.87363 8.10777 6.46415 7.7501C6.63018 7.64951 6.84634 7.70258 6.947 7.86868ZM4.83398 5.46681V4.99475C5.51376 4.83029 5.98473 4.21355 5.95789 3.51612C5.9287 2.75669 5.30564 2.13919 4.53941 2.11049C4.13004 2.09497 3.74345 2.24164 3.45122 2.5231C3.16399 2.79975 3.00586 3.17095 3.00586 3.56838C3.00586 3.76256 3.16324 3.91994 3.35742 3.91994C3.55161 3.91994 3.70898 3.76256 3.70898 3.56838C3.70898 3.36376 3.79063 3.17239 3.93894 3.02957C4.09234 2.88187 4.29607 2.80503 4.51305 2.81307C4.91412 2.82817 5.24014 3.14884 5.25531 3.54318C5.26939 3.91067 5.01574 4.23538 4.65202 4.31517C4.34516 4.38253 4.13086 4.64772 4.13086 4.96014V5.46681C4.13086 5.661 4.28824 5.81838 4.48242 5.81838C4.67661 5.81838 4.83398 5.661 4.83398 5.46681ZM4.48242 7.04883C4.28824 7.04883 4.13086 6.89145 4.13086 6.69727C4.13086 6.50308 4.28824 6.3457 4.48242 6.3457C4.67661 6.3457 4.83398 6.50308 4.83398 6.69727C4.83398 6.89145 4.67661 7.04883 4.48242 7.04883Z" fill="white"/>
</svg>
