<svg width="20" height="21" viewBox="0 0 20 21" fill="none" xmlns="http://www.w3.org/2000/svg">
<path d="M19.0529 6.06396C19.0529 3.1283 16.6646 0.739975 13.7289 0.739975C12.3815 0.739975 11.1497 1.24338 10.2108 2.0716C10.172 0.922798 9.22593 0 8.06778 0C6.88507 0 5.92286 0.962207 5.92286 2.14492V3.29285C4.81433 3.69929 3.8247 4.42425 3.10264 5.36709C2.26177 6.46505 1.81734 7.77824 1.81734 9.16472V13.475C0.797183 13.5841 0 14.4499 0 15.4985C0 16.6208 0.913014 17.5338 2.03529 17.5338H5.50684C5.50684 19.0184 6.69663 20.1172 8.06786 20.1172C9.4409 20.1172 10.6289 19.0161 10.6289 17.5338H14.1004C15.2227 17.5338 16.1357 16.6208 16.1357 15.4985C16.1357 14.4499 15.3385 13.5842 14.3184 13.4751V11.3552C16.9776 11.0609 19.0529 8.80041 19.0529 6.06396ZM13.7289 1.91872C16.0146 1.91872 17.8742 3.77826 17.8742 6.06396C17.8742 8.34895 16.0158 10.208 13.731 10.2092C13.7303 10.2092 13.7296 10.209 13.7289 10.209C13.7282 10.209 13.7275 10.2092 13.7268 10.2092C11.4421 10.208 9.58368 8.34891 9.58368 6.06396C9.58364 3.78431 11.4382 1.91872 13.7289 1.91872ZM7.1016 2.14492C7.1016 1.61217 7.53503 1.17874 8.06778 1.17874C8.60053 1.17874 9.03395 1.61217 9.03395 2.14492V2.98854C8.40349 2.89075 7.73997 2.88949 7.1016 2.98862V2.14492ZM2.99609 9.16472C2.99609 6.14855 5.66079 3.71516 8.76461 4.14057C7.49491 7.40635 9.69405 10.974 13.1396 11.3552V13.4632H2.99609V9.16472ZM8.06778 18.9385C7.33558 18.9385 6.68551 18.357 6.68551 17.5338H9.45005C9.45005 18.3535 8.80316 18.9385 8.06778 18.9385ZM14.9569 15.4985C14.9569 15.9708 14.5727 16.355 14.1003 16.355C14.061 16.355 2.27163 16.355 2.03525 16.355C1.56293 16.355 1.1787 15.9708 1.1787 15.4985C1.1787 15.0262 1.56293 14.6419 2.03525 14.6419H14.1003C14.5726 14.6419 14.9569 15.0262 14.9569 15.4985Z" fill="#FFA23C"/>
</svg>
