<svg width="33" height="13" viewBox="0 0 33 13" fill="none" xmlns="http://www.w3.org/2000/svg">
    <path fill-rule="evenodd" clip-rule="evenodd" d="M4.47096 7.95802L4.84277 8.75002H6.4298V8.51602L3.56409 2.36902H2.8658L0.00915527 8.51602V8.75002H1.59618L1.968 7.95802H4.47096ZM3.21035 4.92503L3.94492 6.58103H2.49393L3.21035 4.92503ZM10.3384 5.16803L7.85355 2.43203H7.25501V8.75003H8.91459V5.94203L10.2568 7.34603H10.4381L11.7894 5.94203V8.75003H13.4489V2.43203H12.8685L10.3384 5.16803ZM14.7004 2.45003H19.5068V2.69303L16.9041 7.31003H19.534L18.6804 8.75003H14.4646V8.50703L17.0583 3.89003H14.7004V2.45003Z" fill="white"/>
    <path d="M28.683 3.36485L27.934 0L23.1272 1.49627L24.7672 2.3907L21.1604 8.83353H24.2578L26.2633 5.21286L24.9853 4.51588L28.683 3.36485Z" fill="white"/>
    <path d="M28.6917 3.37946L31.9186 2.37498L32.9641 7.07187L31.3781 6.20717L29.9125 8.83468H26.4504L26.4511 8.83359H26.9096L28.2639 6.33612L29.4998 7.00994L28.6917 3.37946Z" fill="white"/>
    <path fill-rule="evenodd" clip-rule="evenodd" d="M14.2934 11.8852H15.0997C15.0997 12.2969 16.1203 12.2876 16.1203 11.9084C16.1203 11.6817 15.85 11.6447 15.5238 11.6262C14.8154 11.5754 14.3494 11.3349 14.34 10.6319C14.3121 9.23512 16.8473 9.23512 16.8286 10.6319H16.0364C16.0364 10.2017 15.1602 10.2387 15.1323 10.6226C15.1136 10.8677 15.356 10.9186 15.6496 10.951C16.2974 11.0204 16.9312 11.1036 16.9312 11.913C16.9312 13.2727 14.2748 13.3097 14.2934 11.8852ZM18.9653 12.9074C18.1358 12.912 17.2969 12.357 17.2922 11.2563C17.2969 10.1555 18.1358 9.60051 18.9653 9.60051C19.641 9.60051 20.3727 9.96589 20.4985 10.8308H19.6783C19.5618 10.5024 19.3148 10.3544 18.9653 10.3544C18.476 10.3544 18.1544 10.7198 18.1544 11.2563C18.1544 11.7326 18.4713 12.1489 18.9653 12.1535C19.3195 12.1535 19.6038 11.9778 19.6923 11.6309H20.5125C20.3913 12.5466 19.6597 12.9074 18.9653 12.9074ZM25.8646 12.1766C25.6222 12.1766 25.3659 12.0471 25.3659 11.7835V9.6375H24.569V11.7974C24.569 12.5096 25.1981 12.9212 25.8646 12.9212C26.5356 12.9212 27.1648 12.5096 27.1648 11.7974V9.6375H26.3586V11.7835C26.3586 12.0471 26.1069 12.1766 25.8646 12.1766ZM28.3205 12.875V10.3775H27.5189V9.6375H29.9423V10.3775H29.1454V12.875H28.3205Z" fill="white"/>
    <path fill-rule="evenodd" clip-rule="evenodd" d="M24.2243 11.2609C24.2243 9.02238 20.8782 9.02238 20.8782 11.2609C20.8782 13.504 24.2243 13.504 24.2243 11.2609ZM21.7357 11.2609C21.7357 10.0954 23.3714 10.0954 23.3714 11.2609C23.3714 12.4356 21.7357 12.4356 21.7357 11.2609Z" fill="white"/>
</svg>
