<svg width="14" height="14" viewBox="0 0 14 14" fill="none" xmlns="http://www.w3.org/2000/svg">
<mask id="path-1-outside-1" maskUnits="userSpaceOnUse" x="0" y="0" width="14" height="14" fill="black">
<rect fill="white" width="14" height="14"/>
<path fill-rule="evenodd" clip-rule="evenodd" d="M1 6.06897C1 3.27393 3.27393 1 6.06897 1C8.86398 1 11.1379 3.27393 11.1379 6.06897C11.1379 7.30724 10.6916 8.44324 9.95143 9.32454L12.8701 12.2432C13.0433 12.4163 13.0433 12.697 12.8701 12.8701C12.7835 12.9567 12.6702 13 12.5567 13C12.4431 13 12.3298 12.9567 12.2432 12.8701L9.32452 9.95145C8.44322 10.6916 7.30723 11.1379 6.06897 11.1379C3.27393 11.1379 1 8.86401 1 6.06897ZM9.06861 8.98055C9.0522 8.99292 9.03645 9.00658 9.0215 9.02153C9.00652 9.0365 8.99284 9.05227 8.98045 9.06871C8.22695 9.80025 7.19965 10.2512 6.06897 10.2512C3.76281 10.2512 1.88671 8.37512 1.88671 6.06897C1.88671 3.76281 3.76281 1.88671 6.06897 1.88671C8.37498 1.88671 10.2512 3.76281 10.2512 6.06897C10.2512 7.1997 9.80021 8.22704 9.06861 8.98055Z"/>
</mask>
<path fill-rule="evenodd" clip-rule="evenodd" d="M1 6.06897C1 3.27393 3.27393 1 6.06897 1C8.86398 1 11.1379 3.27393 11.1379 6.06897C11.1379 7.30724 10.6916 8.44324 9.95143 9.32454L12.8701 12.2432C13.0433 12.4163 13.0433 12.697 12.8701 12.8701C12.7835 12.9567 12.6702 13 12.5567 13C12.4431 13 12.3298 12.9567 12.2432 12.8701L9.32452 9.95145C8.44322 10.6916 7.30723 11.1379 6.06897 11.1379C3.27393 11.1379 1 8.86401 1 6.06897ZM9.06861 8.98055C9.0522 8.99292 9.03645 9.00658 9.0215 9.02153C9.00652 9.0365 8.99284 9.05227 8.98045 9.06871C8.22695 9.80025 7.19965 10.2512 6.06897 10.2512C3.76281 10.2512 1.88671 8.37512 1.88671 6.06897C1.88671 3.76281 3.76281 1.88671 6.06897 1.88671C8.37498 1.88671 10.2512 3.76281 10.2512 6.06897C10.2512 7.1997 9.80021 8.22704 9.06861 8.98055Z" fill="#FFA23C"/>
<path d="M9.95143 9.32454L9.56855 9.00297L9.27375 9.35397L9.59787 9.6781L9.95143 9.32454ZM12.8701 12.2432L12.5166 12.5968L12.5167 12.5969L12.8701 12.2432ZM12.8701 12.8701L12.5167 12.5164L12.5166 12.5166L12.8701 12.8701ZM12.2432 12.8701L12.5968 12.5166L12.5968 12.5166L12.2432 12.8701ZM9.32452 9.95145L9.67807 9.59789L9.35395 9.27377L9.00295 9.56857L9.32452 9.95145ZM9.06861 8.98055L9.36956 9.37983L9.40042 9.35658L9.42734 9.32885L9.06861 8.98055ZM9.0215 9.02153L9.37492 9.37522L9.37505 9.37509L9.0215 9.02153ZM8.98045 9.06871L9.32874 9.42745L9.35649 9.40051L9.37976 9.36963L8.98045 9.06871ZM6.06897 0.5C2.99779 0.5 0.5 2.99779 0.5 6.06897H1.5C1.5 3.55007 3.55007 1.5 6.06897 1.5V0.5ZM11.6379 6.06897C11.6379 2.99779 9.14013 0.5 6.06897 0.5V1.5C8.58784 1.5 10.6379 3.55007 10.6379 6.06897H11.6379ZM10.3343 9.64611C11.1471 8.67839 11.6379 7.42956 11.6379 6.06897H10.6379C10.6379 7.18492 10.2362 8.20808 9.56855 9.00297L10.3343 9.64611ZM13.2237 11.8896L10.305 8.97099L9.59787 9.6781L12.5166 12.5968L13.2237 11.8896ZM13.2235 13.2238C13.5921 12.8554 13.5921 12.2579 13.2235 11.8895L12.5167 12.5969C12.4944 12.5746 12.4944 12.5387 12.5167 12.5164L13.2235 13.2238ZM12.5567 13.5C12.7975 13.5 13.0396 13.4077 13.2237 13.2237L12.5166 12.5166C12.5274 12.5057 12.5428 12.5 12.5567 12.5V13.5ZM11.8896 13.2237C12.0737 13.4077 12.3158 13.5 12.5567 13.5V12.5C12.5705 12.5 12.5859 12.5057 12.5968 12.5166L11.8896 13.2237ZM8.97096 10.305L11.8896 13.2237L12.5968 12.5166L9.67807 9.59789L8.97096 10.305ZM6.06897 11.6379C7.42955 11.6379 8.67837 11.1471 9.64609 10.3343L9.00295 9.56857C8.20807 10.2362 7.18491 10.6379 6.06897 10.6379V11.6379ZM0.5 6.06897C0.5 9.14015 2.99779 11.6379 6.06897 11.6379V10.6379C3.55007 10.6379 1.5 8.58787 1.5 6.06897H0.5ZM8.76766 8.58127C8.73271 8.60761 8.69939 8.63654 8.66796 8.66796L9.37505 9.37509C9.37352 9.37662 9.37169 9.37823 9.36956 9.37983L8.76766 8.58127ZM8.66809 8.66784C8.63655 8.69935 8.60754 8.73276 8.58114 8.76779L9.37976 9.36963C9.37814 9.37178 9.3765 9.37364 9.37492 9.37522L8.66809 8.66784ZM8.63216 8.70997C7.96789 9.35487 7.06402 9.75123 6.06897 9.75123V10.7512C7.33527 10.7512 8.48601 10.2456 9.32874 9.42745L8.63216 8.70997ZM6.06897 9.75123C4.03895 9.75123 2.38671 8.09898 2.38671 6.06897H1.38671C1.38671 8.65127 3.48667 10.7512 6.06897 10.7512V9.75123ZM2.38671 6.06897C2.38671 4.03895 4.03895 2.38671 6.06897 2.38671V1.38671C3.48667 1.38671 1.38671 3.48667 1.38671 6.06897H2.38671ZM6.06897 2.38671C8.09885 2.38671 9.75123 4.03897 9.75123 6.06897H10.7512C10.7512 3.48666 8.65112 1.38671 6.06897 1.38671V2.38671ZM9.75123 6.06897C9.75123 7.06407 9.35484 7.96797 8.70988 8.63225L9.42734 9.32885C10.2456 8.48611 10.7512 7.33533 10.7512 6.06897H9.75123Z" fill="#FFA23C" mask="url(#path-1-outside-1)"/>
</svg>
