<svg width="34" height="34" viewBox="0 0 34 34" fill="none" xmlns="http://www.w3.org/2000/svg">
<g clip-path="url(#clip0_604:3361)">
<path d="M5.08654 2.39412e-05H14.3303C14.999 -0.00203414 15.6614 0.128618 16.2792 0.384411C16.8971 0.640203 17.458 1.01605 17.9295 1.49018L32.5097 16.0703C32.982 16.5426 33.3567 17.1033 33.6123 17.7204C33.8679 18.3375 33.9995 18.9989 33.9995 19.6669C33.9995 20.3349 33.8679 20.9963 33.6123 21.6134C33.3567 22.2305 32.982 22.7912 32.5097 23.2635L23.2666 32.5099C22.7943 32.9823 22.2335 33.3571 21.6164 33.6128C20.9992 33.8684 20.3377 34 19.6697 34C19.0017 34 18.3402 33.8684 17.723 33.6128C17.1058 33.3571 16.5451 32.9823 16.0728 32.5099L1.48998 17.9297C1.01571 17.4581 0.639778 16.8971 0.383976 16.2792C0.128178 15.6612 -0.00239944 14.9986 -0.000179291 14.3298V5.08674C0.00140381 3.73815 0.53783 2.44524 1.49143 1.49164C2.44503 0.538034 3.73794 0.00160567 5.08654 2.39412e-05ZM5.94982 7.65002C6.28605 7.65002 6.61473 7.55032 6.89429 7.36352C7.17385 7.17672 7.39175 6.91122 7.52042 6.60058C7.64908 6.28995 7.68275 5.94814 7.61716 5.61837C7.55156 5.2886 7.38965 4.98569 7.1519 4.74794C6.91415 4.51019 6.61124 4.34828 6.28147 4.28269C5.95171 4.21709 5.60989 4.25076 5.29926 4.37943C4.98862 4.5081 4.72312 4.72599 4.53632 5.00555C4.34953 5.28512 4.24982 5.61379 4.24982 5.95002C4.24982 6.40089 4.42893 6.83329 4.74774 7.1521C5.06655 7.47092 5.49895 7.65002 5.94982 7.65002Z" fill="#505050"/>
<path d="M10.2265 15.7383L15.7383 10.2265C16.0152 9.94953 16.344 9.72979 16.7059 9.57987C17.0678 9.42995 17.4556 9.35278 17.8473 9.35278C18.239 9.35278 18.6269 9.42995 18.9888 9.57987C19.3507 9.72979 19.6795 9.94953 19.9564 10.2265L27.1761 17.4442C27.7341 18.0043 28.0474 18.7627 28.0474 19.5533C28.0474 20.3439 27.7341 21.1023 27.1761 21.6624L21.6644 27.1741C21.3874 27.4511 21.0586 27.6708 20.6967 27.8207C20.3349 27.9707 19.947 28.0478 19.5553 28.0478C19.1636 28.0478 18.7757 27.9707 18.4139 27.8207C18.052 27.6708 17.7232 27.4511 17.4462 27.1741L10.2265 19.9557C9.66876 19.3957 9.3556 18.6374 9.3556 17.847C9.3556 17.0565 9.66876 16.2983 10.2265 15.7383Z" fill="#F1C242"/>
<path d="M16.0595 15.3817C16.2587 15.1825 16.3915 15.1825 16.5854 15.3744L16.8816 15.6726C17.5669 15.1891 18.2887 15.0882 19.0597 15.3698C19.3698 15.4634 19.4276 15.6221 19.2974 15.9395L19.0232 16.6607C18.9149 16.9416 18.7921 17.0067 18.482 16.913C18.0563 16.7756 17.7322 16.826 17.3351 17.2232C16.8225 17.7351 16.7149 18.0599 17.025 18.37C17.2906 18.6356 17.6957 18.4364 18.3093 17.937C18.6097 17.6825 18.9306 17.4532 19.2689 17.2517C19.4418 17.1496 19.6292 17.0741 19.8247 17.0279C20.344 16.8951 21.0293 16.9615 21.6177 17.6123C22.3893 18.3839 22.4145 19.4225 21.6887 20.483L21.9988 20.7932C22.198 20.9924 22.198 21.1252 21.9988 21.3244L21.4503 21.8729C21.2551 22.0675 21.1183 22.0721 20.9191 21.8729L20.6236 21.5774C19.8081 22.1751 18.9933 22.284 18.1785 21.9161C17.9261 21.7935 17.8613 21.5989 17.9839 21.3324L18.302 20.6683C18.4348 20.3801 18.5762 20.3217 18.8791 20.4379C19.2901 20.6185 19.7018 20.4957 20.1129 20.0846C20.6614 19.5361 20.7836 19.1104 20.4741 18.8003C20.1859 18.5121 19.8101 18.6994 19.1825 19.212C18.7283 19.5653 18.4972 19.7532 17.9872 19.9764C17.7699 20.089 17.5316 20.1555 17.2873 20.1716C16.8689 20.2001 16.3138 20.0202 15.845 19.5514C15.0879 18.7937 15.0527 17.7909 15.8025 16.7523L15.507 16.4562C15.3124 16.2616 15.3197 16.1241 15.5149 15.9296L16.0595 15.3817Z" fill="#505050"/>
</g>
<defs>
<clipPath id="clip0_604:3361">
<rect width="34" height="34" fill="white" transform="matrix(-1 0 0 1 34 0)"/>
</clipPath>
</defs>
</svg>
