<svg width="187" height="142" viewBox="0 0 187 142" fill="none" xmlns="http://www.w3.org/2000/svg">
<path d="M186.351 136.264H0V137.626H186.351V136.264Z" fill="#85848B"/>
<path d="M141.677 67.1101V64.9041C141.676 63.2802 141.031 61.7229 139.883 60.5747C138.735 59.4266 137.178 58.7816 135.555 58.7816H48.4693C46.846 58.7816 45.2891 59.4266 44.1411 60.5747C42.9931 61.7229 42.3479 63.2802 42.3474 64.9041V68.9715L141.677 67.1101Z" fill="white"/>
<path opacity="0.1" d="M118.101 91.9659C121.133 89.8473 119.906 82.8561 115.361 76.3505C110.817 69.8449 104.674 66.2885 101.642 68.4071C98.6106 70.5256 99.8371 77.5169 104.382 84.0224C108.927 90.528 115.069 94.0844 118.101 91.9659Z" fill="black"/>
<path d="M53.5386 89.4507C53.5386 89.4507 60.524 103.209 65.3125 106.421C70.101 109.632 81.4506 128.612 81.4506 128.612C81.4506 128.612 108.181 117.848 122.799 102.756C137.417 87.6636 173.753 65.4569 173.753 65.4569L144.866 26.0995C144.866 26.0995 112.518 40.6173 99.205 58.5099C85.8916 76.4026 53.5386 89.4507 53.5386 89.4507Z" fill="#8DD070"/>
<path opacity="0.1" d="M53.5386 89.4507C53.5386 89.4507 60.524 103.209 65.3125 106.421C70.101 109.632 81.4506 128.612 81.4506 128.612C81.4506 128.612 108.181 117.848 122.799 102.756C137.417 87.6636 173.753 65.4569 173.753 65.4569L144.866 26.0995C144.866 26.0995 112.518 40.6173 99.205 58.5099C85.8916 76.4026 53.5386 89.4507 53.5386 89.4507Z" fill="black"/>
<path d="M61.7803 91.4715C61.7803 91.4715 66.9326 103.147 70.8214 105.693C74.7101 108.239 83.2829 124.246 83.2829 124.246C83.2829 124.246 106.652 113.257 119.959 99.1619C133.267 85.0669 165.47 63.4744 165.47 63.4744L143.151 30.5991C143.151 30.5991 114.785 45.2092 102.427 61.6832C90.0694 78.1573 61.7803 91.4715 61.7803 91.4715Z" fill="#8DD070"/>
<path opacity="0.2" d="M116.726 14.357C116.726 14.357 90.3946 38.1068 83.2155 59.2236C76.0364 80.3403 49.2495 102.692 49.2495 102.692C49.2495 102.692 60.1171 113.642 65.6587 115.231C71.2003 116.819 87.8231 131.405 87.8231 131.405C87.8231 131.405 109.957 112.953 119.234 94.0974C128.511 75.2414 156.284 42.9462 156.284 42.9462L116.726 14.357Z" fill="black"/>
<path d="M47.7608 100.979C47.7608 100.979 58.6276 111.932 64.1661 113.522C69.7046 115.113 86.3296 129.695 86.3296 129.695C86.3296 129.695 108.468 111.243 117.746 92.3864C127.024 73.5296 154.797 41.2408 154.797 41.2408L115.237 12.6469C115.237 12.6469 88.9067 36.3959 81.7276 57.5126C74.5485 78.6294 47.7608 100.979 47.7608 100.979Z" fill="#8DD070"/>
<path opacity="0.1" d="M47.7608 100.979C47.7608 100.979 58.6276 111.932 64.1661 113.522C69.7046 115.113 86.3296 129.695 86.3296 129.695C86.3296 129.695 108.468 111.243 117.746 92.3864C127.024 73.5296 154.797 41.2408 154.797 41.2408L115.237 12.6469C115.237 12.6469 88.9067 36.3959 81.7276 57.5126C74.5485 78.6294 47.7608 100.979 47.7608 100.979Z" fill="black"/>
<path d="M56.2191 100.377C56.2191 100.377 64.7054 109.909 69.1873 111.138C73.6692 112.366 86.7336 124.97 86.7336 124.97C86.7336 124.97 105.599 107.337 113.939 89.8355C122.279 72.3341 146.312 41.91 146.312 41.91L114.981 17.4559C114.981 17.4559 92.4696 40.0662 85.7628 59.5415C79.056 79.0167 56.2191 100.377 56.2191 100.377Z" fill="#8DD070"/>
<path opacity="0.1" d="M109.973 83.5574C112.209 80.6103 108.897 74.3321 102.576 69.5347C96.2546 64.7372 89.3183 63.2373 87.0829 66.1844C84.8475 69.1315 88.1596 75.4097 94.4806 80.2071C100.802 85.0046 107.738 86.5045 109.973 83.5574Z" fill="black"/>
<path opacity="0.1" d="M144.027 69.2752V130.553C144.027 131.249 143.89 131.938 143.624 132.581C143.358 133.224 142.967 133.809 142.475 134.301C141.983 134.793 141.399 135.183 140.757 135.449C140.114 135.715 139.425 135.852 138.729 135.852H47.647C46.2427 135.851 44.896 135.293 43.9031 134.299C42.9103 133.306 42.3525 131.958 42.3525 130.553V63.0977C44.9625 64.0675 44.9625 64.0675 47.647 63.9857H138.729C140.133 63.9857 141.478 64.5427 142.472 65.5343C143.465 66.526 144.024 67.8714 144.027 69.2752Z" fill="black"/>
<path d="M144.027 70.0549V131.333C144.027 132.738 143.468 134.086 142.475 135.08C141.481 136.073 140.134 136.631 138.729 136.631H47.647C46.2427 136.631 44.896 136.073 43.9031 135.079C42.9103 134.085 42.3525 132.738 42.3525 131.333V63.8756C44.9625 64.8436 44.9625 64.8436 47.647 64.7637H138.729C140.133 64.7637 141.479 65.3209 142.472 66.3129C143.466 67.305 144.025 68.6508 144.027 70.0549Z" fill="#505050"/>
<path opacity="0.1" d="M143.768 92.7102V112.307H124.771C122.196 112.272 119.738 111.225 117.93 109.391C116.121 107.557 115.107 105.085 115.107 102.508C115.107 99.9324 116.121 97.46 117.93 95.6262C119.738 93.7925 122.196 92.7449 124.771 92.7102H143.768Z" fill="black"/>
<path d="M125.033 92.6915L143.527 92.6881V111.288H125.033C122.591 111.254 120.26 110.26 118.545 108.521C116.829 106.781 115.866 104.435 115.866 101.99C115.866 99.5452 116.829 97.1989 118.545 95.4587C120.26 93.7193 122.591 92.7253 125.033 92.6915Z" fill="#FFC742" stroke="white"/>
<path opacity="0.1" d="M125.941 106.33C128.05 106.33 129.76 104.619 129.76 102.509C129.76 100.399 128.05 98.6887 125.941 98.6887C123.831 98.6887 122.121 100.399 122.121 102.509C122.121 104.619 123.831 106.33 125.941 106.33Z" fill="black"/>
<path d="M126.2 105.811C128.309 105.811 130.019 104.101 130.019 101.991C130.019 99.8807 128.309 98.1702 126.2 98.1702C124.091 98.1702 122.381 99.8807 122.381 101.991C122.381 104.101 124.091 105.811 126.2 105.811Z" fill="white"/>
<path d="M41.6886 134.756L41.6885 134.756C35.6605 132.973 32.222 126.647 34.0065 120.626C35.791 114.606 42.1239 111.17 48.1501 112.953L48.1502 112.953C54.1781 114.736 57.6155 121.061 55.8328 127.082C54.0469 133.103 47.7147 136.539 41.6886 134.756Z" fill="#EFA748" stroke="white"/>
<path d="M54.2535 126.616C52.7267 131.766 47.3104 134.705 42.156 133.18C37.001 131.655 34.0589 126.245 35.5856 121.095C37.1123 115.944 42.528 113.005 47.683 114.529C52.838 116.055 55.7789 121.466 54.2535 126.616Z" fill="#FED248"/>
<path d="M47.7084 121.894C47.8629 121.149 47.3008 120.585 46.0176 120.202C44.7306 119.816 43.9835 119.968 43.7781 120.651C43.6534 121.071 43.7666 121.437 44.1259 121.75C44.4826 122.065 45.2533 122.529 46.4341 123.143C47.6143 123.759 48.4136 124.434 48.8313 125.174C49.2504 125.911 49.3248 126.731 49.0539 127.631C48.7398 128.683 48.0251 129.354 46.9123 129.645C45.8008 129.936 44.6371 129.899 43.422 129.535C40.4894 128.656 39.1534 127.033 39.4186 124.665L41.9048 125.197C41.7306 126.428 42.4224 127.277 43.9777 127.744C45.4364 128.179 46.3114 127.905 46.6077 126.917C46.7387 126.48 46.6605 126.102 46.3692 125.782C46.0818 125.461 45.3207 124.979 44.0916 124.333C42.8637 123.687 42.0358 123.016 41.6129 122.318C41.1907 121.621 41.0966 120.883 41.3306 120.103C41.5818 119.266 42.1681 118.67 43.0856 118.313C44.007 117.956 45.177 117.992 46.6001 118.418C49.4176 119.262 50.6156 120.638 50.1921 122.544L47.7084 121.894Z" fill="#E29524"/>
<path d="M47.7898 119.023L45.4778 118.33L46.1079 116.228L48.4219 116.921L47.7898 119.023Z" fill="#E29524"/>
<path d="M42.3429 128.771L41.7115 130.874L44.0259 131.567L44.6573 129.465L42.3429 128.771Z" fill="#E29524"/>
<path d="M36.6575 119.913C36.6575 118.981 37.0695 117.563 37.3779 117.255C37.6787 116.954 39.1043 116.535 40.0378 116.535C39.1043 116.535 37.7321 116.171 37.3779 115.816C37.0059 115.445 36.6575 114.092 36.6575 113.159C36.6575 114.115 36.2982 115.456 35.89 115.862C35.4722 116.281 34.1865 116.535 33.2778 116.535C34.2107 116.535 35.5867 116.905 35.937 117.255C36.2919 117.61 36.6575 118.981 36.6575 119.913Z" fill="white"/>
<path d="M38.9139 120.436C38.9139 120.104 39.0602 119.6 39.1695 119.49C39.277 119.383 39.7851 119.235 40.117 119.234C39.7851 119.235 39.2955 119.104 39.1695 118.978C39.0373 118.846 38.9139 118.363 38.9139 118.032C38.9139 118.372 38.7848 118.85 38.6405 118.995C38.4911 119.144 38.0339 119.235 37.7096 119.235C38.0409 119.235 38.5324 119.367 38.6564 119.491C38.7836 119.616 38.9139 120.104 38.9139 120.436Z" fill="white"/>
<path d="M34.5098 122.979C34.5098 122.519 34.7127 121.818 34.8646 121.667C35.0134 121.518 35.7186 121.311 36.1796 121.311C35.7186 121.311 35.0401 121.131 34.8646 120.956C34.6809 120.772 34.5098 120.103 34.5098 119.642C34.5098 120.114 34.3318 120.778 34.1302 120.978C33.9229 121.184 33.2889 121.311 32.8387 121.311C33.2998 121.311 33.9795 121.493 34.1531 121.666C34.3299 121.842 34.5098 122.519 34.5098 122.979Z" fill="white"/>
<path d="M63.6168 51.3368L63.6169 51.3368C70.202 53.2851 77.1205 49.5301 79.0704 42.9525C81.019 36.3744 77.2625 29.4624 70.6775 27.5142C64.0923 25.5659 57.1738 29.3209 55.2239 35.8991L63.6168 51.3368ZM63.6168 51.3368C57.0324 49.3891 53.2747 42.4771 55.2239 35.8992L63.6168 51.3368Z" fill="#EFA748" stroke="white"/>
<path d="M77.3084 42.4319C75.6469 48.0389 69.7505 51.2381 64.1389 49.5775C58.5267 47.9182 55.3245 42.0266 56.986 36.4203C58.6482 30.8127 64.5446 27.6135 70.1561 29.2728C75.7677 30.9341 78.9699 36.825 77.3084 42.4319Z" fill="#FED248"/>
<path d="M70.1823 37.2919C70.3501 36.4807 69.7391 35.867 68.3421 35.4496C66.9413 35.0297 66.1286 35.1936 65.9042 35.9388C65.7681 36.3955 65.8921 36.7945 66.2825 37.135C66.6717 37.4774 67.5097 37.9831 68.7954 38.6514C70.0818 39.3216 70.951 40.0566 71.4057 40.8622C71.8616 41.6645 71.9436 42.5584 71.6479 43.5392C71.3052 44.684 70.5275 45.4146 69.3156 45.7316C68.1062 46.0479 66.8389 46.0079 65.5163 45.6115C62.3236 44.6548 60.8694 42.8887 61.1568 40.3088L63.8649 40.8876C63.6748 42.2287 64.4283 43.153 66.1216 43.6606C67.7087 44.1351 68.6625 43.8359 68.9849 42.7616C69.1267 42.2852 69.0422 41.8729 68.7255 41.5254C68.4114 41.1766 67.5835 40.6506 66.245 39.9486C64.9084 39.2448 64.0067 38.5136 63.5464 37.7557C63.0873 36.9959 62.9836 36.1916 63.238 35.3435C63.512 34.4319 64.1498 33.7814 65.15 33.3932C66.1515 33.0051 67.4258 33.0438 68.9754 33.5082C72.0434 34.4268 73.3482 35.9242 72.8866 37.9996L70.1823 37.2919Z" fill="#E29524"/>
<path d="M70.2725 34.1664L67.7551 33.4117L68.44 31.1234L70.9599 31.8775L70.2725 34.1664Z" fill="#E29524"/>
<path d="M64.3452 44.7798L63.6576 47.0682L66.1766 47.8236L66.8642 45.5352L64.3452 44.7798Z" fill="#E29524"/>
<path d="M77.0129 36.6599C77.0129 35.6447 77.4618 34.1003 77.7969 33.7655C78.125 33.4384 79.6765 32.9829 80.692 32.9822C79.6765 32.9829 78.1829 32.5852 77.7969 32.1996C77.3925 31.7956 77.0129 30.3204 77.0129 29.3059C77.0129 30.3459 76.6206 31.807 76.1793 32.2479C75.7221 32.704 74.3232 32.9816 73.3337 32.9816C74.3492 32.9816 75.848 33.3837 76.2295 33.7649C76.6155 34.1518 77.0129 35.644 77.0129 36.6599Z" fill="white"/>
<path d="M79.4692 37.2297C79.4692 36.8676 79.6294 36.318 79.749 36.1993C79.866 36.0824 80.4179 35.9204 80.7797 35.9197C80.4179 35.9197 79.8863 35.7787 79.749 35.6415C79.6046 35.4973 79.4692 34.9732 79.4692 34.6117C79.4692 34.9814 79.3299 35.5017 79.1722 35.6593C79.0101 35.8213 78.5115 35.9197 78.1599 35.9197C78.5205 35.9197 79.0552 36.0633 79.19 36.1993C79.328 36.3365 79.4692 36.8676 79.4692 37.2297Z" fill="white"/>
<path d="M74.6749 39.9976C74.6749 39.4958 74.8968 38.7334 75.0621 38.5683C75.2243 38.4056 75.9905 38.1807 76.4928 38.1807C75.9905 38.1807 75.2529 37.9851 75.0621 37.7945C74.8624 37.5944 74.6749 36.8663 74.6749 36.3651C74.6749 36.8791 74.4816 37.6014 74.2628 37.8186C74.0377 38.0441 73.3465 38.1807 72.8575 38.1807C73.3599 38.1807 74.1 38.3796 74.2876 38.5683C74.4784 38.7588 74.6749 39.4958 74.6749 39.9976Z" fill="white"/>
</svg>
