<svg width="119" height="91" viewBox="0 0 119 91" fill="none" xmlns="http://www.w3.org/2000/svg">
<path d="M11.9689 5.6333e-05H33.7192C35.2926 -0.00478627 36.8513 0.302634 38.305 0.904506C39.7587 1.50638 41.0785 2.39074 42.188 3.50635L76.4947 37.813C77.6061 38.9243 78.4877 40.2436 79.0892 41.6956C79.6907 43.1476 80.0002 44.7039 80.0002 46.2756C80.0002 47.8473 79.6907 49.4036 79.0892 50.8556C78.4877 52.3076 77.6061 53.6269 76.4947 54.7382L54.746 76.4947C53.6347 77.6063 52.3152 78.4881 50.8631 79.0898C49.4109 79.6914 47.8545 80.0011 46.2826 80.0011C44.7107 80.0011 43.1543 79.6914 41.7021 79.0898C40.25 78.4881 38.9305 77.6063 37.8192 76.4947L3.50632 42.1881C2.39038 41.0785 1.50582 39.7584 0.903934 38.3044C0.302046 36.8504 -0.00519663 35.2913 2.57577e-05 33.7176V11.9689C0.00374751 8.79574 1.26594 5.75357 3.50974 3.50977C5.75354 1.26598 8.79571 0.00377809 11.9689 5.6333e-05V5.6333e-05ZM14.0002 18.0003C14.7913 18.0003 15.5647 17.7657 16.2225 17.3261C16.8803 16.8866 17.393 16.2619 17.6958 15.531C17.9985 14.8001 18.0777 13.9958 17.9234 13.2199C17.769 12.4439 17.3881 11.7312 16.8287 11.1718C16.2692 10.6123 15.5565 10.2314 14.7806 10.077C14.0046 9.92269 13.2004 10.0019 12.4694 10.3047C11.7385 10.6074 11.1138 11.1201 10.6743 11.7779C10.2347 12.4357 10.0001 13.2091 10.0001 14.0002C10.0001 15.0611 10.4216 16.0785 11.1717 16.8287C11.9219 17.5788 12.9393 18.0003 14.0002 18.0003V18.0003Z" fill="#505050"/>
<path d="M24.0626 37.0316L37.0315 24.0627C37.6831 23.411 38.4568 22.8939 39.3082 22.5412C40.1597 22.1884 41.0724 22.0068 41.994 22.0068C42.9157 22.0068 43.8283 22.1884 44.6798 22.5412C45.5313 22.8939 46.3049 23.411 46.9566 24.0627L63.9443 41.0458C65.2572 42.3636 65.9944 44.1481 65.9944 46.0083C65.9944 47.8686 65.2572 49.653 63.9443 50.9709L50.9754 63.9398C50.3237 64.5916 49.5501 65.1086 48.6986 65.4614C47.8471 65.8141 46.9345 65.9957 46.0128 65.9957C45.0912 65.9957 44.1785 65.8141 43.327 65.4614C42.4755 65.1086 41.7019 64.5916 41.0503 63.9398L24.0626 46.9552C22.7501 45.6374 22.0132 43.8533 22.0132 41.9934C22.0132 40.1336 22.7501 38.3494 24.0626 37.0316Z" fill="#F1C242"/>
<path d="M37.7877 36.1926C38.2564 35.7239 38.5689 35.7239 39.0252 36.1754L39.7221 36.877C41.3346 35.7395 43.033 35.502 44.8471 36.1645C45.5768 36.3848 45.7128 36.7583 45.4065 37.5051L44.7612 39.202C44.5065 39.863 44.2174 40.0161 43.4877 39.7958C42.4862 39.4723 41.7237 39.5911 40.7893 40.5255C39.583 41.7302 39.3299 42.4943 40.0596 43.224C40.6846 43.849 41.6377 43.3802 43.0815 42.2052C43.7882 41.6062 44.5434 41.0669 45.3393 40.5927C45.7463 40.3524 46.1872 40.1748 46.6471 40.0661C47.869 39.7536 49.4816 39.9099 50.8659 41.4411C52.6816 43.2568 52.741 45.7005 51.0331 48.1959L51.7628 48.9256C52.2316 49.3943 52.2316 49.7068 51.7628 50.1756L50.4722 51.4662C50.0128 51.9241 49.6909 51.935 49.2222 51.4662L48.5269 50.7709C46.6081 52.1772 44.6909 52.4334 42.7737 51.5678C42.1799 51.2793 42.0273 50.8214 42.3158 50.1944L43.0643 48.6318C43.3768 47.9537 43.7096 47.8162 44.4221 48.0896C45.3893 48.5146 46.3581 48.2256 47.3253 47.2584C48.6159 45.9677 48.9034 44.9662 48.1753 44.2365C47.4972 43.5583 46.6128 43.999 45.1362 45.2052C44.0674 46.0365 43.5237 46.4787 42.3237 47.0037C41.8122 47.2687 41.2515 47.4251 40.6768 47.4631C39.6924 47.5303 38.3861 47.1068 37.283 46.0037C35.5017 44.2208 35.4189 41.8614 37.183 39.4177L36.4877 38.7208C36.0298 38.263 36.047 37.9395 36.5064 37.4817L37.7877 36.1926Z" fill="#505050"/>
<path d="M115.197 81.0463L102.669 68.4537C105.615 64.2308 107.363 59.1059 107.363 53.5582C107.363 39.1892 95.7296 27.5 81.4315 27.5C67.1178 27.5 55.5 39.205 55.5 53.5582C55.5 67.9272 67.1335 79.6163 81.4315 79.6163C86.9508 79.6163 92.0482 77.8605 96.2484 74.9038L108.767 87.4873C109.66 88.3853 110.822 88.8238 111.989 88.8238C113.156 88.8238 114.318 88.3853 115.211 87.4873C116.98 85.7099 116.97 82.8291 115.197 81.0463ZM81.4315 70.4878C72.1592 70.4878 64.5969 62.8975 64.5969 53.5582C64.5969 44.2188 72.1592 36.6285 81.4315 36.6285C90.7008 36.6285 98.2515 44.2303 98.2515 53.5728C98.2515 62.8983 90.7031 70.4878 81.4315 70.4878Z" fill="#F1C242" stroke="#F9FAFE" stroke-width="3"/>
</svg>
