<svg width="72" height="72" viewBox="0 0 72 72" fill="none" xmlns="http://www.w3.org/2000/svg">
<g clip-path="url(#clip0_604:3195)">
<path d="M14.4 7.2H72L61.2 39.6H14.4C13.4452 39.6 12.5295 39.9793 11.8544 40.6544C11.1793 41.3295 10.8 42.2452 10.8 43.2C10.8 44.1548 11.1793 45.0705 11.8544 45.7456C12.5295 46.4207 13.4452 46.8 14.4 46.8H61.2V54H14.4C11.5357 54 8.78864 52.8621 6.76325 50.8368C4.73785 48.8114 3.6 46.0643 3.6 43.2C3.6 40.3357 4.73785 37.5886 6.76325 35.5632C8.78864 33.5379 11.5357 32.4 14.4 32.4H15.588L10.8 18L7.2 7.2H0V0H10.8C11.7548 0 12.6705 0.379285 13.3456 1.05442C14.0207 1.72955 14.4 2.64522 14.4 3.6V7.2Z" fill="#F1C242"/>
<path d="M12.9089 69.8911C14.2591 71.2414 16.0905 72 18 72C19.9096 72 21.741 71.2414 23.0912 69.8911C24.4415 68.5409 25.2 66.7095 25.2 64.8C25.2 62.8904 24.4415 61.0591 23.0912 59.7088C21.741 58.3585 19.9096 57.6 18 57.6C16.0905 57.6 14.2591 58.3585 12.9089 59.7088C11.5586 61.0591 10.8 62.8904 10.8 64.8C10.8 66.7095 11.5586 68.5409 12.9089 69.8911Z" fill="#505050"/>
<path d="M48.9089 69.8911C50.2591 71.2414 52.0905 72 54 72C55.9096 72 57.741 71.2414 59.0912 69.8911C60.4415 68.5409 61.2 66.7095 61.2 64.8C61.2 62.8904 60.4415 61.0591 59.0912 59.7088C57.741 58.3585 55.9096 57.6 54 57.6C52.0905 57.6 50.2591 58.3585 48.9089 59.7088C47.5586 61.0591 46.8 62.8904 46.8 64.8C46.8 66.7095 47.5586 68.5409 48.9089 69.8911Z" fill="#505050"/>
</g>
<defs>
<clipPath id="clip0_604:3195">
<rect width="72" height="72" fill="white"/>
</clipPath>
</defs>
</svg>
