<?xml version="1.0" encoding="utf-8"?>
<!-- Generator: Adobe Illustrator 17.0.0, SVG Export Plug-In . SVG Version: 6.00 Build 0)  -->
<!DOCTYPE svg PUBLIC "-//W3C//DTD SVG 1.1//EN" "http://www.w3.org/Graphics/SVG/1.1/DTD/svg11.dtd">
<svg version="1.1" id="Слой_1" xmlns="http://www.w3.org/2000/svg" xmlns:xlink="http://www.w3.org/1999/xlink" x="0px" y="0px"
	 width="120.23px" height="147.782px" viewBox="0 0 120.23 147.782" enable-background="new 0 0 120.23 147.782"
	 xml:space="preserve">
<g>
	<g>
		<defs>
			<path id="SVGID_18_" d="M5.01,12.524v87.667c0,4.133,3.381,7.514,7.514,7.514h95.182c4.133,0,7.514-3.381,7.514-7.514V12.524
				H5.01z M72.639,32.562H47.591c-2.768,0-5.01-2.242-5.01-5.01s2.242-5.01,5.01-5.01h25.048c2.768,0,5.01,2.242,5.01,5.01
				S75.407,32.562,72.639,32.562z"/>
		</defs>
		<clipPath id="SVGID_1_">
			<use xlink:href="#SVGID_18_"  overflow="visible"/>
		</clipPath>
		<path clip-path="url(#SVGID_1_)" fill="#EEEEED" d="M5.01,12.524H115.22v95.182H5.01V12.524z"/>
	</g>
	<g>
		<defs>
			<path id="SVGID_20_" d="M5.01,12.524v87.667c0,4.133,3.381,7.514,7.514,7.514h95.182c4.133,0,7.514-3.381,7.514-7.514V12.524
				H5.01z M72.639,32.562H47.591c-2.768,0-5.01-2.242-5.01-5.01s2.242-5.01,5.01-5.01h25.048c2.768,0,5.01,2.242,5.01,5.01
				S75.407,32.562,72.639,32.562z"/>
		</defs>
		<clipPath id="SVGID_2_">
			<use xlink:href="#SVGID_20_"  overflow="visible"/>
		</clipPath>
		<path clip-path="url(#SVGID_2_)" fill="#FFFFFF" d="M72.639,22.543H47.591c-2.768,0-5.01,2.242-5.01,5.01s2.242,5.01,5.01,5.01
			h25.048c2.768,0,5.01-2.242,5.01-5.01S75.407,22.543,72.639,22.543z"/>
	</g>
	<g>
		<defs>
			<path id="SVGID_22_" d="M5.01,12.524v87.667c0,4.133,3.381,7.514,7.514,7.514h95.182c4.133,0,7.514-3.381,7.514-7.514V12.524
				H5.01z M72.639,32.562H47.591c-2.768,0-5.01-2.242-5.01-5.01s2.242-5.01,5.01-5.01h25.048c2.768,0,5.01,2.242,5.01,5.01
				S75.407,32.562,72.639,32.562z"/>
		</defs>
		<clipPath id="SVGID_3_">
			<use xlink:href="#SVGID_22_"  overflow="visible"/>
		</clipPath>
		<g clip-path="url(#SVGID_3_)">
			<g>
				<defs>
					<circle id="SVGID_24_" cx="60.115" cy="100.191" r="47.591"/>
				</defs>
				<defs>
					<circle id="SVGID_25_" cx="60.115" cy="100.191" r="47.591"/>
				</defs>
				<defs>
					<circle id="SVGID_26_" cx="60.115" cy="100.191" r="47.591"/>
				</defs>
				<defs>
					<circle id="SVGID_27_" cx="60.115" cy="100.191" r="47.591"/>
				</defs>
				<clipPath id="SVGID_4_">
					<use xlink:href="#SVGID_24_"  overflow="visible"/>
				</clipPath>
				<clipPath id="SVGID_5_" clip-path="url(#SVGID_4_)">
					<use xlink:href="#SVGID_25_"  overflow="visible"/>
				</clipPath>
				<clipPath id="SVGID_6_" clip-path="url(#SVGID_5_)">
					<use xlink:href="#SVGID_26_"  overflow="visible"/>
				</clipPath>
				<clipPath id="SVGID_7_" clip-path="url(#SVGID_6_)">
					<use xlink:href="#SVGID_27_"  overflow="visible"/>
				</clipPath>
				<path clip-path="url(#SVGID_7_)" fill="#B54F46" d="M20.082,52.6v58.405h21.297l18.736-32.449h47.591V52.6H20.082z M20.082,52.6
					v58.405h21.297l18.736-32.449h47.591V52.6H20.082z"/>
				<path clip-path="url(#SVGID_7_)" fill="#5A975E" d="M12.524,147.782h45.299l21.028-21.028v-15.743l-37.472-0.006L12.524,61.518
					V147.782z M12.524,147.782h45.299l21.028-21.028v-15.743l-37.472-0.006L12.524,61.518V147.782z"/>
				<path clip-path="url(#SVGID_7_)" fill="#EBC958" d="M60.115,78.556l18.736,32.449l-21.021,36.777h49.877V78.556H60.115z
					 M60.115,78.556l18.736,32.449l-21.021,36.777h49.877V78.556H60.115z"/>
				<g clip-path="url(#SVGID_7_)">
					<circle fill="#F1F1F1" cx="60.115" cy="100.191" r="21.635"/>
					<circle fill="#6983C0" cx="60.115" cy="100.191" r="17.308"/>
				</g>
			</g>
			<g>
				<defs>
					<path id="SVGID_32_" d="M5.01,12.524v87.667c0,4.133,3.381,7.514,7.514,7.514h95.182c4.133,0,7.514-3.381,7.514-7.514V12.524
						H5.01z M72.639,32.562H47.591c-2.768,0-5.01-2.242-5.01-5.01s2.242-5.01,5.01-5.01h25.048c2.768,0,5.01,2.242,5.01,5.01
						S75.407,32.562,72.639,32.562z"/>
				</defs>
				<clipPath id="SVGID_8_">
					<use xlink:href="#SVGID_32_"  overflow="visible"/>
				</clipPath>
				<path clip-path="url(#SVGID_8_)" fill="#232323" fill-opacity="0.05" d="M5.01,12.524H115.22v47.591H5.01V12.524z"/>
			</g>
			<path fill="#232323" fill-opacity="0.02" d="M5.01,59.489H115.22v0.626H5.01V59.489z"/>
			<path fill="#FFFFFF" fill-opacity="0.05" d="M5.01,60.115H115.22v0.626H5.01V60.115z"/>
			<path fill="#232323" fill-opacity="0.02" d="M72.639,32.562H47.591c-2.661,0-4.834-2.079-4.991-4.696
				c-0.013,0.106-0.019,0.207-0.019,0.313c0,2.768,2.242,5.01,5.01,5.01h25.048c2.768,0,5.01-2.242,5.01-5.01
				c0-0.106-0.006-0.207-0.019-0.313C77.473,30.483,75.3,32.562,72.639,32.562z M5.01,12.524v0.626H115.22v-0.626H5.01z"/>
			<path fill="#242122" fill-opacity="0.1" d="M47.591,22.543h25.048c2.661,0,4.834,2.079,4.991,4.696
				c0.006-0.106,0.019-0.207,0.019-0.313c0-2.768-2.242-5.01-5.01-5.01H47.591c-2.768,0-5.01,2.242-5.01,5.01
				c0,0.106,0.006,0.207,0.019,0.313C42.757,24.622,44.93,22.543,47.591,22.543z M107.706,107.08H12.524
				c-4.133,0-7.514-3.381-7.514-7.514v0.626c0,4.133,3.381,7.514,7.514,7.514h95.182c4.133,0,7.514-3.381,7.514-7.514v-0.626
				C115.22,103.698,111.839,107.08,107.706,107.08z"/>
			
				<radialGradient id="SVGID_9_" cx="585.983" cy="-18.7546" r="570.079" gradientTransform="matrix(0.25 0 0 -0.25 -141.798 7.4245)" gradientUnits="userSpaceOnUse">
				<stop  offset="0" style="stop-color:#FFFFFF;stop-opacity:0.1"/>
				<stop  offset="1" style="stop-color:#FFFFFF;stop-opacity:0"/>
			</radialGradient>
			<path fill="url(#SVGID_9_)" d="M5.01,12.524v87.667c0,4.133,3.381,7.514,7.514,7.514h95.182c4.133,0,7.514-3.381,7.514-7.514
				V12.524H5.01z M72.639,32.562H47.591c-2.768,0-5.01-2.242-5.01-5.01s2.242-5.01,5.01-5.01h25.048c2.768,0,5.01,2.242,5.01,5.01
				S75.407,32.562,72.639,32.562z"/>
			<path fill="none" d="M0,0h120.23v120.23H0V0z"/>
		</g>
	</g>
</g>
</svg>
