<?xml version="1.0" encoding="utf-8"?>
<!-- Generator: Adobe Illustrator 19.1.0, SVG Export Plug-In . SVG Version: 6.00 Build 0)  -->
<svg version="1.1" id="Слой_1" xmlns="http://www.w3.org/2000/svg" xmlns:xlink="http://www.w3.org/1999/xlink" x="0px" y="0px"
	 viewBox="0 0 24 24" style="enable-background:new 0 0 24 24;" xml:space="preserve">
<style type="text/css">
	.st0{fill:#3F98E9;}
	.st1{fill:#FFFFFF;}
</style>
<g>
	<circle class="st0" cx="12" cy="12" r="12"/>
	<polygon class="st1" points="20.9,11.4 20.9,10.4 17.9,10.4 17.4,6.9 13.6,6.9 12.1,12.1 10.7,6.9 6.9,6.9 6.3,10.4 3.2,10.4 
		3.2,11.4 6.1,11.4 5.9,12.5 3.2,12.5 3.2,13.4 5.7,13.4 5.1,17.1 8.7,17.1 9.2,13.1 9.3,11.2 9.8,13.2 10.9,17.1 13.1,17.1 
		14.3,13.2 14.8,11.2 14.9,13.1 15.4,17.1 19,17.1 18.4,13.4 20.9,13.4 20.9,12.5 18.2,12.5 18.1,11.4 	"/>
</g>
</svg>
