<svg width="15" height="15" viewBox="0 0 15 15" fill="none" xmlns="http://www.w3.org/2000/svg">
<path d="M13.6364 0.115387C14.2727 0.115387 14.7727 0.623079 14.7727 1.26923V13.7308C14.7727 14.3769 14.2727 14.8846 13.6364 14.8846H1.36366C0.727295 14.8846 0.227295 14.3769 0.227295 13.7308V1.26923C0.227295 0.623079 0.727295 0.115387 1.36366 0.115387H13.6364Z" fill="#E62E04"/>
<path d="M4.22729 5.07692C4.13639 4.8 3.70457 4.8 3.59093 5.07692C3.52275 5.33077 3.59093 5.60769 3.61366 5.86154C3.34093 5.72307 3.18184 5.42308 3.22729 5.12307C3.27275 4.86923 3.45457 4.63846 3.70457 4.54615C4.11366 4.40769 4.59093 4.73077 4.59093 5.16923C4.61366 5.42307 4.50002 5.65384 4.29548 5.79231C4.25002 5.53846 4.27275 5.30769 4.22729 5.07692ZM11.75 5.37692C11.7046 5.56154 11.5682 5.74615 11.3864 5.81538C11.4091 5.56154 11.4546 5.30769 11.4091 5.05384C11.3182 4.77692 10.8864 4.77692 10.7727 5.05384C10.7046 5.28461 10.75 5.53846 10.6818 5.76923C10.3864 5.60769 10.2955 5.19231 10.4546 4.89231C10.5909 4.56923 10.9773 4.40769 11.3182 4.54615C11.6591 4.63846 11.8409 5.03077 11.75 5.37692Z" fill="#B32100"/>
<path d="M10.7728 5.05386C10.8864 4.77694 11.3182 4.80001 11.4091 5.05386C11.4773 5.30771 11.4091 5.56155 11.3864 5.8154C11.1818 7.15386 10.2955 8.33078 9.06821 8.86155C8.00002 9.34617 6.79548 9.30001 5.75002 8.79232C4.63639 8.23848 3.79548 7.10771 3.61366 5.86155C3.59093 5.60771 3.52275 5.33078 3.59093 5.07694C3.70457 4.80002 4.13639 4.80002 4.2273 5.07694C4.27275 5.30771 4.25002 5.56155 4.29548 5.79232C4.4773 6.80771 5.13639 7.70771 6.02275 8.14617C6.93184 8.60771 8.02275 8.60771 8.93184 8.14617C9.84093 7.68463 10.5 6.78463 10.6818 5.76925C10.75 5.53848 10.7046 5.28463 10.7728 5.05386Z" fill="white"/>
<path d="M13.6364 0.115387C14.2727 0.115387 14.7727 0.623079 14.7727 1.26923V3.46154C14.7727 2.81539 14.2727 2.30769 13.6364 2.30769H1.36366C0.727295 2.30769 0.227295 2.81539 0.227295 3.46154V1.26923C0.227295 0.623079 0.727295 0.115387 1.36366 0.115387H13.6364Z" fill="#FF9900"/>
</svg>
