<svg width="15" height="15" viewBox="0 0 15 15" fill="none" xmlns="http://www.w3.org/2000/svg">
<path d="M11.3942 0C11.4379 0.0437063 11.4904 0.034965 11.5428 0.034965C11.8313 0.0262237 12.111 0.0786713 12.3907 0.131119C12.9677 0.253496 13.4746 0.506993 13.903 0.926573C14.1914 1.20629 14.4449 1.52098 14.6198 1.88811C14.7684 2.2028 14.847 2.53497 14.8995 2.87587C14.9781 3.43531 14.9781 3.99476 14.9781 4.5542C14.9781 6.77448 14.9781 9.0035 14.9694 11.2238C14.9694 11.5647 14.9344 11.9056 14.882 12.2465C14.8645 12.3339 14.8733 12.4388 14.8033 12.5087C14.6285 12.2465 14.4187 12.0105 14.1477 11.8531C13.9554 11.7395 13.7544 11.6696 13.5446 11.6084C13.1075 11.486 12.6617 11.5035 12.2159 11.5385C11.9799 11.5559 11.7526 11.6171 11.5166 11.6783C11.0795 11.8007 10.6687 12.0017 10.2753 12.2378C9.99563 12.4038 9.73339 12.5962 9.48864 12.8059C9.42745 12.8584 9.375 12.8497 9.33129 12.8059C9.09528 12.6311 8.85052 12.4913 8.59703 12.3514C8.15122 12.0979 7.6792 11.8969 7.18968 11.7483C6.97989 11.6871 6.76136 11.6434 6.53409 11.5997C6.21941 11.5385 5.91346 11.5122 5.59878 11.5122C5.20542 11.5035 4.81206 11.5385 4.42745 11.6171C3.78934 11.7483 3.18619 11.9755 2.61801 12.2902C1.95367 12.6486 1.38549 13.1294 0.887237 13.6888C0.808566 13.7762 0.799825 13.785 0.721154 13.6801C0.493881 13.3829 0.310315 13.0507 0.205419 12.6923C0.100524 12.3252 0.0568182 11.9493 0.0218532 11.5647C-0.0131119 11.1364 0.0043706 10.708 0.0043706 10.2885C0.0043706 8.11189 0.00437046 5.93531 0.0131117 3.76748C0.0131117 3.36538 0.0480769 2.96329 0.135489 2.56993C0.257867 2.01049 0.511364 1.52098 0.913462 1.1014C1.26311 0.734266 1.65647 0.437063 2.13724 0.270979C2.39073 0.183566 2.66171 0.122378 2.93269 0.0874126C3.10752 0.0611888 3.28234 0.0437063 3.45717 0.0437063C3.48339 0.0437063 3.50961 0.0437063 3.50087 0.00874129C6.11451 3.3215e-08 8.75437 0 11.3942 0ZM7.3208 5.09615C7.31206 5.06993 7.30332 5.06119 7.30332 5.04371C7.25087 4.79895 7.18968 4.56294 7.10227 4.33566C6.95367 3.96853 6.75262 3.61888 6.46416 3.3479C6.06206 2.97203 5.57255 2.77972 5.03059 2.76224C4.01661 2.72727 2.99388 2.7535 1.97989 2.74476C1.90122 2.74476 1.88374 2.77098 1.88374 2.84965C1.88374 5.12238 1.88374 7.38636 1.88374 9.65909C1.88374 9.79895 1.88374 9.79895 2.01486 9.79895C2.5743 9.79895 3.14248 9.80769 3.70192 9.79895C4.20017 9.79021 4.68969 9.83392 5.18794 9.75525C5.39773 9.72028 5.60752 9.68531 5.79108 9.60664C6.20192 9.4493 6.53409 9.17832 6.77885 8.81119C6.97989 8.51399 7.15472 8.21678 7.23339 7.85839C7.24213 7.82343 7.24213 7.77098 7.29458 7.7535C7.3208 7.7972 7.31206 7.83217 7.31206 7.86713C7.31206 8.47028 7.31206 9.07343 7.31206 9.67657C7.31206 9.76399 7.32955 9.79895 7.4257 9.79895C7.96766 9.79021 8.51836 9.79021 9.06032 9.79895C9.15647 9.79895 9.18269 9.77273 9.18269 9.67657C9.18269 8.80245 9.18269 7.93706 9.18269 7.06294C9.18269 6.97552 9.20017 6.9493 9.28759 6.9493C9.87325 6.95804 10.4502 6.9493 11.0358 6.9493C11.2194 6.9493 11.2019 6.91434 11.2019 7.12413C11.2019 7.98077 11.2019 8.82867 11.2019 9.68532C11.2019 9.76399 11.2281 9.79021 11.3068 9.79021C11.8575 9.79021 12.4082 9.79021 12.9589 9.79021C13.0551 9.79021 13.0726 9.76399 13.0726 9.66783C13.0726 8.57518 13.0726 7.48252 13.0726 6.38986C13.0726 5.20979 13.0726 4.02098 13.0726 2.84091C13.0726 2.76224 13.0551 2.73601 12.9764 2.73601C12.417 2.73601 11.8575 2.73601 11.2981 2.73601C11.2194 2.73601 11.2019 2.76224 11.2019 2.84091C11.2019 3.59266 11.2019 4.33566 11.2019 5.08741C11.2019 5.17483 11.1844 5.20979 11.0883 5.20979C10.66 5.20105 10.2316 5.20979 9.81206 5.20979C9.6285 5.20979 9.43619 5.20979 9.25262 5.20979C9.21766 5.20979 9.17395 5.22727 9.17395 5.1486C9.18269 4.4493 9.18269 3.75874 9.18269 3.05944C9.18269 2.99825 9.16521 2.92832 9.17395 2.86713C9.19143 2.78846 9.16521 2.74476 9.06906 2.74476C8.5271 2.74476 7.98514 2.74476 7.44318 2.74476C7.35577 2.74476 7.32955 2.77098 7.32955 2.86713C7.32955 3.43531 7.33829 3.99476 7.32955 4.56294C7.32955 4.73776 7.35577 4.91259 7.3208 5.09615Z" fill="#FECC02"/>
<path d="M3.39598 14.9913C3.29982 14.9476 3.18619 14.9738 3.08129 14.9476C2.99388 14.9301 2.89773 14.9213 2.80157 14.9126C2.7229 14.9038 2.71416 14.8776 2.73164 14.8077C2.88024 14.3094 3.07255 13.8287 3.35227 13.3829C3.57954 13.0245 3.83304 12.6923 4.16521 12.4388C5.20542 11.6434 6.61276 11.8357 7.40821 12.8759C7.89772 13.5052 8.19493 14.222 8.36101 15C6.71766 14.9913 5.05682 14.9913 3.39598 14.9913Z" fill="#6E6E6E"/>
<path d="M10.8698 14.9913C10.8872 14.9476 10.8523 14.9126 10.8348 14.8776C10.5726 14.3182 10.2316 13.8112 9.83829 13.3392C9.78584 13.2692 9.76836 13.2343 9.84703 13.1731C10.2229 12.8759 10.6163 12.6224 11.097 12.5524C11.6565 12.4738 12.1285 12.6136 12.4607 13.0944C12.6005 13.2867 12.7491 13.479 12.889 13.6713C13.0813 13.9336 13.326 14.1259 13.6495 14.2045C13.667 14.2133 13.6932 14.2045 13.7019 14.2308C13.7019 14.257 13.6757 14.2657 13.6582 14.2832C13.2299 14.6329 12.7316 14.8164 12.1897 14.9038C12.0061 14.9388 11.8226 14.9563 11.6302 14.965C11.5953 14.965 11.5603 14.9476 11.5341 14.9825C11.3156 14.9913 11.097 14.9913 10.8698 14.9913Z" fill="#6E6E6E"/>
<path d="M3.73689 6.25874C3.73689 5.65559 3.73689 5.04371 3.73689 4.44056C3.73689 4.36189 3.75437 4.33566 3.84178 4.33566C4.01661 4.3444 4.19143 4.32692 4.35752 4.3444C4.65472 4.37063 4.93444 4.44056 5.16171 4.66783C5.31032 4.82517 5.38899 5.01748 5.44143 5.21853C5.53759 5.56818 5.54633 5.92657 5.55507 6.27622C5.56381 6.61713 5.54633 6.96678 5.4764 7.29895C5.42395 7.5437 5.3278 7.77972 5.14423 7.96328C5.0306 8.07692 4.88199 8.13811 4.72465 8.16433C4.42745 8.21678 4.13025 8.20804 3.83304 8.20804C3.75437 8.20804 3.73689 8.18182 3.73689 8.10314C3.73689 7.48252 3.73689 6.87063 3.73689 6.25874Z" fill="#FECC02"/>
</svg>
