<svg width="16" height="17" viewBox="0 0 16 17" fill="none" xmlns="http://www.w3.org/2000/svg">
<path d="M8.01866 5.78821C8.41073 5.78821 8.73339 5.58588 8.77695 5.32463L9.16424 0.981204C9.16424 0.551802 8.65775 0.199356 8.02009 0.199356C7.38339 0.199356 6.87738 0.551802 6.87738 0.981204L7.26371 5.32463C7.30679 5.58588 7.62945 5.78821 8.02009 5.78821H8.01856" fill="#FDBB30"/>
<path d="M5.65281 7.14482C5.84956 6.80852 5.83424 6.42996 5.62745 6.26227L2.02937 3.75808C1.65547 3.54338 1.0944 3.80224 0.776051 4.34993C0.45674 4.89665 0.513232 5.50798 0.886633 5.72268L4.87009 7.5633C5.11951 7.65499 5.45892 7.47874 5.65424 7.14246L5.65271 7.14473" fill="#FDBB30"/>
<path d="M10.3864 7.14246C10.5827 7.47876 10.9207 7.65498 11.1701 7.5633L15.154 5.72267C15.5293 5.50797 15.583 4.89667 15.266 4.34993C14.9463 3.80226 14.3842 3.54338 14.0113 3.75808L10.4132 6.26229C10.2074 6.42996 10.1921 6.80854 10.3879 7.14482L10.3863 7.14255" fill="#FDBB30"/>
<path d="M8.01866 11.2132C8.41073 11.2132 8.73339 11.4141 8.77695 11.6754L9.16424 16.0183C9.16424 16.4487 8.65775 16.8006 8.02009 16.8006C7.38339 16.8006 6.87738 16.4487 6.87738 16.0183L7.26371 11.6754C7.30679 11.4141 7.62945 11.2132 8.02009 11.2132H8.01856" fill="#FDBB30"/>
<path d="M10.3864 9.85661C10.5827 9.51984 10.9207 9.34457 11.1701 9.43767L15.154 11.2764C15.5293 11.4916 15.583 12.1033 15.266 12.651C14.9463 13.1968 14.3842 13.4561 14.0113 13.2419L10.4132 10.7401C10.2074 10.5705 10.1921 10.192 10.3879 9.85615L10.3863 9.85652" fill="#FDBB30"/>
<path d="M5.6528 9.85613C5.84956 10.1919 5.83424 10.5705 5.62745 10.7401L2.02937 13.2419C1.65548 13.4562 1.09442 13.1968 0.776065 12.651C0.456737 12.1034 0.513229 11.4916 0.88663 11.2764L4.87009 9.43765C5.1195 9.34455 5.45892 9.51983 5.65424 9.85659L5.65271 9.85622" fill="#FDBB30"/>
</svg>
