<svg width="17" height="15" viewBox="0 0 17 15" fill="none" xmlns="http://www.w3.org/2000/svg">
<path d="M16.7962 0.564522C16.3318 0.406444 15.8773 0.228606 15.3834 0.198967C15.3735 0.189087 15.3636 0.189087 15.3438 0.189087C14.6127 -0.0282705 13.8619 -0.0282705 13.111 0.0408886C12.9035 0.0606483 12.6861 0.0705282 12.4984 0.189087C12.4787 0.189087 12.4688 0.189087 12.449 0.198967C11.955 0.297765 11.5598 0.564521 11.2338 0.930076C10.8485 1.34503 10.5323 1.7995 10.3743 2.35278C10.2162 2.60965 10.147 2.90605 10.0976 3.20245C9.89015 4.09163 9.85063 4.97094 10.1964 5.83049C10.4138 6.37388 10.7695 6.78884 11.3425 6.97655C11.8859 7.31247 12.8739 7.17415 13.4568 6.69004C13.4667 6.69004 13.4765 6.69004 13.4864 6.67028C13.6346 6.611 13.7532 6.52208 13.852 6.39364C14.0496 6.27508 14.1681 6.06761 14.3756 5.91941C14.4744 6.24544 14.3756 6.53196 14.3262 6.81848C14.2373 7.41127 14.0002 7.92502 13.4765 8.27082C13.1209 8.39925 12.7454 8.41901 12.37 8.42889C11.955 8.44865 11.5401 8.36962 11.1251 8.36962C11.1153 8.35974 11.1054 8.35974 11.0955 8.36962C10.9671 8.2807 10.809 8.29058 10.6707 8.25106C10.3446 8.15226 10.3347 8.16214 10.2755 8.51781C10.2656 8.52769 10.2656 8.54745 10.2656 8.55733C10.1668 8.77469 10.0976 8.99205 10.0779 9.22916C10.0482 9.32796 9.90991 9.42676 10.0779 9.52556L10.0976 9.53544C10.3347 9.63424 10.5719 9.71328 10.8287 9.71328C11.5302 9.89111 12.2416 9.93063 12.9727 9.92075C13.2691 9.91088 13.5655 9.87136 13.852 9.79232C14.8202 9.48604 15.4426 8.81421 15.8378 7.89538C15.986 7.60887 16.0848 7.31247 16.1145 6.98643C16.2034 6.77896 16.2231 6.55172 16.2133 6.33436C16.3022 6.14665 16.2923 5.93917 16.3022 5.74157C16.3219 5.06974 16.3812 4.39791 16.4504 3.72608C16.5195 3.05425 16.5986 2.3923 16.6776 1.72047C16.6776 1.68095 16.6875 1.63155 16.6875 1.59203C16.8061 1.30551 16.7665 0.989356 16.8555 0.70284C16.895 0.623801 16.8555 0.584281 16.7962 0.564522ZM14.7708 2.21446C14.7115 3.02461 14.5732 3.815 14.2472 4.55599C14.0594 4.91166 13.8026 5.20806 13.4963 5.45506C13.4074 5.48469 13.3185 5.52421 13.2295 5.55385C12.5182 5.78109 12.0143 5.45505 11.8958 4.68443C11.7673 3.90392 11.9254 3.15305 12.2613 2.4417C12.6269 1.68095 13.3283 1.31539 14.1681 1.45371C14.919 1.58215 14.8301 1.50311 14.7708 2.21446Z" fill="#EE8208"/>
<path d="M0.504271 5.49458C0.57343 5.56374 0.504271 5.67242 0.56355 5.74158C0.751267 6.34425 1.1267 6.7592 1.72937 6.96668C1.98625 7.09512 2.25301 7.16428 2.53952 7.1544C3.40895 7.13464 4.04126 6.65053 4.6143 6.07749C4.67357 6.01821 4.71309 5.93918 4.81189 5.91942C4.87117 6.30473 4.80201 6.67029 4.72297 7.02596C4.53526 7.80647 4.14006 8.38938 3.19159 8.43878C2.4506 8.4783 1.71949 8.4289 1.00814 8.2313C0.850066 8.19178 0.780907 8.21154 0.741387 8.36962C0.672228 8.66602 0.603069 8.96241 0.494391 9.24893C0.405472 9.47617 0.514151 9.53545 0.691988 9.58485C1.69973 9.83184 2.72724 9.98004 3.76463 9.88124C4.2191 9.84172 4.64393 9.69352 5.02925 9.42677C5.66156 8.99205 6.07652 8.40914 6.34327 7.70767C6.51123 7.42115 6.55075 7.09512 6.61003 6.77896C6.69895 6.33437 6.71871 5.8799 6.74835 5.42542C6.78786 4.68443 6.85702 3.94344 6.9163 3.20245C7.02498 2.40218 7.13366 1.60192 7.2621 0.811526C7.29174 0.623809 7.22258 0.55465 7.07438 0.50525C6.04688 0.198974 5.01937 -0.0381423 3.93258 0.011257C3.42871 0.0310167 2.92484 0.100176 2.48024 0.337292C1.29466 0.959724 0.790787 2.05639 0.514151 3.29137C0.356073 3.82488 0.296793 4.36828 0.385712 4.91167C0.405472 5.10927 0.346193 5.32662 0.504271 5.49458ZM2.87544 2.10579C3.27063 1.53276 3.86342 1.3648 4.53526 1.45372C5.37504 1.5624 5.23673 1.52288 5.18733 2.26387C5.13793 2.9851 4.98973 3.68657 4.74273 4.3584C4.64393 4.46708 4.58466 4.59551 4.55502 4.74371C4.48586 4.77335 4.4661 4.82275 4.4661 4.89191C4.2685 5.10927 4.09066 5.34638 3.81403 5.47482C3.06316 5.82062 2.46048 5.54398 2.32217 4.73383C2.15421 3.80512 2.32217 2.90606 2.87544 2.10579Z" fill="#EE8208"/>
<path d="M13.5951 11.877C13.5161 11.877 13.4469 11.8869 13.4074 11.9659C13.1801 12.0449 12.9529 12.124 12.7454 12.2425C12.6861 12.2524 12.617 12.2524 12.5676 12.282C12.0143 12.4994 11.4512 12.6772 10.888 12.8551C10.6114 12.9341 10.3249 12.9539 10.068 13.1021C10.0581 13.0922 10.0383 13.1021 10.0285 13.1021C9.43567 13.2009 8.84288 13.2898 8.24021 13.3886C7.67706 13.3886 7.10402 13.3886 6.54087 13.3886C6.19508 13.3293 5.84928 13.2503 5.50349 13.2108C5.18733 13.1712 4.89093 13.0132 4.57478 13.0033C4.20922 12.8452 3.82391 12.7266 3.43859 12.618C2.62844 12.282 1.84794 11.8967 1.07731 11.5015C0.78091 11.2545 0.405475 11.136 0.109079 10.8989C0.0695594 10.8692 0.0300399 10.8791 0.0102802 10.9186C-0.00947957 10.9581 0.000400369 10.9977 0.03004 11.0273C0.277037 11.2644 0.444994 11.5707 0.711751 11.7782C0.711751 11.7881 0.72163 11.7979 0.73151 11.7979C0.77103 11.8671 0.810549 11.9264 0.879708 11.956C1.63058 12.7365 2.48025 13.4084 3.43859 13.9221C3.87331 14.1592 4.3179 14.3865 4.80202 14.5149C4.82178 14.5347 4.85141 14.5643 4.87117 14.5742C5.43433 14.7718 6.02712 14.9101 6.61991 14.9595C7.37078 15.0188 8.13153 15.0286 8.8824 14.8805C9.35663 14.7915 9.83087 14.7224 10.2853 14.5149H10.3051L10.315 14.505C10.7102 14.4655 11.0461 14.2679 11.4018 14.1098C11.7871 13.932 12.1823 13.764 12.4984 13.4775C12.7652 13.3392 13.0122 13.1712 13.2493 12.9835C13.6741 12.6377 14.1088 12.3018 14.4645 11.8671C14.5534 11.8276 14.6226 11.7782 14.6522 11.6794C14.8004 11.5806 14.9091 11.4521 14.9783 11.215C14.4942 11.4324 14.0693 11.63 13.6643 11.8671C13.6247 11.8671 13.605 11.877 13.5951 11.877Z" fill="#EE8208"/>
</svg>
