<svg width="18" height="12" viewBox="0 0 18 12" fill="none" xmlns="http://www.w3.org/2000/svg">
<path d="M10.2727 11.7899C8.08867 11.7899 5.90467 11.7899 3.72867 11.7982C3.51267 11.7982 3.35267 11.7401 3.20067 11.5742C2.20866 10.5705 1.20866 9.56682 0.208664 8.57972C0.0566639 8.43042 -0.00733606 8.2894 0.000663949 8.07373C0.00866395 6.69677 0.00866395 5.31981 0.000663949 3.94286C0.000663949 3.75207 0.0486639 3.62765 0.184664 3.49493C1.21666 2.47465 2.23267 1.44608 3.25667 0.41751C3.37667 0.293086 3.49667 0.243317 3.66467 0.243317C8.07267 0.243317 12.4887 0.251612 16.8967 0.243317C17.0887 0.243317 17.1607 0.284792 17.1607 0.50046C17.1527 4.17511 17.1527 7.85806 17.1607 11.5327C17.1607 11.8396 17.0007 11.7982 16.8247 11.7982C14.6407 11.7899 12.4567 11.7899 10.2727 11.7899ZM2.43267 5.31982C2.05666 5.31982 1.76066 5.63502 1.76866 6.03318C1.77666 6.41475 2.05667 6.70507 2.42467 6.71336C2.81667 6.72166 3.12867 6.38986 3.11267 5.9917C3.10467 5.63502 2.78467 5.31982 2.43267 5.31982Z" fill="#FEF100"/>
<path d="M2.36 5.31983C2.704 5.31983 3.032 5.63504 3.048 5.98343C3.064 6.38988 2.752 6.71338 2.36 6.70509C1.992 6.69679 1.712 6.41476 1.704 6.0249C1.688 5.63504 1.984 5.32813 2.36 5.31983Z" fill="#060500"/>
</svg>
