<svg width="14" height="15" viewBox="0 0 14 15" fill="none" xmlns="http://www.w3.org/2000/svg">
<path d="M10.2253 2.45916C10.2084 2.18028 10.1915 1.90986 10.1662 1.63099C9.9549 1.25916 9.76898 0.870425 9.44785 0.574651C9.3887 0.532397 9.32109 0.490144 9.26194 0.44789C8.86476 0.177468 8.39997 0.0845097 7.93518 0.00845337C7.93518 0.422538 7.93518 0.845073 7.93518 1.25916C8.07039 1.25916 8.1887 1.28451 8.30701 1.34366C8.7887 1.56338 9.00842 1.93521 8.99151 2.45916C8.99151 2.78028 8.99151 3.09296 8.99151 3.41409C8.99151 3.74367 8.99151 4.07324 8.99151 4.40282C9.36335 4.49578 9.75208 4.40282 10.1324 4.46197C10.1915 4.47043 10.2 4.39437 10.2084 4.34366C10.2084 4.03099 10.2169 3.72676 10.2169 3.41409C10.2253 3.09296 10.2253 2.78028 10.2253 2.45916Z" fill="#B1B1B1"/>
<path d="M4.90986 0.0169014C4.7831 -0.00845072 4.65634 0.0253521 4.53803 0.0591549C4.1831 0.0929577 3.89577 0.295775 3.5831 0.439437C3.52394 0.48169 3.46479 0.532394 3.39718 0.574648C2.87324 1.09859 2.58591 1.71549 2.61972 2.46761C2.61972 2.78028 2.61972 3.09296 2.61972 3.39718C2.62817 3.75211 2.62817 4.11549 2.63662 4.47042C3.04225 4.38592 3.43943 4.44507 3.84507 4.47042C3.84507 4.42817 3.84507 4.39437 3.84507 4.35211C3.84507 4.03099 3.84507 3.71831 3.84507 3.39718C3.84507 3.08451 3.84507 2.77183 3.84507 2.45916C3.74366 1.86761 4.38591 1.22535 4.90141 1.2507C5.09577 1.2507 7.74929 1.2507 7.93521 1.2507C7.93521 0.83662 7.93521 0.414084 7.93521 0C7.74929 0 5.09577 0.0169014 4.90986 0.0169014Z" fill="#B1B1B1"/>
<path d="M11.7887 15C12.6761 14.7549 13.0479 14.1211 13.0479 13.6732C13.0479 10.5549 13.0479 7.43662 13.0479 4.31831H9.74366C9.74366 7.87606 9.75211 11.4338 9.75211 15H11.3915H11.7887Z" fill="#89B612"/>
<path d="M3.32958 15C3.32113 12.7859 3.31268 8.81409 3.31268 8.81409L3.32113 4.31831H0C0 4.93521 0 9.98029 0 13.5634C0 14.0789 0.0760566 14.8056 1.20845 15H1.66479H3.32958Z" fill="#E22D3A"/>
<path d="M9.76056 15C9.76056 11.4423 9.75211 7.88451 9.75211 4.31831H6.43098C6.43098 7.87606 6.43098 11.4338 6.43098 15H9.76056Z" fill="#F3AF18"/>
<path d="M3.27888 15H6.43099C6.43099 11.4423 6.43099 7.88451 6.43099 4.31831H3.27042C3.27042 7.79155 3.27042 11.2648 3.27042 14.738C3.27042 14.8225 3.27888 14.907 3.27888 15Z" fill="#1877CF"/>
</svg>
