<svg width="17" height="13" viewBox="0 0 17 13" fill="none" xmlns="http://www.w3.org/2000/svg">
<path d="M7.56359 6.53554C5.89299 8.67427 4.24993 10.7855 2.58851 12.915C3.23105 12.915 3.84605 12.915 4.46105 12.915C4.52531 12.915 4.55284 12.8691 4.58956 12.8324C5.56255 11.5749 6.53553 10.3265 7.50852 9.07815C7.54524 9.03226 7.56359 8.99554 7.56359 8.93129C7.56359 8.15106 7.56359 7.36166 7.56359 6.53554Z" fill="#DE3C31"/>
<path d="M16.9814 12.7773C16.9814 8.56412 16.9814 4.3509 16.9814 0.128508C16.9814 0.0917913 17.0089 0.0458957 16.9447 0.0183583C16.8988 0.0826121 16.8529 0.156045 16.7978 0.220299C16.7978 0.302911 16.7611 0.357986 16.6785 0.367165C16.6509 0.403881 16.6234 0.431419 16.5958 0.468135C14.4663 3.19433 12.3459 5.91135 10.2164 8.63755C10.1888 8.67427 10.1521 8.72016 10.1246 8.75688C10.1154 8.7477 10.1062 8.7477 10.0879 8.73852C10.0879 5.83792 10.0879 2.93732 10.0879 0C6.71911 4.31419 3.36874 8.60084 0 12.9058C0.0826121 12.9058 0.137687 12.9058 0.183582 12.9058C0.697613 12.9058 1.22082 12.8967 1.73485 12.9058C1.88172 12.9058 1.96433 12.8599 2.05612 12.7498C4.02045 10.2255 5.98479 7.71046 7.9583 5.19538C7.98583 5.15867 8.00419 5.10359 8.06845 5.09441C8.06845 5.14949 8.06845 5.19538 8.06845 5.25046C8.06845 7.74718 8.06845 10.2439 8.06845 12.7406C8.06845 12.8783 8.10516 12.915 8.24285 12.9058C8.81195 12.8967 9.39024 12.8967 9.95934 12.9058C10.0695 12.9058 10.1337 12.8691 10.2072 12.7773C11.4188 11.2261 12.6305 9.67479 13.8421 8.12352C13.8696 8.09598 13.8788 8.04091 13.9431 8.04091C13.9431 8.42643 13.9431 8.81195 13.9431 9.1883C13.9431 10.3724 13.9431 11.5657 13.9431 12.7498C13.9431 12.8141 13.9064 12.8967 14.0441 12.8967C15.0079 12.8875 15.9717 12.8875 16.9355 12.8875C17.0456 12.9058 16.9814 12.8141 16.9814 12.7773Z" fill="#DE3C31"/>
</svg>
