<svg width="1845" height="890" viewBox="0 0 1845 890" fill="none" xmlns="http://www.w3.org/2000/svg">
<g clip-path="url(#clip0)">
<path d="M111.68 1H1003V865.215C1001.97 864.232 1000.48 862.836 998.615 861.284C942.485 811.631 860.921 811.71 830.995 812.143C756.64 813.145 716.125 834.531 650.733 853.795C606.753 866.728 368.628 936.843 193.5 838.069C146.205 811.415 118.097 780.653 103.487 764.377C11.0993 661.456 -28.7094 500.863 22.6504 371.878C50.0523 303.08 89.4331 278.333 111.038 185.613C120.129 146.576 124.429 102.565 107.851 55.0355C101.19 36.0021 91.7569 17.8848 79.8072 1.17691L111.68 1Z" fill="url(#paint0_linear)"/>
</g>
<g clip-path="url(#clip1)">
<path d="M1554.32 0H663V864.215C664.027 863.232 665.524 861.836 667.385 860.284C723.515 810.631 805.079 810.71 835.005 811.143C909.36 812.145 949.875 833.531 1015.27 852.795C1059.25 865.728 1297.37 935.843 1472.5 837.069C1519.8 810.415 1547.9 779.653 1562.51 763.377C1654.9 660.456 1694.71 499.863 1643.35 370.878C1615.95 302.08 1576.57 277.333 1554.96 184.613C1545.87 145.576 1541.57 101.565 1558.15 54.0355C1564.81 35.0021 1574.24 16.8848 1586.19 0.176908L1554.32 0Z" fill="url(#paint1_linear)"/>
</g>
<path d="M953.68 0H1845V864.215C1843.97 863.232 1842.48 861.836 1840.61 860.284C1784.48 810.631 1702.92 810.71 1672.99 811.143C1598.64 812.145 1558.13 833.531 1492.73 852.795C1448.75 865.728 1210.63 935.843 1035.5 837.069C988.205 810.415 960.097 779.653 945.487 763.377C853.099 660.456 813.291 499.863 864.65 370.878C892.052 302.08 931.433 277.333 953.038 184.613C962.129 145.576 966.429 101.565 949.851 54.0355C943.19 35.0021 933.757 16.8848 921.807 0.176908L953.68 0Z" fill="url(#paint2_linear)"/>
<defs>
<linearGradient id="paint0_linear" x1="501.5" y1="1" x2="501.5" y2="890" gradientUnits="userSpaceOnUse">
<stop stop-color="#F47388"/>
<stop offset="1" stop-color="#F29E8B"/>
</linearGradient>
<linearGradient id="paint1_linear" x1="1164.5" y1="0" x2="1164.5" y2="889" gradientUnits="userSpaceOnUse">
<stop stop-color="#F47388"/>
<stop offset="1" stop-color="#F29E8B"/>
</linearGradient>
<linearGradient id="paint2_linear" x1="1343.5" y1="0" x2="1343.5" y2="889" gradientUnits="userSpaceOnUse">
<stop stop-color="#F47388"/>
<stop offset="1" stop-color="#F29E8B"/>
</linearGradient>
<clipPath id="clip0">
<rect y="1" width="951" height="889" fill="white"/>
</clipPath>
<clipPath id="clip1">
<rect width="951" height="889" transform="matrix(-1 0 0 1 1666 0)" fill="white"/>
</clipPath>
</defs>
</svg>
