<svg width="21" height="34" viewBox="0 0 21 34" fill="none" xmlns="http://www.w3.org/2000/svg">
<path d="M13.2968 17.0072L0.577486 4.28732C0.227259 3.93792 0.0345936 3.47076 0.0345936 2.97265C0.0345936 2.47426 0.227259 2.00738 0.577486 1.65743L1.69202 0.543447C2.0417 0.192943 2.50913 0 3.00724 0C3.50536 0 3.97223 0.192943 4.32219 0.543447L19.4666 15.6875C19.8179 16.0386 20.0103 16.5077 20.0089 17.0064C20.0103 17.5072 19.8182 17.9758 19.4666 18.3271L4.33628 33.4566C3.98633 33.8071 3.51945 34 3.02106 34C2.52295 34 2.05607 33.8071 1.70584 33.4566L0.591585 32.3426C-0.133472 31.6175 -0.133472 30.4372 0.591585 29.7124L13.2968 17.0072Z" fill="#FCCCA6"/>
</svg>
