<svg width="800" height="777" viewBox="0 0 800 777" fill="none" xmlns="http://www.w3.org/2000/svg">
<path fill-rule="evenodd" clip-rule="evenodd" d="M122.476 678.361C91.5772 652.342 73.4868 611.809 74.7623 571.436C76.0379 531.063 96.6587 491.744 129.142 467.717C146.439 454.918 166.557 446.448 184.409 434.447C202.261 422.445 218.547 405.416 221.847 384.163C224.843 364.853 216.706 345.744 208.754 327.895C199.562 307.251 190.371 286.607 181.183 265.965C174.2 250.282 167.06 233.719 168.678 216.627C171.822 183.429 206.394 162.106 239.064 155.314C262.36 150.472 286.713 150.258 309.877 155.692C363.066 168.152 405.534 208.6 457.304 226.032C472.535 231.16 488.958 234.237 504.7 230.994C544.413 222.807 566.877 178.634 604.673 163.95C644.478 148.491 691.933 172.157 713.198 209.162C734.464 246.167 733.811 292.276 723.082 333.58C712.352 374.883 692.434 413.126 676.388 452.679C668.211 472.84 660.941 495.13 667.143 515.979C673.346 536.828 703.868 562.345 718.721 578.188C733.575 594.031 734.036 605.175 726.501 625.546C716.95 651.417 683.565 650.873 660.664 656.302C628.343 663.959 595.855 670.85 563.199 676.975C499.54 688.908 435.424 697.913 370.852 703.99C286.745 711.88 194.431 738.953 122.476 678.361Z" fill="url(#paint0_linear)"/>
<path opacity="0.3" d="M400.354 776.179C528.586 776.179 632.539 769.549 632.539 761.371C632.539 753.193 528.586 746.564 400.354 746.564C272.122 746.564 168.169 753.193 168.169 761.371C168.169 769.549 272.122 776.179 400.354 776.179Z" fill="url(#paint1_linear)"/>
<path d="M253.853 607.515C244.379 599.019 235.743 590.603 226.836 581.923C223.208 578.389 219.54 574.811 215.751 571.169L216.451 570.442C220.243 574.084 223.915 577.662 227.543 581.199C267.51 620.141 302.035 653.78 431.408 713.251L430.982 714.169C330.264 667.874 286.96 637.207 253.853 607.515Z" fill="#1ABED4"/>
<path d="M220.367 576.254C220.367 576.254 191.471 565.075 195.702 540.479C199.933 515.882 220.367 576.254 220.367 576.254Z" fill="#1ABED4"/>
<path d="M239.941 593.434C239.941 593.434 227.714 559.052 233.733 551.413C239.753 543.775 247.006 580.516 239.941 593.434Z" fill="#1ABED4"/>
<path d="M242.446 600.6C242.222 601.732 220.672 623.364 206.984 603.394C193.297 583.424 242.446 600.6 242.446 600.6Z" fill="#1ABED4"/>
<path d="M268.093 619.712C268.093 619.712 278.813 579.94 267.015 581.621C255.216 583.303 268.093 619.712 268.093 619.712Z" fill="#1ABED4"/>
<path d="M271.785 624.161C271.785 624.161 245.351 641.582 238.286 629.3C231.221 617.019 270.499 621.816 271.785 624.161Z" fill="#1ABED4"/>
<path d="M292.501 637.853C292.501 637.853 280.511 610.998 291.734 604.231C302.956 597.464 292.501 637.853 292.501 637.853Z" fill="#1ABED4"/>
<path d="M302.611 644.731C302.611 644.731 275.215 667.887 271.158 657.216C267.102 646.546 289.399 643.967 302.611 644.731Z" fill="#1ABED4"/>
<path d="M371.18 464.853C371.18 464.853 259.94 560.244 127.106 416.021C127.106 416.021 302.627 316.691 371.18 464.853Z" fill="#FCCCA6"/>
<path d="M371.18 465.416C371.104 465.415 371.029 465.399 370.959 465.369C370.758 465.282 350.24 456.595 310.088 446.273C273.031 436.759 211.195 423.884 127.056 416.568C126.912 416.547 126.782 416.472 126.692 416.357C126.602 416.243 126.561 416.098 126.575 415.954C126.59 415.809 126.66 415.676 126.771 415.582C126.882 415.488 127.025 415.44 127.17 415.449C211.406 422.775 273.316 435.67 310.409 445.194C350.628 455.523 371.2 464.236 371.404 464.324C371.523 464.375 371.619 464.466 371.679 464.58C371.738 464.695 371.757 464.826 371.731 464.953C371.705 465.079 371.636 465.193 371.537 465.274C371.437 465.356 371.312 465.401 371.183 465.402L371.18 465.416Z" fill="#E84A54"/>
<path d="M235.428 429.593C235.311 429.594 235.197 429.557 235.101 429.49C235.005 429.422 234.934 429.325 234.896 429.214C232.216 421.405 229.432 413.328 225.694 406.196C221.523 398.243 216.629 392.46 211.142 389.06C211.079 389.021 211.025 388.97 210.982 388.91C210.939 388.85 210.909 388.783 210.892 388.711C210.875 388.639 210.873 388.565 210.885 388.492C210.897 388.42 210.923 388.35 210.962 388.288C211.001 388.225 211.052 388.171 211.112 388.128C211.172 388.085 211.24 388.055 211.311 388.038C211.383 388.022 211.457 388.019 211.53 388.031C211.603 388.043 211.672 388.07 211.735 388.109C217.396 391.633 222.424 397.542 226.685 405.673C230.464 412.883 233.258 421 235.958 428.849C236.007 428.988 236 429.141 235.937 429.275C235.874 429.409 235.761 429.512 235.623 429.563C235.56 429.584 235.494 429.594 235.428 429.593Z" fill="#E84A54"/>
<path d="M219.439 484.394C219.307 484.396 219.179 484.35 219.077 484.266C218.975 484.182 218.906 484.065 218.882 483.935C218.858 483.805 218.881 483.67 218.947 483.556C219.013 483.441 219.117 483.354 219.242 483.309C237.134 476.571 253.411 458.129 260.714 436.32C260.767 436.186 260.869 436.078 261 436.017C261.131 435.956 261.279 435.948 261.416 435.994C261.553 436.04 261.666 436.137 261.734 436.264C261.801 436.391 261.817 436.54 261.779 436.678C254.375 458.789 237.834 477.506 219.637 484.357C219.574 484.382 219.507 484.394 219.439 484.394Z" fill="#E84A54"/>
<path d="M314.382 448.306C314.236 448.306 314.096 448.248 313.991 448.145C313.887 448.043 313.826 447.903 313.823 447.757C313.384 428.588 309.019 410.393 301.207 395.16C301.139 395.027 301.127 394.872 301.173 394.73C301.219 394.588 301.32 394.469 301.453 394.401C301.587 394.333 301.741 394.321 301.884 394.367C302.026 394.414 302.144 394.514 302.212 394.648C310.101 410.058 314.506 428.407 314.942 447.744C314.944 447.817 314.931 447.891 314.904 447.96C314.877 448.028 314.837 448.091 314.786 448.144C314.735 448.198 314.674 448.24 314.607 448.27C314.539 448.299 314.466 448.315 314.392 448.316L314.382 448.306Z" fill="#E84A54"/>
<path d="M366.711 437.586C366.711 437.586 196.616 475.027 150.977 260.064C150.974 260.064 388.127 252.479 366.711 437.586Z" fill="#1ABED4"/>
<path d="M366.714 438.025C366.65 438.024 366.586 438.008 366.528 437.979C366.47 437.95 366.42 437.909 366.379 437.858C366.215 437.664 350.873 418.129 316.774 386.638C285.285 357.556 230.926 312.064 150.736 260.433C150.643 260.368 150.578 260.269 150.556 260.157C150.534 260.046 150.556 259.93 150.618 259.834C150.68 259.739 150.776 259.671 150.887 259.645C150.998 259.619 151.114 259.637 151.212 259.696C231.469 311.371 285.878 356.906 317.384 385.995C351.536 417.536 366.909 437.114 367.059 437.308C367.095 437.354 367.121 437.405 367.136 437.461C367.151 437.516 367.156 437.574 367.148 437.631C367.141 437.688 367.123 437.743 367.094 437.793C367.066 437.843 367.028 437.886 366.982 437.922C366.908 437.986 366.813 438.023 366.714 438.025Z" fill="#216192"/>
<path d="M252.004 330.574C251.973 330.577 251.941 330.577 251.91 330.574C251.854 330.561 251.8 330.538 251.753 330.505C251.706 330.472 251.665 330.43 251.634 330.382C251.603 330.333 251.582 330.279 251.572 330.222C251.562 330.166 251.563 330.107 251.575 330.051C253.638 320.775 255.772 311.18 256.365 302.024C257.035 291.799 255.612 283.397 252.161 277.046C252.111 276.944 252.103 276.827 252.137 276.719C252.171 276.611 252.246 276.521 252.346 276.467C252.445 276.413 252.562 276.399 252.671 276.429C252.78 276.459 252.873 276.53 252.932 276.627C256.462 283.126 257.91 291.702 257.24 302.088C256.643 311.31 254.503 320.939 252.433 330.249C252.407 330.343 252.351 330.426 252.274 330.485C252.196 330.543 252.101 330.575 252.004 330.574Z" fill="#216192"/>
<path d="M209.785 377.713C207.329 377.717 204.875 377.574 202.435 377.288C202.323 377.27 202.222 377.21 202.153 377.119C202.084 377.029 202.053 376.915 202.067 376.802C202.08 376.689 202.137 376.586 202.225 376.514C202.313 376.442 202.426 376.407 202.539 376.417C224.719 379.063 252.429 369.046 273.131 350.899C273.175 350.861 273.226 350.832 273.282 350.814C273.337 350.796 273.395 350.789 273.453 350.793C273.511 350.798 273.567 350.813 273.619 350.839C273.671 350.866 273.717 350.902 273.755 350.946C273.792 350.99 273.821 351.041 273.839 351.096C273.857 351.151 273.865 351.209 273.86 351.267C273.856 351.325 273.84 351.381 273.814 351.433C273.788 351.485 273.752 351.531 273.708 351.569C255.055 367.911 230.742 377.713 209.785 377.713Z" fill="#216192"/>
<path d="M320.017 390.936C319.939 390.935 319.863 390.915 319.796 390.876C319.695 390.817 319.622 390.721 319.592 390.609C319.562 390.497 319.578 390.377 319.635 390.276C330.904 370.735 337.624 350.108 339.064 330.627C339.069 330.568 339.085 330.511 339.113 330.458C339.14 330.405 339.177 330.359 339.223 330.321C339.269 330.283 339.321 330.255 339.378 330.238C339.435 330.221 339.494 330.215 339.553 330.222C339.611 330.226 339.667 330.241 339.718 330.267C339.77 330.292 339.816 330.328 339.853 330.372C339.89 330.416 339.919 330.466 339.936 330.521C339.954 330.576 339.96 330.634 339.955 330.691C338.502 350.302 331.741 371.06 320.409 390.715C320.369 390.784 320.312 390.841 320.243 390.879C320.174 390.918 320.096 390.938 320.017 390.936Z" fill="#216192"/>
<path d="M392.18 494.632C341.369 433.265 312.118 390.591 292.849 355.834C296.464 351.478 320.412 322.095 307.378 323.338C294.983 324.51 292.802 349.264 292.457 355.137C286.856 344.983 282.103 335.508 277.915 326.436C282.391 321.1 305.013 293.3 293.931 289.789C283.275 286.416 278.485 317.14 277.399 325.331C271.52 312.52 266.737 300.493 262.224 288.48C275.061 279.029 285.077 240.238 275.691 244.841C266.824 249.176 262.586 284.104 262.117 288.198C258.573 278.751 255.082 269.039 251.478 259.257C252.935 245.645 257.303 197.494 243.837 216.409C228.223 238.342 251.086 262.724 251.086 262.724C251.086 262.724 251.133 262.355 251.21 261.685C264.218 297.029 273.899 326.008 298.145 367.298C285.496 360.5 263.618 353.207 262.596 365.201C261.625 376.624 294.025 369.003 298.497 367.897C317.756 400.588 345.962 440.508 391.34 495.312L392.18 494.632Z" fill="#E7626B"/>
<path d="M225.379 282.878C229.365 308.701 260.412 297.742 261.159 296.747C261.166 296.747 221.396 257.059 225.379 282.878Z" fill="#E7626B"/>
<path d="M243.703 322.714C244.818 337.951 278.662 333.371 278.662 333.371C278.515 330.483 242.591 307.481 243.703 322.714Z" fill="#E7626B"/>
<path d="M417.921 657.263C417.921 657.263 605.851 746.323 716.468 508.361C716.468 508.361 442.489 436.106 417.921 657.263Z" fill="#4BDAE3"/>
<path d="M417.921 657.786C417.812 657.788 417.705 657.756 417.615 657.694C417.525 657.632 417.457 657.543 417.42 657.44C417.383 657.338 417.379 657.226 417.409 657.121C417.439 657.016 417.501 656.923 417.586 656.855C417.814 656.67 440.938 637.997 489.116 610.425C533.566 584.985 609.043 546.542 716.283 507.868C716.348 507.845 716.417 507.835 716.485 507.838C716.554 507.841 716.621 507.858 716.684 507.887C716.746 507.916 716.802 507.958 716.848 508.008C716.894 508.059 716.93 508.119 716.953 508.183C716.977 508.248 716.987 508.317 716.984 508.385C716.981 508.454 716.964 508.521 716.935 508.584C716.905 508.646 716.864 508.702 716.813 508.748C716.763 508.794 716.703 508.83 716.638 508.853C657.496 530.187 570.104 565.283 489.636 611.333C441.531 638.865 418.474 657.484 418.246 657.669C418.154 657.744 418.04 657.785 417.921 657.786Z" fill="#DBFFFE"/>
<path d="M580.15 563.413C580.081 563.413 580.013 563.4 579.949 563.373C579.886 563.347 579.828 563.308 579.779 563.259C579.731 563.21 579.692 563.152 579.666 563.088C579.64 563.025 579.627 562.956 579.627 562.887C579.708 551.497 579.791 539.725 581.564 528.827C583.573 516.555 587.536 506.977 593.382 500.351C593.474 500.247 593.603 500.184 593.742 500.175C593.881 500.167 594.017 500.214 594.121 500.306C594.225 500.398 594.288 500.527 594.296 500.666C594.305 500.804 594.258 500.94 594.166 501.044C588.471 507.51 584.562 516.911 582.599 528.984C580.837 539.802 580.756 551.537 580.676 562.884C580.676 562.953 580.663 563.022 580.637 563.086C580.611 563.151 580.572 563.209 580.523 563.258C580.474 563.307 580.416 563.346 580.352 563.373C580.288 563.4 580.219 563.413 580.15 563.413Z" fill="#DBFFFE"/>
<path d="M625.3 631.025H625.247C598.447 628.141 568.586 608.915 549.18 582.023C549.14 581.967 549.111 581.904 549.095 581.838C549.079 581.771 549.077 581.702 549.088 581.634C549.099 581.566 549.123 581.501 549.159 581.442C549.195 581.384 549.242 581.333 549.298 581.293C549.353 581.253 549.416 581.224 549.483 581.208C549.55 581.192 549.619 581.189 549.687 581.2C549.755 581.211 549.82 581.235 549.878 581.271C549.937 581.307 549.988 581.354 550.028 581.41C569.27 608.064 598.836 627.129 625.357 629.987C625.496 629.994 625.626 630.057 625.718 630.16C625.811 630.263 625.859 630.399 625.851 630.538C625.844 630.676 625.781 630.806 625.678 630.899C625.575 630.992 625.439 631.04 625.3 631.032V631.025Z" fill="#DBFFFE"/>
<path d="M484.859 615.47C484.747 615.47 484.637 615.435 484.547 615.368C484.457 615.302 484.39 615.209 484.356 615.102C476.424 589.192 474.109 563.229 477.657 540.019C477.677 539.882 477.752 539.758 477.864 539.676C477.919 539.635 477.982 539.606 478.049 539.589C478.116 539.573 478.185 539.57 478.253 539.58C478.321 539.591 478.386 539.614 478.445 539.65C478.504 539.685 478.555 539.732 478.596 539.787C478.636 539.843 478.666 539.906 478.682 539.972C478.699 540.039 478.702 540.109 478.692 540.177C475.164 563.232 477.469 589.035 485.355 614.794C485.378 614.859 485.388 614.929 485.384 614.999C485.379 615.069 485.361 615.137 485.33 615.2C485.298 615.263 485.255 615.318 485.202 615.363C485.148 615.409 485.086 615.443 485.02 615.464C484.967 615.474 484.912 615.477 484.859 615.47Z" fill="#DBFFFE"/>
<path d="M585.711 527.068C590.679 517.208 594.997 507.681 599.446 497.851C601.258 493.831 603.094 489.811 605.003 485.657L604.206 485.292C602.296 489.432 600.461 493.483 598.645 497.49C578.666 541.59 561.411 579.675 475.673 668.623L476.307 669.233C543.053 599.99 568.352 561.514 585.711 527.068Z" fill="url(#paint2_linear)"/>
<path d="M602.879 491.215C602.879 491.215 622.694 473.047 611.502 454.511C600.31 435.975 602.879 491.215 602.879 491.215Z" fill="url(#paint3_linear)"/>
<path d="M592.501 511.296C592.501 511.296 591.496 479.647 584.234 475.382C576.971 471.118 582.709 503.088 592.501 511.296Z" fill="url(#paint4_linear)"/>
<path d="M592.739 517.875C593.278 518.72 617.528 529.39 622.275 508.924C627.022 488.458 592.739 517.875 592.739 517.875Z" fill="url(#paint5_linear)"/>
<path d="M578.066 541.413C578.066 541.413 556.825 512.669 566.898 510.297C576.971 507.925 578.066 541.413 578.066 541.413Z" fill="url(#paint6_linear)"/>
<path d="M576.485 546.193C576.485 546.193 603.348 551.909 605.167 539.758C606.986 527.607 576.78 543.878 576.485 546.193Z" fill="url(#paint7_linear)"/>
<path d="M564.074 563.799C564.074 563.799 565.27 538.311 554.064 536.388C542.859 534.465 564.074 563.799 564.074 563.799Z" fill="url(#paint8_linear)"/>
<path d="M558.081 572.549C558.081 572.549 587.533 582.599 587.439 572.696C587.346 562.793 568.512 567.758 558.081 572.549Z" fill="url(#paint9_linear)"/>
<path d="M392.083 667.461C392.083 667.461 496.034 808.226 689.189 675.907C689.189 675.907 511.484 513.369 392.083 667.461Z" fill="#E66A71"/>
<path d="M689.193 676.363H689.129C589.212 662.369 513.778 660.818 468.092 661.981C418.608 663.24 392.422 667.867 392.164 667.91C392.105 667.921 392.045 667.921 391.987 667.908C391.928 667.896 391.873 667.872 391.824 667.838C391.775 667.804 391.733 667.761 391.701 667.71C391.669 667.66 391.648 667.604 391.638 667.545C391.617 667.427 391.644 667.306 391.712 667.207C391.781 667.109 391.885 667.041 392.003 667.019C392.264 666.972 418.517 662.329 468.072 661.073C513.792 659.91 589.279 661.461 689.253 675.461C689.364 675.48 689.465 675.54 689.534 675.628C689.604 675.717 689.639 675.828 689.631 675.941C689.624 676.054 689.575 676.159 689.494 676.238C689.413 676.316 689.305 676.362 689.193 676.366V676.363Z" fill="#F2D09F"/>
<path d="M559.642 662.533C559.557 662.532 559.473 662.508 559.401 662.463C559.299 662.399 559.227 662.298 559.2 662.181C559.173 662.064 559.193 661.941 559.257 661.84C564.496 653.431 569.913 644.754 576.224 637.384C583.333 629.089 590.736 623.578 598.23 621.005C598.286 620.985 598.345 620.977 598.405 620.981C598.464 620.984 598.523 621 598.576 621.026C598.63 621.052 598.678 621.089 598.717 621.133C598.756 621.178 598.787 621.23 598.806 621.286C598.843 621.4 598.835 621.524 598.782 621.632C598.73 621.739 598.637 621.822 598.524 621.863C591.188 624.385 583.915 629.806 576.914 637.973C570.646 645.287 565.246 653.95 560.027 662.329C559.985 662.392 559.928 662.444 559.86 662.48C559.793 662.515 559.718 662.534 559.642 662.533Z" fill="#F2D09F"/>
<path d="M563.602 730.584C563.512 730.585 563.425 730.559 563.35 730.51C544.058 717.706 529.851 691.562 527.171 663.91C527.159 663.791 527.195 663.671 527.271 663.578C527.347 663.485 527.457 663.426 527.577 663.414C527.696 663.402 527.816 663.438 527.909 663.514C528.002 663.59 528.06 663.7 528.072 663.82C530.752 691.214 544.795 717.086 563.87 729.753C563.951 729.807 564.014 729.885 564.047 729.977C564.081 730.069 564.083 730.169 564.055 730.263C564.027 730.356 563.969 730.438 563.89 730.496C563.811 730.554 563.716 730.585 563.618 730.584H563.602Z" fill="#F2D09F"/>
<path d="M462.756 663.193C462.719 663.198 462.682 663.198 462.645 663.193C462.587 663.179 462.532 663.154 462.483 663.119C462.434 663.083 462.393 663.039 462.362 662.987C462.331 662.936 462.31 662.878 462.301 662.819C462.292 662.759 462.295 662.699 462.31 662.64C468.005 640.288 478.011 620.127 491.29 604.348C491.329 604.303 491.376 604.265 491.428 604.238C491.481 604.21 491.539 604.194 491.598 604.188C491.657 604.183 491.717 604.19 491.774 604.208C491.831 604.226 491.883 604.255 491.929 604.293C491.974 604.331 492.012 604.378 492.039 604.431C492.067 604.484 492.083 604.541 492.088 604.601C492.094 604.66 492.087 604.72 492.069 604.776C492.051 604.833 492.022 604.886 491.984 604.931C478.792 620.613 468.836 640.65 463.175 662.888C463.145 662.976 463.088 663.052 463.013 663.106C462.938 663.161 462.849 663.191 462.756 663.193Z" fill="#F2D09F"/>
<path d="M273.447 749.244C271.877 749.243 270.372 748.619 269.263 747.509C268.154 746.399 267.531 744.894 267.531 743.324V343.974C267.531 342.404 268.154 340.898 269.264 339.788C270.374 338.678 271.88 338.054 273.45 338.054C275.02 338.054 276.525 338.678 277.635 339.788C278.746 340.898 279.369 342.404 279.369 343.974V743.324C279.369 744.102 279.216 744.872 278.918 745.591C278.621 746.309 278.184 746.962 277.634 747.511C277.084 748.061 276.431 748.497 275.713 748.794C274.994 749.092 274.224 749.244 273.447 749.244Z" fill="url(#paint10_linear)"/>
<path d="M525.473 749.244C523.903 749.244 522.397 748.62 521.287 747.51C520.177 746.4 519.554 744.894 519.554 743.324V343.974C519.554 342.404 520.177 340.898 521.287 339.788C522.397 338.678 523.903 338.054 525.473 338.054C527.043 338.054 528.548 338.678 529.658 339.788C530.769 340.898 531.392 342.404 531.392 343.974V743.324C531.392 744.894 530.769 746.4 529.658 747.51C528.548 748.62 527.043 749.244 525.473 749.244Z" fill="url(#paint11_linear)"/>
<path d="M504.05 737.103C372.684 736.39 420.638 736.433 295.311 737.103C295.311 737.103 295.593 658.074 332.177 607.859C345.911 588.985 367.351 574.419 384.683 556.04C390.884 549.457 390.907 538.154 384.733 531.53C367.314 512.83 345.513 498.133 331.591 479.031C321.206 464.8 313.776 448.26 308.423 431.861C294.869 390.377 294.725 349.783 294.725 349.783C426.091 350.5 378.138 350.453 503.464 349.783C503.464 349.783 503.32 390.377 489.766 431.861C484.406 448.277 476.966 464.8 466.598 479.031C452.884 497.862 431.532 512.391 414.256 530.693C407.925 537.393 407.891 548.784 414.203 555.514C431.622 574.137 453.319 588.801 467.198 607.856C503.769 658.074 504.05 737.103 504.05 737.103Z" fill="white"/>
<g opacity="0.3">
<path opacity="0.3" d="M504.05 737.103C372.684 736.39 420.638 736.433 295.311 737.103C295.311 737.103 295.593 658.074 332.177 607.859C345.911 588.985 367.351 574.419 384.683 556.04C390.884 549.457 390.907 538.154 384.733 531.53C367.314 512.83 345.513 498.133 331.591 479.031C321.206 464.8 313.776 448.26 308.423 431.861C294.869 390.377 294.725 349.783 294.725 349.783C426.091 350.5 378.138 350.453 503.464 349.783C503.464 349.783 503.32 390.377 489.766 431.861C484.406 448.277 476.966 464.8 466.598 479.031C452.884 497.862 431.532 512.391 414.256 530.693C407.925 537.393 407.891 548.784 414.203 555.514C431.622 574.137 453.319 588.801 467.198 607.856C503.769 658.074 504.05 737.103 504.05 737.103Z" fill="url(#paint12_linear)"/>
</g>
<path style="mix-blend-mode:multiply" d="M295.465 737.22C295.465 737.22 295.613 696.627 309.163 655.143H490.51C504.06 696.627 504.208 737.22 504.208 737.22H295.465Z" fill="url(#paint13_linear)"/>
<path style="mix-blend-mode:multiply" d="M503.464 349.787C503.464 349.787 503.32 390.38 489.766 431.864H308.423C294.869 390.38 294.725 349.787 294.725 349.787H503.464Z" fill="url(#paint14_linear)"/>
<path d="M456.579 426.615C412.628 426.615 382.379 409.794 352.414 409.794C338.776 409.794 316.185 412.742 310.406 423.422C332.609 500.475 372.955 501.098 400.123 544.542C427.301 501.084 467.63 500.508 489.84 423.422C478.878 425.531 467.742 426.6 456.579 426.615Z" fill="url(#paint15_linear)"/>
<path d="M364.932 428.514C407.332 428.514 426.859 414.444 466.87 414.444C475.509 414.444 486.735 416.146 489.84 423.422C467.637 500.475 427.291 501.098 400.123 544.542C372.945 501.084 332.616 500.508 310.409 423.422C328.382 426.837 346.638 428.542 364.932 428.514Z" fill="url(#paint16_linear)"/>
<path style="mix-blend-mode:screen" opacity="0.3" d="M483.911 707.977C484.025 711.572 484.071 717.023 483.911 720.168C483.874 721.234 483.621 722.281 483.168 723.246C482.715 724.211 482.071 725.074 481.275 725.783C480.478 726.492 479.546 727.032 478.535 727.37C477.524 727.708 476.455 727.838 475.392 727.75C474.33 727.663 473.296 727.361 472.354 726.863C471.411 726.365 470.58 725.68 469.909 724.851C469.239 724.022 468.744 723.066 468.454 722.039C468.164 721.013 468.086 719.939 468.223 718.882C468.307 718.212 468.411 716.976 468.474 716.269C470.98 682.57 466.515 638.657 443.97 613.293C431.495 599.457 409.801 575.102 400.036 559.092C399.031 557.417 401.446 555.832 402.572 557.417C413.727 573.196 440.265 598.847 449.631 607.903C474.126 631.92 482.829 673.565 483.911 707.977Z" fill="url(#paint17_linear)"/>
<path d="M400.123 702.064C399.974 702.064 399.831 702.005 399.725 701.9C399.62 701.794 399.56 701.651 399.56 701.502V540.696C399.56 540.547 399.62 540.404 399.725 540.298C399.831 540.193 399.974 540.133 400.123 540.133C400.272 540.133 400.415 540.193 400.521 540.298C400.627 540.404 400.686 540.547 400.686 540.696V701.502C400.686 701.651 400.627 701.794 400.521 701.9C400.415 702.005 400.272 702.064 400.123 702.064Z" fill="url(#paint18_linear)"/>
<path d="M495.083 736.252C464.505 706.239 424.641 680.516 400.123 642.814C375.622 680.516 335.735 706.239 305.163 736.252H495.083Z" fill="url(#paint19_linear)"/>
<path style="mix-blend-mode:screen" opacity="0.3" d="M483.194 377.438C483.268 373.844 483.254 368.393 483.06 365.251C483.009 364.187 482.744 363.145 482.279 362.187C481.815 361.228 481.161 360.374 480.357 359.676C479.554 358.978 478.617 358.45 477.603 358.123C476.59 357.797 475.521 357.68 474.46 357.778C473.4 357.877 472.371 358.189 471.435 358.697C470.499 359.204 469.675 359.896 469.014 360.731C468.353 361.565 467.868 362.525 467.588 363.553C467.308 364.58 467.239 365.653 467.386 366.708C467.476 367.378 467.597 368.611 467.667 369.314C470.538 402.986 466.552 446.946 444.285 472.551C431.957 486.525 410.548 511.105 400.94 527.229C399.935 528.904 402.387 530.471 403.493 528.873C414.477 512.977 440.734 487.037 450.003 477.881C474.236 453.6 482.484 411.861 483.194 377.438Z" fill="url(#paint20_linear)"/>
<g style="mix-blend-mode:screen" opacity="0.3">
<path style="mix-blend-mode:screen" opacity="0.3" d="M329.189 379.636C329.189 379.636 331.695 393.666 332.227 396.467C333.272 402.065 334.388 407.639 335.631 413.181C336.874 418.722 338.311 424.212 340.049 429.596C341.763 434.969 343.815 440.228 346.193 445.342C347.386 447.89 348.679 450.38 350.072 452.812C351.462 455.241 352.946 457.616 354.564 459.888L359.626 466.802C361.355 469.101 374.573 486.374 375.428 487.573C378.877 492.289 381.966 497.258 384.67 502.438C384.698 502.5 384.702 502.571 384.682 502.637C384.662 502.703 384.619 502.759 384.561 502.796C384.502 502.832 384.432 502.846 384.364 502.835C384.297 502.824 384.235 502.789 384.191 502.736C382.462 500.391 380.697 498.119 378.861 495.898C378.406 495.342 377.93 494.799 377.468 494.247L376.054 492.612C375.116 491.52 374.155 490.451 373.187 489.382C372.218 488.314 357.398 472.4 355.459 470.216C354.501 469.114 353.523 468.029 352.575 466.91C351.627 465.791 350.682 464.695 349.747 463.496C346.085 458.756 342.868 453.688 340.136 448.357C334.659 437.747 330.803 426.454 327.969 414.986C326.575 409.251 325.55 403.432 324.901 397.566C324.566 394.634 324.355 391.693 324.231 388.745C324.177 387.271 324.147 385.797 324.161 384.316C324.174 382.835 324.221 381.375 324.335 379.837C324.378 379.245 324.636 378.688 325.06 378.273C325.484 377.857 326.046 377.611 326.639 377.581C327.232 377.55 327.816 377.737 328.281 378.107C328.745 378.477 329.059 379.004 329.162 379.589L329.189 379.636Z" fill="url(#paint21_linear)"/>
</g>
<path d="M535.77 354.701H263.176C260.904 354.701 258.725 353.799 257.119 352.192C255.512 350.586 254.61 348.407 254.61 346.135C254.61 343.863 255.512 341.684 257.119 340.078C258.725 338.471 260.904 337.569 263.176 337.569H535.787C538.059 337.569 540.238 338.471 541.844 340.078C543.45 341.684 544.353 343.863 544.353 346.135C544.353 348.407 543.45 350.586 541.844 352.192C540.238 353.799 538.059 354.701 535.787 354.701H535.77Z" fill="url(#paint22_linear)"/>
<path d="M543.616 346.159H255.317C252.914 346.159 250.61 345.204 248.911 343.505C247.211 341.806 246.257 339.501 246.257 337.098C246.257 334.695 247.211 332.391 248.911 330.692C250.61 328.992 252.914 328.038 255.317 328.038H543.616C546.019 328.038 548.323 328.992 550.022 330.692C551.721 332.391 552.676 334.695 552.676 337.098C552.676 339.501 551.721 341.806 550.022 343.505C548.323 345.204 546.019 346.159 543.616 346.159Z" fill="url(#paint23_linear)"/>
<path d="M263.176 733.04H535.787C536.927 733.017 538.059 733.222 539.118 733.643C540.177 734.063 541.142 734.691 541.956 735.488C542.769 736.286 543.416 737.238 543.857 738.289C544.298 739.34 544.526 740.468 544.526 741.608C544.526 742.747 544.298 743.875 543.857 744.926C543.416 745.977 542.769 746.929 541.956 747.727C541.142 748.525 540.177 749.152 539.118 749.573C538.059 749.993 536.927 750.198 535.787 750.176H263.176C260.933 750.131 258.797 749.209 257.226 747.607C255.656 746.005 254.776 743.851 254.776 741.608C254.776 739.364 255.656 737.21 257.226 735.608C258.797 734.006 260.933 733.084 263.176 733.04Z" fill="url(#paint24_linear)"/>
<path d="M255.317 741.589H543.616C546.019 741.589 548.323 742.543 550.022 744.243C551.721 745.942 552.676 748.246 552.676 750.649C552.676 753.052 551.721 755.357 550.022 757.056C548.323 758.755 546.019 759.71 543.616 759.71H255.317C252.914 759.71 250.61 758.755 248.911 757.056C247.211 755.357 246.257 753.052 246.257 750.649C246.257 748.246 247.211 745.942 248.911 744.243C250.61 742.543 252.914 741.589 255.317 741.589Z" fill="url(#paint25_linear)"/>
<path style="mix-blend-mode:multiply" opacity="0.3" d="M482.47 324.436C483.435 334.544 483.941 345.043 483.941 355.817C483.941 436.079 455.802 501.145 421.09 501.145C386.378 501.145 358.239 436.079 358.239 355.817C358.239 345.043 358.745 334.544 359.706 324.436H482.47Z" fill="url(#paint26_linear)"/>
<path d="M443.94 238.563C440.566 234.07 437.478 225.497 435.089 212.137C431.843 193.996 415.201 186.81 414.347 187.128C405.697 190.328 413.941 192.254 408.652 196.405C406.977 197.708 405.851 198.861 405.141 202.043C400.666 222.144 412.655 211.209 409.362 225.993C409.057 227.36 410.745 240.399 416.079 242.868C422.644 245.906 419.298 253.873 419.398 255.856C419.479 257.461 421.569 260.439 421.204 262.077C420.839 263.715 435.206 269.719 435.206 269.719L440.834 265.997C440.834 265.997 439.859 264.895 438.777 263.39C439.842 264.117 441.057 264.593 442.332 264.784C445.822 266.114 446.63 242.137 443.94 238.563Z" fill="#1ABED4"/>
<path d="M405.128 202.047C406.103 197.668 407.915 197.236 409.774 195.417C416.266 193.742 420.055 195.397 420.055 195.397C420.055 195.397 428.142 205.846 427.25 209.132C426.359 212.419 425.72 212.164 424.236 214.894C423.509 216.234 422.685 215.879 422.038 216.174C423.81 218.955 424.128 218.797 424.52 219.605C424.755 220.08 429.793 209.353 429.88 209.872C430.413 213.403 428.601 227.36 431.763 229.484C433.103 230.382 433.753 231.916 433.86 233.42C433.94 234.566 433.042 235.581 432.855 236.714C432.396 239.678 436.65 241.504 436.684 247.799C436.704 251.98 433.709 251.524 431.488 253.076C430.698 253.628 421.948 263.126 422.557 263.531C421.66 262.925 421.12 262.409 421.194 262.077C421.559 260.439 419.469 257.461 419.388 255.856C419.301 254.131 421.804 247.936 418.196 244.325C417.58 243.716 416.859 243.222 416.069 242.868C410.967 240.506 408.973 227.705 409.369 225.963C412.621 211.226 400.659 222.114 405.128 202.047Z" fill="url(#paint27_linear)"/>
<path d="M454.991 269.451C454.991 269.451 459.788 280.576 460.917 281.826C468.391 290.107 469.573 290.325 469.573 290.325C469.573 290.325 473.955 291.33 479.412 289.38C481.04 288.798 485.777 292.365 485.777 292.365C485.777 292.365 488.889 296.051 489.157 302.523C487.576 304.178 484.33 307.046 480.832 306.208C479.224 305.826 478.789 301.488 476.263 300.486C468.374 297.364 471.53 305.846 469.526 306.309C467.928 306.687 467.734 296.975 467.734 296.975C467.734 296.975 456.344 295.136 447.635 287.772C438.925 280.409 431.002 275.096 436.58 270.901C442.158 266.707 450.1 263.833 454.991 269.451Z" fill="#F5958F"/>
<path d="M438.288 269.719C440.231 270.359 440.968 267.856 442.58 270.657C446.218 279.15 444.891 284.66 463.285 294.208C463.285 294.208 468.689 296.409 467.975 297.364C467.232 296.302 468.143 297.672 460.924 295.14C455.823 293.425 451.098 290.75 447.002 287.26C439.883 281.287 430.808 275.23 436.573 270.905C437.083 270.533 437.726 270.084 438.288 269.719Z" fill="url(#paint28_linear)"/>
<path d="M455.735 271.153C458.217 268.473 458.911 266.194 458.117 263.236L455.909 259.166C455.909 259.166 453.052 255.069 451.316 253.769C450.757 253.347 445.554 252.858 444.951 252.764C438.992 251.802 437.015 244.593 425.971 267.005C426.168 268.593 427.817 276.051 428.57 277.056C429.495 278.282 437.364 278.818 437.364 278.818C435.548 276.808 435.555 275.93 435.284 274.292C435.642 270.516 450.335 266.218 455.735 271.153Z" fill="#00B0C7"/>
<path d="M349.355 191.36C355.744 187.098 354.474 182.421 358.46 181.41L366.225 179.453C366.225 174.884 368.132 174.482 369.277 171.922C369.277 171.922 368.165 170.917 376.804 170.458L392.529 169.674C401.47 173.959 410.283 174.87 414.591 178.365C414.715 180.442 413.563 183.339 412.169 185.966L418.822 189.745C418.822 189.745 427.991 205.309 429.582 212.767C431.173 220.224 424.966 237.735 424.949 242.442C424.889 257.96 422.604 289.133 422.604 292.788C422.604 294.798 418.377 295.943 418.377 295.943L404.813 302.101C374.868 300.959 380.59 301.351 374.423 300.426L365.632 291.612L367.86 271.561C367.86 271.561 363.653 252.801 359.469 248.606C355.285 244.412 350.802 230.01 350.802 230.01C350.802 230.01 346.253 225.464 342.233 221.189C347.128 209.105 339.6 197.866 349.355 191.36Z" fill="#1ABED4"/>
<path d="M353.449 240.322L346.803 223.192L359.603 217.936V200.787C360.963 202.157 361.465 206.72 361.278 204.851C364.808 214.067 377.263 211.631 377.216 223.718C377.216 227.638 380.027 230.884 380.02 232.978C380.02 233.93 375.776 246.281 378.633 249.598C383.705 255.477 376.077 253.749 376.004 257.531C375.953 260.03 371.089 261.829 372.6 265.21C375.086 270.771 383.926 280.225 383.923 280.506C383.755 280.506 373.284 281.136 364.865 281.243L366.085 270.268C366.085 270.268 361.877 251.508 357.693 247.31C356.253 245.869 354.772 243.196 353.449 240.322Z" fill="url(#paint29_linear)"/>
<path d="M389.336 154.874C383.976 165.437 380.962 170.659 373.176 171.051L387.695 178.422C391.614 184.134 393.922 191.822 399.818 196.603C401.453 188.08 404.206 185.025 402.87 181.892C402.87 181.892 397.51 167.869 397.376 148.425C397.242 128.981 389.336 154.874 389.336 154.874Z" fill="#F5958F"/>
<path d="M466.059 472.481C466.059 472.481 464.622 483.329 465.771 486.381C466.92 489.433 472.967 503.838 472.967 503.838C472.967 503.838 461.51 499.088 454.016 491.108C449.661 486.471 447.986 484.227 445.343 482.032L446.871 478.22C446.871 478.22 444.228 480.796 444.191 480.27C444.154 479.744 439.012 474.465 439.012 474.465C439.012 474.465 441.632 470.371 442.811 469.376C443.99 468.381 451.119 465.469 451.119 465.469L466.059 472.481Z" fill="#153157"/>
<path d="M423.971 275.89C423.971 275.89 482.112 321.626 489.917 331.214C497.722 340.802 497.049 353.864 494.49 358.179C487.18 370.484 464.042 470.223 464.779 472.397C465.516 474.572 442.238 470.28 442.238 470.28C442.238 470.28 447.772 390.259 449.176 377.201C450.579 364.142 458.555 352.564 458.555 352.564C458.555 352.564 391.678 332.252 387.313 327.023C382.948 321.793 362.38 282.985 362.38 282.985C362.38 282.985 394.984 300.185 423.971 275.89Z" fill="url(#paint30_linear)"/>
<path d="M354.836 482.307C354.836 482.307 348.196 501.265 346.548 503.309C344.9 505.353 345.694 517.503 345.694 517.503C345.694 517.503 353.131 520.555 360.098 517.524C364.135 515.768 365.85 514.709 368.095 514.173L372.818 505.724C372.818 505.724 372.583 500.83 372.208 499.359C371.833 497.889 367.683 486.384 367.683 486.384L354.836 482.307Z" fill="#153157"/>
<path d="M424.212 276.828C426.768 285.776 402.954 327.264 402.954 327.264C402.954 327.264 399.741 389.683 396.445 397.191C393.148 404.698 385.611 416.816 382.566 430.692C379.521 444.568 373.213 488.424 373.213 488.424C373.213 488.424 353.201 491.386 349.948 487.557C349.948 487.557 348.943 433.01 350.199 421.01C352.484 399.134 356.33 396.353 358.005 379.448C362.695 332.212 353.831 331.699 355.787 311.709C357.891 290.225 365.277 276.265 365.277 276.265C365.277 276.265 382.767 280.54 424.212 276.828Z" fill="#124C80"/>
<path d="M402.488 338.507L365.552 308.761C364.534 307.941 363.714 306.902 363.152 305.722C362.59 304.542 362.301 303.251 362.306 301.943L449.578 297.293L492.822 324.795C492.258 325.662 491.517 326.4 490.648 326.96C489.778 327.519 488.799 327.888 487.777 328.041L408.163 340.041C407.162 340.192 406.141 340.133 405.164 339.869C404.188 339.605 403.276 339.141 402.488 338.507Z" fill="#E97E80"/>
<path d="M405.717 336.905L362.306 301.944L451.373 294.54L492.821 324.795L405.717 336.905Z" fill="url(#paint31_linear)"/>
<path d="M400.056 200.529L384.948 185.269H365.619C370.805 192.361 374.537 197.37 380.556 202.063L387.537 192.623C387.709 192.391 387.926 192.197 388.176 192.054C388.425 191.91 388.702 191.819 388.988 191.788C389.275 191.757 389.564 191.785 389.839 191.871C390.114 191.957 390.369 192.099 390.586 192.288L400.056 200.529Z" fill="url(#paint32_linear)"/>
<path d="M414.675 178.67C410.762 184.7 404.511 191.377 402.083 199.501C404.511 191.759 407.63 190.583 410.675 185.688L412.799 185.973L414.675 178.67Z" fill="url(#paint33_linear)"/>
<path d="M370.218 170.971C374.684 175.041 380.322 176.824 387.933 182.345L380.422 200.455L365.639 184.402C366.42 172.76 370.218 170.971 370.218 170.971Z" fill="#1ABED4"/>
<path d="M393.108 148.11C393.108 148.11 395.236 148.033 397.403 150.281C397.845 168.753 402.87 181.892 402.87 181.892C403.778 184.023 402.793 186.123 401.557 189.933C399.389 190.485 396.267 190.013 393.41 188.549C391.437 185.108 389.795 181.484 387.695 178.422L385.856 177.487C385.002 170.512 387.899 164.09 393.108 148.11Z" fill="url(#paint34_linear)"/>
<path d="M421.77 146.173C421.7 155.121 416.621 172.616 404.712 180.07C392.804 187.524 389.497 164.957 389.303 160.827C389.109 156.696 386.526 152.562 389.755 141.647C392.984 130.733 409.074 124.679 415.017 130.619C420.959 136.558 421.82 139.694 421.77 146.173Z" fill="#F5958F"/>
<path d="M408.337 128.297C416.377 131.859 419.445 135.828 420.296 137.42C420.383 137.594 422.52 145.869 421.036 142.13C421.003 142.13 401.456 137.065 393.108 148.123C389.611 152.76 388.315 156.13 388.237 154.803C388.311 154.154 388.516 147.001 388.646 146.277C389.356 143.752 390.239 141.278 391.289 138.874C391.461 138.458 391.592 138.026 391.678 137.584C395.379 131.942 402.532 128.344 408.337 128.297Z" fill="url(#paint35_linear)"/>
<path d="M421.686 141.574C421.686 141.574 427.766 136.883 427.271 131.738C426.775 126.592 425.214 125.748 421.509 123.027C417.804 120.307 415.385 115.456 409.114 116.608C396.686 118.89 395.095 122.24 395.095 122.24C395.095 122.24 387.956 127.677 386.532 130.994C385.109 134.31 386.532 146.327 387.172 151.621C387.485 154.519 387.994 157.394 388.696 160.224C388.696 160.224 390.016 147.828 390.529 145.483C391.041 143.138 391.651 140.287 392.073 145.687C392.495 151.088 394.525 144.682 396.525 141.711C401.476 134.331 422.758 142.414 421.686 141.574Z" fill="#14426D"/>
<path d="M364.694 181.822C357.881 178.177 353.446 182.794 344.568 191.099C338.944 196.362 339.681 203.249 338.659 209.943C336.18 226.214 335.547 236.134 333.125 242.282C331.192 247.186 335.654 254.721 342.475 266.362C340.733 261.387 346.434 268.352 347.272 267.347C346.511 269.394 347.319 262.992 347.319 262.992L354.327 261.987C354.327 261.987 357.248 262.433 358.702 261.009C361.814 257.953 364.5 258.814 364.155 256.888C363.73 254.51 358.423 248.118 364.668 242.921C369.736 238.704 366.497 233.796 367.194 232.248C373.451 218.295 376.53 217.946 371.843 204.342C370.553 200.593 366.835 182.968 364.694 181.822Z" fill="#1ABED4"/>
<path d="M366.222 259.179C366.222 259.179 377.863 285.769 379.012 287.042C386.623 295.471 387.936 295.796 387.936 295.796C387.936 295.796 392.783 297.173 399.141 295.947C401.041 295.582 408.917 297.957 408.917 297.957C408.917 297.957 413.198 303.253 412.846 309.267C410.983 310.57 408.23 312.195 402.046 313.012C400.492 313.22 398.78 309.361 396.686 308.845C394.391 308.272 391.085 309.461 389.356 308.687C386.472 307.401 384.097 302.041 384.097 302.041C384.097 302.041 372.496 298.865 363.408 291.16C354.32 283.454 341.969 267.772 348.705 264.483C355.442 261.193 361.254 253.474 366.222 259.179Z" fill="#F5958F"/>
<path d="M385.112 301.736H385.172L385.437 302.118C386.228 301.347 381.062 299.253 381.062 299.253C361.247 288.516 362.684 283.022 359.432 274.798C357.894 272.044 355.784 265.658 353.656 264.865C352.956 265.153 349.69 265.156 349.03 265.478C347.057 266.446 346.709 268.406 347.416 270.878C349.603 276.979 357.016 285.639 363.103 290.878C364.968 292.447 366.95 293.871 369.033 295.136L369.726 295.545C371.72 296.686 373.781 297.708 375.897 298.603C375.98 298.64 377.357 299.21 377.699 299.344C379.81 300.172 381.964 300.888 384.151 301.488C384.479 301.534 384.802 301.618 385.112 301.736Z" fill="url(#paint36_linear)"/>
<path d="M371.659 265.793L373.387 258.04L370.443 254.69L367.803 252.633C367.803 252.633 348.669 242.275 338.977 264.999C339.389 266.432 340.944 275.974 344.146 277.226C346.608 278.191 350.953 276.69 350.953 276.69C348.692 275.159 349.057 273.37 349.178 272.396C349.623 268.851 365.046 262.208 371.659 265.793Z" fill="#00B0C7"/>
<path d="M407.386 191.326C404.833 194.78 396.133 195.3 392.961 194.157C392.542 196.737 395.326 202.784 398.823 209.035C398.823 209.035 405.071 208.482 404.9 206.315C404.729 204.147 407.386 191.326 407.386 191.326Z" fill="#BC3B43"/>
<path d="M404.173 205.986C404.173 205.986 416.266 261.511 415.067 268.174C413.868 274.838 406.829 280.506 406.829 280.506L404.605 270.07L398.823 209.045L404.173 205.986Z" fill="#BC3B43"/>
<path d="M409.104 256.707C398.049 270.138 409.241 235.199 404.866 244.982L402.689 249.849L398.823 209.052L404.183 205.993C409.392 238.764 416.377 247.866 409.104 256.707Z" fill="#E84A54"/>
<path d="M525.888 265.34L492.724 324.795L405.627 336.905L424.919 270.808C425.594 268.496 426.97 266.452 428.858 264.957C430.745 263.462 433.05 262.59 435.454 262.463L521.245 257.903C522.137 257.861 523.024 258.057 523.815 258.472C524.606 258.886 525.273 259.504 525.746 260.261C526.219 261.019 526.481 261.889 526.506 262.781C526.531 263.674 526.318 264.557 525.888 265.34Z" fill="#F5CB8F"/>
<path d="M476.291 304.179C480.113 298.446 480.699 292.123 477.6 290.057C474.502 287.991 468.891 290.964 465.07 296.697C461.248 302.43 460.662 308.752 463.761 310.818C466.859 312.884 472.47 309.912 476.291 304.179Z" fill="#E97E80"/>
<path d="M0.0217285 107.05H205.17C204.5 105.771 196.554 104.504 181.352 103.462C180.012 99.0704 176.042 95.4221 170.716 93.4891C174.89 71.5526 141.642 57.7668 121.241 72.7854C120.235 67.8655 117.499 63.4693 113.528 60.3947C109.558 57.32 104.617 55.7706 99.6025 56.0275C94.5876 56.2845 89.831 58.3308 86.1958 61.7952C82.5606 65.2595 80.2877 69.9124 79.7896 74.9094C69.2809 73.3181 59.315 77.2042 53.8647 83.9547C53.2599 82.655 52.1758 81.6397 50.8394 81.1213C49.5029 80.603 48.0178 80.6217 46.6949 81.1737C45.372 81.7257 44.3139 82.768 43.7421 84.0826C43.1703 85.3971 43.1292 86.8819 43.6274 88.2261C33.3231 88.9932 25.3637 94.0419 25.3637 100.159C25.3738 101.252 25.6267 102.329 26.1041 103.312C8.0213 104.481 0.276321 105.784 0.0217285 107.05Z" fill="url(#paint37_linear)"/>
<path d="M841.022 99.0051L805.486 94.7672C805.486 94.7672 789.862 78.6532 776.188 76.9547C762.513 75.2562 756.658 76.1071 756.658 76.1071C756.658 76.1071 758.561 58.3515 737.771 58.3515C720.241 58.3515 720.522 69.3332 720.522 69.3332C720.522 69.3332 707.826 61.6983 699.036 71.0283C699.036 71.0283 687.312 40.492 655.089 44.7333C622.866 48.9745 620.92 80.3584 620.92 80.3584C620.92 80.3584 593.575 78.6632 578.926 91.387C574.52 95.2128 570.738 97.5713 567.596 99.0152L841.022 99.0051Z" fill="url(#paint38_linear)"/>
<path d="M572.899 21.4242C571.003 19.2266 566.769 18.2818 563.429 18.6537C559.771 9.60839 544 5.77921 532.945 11.585C529.361 6.75745 523.458 7.83618 520.885 13.7391C518.175 6.27168 509.63 0.821045 499.503 0.821045C487.668 0.821045 477.99 8.26165 477.236 17.6688C462.095 18.3086 453.716 19.8095 451.844 21.4242H572.899Z" fill="url(#paint39_linear)"/>
<defs>
<linearGradient id="paint0_linear" x1="-37.642" y1="133.782" x2="941.51" y2="788.982" gradientUnits="userSpaceOnUse">
<stop stop-color="#FFE0DE"/>
<stop offset="0.5" stop-color="#FFFBF5"/>
<stop offset="0.61" stop-color="#FFEFEA"/>
<stop offset="0.84" stop-color="#FFDCD8"/>
<stop offset="1" stop-color="#FFD5D1"/>
</linearGradient>
<linearGradient id="paint1_linear" x1="396.217" y1="719.482" x2="406.881" y2="827.442" gradientUnits="userSpaceOnUse">
<stop stop-color="#5D52EE"/>
<stop offset="0.03" stop-color="#6456E9"/>
<stop offset="0.57" stop-color="#E49C93"/>
<stop offset="0.78" stop-color="#F7D3CE"/>
<stop offset="0.95" stop-color="#FFFDFC"/>
<stop offset="1" stop-color="white"/>
</linearGradient>
<linearGradient id="paint2_linear" x1="566.214" y1="451.945" x2="525.901" y2="647.387" gradientUnits="userSpaceOnUse">
<stop stop-color="#F2D09F"/>
<stop offset="0.39" stop-color="#F0B393"/>
<stop offset="0.76" stop-color="#EF9E8B"/>
<stop offset="1" stop-color="#EF9688"/>
</linearGradient>
<linearGradient id="paint3_linear" x1="26151.5" y1="91153.7" x2="15394" y2="95824.4" gradientUnits="userSpaceOnUse">
<stop stop-color="#F2D09F"/>
<stop offset="0.39" stop-color="#F0B393"/>
<stop offset="0.76" stop-color="#EF9E8B"/>
<stop offset="1" stop-color="#EF9688"/>
</linearGradient>
<linearGradient id="paint4_linear" x1="24099.2" y1="80779.9" x2="14159.1" y2="85297.1" gradientUnits="userSpaceOnUse">
<stop stop-color="#F2D09F"/>
<stop offset="0.39" stop-color="#F0B393"/>
<stop offset="0.76" stop-color="#EF9E8B"/>
<stop offset="1" stop-color="#EF9688"/>
</linearGradient>
<linearGradient id="paint5_linear" x1="63471.6" y1="44939" x2="58028.6" y2="56770.8" gradientUnits="userSpaceOnUse">
<stop stop-color="#F2D09F"/>
<stop offset="0.39" stop-color="#F0B393"/>
<stop offset="0.76" stop-color="#EF9E8B"/>
<stop offset="1" stop-color="#EF9688"/>
</linearGradient>
<linearGradient id="paint6_linear" x1="28554.3" y1="69141.6" x2="18277" y2="75670.1" gradientUnits="userSpaceOnUse">
<stop stop-color="#F2D09F"/>
<stop offset="0.39" stop-color="#F0B393"/>
<stop offset="0.76" stop-color="#EF9E8B"/>
<stop offset="1" stop-color="#EF9688"/>
</linearGradient>
<linearGradient id="paint7_linear" x1="60155.3" y1="27897.3" x2="57722.3" y2="36070.2" gradientUnits="userSpaceOnUse">
<stop stop-color="#F2D09F"/>
<stop offset="0.39" stop-color="#F0B393"/>
<stop offset="0.76" stop-color="#EF9E8B"/>
<stop offset="1" stop-color="#EF9688"/>
</linearGradient>
<linearGradient id="paint8_linear" x1="27118.2" y1="60554.9" x2="17762.9" y2="67029.5" gradientUnits="userSpaceOnUse">
<stop stop-color="#F2D09F"/>
<stop offset="0.39" stop-color="#F0B393"/>
<stop offset="0.76" stop-color="#EF9E8B"/>
<stop offset="1" stop-color="#EF9688"/>
</linearGradient>
<linearGradient id="paint9_linear" x1="60538" y1="22918" x2="58871.7" y2="29850.7" gradientUnits="userSpaceOnUse">
<stop stop-color="#F2D09F"/>
<stop offset="0.39" stop-color="#F0B393"/>
<stop offset="0.76" stop-color="#EF9E8B"/>
<stop offset="1" stop-color="#EF9688"/>
</linearGradient>
<linearGradient id="paint10_linear" x1="279.366" y1="543.648" x2="267.527" y2="543.648" gradientUnits="userSpaceOnUse">
<stop stop-color="#FFF0D2"/>
<stop offset="0.8" stop-color="#FFA88D"/>
<stop offset="1" stop-color="#FF9D84"/>
</linearGradient>
<linearGradient id="paint11_linear" x1="17966.2" y1="554075" x2="17547.8" y2="554075" gradientUnits="userSpaceOnUse">
<stop stop-color="#FFF0D2"/>
<stop offset="0.8" stop-color="#FFA88D"/>
<stop offset="1" stop-color="#FF9D84"/>
</linearGradient>
<linearGradient id="paint12_linear" x1="294.725" y1="543.443" x2="504.05" y2="543.443" gradientUnits="userSpaceOnUse">
<stop stop-color="#0C54BC"/>
<stop offset="0.09" stop-color="#357CCD"/>
<stop offset="0.18" stop-color="#79ACDE"/>
<stop offset="0.5" stop-color="#A4C4E6"/>
<stop offset="0.83" stop-color="#A9C7E7"/>
<stop offset="0.92" stop-color="#4387D2"/>
<stop offset="1" stop-color="#0C54BC"/>
</linearGradient>
<linearGradient id="paint13_linear" x1="399.838" y1="653.789" x2="399.838" y2="803.76" gradientUnits="userSpaceOnUse">
<stop stop-color="white"/>
<stop offset="0.11" stop-color="#F8F6F8"/>
<stop offset="0.29" stop-color="#E4DEE6"/>
<stop offset="0.52" stop-color="#C3B6C9"/>
<stop offset="0.79" stop-color="#9680A1"/>
<stop offset="1" stop-color="#6E4F7D"/>
</linearGradient>
<linearGradient id="paint14_linear" x1="225470" y1="75582.3" x2="225470" y2="38839.4" gradientUnits="userSpaceOnUse">
<stop stop-color="white"/>
<stop offset="0.11" stop-color="#F8F6F8"/>
<stop offset="0.29" stop-color="#E4DEE6"/>
<stop offset="0.52" stop-color="#C3B6C9"/>
<stop offset="0.79" stop-color="#9680A1"/>
<stop offset="1" stop-color="#6E4F7D"/>
</linearGradient>
<linearGradient id="paint15_linear" x1="310.406" y1="477.168" x2="489.84" y2="477.168" gradientUnits="userSpaceOnUse">
<stop stop-color="#FF9D84"/>
<stop offset="0.2" stop-color="#FFA88D"/>
<stop offset="1" stop-color="#FFF0D2"/>
</linearGradient>
<linearGradient id="paint16_linear" x1="194648" y1="131399" x2="195923" y2="157764" gradientUnits="userSpaceOnUse">
<stop stop-color="#FFF0D2"/>
<stop offset="0.8" stop-color="#FFA88D"/>
<stop offset="1" stop-color="#FF9D84"/>
</linearGradient>
<linearGradient id="paint17_linear" x1="472.13" y1="713.852" x2="432.714" y2="591.91" gradientUnits="userSpaceOnUse">
<stop offset="0.46" stop-color="white"/>
<stop offset="1"/>
</linearGradient>
<linearGradient id="paint18_linear" x1="1599.15" y1="217086" x2="9671.81" y2="217927" gradientUnits="userSpaceOnUse">
<stop stop-color="#FF9D84"/>
<stop offset="0.2" stop-color="#FFA88D"/>
<stop offset="1" stop-color="#FFF0D2"/>
</linearGradient>
<linearGradient id="paint19_linear" x1="205762" y1="150986" x2="205762" y2="192921" gradientUnits="userSpaceOnUse">
<stop stop-color="#FFF0D2"/>
<stop offset="0.8" stop-color="#FFA88D"/>
<stop offset="1" stop-color="#FF9D84"/>
</linearGradient>
<linearGradient id="paint20_linear" x1="101987" y1="180496" x2="70894.8" y2="231004" gradientUnits="userSpaceOnUse">
<stop offset="0.46" stop-color="white"/>
<stop offset="1"/>
</linearGradient>
<linearGradient id="paint21_linear" x1="60201.7" y1="110507" x2="41860.6" y2="143474" gradientUnits="userSpaceOnUse">
<stop offset="0.46" stop-color="white"/>
<stop offset="1"/>
</linearGradient>
<linearGradient id="paint22_linear" x1="544.34" y1="346.135" x2="254.593" y2="346.135" gradientUnits="userSpaceOnUse">
<stop stop-color="#E994A9"/>
<stop offset="1" stop-color="#AC6E94"/>
</linearGradient>
<linearGradient id="paint23_linear" x1="331133" y1="14295.7" x2="331133" y2="12980" gradientUnits="userSpaceOnUse">
<stop stop-color="#E994A9"/>
<stop offset="1" stop-color="#AC6E94"/>
</linearGradient>
<linearGradient id="paint24_linear" x1="254.593" y1="741.596" x2="544.336" y2="741.596" gradientUnits="userSpaceOnUse">
<stop stop-color="#AC6E94"/>
<stop offset="1" stop-color="#E994A9"/>
</linearGradient>
<linearGradient id="paint25_linear" x1="-3.17038e+06" y1="29179.2" x2="-3.17038e+06" y2="30494.9" gradientUnits="userSpaceOnUse">
<stop stop-color="#E994A9"/>
<stop offset="1" stop-color="#AC6E94"/>
</linearGradient>
<linearGradient id="paint26_linear" x1="421.09" y1="361.656" x2="421.09" y2="457.302" gradientUnits="userSpaceOnUse">
<stop stop-color="#494CA3"/>
<stop offset="0.55" stop-color="#ACAED5"/>
<stop offset="1" stop-color="white"/>
</linearGradient>
<linearGradient id="paint27_linear" x1="438.181" y1="248.874" x2="412.899" y2="237.154" gradientUnits="userSpaceOnUse">
<stop stop-color="#1ABED4"/>
<stop offset="0.97" stop-color="#354A9A"/>
</linearGradient>
<linearGradient id="paint28_linear" x1="446.768" y1="278.259" x2="484.514" y2="292.837" gradientUnits="userSpaceOnUse">
<stop stop-color="#F5958F"/>
<stop offset="1" stop-color="#D96C71"/>
</linearGradient>
<linearGradient id="paint29_linear" x1="-486487" y1="34118.6" x2="-491552" y2="34428.5" gradientUnits="userSpaceOnUse">
<stop stop-color="#1ABED4"/>
<stop offset="0.97" stop-color="#354A9A"/>
</linearGradient>
<linearGradient id="paint30_linear" x1="461.324" y1="372.658" x2="83.1508" y2="209.926" gradientUnits="userSpaceOnUse">
<stop stop-color="#124C80"/>
<stop offset="0.36" stop-color="#113B67"/>
<stop offset="0.75" stop-color="#102D52"/>
<stop offset="1" stop-color="#10284A"/>
</linearGradient>
<linearGradient id="paint31_linear" x1="1.2116e+06" y1="26741.7" x2="1.21153e+06" y2="32441" gradientUnits="userSpaceOnUse">
<stop stop-color="#1ABED4"/>
<stop offset="0.97" stop-color="#354A9A"/>
</linearGradient>
<linearGradient id="paint32_linear" x1="365.617" y1="193.424" x2="400.111" y2="193.556" gradientUnits="userSpaceOnUse">
<stop stop-color="#009ED3"/>
<stop offset="0.04" stop-color="#0197CB"/>
<stop offset="0.34" stop-color="#0A6D9C"/>
<stop offset="0.61" stop-color="#114E7A"/>
<stop offset="0.83" stop-color="#153C65"/>
<stop offset="0.97" stop-color="#16355D"/>
</linearGradient>
<linearGradient id="paint33_linear" x1="-165532" y1="6310.27" x2="-165062" y2="6310.27" gradientUnits="userSpaceOnUse">
<stop stop-color="#009ED3"/>
<stop offset="0.04" stop-color="#0197CB"/>
<stop offset="0.34" stop-color="#0A6D9C"/>
<stop offset="0.61" stop-color="#114E7A"/>
<stop offset="0.83" stop-color="#153C65"/>
<stop offset="0.97" stop-color="#16355D"/>
</linearGradient>
<linearGradient id="paint34_linear" x1="-160732" y1="13655.5" x2="-163316" y2="9948.51" gradientUnits="userSpaceOnUse">
<stop stop-color="#F5958F"/>
<stop offset="1" stop-color="#D96C71"/>
</linearGradient>
<linearGradient id="paint35_linear" x1="402.26" y1="142.761" x2="395.943" y2="132.702" gradientUnits="userSpaceOnUse">
<stop stop-color="#F07D80"/>
<stop offset="1" stop-color="#D96C71"/>
</linearGradient>
<linearGradient id="paint36_linear" x1="-503943" y1="12219.2" x2="-506682" y2="13256.6" gradientUnits="userSpaceOnUse">
<stop stop-color="#F5958F"/>
<stop offset="1" stop-color="#D96C71"/>
</linearGradient>
<linearGradient id="paint37_linear" x1="104.378" y1="60.6613" x2="102.425" y2="111.513" gradientUnits="userSpaceOnUse">
<stop stop-color="#FDE7EB"/>
<stop offset="1" stop-color="#F7F0FF"/>
</linearGradient>
<linearGradient id="paint38_linear" x1="493554" y1="11703.4" x2="493541" y2="18855.8" gradientUnits="userSpaceOnUse">
<stop stop-color="#FDE7EB"/>
<stop offset="1" stop-color="#F7F0FF"/>
</linearGradient>
<linearGradient id="paint39_linear" x1="168054" y1="-341.604" x2="168042" y2="1225.2" gradientUnits="userSpaceOnUse">
<stop stop-color="#FDE7EB"/>
<stop offset="1" stop-color="#F7F0FF"/>
</linearGradient>
</defs>
</svg>
