<svg width="812" height="833" viewBox="0 0 812 833" fill="none" xmlns="http://www.w3.org/2000/svg">
<g clip-path="url(#clip0)">
<path opacity="0.3" d="M209.5 763C268.318 763 316 750.016 316 734C316 717.984 268.318 705 209.5 705C150.682 705 103 717.984 103 734C103 750.016 150.682 763 209.5 763Z" fill="url(#paint0_linear)"/>
<path opacity="0.3" d="M488.5 746C615.802 746 719 733.016 719 717C719 700.984 615.802 688 488.5 688C361.198 688 258 700.984 258 717C258 733.016 361.198 746 488.5 746Z" fill="url(#paint1_linear)"/>
<path fill-rule="evenodd" clip-rule="evenodd" d="M186.454 678.54C155.555 652.521 137.465 611.988 138.741 571.615C140.016 531.242 160.637 491.923 193.12 467.896C210.417 455.097 230.536 446.627 248.388 434.626C266.24 422.624 282.526 405.595 285.826 384.342C288.822 365.032 280.685 345.923 272.733 328.074C263.54 307.43 254.35 286.786 245.161 266.143C238.179 250.461 231.039 233.898 232.656 216.806C235.8 183.608 270.372 162.285 303.042 155.492C326.338 150.651 350.691 150.437 373.856 155.871C427.045 168.331 469.512 208.779 521.282 226.211C536.514 231.339 552.936 234.416 568.678 231.173C608.391 222.986 630.856 178.813 668.651 164.129C708.457 148.67 755.911 172.336 777.176 209.341C798.442 246.346 797.789 292.455 787.06 333.759C776.331 375.062 756.412 413.305 740.366 452.858C732.189 473.019 724.919 495.309 731.122 516.158C737.324 537.007 767.846 562.524 782.7 578.367C797.553 594.21 798.014 605.354 790.48 625.725C780.929 651.596 747.544 651.052 724.642 656.48C692.322 664.138 659.833 671.029 627.177 677.154C563.518 689.087 499.403 698.092 434.83 704.169C350.724 712.059 258.41 739.132 186.454 678.54Z" fill="url(#paint2_linear)"/>
<path d="M779.055 74.6032C777.159 72.4055 772.925 71.4608 769.585 71.8327C765.927 62.7873 750.156 58.9582 739.101 64.7639C735.517 59.9364 729.614 61.0151 727.042 66.918C724.331 59.4506 715.786 54 705.659 54C693.824 54 684.146 61.4406 683.392 70.8477C668.251 71.4876 659.873 72.9884 658 74.6032H779.055Z" fill="url(#paint3_linear)"/>
<path d="M311 54C309.716 52.5067 306.847 51.8647 304.585 52.1174C302.107 45.9711 291.424 43.3691 283.936 47.3141C281.508 44.0338 277.51 44.7668 275.767 48.7779C273.931 43.7037 268.143 40 261.283 40C253.266 40 246.711 45.0559 246.2 51.4481C235.944 51.8829 230.268 52.9028 229 54H311Z" fill="url(#paint4_linear)"/>
</g>
<path d="M0 112.05H205.148C204.478 110.771 196.532 109.504 181.33 108.462C179.99 104.07 176.021 100.422 170.694 98.4891C174.868 76.5526 141.62 62.7668 121.22 77.7854C120.213 72.8655 117.477 68.4693 113.507 65.3947C109.536 62.32 104.596 60.7706 99.5807 61.0275C94.5659 61.2845 89.8093 63.3308 86.1741 66.7952C82.5389 70.2595 80.266 74.9124 79.7679 79.9094C69.2592 78.3181 59.2933 82.2042 53.843 88.9547C53.2382 87.655 52.1541 86.6397 50.8176 86.1213C49.4812 85.603 47.9961 85.6217 46.6732 86.1737C45.3502 86.7257 44.2921 87.768 43.7204 89.0826C43.1486 90.3971 43.1075 91.8819 43.6057 93.2261C33.3014 93.9932 25.342 99.0419 25.342 105.159C25.3521 106.252 25.6049 107.329 26.0823 108.312C7.99957 109.481 0.254593 110.784 0 112.05Z" fill="url(#paint5_linear)"/>
<path d="M438.963 187.539H357.823V219.601H438.963V187.539Z" fill="#BD799A"/>
<path d="M369.867 186.04H363.738V215.401H369.867V186.04Z" fill="#654B7B"/>
<path d="M385.641 186.039H379.511V215.401H385.641V186.039Z" fill="#654B7B"/>
<path d="M401.457 186.039H395.328V215.401H401.457V186.039Z" fill="#654B7B"/>
<path d="M417.231 186.039H411.102V215.401H417.231V186.039Z" fill="#654B7B"/>
<path d="M433.048 186.039H426.918V215.401H433.048V186.039Z" fill="#654B7B"/>
<path d="M499.358 250.506H363.909V385.998H499.358V250.506Z" fill="#4BA2F4"/>
<path d="M227.86 308.072C227.86 308.072 227.774 356.936 216.33 398.342L191.94 413.602H105.87C122.201 370.095 122.33 308.072 122.33 308.072H227.86Z" fill="#4BDAE3"/>
<path d="M191.941 413.602V397.957H216.33L191.941 413.602Z" fill="#1ABED4"/>
<path d="M171.495 380.254C170.123 380.254 169.051 379.14 169.051 377.811V343.863C169.051 342.491 170.166 341.42 171.495 341.42C172.866 341.42 173.938 342.534 173.938 343.863V377.811C173.938 379.14 172.866 380.254 171.495 380.254Z" fill="white"/>
<path d="M188.469 363.28H154.564C153.192 363.28 152.12 362.166 152.12 360.837C152.12 359.465 153.235 358.394 154.564 358.394H188.469C189.84 358.394 190.912 359.508 190.912 360.837C190.912 362.166 189.797 363.28 188.469 363.28Z" fill="white"/>
<path d="M606.303 411.544C606.303 526.419 513.203 619.518 398.372 619.518C352.508 619.518 310.073 604.645 275.696 579.484C224.002 541.678 190.44 480.555 190.44 411.544C190.44 296.67 283.54 203.57 398.372 203.57C446.464 203.57 490.785 219.901 525.976 247.334C574.884 285.397 606.303 344.806 606.303 411.544Z" fill="#AC6E94"/>
<path d="M582.759 411.81C582.888 309.969 500.454 227.306 398.637 227.177C296.82 227.047 214.176 309.501 214.046 411.341C213.917 513.182 296.351 595.845 398.168 595.975C499.985 596.104 582.629 513.651 582.759 411.81Z" fill="#E8F0FF"/>
<path d="M400.943 246.048H395.843V264.608H400.943V246.048Z" fill="#654B7B"/>
<path d="M400.943 558.523H395.843V577.083H400.943V558.523Z" fill="#654B7B"/>
<path d="M563.872 414.113V409.013H545.312V414.113H563.872Z" fill="#654B7B"/>
<path d="M251.452 414.101V409H232.892V414.101H251.452Z" fill="#654B7B"/>
<path d="M513.615 530.462L517.221 526.854L504.095 513.733L500.489 517.34L513.615 530.462Z" fill="#654B7B"/>
<path d="M292.697 309.48L296.303 305.873L283.176 292.753L279.57 296.36L292.697 309.48Z" fill="#654B7B"/>
<path d="M279.546 526.828L283.152 530.435L296.278 517.313L292.672 513.706L279.546 526.828Z" fill="#654B7B"/>
<path d="M500.473 305.835L504.079 309.442L517.206 296.322L513.601 292.715L500.473 305.835Z" fill="#654B7B"/>
<path d="M398.371 568.039C356.579 568.039 317.273 551.751 287.74 522.218C258.207 492.642 241.919 453.379 241.919 411.544C241.919 369.709 258.207 330.446 287.74 300.87C317.273 271.295 356.579 255.049 398.371 255.049C440.163 255.049 479.469 271.337 509.002 300.87C538.535 330.446 554.823 369.709 554.823 411.544C554.823 453.379 538.535 492.642 509.002 522.218C479.469 551.794 440.163 568.039 398.371 568.039ZM398.371 255.564C312.387 255.564 242.391 325.56 242.391 411.587C242.391 497.614 312.344 567.61 398.371 567.61C484.399 567.61 554.352 497.614 554.352 411.587C554.352 325.56 484.399 255.564 398.371 255.564Z" fill="#8B84AB"/>
<path d="M403.772 441.292H392.928L395.671 276.224H401.029L403.772 441.292Z" fill="#857DAB"/>
<path d="M399.615 438.206H397.086C396.357 438.206 395.8 437.605 395.8 436.92L397.086 326.546C397.086 325.817 397.686 325.26 398.371 325.26C399.1 325.26 399.657 325.817 399.657 326.546L400.943 436.92C400.943 437.605 400.343 438.206 399.615 438.206Z" fill="#DBD7E8"/>
<path d="M378.397 422.689L376.425 414.588L500.515 387.026L501.458 391.013L378.397 422.689Z" fill="#857DAB"/>
<path d="M379.94 419.045L379.468 417.117C379.34 416.559 379.683 416.045 380.197 415.916L463.052 397.056C463.567 396.928 464.124 397.271 464.253 397.785C464.381 398.299 464.038 398.857 463.524 398.985L381.14 419.731C380.626 419.903 380.069 419.603 379.94 419.045Z" fill="#DBD7E8"/>
<path d="M409.516 411.587C409.516 417.76 404.544 422.732 398.371 422.732C392.199 422.732 387.227 417.76 387.227 411.587C387.227 405.415 392.199 400.443 398.371 400.443C404.544 400.443 409.516 405.415 409.516 411.587Z" fill="#E8505B"/>
<path d="M405.101 411.587C405.101 415.273 402.101 418.317 398.414 418.317C394.728 418.317 391.728 415.316 391.728 411.587C391.728 407.901 394.728 404.858 398.414 404.858C402.101 404.858 405.101 407.858 405.101 411.587Z" fill="#F6667F"/>
<path d="M597.644 527.662C597.644 527.662 597.601 569.282 587.828 604.559L567.04 617.589H493.743C507.673 580.512 507.759 527.704 507.759 527.704H597.644V527.662Z" fill="#1ABED4"/>
<path d="M567.039 617.546V604.216H587.828L567.039 617.546Z" fill="#08A4B9"/>
<path d="M542.479 584.542L527.219 567.096C526.405 566.153 526.491 564.739 527.434 563.924C528.377 563.11 529.791 563.196 530.605 564.139L542.907 578.198L568.283 556.338C569.226 555.523 570.64 555.609 571.454 556.595C572.269 557.538 572.14 558.952 571.197 559.767L542.479 584.542Z" fill="white"/>
<path d="M558.853 659.596L558.767 657.753C562.967 657.538 567.254 657.195 571.497 656.81L571.669 658.61C567.382 659.039 563.053 659.381 558.853 659.596ZM591.686 656.124L591.386 654.324C595.587 653.681 599.787 652.952 603.988 652.138L604.331 653.938C600.173 654.752 595.93 655.481 591.686 656.124ZM624.091 649.523L623.619 647.765C627.734 646.737 631.849 645.579 635.921 644.379L636.436 646.137C632.364 647.337 628.206 648.451 624.091 649.523ZM655.639 639.836L655.038 638.121C659.068 636.664 663.054 635.121 666.955 633.578L667.64 635.292C663.697 636.835 659.668 638.378 655.639 639.836ZM686.072 627.062L685.257 625.433C689.115 623.59 692.93 621.619 696.616 619.647L697.473 621.276C693.787 623.247 689.972 625.219 686.072 627.062ZM714.962 611.031L713.976 609.488C717.576 607.174 721.177 604.816 724.563 602.373L725.635 603.873C722.206 606.316 718.648 608.717 714.962 611.031ZM741.623 591.528L740.423 590.114C743.68 587.328 746.895 584.456 749.896 581.584L751.181 582.913C748.138 585.828 744.923 588.699 741.623 591.528ZM765.026 568.168L763.612 567.01C766.355 563.753 768.97 560.367 771.413 556.98L772.913 558.052C770.47 561.438 767.813 564.867 765.026 568.168ZM783.629 540.821L782 539.964C784.015 536.191 785.815 532.334 787.444 528.519L789.116 529.205C787.487 533.105 785.644 537.006 783.629 540.821ZM795.502 510.002L793.745 509.573C794.731 505.458 795.545 501.301 796.145 497.143L797.946 497.4C797.303 501.601 796.531 505.844 795.502 510.002ZM797.26 477.211C797.174 473.011 796.874 468.767 796.36 464.524L798.16 464.309C798.674 468.596 798.974 472.925 799.06 477.168L797.26 477.211ZM792.545 444.892C791.473 440.863 790.187 436.791 788.773 432.762L790.487 432.162C791.945 436.234 793.231 440.391 794.302 444.463L792.545 444.892ZM780.972 414.288C779.086 410.43 777.028 406.701 774.928 403.143L776.514 402.2C778.657 405.801 780.714 409.615 782.643 413.473L780.972 414.288ZM763.526 386.726C760.869 383.426 758.04 380.211 755.125 377.211L756.454 375.925C759.411 378.968 762.283 382.226 764.984 385.569L763.526 386.726ZM740.166 363.966C736.822 361.437 733.307 358.993 729.707 356.765L730.693 355.221C734.336 357.493 737.894 359.979 741.28 362.551L740.166 363.966ZM712.09 347.292C708.318 345.577 704.374 343.948 700.302 342.491L700.945 340.776C705.017 342.277 709.047 343.906 712.861 345.62L712.09 347.292ZM681.142 336.662C677.113 335.633 672.955 334.733 668.712 333.918L669.055 332.118C673.341 332.932 677.542 333.875 681.614 334.904L681.142 336.662ZM471.797 336.233V334.39C475.697 334.39 479.898 334.261 484.57 334.09L484.656 335.933C479.941 336.104 475.74 336.233 471.797 336.233ZM451.565 335.247C447.236 334.733 442.949 334.047 438.877 333.19L439.263 331.389C443.292 332.247 447.536 332.932 451.779 333.447L451.565 335.247ZM504.759 334.69L504.63 332.847C508.788 332.547 513.031 332.204 517.361 331.861L517.489 333.704C513.16 334.047 508.917 334.39 504.759 334.69ZM537.592 332.075L537.464 330.232C541.664 329.889 545.908 329.546 550.237 329.246L550.366 331.089C546.036 331.389 541.793 331.732 537.592 332.075ZM648.866 330.875C644.751 330.403 640.465 330.018 636.178 329.675L636.307 327.832C640.636 328.175 644.923 328.56 649.08 329.032L648.866 330.875ZM570.426 329.718L570.34 327.875C574.755 327.617 579.041 327.403 583.113 327.274L583.199 329.118C579.127 329.289 574.841 329.46 570.426 329.718ZM616.075 328.732C612.689 328.646 609.132 328.646 605.574 328.603C604.802 328.603 604.074 328.603 603.302 328.603V326.76C604.159 326.76 605.017 326.76 605.917 326.76C609.389 326.76 612.818 326.803 616.118 326.889L616.075 328.732ZM419.503 327.232C415.474 325.603 411.573 323.717 407.887 321.659L408.787 320.073C412.431 322.088 416.245 323.931 420.189 325.56L419.503 327.232ZM391.299 310C388.041 307.171 384.998 304.128 382.169 300.913L383.541 299.713C386.327 302.885 389.327 305.886 392.499 308.629L391.299 310ZM370.51 284.282C368.41 280.425 366.609 276.481 365.152 272.495L366.867 271.852C368.281 275.752 370.039 279.61 372.096 283.382L370.51 284.282ZM360.951 252.563C360.909 251.963 360.909 251.406 360.909 250.849C360.909 246.477 361.594 242.576 362.88 239.618L364.552 240.347C363.352 243.09 362.752 246.691 362.752 250.849C362.752 251.406 362.752 251.963 362.795 252.52L360.951 252.563Z" fill="white"/>
<path d="M448.222 686.857L534.206 665.468L509.045 656.767L448.222 686.857Z" fill="#D6D6D6"/>
<path d="M448.222 686.857L481.27 656.167L500.687 660.925L448.222 686.857Z" fill="#FFFCFC"/>
<path d="M514.446 670.398L513.374 680.213L448.222 686.857L514.446 670.398Z" fill="#C2C2C2"/>
<path d="M89.9679 444.12L18 392.427L44.6183 393.67L89.9679 444.12Z" fill="#D6D6D6"/>
<path d="M89.9679 444.12L70.6364 403.4L50.8334 400.614L89.9679 444.12Z" fill="#E8E8E8"/>
<path d="M34.5453 404.343L31.9306 413.816L89.9679 444.12L34.5453 404.343Z" fill="#FAFAFA"/>
<path d="M38.2317 376.182C36.6029 371.938 35.0169 367.738 33.6024 363.58L35.317 362.98C36.7315 367.095 38.2746 371.296 39.9034 375.496L38.2317 376.182ZM27.6444 344.249C26.4442 339.748 25.3726 335.247 24.4296 330.875L26.2299 330.489C27.13 334.819 28.2016 339.276 29.4018 343.777L27.6444 344.249ZM21.3006 310.901C20.8291 306.229 20.529 301.599 20.4005 297.142L22.2436 297.099C22.3293 301.514 22.6294 306.1 23.1009 310.686L21.3006 310.901ZM23.2294 277.167L21.4292 276.953C22.0293 272.324 22.8437 267.78 23.9153 263.408L25.6727 263.837C24.6439 268.123 23.8295 272.624 23.2294 277.167ZM32.2737 245.062L30.602 244.291C32.5308 240.133 34.8026 236.061 37.2887 232.203L38.8318 233.189C36.3886 237.004 34.2025 240.99 32.2737 245.062ZM51.2622 217.63L49.9335 216.344C53.0625 213.129 56.4916 209.957 60.135 207.042L61.2923 208.457C57.6918 211.371 54.3055 214.458 51.2622 217.63ZM77.7091 197.141L76.7661 195.555C80.6238 193.283 84.7387 191.14 88.9393 189.125L89.7109 190.797C85.596 192.769 81.5239 194.912 77.7091 197.141ZM108.314 183.167L107.714 181.453C111.914 179.995 116.329 178.581 120.83 177.295L121.344 179.052C116.843 180.338 112.471 181.71 108.314 183.167ZM342.777 177.766L342.735 175.923C347.321 175.838 351.907 175.666 356.365 175.28L356.494 177.123C352.036 177.466 347.407 177.681 342.777 177.766ZM322.546 177.209C318.045 176.909 313.459 176.481 308.872 175.923L309.087 174.123C313.63 174.68 318.217 175.109 322.674 175.409L322.546 177.209ZM376.597 174.595L376.254 172.794C380.797 171.98 385.255 170.994 389.542 169.88L390.013 171.637C385.684 172.751 381.183 173.737 376.597 174.595ZM140.847 174.337L140.461 172.537C144.833 171.637 149.42 170.823 154.006 170.094L154.306 171.894C149.72 172.623 145.219 173.437 140.847 174.337ZM288.941 172.837C284.654 172.108 280.111 171.466 275.396 170.865L275.61 169.065C280.325 169.665 284.912 170.351 289.198 171.037L288.941 172.837ZM174.238 169.322L174.066 167.522C178.524 167.051 183.153 166.708 187.783 166.365L187.911 168.208C183.282 168.465 178.696 168.851 174.238 169.322ZM255.421 168.808C250.921 168.465 246.334 168.122 241.791 167.908L241.877 166.065C246.463 166.322 251.049 166.622 255.593 166.965L255.421 168.808ZM207.971 167.351L207.929 165.507C212.472 165.422 217.144 165.379 221.645 165.422V167.265C217.144 167.222 212.515 167.222 207.971 167.351ZM409.259 165.165L408.573 163.493C416.503 160.192 420.618 157.449 420.661 157.406L421.689 158.906C421.475 159.078 417.36 161.778 409.259 165.165Z" fill="url(#paint6_linear)"/>
<path d="M336.991 140.475C336.991 140.475 336.905 196.969 323.66 244.848L295.456 262.508H195.97C214.872 212.186 215.001 140.475 215.001 140.475H336.991Z" fill="#1ABED4"/>
<path d="M295.456 262.508V244.419H323.66L295.456 262.508Z" fill="#08A4B9"/>
<path d="M265.623 215.144L248.949 196.112C248.049 195.083 248.134 193.54 249.163 192.64C250.192 191.74 251.735 191.826 252.635 192.854L266.094 208.2L293.827 184.325C294.856 183.424 296.399 183.553 297.299 184.582C298.199 185.611 298.071 187.154 297.042 188.054L265.623 215.144Z" fill="white"/>
<path d="M589.071 712.875C592.801 712.618 603.302 711.589 609.174 711.847C615.047 712.104 617.276 711.161 616.676 707.346C616.633 707.132 616.59 706.917 616.547 706.703C615.818 702.974 613.932 698.387 613.761 696.801C613.547 695.173 606.174 696.459 606.174 696.459C606.174 696.459 602.574 701.902 600.473 703.06C598.373 704.217 592.029 706.746 589.629 707.86C589.457 707.946 589.243 708.032 589.071 708.117C586.5 709.06 582.085 709.403 581.485 710.732C580.885 712.19 585.342 713.133 589.071 712.875Z" fill="#EEA987"/>
<path d="M604.031 698.73C604.031 698.73 598.33 704.988 593.272 705.288C588.214 705.589 577.927 707.817 580.756 711.375C583.156 714.376 595.287 713.261 599.83 712.961C604.374 712.661 619.376 715.576 617.233 707.089C615.09 698.602 615.518 697.273 615.518 697.273L604.031 698.73Z" fill="#342F40"/>
<path d="M775.698 329.913C776.281 281.436 737.474 241.665 689.02 241.082C640.567 240.499 600.815 279.326 600.232 327.803C599.649 376.28 638.455 416.051 686.909 416.634C735.363 417.216 775.115 378.39 775.698 329.913Z" fill="#FCCCA6"/>
<path d="M680.971 416.345L705.275 242.791C750.496 251.878 781.315 294.741 774.842 340.991C768.37 387.284 726.921 420.031 680.971 416.345Z" fill="#F8BB66"/>
<path d="M601.073 316.644C606.774 275.967 639.522 245.705 678.571 241.547L654.953 410.173C618.519 395.428 595.373 357.365 601.073 316.644Z" fill="#F5CB8F"/>
<path d="M688.096 395.557C724.931 395.481 754.731 365.56 754.655 328.725C754.579 291.889 724.658 262.09 687.823 262.166C650.988 262.241 621.188 292.163 621.264 328.998C621.339 365.833 651.261 395.632 688.096 395.557Z" fill="#E97E80"/>
<path d="M709.604 317.073C709.132 316.344 708.404 315.53 707.375 314.587C706.346 313.687 705.189 312.744 703.817 311.844C702.446 310.944 700.903 310.086 699.231 309.358C697.559 308.586 695.759 308.029 693.959 307.6L690.83 327.532L692.587 328.218C695.93 329.589 698.888 331.004 701.545 332.504C704.16 333.961 706.346 335.59 708.018 337.39C709.69 339.191 710.933 341.205 711.618 343.52C712.347 345.835 712.476 348.535 711.961 351.621C711.447 355.007 710.375 357.836 708.747 360.022C707.161 362.251 705.146 363.966 702.746 365.252C700.345 366.538 697.645 367.309 694.687 367.695C691.687 368.038 688.558 367.995 685.3 367.566L683.714 377.682L678.699 376.911L680.328 366.623C675.742 365.595 671.498 363.966 667.598 361.823C663.654 359.679 660.182 356.936 657.139 353.721L663.483 345.234C664.083 346.135 664.983 347.12 666.183 348.235C667.383 349.349 668.841 350.464 670.469 351.578C672.141 352.693 673.984 353.764 676.042 354.707C678.099 355.693 680.242 356.508 682.514 357.108L685.643 337.176C685.257 337.005 684.914 336.833 684.486 336.662C684.1 336.49 683.714 336.319 683.328 336.147C680.071 334.733 677.242 333.318 674.884 331.904C672.527 330.489 670.598 328.989 669.141 327.317C667.683 325.646 666.697 323.803 666.14 321.745C665.583 319.731 665.497 317.373 665.926 314.673C666.44 311.544 667.383 308.843 668.883 306.572C670.341 304.3 672.227 302.457 674.499 300.999C676.77 299.542 679.299 298.513 682.128 297.956C684.957 297.399 687.958 297.227 691.215 297.484L692.758 287.754L697.773 288.526L696.23 298.256C700.345 299.156 704.074 300.613 707.375 302.585C710.675 304.557 713.504 306.743 715.905 309.143L709.604 317.073ZM677.456 314.544C677.028 317.245 677.67 319.388 679.342 321.059C681.014 322.688 683.714 324.36 687.4 325.989L690.401 307.043C686.457 306.614 683.414 307.086 681.314 308.415C679.171 309.743 677.885 311.801 677.456 314.544ZM700.217 350.892C700.645 348.063 699.874 345.749 697.859 343.949C695.845 342.148 692.887 340.348 689.029 338.548L686.029 357.622C690.144 358.222 693.444 357.922 695.887 356.808C698.331 355.693 699.788 353.721 700.217 350.892Z" fill="#F5CB8F"/>
<path d="M629.149 403.829C629.149 403.829 629.921 399.2 632.364 397.614C634.764 396.028 638.965 392.513 639.608 388.827C640.251 385.141 635.879 390.37 634.207 391.742C632.535 393.113 625.291 389.727 624.691 389.984C624.134 390.241 623.105 393.113 623.105 395.342C623.105 397.571 622.248 401.686 622.248 401.686C622.248 401.686 621.091 401.772 629.149 403.829Z" fill="#FAB99B"/>
<path d="M612.947 435.848C613.632 442.663 617.962 473.397 619.505 484.155C619.848 486.513 620.019 487.884 620.019 487.884C620.019 487.884 619.419 492.942 628.763 488.399C628.763 488.399 633.392 483.77 633.435 478.283C633.478 472.839 630.392 466.71 629.663 464.481C628.935 462.252 624.648 439.406 624.863 438.591C625.077 437.777 627.863 425.647 628.377 417.802C628.892 409.958 631.678 400.186 631.678 400.186L621.991 398.3C621.991 398.342 612.175 428.047 612.947 435.848Z" fill="#00B0C7"/>
<path d="M619.505 484.155C619.848 486.513 620.019 487.885 620.019 487.885L630.821 476.954C630.649 477.083 623.191 480.598 619.505 484.155Z" fill="#03A4B9"/>
<path d="M669.098 698.13C669.098 698.13 668.669 702.76 668.026 704.046C667.383 705.332 665.754 711.847 664.897 713.09C664.083 714.333 662.54 723.42 665.497 724.32C668.412 725.263 675.27 726.678 677.37 722.991C679.471 719.305 679.557 715.705 679.085 712.961C678.571 710.218 675.184 697.745 675.184 696.502C675.099 695.216 669.098 698.13 669.098 698.13Z" fill="#342F40"/>
<path d="M652.595 542.45C652.595 542.45 659.839 550.765 662.54 556.381C665.24 561.996 669.869 574.34 669.869 584.113C669.827 593.886 667.598 612.318 668.755 616.39C669.912 620.462 671.284 628.949 672.441 631.82C673.599 634.692 678.056 643.008 678.914 651.795C679.771 660.582 678.528 699.331 678.999 702.931C679.471 706.532 667.426 704.946 667.426 704.946C667.426 704.946 665.326 670.183 663.654 664.225C662.025 658.31 659.368 637.993 658.082 636.578C656.796 635.164 652.638 619.904 652.295 617.375C651.952 614.932 635.493 573.397 634.336 566.239C633.178 559.081 616.161 544.636 616.161 544.636C616.161 544.636 631.592 536.835 652.595 542.45Z" fill="#124C80"/>
<path d="M616.376 699.074C618.905 698.559 623.62 659.21 622.462 652.309C621.305 645.408 619.719 630.663 621.691 624.577C622.977 620.547 631.206 600.016 636.736 585.614C637.507 583.599 638.236 581.67 638.879 579.956C640.636 575.284 641.751 571.94 641.751 571.297C641.751 568.64 648.438 522.261 615.175 544.507C615.175 544.507 614.618 548.151 614.318 549.48C613.975 550.851 606.56 585.314 606.303 598.43C606.046 611.546 604.245 622.734 603.988 625.562C603.731 628.391 605.017 637.65 605.96 640.008C606.903 642.365 603.731 696.845 603.388 698.216C603.045 699.502 613.89 699.631 616.376 699.074Z" fill="#124C80"/>
<path d="M709.047 420.76C709.047 420.76 710.633 416.345 709.304 413.773C707.975 411.202 706.046 406.101 707.246 402.586C708.447 399.071 709.775 405.758 710.547 407.773C711.318 409.787 719.334 410.344 719.72 410.859C720.105 411.373 719.591 414.374 718.52 416.302C717.448 418.231 716.205 422.26 716.205 422.26C716.205 422.26 717.105 422.903 709.047 420.76Z" fill="#FAB99B"/>
<path d="M644.023 472.668C644.023 472.668 635.407 474.811 633.135 474.854C630.864 474.897 622.248 484.113 620.062 487.885C617.876 491.657 618.262 497.915 620.105 505.544C621.905 513.174 618.605 515.017 618.733 522.347C618.862 529.677 614.747 544.55 613.761 548.451C612.818 552.351 652.638 559.252 662.068 553.509C662.068 553.509 654.396 540.264 653.667 538.335C652.938 536.406 655.51 527.019 656.882 524.747C658.253 522.475 668.326 504.13 668.326 504.13C668.326 504.13 676.428 487.756 672.313 483.255C668.755 479.355 657.782 476.226 655.896 475.154C654.01 474.125 648.223 472.797 644.023 472.668Z" fill="#1ABED4"/>
<path d="M659.839 429.418C656.325 427.447 643.166 421.789 636.822 438.763C630.478 455.737 637.979 469.967 647.452 468.21C656.968 466.453 664.597 455.308 666.783 446.135C668.969 436.962 664.297 431.905 659.839 429.418Z" fill="#FAB99B"/>
<path d="M636.864 438.763C636.864 438.763 638.836 423.632 653.881 425.732C668.926 427.875 670.769 440.863 667.94 449.607C665.111 458.351 658.125 461.995 658.125 461.995C658.125 461.995 659.968 454.837 657.396 452.436C654.824 450.036 643.894 444.206 640.379 434.605C640.293 434.605 637.464 436.963 636.864 438.763Z" fill="#252E3B"/>
<path d="M657.868 445.492C655.339 451.365 657.439 457.923 662.583 460.152C667.726 462.381 673.941 459.38 676.47 453.508C678.999 447.636 676.899 441.077 671.755 438.848C666.612 436.662 660.397 439.62 657.868 445.492Z" fill="#252E3B"/>
<path d="M642.308 464.867C642.308 464.867 641.537 476.611 640.594 480.34C640.594 480.34 645.952 488.056 655.939 475.154C655.939 475.154 653.838 468.767 657.61 461.18C661.34 453.636 642.308 464.867 642.308 464.867Z" fill="#FAB99B"/>
<path d="M640.594 480.34L639.522 486.341L648.052 482.055L640.594 480.34Z" fill="#EEA886"/>
<path d="M656.41 449.007C657.182 447.722 659.068 447.679 660.011 448.622C660.911 449.608 661.125 452.051 658.896 454.837C656.71 457.623 650.452 458.695 656.41 449.007Z" fill="#FAB99B"/>
<path d="M650.924 509.702C650.924 509.702 658.296 518.918 664.468 511.031C670.984 502.715 674.241 498.6 676.513 494.828C678.614 491.271 693.187 470.996 693.873 470.053C694.559 469.11 702.103 455.78 704.375 450.722C706.089 446.864 718.134 423.332 718.734 422.389C719.291 421.489 707.761 417.631 707.761 417.631C707.761 417.631 695.416 440.949 694.173 443.306C692.887 445.664 687.272 457.709 684.572 460.795C681.4 464.438 669.312 479.912 667.212 480.083C664.64 480.383 645.78 504.43 650.924 509.702Z" fill="#1ABED4"/>
<path d="M642.094 467.439L641.922 469.753C641.922 469.753 646.938 471.682 655.21 464.61C655.21 464.61 649.338 469.625 642.094 467.439Z" fill="#A77860"/>
<path d="M655.382 472.197C655.382 472.197 648.309 473.825 641.794 470.911L640.636 474.168L638.236 487.756C638.236 487.756 652.381 480.684 652.424 480.212C652.467 479.741 656.324 475.326 656.324 475.326L655.382 472.197Z" fill="#1ABED4"/>
<path d="M260.522 454.793C260.522 454.793 262.022 481.755 257.05 485.698C254.778 487.541 249.377 488.098 243.548 488.098C241.619 488.098 239.647 488.056 237.761 487.927C230.132 487.541 223.231 486.555 223.231 486.555C223.231 486.555 203.385 487.541 204.371 475.239C204.371 475.239 206.685 471.51 209.643 470.653C212.386 469.881 224.859 472.025 227.046 472.11C229.446 472.196 246.377 475.968 247.106 475.711C247.834 475.454 249.763 468.81 249.892 464.352C250.063 457.922 250.02 452.007 250.02 452.007L260.522 454.793Z" fill="#00B0C7"/>
<path d="M252.078 445.921C252.078 445.921 251.049 450.507 252.035 451.793C253.021 453.079 253.492 451.45 253.492 451.45C253.492 451.45 253.021 453.036 254.264 453.593C255.507 454.15 255.979 452.179 255.979 452.179C255.979 452.179 255.936 453.508 257.35 453.55C258.765 453.636 258.765 451.922 258.765 451.922C258.765 451.922 259.751 453.808 260.908 452.522C262.837 450.293 262.065 446.907 262.065 446.907C262.065 446.907 261.808 446.092 260.436 446.135C260.436 446.135 259.922 444.12 257.736 444.935C257.736 444.935 255.979 443.349 254.907 444.935C254.864 444.978 252.892 443.392 252.078 445.921Z" fill="#EFAA88"/>
<path d="M290.2 414.239C290.493 381.925 264.535 355.492 232.222 355.199C199.908 354.906 173.475 380.864 173.182 413.177C172.889 445.491 198.847 471.924 231.16 472.217C263.474 472.51 289.907 446.552 290.2 414.239Z" fill="#F5CB8F"/>
<path d="M245.22 470.653L225.031 355.564C255.593 352.049 283.926 372.924 289.326 403.614C294.684 434.305 275.139 463.58 245.22 470.653Z" fill="#F8BB66"/>
<path d="M174.023 423.846C169.308 396.842 183.839 370.952 207.8 360.279L227.431 472.11C201.285 470.224 178.781 450.807 174.023 423.846Z" fill="#F8BB66"/>
<path d="M276.172 413.815C276.227 389.243 256.351 369.278 231.779 369.224C207.206 369.169 187.242 389.045 187.187 413.618C187.133 438.19 207.009 458.154 231.581 458.209C256.154 458.263 276.118 438.387 276.172 413.815Z" fill="#E97E80"/>
<path d="M230.946 395.642C230.346 395.642 229.617 395.727 228.76 395.942C227.86 396.156 226.917 396.456 225.931 396.885C224.902 397.313 223.874 397.828 222.845 398.471C221.773 399.113 220.788 399.885 219.887 400.699L229.66 409.915L230.689 409.186C232.704 407.858 234.59 406.743 236.39 405.843C238.19 404.943 239.905 404.386 241.491 404.086C243.119 403.828 244.705 403.914 246.248 404.386C247.792 404.857 249.335 405.8 250.835 407.215C252.507 408.801 253.664 410.429 254.264 412.144C254.864 413.859 255.078 415.616 254.864 417.416C254.65 419.216 254.093 421.017 253.15 422.774C252.207 424.532 251.006 426.246 249.549 427.875L254.521 432.547L252.207 434.99L247.149 430.232C244.834 432.376 242.391 434.09 239.69 435.462C237.033 436.833 234.204 437.734 231.289 438.162L229.017 431.475C229.703 431.475 230.603 431.347 231.675 431.133C232.746 430.875 233.904 430.532 235.147 430.018C236.39 429.504 237.676 428.904 238.962 428.132C240.29 427.361 241.533 426.503 242.734 425.475L232.961 416.259C232.704 416.387 232.489 416.516 232.232 416.688C231.975 416.859 231.761 416.988 231.503 417.116C229.489 418.359 227.646 419.388 225.974 420.159C224.302 420.931 222.759 421.403 221.302 421.574C219.845 421.745 218.43 421.617 217.101 421.145C215.772 420.717 214.444 419.859 213.115 418.616C211.572 417.159 210.457 415.616 209.772 413.944C209.086 412.273 208.743 410.558 208.829 408.758C208.871 406.958 209.3 405.2 210.029 403.4C210.757 401.642 211.829 399.885 213.201 398.213L208.443 393.713L210.757 391.269L215.515 395.77C217.573 393.841 219.759 392.341 222.073 391.269C224.388 390.198 226.66 389.426 228.889 389.041L230.946 395.642ZM217.487 412.444C218.816 413.687 220.23 414.159 221.773 413.859C223.316 413.559 225.202 412.701 227.517 411.287L218.216 402.5C216.501 404.514 215.601 406.357 215.558 408.029C215.472 409.658 216.115 411.158 217.487 412.444ZM246.077 413.516C244.705 412.23 243.119 411.758 241.362 412.23C239.605 412.658 237.504 413.601 235.104 415.059L244.448 423.889C246.334 421.831 247.406 419.945 247.706 418.145C248.006 416.387 247.449 414.844 246.077 413.516Z" fill="#F8C681"/>
<path d="M155.463 710.689C155.463 710.689 153.792 714.718 152.377 716.304C150.963 717.89 145.605 720.719 145.562 725.477C145.519 730.621 154.606 729.163 158.164 728.992C161.721 728.82 161.979 726.077 163.479 723.162C164.979 720.248 166.479 720.762 166.779 718.404C167.079 716.047 165.622 710.818 165.622 710.818L155.463 710.689Z" fill="#252840"/>
<path d="M226.617 711.632C226.617 711.632 231.589 716.818 236.604 717.933C241.619 719.004 245.134 720.419 245.177 723.419C245.22 726.42 230.689 728.392 224.945 725.348C216.373 720.848 215.472 722.219 214.529 719.947C213.586 717.719 215.687 711.718 215.601 710.989C215.558 710.089 226.617 711.632 226.617 711.632Z" fill="#252840"/>
<path d="M226.06 561.395C226.06 561.395 231.246 599.201 233.389 611.974C235.875 626.934 236.733 639.278 237.419 646.994C238.276 656.724 229.189 709.06 229.789 711.889C230.389 714.718 213.372 710.689 213.372 710.689C213.372 710.689 218.73 648.451 216.115 638.078C213.715 628.434 204.971 586.042 202.785 588.656C200.599 591.271 186.711 637.821 185.082 645.408C183.453 652.995 167.68 712.575 167.68 712.575C167.68 712.575 155.892 715.104 152.934 712.704C152.934 712.704 163.222 658.01 164.25 643.736C164.636 638.292 167.851 578.926 177.067 554.88C181.91 542.192 226.06 561.395 226.06 561.395Z" fill="#124C80"/>
<path d="M157.607 560.752C157.607 560.752 164.079 562.724 166.78 562.21C169.48 561.695 168.108 528.519 168.237 521.618C168.323 516.003 171.366 501.215 171.366 501.215C171.366 501.215 171.366 501.215 171.366 501.258C171.366 501.258 171.366 501.258 171.366 501.3C171.666 502.415 175.824 517.76 175.952 525.133C176.124 532.805 174.966 562.081 174.966 562.081L186.368 563.195L219.116 564.01L225.931 563.195C225.931 563.195 225.117 550.679 224.817 544.721C224.645 540.949 223.874 534.177 224.088 527.576C224.088 527.576 223.96 520.632 224.645 517.631C224.731 504.429 225.503 491.356 225.503 491.356C225.931 485.355 226.274 479.783 226.446 474.554C224.988 473.782 223.274 472.882 221.859 472.239C217.573 470.181 211.572 467.438 207.714 465.681C205.442 464.652 203.256 463.881 203.256 463.881C203.256 463.881 187.868 462.423 186.625 462.466C186.24 462.509 184.311 463.152 181.782 464.138C176.338 466.195 165.837 470.439 164.165 471.639C161.722 473.396 156.535 515.145 156.278 518.06C155.935 523.289 157.607 560.752 157.607 560.752Z" fill="#E7626B"/>
<path d="M224.988 557.923C224.988 557.923 202.485 559.852 182.81 557.923V564.395C182.81 564.395 212.386 568.682 225.974 563.152L224.988 557.923Z" fill="#1D2033"/>
<path d="M205.785 464.781C205.785 464.781 209.429 473.396 212.172 492.599C213.243 499.972 215.172 512.402 216.587 525.09C217.701 535.077 220.273 545.321 221.088 552.994C221.945 560.924 224.474 584.284 224.474 584.284L230.603 580.427C231.46 579.612 232.704 578.541 232.361 577.426C230.689 571.983 227.431 553.894 225.502 538.163C225.502 538.163 225.502 538.163 225.502 538.12C225.417 537.349 225.331 536.62 225.245 535.849C225.245 535.806 225.245 535.763 225.245 535.72C224.902 532.591 224.602 529.548 224.388 526.804C224.217 524.704 224.388 522.604 224.645 520.589C225.502 506.444 225.931 491.57 225.931 491.57C226.403 485.484 227.517 477.597 227.689 472.282C225.545 471.982 223.959 471.725 222.245 471.21C222.245 471.125 210.114 466.624 205.785 464.781Z" fill="#1ABED4"/>
<path d="M204.628 469.281C204.628 469.281 205.057 475.153 200.084 475.282C195.112 475.411 191.169 470.653 191.169 470.653L199.441 472.796L204.456 468.552L204.628 469.281Z" fill="#CAC7D1"/>
<path d="M197.941 424.189C197.941 424.189 209.343 426.118 207.414 443.992C205.485 461.866 195.412 460.28 194.726 460.28C194.041 460.237 184.611 460.494 184.096 438.634C184.096 438.634 183.925 422.474 197.941 424.189Z" fill="#EEA987"/>
<path d="M202.913 455.094C202.913 455.094 202.913 462.466 203.213 464.052C203.556 465.767 194.041 470.696 187.911 464.952C187.911 464.952 189.154 456.894 188.768 454.065C188.425 451.236 202.913 455.094 202.913 455.094Z" fill="#EEA987"/>
<path d="M207.457 439.834C207.457 439.834 208.743 438.505 209.172 439.877C209.6 441.248 207.586 446.992 207.286 447.549C207.286 447.549 207.071 448.064 206.771 447.764C206.471 447.464 207.457 439.834 207.457 439.834Z" fill="#EEA987"/>
<path d="M184.225 438.462C184.225 438.462 183.025 437.091 182.51 438.419C181.996 439.748 183.839 445.792 184.053 446.135C184.053 446.135 184.439 446.735 184.739 446.478C185.082 446.221 184.225 438.462 184.225 438.462Z" fill="#EEA987"/>
<path d="M208.357 437.434C207.971 439.877 207.586 441.677 207.586 441.677L205.914 443.863C205.914 443.863 206 439.063 205.742 438.334C205.657 438.034 205.528 437.562 205.4 437.005C205.228 436.105 205.014 435.076 204.885 434.733C204.671 434.176 195.112 431.39 186.582 435.333C186.582 435.333 186.668 436.062 186.668 436.876C186.668 437.819 186.54 438.891 186.111 439.063C185.297 439.363 185.639 444.678 185.639 444.678L184.311 443.135C184.311 443.135 183.925 440.348 183.539 437.177C183.539 437.177 183.539 437.177 183.539 437.134C183.453 436.405 183.368 435.633 183.282 434.862C183.11 431.647 183.411 425.818 187.568 422.389C190.397 421.188 194.898 420.16 202.399 422.474C202.399 422.474 204.114 422.603 204.585 423.074C209.343 428.175 208.357 437.434 208.357 437.434Z" fill="#292C47"/>
<path d="M189.583 457.88C189.583 457.88 191.383 460.409 195.627 460.323C199.87 460.237 201.713 458.008 201.713 458.008C201.713 458.008 199.699 462.209 195.627 462.166C191.512 462.123 189.583 457.88 189.583 457.88Z" fill="#C78D71"/>
<path d="M203.685 469.624L199.442 472.753C199.442 472.753 202.999 465.167 203.085 462.123L203.685 469.624Z" fill="#A09EA6"/>
<path d="M203.042 462.166L205.957 464.824L209 473.911L203.685 469.624L203.042 462.166Z" fill="#EAE6F2"/>
<path d="M202.528 464.866C202.528 464.866 201.37 468.981 199.442 472.796C199.442 472.796 194.984 468.896 193.569 467.481C192.112 466.067 202.528 464.866 202.528 464.866Z" fill="#EEA987"/>
<path d="M194.726 468.381L199.399 472.753C199.399 472.753 193.869 472.368 192.84 471.468L194.726 468.381Z" fill="#A09EA6"/>
<path d="M188.554 460.323C188.554 460.323 192.283 466.41 194.769 468.381L190.612 475.282L183.968 463.195L188.554 460.323Z" fill="#EAE6F2"/>
<path d="M168.666 521.918C168.194 528.347 170.894 563.796 168.194 564.31C165.494 564.824 155.549 562.638 155.549 562.638C155.549 562.638 154.306 524.404 154.692 520.375C154.992 517.46 159.621 473.696 162.065 471.939C163.479 470.91 173.981 467.181 179.124 465.166C180.067 464.781 183.068 463.538 183.882 463.238C184.954 464.438 194.512 486.813 195.412 504.215C195.67 509.53 194.427 520.718 193.484 529.848C192.455 539.62 191.34 547.207 190.526 555.394C188.897 571.468 187.783 584.284 187.783 584.284L171.795 577.169C169.223 575.883 165.622 570.568 166.608 567.825C170.294 557.452 174.966 539.749 174.966 530.662C174.966 530.662 173.166 508.373 171.752 503.486C171.837 503.444 169.308 513.774 168.666 521.918Z" fill="#1ABED4"/>
<path d="M155.549 580.855C155.549 580.855 154.992 579.527 155.035 578.841C155.035 578.841 155.206 577.598 155.292 576.698C155.335 576.398 155.335 576.14 155.335 576.012C155.292 575.326 155.035 573.869 155.378 572.197C155.763 570.568 157.649 564.867 157.649 564.867L162.793 565.639L167.251 565.039C167.251 565.039 170.594 574.769 170.423 576.312C170.423 576.483 170.38 576.612 170.337 576.74C170.08 578.069 169.308 578.926 169.094 579.612C169.008 579.869 168.022 582.27 167.294 582.484C166.265 582.827 165.408 582.613 164.851 582.141C164.851 582.141 162.793 582.698 161.507 582.098C161.507 582.098 159.621 582.656 158.25 581.455C158.207 581.455 156.235 581.798 155.549 580.855Z" fill="#EFAA88"/>
<path d="M169.094 539.878L168.922 568.082C168.922 568.082 163.307 567.825 155.549 564.953L154.992 525.219L169.094 539.878Z" fill="#00B0C7"/>
<path d="M208.957 558.352H198.37V566.239H208.957V558.352Z" fill="#3A4066"/>
<defs>
<linearGradient id="paint0_linear" x1="207.602" y1="651.96" x2="284.049" y2="833.219" gradientUnits="userSpaceOnUse">
<stop stop-color="#5D52EE"/>
<stop offset="0.03" stop-color="#6456E9"/>
<stop offset="0.57" stop-color="#E49C93"/>
<stop offset="0.78" stop-color="#F7D3CE"/>
<stop offset="0.95" stop-color="#FFFDFC"/>
<stop offset="1" stop-color="white"/>
</linearGradient>
<linearGradient id="paint1_linear" x1="484.393" y1="634.96" x2="524.475" y2="840.65" gradientUnits="userSpaceOnUse">
<stop stop-color="#5D52EE"/>
<stop offset="0.03" stop-color="#6456E9"/>
<stop offset="0.57" stop-color="#E49C93"/>
<stop offset="0.78" stop-color="#F7D3CE"/>
<stop offset="0.95" stop-color="#FFFDFC"/>
<stop offset="1" stop-color="white"/>
</linearGradient>
<linearGradient id="paint2_linear" x1="26.3364" y1="133.961" x2="1005.49" y2="789.161" gradientUnits="userSpaceOnUse">
<stop stop-color="#FFE0DE"/>
<stop offset="0.5" stop-color="#FFFBF5"/>
<stop offset="0.61" stop-color="#FFEFEA"/>
<stop offset="0.84" stop-color="#FFDCD8"/>
<stop offset="1" stop-color="#FFD5D1"/>
</linearGradient>
<linearGradient id="paint3_linear" x1="168261" y1="-288.425" x2="168248" y2="1278.38" gradientUnits="userSpaceOnUse">
<stop stop-color="#FDE7EB"/>
<stop offset="1" stop-color="#F7F0FF"/>
</linearGradient>
<linearGradient id="paint4_linear" x1="113759" y1="-192.68" x2="113750" y2="871.974" gradientUnits="userSpaceOnUse">
<stop stop-color="#FDE7EB"/>
<stop offset="1" stop-color="#F7F0FF"/>
</linearGradient>
<linearGradient id="paint5_linear" x1="104.356" y1="65.6613" x2="102.403" y2="116.513" gradientUnits="userSpaceOnUse">
<stop stop-color="#FDE7EB"/>
<stop offset="1" stop-color="#F7F0FF"/>
</linearGradient>
<linearGradient id="paint6_linear" x1="224.531" y1="177.382" x2="206.294" y2="394.092" gradientUnits="userSpaceOnUse">
<stop stop-color="#FDE7EB"/>
<stop offset="1" stop-color="#F7F0FF"/>
</linearGradient>
<clipPath id="clip0">
<rect x="100" width="730" height="833" fill="white"/>
</clipPath>
</defs>
</svg>
