<svg width="806" height="954" viewBox="0 0 806 954" fill="none" xmlns="http://www.w3.org/2000/svg">
<g clip-path="url(#clip0)">
<path fill-rule="evenodd" clip-rule="evenodd" d="M180.454 678.54C149.555 652.521 131.465 611.988 132.741 571.615C134.016 531.242 154.637 491.923 187.12 467.896C204.417 455.097 224.536 446.627 242.388 434.626C260.24 422.624 276.526 405.595 279.826 384.342C282.822 365.032 274.685 345.923 266.733 328.074C257.54 307.43 248.35 286.786 239.161 266.143C232.179 250.461 225.039 233.898 226.656 216.806C229.8 183.608 264.372 162.285 297.042 155.492C320.338 150.651 344.691 150.437 367.856 155.871C421.045 168.331 463.512 208.779 515.282 226.211C530.514 231.339 546.936 234.416 562.678 231.173C602.391 222.986 624.856 178.813 662.651 164.129C702.457 148.67 749.911 172.336 771.176 209.341C792.442 246.346 791.789 292.455 781.06 333.759C770.331 375.062 750.412 413.305 734.366 452.858C726.189 473.019 718.919 495.309 725.122 516.158C731.324 537.007 761.846 562.524 776.7 578.367C791.553 594.21 792.014 605.354 784.48 625.725C774.929 651.596 741.544 651.052 718.642 656.48C686.322 664.138 653.833 671.029 621.177 677.154C557.518 689.087 493.403 698.092 428.83 704.169C344.724 712.059 252.41 739.132 180.454 678.54Z" fill="url(#paint0_linear)"/>
</g>
<path opacity="0.5" d="M850.662 672.402C850.64 685.701 660.384 696.147 425.719 695.756C191.05 695.365 0.829317 684.273 0.851475 670.985C0.873633 657.697 191.13 647.24 425.8 647.631C660.464 648.022 850.685 659.114 850.662 672.402Z" fill="url(#paint1_linear)"/>
<path d="M380.154 394.245C377.77 396.73 373.441 398.302 368.545 398.113C363.648 397.929 359.451 396.036 357.262 393.378C359.646 390.893 363.975 389.321 368.871 389.505C373.762 389.694 377.959 391.587 380.154 394.245Z" fill="#08A4B9"/>
<path d="M432.723 496.268C429.503 473.984 428.038 451.472 428.454 429.013C428.566 417.783 429.198 406.565 430.111 395.381C430.985 384.191 432.363 373.051 433.945 361.95C437.162 339.753 441.7 317.762 447.308 296.068C450.122 285.221 453.233 274.457 456.639 263.781C460.051 253.105 463.699 242.523 467.9 232.112L469.221 232.657C465.179 243.035 461.662 253.662 458.393 264.332C455.135 275.014 452.172 285.784 449.5 296.625C444.178 318.309 439.941 340.262 437.015 362.377C435.587 373.44 434.346 384.525 433.62 395.65C432.855 406.769 432.365 417.91 432.396 429.047C432.26 451.325 433.989 473.58 437.445 495.53L432.723 496.268Z" fill="#08A4B9"/>
<path d="M474.511 187.477C468.155 191.294 463.086 199.39 461.665 209.296C460.24 219.208 462.829 228.402 467.854 233.85C474.204 230.033 479.279 221.937 480.699 212.026C482.119 202.12 479.536 192.925 474.511 187.477Z" fill="#08A4B9"/>
<path d="M437.069 221.576C436.28 227.31 438.731 234.36 444.067 240.077C449.41 245.794 456.27 248.718 462.044 248.327C462.833 242.593 460.382 235.542 455.04 229.825C449.709 224.108 442.843 221.185 437.069 221.576Z" fill="#08A4B9"/>
<path d="M463.109 248.038C467.962 251.194 475.385 251.974 482.83 249.579C490.275 247.184 495.843 242.215 497.947 236.823C493.094 233.672 485.67 232.887 478.226 235.282C470.781 237.682 465.212 242.646 463.109 248.038Z" fill="#08A4B9"/>
<path d="M455.813 272.613C460.666 275.769 468.089 276.554 475.534 274.154C482.979 271.759 488.548 266.79 490.651 261.397C485.798 258.247 478.381 257.462 470.93 259.857C463.485 262.257 457.917 267.226 455.813 272.613Z" fill="#08A4B9"/>
<path d="M448.172 297.802C453.024 300.957 460.448 301.743 467.893 299.343C475.337 296.948 480.906 291.978 483.009 286.586C478.156 283.436 470.733 282.651 463.288 285.045C455.849 287.44 450.281 292.41 448.172 297.802Z" fill="#08A4B9"/>
<path d="M443.038 321.256C447.897 324.406 455.314 325.192 462.759 322.797C470.204 320.402 475.772 315.433 477.876 310.041C473.023 306.891 465.6 306.105 458.155 308.5C450.71 310.9 445.142 315.864 443.038 321.256Z" fill="#08A4B9"/>
<path d="M445.168 316.512C440.305 319.645 432.879 320.406 425.442 317.987C418.005 315.567 412.453 310.579 410.368 305.18C415.231 302.046 422.657 301.285 430.094 303.705C437.531 306.124 443.077 311.112 445.168 316.512Z" fill="#08A4B9"/>
<path d="M430.21 243.893C429.422 249.627 431.872 256.677 437.209 262.394C442.551 268.111 449.411 271.034 455.191 270.644C455.98 264.909 453.529 257.865 448.193 252.142C442.85 246.425 435.985 243.497 430.21 243.893Z" fill="#08A4B9"/>
<path d="M422.354 269.24C421.566 274.975 424.016 282.025 429.353 287.742C434.689 293.459 441.555 296.382 447.335 295.986C448.118 290.252 445.668 283.201 440.331 277.484C434.994 271.773 428.128 268.85 422.354 269.24Z" fill="#08A4B9"/>
<path d="M576.334 291.068C566.592 296.415 557.463 302.727 548.602 309.386C539.757 316.066 531.306 323.279 523.222 330.871C515.143 338.474 507.453 346.494 500.174 354.877C492.927 363.293 486.14 372.099 479.781 381.212C467.062 399.451 456.452 419.145 447.907 439.705C439.56 460.346 433.35 481.869 429.415 503.812L434.124 504.61C437.675 482.935 443.462 461.62 451.393 441.103C459.52 420.669 469.708 401.023 482.032 382.751C488.194 373.621 494.789 364.776 501.855 356.311C508.953 347.873 516.473 339.781 524.393 332.096C532.318 324.416 540.616 317.109 549.324 310.319C558.037 303.551 567.062 297.106 576.645 291.65L576.334 291.068Z" fill="#08A4B9"/>
<path d="M612.28 266.064C611.747 273.455 606.815 281.638 598.619 287.388C590.422 293.132 581.048 294.98 573.923 292.962C574.456 285.571 579.389 277.387 587.585 271.643C595.776 265.894 605.15 264.045 612.28 266.064Z" fill="#08A4B9"/>
<path d="M557.156 259.71C562.614 264.72 565.961 273.669 565.368 283.664C564.781 293.659 560.402 302.151 554.391 306.484C548.927 301.474 545.586 292.525 546.173 282.535C546.765 272.534 551.139 264.043 557.156 259.71Z" fill="#08A4B9"/>
<path d="M524.58 275.991C531.176 279.368 536.784 287.098 538.878 296.889C540.968 306.675 539.011 316.027 534.373 321.804C527.777 318.431 522.17 310.696 520.075 300.905C517.98 291.119 519.937 281.768 524.58 275.991Z" fill="#08A4B9"/>
<path d="M502.591 296.154C509.187 299.532 514.795 307.262 516.889 317.053C518.979 326.845 517.022 336.196 512.379 341.968C505.783 338.595 500.175 330.86 498.086 321.069C495.997 311.283 497.953 301.932 502.591 296.154Z" fill="#08A4B9"/>
<path d="M477.284 316.872C484.524 318.447 491.922 324.486 496.448 333.42C500.973 342.349 501.472 351.891 498.462 358.658C491.221 357.083 483.823 351.039 479.292 342.11C474.772 333.181 474.273 323.645 477.284 316.872Z" fill="#08A4B9"/>
<path d="M459.441 342.833C466.055 342.565 473.808 346.12 479.735 352.82C485.662 359.519 488.242 367.65 487.162 374.179C480.549 374.453 472.796 370.892 466.868 364.198C460.947 357.493 458.367 349.362 459.441 342.833Z" fill="#08A4B9"/>
<path d="M446.501 359.152C453.114 358.884 460.867 362.439 466.789 369.133C472.711 375.832 475.291 383.963 474.216 390.492C467.603 390.76 459.85 387.211 453.928 380.511C448.006 373.817 445.426 365.687 446.501 359.152Z" fill="#08A4B9"/>
<path d="M439.085 383.245C444.75 383.013 451.402 386.056 456.481 391.8C461.56 397.544 463.769 404.512 462.849 410.109C457.185 410.335 450.533 407.292 445.459 401.548C440.375 395.815 438.16 388.842 439.085 383.245Z" fill="#08A4B9"/>
<path d="M431.882 408.368C436.01 406.045 442.141 405.781 448.146 408.11C454.152 410.44 458.504 414.762 459.988 419.261C455.861 421.585 449.73 421.849 443.724 419.525C437.718 417.19 433.372 412.867 431.882 408.368Z" fill="#08A4B9"/>
<path d="M428.964 429.079C431.502 426.26 436.089 424.491 441.248 424.724C446.402 424.958 450.813 427.131 453.089 430.167C450.551 432.987 445.964 434.756 440.804 434.522C435.645 434.289 431.24 432.115 428.964 429.079Z" fill="#08A4B9"/>
<path d="M598.579 321.083C592.272 324.971 582.752 325.761 573.298 322.466C563.84 319.177 556.859 312.657 554.332 305.694C560.639 301.806 570.159 301.021 579.612 304.305C589.066 307.594 596.046 314.12 598.579 321.083Z" fill="#08A4B9"/>
<path d="M578.565 337.494C572.258 341.382 562.737 342.167 553.284 338.877C543.831 335.588 536.85 329.068 534.318 322.105C540.619 318.217 550.145 317.427 559.598 320.716C569.057 324.011 576.032 330.531 578.565 337.494Z" fill="#08A4B9"/>
<path d="M557.228 357.736C550.922 361.624 541.401 362.409 531.942 359.125C522.489 355.836 515.509 349.315 512.976 342.347C519.278 338.453 528.803 337.674 538.257 340.964C547.715 344.253 554.701 350.773 557.228 357.736Z" fill="#08A4B9"/>
<path d="M533.161 371.185C528.035 374.351 520.291 374.985 512.597 372.313C504.903 369.641 499.231 364.334 497.173 358.672C502.305 355.506 510.044 354.871 517.738 357.544C525.426 360.216 531.104 365.522 533.161 371.185Z" fill="#08A4B9"/>
<path d="M515.138 384.04C510.944 386.742 504.654 387.351 498.445 385.191C492.23 383.031 487.681 378.648 486.066 373.93C490.26 371.234 496.55 370.619 502.759 372.779C508.974 374.939 513.523 379.322 515.138 384.04Z" fill="#08A4B9"/>
<path d="M504.352 400.588C500.158 403.289 493.868 403.899 487.659 401.739C481.444 399.579 476.895 395.196 475.28 390.477C479.474 387.775 485.764 387.161 491.979 389.326C498.188 391.481 502.737 395.864 504.352 400.588Z" fill="#08A4B9"/>
<path d="M492.538 415.559C489.139 418.443 483.45 419.827 477.349 418.829C471.248 417.832 466.296 414.699 463.994 410.884C467.393 408 473.087 406.616 479.188 407.614C485.284 408.611 490.236 411.745 492.538 415.559Z" fill="#08A4B9"/>
<path d="M481.112 434.425C477.289 435.504 472.207 434.514 467.716 431.441C463.225 428.363 460.469 423.978 460.097 420.023C463.921 418.944 469.002 419.934 473.493 423.012C477.984 426.085 480.741 430.46 481.112 434.425Z" fill="#08A4B9"/>
<path d="M468.405 445.672C465.372 445.941 461.696 444.476 458.756 441.527C455.816 438.572 454.369 434.89 454.654 431.864C457.681 431.595 461.358 433.06 464.298 436.015C467.237 438.959 468.684 442.646 468.405 445.672Z" fill="#08A4B9"/>
<path d="M459.978 448.613C457.987 448.912 455.647 448.113 453.851 446.311C452.056 444.504 451.259 442.161 451.57 440.171C453.56 439.873 455.901 440.672 457.702 442.479C459.497 444.275 460.294 446.623 459.978 448.613Z" fill="#08A4B9"/>
<path d="M457.254 454.18C455.263 454.484 452.923 453.679 451.127 451.872C449.332 450.065 448.541 447.722 448.851 445.732C450.842 445.434 453.182 446.233 454.978 448.04C456.773 449.847 457.57 452.19 457.254 454.18Z" fill="#08A4B9"/>
<path d="M359.965 272.02C366.9 279.643 373.011 287.933 378.782 296.442C384.531 304.972 389.769 313.837 394.579 322.936C399.378 332.041 403.711 341.392 407.572 350.939C411.4 360.503 414.701 370.274 417.536 380.182C423.205 400.008 426.582 420.483 427.891 441.092C428.997 461.716 427.97 482.464 424.816 502.906L420.447 502.186C423.858 482.095 425.197 461.655 424.419 441.267C423.439 420.895 420.419 400.585 415.105 380.847C412.451 370.983 409.32 361.234 405.673 351.682C401.988 342.14 397.825 332.778 393.191 323.652C388.55 314.531 383.471 305.617 377.876 297.038C372.27 288.48 366.291 280.108 359.521 272.436L359.965 272.02Z" fill="#1ABED4"/>
<path d="M335.953 239.261C334.199 245.904 336.059 254.565 341.525 262.081C346.985 269.591 354.648 274.035 361.518 274.408C363.273 267.765 361.412 259.104 355.952 251.594C350.482 244.083 342.818 239.64 335.953 239.261Z" fill="#1ABED4"/>
<path d="M386.234 250.279C379.934 253.032 374.302 259.871 371.814 268.816C369.327 277.76 370.611 286.53 374.578 292.141C380.877 289.393 386.509 282.549 388.997 273.604C391.485 264.659 390.205 255.889 386.234 250.279Z" fill="#1ABED4"/>
<path d="M409.909 274.374C403.108 275.349 395.856 280.448 391.078 288.407C386.294 296.366 385.199 305.16 387.53 311.623C394.331 310.647 401.577 305.549 406.366 297.59C411.145 289.63 412.239 280.842 409.909 274.374Z" fill="#1ABED4"/>
<path d="M423.127 298.681C416.326 299.657 409.08 304.755 404.296 312.715C399.512 320.674 398.412 329.467 400.748 335.931C407.549 334.955 414.796 329.857 419.585 321.897C424.363 313.943 425.463 305.15 423.127 298.681Z" fill="#1ABED4"/>
<path d="M439.095 324.48C432.27 323.684 423.958 326.757 417.301 333.228C410.644 339.698 407.33 347.917 407.932 354.767C414.758 355.568 423.065 352.495 429.727 346.019C436.383 339.549 439.698 331.324 439.095 324.48Z" fill="#1ABED4"/>
<path d="M446.933 352.628C441.212 350.403 433.337 351.185 426.125 355.274C418.913 359.369 414.198 365.728 413.179 371.78C418.9 374.004 426.775 373.222 433.987 369.127C441.199 365.043 445.909 358.68 446.933 352.628Z" fill="#1ABED4"/>
<path d="M453.374 370.843C447.653 368.618 439.777 369.4 432.56 373.495C425.348 377.59 420.638 383.943 419.614 389.995C425.335 392.22 433.21 391.438 440.422 387.348C447.645 383.253 452.355 376.895 453.374 370.843Z" fill="#1ABED4"/>
<path d="M452.627 394.212C447.728 392.306 440.977 392.975 434.791 396.48C428.606 399.99 424.572 405.439 423.691 410.625C428.596 412.536 435.341 411.861 441.527 408.357C447.713 404.852 451.752 399.398 452.627 394.212Z" fill="#1ABED4"/>
<path d="M451.381 418.424C448.458 415.14 443.159 413.064 437.193 413.296C431.221 413.527 426.101 416.013 423.447 419.518C426.369 422.802 431.668 424.878 437.64 424.647C443.606 424.405 448.726 421.918 451.381 418.424Z" fill="#1ABED4"/>
<path d="M447.713 437.478C446.331 434.235 442.838 431.307 438.245 429.956C433.652 428.605 429.128 429.184 426.218 431.164C427.594 434.401 431.088 437.335 435.681 438.686C440.273 440.032 444.798 439.453 447.713 437.478Z" fill="#1ABED4"/>
<path d="M331.414 291.658C335.775 296.968 343.89 300.523 353.179 300.49C362.462 300.45 370.551 296.828 374.87 291.484C370.508 286.174 362.388 282.618 353.105 282.658C343.816 282.686 335.727 286.308 331.414 291.658Z" fill="#1ABED4"/>
<path d="M344.03 312.082C348.391 317.392 356.506 320.948 365.795 320.908C375.078 320.869 383.167 317.247 387.485 311.903C383.124 306.593 375.009 303.037 365.726 303.071C356.431 303.11 348.343 306.732 344.03 312.082Z" fill="#1ABED4"/>
<path d="M356.656 336.263C361.017 341.573 369.132 345.128 378.421 345.089C387.71 345.055 395.793 341.433 400.112 336.083C395.75 330.774 387.636 327.212 378.347 327.257C369.058 327.296 360.969 330.918 356.656 336.263Z" fill="#1ABED4"/>
<path d="M373.721 355.307C377.267 359.629 383.87 362.519 391.42 362.487C398.971 362.456 405.55 359.511 409.061 355.164C405.515 350.842 398.913 347.952 391.362 347.984C383.806 348.015 377.232 350.96 373.721 355.307Z" fill="#1ABED4"/>
<path d="M385.664 372.008C388.531 375.643 393.862 378.075 399.965 378.047C406.068 378.024 411.38 375.544 414.215 371.891C411.348 368.256 406.017 365.829 399.914 365.852C393.811 365.88 388.499 368.355 385.664 372.008Z" fill="#1ABED4"/>
<path d="M390.146 389.776C393.014 393.405 398.345 395.838 404.442 395.815C410.545 395.792 415.857 393.312 418.693 389.659C415.826 386.024 410.494 383.597 404.397 383.62C398.294 383.648 392.982 386.123 390.146 389.776Z" fill="#1ABED4"/>
<path d="M396.002 406.471C398.113 410.028 402.692 412.953 408.344 413.917C413.996 414.875 419.284 413.622 422.452 410.968C420.336 407.411 415.762 404.487 410.11 403.523C404.459 402.56 399.171 403.817 396.002 406.471Z" fill="#1ABED4"/>
<path d="M400.345 426.46C403.373 428.56 408.132 429.22 413.003 427.874C417.869 426.528 421.608 423.513 423.127 420.148C420.099 418.049 415.34 417.388 410.474 418.735C405.603 420.086 401.864 423.101 400.345 426.46Z" fill="#1ABED4"/>
<path d="M408.114 440.16C410.689 441.304 414.358 441.13 417.826 439.425C421.289 437.72 423.673 434.922 424.336 432.181C421.76 431.036 418.092 431.211 414.629 432.916C411.155 434.621 408.776 437.419 408.114 440.16Z" fill="#1ABED4"/>
<path d="M414.619 445.269C416.274 446.133 418.571 446.137 420.689 445.093C422.807 444.049 424.208 442.231 424.535 440.395C422.88 439.532 420.583 439.528 418.465 440.571C416.341 441.615 414.94 443.433 414.619 445.269Z" fill="#1ABED4"/>
<path d="M415.328 450.979C416.982 451.842 419.28 451.84 421.398 450.802C423.516 449.759 424.917 447.941 425.244 446.104C423.589 445.241 421.292 445.237 419.174 446.281C417.056 447.319 415.655 449.142 415.328 450.979Z" fill="#1ABED4"/>
<path d="M507.258 249.653C500.159 258.2 493.981 267.424 488.185 276.873C482.412 286.339 477.203 296.145 472.465 306.177C467.744 316.215 463.532 326.5 459.841 336.972C456.188 347.456 453.11 358.143 450.542 368.958C445.401 390.586 442.771 412.8 442.366 435.062C442.175 457.33 444.304 479.623 448.693 501.487L453.366 500.497C448.708 479.033 446.272 457.079 446.117 435.085C446.175 413.097 448.438 391.079 453.195 369.56C455.577 358.806 458.468 348.156 461.929 337.689C465.433 327.232 469.459 316.947 474.005 306.893C478.562 296.844 483.595 286.999 489.199 277.483C494.824 267.99 500.855 258.684 507.762 250.092L507.258 249.653Z" fill="#1ABED4"/>
<path d="M531.511 213.202C533.731 220.268 532.147 229.691 526.628 238.044C521.114 246.402 513.072 251.56 505.702 252.299C503.482 245.227 505.066 235.809 510.585 227.456C516.104 219.098 524.14 213.94 531.511 213.202Z" fill="#1ABED4"/>
<path d="M477.904 227.522C484.819 230.177 491.218 237.272 494.338 246.785C497.459 256.299 496.505 265.805 492.503 272.039C485.587 269.384 479.189 262.289 476.069 252.776C472.948 243.262 473.901 233.761 477.904 227.522Z" fill="#1ABED4"/>
<path d="M453.584 254.63C460.958 255.35 469.015 260.485 474.551 268.823C480.086 277.161 481.704 286.579 479.505 293.654C472.131 292.935 464.079 287.805 458.533 279.461C452.997 271.123 451.384 261.705 453.584 254.63Z" fill="#1ABED4"/>
<path d="M440.527 281.455C447.901 282.174 455.958 287.309 461.499 295.648C467.04 303.986 468.653 313.404 466.453 320.479C459.079 319.759 451.022 314.624 445.481 306.286C439.946 297.948 438.333 288.53 440.527 281.455Z" fill="#1ABED4"/>
<path d="M424.595 310.018C431.906 308.824 441.009 311.729 448.494 318.371C455.984 325.013 459.95 333.705 459.636 341.107C452.319 342.301 443.222 339.396 435.732 332.754C428.247 326.107 424.281 317.42 424.595 310.018Z" fill="#1ABED4"/>
<path d="M417.53 340.713C423.583 338.036 432.103 338.495 440.069 342.549C448.041 346.604 453.425 353.22 454.824 359.687C448.777 362.364 440.256 361.906 432.285 357.851C424.313 353.802 418.923 347.186 417.53 340.713Z" fill="#1ABED4"/>
<path d="M411.482 360.651C417.534 357.975 426.054 358.433 434.02 362.487C441.986 366.542 447.377 373.158 448.77 379.626C442.722 382.308 434.202 381.844 426.231 377.789C418.259 373.735 412.874 367.119 411.482 360.651Z" fill="#1ABED4"/>
<path d="M413.425 385.779C418.61 383.485 425.913 383.875 432.74 387.352C439.572 390.829 444.185 396.501 445.387 402.047C440.202 404.341 432.899 403.951 426.067 400.474C419.235 396.997 414.622 391.319 413.425 385.779Z" fill="#1ABED4"/>
<path d="M415.953 411.786C418.937 408.106 424.545 405.615 430.988 405.576C437.425 405.537 443.058 407.965 446.09 411.606C443.106 415.28 437.498 417.782 431.055 417.821C424.618 417.859 418.985 415.426 415.953 411.786Z" fill="#1ABED4"/>
<path d="M420.832 432.131C422.16 428.575 425.779 425.247 430.656 423.566C435.539 421.891 440.435 422.294 443.673 424.284C442.345 427.841 438.726 431.169 433.849 432.844C428.966 434.519 424.064 434.116 420.832 432.131Z" fill="#1ABED4"/>
<path d="M538.962 269.407C534.527 275.338 525.961 279.568 515.953 279.979C505.951 280.39 497.063 276.888 492.153 271.336C496.594 265.399 505.16 261.175 515.163 260.764C525.165 260.353 534.053 263.861 538.962 269.407Z" fill="#1ABED4"/>
<path d="M526.373 292.021C521.933 297.953 513.366 302.177 503.364 302.593C493.361 303.004 484.473 299.502 479.564 293.956C484.004 288.019 492.571 283.795 502.573 283.384C512.576 282.967 521.464 286.47 526.373 292.021Z" fill="#1ABED4"/>
<path d="M513.959 318.683C509.518 324.614 500.952 328.838 490.949 329.249C480.947 329.666 472.059 326.158 467.15 320.606C471.59 314.67 480.157 310.451 490.159 310.034C500.161 309.629 509.044 313.131 513.959 318.683Z" fill="#1ABED4"/>
<path d="M496.508 340.022C492.897 344.847 485.933 348.285 477.795 348.622C469.657 348.959 462.429 346.107 458.44 341.593C462.05 336.768 469.02 333.331 477.152 332.999C485.285 332.661 492.518 335.514 496.508 340.022Z" fill="#1ABED4"/>
<path d="M484.457 358.596C481.55 362.649 475.925 365.529 469.35 365.798C462.78 366.066 456.934 363.66 453.705 359.866C456.612 355.813 462.243 352.933 468.812 352.664C475.382 352.396 481.223 354.796 484.457 358.596Z" fill="#1ABED4"/>
<path d="M480.505 377.951C477.597 381.999 471.972 384.879 465.397 385.153C458.827 385.427 452.981 383.016 449.752 379.221C452.659 375.174 458.285 372.294 464.859 372.02C471.429 371.745 477.27 374.151 480.505 377.951Z" fill="#1ABED4"/>
<path d="M475.007 396.218C472.906 400.146 468.124 403.527 462.08 404.833C456.04 406.144 450.285 405.054 446.741 402.345C448.843 398.411 453.63 395.036 459.669 393.725C465.708 392.413 471.47 393.509 475.007 396.218Z" fill="#1ABED4"/>
<path d="M471.303 417.953C468.14 420.366 463.05 421.312 457.744 420.096C452.438 418.881 448.265 415.815 446.462 412.275C449.624 409.867 454.714 408.922 460.02 410.131C465.337 411.347 469.505 414.408 471.303 417.953Z" fill="#1ABED4"/>
<path d="M463.612 433.085C460.895 434.446 456.931 434.434 453.117 432.766C449.303 431.099 446.599 428.204 445.754 425.286C448.471 423.925 452.43 423.937 456.249 425.605C460.063 427.267 462.761 430.167 463.612 433.085Z" fill="#1ABED4"/>
<path d="M456.857 438.914C455.118 439.925 452.644 440.036 450.31 439.018C447.976 438 446.378 436.111 445.937 434.142C447.677 433.13 450.15 433.019 452.484 434.037C454.819 435.056 456.417 436.945 456.857 438.914Z" fill="#1ABED4"/>
<path d="M456.37 445.093C454.63 446.104 452.157 446.215 449.823 445.197C447.489 444.179 445.891 442.284 445.45 440.32C447.19 439.309 449.663 439.198 451.997 440.216C454.331 441.234 455.929 443.129 456.37 445.093Z" fill="#1ABED4"/>
<path d="M404.044 427.936C393.607 412.592 382.611 397.599 370.878 383.202L371.071 383.038C383.105 397.205 394.414 411.985 405.18 427.148C415.919 442.333 426.053 457.972 435.161 474.234C437.359 478.175 439.496 482.159 441.562 486.182C440.75 486.636 439.938 487.089 439.131 487.554C437.142 483.477 435.081 479.438 432.955 475.437C424.231 459.093 414.447 443.301 404.044 427.936Z" fill="#08A4B9"/>
<path d="M359.357 363.635C363.217 363.998 367.216 366.576 369.731 370.781C372.246 374.985 372.628 379.729 371.125 383.296C367.265 382.933 363.267 380.355 360.751 376.156C358.236 371.951 357.854 367.202 359.357 363.635Z" fill="#08A4B9"/>
<path d="M388.03 372.637C389.599 375.704 389.673 380.311 387.9 384.875C386.127 389.44 382.963 392.79 379.742 393.997C378.174 390.935 378.099 386.323 379.872 381.758C381.645 377.188 384.804 373.843 388.03 372.637Z" fill="#08A4B9"/>
<path d="M388.946 406.361C386.321 408.588 381.855 409.721 377.004 409.044C372.152 408.367 368.164 406.058 366.25 403.198C368.875 400.965 373.34 399.837 378.192 400.514C383.049 401.186 387.031 403.495 388.946 406.361Z" fill="#08A4B9"/>
<path d="M400.496 421.322C397.871 423.555 393.406 424.683 388.554 424.006C383.702 423.329 379.714 421.025 377.805 418.159C380.43 415.932 384.896 414.804 389.747 415.481C394.599 416.153 398.587 418.457 400.496 421.322Z" fill="#08A4B9"/>
<path d="M408.339 433.24C405.715 435.467 401.249 436.595 396.398 435.923C391.546 435.246 387.558 432.936 385.644 430.076C388.268 427.844 392.734 426.716 397.585 427.393C402.442 428.065 406.425 430.374 408.339 433.24Z" fill="#08A4B9"/>
<path d="M417.036 446.392C414.411 448.625 409.946 449.753 405.094 449.076C400.242 448.399 396.26 446.095 394.346 443.229C396.97 440.996 401.436 439.869 406.287 440.546C411.133 441.217 415.121 443.527 417.036 446.392Z" fill="#08A4B9"/>
<path d="M398.088 385.474C399.657 388.542 399.731 393.148 397.958 397.712C396.185 402.277 393.021 405.628 389.795 406.829C388.226 403.761 388.157 399.155 389.925 394.59C391.698 390.025 394.862 386.675 398.088 385.474Z" fill="#08A4B9"/>
<path d="M407.7 398.683C409.269 401.751 409.338 406.357 407.565 410.922C405.791 415.486 402.633 418.837 399.407 420.038C397.838 416.97 397.763 412.364 399.537 407.799C401.31 403.24 404.469 399.884 407.7 398.683Z" fill="#08A4B9"/>
<path d="M416.835 412.001C418.404 415.068 418.478 419.669 416.7 424.239C414.926 428.804 411.768 432.154 408.542 433.355C406.973 430.288 406.899 425.681 408.672 421.117C410.451 416.552 413.614 413.207 416.835 412.001Z" fill="#08A4B9"/>
<path d="M425.702 425.049C427.27 428.117 427.339 432.723 425.566 437.288C423.793 441.852 420.634 445.203 417.403 446.409C415.834 443.342 415.765 438.736 417.538 434.171C419.312 429.601 422.476 426.256 425.702 425.049Z" fill="#08A4B9"/>
<path d="M401.828 477.638L471.965 477.755C483.601 483.724 490.984 492.592 490.967 502.484C490.95 513.05 482.506 522.413 469.462 528.319L404.156 528.21C391.127 522.266 382.72 512.87 382.737 502.304C382.754 492.412 390.166 483.568 401.828 477.638Z" fill="url(#paint2_linear)"/>
<path d="M408.409 483.193C401.496 482.376 392.226 487.569 389.813 498.05C386.515 518.722 407.216 524.832 418.531 519.598C408.682 517.114 397.926 512.578 397.619 502.394C397.085 497.064 400.258 491.937 400.307 491.778C400.747 491.153 401.632 489.603 403.28 487.807C404.747 486.066 406.521 484.605 408.409 483.193Z" fill="#F5CB8F"/>
<path d="M398.548 479.46L476.022 479.59L476.03 474.726L398.556 474.597L398.548 479.46Z" fill="#1179C5"/>
<path d="M95.156 569.647L84.8035 569.63L84.693 635.885L95.0455 635.902L95.156 569.647Z" fill="#4C505E"/>
<path d="M116.708 534.859L116.695 542.793C116.686 548.106 111.728 552.408 105.619 552.398L104.391 552.396L104.376 561.345C104.372 563.582 102.28 565.393 99.7085 565.389L81.4654 565.359C78.8938 565.354 76.8131 563.536 76.8169 561.299L76.8325 551.917C72.3327 550.686 69.0763 547.029 69.0834 542.714L69.0967 534.779L116.708 534.859Z" fill="#303030"/>
<path d="M83.0475 580.996L96.4104 581.019L96.4365 565.386L83.0736 565.363L83.0475 580.996Z" fill="#303030"/>
<path d="M82.85 655.748L96.3664 655.771L96.3857 644.223L96.4012 634.929L82.8848 634.906L82.85 655.748Z" fill="#001F26"/>
<path d="M146.193 669.656L96.386 644.223L96.3667 655.771L132.084 669.632L132.08 672.165L146.188 672.189L146.193 669.656Z" fill="#001F26"/>
<path d="M32.9787 669.466L82.8699 644.2L82.8506 655.748L47.0818 669.49L47.0776 672.023L32.9745 671.999L32.9787 669.466Z" fill="#001F26"/>
<path d="M94.1757 644.219L94.1293 672.102L97.4686 672.108L97.4653 674.076L82.8194 674.052L82.8226 672.083L85.9152 672.088L84.9912 644.204L94.1757 644.219Z" fill="#001F26"/>
<path d="M38.3178 370.891L38.0989 502.146L110.813 502.267L104.564 369.543C104.067 358.614 97.7317 350.022 89.8862 349.296C89.5518 349.279 89.2009 349.257 88.8499 349.256L54.1405 349.198C45.433 349.178 38.3378 358.888 38.3178 370.891Z" fill="#0089A9"/>
<path d="M67.8934 352.051C68.2443 352.051 68.5897 352.068 68.9297 352.091C76.7751 352.817 83.1105 361.409 83.6077 372.338L89.7243 502.232L110.819 502.267L104.57 369.543C104.072 358.614 97.7371 350.022 89.8916 349.296C89.5572 349.279 89.2063 349.257 88.8554 349.256L54.1459 349.198C51.311 349.194 48.6444 350.22 46.3439 352.02L67.8934 352.056L67.8934 352.051Z" fill="#75E0F9"/>
<path d="M48.1364 349.177L60.0846 349.197C48.0871 349.177 38.3435 358.888 38.3234 370.886L38.1045 502.151L26.1619 502.131L26.3808 370.866C26.4008 358.869 36.1389 349.157 48.1364 349.177Z" fill="#004555"/>
<path d="M124.662 296.637C124.662 296.637 124.706 296.687 124.76 296.736C124.728 296.709 124.706 296.676 124.662 296.637Z" fill="#31003D"/>
<path d="M479.054 527.595L359.024 527.395L358.771 679.392L478.801 679.592L479.054 527.595Z" fill="#DD7C82"/>
<path d="M478.805 679.593L501.994 679.631L502.247 527.634L479.058 527.595L478.805 679.593Z" fill="#903B41"/>
<path d="M375.832 572.27L473.375 572.433L473.438 534.472L470.757 570.707L375.832 572.27Z" fill="#903B41"/>
<path d="M373.735 620.317L471.277 620.48L471.341 582.513L468.659 618.748L373.735 620.317Z" fill="#903B41"/>
<path d="M428.799 544.273C428.796 546.143 425.196 547.645 420.76 547.637C416.324 547.63 412.73 546.11 412.733 544.246C412.736 542.382 416.336 540.874 420.772 540.882C425.208 540.889 428.802 542.409 428.799 544.273Z" fill="#903B41"/>
<path d="M431.3 599.9C431.296 601.896 427.258 603.507 422.274 603.499C417.295 603.49 413.262 601.866 413.265 599.87C413.268 597.874 417.307 596.263 422.286 596.272C427.27 596.28 431.303 597.904 431.3 599.9Z" fill="#903B41"/>
<path d="M373.397 667.978L470.94 668.141L471.004 630.18L468.322 666.414L373.397 667.978Z" fill="#903B41"/>
<path d="M430.957 647.566C430.954 649.562 426.915 651.173 421.931 651.165C416.952 651.156 412.919 649.532 412.922 647.536C412.926 645.54 416.964 643.929 421.943 643.938C426.927 643.946 430.96 645.565 430.957 647.566Z" fill="#903B41"/>
<path d="M479.054 527.595L359.024 527.395L359.011 535.559L479.04 535.759L479.054 527.595Z" fill="#A65E62"/>
<path d="M502.248 527.633L479.131 527.594L479.117 535.759L502.235 535.798L502.248 527.633Z" fill="#360442"/>
<path d="M188.652 523.409L199.058 491.897C201.306 485.08 200.271 477.774 196.229 471.845C192.181 465.922 185.749 462.298 178.589 461.919L93.3361 457.329L92.7137 468.86L177.966 473.449C181.514 473.641 184.697 475.429 186.693 478.36C188.695 481.292 189.21 484.911 188.097 488.282L177.692 519.799L188.652 523.409Z" fill="#1E1E1E"/>
<path d="M41.4938 538.029L173.126 538.248C173.148 525.105 162.512 514.438 149.374 514.416L65.3201 514.276C52.1821 514.249 41.5157 524.885 41.4938 538.029Z" fill="#004555"/>
<path d="M68.8282 538.074L200.461 538.294C200.483 525.15 189.846 514.484 176.708 514.462L92.6601 514.322C79.5165 514.295 68.8502 524.931 68.8282 538.074Z" fill="#0089A9"/>
<path d="M197.735 446.844L185.79 441.543C181.133 439.211 176.012 438.994 173.435 438.567L173.43 438.567C170.623 438.102 167.137 437.57 162.74 436.932C162.936 440.891 163.418 444.851 164.568 448.806C165.616 448.671 166.647 448.541 167.65 448.428C172.817 447.833 184.303 448.686 187.864 453.945C191.43 459.204 191.386 462.806 192.516 462.441C193.652 462.075 192.603 456.486 190.88 453.763C189.152 451.041 188.174 448.714 188.174 448.714C188.174 448.714 192.793 454.09 193.49 456.986C194.193 459.883 195.674 462.841 196.381 462.612C197.089 462.388 195.551 457.259 194.948 454.176C194.54 452.075 193.907 450.281 193.114 448.733L196.577 450.412C196.577 450.412 201.543 458.025 202.012 456.195C202.482 454.364 197.735 446.844 197.735 446.844Z" fill="#EEA987"/>
<path d="M154.552 434.363C130.908 430.979 125.128 434.89 125.145 424.274C125.169 409.869 141.177 375.696 133.983 366.094C132.806 364.529 123.731 358.208 119.639 362.391C105.688 376.673 99.107 429.599 109.869 446.889C116.47 457.499 144.138 451.464 164.568 448.806C163.412 444.851 164.788 438.339 164.592 434.38C162.065 434.013 157.726 434.823 154.552 434.363Z" fill="#654B7B"/>
<path d="M165.901 438.401L179.623 443.699C179.623 443.699 185.077 451.22 184.542 453.051C184.002 454.882 178.301 447.267 178.301 447.267L170.005 443.776L165.901 438.401Z" fill="#C78D71"/>
<path d="M158.38 440.911C158.38 440.911 164.849 447.792 164.847 449.256C164.845 450.72 165.415 454.203 166.698 454.205C167.981 454.208 168.018 448.154 168.021 446.279C168.025 444.409 164.798 439.178 164.244 439.177C163.696 439.182 158.38 440.911 158.38 440.911Z" fill="#C78D71"/>
<path d="M181.837 632.05C180.601 633.232 174.968 630.684 174.96 635.592C174.957 637.242 178.357 637.478 179.087 643.177C179.58 647.01 177.076 656.021 178.271 659.433C180.568 666.012 185.657 669.195 185.657 669.195C185.664 665.181 183.726 663.04 183.733 658.806C183.74 654.573 197.066 640.536 198.246 626.649C198.319 625.794 198.584 624.659 199.02 623.289C195.076 620.842 191.137 618.472 187.846 615.659C184.502 625.239 182.15 631.749 181.837 632.05Z" fill="#C78D71"/>
<path d="M184.121 636.961C184.123 635.349 182.799 633.735 181.727 632.121C180.311 633.095 174.968 630.805 174.96 635.592C174.952 640.505 164.352 654.207 164.352 654.207L166.465 656.074C166.465 656.074 176.89 638.819 177.766 643.054C178.642 647.288 171.744 660.146 171.744 660.146L184.913 671.343L185.657 669.201C185.664 665.247 183.797 663.1 183.744 658.998C177.315 654.031 185.069 643.417 184.121 636.961Z" fill="#3A0049"/>
<path d="M231.83 515.656C224.745 496.321 130.433 475.777 130.433 475.777L119.169 479.75L109.063 493.2L203.155 523.746C203.155 523.746 193.342 588.296 182.195 621.051C185.89 624.287 192.22 623.184 196.64 626.005C204.056 601.956 235.777 526.427 231.83 515.656Z" fill="#0E4271"/>
<path d="M207.465 616.218C202.782 616.496 198.076 616.894 193.349 617.445C194.671 626.774 195.284 634.249 194.134 636.271C193.243 637.837 192.243 639.398 191.281 640.894C188.57 645.106 186.13 648.792 187.037 650.598C187.594 651.695 193.557 650.537 195.736 655.871C198.417 662.433 197.342 675.597 197.342 675.597L217.499 678.926C217.499 678.926 220.292 677.67 216.17 673.589C212.048 669.508 208.65 668.18 207.32 663.742C205.989 659.304 207.244 636.649 207.268 622.14C207.276 620.66 207.346 618.647 207.465 616.218Z" fill="#EEA987"/>
<path d="M218.648 677.239C218.474 676.477 215.874 670.539 209.569 666.811L205.172 669.781C200.126 663.582 200.22 653.619 197.033 647.308C196.319 645.179 194.009 642.527 191.287 640.899C188.571 645.111 186.136 648.798 187.043 650.603C188.278 653.051 188.121 675.017 188.121 675.017L191.158 675.022C191.158 675.022 189.368 656.891 192.408 655.816C195.447 654.741 196.14 676.801 196.14 676.801L218.545 680.019C218.534 680.013 219.494 679.494 218.648 677.239Z" fill="#4F005E"/>
<path d="M191.207 501.107L118.865 484.728L70.2043 492.258C70.2043 492.258 63.8424 512.739 74.6747 520.976C78.9463 524.229 170.575 529.471 170.575 529.471C170.575 529.471 184.45 596.994 187.605 619.333C193.38 618.657 202.726 617.049 208.446 616.714C209.547 594.053 196.759 502.712 191.207 501.107Z" fill="#124C80"/>
<path d="M132.165 344.684C136.172 345.393 145.555 361.562 147.728 367.214C148.159 368.344 154.326 389.125 148.453 396.085C142.579 403.044 134.211 422.995 129.633 432.55C127.465 437.07 114.104 455.867 130.943 466.045C135.172 468.601 142.302 467.725 140.097 471.373C137.892 475.022 90.3934 502.326 70.7997 496.816C51.2059 491.305 66.9706 484.691 68.8103 479.715C70.65 474.739 60.5736 473.56 64.7942 467.925C69.0203 462.29 84.7037 448.542 93.6427 418.212C94.5196 415.225 96.8786 358.591 100.233 349.643C102.486 343.647 123.175 343.095 132.165 344.684Z" fill="#AC6E94"/>
<path d="M157.136 281.278C155.468 281.955 144.331 275.762 130.277 282.724C116.562 289.517 111.835 312.995 110.757 325.007C110.377 329.272 111.221 332.377 111.221 332.377C111.221 332.377 117.017 332.628 122.48 334.946C127.943 337.263 136.287 341.527 142.645 342.925C149.13 344.345 165.537 311.044 164.864 300.323C164.191 289.597 157.136 281.278 157.136 281.278Z" fill="#2E0A29"/>
<path d="M157.138 281.278C157.138 281.278 168.369 286.967 168.413 296.7C168.452 306.438 155.21 332.303 162.48 336.192C162.48 336.192 158.229 337.051 155.369 335.834C155.369 335.834 152.195 338.467 154.893 345.15C154.893 345.15 148.461 345.117 142.641 342.92C142.241 342.765 137.515 342.346 138.492 338.586C139.645 334.136 146.645 325.966 147.771 321.664C152.539 303.44 157.138 281.278 157.138 281.278Z" fill="#450F3D"/>
<path d="M156.789 282.939C158.05 283.402 159.173 283.985 160.093 284.65C160.093 284.65 169.586 293.647 166.951 302.148C164.315 310.648 161.942 313.435 160.814 319.158C159.039 328.142 147.742 341.831 138.619 338.142C140.09 333.616 146.678 325.829 147.765 321.664C151.755 306.421 155.629 288.415 156.789 282.939Z" fill="#340B2E"/>
<path d="M130.954 324.498L120.782 343.991C120.782 343.991 128.67 371.804 143.502 368.923C143.76 368.874 138.647 364.013 137.7 356.214C136.959 350.071 139.834 342.279 142.894 332.353C144.405 327.459 130.954 324.498 130.954 324.498Z" fill="#EEA987"/>
<path d="M130.954 324.498L124.782 336.337C132.176 341.433 140.835 337.219 141.781 335.927C143.35 332.025 142.063 333.953 142.9 332.359C145.265 327.812 130.954 324.498 130.954 324.498Z" fill="#C78D71"/>
<path d="M158.981 284.16C158.981 284.16 167.932 292.718 165.401 300.851C162.871 308.984 160.613 311.656 159.518 317.127C158.423 322.597 150.999 335.509 141.616 335.926C132.228 336.344 126.533 318.963 126.922 312.269C127.306 305.58 129.893 296.772 135.472 288.195C141.052 279.628 153.668 280.274 158.981 284.16Z" fill="#EEA987"/>
<path d="M129.332 323.892C127.623 319.535 126.764 315.016 126.922 312.28C127.306 305.591 129.892 296.783 135.472 288.206C141.058 279.628 153.674 280.274 158.981 284.165C158.981 284.165 167.932 292.723 165.401 300.856C164.552 303.58 163.737 305.695 162.983 307.504L153.07 303.358C153.07 303.358 156.923 295.068 155.743 292.155L151.531 302.275L144.632 299.72C144.632 299.72 143.824 294.257 145.459 290.41C145.459 290.41 143.158 295.791 143.437 299.29C143.437 299.29 138.764 297.187 137.553 300.048C136.562 302.387 130.922 317.276 129.851 321.382C129.62 322.242 129.448 323.081 129.332 323.892Z" fill="#C78D71"/>
<path d="M168.194 293.212C167.254 287.88 162.195 283.496 157.132 281.273C150.289 274.873 134.765 271.782 120.425 285.324C112.171 293.118 97.7062 325.863 100.673 325.72C100.969 325.704 111.223 332.372 111.223 332.372L111.44 326.758C112.03 328.223 114.413 329.575 117.438 330.754C116.353 323.552 119.58 318.782 119.58 318.782C118.205 324.493 119.262 328.865 120.803 331.916C127.264 333.934 134.654 335.197 134.654 335.197C134.627 335.065 128.926 324.242 130.945 316.509C132.016 312.409 135.723 302.074 136.72 299.734C137.936 296.874 142.984 298.171 142.984 298.171C142.705 294.677 146.642 288.285 146.642 288.285C145.012 292.131 144.935 298.996 144.935 298.996L151.637 301.837L156.602 290.133C157.782 293.046 154.431 303.021 154.431 303.021L163.977 306.754C163.971 306.76 169.65 301.505 168.194 293.212Z" fill="#464A7F"/>
<path d="M156.857 281.93C145.022 276.701 135.449 276.186 126.878 285.965C118.588 295.344 105.941 316.719 105.586 329.237L111.217 332.377C110.889 322.178 119.673 299.228 125.669 290.887C133.171 280.437 139.611 275.546 156.857 281.93Z" fill="#3B4999"/>
<path d="M158.708 283.359C162.36 286.15 166.121 289.946 166.492 294.508C166.841 298.726 164.488 302.549 162.267 306.093L161.253 305.697C166.266 298.341 169.659 292.353 158.708 283.359Z" fill="#363A68"/>
<path d="M158.154 283.495C165.287 290.345 162.463 296.805 157.302 304.149L156.294 303.758C161.992 296.788 165.089 290.547 158.154 283.495Z" fill="#363A68"/>
<path d="M156.757 282.527C151.566 288.062 150.109 293.659 149.258 300.835L148.294 300.427C149.55 293.389 151.413 287.722 156.757 282.527Z" fill="#363A68"/>
<path d="M176.424 451.031C173.132 436.264 157.257 436.221 151.71 435.417C149.489 435.095 146.88 434.74 143.843 434.345C142.521 438.006 140.941 441.743 140.671 445.756C142.174 445.583 143.643 445.421 145.069 445.276C151.009 444.682 164.2 445.538 168.293 450.798C172.386 456.058 172.336 459.66 173.636 459.295C174.936 458.93 173.734 453.335 171.748 450.617C169.762 447.894 168.636 445.567 168.636 445.567C168.636 445.567 173.941 450.939 174.747 453.841C175.549 456.737 177.249 459.696 178.066 459.467C178.878 459.243 177.11 454.113 176.424 451.031Z" fill="#EEA987"/>
<path d="M751.659 309.883C751.659 309.883 751.615 309.933 751.561 309.982C751.593 309.955 751.615 309.927 751.659 309.883Z" fill="#31003D"/>
<path d="M284.864 677.613L285.154 503.44L533.335 503.854L533.045 678.027L540.968 678.04L541.273 495.089L275.93 494.646L275.625 677.597L284.864 677.613Z" fill="#004555"/>
<path d="M319.718 468.909L284.406 468.85C284.411 465.78 286.904 463.289 289.981 463.294L319.728 463.344L319.718 468.909Z" fill="#603E6B"/>
<path d="M253.802 348.446L251.411 348.442L216.509 444.007L320.903 442.75L253.802 348.446Z" fill="#A338C6"/>
<path d="M253.802 348.446L220.657 442.583L322.016 442.752L351.794 361.999L253.802 348.446Z" fill="#603E6B"/>
<path d="M285.251 412.566L286.214 407.309L296.549 421.352L305.734 457.07L305.721 465.196L302.846 466.151C302.846 466.151 301.585 455.944 299.209 450.205C296.834 444.465 285.251 412.566 285.251 412.566Z" fill="#A338C6"/>
<path d="M286.22 407.314C286.22 407.314 308.366 460.66 302.857 466.151L317.442 466.175L297.696 407.333L286.22 407.314Z" fill="#3A0051"/>
<path d="M280.705 462.155L187.269 461.999L187.258 468.689L280.694 468.844L280.705 462.155Z" fill="#603E6B"/>
<path d="M301.746 484.013L280.668 483.978L280.645 497.884L301.723 497.919L301.746 484.013Z" fill="#004555"/>
<path d="M392.841 484.165L351.59 484.096L351.567 498.002L392.818 498.071L392.841 484.165Z" fill="#004555"/>
<path d="M467.639 484.29L426.388 484.221L426.365 498.127L467.616 498.196L467.639 484.29Z" fill="#004555"/>
<path d="M535.967 484.404L506.823 484.355L506.799 498.261L535.943 498.31L535.967 484.404Z" fill="#004555"/>
<path d="M6.47096 469.434L34.8697 538.166L95.2029 538.118L110.796 496.219C113.083 489.292 111.977 481.849 107.759 475.871C103.602 469.975 96.7314 466.585 89.527 466.195L12.9646 462.07C8.94013 461.86 5.75928 465.458 6.47096 469.434ZM17.8743 473.9L89.7161 477.765C93.258 477.957 96.4408 479.745 98.4428 482.676C100.445 485.608 100.954 489.222 99.841 492.598L85.2885 528.627L41.23 528.553L17.8743 473.9Z" fill="#1E1E1E"/>
<path d="M660.461 467.542L156.834 466.702L156.804 484.945L660.43 485.785L660.461 467.542Z" fill="#1C0F00"/>
<path d="M660.462 466.528L156.835 465.688L156.826 471.593L660.452 472.433L660.462 466.528Z" fill="#00C9F7"/>
<path d="M129.638 429.595C102.479 426.205 96.2247 431.733 96.2424 421.111C96.2664 406.707 116.803 366.066 111.064 351.728C110.262 349.709 105.934 344.004 101.239 348.191C85.22 362.471 66.3384 426.43 78.6964 443.728C86.1856 454.208 117.291 448.453 140.666 445.756C140.936 441.743 145.635 434.902 146.957 431.236C143.038 430.725 135.268 430.301 129.638 429.595Z" fill="#654B7B"/>
<path d="M594.121 581.139C592.176 583.165 588.654 584.442 584.662 584.293C580.682 584.144 577.263 582.597 575.479 580.439C577.423 578.414 580.946 577.136 584.932 577.286C588.918 577.429 592.337 578.976 594.121 581.139Z" fill="#F5CB8F"/>
<path d="M637.492 664.86C634.868 646.717 633.681 628.39 634.019 610.103C634.105 600.957 634.625 591.823 635.37 582.716C636.081 573.604 637.204 564.536 638.491 555.497C641.115 537.422 644.802 519.52 649.372 501.855C651.668 493.025 654.199 484.261 656.966 475.569C659.744 466.877 662.714 458.263 666.139 449.786L667.213 450.226C663.92 458.676 661.06 467.329 658.397 476.021C655.745 484.719 653.328 493.488 651.153 502.313C646.825 519.968 643.368 537.843 640.986 555.846C639.819 564.853 638.817 573.883 638.221 582.94C637.597 591.992 637.198 601.061 637.221 610.13C637.114 628.269 638.526 646.394 641.331 664.263L637.492 664.86Z" fill="#E7626B"/>
<path d="M671.518 413.44C666.348 416.546 662.213 423.141 661.059 431.205C659.9 439.275 662.009 446.763 666.098 451.195C671.269 448.089 675.398 441.499 676.557 433.43C677.711 425.36 675.607 417.872 671.518 413.44Z" fill="#E7626B"/>
<path d="M641.034 441.2C640.396 445.871 642.387 451.61 646.733 456.262C651.08 460.913 656.669 463.297 661.368 462.976C662.007 458.305 660.015 452.566 655.669 447.915C651.323 443.263 645.734 440.879 641.034 441.2Z" fill="#E7626B"/>
<path d="M661.92 463.975C665.875 466.537 671.917 467.177 677.979 465.23C684.036 463.277 688.577 459.232 690.29 454.843C686.335 452.276 680.294 451.635 674.231 453.588C668.169 455.541 663.633 459.586 661.92 463.975Z" fill="#E7626B"/>
<path d="M656.296 482.757C660.245 485.324 666.292 485.965 672.355 484.012C678.417 482.059 682.948 478.014 684.66 473.625C680.706 471.058 674.664 470.423 668.607 472.37C662.545 474.323 658.009 478.368 656.296 482.757Z" fill="#E7626B"/>
<path d="M650.077 503.265C654.026 505.832 660.073 506.468 666.13 504.52C672.192 502.573 676.728 498.523 678.441 494.133C674.492 491.566 668.445 490.925 662.388 492.878C656.32 494.831 651.789 498.876 650.077 503.265Z" fill="#E7626B"/>
<path d="M645.894 522.362C649.849 524.929 655.89 525.57 661.953 523.617C668.015 521.664 672.551 517.62 674.258 513.23C670.309 510.663 664.267 510.022 658.205 511.975C652.137 513.928 647.607 517.973 645.894 522.362Z" fill="#E7626B"/>
<path d="M647.622 518.499C643.659 521.053 637.615 521.674 631.565 519.701C625.509 517.727 620.987 513.668 619.294 509.273C623.252 506.724 629.301 506.098 635.352 508.071C641.407 510.039 645.93 514.104 647.622 518.499Z" fill="#E7626B"/>
<path d="M635.449 459.368C634.805 464.034 636.803 469.778 641.149 474.43C645.495 479.087 651.084 481.465 655.789 481.149C656.427 476.479 654.43 470.74 650.089 466.088C645.743 461.431 640.149 459.047 635.449 459.368Z" fill="#E7626B"/>
<path d="M629.049 480.014C628.41 484.684 630.402 490.423 634.748 495.075C639.094 499.726 644.683 502.11 649.388 501.789C650.027 497.124 648.035 491.379 643.689 486.728C639.343 482.071 633.754 479.692 629.049 480.014Z" fill="#E7626B"/>
<path d="M754.423 497.78C746.492 502.132 739.059 507.274 731.839 512.696C724.636 518.134 717.761 524.006 711.176 530.186C704.597 536.377 698.335 542.908 692.413 549.736C686.512 556.586 680.984 563.76 675.806 571.181C665.451 586.029 656.815 602.064 649.856 618.804C643.057 635.61 638.005 653.132 634.794 671.002L638.626 671.65C641.518 653.999 646.23 636.646 652.684 619.944C659.303 603.308 667.598 587.31 677.63 572.434C682.649 565.001 688.024 557.8 693.776 550.906C699.556 544.034 705.675 537.448 712.123 531.191C718.577 524.94 725.331 518.991 732.419 513.459C739.518 507.949 746.869 502.703 754.669 498.258L754.423 497.78Z" fill="#E7626B"/>
<path d="M783.688 477.425C783.256 483.44 779.242 490.101 772.567 494.784C765.891 499.461 758.261 500.967 752.457 499.323C752.889 493.303 756.909 486.642 763.579 481.965C770.254 477.288 777.884 475.782 783.688 477.425Z" fill="#E7626B"/>
<path d="M738.805 472.251C743.251 476.327 745.975 483.614 745.495 491.75C745.015 499.887 741.45 506.801 736.553 510.329C732.108 506.253 729.384 498.967 729.863 490.83C730.349 482.688 733.913 475.78 738.805 472.251Z" fill="#E7626B"/>
<path d="M712.282 485.51C717.651 488.255 722.219 494.552 723.922 502.527C725.625 510.498 724.033 518.111 720.253 522.815C714.884 520.07 710.315 513.768 708.612 505.797C706.909 497.827 708.501 490.208 712.282 485.51Z" fill="#E7626B"/>
<path d="M694.384 501.924C699.753 504.669 704.321 510.972 706.019 518.942C707.722 526.912 706.13 534.526 702.349 539.229C696.98 536.484 692.412 530.187 690.709 522.212C689.006 514.242 690.604 506.628 694.384 501.924Z" fill="#E7626B"/>
<path d="M673.772 518.795C679.67 520.077 685.693 524.995 689.377 532.266C693.06 539.538 693.47 547.303 691.02 552.815C685.122 551.533 679.099 546.615 675.415 539.344C671.732 532.072 671.322 524.307 673.772 518.795Z" fill="#E7626B"/>
<path d="M659.249 539.931C664.629 539.71 670.946 542.605 675.768 548.058C680.59 553.51 682.69 560.132 681.815 565.444C676.435 565.666 670.118 562.771 665.29 557.318C660.474 551.87 658.374 545.248 659.249 539.931Z" fill="#E7626B"/>
<path d="M648.71 553.221C654.09 553 660.407 555.895 665.229 561.348C670.051 566.801 672.156 573.423 671.275 578.74C665.89 578.961 659.578 576.067 654.757 570.614C649.935 565.155 647.835 558.533 648.71 553.221Z" fill="#E7626B"/>
<path d="M642.673 572.831C647.285 572.641 652.698 575.123 656.836 579.796C660.968 584.47 662.768 590.148 662.02 594.703C657.403 594.893 651.995 592.411 647.857 587.738C643.725 583.064 641.92 577.392 642.673 572.831Z" fill="#E7626B"/>
<path d="M636.81 593.29C640.169 591.399 645.165 591.182 650.053 593.077C654.941 594.971 658.483 598.492 659.694 602.157C656.329 604.048 651.339 604.265 646.451 602.37C641.558 600.476 638.016 596.95 636.81 593.29Z" fill="#E7626B"/>
<path d="M634.43 610.153C636.501 607.859 640.232 606.418 644.432 606.606C648.632 606.794 652.22 608.565 654.075 611.036C652.004 613.33 648.273 614.771 644.073 614.583C639.873 614.395 636.279 612.624 634.43 610.153Z" fill="#E7626B"/>
<path d="M772.532 522.222C767.399 525.389 759.645 526.028 751.945 523.351C744.246 520.673 738.563 515.361 736.505 509.693C741.637 506.527 749.392 505.887 757.091 508.565C764.785 511.237 770.468 516.555 772.532 522.222Z" fill="#E7626B"/>
<path d="M756.24 535.585C751.108 538.752 743.354 539.391 735.654 536.713C727.954 534.036 722.271 528.724 720.214 523.056C725.346 519.89 733.1 519.25 740.8 521.928C748.494 524.606 754.177 529.912 756.24 535.585Z" fill="#E7626B"/>
<path d="M738.864 552.067C733.731 555.233 725.977 555.873 718.277 553.195C710.578 550.517 704.895 545.205 702.837 539.538C707.969 536.371 715.718 535.732 723.418 538.409C731.123 541.082 736.8 546.393 738.864 552.067Z" fill="#E7626B"/>
<path d="M719.27 563.017C715.093 565.593 708.792 566.109 702.528 563.938C696.264 561.762 691.643 557.439 689.968 552.83C694.145 550.254 700.446 549.733 706.71 551.909C712.974 554.085 717.594 558.403 719.27 563.017Z" fill="#E7626B"/>
<path d="M704.595 573.482C701.181 575.681 696.059 576.177 691.001 574.419C685.942 572.656 682.236 569.091 680.921 565.245C684.335 563.047 689.458 562.551 694.516 564.308C699.574 566.072 703.28 569.636 704.595 573.482Z" fill="#E7626B"/>
<path d="M695.816 586.957C692.402 589.155 687.28 589.657 682.221 587.894C677.163 586.136 673.457 582.566 672.147 578.725C675.562 576.527 680.684 576.025 685.737 577.788C690.795 579.541 694.501 583.111 695.816 586.957Z" fill="#E7626B"/>
<path d="M686.195 599.147C683.427 601.494 678.797 602.622 673.825 601.813C668.859 600.999 664.827 598.453 662.957 595.341C665.725 592.993 670.354 591.866 675.326 592.68C680.287 593.489 684.319 596.035 686.195 599.147Z" fill="#E7626B"/>
<path d="M676.891 614.501C673.775 615.379 669.636 614.577 665.983 612.07C662.324 609.564 660.082 605.996 659.78 602.777C662.896 601.899 667.03 602.701 670.688 605.207C674.347 607.708 676.589 611.282 676.891 614.501Z" fill="#E7626B"/>
<path d="M666.545 623.663C664.083 623.878 661.085 622.688 658.693 620.283C656.301 617.883 655.122 614.881 655.35 612.42C657.813 612.199 660.81 613.394 663.202 615.794C665.589 618.194 666.774 621.195 666.545 623.663Z" fill="#E7626B"/>
<path d="M659.687 626.053C658.064 626.297 656.157 625.647 654.695 624.175C653.233 622.708 652.584 620.794 652.839 619.176C654.462 618.932 656.37 619.583 657.831 621.055C659.293 622.527 659.937 624.436 659.687 626.053Z" fill="#E7626B"/>
<path d="M657.47 630.59C655.846 630.834 653.939 630.184 652.483 628.712C651.021 627.24 650.372 625.33 650.627 623.713C652.245 623.469 654.158 624.119 655.614 625.591C657.075 627.063 657.725 628.972 657.47 630.59Z" fill="#E7626B"/>
<path d="M578.253 482.276C583.901 488.481 588.874 495.228 593.573 502.162C598.25 509.106 602.52 516.329 606.434 523.733C610.342 531.142 613.866 538.758 617.017 546.534C620.129 554.32 622.819 562.275 625.125 570.345C629.737 586.49 632.49 603.158 633.553 619.939C634.457 636.731 633.617 653.623 631.051 670.267L627.493 669.679C630.273 653.327 631.359 636.682 630.723 620.083C629.928 603.494 627.467 586.963 623.14 570.89C620.976 562.853 618.429 554.92 615.459 547.14C612.456 539.37 609.069 531.748 605.298 524.318C601.516 516.892 597.382 509.636 592.826 502.648C588.259 495.683 583.391 488.864 577.885 482.615L578.253 482.276Z" fill="#E7626B"/>
<path d="M558.705 455.599C557.27 461.009 558.788 468.063 563.236 474.179C567.684 480.295 573.923 483.913 579.51 484.219C580.939 478.809 579.427 471.755 574.979 465.639C570.531 459.523 564.292 455.905 558.705 455.599Z" fill="#E7626B"/>
<path d="M599.64 464.573C594.514 466.812 589.926 472.381 587.902 479.665C585.872 486.949 586.918 494.09 590.151 498.652C595.282 496.413 599.864 490.844 601.889 483.56C603.913 476.281 602.873 469.14 599.64 464.573Z" fill="#E7626B"/>
<path d="M618.914 484.191C613.38 484.983 607.473 489.135 603.58 495.615C599.687 502.095 598.792 509.255 600.691 514.517C606.231 513.725 612.132 509.573 616.025 503.093C619.924 496.613 620.819 489.453 618.914 484.191Z" fill="#E7626B"/>
<path d="M629.683 503.982C624.144 504.773 618.242 508.925 614.344 515.406C610.451 521.886 609.556 529.046 611.455 534.307C616.995 533.511 622.891 529.364 626.789 522.884C630.688 516.404 631.577 509.249 629.683 503.982Z" fill="#E7626B"/>
<path d="M642.682 524.988C637.123 524.338 630.358 526.843 624.931 532.109C619.51 537.38 616.812 544.071 617.302 549.643C622.856 550.294 629.626 547.794 635.047 542.522C640.479 537.256 643.172 530.56 642.682 524.988Z" fill="#E7626B"/>
<path d="M649.065 547.909C644.407 546.097 637.996 546.733 632.123 550.068C626.25 553.403 622.414 558.579 621.578 563.507C626.236 565.319 632.647 564.682 638.525 561.347C644.392 558.012 648.228 552.837 649.065 547.909Z" fill="#E7626B"/>
<path d="M654.309 562.739C649.651 560.927 643.24 561.563 637.368 564.893C631.489 568.228 627.653 573.403 626.823 578.331C631.481 580.143 637.892 579.507 643.764 576.177C649.637 572.842 653.473 567.667 654.309 562.739Z" fill="#E7626B"/>
<path d="M653.702 581.765C649.713 580.212 644.217 580.757 639.179 583.611C634.146 586.47 630.854 590.901 630.14 595.127C634.134 596.68 639.63 596.135 644.663 593.276C649.696 590.428 652.988 585.986 653.702 581.765Z" fill="#E7626B"/>
<path d="M652.687 601.476C650.307 598.802 645.994 597.111 641.135 597.3C636.271 597.495 632.106 599.517 629.941 602.37C632.322 605.039 636.634 606.735 641.493 606.54C646.357 606.346 650.522 604.324 652.687 601.476Z" fill="#E7626B"/>
<path d="M649.695 616.989C648.57 614.349 645.728 611.965 641.99 610.862C638.247 609.765 634.567 610.236 632.195 611.849C633.32 614.489 636.162 616.873 639.9 617.97C643.643 619.068 647.323 618.597 649.695 616.989Z" fill="#E7626B"/>
<path d="M555.004 498.259C558.555 502.586 565.163 505.476 572.725 505.444C580.287 505.413 586.871 502.463 590.388 498.11C586.837 493.783 580.229 490.893 572.667 490.919C565.105 490.956 558.52 493.906 555.004 498.259Z" fill="#E7626B"/>
<path d="M565.274 514.891C568.825 519.212 575.439 522.108 583.001 522.076C590.557 522.045 597.147 519.095 600.658 514.742C597.107 510.415 590.499 507.525 582.937 507.556C575.376 507.588 568.791 510.538 565.274 514.891Z" fill="#E7626B"/>
<path d="M575.555 534.582C579.107 538.903 585.715 541.799 593.276 541.767C600.838 541.736 607.423 538.786 610.934 534.433C607.383 530.106 600.774 527.216 593.213 527.247C585.657 527.279 579.072 530.229 575.555 534.582Z" fill="#E7626B"/>
<path d="M589.451 550.085C592.341 553.604 597.716 555.955 603.863 555.932C610.01 555.904 615.365 553.506 618.223 549.968C615.333 546.449 609.963 544.098 603.811 544.121C597.664 544.149 592.309 546.547 589.451 550.085Z" fill="#E7626B"/>
<path d="M599.178 563.689C601.515 566.643 605.854 568.624 610.822 568.605C615.79 568.586 620.12 566.57 622.428 563.59C620.091 560.637 615.752 558.655 610.784 558.674C605.816 558.694 601.486 560.71 599.178 563.689Z" fill="#E7626B"/>
<path d="M602.828 578.149C605.159 581.108 609.504 583.084 614.472 583.065C619.44 583.046 623.764 581.03 626.072 578.056C623.741 575.102 619.396 573.121 614.428 573.14C609.46 573.159 605.136 575.175 602.828 578.149Z" fill="#E7626B"/>
<path d="M607.592 591.745C609.315 594.637 613.039 597.023 617.639 597.804C622.238 598.585 626.544 597.567 629.125 595.4C627.402 592.507 623.678 590.121 619.078 589.34C614.479 588.559 610.173 589.583 607.592 591.745Z" fill="#E7626B"/>
<path d="M611.135 608.02C613.599 609.734 617.475 610.267 621.436 609.172C625.397 608.076 628.444 605.619 629.677 602.885C627.212 601.176 623.336 600.637 619.376 601.733C615.415 602.828 612.367 605.285 611.135 608.02Z" fill="#E7626B"/>
<path d="M617.455 619.172C619.554 620.108 622.542 619.959 625.363 618.571C628.184 617.183 630.123 614.905 630.664 612.675C628.566 611.739 625.577 611.887 622.756 613.276C619.93 614.664 617.996 616.941 617.455 619.172Z" fill="#E7626B"/>
<path d="M622.75 623.337C624.098 624.041 625.967 624.038 627.696 623.192C629.419 622.345 630.567 620.861 630.827 619.364C629.48 618.66 627.61 618.663 625.882 619.51C624.153 620.357 623.016 621.84 622.75 623.337Z" fill="#E7626B"/>
<path d="M623.329 627.982C624.677 628.686 626.546 628.684 628.269 627.837C629.992 626.99 631.141 625.512 631.401 624.01C630.053 623.306 628.184 623.303 626.455 624.155C624.738 625.002 623.595 626.486 623.329 627.982Z" fill="#E7626B"/>
<path d="M698.176 464.063C692.396 471.022 687.366 478.532 682.643 486.228C677.942 493.935 673.701 501.917 669.843 510.086C665.997 518.256 662.572 526.628 659.564 535.155C656.589 543.694 654.079 552.391 651.987 561.194C647.806 578.805 645.66 596.891 645.333 615.018C645.182 633.146 646.912 651.299 650.485 669.098L654.286 668.293C650.494 650.811 648.506 632.943 648.382 615.035C648.434 597.132 650.273 579.204 654.146 561.68C656.085 552.921 658.441 544.256 661.263 535.729C664.118 527.212 667.394 518.839 671.093 510.653C674.802 502.473 678.9 494.457 683.465 486.706C688.045 478.977 692.954 471.402 698.581 464.403L698.176 464.063Z" fill="#F5CB8F"/>
<path d="M717.927 434.381C719.732 440.137 718.442 447.806 713.951 454.614C709.46 461.417 702.916 465.617 696.911 466.216C695.106 460.461 696.396 452.786 700.887 445.989C705.379 439.186 711.927 434.986 717.927 434.381Z" fill="#F5CB8F"/>
<path d="M674.277 446.043C679.91 448.202 685.115 453.985 687.657 461.726C690.2 469.472 689.419 477.208 686.159 482.286C680.526 480.121 675.315 474.35 672.778 466.603C670.247 458.862 671.022 451.121 674.277 446.043Z" fill="#F5CB8F"/>
<path d="M654.478 468.113C660.481 468.694 667.043 472.877 671.55 479.668C676.063 486.458 677.371 494.121 675.585 499.886C669.582 499.3 663.02 495.122 658.513 488.332C653.995 481.541 652.686 473.873 654.478 468.113Z" fill="#F5CB8F"/>
<path d="M643.853 489.957C649.856 490.543 656.413 494.721 660.925 501.512C665.432 508.302 666.747 515.965 664.955 521.73C658.952 521.144 652.395 516.961 647.883 510.17C643.37 503.385 642.061 495.717 643.853 489.957Z" fill="#F5CB8F"/>
<path d="M630.874 513.207C636.83 512.236 644.24 514.6 650.334 520.012C656.428 525.423 659.657 532.496 659.405 538.527C653.449 539.499 646.039 537.134 639.945 531.723C633.846 526.312 630.617 519.238 630.874 513.207Z" fill="#F5CB8F"/>
<path d="M625.118 538.207C630.046 536.027 636.982 536.401 643.469 539.702C649.961 543.003 654.344 548.395 655.481 553.66C650.553 555.84 643.618 555.467 637.125 552.166C630.644 548.859 626.256 543.473 625.118 538.207Z" fill="#F5CB8F"/>
<path d="M620.195 554.435C625.122 552.25 632.058 552.629 638.545 555.93C645.032 559.23 649.42 564.617 650.552 569.888C645.624 572.068 638.688 571.695 632.202 568.394C625.72 565.087 621.332 559.701 620.195 554.435Z" fill="#F5CB8F"/>
<path d="M621.784 574.896C626.003 573.028 631.952 573.35 637.513 576.178C643.074 579.011 646.833 583.629 647.807 588.143C643.582 590.012 637.639 589.695 632.078 586.861C626.512 584.028 622.758 579.41 621.784 574.896Z" fill="#F5CB8F"/>
<path d="M623.837 596.076C626.272 593.081 630.832 591.049 636.079 591.019C641.321 590.989 645.913 592.966 648.381 595.925C645.947 598.92 641.387 600.953 636.139 600.982C630.892 601.017 626.306 599.036 623.837 596.076Z" fill="#F5CB8F"/>
<path d="M627.813 612.637C628.892 609.744 631.842 607.029 635.814 605.664C639.786 604.3 643.777 604.625 646.412 606.247C645.332 609.14 642.383 611.855 638.411 613.219C634.434 614.584 630.448 614.253 627.813 612.637Z" fill="#F5CB8F"/>
<path d="M723.998 480.144C720.381 484.975 713.406 488.412 705.263 488.749C697.12 489.087 689.881 486.229 685.886 481.709C689.502 476.879 696.477 473.436 704.62 473.104C712.763 472.778 719.997 475.63 723.998 480.144Z" fill="#F5CB8F"/>
<path d="M713.741 498.557C710.13 503.387 703.155 506.824 695.006 507.162C686.863 507.499 679.63 504.647 675.629 500.127C679.245 495.297 686.22 491.854 694.363 491.522C702.506 491.185 709.745 494.037 713.741 498.557Z" fill="#F5CB8F"/>
<path d="M703.637 520.265C700.021 525.095 693.046 528.538 684.903 528.87C676.759 529.207 669.526 526.35 665.525 521.836C669.136 517.005 676.116 513.562 684.26 513.231C692.397 512.893 699.636 515.746 703.637 520.265Z" fill="#F5CB8F"/>
<path d="M689.428 537.645C686.488 541.578 680.813 544.37 674.189 544.644C667.565 544.918 661.68 542.594 658.429 538.921C661.369 534.989 667.043 532.191 673.668 531.916C680.292 531.648 686.177 533.966 689.428 537.645Z" fill="#F5CB8F"/>
<path d="M679.615 552.768C677.246 556.065 672.664 558.41 667.312 558.631C661.96 558.853 657.203 556.893 654.571 553.801C656.94 550.504 661.522 548.159 666.869 547.938C672.227 547.717 676.988 549.671 679.615 552.768Z" fill="#F5CB8F"/>
<path d="M676.397 568.522C674.028 571.819 669.446 574.164 664.099 574.385C658.747 574.601 653.991 572.647 651.359 569.555C653.733 566.258 658.31 563.913 663.662 563.692C669.003 563.471 673.765 565.431 676.397 568.522Z" fill="#F5CB8F"/>
<path d="M671.92 583.397C670.209 586.596 666.311 589.348 661.391 590.414C656.476 591.481 651.789 590.59 648.903 588.386C650.62 585.187 654.512 582.435 659.432 581.369C664.353 580.302 669.039 581.187 671.92 583.397Z" fill="#F5CB8F"/>
<path d="M668.908 601.092C666.333 603.05 662.192 603.822 657.872 602.833C653.548 601.845 650.152 599.355 648.687 596.468C651.262 594.504 655.409 593.733 659.728 594.727C664.042 595.715 667.443 598.205 668.908 601.092Z" fill="#F5CB8F"/>
<path d="M662.641 613.413C660.43 614.523 657.206 614.512 654.099 613.152C650.992 611.798 648.792 609.437 648.105 607.061C650.316 605.952 653.541 605.963 656.647 607.322C659.754 608.682 661.954 611.038 662.641 613.413Z" fill="#F5CB8F"/>
<path d="M657.144 618.158C655.728 618.978 653.71 619.073 651.809 618.242C649.913 617.411 648.611 615.874 648.252 614.272C649.668 613.446 651.68 613.357 653.581 614.188C655.482 615.019 656.785 616.556 657.144 618.158Z" fill="#F5CB8F"/>
<path d="M656.746 623.191C655.33 624.016 653.318 624.106 651.417 623.275C649.516 622.444 648.213 620.907 647.854 619.305C649.27 618.48 651.288 618.39 653.184 619.221C655.085 620.052 656.387 621.589 656.746 623.191Z" fill="#F5CB8F"/>
<path d="M614.138 609.22C605.638 596.726 596.687 584.521 587.133 572.798L587.287 572.667C597.088 584.204 606.291 596.233 615.06 608.58C623.802 620.943 632.055 633.678 639.474 646.916C641.261 650.127 643.005 653.37 644.683 656.647C644.025 657.013 643.36 657.385 642.707 657.762C641.09 654.447 639.406 651.155 637.679 647.895C630.578 634.591 622.616 621.731 614.138 609.22Z" fill="#F5CB8F"/>
<path d="M577.799 556.87C580.94 557.166 584.194 559.261 586.245 562.686C588.295 566.105 588.607 569.971 587.379 572.875C584.238 572.585 580.984 570.485 578.934 567.066C576.889 563.635 576.577 559.774 577.799 556.87Z" fill="#F5CB8F"/>
<path d="M601.108 564.196C602.381 566.693 602.441 570.444 600.998 574.159C599.555 577.875 596.979 580.607 594.356 581.584C593.077 579.092 593.023 575.342 594.466 571.626C595.909 567.9 598.48 565.174 601.108 564.196Z" fill="#F5CB8F"/>
<path d="M601.852 591.653C599.716 593.47 596.079 594.39 592.126 593.835C588.179 593.286 584.93 591.405 583.372 589.072C585.508 587.255 589.145 586.34 593.092 586.889C597.044 587.444 600.293 589.32 601.852 591.653Z" fill="#F5CB8F"/>
<path d="M611.251 603.836C609.115 605.653 605.478 606.573 601.531 606.018C597.579 605.469 594.336 603.588 592.777 601.261C594.913 599.444 598.55 598.523 602.497 599.078C606.45 599.628 609.698 601.503 611.251 603.836Z" fill="#F5CB8F"/>
<path d="M617.64 613.536C615.504 615.353 611.867 616.273 607.92 615.724C603.967 615.169 600.724 613.294 599.165 610.961C601.301 609.144 604.938 608.223 608.891 608.772C612.838 609.327 616.081 611.208 617.64 613.536Z" fill="#F5CB8F"/>
<path d="M624.718 624.245C622.582 626.057 618.945 626.977 614.997 626.428C611.045 625.873 607.802 623.998 606.243 621.665C608.379 619.848 612.016 618.933 615.969 619.482C619.916 620.037 623.164 621.918 624.718 624.245Z" fill="#F5CB8F"/>
<path d="M609.292 574.644C610.571 577.141 610.631 580.892 609.188 584.607C607.745 588.328 605.169 591.054 602.54 592.032C601.262 589.535 601.202 585.784 602.65 582.069C604.093 578.353 606.664 575.627 609.292 574.644Z" fill="#F5CB8F"/>
<path d="M617.117 585.405C618.39 587.902 618.455 591.653 617.007 595.368C615.564 599.089 612.988 601.816 610.365 602.798C609.086 600.301 609.027 596.55 610.469 592.835C611.918 589.114 614.489 586.383 617.117 585.405Z" fill="#F5CB8F"/>
<path d="M624.561 596.247C625.84 598.744 625.9 602.495 624.451 606.21C623.009 609.926 620.432 612.652 617.81 613.635C616.531 611.138 616.471 607.387 617.914 603.672C619.357 599.956 621.933 597.23 624.561 596.247Z" fill="#F5CB8F"/>
<path d="M631.776 606.87C633.055 609.367 633.114 613.112 631.671 616.833C630.229 620.548 627.652 623.274 625.024 624.257C623.745 621.76 623.691 618.009 625.134 614.294C626.571 610.579 629.148 607.852 631.776 606.87Z" fill="#F5CB8F"/>
<path d="M608.464 637.795L665.008 637.889C674.387 642.703 680.341 649.852 680.328 657.825C680.314 666.341 673.513 673.896 662.993 678.655L610.354 678.567C599.85 673.773 593.074 666.201 593.088 657.68C593.091 649.707 599.068 642.577 608.464 637.795Z" fill="url(#paint3_linear)"/>
<path d="M613.776 642.273C608.206 641.611 600.73 645.804 598.786 654.246C596.132 670.916 612.815 675.84 621.935 671.622C613.999 669.619 605.325 665.963 605.081 657.749C604.649 653.455 607.206 649.319 607.25 649.193C607.607 648.689 608.317 647.435 609.651 645.989C610.822 644.593 612.255 643.411 613.776 642.273Z" fill="#F5CB8F"/>
<path d="M605.819 639.27L668.28 639.374L668.286 635.453L605.826 635.349L605.819 639.27Z" fill="#1179C5"/>
<path d="M680.055 140.603C678.159 138.406 673.925 137.461 670.585 137.833C666.927 128.787 651.156 124.958 640.101 130.764C636.517 125.936 630.614 127.015 628.042 132.918C625.331 125.451 616.786 120 606.659 120C594.824 120 585.146 127.441 584.392 136.848C569.251 137.488 560.873 138.988 559 140.603H680.055Z" fill="url(#paint4_linear)"/>
<path d="M471 73C469.716 71.5067 466.847 70.8647 464.585 71.1174C462.107 64.9711 451.424 62.3691 443.936 66.3141C441.508 63.0338 437.51 63.7668 435.767 67.7779C433.931 62.7037 428.143 59 421.283 59C413.266 59 406.711 64.0559 406.2 70.4481C395.944 70.8829 390.268 71.9028 389 73H471Z" fill="url(#paint5_linear)"/>
<path d="M72 155.05H277.148C276.478 153.771 268.532 152.504 253.33 151.462C251.99 147.07 248.021 143.422 242.694 141.489C246.868 119.553 213.62 105.767 193.22 120.785C192.213 115.865 189.477 111.469 185.507 108.395C181.536 105.32 176.596 103.771 171.581 104.028C166.566 104.284 161.809 106.331 158.174 109.795C154.539 113.26 152.266 117.912 151.768 122.909C141.259 121.318 131.293 125.204 125.843 131.955C125.238 130.655 124.154 129.64 122.818 129.121C121.481 128.603 119.996 128.622 118.673 129.174C117.35 129.726 116.292 130.768 115.72 132.083C115.149 133.397 115.107 134.882 115.606 136.226C105.301 136.993 97.342 142.042 97.342 148.159C97.3521 149.252 97.6049 150.329 98.0823 151.312C79.9996 152.481 72.2546 153.784 72 155.05Z" fill="url(#paint6_linear)"/>
<defs>
<linearGradient id="paint0_linear" x1="20.3364" y1="133.961" x2="999.488" y2="789.161" gradientUnits="userSpaceOnUse">
<stop stop-color="#FFE0DE"/>
<stop offset="0.5" stop-color="#FFFBF5"/>
<stop offset="0.61" stop-color="#FFEFEA"/>
<stop offset="0.84" stop-color="#FFDCD8"/>
<stop offset="1" stop-color="#FFD5D1"/>
</linearGradient>
<linearGradient id="paint1_linear" x1="418.299" y1="603.609" x2="433.426" y2="779.433" gradientUnits="userSpaceOnUse">
<stop stop-color="#5D52EE"/>
<stop offset="0.03" stop-color="#6456E9"/>
<stop offset="0.57" stop-color="#E49C93"/>
<stop offset="0.78" stop-color="#F7D3CE"/>
<stop offset="0.95" stop-color="#FFFDFC"/>
<stop offset="1" stop-color="white"/>
</linearGradient>
<linearGradient id="paint2_linear" x1="436.006" y1="431.453" x2="524.208" y2="553.765" gradientUnits="userSpaceOnUse">
<stop stop-color="#5D52EE"/>
<stop offset="0.03" stop-color="#6456E9"/>
<stop offset="0.57" stop-color="#E49C93"/>
<stop offset="0.78" stop-color="#F7D3CE"/>
<stop offset="0.95" stop-color="#FFFDFC"/>
<stop offset="1" stop-color="white"/>
</linearGradient>
<linearGradient id="paint3_linear" x1="636.026" y1="600.559" x2="707.141" y2="699.156" gradientUnits="userSpaceOnUse">
<stop stop-color="#5D52EE"/>
<stop offset="0.03" stop-color="#6456E9"/>
<stop offset="0.57" stop-color="#E49C93"/>
<stop offset="0.78" stop-color="#F7D3CE"/>
<stop offset="0.95" stop-color="#FFFDFC"/>
<stop offset="1" stop-color="white"/>
</linearGradient>
<linearGradient id="paint4_linear" x1="168162" y1="-222.425" x2="168149" y2="1344.38" gradientUnits="userSpaceOnUse">
<stop stop-color="#FDE7EB"/>
<stop offset="1" stop-color="#F7F0FF"/>
</linearGradient>
<linearGradient id="paint5_linear" x1="113919" y1="-173.68" x2="113910" y2="890.974" gradientUnits="userSpaceOnUse">
<stop stop-color="#FDE7EB"/>
<stop offset="1" stop-color="#F7F0FF"/>
</linearGradient>
<linearGradient id="paint6_linear" x1="176.356" y1="108.661" x2="174.403" y2="159.513" gradientUnits="userSpaceOnUse">
<stop stop-color="#FDE7EB"/>
<stop offset="1" stop-color="#F7F0FF"/>
</linearGradient>
<clipPath id="clip0">
<rect x="94" width="730" height="833" fill="white"/>
</clipPath>
</defs>
</svg>
