<svg width="179" height="184" viewBox="0 0 179 184" fill="none" xmlns="http://www.w3.org/2000/svg">
<g clip-path="url(#clip0)">
<path d="M112.466 46.9225C76.4016 42.0873 90.3817 81.5589 95.9926 94.7851L67.1824 64.3254C73.36 59.2268 121.629 18.1937 81.0869 12.7565C43.0951 7.65789 60.6458 51.7577 65.4632 62.5192L45.4377 41.3724L45.1544 41.6358C44.5309 29.6325 40.1102 -18.7004 9.61859 7.86484C-21.0619 34.5994 30.532 42.5012 42.7362 43.9687L62.2516 64.5888C51.1998 58.9446 8.95737 39.6792 11.7912 77.3634C14.8517 117.794 58.4165 72.8481 64.2163 66.6771L93.2344 97.3438C80.9357 91.1916 40.9414 73.9016 43.6997 110.589C46.7035 150.493 89.1915 107.221 95.8793 100.147L126.22 132.187C113.921 126.035 73.9268 108.745 76.685 145.432C79.7266 185.318 122.215 142.046 128.902 134.972L175.301 184.001L178.021 181.442L131.887 132.695C141.144 124.887 183.425 87.2219 144.715 82.0293C110.199 77.3822 121.535 113.392 127.504 128.067L99.0909 98.0399C107.063 91.3798 151.988 52.228 112.466 46.9225Z" fill="url(#paint0_linear)"/>
</g>
<defs>
<linearGradient id="paint0_linear" x1="363660" y1="407660" x2="300154" y2="495492" gradientUnits="userSpaceOnUse">
<stop stop-color="#F2D09F"/>
<stop offset="0.39" stop-color="#F0B393"/>
<stop offset="0.76" stop-color="#EF9E8B"/>
<stop offset="1" stop-color="#EF9688"/>
</linearGradient>
<clipPath id="clip0">
<rect x="0.0217285" width="178" height="184" fill="white"/>
</clipPath>
</defs>
</svg>
