<svg width="224" height="238" viewBox="0 0 224 238" fill="none" xmlns="http://www.w3.org/2000/svg">
<g clip-path="url(#clip0)">
<path d="M13.0339 157.221C34.8447 216.176 94.9876 250.454 147.344 233.793C199.7 217.131 224.482 155.827 202.671 96.8725C180.86 37.9178 120.73 3.63941 68.3613 20.3011C15.9924 36.9628 -8.77685 98.2664 13.0339 157.221Z" fill="url(#paint0_linear)"/>
<path d="M14.6604 164.926L29.3631 160.241C31.297 159.622 32.2832 157.505 31.5532 155.543L23.523 133.836C22.793 131.861 20.6158 130.764 18.6819 131.37L3.97916 136.055C2.04527 136.675 1.05911 138.791 1.78912 140.753L9.81927 162.474C10.5365 164.436 12.7137 165.546 14.6604 164.926Z" fill="#F5386E"/>
<path d="M13.5462 166.036C11.497 166.036 9.65279 164.733 8.93558 162.797L0.892621 141.076C0.444367 139.863 0.495596 138.572 1.04631 137.436C1.58421 136.339 2.51914 135.526 3.6846 135.152L18.3873 130.467C18.8356 130.325 19.2967 130.248 19.7705 130.248C21.8197 130.248 23.6639 131.551 24.3811 133.487L32.4113 155.208C32.8595 156.421 32.8083 157.712 32.2576 158.847C31.7197 159.944 30.7848 160.758 29.6193 161.132L14.9166 165.817C14.4939 165.972 14.0201 166.036 13.5462 166.036ZM19.7833 132.145C19.5016 132.145 19.2198 132.184 18.9637 132.274L4.24812 136.946C3.58215 137.165 3.03143 137.63 2.73687 138.262C2.41669 138.933 2.37826 139.695 2.64722 140.418L10.6774 162.138C11.1128 163.326 12.2911 164.152 13.5462 164.152C13.828 164.152 14.1097 164.113 14.3659 164.023L29.0686 159.338C29.7346 159.118 30.2853 158.654 30.5799 158.021C30.9 157.35 30.9385 156.589 30.6695 155.866L22.6394 134.145C22.2039 132.971 21.0256 132.145 19.7833 132.145Z" fill="#F5386E"/>
<path d="M64.788 11.7316L71.2045 29.0515C71.9345 31.0261 74.1117 32.1231 76.0456 31.5166L94.6546 25.5927C96.5885 24.9732 97.5746 22.8566 96.8446 20.8949L90.441 3.57502C89.711 1.6004 87.5337 0.503387 85.5998 1.10997L66.9909 7.03383C65.0442 7.65332 64.058 9.76991 64.788 11.7316Z" fill="url(#paint1_linear)"/>
<path d="M74.9442 32.6264C72.895 32.6264 71.0508 31.3229 70.3336 29.387L63.9172 12.0671C63.4689 10.854 63.5201 9.56337 64.0708 8.42764C64.6088 7.33062 65.5437 6.51754 66.7091 6.14327L85.3181 0.219402C85.7663 0.0774362 86.2274 0 86.7013 0C88.7504 0 90.5947 1.30351 91.3119 3.23941L97.7283 20.5593C98.1766 21.7725 98.1253 23.0631 97.5746 24.1988C97.0367 25.2958 96.1018 26.1089 94.9363 26.4832L76.3274 32.407C75.8791 32.5619 75.4181 32.6264 74.9442 32.6264ZM86.7013 1.88428C86.4195 1.88428 86.1377 1.923 85.8816 2.01334L67.2727 7.93721C66.6067 8.15661 66.056 8.62123 65.7614 9.25362C65.4412 9.92474 65.4028 10.6862 65.6717 11.4089L72.0882 28.7288C72.5236 29.9162 73.7019 30.7422 74.957 30.7422C75.2388 30.7422 75.5205 30.7034 75.7767 30.6131L94.3856 24.6892C95.0516 24.4698 95.6023 24.0052 95.8969 23.3728C96.2171 22.7017 96.2555 21.9402 95.9865 21.2175L89.5701 3.89762C89.1346 2.71027 87.9564 1.88428 86.7013 1.88428Z" fill="url(#paint2_linear)"/>
<path d="M25.4569 153.259C47.2677 212.214 107.411 246.492 159.767 229.831C212.123 213.169 236.905 151.865 215.094 92.9106C193.283 33.9558 133.153 -0.309655 80.7843 16.352C28.4154 33.0137 3.64618 94.3173 25.4569 153.259Z" fill="url(#paint3_linear)"/>
<path d="M32.1552 151.13C52.4291 205.916 108.32 237.781 156.988 222.293C205.655 206.806 228.683 149.839 208.409 95.0401C188.135 40.2411 132.244 8.40195 83.5763 23.8892C34.9087 39.3764 11.8813 96.3436 32.1552 151.13Z" fill="url(#paint4_linear)"/>
<path d="M131.591 227.159C111.163 227.159 90.044 219.815 72.1138 206.471C53.6201 192.7 39.5065 173.689 31.2843 151.465C20.6414 122.711 21.5251 91.8006 33.692 66.6726C43.9891 45.4035 61.6119 29.8904 83.2946 22.9857C91.5424 20.3658 100.187 19.0236 108.973 19.0236C129.401 19.0236 150.52 26.3671 168.45 39.7119C186.944 53.4826 201.057 72.4932 209.28 94.7174C219.922 123.472 219.039 154.382 206.872 179.51C196.575 200.779 178.952 216.292 157.269 223.197C149.021 225.83 140.377 227.159 131.591 227.159ZM108.973 20.9078C100.379 20.9078 91.9267 22.2113 83.8581 24.7796C62.6621 31.5295 45.4491 46.6941 35.3698 67.4986C23.4206 92.1749 22.5625 122.53 33.0261 150.807C49.2529 194.649 89.775 225.275 131.591 225.275C140.184 225.275 148.637 223.971 156.706 221.403C177.902 214.666 195.115 199.488 205.194 178.684C217.143 154.008 218.001 123.653 207.538 95.3756C191.311 51.5338 150.776 20.9078 108.973 20.9078Z" fill="url(#paint5_linear)"/>
<path d="M42.7212 147.774C60.5617 195.991 109.742 224.036 152.582 210.407C195.422 196.778 215.67 146.638 197.83 98.4214C179.989 50.2045 130.809 22.1597 87.9692 35.7884C45.1289 49.4172 24.8806 99.5571 42.7212 147.774Z" fill="url(#paint6_linear)"/>
<path d="M130.233 215.453C112.085 215.453 93.3354 208.936 77.4288 197.088C61.0355 184.879 48.51 168.023 41.2227 148.329C31.7838 122.827 32.565 95.4013 43.3743 73.0868C52.5315 54.1795 68.1948 40.3829 87.4825 34.2397C94.8211 31.9037 102.505 30.7163 110.318 30.7163C128.466 30.7163 147.216 37.2338 163.122 49.0816C179.515 61.2907 192.041 78.1459 199.328 97.8405C208.767 123.343 207.986 150.768 197.177 173.07C188.02 191.977 172.356 205.774 153.068 211.917C145.73 214.279 138.046 215.453 130.233 215.453ZM110.331 33.9557C102.838 33.9557 95.4871 35.0915 88.4559 37.3242C70.0134 43.1964 55.0289 56.3993 46.256 74.5064C35.8308 96.0208 35.088 122.53 44.2196 147.206C58.3844 185.498 93.7581 212.227 130.233 212.227C137.725 212.227 145.077 211.091 152.108 208.858C170.55 202.986 185.535 189.783 194.308 171.676C204.733 150.162 205.476 123.653 196.344 98.9763C182.167 60.697 146.806 33.9557 110.331 33.9557Z" fill="#F5386E"/>
<path d="M113.52 125.24C115.069 129.435 119.36 131.887 123.087 130.699C126.814 129.512 128.581 125.15 127.031 120.942C125.482 116.748 121.191 114.296 117.464 115.483C113.737 116.683 111.97 121.046 113.52 125.24Z" fill="url(#paint7_linear)"/>
<path d="M99.4445 66.7758C101.109 66.2466 102.147 65.0076 101.775 64.0139L95.0388 45.7906C94.6674 44.7968 93.0281 44.4096 91.3631 44.9388C89.6982 45.4679 88.6608 46.7069 89.0322 47.7007L95.7688 65.924C96.1402 66.9177 97.7795 67.3049 99.4445 66.7758Z" fill="#F5386E"/>
<path d="M149.201 201.244C151.083 200.65 152.3 199.359 151.941 198.353L145.205 180.129C144.833 179.136 143.015 178.813 141.132 179.407C139.249 180 138.033 181.291 138.391 182.297L145.128 200.521C145.499 201.527 147.318 201.85 149.201 201.244Z" fill="#F5386E"/>
<path d="M128.133 66.3498C128.683 66.1691 129.106 65.6787 129.183 65.0076L131.437 46.6552C131.565 45.6486 130.886 44.629 129.939 44.3838C128.991 44.1257 128.12 44.7322 127.992 45.7389L125.738 64.0913C125.61 65.098 126.289 66.1175 127.236 66.3627C127.556 66.4402 127.864 66.4402 128.133 66.3498Z" fill="#F5386E"/>
<path d="M111.496 201.811C112.047 201.631 112.469 201.14 112.546 200.469L114.8 182.117C114.928 181.11 114.25 180.091 113.302 179.845C112.354 179.587 111.483 180.194 111.355 181.201L109.101 199.553C108.973 200.56 109.652 201.579 110.6 201.824C110.92 201.902 111.227 201.902 111.496 201.811Z" fill="#F5386E"/>
<path d="M154.913 81.6047C155.182 81.5144 155.425 81.3466 155.617 81.1143L166.26 67.5372C166.836 66.8015 166.695 65.6142 165.94 64.8914C165.184 64.1687 164.095 64.1816 163.506 64.9301L152.864 78.5073C152.287 79.2429 152.428 80.4303 153.184 81.153C153.696 81.6305 154.362 81.7854 154.913 81.6047Z" fill="#F5386E"/>
<path d="M76.3402 181.755C76.6091 181.665 76.8525 181.497 77.0446 181.265L87.6874 167.688C88.2637 166.952 88.1229 165.765 87.3672 165.042C86.6116 164.319 85.523 164.332 84.9339 165.081L74.291 178.658C73.7147 179.394 73.8556 180.581 74.6112 181.304C75.1235 181.781 75.7895 181.936 76.3402 181.755Z" fill="#F5386E"/>
<path d="M173.496 110.953L189.685 105.804C190.568 105.52 190.581 103.377 189.697 101.015C188.826 98.6536 187.392 96.9629 186.508 97.2468L170.32 102.396C169.436 102.68 169.423 104.823 170.307 107.184C171.191 109.546 172.612 111.237 173.496 110.953Z" fill="#F5386E"/>
<path d="M53.8762 148.51L70.0646 143.36C70.9483 143.076 71.038 141.14 70.2439 139.024C69.4627 136.907 68.1051 135.423 67.2214 135.707L51.033 140.856C50.1493 141.14 50.0597 143.076 50.8537 145.193C51.635 147.296 52.9925 148.794 53.8762 148.51Z" fill="#F5386E"/>
<path d="M193.808 144.38C194.359 144.199 194.782 143.708 194.859 143.037C194.987 142.031 194.308 141.011 193.36 140.766L175.968 136.12C175.02 135.862 174.149 136.468 174.021 137.475C173.893 138.482 174.572 139.501 175.52 139.746L192.912 144.392C193.232 144.483 193.527 144.47 193.808 144.38Z" fill="#F5386E"/>
<path d="M65.4796 110.062C66.0303 109.882 66.453 109.391 66.5298 108.72C66.6579 107.714 65.9791 106.694 65.0314 106.449L47.6391 101.803C46.6914 101.544 45.8205 102.151 45.6924 103.158C45.5643 104.164 46.2431 105.184 47.1909 105.429L64.5831 110.075C64.9033 110.166 65.2107 110.153 65.4796 110.062Z" fill="#F5386E"/>
<path d="M179.323 180.233C179.592 180.142 179.836 179.975 180.028 179.742C180.604 179.007 180.463 177.819 179.708 177.097L165.773 163.894C165.018 163.171 163.929 163.184 163.34 163.932C162.764 164.668 162.904 165.855 163.66 166.578L177.594 179.781C178.107 180.258 178.773 180.4 179.323 180.233Z" fill="#F5386E"/>
<path d="M76.5067 82.7793C76.7756 82.6889 77.019 82.5211 77.2111 82.2888C77.7874 81.5532 77.6465 80.3658 76.8909 79.6431L62.9566 66.4273C62.201 65.7046 61.1124 65.7175 60.5232 66.466C59.9469 67.2017 60.0878 68.389 60.8434 69.1118L74.7777 82.3146C75.29 82.8051 75.956 82.947 76.5067 82.7793Z" fill="#F5386E"/>
<path d="M157.935 160.693C158.204 160.603 158.448 160.448 158.64 160.203C159.229 159.467 159.088 158.28 158.332 157.557L121.575 122.168L103.453 70.1055C103.107 69.0988 102.096 68.5052 101.199 68.7633C100.315 69.0214 99.8671 70.041 100.213 71.0477L118.694 124.117L156.206 160.228C156.719 160.719 157.385 160.874 157.935 160.693Z" fill="#F5386E"/>
<path d="M13.9689 148.677C17.1066 157.118 17.0554 164.939 13.8408 166.152C10.6262 167.365 5.47764 161.519 2.33986 153.078C-0.797919 144.638 -0.74669 136.817 2.46793 135.604C5.68255 134.39 10.8311 140.237 13.9689 148.677Z" fill="url(#paint8_linear)"/>
<path opacity="0.59" d="M198.252 161.261C191.042 183.769 174.738 201.734 151.826 209.026C109.946 222.358 61.8552 194.933 44.4117 147.787C36.7017 126.944 36.2663 105.726 41.8118 87.3997L198.252 161.261Z" fill="url(#paint9_linear)"/>
</g>
<defs>
<linearGradient id="paint0_linear" x1="202.836" y1="96.8267" x2="12.6096" y2="156.431" gradientUnits="userSpaceOnUse">
<stop stop-color="#FA877B"/>
<stop offset="0.1049" stop-color="#F97C79"/>
<stop offset="0.4902" stop-color="#F75773"/>
<stop offset="0.8023" stop-color="#F6406F"/>
<stop offset="1" stop-color="#F5386E"/>
</linearGradient>
<linearGradient id="paint1_linear" x1="86.0151" y1="28.3472" x2="78.1078" y2="3.49596" gradientUnits="userSpaceOnUse">
<stop stop-color="#FA877B"/>
<stop offset="0.1049" stop-color="#F97C79"/>
<stop offset="0.4902" stop-color="#F75773"/>
<stop offset="0.8023" stop-color="#F6406F"/>
<stop offset="1" stop-color="#F5386E"/>
</linearGradient>
<linearGradient id="paint2_linear" x1="95.0196" y1="11.7984" x2="67.7969" y2="23.5476" gradientUnits="userSpaceOnUse">
<stop stop-color="#FA877B"/>
<stop offset="0.1049" stop-color="#F97C79"/>
<stop offset="0.4902" stop-color="#F75773"/>
<stop offset="0.8023" stop-color="#F6406F"/>
<stop offset="1" stop-color="#F5386E"/>
</linearGradient>
<linearGradient id="paint3_linear" x1="25.46" y1="153.265" x2="211.797" y2="84.0371" gradientUnits="userSpaceOnUse">
<stop stop-color="#EE7872"/>
<stop offset="1" stop-color="#F2B7C1"/>
</linearGradient>
<linearGradient id="paint4_linear" x1="208.558" y1="95.0063" x2="31.7567" y2="150.404" gradientUnits="userSpaceOnUse">
<stop stop-color="#FA877B"/>
<stop offset="0.1049" stop-color="#F97C79"/>
<stop offset="0.4902" stop-color="#F75773"/>
<stop offset="0.8023" stop-color="#F6406F"/>
<stop offset="1" stop-color="#F5386E"/>
</linearGradient>
<linearGradient id="paint5_linear" x1="157.451" y1="223.146" x2="92.7997" y2="19.9603" gradientUnits="userSpaceOnUse">
<stop stop-color="#FA877B"/>
<stop offset="0.1049" stop-color="#F97C79"/>
<stop offset="0.4902" stop-color="#F75773"/>
<stop offset="0.8023" stop-color="#F6406F"/>
<stop offset="1" stop-color="#F5386E"/>
</linearGradient>
<linearGradient id="paint6_linear" x1="123.589" y1="213.805" x2="124.735" y2="32.4344" gradientUnits="userSpaceOnUse">
<stop stop-color="white"/>
<stop offset="0.3858" stop-color="#FCFDFE"/>
<stop offset="0.6453" stop-color="#F3F6FB"/>
<stop offset="0.8668" stop-color="#E4EBF7"/>
<stop offset="1" stop-color="#D7E1F3"/>
</linearGradient>
<linearGradient id="paint7_linear" x1="127.035" y1="120.946" x2="113.759" y2="125.878" gradientUnits="userSpaceOnUse">
<stop stop-color="#EE7872"/>
<stop offset="1" stop-color="#F2B7C1"/>
</linearGradient>
<linearGradient id="paint8_linear" x1="13.9716" y1="148.678" x2="2.31854" y2="153.017" gradientUnits="userSpaceOnUse">
<stop stop-color="#FA877B"/>
<stop offset="0.1049" stop-color="#F97C79"/>
<stop offset="0.4902" stop-color="#F75773"/>
<stop offset="0.8023" stop-color="#F6406F"/>
<stop offset="1" stop-color="#F5386E"/>
</linearGradient>
<linearGradient id="paint9_linear" x1="120.889" y1="212.786" x2="116.147" y2="84.6486" gradientUnits="userSpaceOnUse">
<stop stop-color="white"/>
<stop offset="0.1127" stop-color="#F5F7FC"/>
<stop offset="0.3686" stop-color="#E4EBF7"/>
<stop offset="0.6495" stop-color="#DAE3F4"/>
<stop offset="1" stop-color="#D7E1F3"/>
</linearGradient>
<clipPath id="clip0">
<rect x="0.0217285" width="223" height="238" fill="white"/>
</clipPath>
</defs>
</svg>
