<svg width="403" height="246" viewBox="0 0 403 246" fill="none" xmlns="http://www.w3.org/2000/svg">
<path d="M65.8575 54.1442C74.7772 54.0347 83.3138 55.6503 91.139 58.6625C96.6659 60.7984 108.869 56.8826 110.757 52.1178C122.631 21.9959 152.291 0.47234 187.258 0.00681918C215.659 -0.349168 240.885 13.2605 256.153 34.3185C259.162 38.4808 275.059 43.3277 280.914 41.9311C287.973 40.2333 295.334 39.3023 302.94 39.1928C356.978 38.4808 401.33 80.7884 402.014 133.694C402.698 186.571 359.44 230.002 305.402 230.714C283.678 230.988 263.54 224.333 247.151 212.832C244.415 210.915 228.983 221.869 222.006 227.784C208.873 238.901 191.827 245.747 173.112 245.994C138.255 246.432 108.595 223.923 99.101 192.787C97.6509 187.995 82.7392 183.148 75.3244 184.107C72.7798 184.435 70.1532 184.627 67.5265 184.654C30.7261 185.093 0.492296 156.285 0.0271601 120.248C-0.437976 84.2114 29.0297 54.6097 65.8575 54.1442Z" fill="url(#paint0_linear)"/>
<defs>
<linearGradient id="paint0_linear" x1="204.514" y1="22.4619" x2="181.539" y2="265.694" gradientUnits="userSpaceOnUse">
<stop stop-color="#FDE7EB"/>
<stop offset="1" stop-color="#F7F0FF"/>
</linearGradient>
</defs>
</svg>
