<svg width="205" height="635" viewBox="0 0 205 635" fill="none" xmlns="http://www.w3.org/2000/svg">
<g filter="url(#filter0_d)">
<g clip-path="url(#clip0)">
<path d="M209.676 0V627C209.221 624.981 208.495 621.921 207.516 618.281C191.292 558.193 155.181 535.095 138.974 523.744C87.9562 488.041 40.129 454.601 18.2835 387.446C1.72211 336.538 -0.0674 265.895 14.8058 214.803C31.5022 157.591 67.1405 131.464 98.0686 108.885C119.863 92.9455 130.449 91.9665 155.333 69.5103C172.441 54.088 188.627 35.5109 203.633 14.0734C205.647 9.36186 207.662 4.67073 209.676 0Z" fill="url(#paint0_linear)"/>
</g>
</g>
<defs>
<filter id="filter0_d" x="-2.60217" y="0" width="213" height="635" filterUnits="userSpaceOnUse" color-interpolation-filters="sRGB">
<feFlood flood-opacity="0" result="BackgroundImageFix"/>
<feColorMatrix in="SourceAlpha" type="matrix" values="0 0 0 0 0 0 0 0 0 0 0 0 0 0 0 0 0 0 127 0"/>
<feOffset dy="4"/>
<feGaussianBlur stdDeviation="2"/>
<feColorMatrix type="matrix" values="0 0 0 0 0 0 0 0 0 0 0 0 0 0 0 0 0 0 0.25 0"/>
<feBlend mode="normal" in2="BackgroundImageFix" result="effect1_dropShadow"/>
<feBlend mode="normal" in="SourceGraphic" in2="effect1_dropShadow" result="shape"/>
</filter>
<linearGradient id="paint0_linear" x1="107.175" y1="0" x2="107.175" y2="627" gradientUnits="userSpaceOnUse">
<stop stop-color="#F47388"/>
<stop offset="1" stop-color="#F29E8B"/>
</linearGradient>
<clipPath id="clip0">
<rect x="1.39783" width="205" height="627" fill="white"/>
</clipPath>
</defs>
</svg>
