<svg width="298" height="431" viewBox="0 0 298 431" fill="none" xmlns="http://www.w3.org/2000/svg">
<g opacity="0.35">
<path opacity="0.35" d="M297.647 81.9738H233.695L222.393 127.029H198.108C197.859 127.03 197.61 127.056 197.367 127.109C194.313 127.774 194.935 131.222 198.108 131.222H283.42C283.671 131.223 283.92 131.197 284.165 131.145C285.921 130.762 286.455 129.463 285.995 128.424L297.647 81.9738Z" fill="#3B3C8F"/>
<path style="mix-blend-mode:multiply" opacity="0.5" d="M224.648 220.327C226.495 226.416 223.73 239.447 222.101 244.803C218.76 255.793 213.49 270.472 207.908 286.013C198.106 313.303 186.994 344.261 182.272 366.311L182.222 366.542H181.922C181.371 369.103 180.916 371.546 180.544 373.845C179.463 380.775 178.89 399.731 179.783 411.609C179.871 412.781 179.97 413.883 180.086 414.9C180.114 415.146 180.144 415.38 180.171 415.614C180.188 415.747 180.207 415.89 180.224 416.011C180.249 416.202 180.276 416.386 180.304 416.563C180.331 416.739 180.353 416.893 180.378 417.053C180.403 417.213 180.428 417.354 180.453 417.497C180.486 417.687 180.519 417.867 180.552 418.048C180.574 418.156 180.596 418.269 180.615 418.376C180.67 418.633 180.726 418.878 180.783 419.107C180.783 419.126 180.783 419.148 180.783 419.168C182.104 424.405 189.218 427.683 184.607 430.56C184.063 430.884 183.433 431.035 182.801 430.993C182.446 430.979 182.093 430.928 181.748 430.842C181.364 430.75 180.987 430.629 180.621 430.48C180.331 430.367 180.036 430.23 179.739 430.081C179.176 429.801 178.63 429.488 178.104 429.144C177.349 428.651 176.622 428.117 175.926 427.545L175.736 427.39C174.951 426.737 174.181 426.029 173.459 425.301C172.415 424.241 171.449 423.106 170.57 421.905C170.435 421.723 170.295 421.541 170.184 421.354C169.641 420.592 169.19 419.768 168.839 418.9C168.037 416.731 168.103 413.404 168.316 409.911C168.316 409.853 168.316 409.798 168.316 409.74C168.44 407.758 168.608 405.727 168.69 403.833C168.713 403.351 168.726 402.879 168.735 402.416C168.765 400.572 168.671 398.915 168.318 397.631C168.253 397.395 168.168 397.166 168.065 396.944C167.513 395.756 166.427 394.463 165.206 393.116C164.062 391.864 162.811 390.585 161.78 389.336C160.663 387.983 159.809 386.671 159.657 385.477V385.458C159.643 385.301 159.643 385.143 159.657 384.986C159.674 383.435 160.597 381.555 161.799 379.631C162.767 377.938 163.883 376.251 164.768 374.972L164.842 375.132C165.413 374.305 165.92 373.505 166.314 372.786C165.235 370.863 164.643 368.705 164.591 366.501L164.567 365.644C164.316 356.98 163.971 345.116 160.567 338.836C159.507 336.97 158.352 335.159 157.105 333.412C153.893 328.742 150.858 324.315 152.388 319.769C153.521 316.39 155.556 315.045 157.524 313.744C158.412 313.19 159.251 312.562 160.032 311.866L160.44 311.481L160.639 311.864C161.355 311.129 161.944 310.28 162.383 309.353C162.739 308.608 163.21 306.227 163.748 302.64H163.321L163.392 302.158C164.616 293.99 166.256 279.811 167.996 264.796C168.897 256.992 169.834 248.882 170.772 241.123C168.365 241.856 165.815 242.655 163.128 243.482C144.383 249.304 118.679 257.265 94.942 257.265C92.7036 257.265 90.4929 257.193 88.3676 257.053C67.1781 255.652 56.7556 237.597 56.5792 201.941C56.5792 201.927 56.5792 201.922 56.5792 201.911C56.5792 201.539 56.5792 201.164 56.5792 200.792C56.5792 199.251 56.5957 197.688 56.6343 196.078V195.802H56.6564C56.7666 191.781 56.9734 187.75 57.2407 183.795C53.3402 183.436 7.39145 178.626 8.85516 150.016C10.385 120.141 31.6132 112.207 31.6132 112.207C31.6132 112.207 24.4848 96.3325 36.0237 74.0597C47.5625 51.7868 70.508 44.6887 70.508 44.6887C70.508 44.6887 57.26 13.7989 92.9242 2.65974C128.588 -8.47944 123.028 24.3703 123.023 24.3923C123.023 30.6138 120.266 38.8972 116.407 43.644C116.683 53.5317 118.337 67.5129 125.537 68.4887C136.745 70.0076 150.5 77.6046 152.03 91.277C152.499 95.4642 155.889 101.457 160.236 108.34L160.512 108.219C162.204 107.497 166.609 107.761 171.025 110.209L193.772 126.241C194.679 127.137 193.532 127.782 192.438 127.126L179.237 121.367C177.974 120.612 177.068 121.161 175.317 121.45C173.344 121.922 171.345 122.279 169.33 122.52C177.092 134.908 184.102 148.073 182.079 158.123C181.777 159.611 181.387 161.079 180.91 162.52L181.908 162.123C186.175 160.411 194.114 157.227 201.755 157.227C207.671 157.227 212.354 159.14 215.676 162.911C220.362 168.245 217.054 186.488 211.728 205.638C217.467 209.77 223.298 215.856 224.648 220.327ZM107.87 48.1206C107.418 54.0444 107.429 58.7691 107.382 62.6696C107.382 62.1597 107.396 61.5918 107.407 60.9771C107.418 60.3624 107.429 59.6926 107.446 58.9897C107.515 55.8279 107.641 51.9026 107.87 48.1206Z" fill="url(#paint0_linear)"/>
</g>
<path d="M277.935 128.714H213.98L225.704 81.9738H289.658L277.935 128.714Z" fill="#F5CB8F"/>
<path d="M275.435 131.222H190.12C186.944 131.222 186.321 127.774 189.376 127.109C189.62 127.056 189.87 127.03 190.12 127.029H275.435C278.608 127.029 279.231 130.481 276.176 131.145C275.933 131.197 275.684 131.223 275.435 131.222Z" fill="#E97E80"/>
<path d="M108.364 40.3829C106.085 42.5074 103.225 43.9055 100.149 44.3992C99.5978 50.8192 99.4434 58.5568 99.3938 62.6861C99.9699 68.6237 103.36 81.5905 119.07 108.996C141.996 149.002 114.483 145.964 105.315 160.648C98.0789 172.226 97.1886 192.963 105.144 202.437L150.657 189.515C150.657 189.515 170.016 178.373 174.088 158.118C178.159 137.862 145.558 104.949 144.042 91.277C142.525 77.6045 128.756 70.0075 117.548 68.4886C109.508 67.3998 108.366 50.0997 108.364 40.3829Z" fill="#14426D"/>
<g style="mix-blend-mode:multiply" opacity="0.82">
<path d="M125.722 93.9483C116.391 85.0777 102.335 59.293 100.361 44.3553C100.287 44.3553 100.215 44.3884 100.141 44.3995C99.5895 50.8194 99.4351 58.557 99.3855 62.6863C99.9616 68.6239 103.352 81.5907 119.062 108.996C141.988 149.002 114.478 145.964 105.307 160.648C98.0706 172.226 97.1803 192.963 105.136 202.437L111.528 194.995C119.106 179.933 138.335 171.289 138.719 163.267C139.32 150.943 139.32 106.876 125.722 93.9483Z" fill="#5B86C4"/>
</g>
<path d="M213.832 244.709C215.61 238.862 218.151 226.24 216.379 220.404C214.375 213.789 202.596 203.785 196 201.66C176.318 195.35 129.768 209.761 113.466 207.228C97.1638 204.695 96.1438 175.327 105.315 160.643C114.486 145.958 141.996 148.996 119.07 108.991C103.358 81.5822 99.9699 68.6154 99.3938 62.6806C99.4434 58.5458 99.4214 53.5206 99.9589 47.1006C102.211 47.5141 103.677 47.4866 105.472 46.3536C110.839 42.9548 115.043 32.0885 115.043 24.3867C115.043 13.242 107.399 4.20886 97.9714 4.20886C88.5441 4.20886 80.9029 13.242 80.9029 24.3867C80.8967 26.981 81.3244 29.5581 82.1682 32.0113C81.2227 36.7857 79.3179 46.5852 77.9948 54.3531C75.274 61.9033 56.0389 116.375 51.8242 158.619C48.3564 193.393 40.798 254.147 80.4067 256.766C128.473 259.941 186.324 225.967 186.324 240.147C186.324 254.326 159.834 286.732 159.834 325.219C159.834 363.706 163.266 361.029 158.814 371.805C157.342 375.366 151.2 381.657 151.68 385.474C152.146 389.171 159.351 394.039 160.341 397.628C161.755 402.758 159.004 413.892 160.851 418.897C162.549 423.482 172.481 433.14 176.646 430.544C181.258 427.666 174.146 424.402 172.825 419.151C170.661 410.553 171.204 382.585 172.569 373.828C177.784 340.366 203.971 277.134 213.832 244.709Z" fill="#FBCD9D"/>
<path d="M216.379 220.404C214.375 213.789 202.596 203.785 196 201.66C176.318 195.35 129.768 209.761 113.466 207.228C107.628 206.324 103.749 201.974 101.596 196.089H48.9464C48.2269 225.57 53.1308 254.96 80.4067 256.763C128.473 259.939 186.324 225.964 186.324 240.144C186.324 254.324 159.834 286.73 159.834 325.216C159.834 355.538 161.962 360.307 160.691 366.234H173.989C181.431 331.501 204.674 274.813 213.832 244.701C215.61 238.862 218.151 226.254 216.379 220.404Z" fill="#3A389A"/>
<path d="M160.239 366.603H174.297L174.358 366.328C179.085 344.275 190.194 313.339 199.994 286.035C205.565 270.496 210.835 255.804 214.176 244.816C215.808 239.452 218.587 226.406 216.723 220.283C214.719 213.668 202.91 203.488 196.11 201.31C192.689 200.207 188.361 199.678 182.878 199.678C172.004 199.678 158.852 201.781 146.134 203.813C135.358 205.536 125.184 207.162 118.064 207.162C116.542 207.178 115.022 207.079 113.516 206.864C106.861 205.831 103.542 200.362 101.938 195.957L101.85 195.72H48.588V196.073C47.6204 235.67 58.0209 255.636 80.3874 257.116C82.51 257.257 84.7235 257.326 86.9645 257.326C110.709 257.326 136.403 249.351 155.164 243.543C166.877 239.907 176.128 237.035 181.417 237.035C185.486 237.035 185.957 238.813 185.957 240.15C185.957 245.423 182.228 253.271 177.509 263.208C169.895 279.237 159.464 301.191 159.464 325.23C159.464 341.08 160.04 349.854 160.421 355.663C160.757 360.806 160.928 363.381 160.333 366.17L160.239 366.603ZM173.696 365.873H161.127C161.639 363.158 161.468 360.547 161.143 355.599C160.763 349.81 160.189 341.042 160.189 325.217C160.189 301.35 170.579 279.48 178.162 263.514C182.922 253.494 186.682 245.583 186.682 240.144C186.682 237.561 184.96 236.304 181.417 236.304C176.017 236.304 166.72 239.19 154.955 242.846C136.238 248.654 110.605 256.612 86.97 256.612C84.7455 256.612 82.5596 256.54 80.4398 256.402C58.6053 254.958 48.4198 235.348 49.3074 196.45H101.345C103.766 202.887 107.934 206.735 113.411 207.587C114.954 207.808 116.511 207.91 118.069 207.893C125.236 207.893 135.449 206.264 146.252 204.535C158.932 202.506 172.067 200.4 182.884 200.4C188.287 200.4 192.532 200.921 195.889 201.996C202.541 204.127 214.082 214.053 216.031 220.493C217.834 226.439 215.094 239.295 213.484 244.588C210.149 255.561 204.881 270.224 199.302 285.762C189.535 312.983 178.468 343.804 173.696 365.873Z" fill="#3A389A"/>
<path d="M174.278 366.303C179.008 344.25 190.117 313.305 199.914 286.005C205.493 270.463 210.764 255.785 214.104 244.794C215.734 239.438 218.498 226.408 216.651 220.319C214.653 213.72 202.869 203.562 196.082 201.387C192.667 200.284 188.347 199.761 182.876 199.761C172.007 199.761 158.855 201.861 146.139 203.896C135.364 205.618 125.189 207.245 118.061 207.245C116.539 207.26 115.017 207.161 113.51 206.947C106.823 205.908 103.493 200.42 101.875 195.998L101.806 195.802H48.6541V196.078C47.6866 235.632 58.0677 255.578 80.3902 257.053C82.5155 257.193 84.7262 257.265 86.9645 257.265C110.693 257.265 136.389 249.301 155.134 243.482C166.852 239.844 176.108 236.971 181.409 236.971C184.552 236.971 186.015 237.983 186.015 240.155C186.015 245.445 182.283 253.298 177.561 263.244C169.947 279.268 159.525 301.213 159.525 325.227C159.525 341.075 160.098 349.849 160.479 355.654C160.818 360.806 160.986 363.392 160.388 366.181L160.313 366.537H174.228L174.278 366.303Z" fill="#124C80"/>
<g style="mix-blend-mode:multiply" opacity="0.7">
<path d="M211.224 212.592C206.673 207.689 200.261 203.033 195.999 201.668C186.15 198.509 169.573 200.541 153.425 203.047C153.775 210.095 154.508 224.967 155.387 243.102C173.716 237.418 186.319 233.534 186.319 240.152C186.319 254.332 159.828 286.738 159.828 325.225C159.828 354.563 161.821 359.982 160.798 365.674C160.798 365.87 160.798 366.057 160.812 366.242H173.288C172.61 353.747 171.235 336.885 171.543 325.225C171.979 308.812 203.506 240.544 211.224 212.592Z" fill="#3A389A"/>
</g>
<g style="mix-blend-mode:multiply" opacity="0.7">
<path d="M195.999 201.668C176.318 195.359 129.768 209.77 113.466 207.236C108.259 206.429 104.615 202.878 102.36 197.947C101.376 212.512 107.01 230.695 143.496 225.512C202.337 217.16 208.451 217.16 215.328 227.034L216.817 229.17C217.093 225.771 217.046 222.607 216.379 220.404C214.375 213.8 202.604 203.788 195.999 201.668Z" fill="#3A389A"/>
</g>
<path d="M101.795 195.896C98.8397 185.476 99.8017 169.477 105.315 160.651C114.483 145.967 141.996 149.005 119.07 108.999C104.46 83.4843 100.499 70.4845 99.5564 64.0204C97.2381 63.7778 94.9254 63.4994 92.6319 63.0777C87.1189 62.0688 81.7739 60.2798 76.2801 59.2185C70.734 75.2313 55.5124 121.638 51.8186 158.636C50.5837 171.04 48.8801 186.753 48.8801 201.933C48.8801 202.597 100.516 196.31 101.795 195.896Z" fill="url(#paint1_linear)"/>
<path d="M101.886 196.177L102.161 196.089L102.084 195.813C99.3276 186.083 99.8789 169.93 105.571 160.805C108.113 156.734 112.137 154.008 116.027 151.37C126.276 144.423 135.957 137.863 119.335 108.856C105.001 83.8344 100.83 70.6416 99.8569 63.9791L99.8238 63.7531L99.595 63.7282C97.6847 63.5298 95.1846 63.2431 92.7037 62.7883C89.8396 62.2645 86.9701 61.5175 84.197 60.7925C81.6389 60.1254 78.9954 59.4336 76.3546 58.9208L76.1038 58.8712L76.0183 59.1138C69.874 76.8549 55.1899 122.065 51.5457 158.597L51.2701 161.437C50.0875 173.207 48.6155 187.853 48.6155 201.922C48.6155 202.266 49.0097 202.266 49.2964 202.266C53.7923 202.266 100.634 196.58 101.886 196.177ZM51.8297 161.497L52.1053 158.655C55.7274 122.349 70.2792 77.4338 76.4676 59.5466C79.0037 60.051 81.5507 60.7153 84.0178 61.3604C86.8019 62.0881 89.6825 62.8406 92.5631 63.3671C94.964 63.8054 97.3925 64.0893 99.2835 64.2878C100.323 71.0717 104.573 84.3251 118.8 109.145C135.152 137.681 125.691 144.095 115.677 150.885C111.732 153.556 107.658 156.32 105.05 160.497C99.3249 169.665 98.7102 185.793 101.412 195.676C97.3374 196.392 53.5663 201.677 49.2523 201.677H49.1613C49.1917 187.712 50.6609 173.19 51.8297 161.497Z" fill="url(#paint2_linear)"/>
<path d="M99.8348 47.0623C99.8348 47.0623 90.5342 46.8997 84.3375 41.0172L75.7619 59.1029C75.7619 59.1029 88.34 62.2591 91.4274 62.8986C94.2528 63.483 99.4213 64.0012 99.4213 64.0012C99.4213 64.0012 99.3827 48.3165 99.8431 47.0623H99.8348Z" fill="url(#paint3_linear)"/>
<path d="M104.124 200.825C104.124 200.825 167.69 164.518 171.384 163.52C175.119 162.506 196.689 151.031 207.387 163.181C218.085 175.332 185.525 258.175 185.525 258.175C185.525 258.175 166.281 314.408 166.281 323.538C166.281 332.667 164.128 360.71 166.422 369.825C168.715 378.941 165.176 378.646 165.176 378.646C165.176 378.646 157.278 375.104 157.025 366.496C156.771 357.887 156.515 345.226 152.951 338.655C149.386 332.083 142.751 325.996 144.797 319.91C146.842 313.824 151.845 314.673 154.392 309.361C156.939 304.049 164.922 215.173 169.338 200.657C169.338 200.654 117.515 222.056 104.124 200.825Z" fill="#FBCD9D"/>
<path d="M63.454 84.8432C44.5027 94.3009 31.8695 156.238 46.1346 167.382C59.8319 178.08 147.211 123.501 154.431 119.281C154.557 119.206 154.707 119.182 154.851 119.213C154.995 119.245 155.121 119.329 155.205 119.449C155.205 119.449 157.877 122.051 159.065 122.453C160.763 123.035 167.334 121.445 167.334 121.445C169.085 121.169 169.992 120.618 171.254 121.362L184.45 127.126C185.552 127.782 186.691 127.126 185.784 126.241L163.037 110.209C158.626 107.761 154.216 107.496 152.526 108.219L131.152 117.34L72.7132 142.276C71.7925 142.651 69.2317 141.642 70.5493 138.984C74.833 130.326 87.0169 104.624 84.3458 95.478C79.7589 79.7795 69.3144 81.9185 63.454 84.8432Z" fill="#FBCD9D"/>
<path d="M72.7931 134.34C78.003 123.336 86.6337 103.323 84.3431 95.4726C79.7589 79.7741 69.3144 81.9132 63.454 84.8379C52.2266 90.4474 43.2182 114.476 40.7043 135.44L72.7931 134.34Z" fill="url(#paint4_linear)"/>
<path d="M72.9889 134.627L73.0661 134.464C78.3724 123.253 86.9342 103.271 84.6436 95.3955C81.5121 84.7277 75.6738 82.5004 71.335 82.5004C68.1815 82.5004 65.243 83.6361 63.341 84.5926C51.7222 90.3813 42.8654 115.105 40.4286 135.415L40.3873 135.757L72.9889 134.627ZM84.0591 95.5581C86.2947 103.21 77.879 122.886 72.603 134.053L41.0378 135.134C43.5187 115.041 52.2156 90.781 63.5863 85.1053C65.4415 84.1791 68.289 83.0765 71.3267 83.0765C77.3552 83.0765 81.6389 87.2775 84.0591 95.5581Z" fill="url(#paint5_linear)"/>
<g style="mix-blend-mode:multiply" opacity="0.2">
<path d="M109.596 9.62845C106.547 6.27098 102.462 4.2146 97.9659 4.2146C88.5385 4.2146 80.8974 13.2478 80.8974 24.3925C80.8912 26.9868 81.3188 29.5638 82.1626 32.0171C81.2171 36.7914 79.3124 46.5909 77.9892 54.3588C75.2685 61.909 56.0334 116.381 51.8186 158.625C49.2082 184.812 44.2905 225.697 58.9084 245.437C58.7761 244.728 58.6328 243.99 58.4426 243.19C54.8756 227.494 57.4254 197.616 57.9326 182.425C58.4398 167.234 77.8018 88.7439 76.7846 79.1236C75.7674 69.5033 98.1809 41.144 103.275 32.5381C105.866 28.1579 108.063 18.273 109.596 9.62845Z" fill="#5B86C4"/>
</g>
<path d="M115.037 24.3924C115.037 24.3924 120.597 -8.46561 84.9358 2.65979C49.2744 13.7852 62.514 44.6888 62.514 44.6888C62.514 44.6888 39.5879 51.7786 28.038 74.0597C16.4881 96.3408 23.6275 112.207 23.6275 112.207C23.6275 112.207 2.40215 120.141 0.869514 150.016C-0.663124 179.892 49.528 183.817 49.528 183.817C49.528 183.817 68.063 117.577 67.3601 99.6321C66.3401 73.638 81.3688 55.3235 87.4828 45.7032C87.4828 45.7032 101.238 28.1468 102.258 14.4743C102.258 14.4743 107.945 23.8438 115.037 24.3924Z" fill="#14426D"/>
<g style="mix-blend-mode:multiply" opacity="0.82">
<path d="M101.908 17.1509C100.317 20.0563 93.3955 32.0362 83.7476 39.1178C72.7215 47.222 38.2344 87.564 35.5082 124.019C33.8818 145.859 40.5389 167.209 41.9805 182.783C46.504 183.577 49.5197 183.814 49.5197 183.814C49.5197 183.814 68.0546 117.574 67.3517 99.6293C66.3318 73.6352 81.3605 55.3207 87.4745 45.7004C87.4827 45.7031 99.5288 30.3299 101.908 17.1509Z" fill="#5B86C4"/>
</g>
<path d="M207.379 163.181C196.68 151.031 175.11 162.506 171.375 163.52C167.69 164.518 104.116 200.825 104.116 200.825C117.507 222.05 169.33 200.654 169.33 200.654C165.556 213.058 159.178 279.767 155.823 302.227H171.362C177.065 282.901 185.525 258.175 185.525 258.175C185.525 258.175 218.077 175.335 207.379 163.181Z" fill="#124C80"/>
<path d="M155.409 302.588H171.634L171.709 302.329C177.343 283.234 185.784 258.539 185.866 258.29C187.195 254.916 218.372 175.123 207.643 162.944C204.335 159.185 199.668 157.28 193.772 157.28C186.134 157.28 178.201 160.461 173.939 162.17C172.745 162.65 171.803 163.027 171.273 163.171C167.585 164.171 106.536 199.025 103.939 200.511L103.611 200.698L103.813 201.018C107.815 207.358 115.555 210.577 126.824 210.577C144.168 210.577 164.782 202.834 168.781 201.263C166.383 210.139 163.029 239.135 160.06 264.801C158.323 279.816 156.68 294.001 155.456 302.175L155.409 302.588ZM171.1 301.866H156.236C157.458 293.621 159.073 279.656 160.782 264.884C163.836 238.521 167.293 208.618 169.683 200.756L169.906 200.023L169.2 200.315C168.969 200.411 145.888 209.85 126.83 209.847C116.018 209.847 108.554 206.853 104.637 200.943C109.599 198.104 168.007 164.802 171.469 163.865C172.037 163.711 172.952 163.344 174.226 162.837C178.44 161.147 186.288 157.999 193.797 157.999C199.476 157.999 203.96 159.821 207.125 163.416C217.556 175.269 185.533 257.21 185.208 258.037C185.097 258.301 176.731 282.793 171.091 301.866H171.1Z" fill="#124C80"/>
<path d="M166.422 369.826C165.551 366.363 165.319 360.178 165.372 353.319C164.015 344.807 162.48 335.804 161.573 332.494C160.297 327.843 155.418 318.105 152.33 312.178C149.714 314.64 146.371 315.21 144.797 319.896C142.76 325.961 149.384 332.05 152.948 338.641C156.512 345.232 156.771 357.884 157.025 366.482C157.259 374.379 163.916 378.007 165.019 378.553L166.196 378.236C167.014 377.527 167.847 375.501 166.422 369.826Z" fill="#3B3C8F"/>
<path d="M166.389 378.633L166.463 378.569C167.875 377.34 167.999 374.363 166.83 369.724C166.074 366.714 165.727 361.349 165.791 353.256C164.026 342.186 162.745 335.162 161.981 332.381C160.677 327.631 155.611 317.562 152.708 311.982L152.449 311.486L152.041 311.872C151.259 312.568 150.42 313.196 149.532 313.749C147.564 315.05 145.53 316.396 144.397 319.775C142.867 324.334 145.902 328.748 149.113 333.417C150.36 335.165 151.516 336.975 152.576 338.842C155.98 345.122 156.325 356.986 156.578 365.649L156.603 366.507C156.84 374.578 163.494 378.283 164.818 378.942L164.964 379.013L166.389 378.633ZM161.165 332.599C161.92 335.355 163.194 342.34 164.947 353.314C164.889 361.41 165.223 366.843 166.011 369.922C167.389 375.38 166.612 377.238 165.973 377.866L165.055 378.112C163.533 377.323 157.664 373.817 157.449 366.476L157.422 365.619C157.168 356.873 156.818 344.893 153.323 338.44C152.249 336.543 151.078 334.703 149.814 332.927C146.724 328.433 143.804 324.188 145.199 320.023C146.241 316.919 148.069 315.712 150.001 314.433C150.768 313.947 151.505 313.414 152.206 312.837C155.134 318.485 159.916 328.061 161.165 332.604V332.599Z" fill="#3B3C8F"/>
<path d="M171.803 411.593L171.306 410.523C171.306 410.523 165.292 389.899 161.292 383.743C160.129 381.957 156.777 374.978 156.777 374.978C154.715 377.955 151.385 383.164 151.677 385.483C152.14 389.179 159.346 394.047 160.335 397.636C161.75 402.766 158.998 413.9 160.845 418.906C162.543 423.49 172.475 433.149 176.64 430.552C181.252 427.674 174.137 424.411 172.82 419.159C172.368 417.365 172.037 414.721 171.803 411.593Z" fill="#3B3C8F"/>
<defs>
<linearGradient id="paint0_linear" x1="225.26" y1="215.671" x2="8.82761" y2="215.671" gradientUnits="userSpaceOnUse">
<stop stop-color="#628FCA"/>
<stop offset="0.39" stop-color="#84A1D2"/>
<stop offset="0.61" stop-color="#92A8D6"/>
<stop offset="0.77" stop-color="#9AADD8"/>
<stop offset="1" stop-color="#A0B0DA"/>
</linearGradient>
<linearGradient id="paint1_linear" x1="88.4255" y1="59.2075" x2="88.4255" y2="201.972" gradientUnits="userSpaceOnUse">
<stop stop-color="white"/>
<stop offset="0.1" stop-color="#F6F8FC"/>
<stop offset="0.37" stop-color="#E5EBF7"/>
<stop offset="0.66" stop-color="#DAE3F4"/>
<stop offset="1" stop-color="#D7E1F3"/>
</linearGradient>
<linearGradient id="paint2_linear" x1="-274567" y1="67795.9" x2="-297613" y2="67795.9" gradientUnits="userSpaceOnUse">
<stop stop-color="white"/>
<stop offset="0.1" stop-color="#F6F8FC"/>
<stop offset="0.37" stop-color="#E5EBF7"/>
<stop offset="0.66" stop-color="#DAE3F4"/>
<stop offset="1" stop-color="#D7E1F3"/>
</linearGradient>
<linearGradient id="paint3_linear" x1="87.797" y1="41.0172" x2="87.797" y2="64.0013" gradientUnits="userSpaceOnUse">
<stop stop-color="#FD9C79"/>
<stop offset="0.61" stop-color="#FDB482"/>
<stop offset="0.99" stop-color="#FDBE86"/>
</linearGradient>
<linearGradient id="paint4_linear" x1="-153900" y1="15830.3" x2="-153900" y2="25889.7" gradientUnits="userSpaceOnUse">
<stop stop-color="white"/>
<stop offset="0.1" stop-color="#F6F8FC"/>
<stop offset="0.37" stop-color="#E5EBF7"/>
<stop offset="0.66" stop-color="#DAE3F4"/>
<stop offset="1" stop-color="#D7E1F3"/>
</linearGradient>
<linearGradient id="paint5_linear" x1="-152450" y1="21095.3" x2="-159679" y2="21095.3" gradientUnits="userSpaceOnUse">
<stop stop-color="white"/>
<stop offset="0.1" stop-color="#F6F8FC"/>
<stop offset="0.37" stop-color="#E5EBF7"/>
<stop offset="0.66" stop-color="#DAE3F4"/>
<stop offset="1" stop-color="#D7E1F3"/>
</linearGradient>
</defs>
</svg>
