<svg width="87" height="22" viewBox="0 0 87 22" fill="none" xmlns="http://www.w3.org/2000/svg">
<path d="M86.7398 20.7139C87.4084 15.9122 80.6108 11.9519 75.5094 11.5435C73.033 11.3455 70.5566 11.7168 68.2412 10.9123C63.2884 9.16737 61.2453 2.7196 56.3792 0.665223C52.7265 -0.86937 48.529 0.491963 45.0002 2.27407C41.4713 4.05618 37.9796 6.28382 34.0297 6.54371C30.5999 6.7541 26.8605 5.47939 23.8641 7.1625C21.623 8.40007 20.4467 10.9866 18.3913 12.5088C16.2427 13.832 13.7575 14.5067 11.2345 14.4518C8.70238 14.3954 6.18221 14.8152 3.8053 15.6894C1.52701 16.7413 -0.367433 19.1422 0.0907006 21.605L86.7398 20.7139Z" fill="#F5F5F5"/>
</svg>
