<svg width="124" height="55" viewBox="0 0 124 55" fill="none" xmlns="http://www.w3.org/2000/svg">
<rect x="0.0217285" width="123" height="55" rx="17" fill="#FFC50C"/>
<path d="M48.3949 27.931H44.7409V31.501H42.0319V27.931H38.3989V25.369H42.0319V21.799H44.7409V25.369H48.3949V27.931ZM55.706 19.3V34H52.304V22.03H49.364V19.3H55.706ZM64.5597 34.252C63.3417 34.252 62.2567 33.951 61.3047 33.349C60.3527 32.747 59.6037 31.879 59.0577 30.745C58.5257 29.597 58.2597 28.232 58.2597 26.65C58.2597 25.068 58.5257 23.71 59.0577 22.576C59.6037 21.428 60.3527 20.553 61.3047 19.951C62.2567 19.349 63.3417 19.048 64.5597 19.048C65.7777 19.048 66.8627 19.349 67.8147 19.951C68.7667 20.553 69.5087 21.428 70.0407 22.576C70.5867 23.71 70.8597 25.068 70.8597 26.65C70.8597 28.232 70.5867 29.597 70.0407 30.745C69.5087 31.879 68.7667 32.747 67.8147 33.349C66.8627 33.951 65.7777 34.252 64.5597 34.252ZM64.5597 31.375C65.4557 31.375 66.1557 30.99 66.6597 30.22C67.1777 29.45 67.4367 28.26 67.4367 26.65C67.4367 25.04 67.1777 23.85 66.6597 23.08C66.1557 22.31 65.4557 21.925 64.5597 21.925C63.6777 21.925 62.9777 22.31 62.4597 23.08C61.9557 23.85 61.7037 25.04 61.7037 26.65C61.7037 28.26 61.9557 29.45 62.4597 30.22C62.9777 30.99 63.6777 31.375 64.5597 31.375ZM78.8126 34.252C77.5946 34.252 76.5096 33.951 75.5576 33.349C74.6056 32.747 73.8566 31.879 73.3106 30.745C72.7786 29.597 72.5126 28.232 72.5126 26.65C72.5126 25.068 72.7786 23.71 73.3106 22.576C73.8566 21.428 74.6056 20.553 75.5576 19.951C76.5096 19.349 77.5946 19.048 78.8126 19.048C80.0306 19.048 81.1156 19.349 82.0676 19.951C83.0196 20.553 83.7616 21.428 84.2936 22.576C84.8396 23.71 85.1126 25.068 85.1126 26.65C85.1126 28.232 84.8396 29.597 84.2936 30.745C83.7616 31.879 83.0196 32.747 82.0676 33.349C81.1156 33.951 80.0306 34.252 78.8126 34.252ZM78.8126 31.375C79.7086 31.375 80.4086 30.99 80.9126 30.22C81.4306 29.45 81.6896 28.26 81.6896 26.65C81.6896 25.04 81.4306 23.85 80.9126 23.08C80.4086 22.31 79.7086 21.925 78.8126 21.925C77.9306 21.925 77.2306 22.31 76.7126 23.08C76.2086 23.85 75.9566 25.04 75.9566 26.65C75.9566 28.26 76.2086 29.45 76.7126 30.22C77.2306 30.99 77.9306 31.375 78.8126 31.375Z" fill="white"/>
</svg>
