<svg width="148" height="76" viewBox="0 0 148 76" fill="none" xmlns="http://www.w3.org/2000/svg">
<path d="M0.0217285 22C0.0217285 9.84974 9.87147 0 22.0217 0H125.022C137.172 0 147.022 9.84974 147.022 22V54C147.022 66.1503 137.172 76 125.022 76H22.0217C9.87147 76 0.0217285 66.1503 0.0217285 54V22Z" fill="#FE4F48"/>
<path d="M58.0365 39.931H54.3825V43.501H51.6735V39.931H48.0405V37.369H51.6735V33.799H54.3825V37.369H58.0365V39.931ZM65.1688 36.823C67.2408 36.823 68.7668 37.236 69.7468 38.062C70.7408 38.888 71.2378 39.994 71.2378 41.38C71.2378 42.276 71.0138 43.095 70.5658 43.837C70.1178 44.565 69.4318 45.153 68.5078 45.601C67.5978 46.035 66.4708 46.252 65.1268 46.252C64.0908 46.252 63.0688 46.119 62.0608 45.853C61.0668 45.573 60.2198 45.181 59.5198 44.677L60.8638 42.073C61.4238 42.493 62.0678 42.822 62.7958 43.06C63.5238 43.284 64.2728 43.396 65.0428 43.396C65.8968 43.396 66.5688 43.228 67.0588 42.892C67.5488 42.556 67.7938 42.087 67.7938 41.485C67.7938 40.855 67.5348 40.379 67.0168 40.057C66.5128 39.735 65.6308 39.574 64.3708 39.574H60.6118L61.3678 31.3H70.3348V34.03H64.2028L63.9718 36.823H65.1688ZM78.9181 46.252C77.7001 46.252 76.6151 45.951 75.6631 45.349C74.7111 44.747 73.9621 43.879 73.4161 42.745C72.8841 41.597 72.6181 40.232 72.6181 38.65C72.6181 37.068 72.8841 35.71 73.4161 34.576C73.9621 33.428 74.7111 32.553 75.6631 31.951C76.6151 31.349 77.7001 31.048 78.9181 31.048C80.1361 31.048 81.2211 31.349 82.1731 31.951C83.1251 32.553 83.8671 33.428 84.3991 34.576C84.9451 35.71 85.2181 37.068 85.2181 38.65C85.2181 40.232 84.9451 41.597 84.3991 42.745C83.8671 43.879 83.1251 44.747 82.1731 45.349C81.2211 45.951 80.1361 46.252 78.9181 46.252ZM78.9181 43.375C79.8141 43.375 80.5141 42.99 81.0181 42.22C81.5361 41.45 81.7951 40.26 81.7951 38.65C81.7951 37.04 81.5361 35.85 81.0181 35.08C80.5141 34.31 79.8141 33.925 78.9181 33.925C78.0361 33.925 77.3361 34.31 76.8181 35.08C76.3141 35.85 76.0621 37.04 76.0621 38.65C76.0621 40.26 76.3141 41.45 76.8181 42.22C77.3361 42.99 78.0361 43.375 78.9181 43.375ZM93.171 46.252C91.953 46.252 90.868 45.951 89.916 45.349C88.964 44.747 88.215 43.879 87.669 42.745C87.137 41.597 86.871 40.232 86.871 38.65C86.871 37.068 87.137 35.71 87.669 34.576C88.215 33.428 88.964 32.553 89.916 31.951C90.868 31.349 91.953 31.048 93.171 31.048C94.389 31.048 95.474 31.349 96.426 31.951C97.378 32.553 98.12 33.428 98.652 34.576C99.198 35.71 99.471 37.068 99.471 38.65C99.471 40.232 99.198 41.597 98.652 42.745C98.12 43.879 97.378 44.747 96.426 45.349C95.474 45.951 94.389 46.252 93.171 46.252ZM93.171 43.375C94.067 43.375 94.767 42.99 95.271 42.22C95.789 41.45 96.048 40.26 96.048 38.65C96.048 37.04 95.789 35.85 95.271 35.08C94.767 34.31 94.067 33.925 93.171 33.925C92.289 33.925 91.589 34.31 91.071 35.08C90.567 35.85 90.315 37.04 90.315 38.65C90.315 40.26 90.567 41.45 91.071 42.22C91.589 42.99 92.289 43.375 93.171 43.375Z" fill="white"/>
</svg>
