<svg width="142" height="70" viewBox="0 0 142 70" fill="none" xmlns="http://www.w3.org/2000/svg">
<path d="M141.847 49.7733C141.847 49.8929 141.847 50.0126 141.847 50.1322C142.805 57.7897 137.056 64.7292 129.39 65.806C90.3431 70.9509 51.4161 70.8312 12.6089 65.6864C6.14106 64.8489 1.11051 59.704 0.272078 53.2431C0.0325274 51.0894 -0.0872461 48.8161 0.152305 46.5428C1.35006 31.8262 13.6869 19.7418 28.5391 18.665C33.0905 18.306 37.5222 19.0239 41.4748 20.5793C48.302 8.25567 61.3575 0 76.3294 0C94.7748 0 110.346 12.563 114.897 29.6725C116.095 29.4333 117.293 29.4332 118.61 29.4332C130.109 29.5529 140.17 38.2872 141.847 49.7733Z" fill="url(#paint0_linear)"/>
<defs>
<linearGradient id="paint0_linear" x1="72.2193" y1="6.35557" x2="66.993" y2="75.3963" gradientUnits="userSpaceOnUse">
<stop stop-color="#FDE7EB"/>
<stop offset="1" stop-color="#F7F0FF"/>
</linearGradient>
</defs>
</svg>
