<svg width="528" height="494" viewBox="0 0 528 494" fill="none" xmlns="http://www.w3.org/2000/svg">
<path d="M377.948 482.179H207.148C193.374 482.179 182.115 470.932 182.115 457.173V137.236C182.115 123.476 193.374 112.229 207.148 112.229H377.948C391.722 112.229 402.981 123.476 402.981 137.236V457.292C402.981 471.052 391.842 482.179 377.948 482.179Z" fill="url(#paint0_linear)"/>
<path d="M273.504 201.247H220.802C216.371 201.247 212.897 197.657 212.897 193.35V154.824C212.897 150.397 216.49 146.927 220.802 146.927H273.504C277.935 146.927 281.409 150.516 281.409 154.824V193.35C281.528 197.657 277.935 201.247 273.504 201.247Z" fill="#D9DAE6"/>
<path d="M319.258 231.398H218.886C215.532 231.398 212.777 228.646 212.777 225.296V217.998C212.777 214.647 215.532 211.896 218.886 211.896H319.258C322.611 211.896 325.366 214.647 325.366 217.998V225.296C325.366 228.646 322.611 231.398 319.258 231.398Z" fill="#D9DAE6"/>
<path d="M319.258 254.969H218.886C215.532 254.969 212.777 252.217 212.777 248.867V241.568C212.777 238.218 215.532 235.466 218.886 235.466H319.258C322.611 235.466 325.366 238.218 325.366 241.568V248.867C325.366 252.217 322.611 254.969 319.258 254.969Z" fill="#D9DAE6"/>
<path d="M357.825 451.429H226.552C219.006 451.429 212.897 445.327 212.897 437.79V395.315C212.897 387.777 219.006 381.675 226.552 381.675H357.825C365.371 381.675 371.48 387.777 371.48 395.315V437.79C371.48 445.327 365.371 451.429 357.825 451.429Z" fill="#D9DAE6"/>
<path d="M345.608 324.005C345.608 322.809 345.728 321.612 345.608 320.416C345.608 320.296 345.608 320.176 345.608 320.057C345.608 318.741 345.488 317.305 345.249 315.989C345.249 315.869 345.249 315.869 345.249 315.749C345.129 315.271 345.129 314.673 345.009 314.194C344.89 313.357 344.77 312.519 344.65 311.681C344.65 311.562 344.53 311.442 344.53 311.323C344.291 310.365 344.051 309.408 343.692 308.451C343.572 307.972 343.452 307.374 343.333 306.896C343.333 306.776 343.333 306.776 343.213 306.656C342.614 304.742 341.776 302.947 340.937 301.153C340.817 301.033 340.817 300.794 340.698 300.674C340.458 300.315 340.338 299.956 340.099 299.597C339.62 298.64 339.14 297.683 338.542 296.726C338.182 296.127 337.823 295.649 337.464 295.051C336.865 294.213 336.266 293.256 335.547 292.418C335.188 291.94 334.829 291.461 334.349 290.982C333.631 290.025 332.792 289.188 332.074 288.35C331.714 287.991 331.355 287.632 330.996 287.273C329.798 286.077 328.6 285 327.283 283.923L327.163 283.804C325.606 282.607 324.049 281.53 322.372 280.454C322.132 280.334 321.893 280.095 321.773 279.975C321.533 279.855 321.174 279.616 320.815 279.496C319.976 279.018 319.258 278.659 318.419 278.18C318.06 277.941 317.701 277.821 317.341 277.582C317.102 277.462 316.742 277.343 316.503 277.223C315.904 276.984 315.305 276.744 314.586 276.386C314.227 276.266 313.748 276.027 313.389 275.907C313.029 275.787 312.55 275.668 312.191 275.548C311.592 275.309 311.113 275.189 310.514 275.069C310.155 274.95 309.795 274.83 309.556 274.71C308.957 274.591 308.358 274.471 307.759 274.352C307.28 274.232 306.801 274.112 306.442 273.993C306.322 273.993 306.082 273.873 305.963 273.873C304.765 273.634 303.447 273.514 302.25 273.394C302.25 273.394 302.13 273.394 302.01 273.394C300.812 273.275 299.615 273.155 298.417 273.155C298.057 273.155 297.698 273.155 297.339 273.155H57.0695C56.1113 273.155 55.1531 273.155 54.1949 273.275C54.0751 273.275 53.9554 273.275 53.9554 273.275C52.6378 273.394 51.3203 273.514 50.1225 273.634C50.0028 273.634 50.0028 273.634 49.883 273.634C48.5655 273.873 47.3677 274.112 46.0502 274.471C45.9304 274.471 45.6909 274.591 45.5711 274.591C45.4513 274.591 45.2117 274.71 45.092 274.71C43.4151 275.189 41.858 275.668 40.301 276.266H40.1812C40.0614 276.266 39.9416 276.386 39.7021 276.505C38.5043 276.984 37.4263 277.462 36.3484 278.061C35.989 278.18 35.6297 278.42 35.3902 278.539C34.1924 279.257 32.9947 279.975 31.7969 280.693L20.6578 288.231C21.8556 287.393 23.0533 286.675 24.2511 286.077C24.6104 285.838 24.9697 285.718 25.2093 285.598C26.2873 285 27.3652 284.522 28.563 284.043C28.8025 283.923 28.9223 283.923 29.1618 283.804C30.7189 283.205 32.276 282.727 33.9529 282.248C34.3122 282.129 34.6715 282.009 34.9111 282.009C36.1088 281.65 37.4263 281.411 38.7439 281.171C38.8636 281.171 38.9834 281.171 38.9834 281.171C40.301 280.932 41.4987 280.812 42.8162 280.812C43.8942 280.693 44.9722 280.693 46.0502 280.693H286.319C287.877 280.693 289.434 280.812 290.991 280.932H291.111C292.548 281.052 293.985 281.291 295.422 281.53C295.902 281.65 296.261 281.77 296.74 281.889C297.698 282.129 298.656 282.368 299.615 282.607C300.213 282.727 300.693 282.966 301.291 283.086C302.13 283.325 302.968 283.684 303.687 283.923C304.286 284.163 305.004 284.402 305.603 284.761C306.322 285.12 306.921 285.359 307.639 285.718C308.478 286.077 309.316 286.556 310.035 287.034C310.514 287.393 311.113 287.632 311.592 287.991C313.269 289.068 314.826 290.145 316.383 291.341C316.503 291.341 316.503 291.461 316.623 291.461C317.94 292.538 319.138 293.615 320.336 294.811C320.695 295.17 321.054 295.529 321.414 295.888C322.252 296.726 322.971 297.563 323.689 298.52C324.049 298.999 324.408 299.477 324.887 299.956C325.486 300.794 326.205 301.631 326.804 302.588C327.163 303.187 327.522 303.665 327.882 304.263C328.48 305.221 328.96 306.178 329.439 307.135C329.678 307.613 330.037 308.212 330.277 308.69C331.115 310.485 331.834 312.28 332.553 314.194C332.792 314.792 332.912 315.391 333.032 315.989C333.271 316.946 333.631 317.903 333.87 318.86C334.11 319.818 334.23 320.775 334.349 321.732C334.469 322.21 334.589 322.809 334.589 323.287C334.828 324.843 334.948 326.398 334.948 327.954C334.948 329.389 334.948 330.825 334.828 332.261C334.828 332.739 334.709 333.218 334.709 333.697C334.589 334.654 334.469 335.731 334.349 336.688C334.23 337.166 334.23 337.645 334.11 338.124C333.87 339.2 333.631 340.158 333.391 341.115C333.271 341.474 333.152 341.952 333.032 342.311C332.673 343.508 332.313 344.585 331.954 345.661C331.834 345.901 331.834 346.14 331.714 346.499C331.475 346.977 331.235 347.456 330.996 348.054C330.636 349.011 330.277 349.849 329.798 350.806C329.678 351.045 329.558 351.285 329.439 351.404C328.72 352.721 327.882 354.037 327.043 355.353C326.804 355.712 326.564 356.071 326.205 356.43C324.887 358.224 323.57 360.019 322.013 361.574C319.737 363.967 317.341 366.001 314.586 367.796L325.726 360.258C328.361 358.464 330.876 356.31 333.152 354.037C334.709 352.481 336.026 350.687 337.344 348.892C337.464 348.653 337.703 348.533 337.823 348.294C337.943 348.174 338.062 347.935 338.182 347.695C339.021 346.499 339.859 345.183 340.458 343.747C340.578 343.508 340.697 343.388 340.817 343.149V343.029C341.296 342.192 341.656 341.234 342.015 340.397C342.255 339.918 342.494 339.44 342.734 338.961C342.734 338.961 342.734 338.961 342.734 338.841C342.853 338.602 342.853 338.363 342.973 338.004C343.333 337.047 343.692 335.97 344.051 335.013C344.051 334.893 344.051 334.773 344.171 334.654C344.291 334.295 344.411 333.816 344.53 333.457C344.77 332.739 344.89 332.022 345.129 331.304C345.129 331.064 345.249 330.705 345.249 330.466C345.369 329.988 345.369 329.509 345.489 329.03C345.608 328.552 345.608 328.073 345.728 327.595C345.848 327.116 345.848 326.518 345.848 326.039C345.848 325.561 345.968 325.082 345.968 324.603C345.608 324.603 345.608 324.364 345.608 324.005Z" fill="#664B7B"/>
<path d="M286.2 280.573C312.191 280.573 333.75 301.87 334.589 328.073C334.948 341.115 330.037 353.08 321.773 361.694C313.508 370.309 302.01 375.693 288.955 375.693H92.1637L21.0171 410.391C20.538 410.63 20.0589 410.75 19.5798 410.75C17.1843 410.75 15.2679 407.758 16.825 405.485L31.9167 372.582C13.9504 365.762 0.89487 348.533 0.295993 328.193C-0.0633326 315.151 4.84745 303.187 13.1119 294.572C21.3764 285.957 32.8749 280.693 45.9304 280.693H286.2V280.573Z" fill="#AC6E94"/>
<path d="M242.961 301.153L238.17 315.75C237.93 316.467 237.212 316.946 236.493 316.946H221.162C219.485 316.946 218.766 319.1 220.084 320.176L232.54 329.15C233.139 329.629 233.379 330.466 233.139 331.184L228.348 345.781C227.869 347.456 229.666 348.772 231.103 347.815L243.56 338.841C244.159 338.363 244.997 338.363 245.716 338.841L258.172 347.815C259.61 348.772 261.406 347.456 260.927 345.781L256.136 331.184C255.897 330.466 256.136 329.629 256.735 329.15L269.192 320.176C270.629 319.219 269.91 316.946 268.114 316.946H252.782C252.064 316.946 251.345 316.467 251.106 315.75L246.315 301.153C245.835 299.597 243.56 299.597 242.961 301.153Z" fill="#CCE9F1"/>
<path d="M180.797 301.153L176.006 315.75C175.767 316.467 175.048 316.946 174.33 316.946H158.998C157.321 316.946 156.603 319.1 157.92 320.176L170.377 329.15C170.976 329.629 171.215 330.466 170.976 331.184L166.185 345.781C165.706 347.456 167.502 348.772 168.94 347.815L181.396 338.841C181.995 338.363 182.834 338.363 183.552 338.841L196.009 347.815C197.446 348.772 199.243 347.456 198.764 345.781L193.973 331.184C193.733 330.466 193.973 329.629 194.572 329.15L207.028 320.176C208.466 319.219 207.747 316.946 205.95 316.946H190.619C189.9 316.946 189.182 316.467 188.942 315.75L184.151 301.153C183.672 299.597 181.396 299.597 180.797 301.153Z" fill="#CCE9F1"/>
<path d="M118.634 301.153L113.843 315.75C113.603 316.467 112.885 316.946 112.166 316.946H96.8349C95.1581 316.946 94.4394 319.1 95.757 320.176L108.214 329.15C108.812 329.629 109.052 330.466 108.812 331.184L104.021 345.781C103.542 347.456 105.339 348.772 106.776 347.815L119.233 338.841C119.832 338.363 120.67 338.363 121.389 338.841L133.846 347.815C135.283 348.772 137.079 347.456 136.6 345.781L131.809 331.184C131.57 330.466 131.809 329.629 132.408 329.15L144.865 320.176C146.302 319.219 145.583 316.946 143.787 316.946H128.456C127.737 316.946 127.018 316.467 126.779 315.75L121.988 301.153C121.509 299.597 119.233 299.597 118.634 301.153Z" fill="#CCE9F1"/>
<path d="M56.4706 301.153L51.6796 315.75C51.4401 316.467 50.7214 316.946 50.0028 316.946H34.6715C32.9947 316.946 32.276 319.1 33.5936 320.176L46.0502 329.15C46.6491 329.629 46.8886 330.466 46.6491 331.184L41.858 345.781C41.3789 347.456 43.1756 348.772 44.6129 347.815L57.0695 338.841C57.6684 338.363 58.5068 338.363 59.2255 338.841L71.6821 347.815C73.1194 348.772 74.916 347.456 74.4369 345.781L69.6459 331.184C69.4064 330.466 69.6459 329.629 70.2448 329.15L82.7014 320.176C84.1387 319.219 83.4201 316.946 81.6234 316.946H66.2922C65.5735 316.946 64.8549 316.467 64.6154 315.75L59.8243 301.153C59.3452 299.597 57.0695 299.597 56.4706 301.153Z" fill="#CCE9F1"/>
<path opacity="0.1" d="M340.817 300.913L354.951 280.334C356.867 277.582 354.112 273.993 350.998 275.189L327.163 283.684L323.21 285.12C321.773 285.598 320.216 285.12 319.377 284.043L313.029 275.907L301.411 260.712C299.375 258.079 295.183 259.635 295.303 262.865L295.662 273.155L296.261 292.418C296.261 293.854 295.422 295.29 293.985 295.768L266.197 305.699C263.083 306.776 263.203 311.322 266.437 312.16L294.704 320.416C296.141 320.894 297.099 322.091 297.099 323.646L298.057 353.079C298.177 356.31 302.369 357.626 304.286 354.874L320.935 330.586C321.773 329.389 323.33 328.791 324.767 329.27L334.709 332.141L335.906 332.5C336.266 333.936 337.224 335.85 338.302 337.645C339.619 339.081 340.578 340.038 341.895 340.875V340.756C342.135 340.277 342.374 339.799 342.614 339.32C342.734 339.081 342.853 338.722 342.853 338.482C343.213 337.525 343.572 336.448 343.931 335.372C343.931 335.252 343.931 335.132 343.931 335.013C344.051 334.654 344.171 334.175 344.291 333.816C344.53 333.098 344.65 332.38 344.89 331.663C345.009 331.423 345.009 331.064 345.009 330.825C345.129 330.346 345.249 329.868 345.249 329.389C345.249 328.911 345.369 328.432 345.488 327.953C345.488 327.475 345.608 326.877 345.608 326.398C345.608 325.919 345.728 325.441 345.728 324.962C345.728 324.723 345.728 324.484 345.848 324.244C345.848 323.048 345.848 321.851 345.848 320.655V320.296C345.848 318.98 345.728 317.544 345.488 316.228C345.488 316.108 345.488 315.989 345.488 315.989C345.488 315.391 345.249 314.912 345.249 314.433C345.129 313.596 345.009 312.758 344.89 311.921C344.89 311.681 344.77 311.681 344.77 311.442C344.53 310.485 344.171 309.528 343.931 308.571C343.812 308.092 343.692 307.494 343.572 307.015L338.062 307.254C337.943 306.417 338.062 305.46 338.541 304.742L340.817 300.913Z" fill="black"/>
<path d="M372.797 294.213L365.97 295.649L329.798 297.563L328.72 306.297L367.527 310.006C369.444 310.006 371.839 309.887 374.594 309.528C372.318 304.862 372.438 298.281 372.797 294.213Z" fill="#F5958F"/>
<path d="M298.417 252.695L299.255 282.129C299.255 283.564 298.417 285 296.979 285.479L269.192 295.409C266.077 296.486 266.197 301.033 269.431 301.87L297.698 310.126C299.135 310.485 300.094 311.801 300.213 313.357L301.052 342.79C301.172 346.14 305.484 347.336 307.28 344.584L323.929 320.296C324.767 319.1 326.324 318.501 327.762 318.98L356.029 327.236C359.263 328.193 361.778 324.484 359.742 321.851L341.656 298.52C340.697 297.324 340.697 295.768 341.536 294.452L358.185 270.164C360.101 267.412 357.346 263.942 354.232 265.019L326.444 274.95C325.007 275.428 323.45 274.95 322.611 273.873L304.525 250.542C302.489 247.79 298.297 249.345 298.417 252.695Z" fill="#B5CFEF"/>
<path d="M439.991 474.881C439.991 474.881 440.47 479.547 439.273 481.102C438.075 482.658 451.37 482.299 451.37 482.299C451.37 482.299 447.298 475.479 448.855 472.488C450.412 469.257 439.991 474.881 439.991 474.881Z" fill="#EDB6A4"/>
<path d="M425.858 491.99L451.729 488.999C453.286 486.127 452.807 483.256 450.771 480.504C446.579 481.341 442.507 481.341 438.913 480.145C435.919 483.375 431.128 486.127 425.498 488.64C423.702 489.597 424.181 490.674 425.858 491.99Z" fill="#393768"/>
<path d="M451.804 488.95L425.865 491.939L425.988 493.008L451.927 490.019L451.804 488.95Z" fill="#A8CFEF"/>
<path d="M476.163 342.072C475.684 343.149 475.325 344.106 474.846 345.183C471.492 352.96 468.258 360.498 464.905 367.676C458.556 381.555 452.089 393.999 445.501 403.81L449.933 475.957L448.495 476.077L439.871 476.914L438.314 477.034L423.702 402.494L439.153 339.2L439.991 335.731L441.309 330.346L447.298 332.38L468.498 339.559L476.163 342.072Z" fill="#393768"/>
<path d="M511.976 468.419C511.976 468.419 513.773 472.727 513.054 474.522C512.336 476.316 524.912 472.009 524.912 472.009C524.912 472.009 519.043 466.744 519.522 463.394C520.241 460.044 511.976 468.419 511.976 468.419Z" fill="#EDB6A4"/>
<path d="M503.592 488.879L527.427 478.35C528.026 475.12 526.709 472.607 523.954 470.573C520.121 472.607 516.288 473.804 512.455 473.684C510.539 477.632 506.706 481.7 502.155 485.768C500.837 487.324 501.676 488.281 503.592 488.879Z" fill="#393768"/>
<path d="M527.527 478.388L503.648 488.941L504.084 489.926L527.963 479.372L527.527 478.388Z" fill="#A8CFEF"/>
<path d="M510.659 470.453L523.115 466.744L491.614 399.024C492.812 376.052 493.171 354.515 489.339 339.679L459.994 341.474L471.732 407.997L510.659 470.453Z" fill="#393768"/>
<path d="M490.297 340.397C491.854 343.268 441.429 366.839 435.44 357.985C432.206 353.199 425.379 338.482 405.496 319.817C405.496 319.817 405.496 319.818 405.496 319.698C402.741 316.348 399.747 312.878 396.752 308.93C396.034 308.092 395.435 307.135 394.716 306.297C391.482 301.99 388.129 297.204 384.655 291.82C388.488 289.307 392.081 286.795 395.555 284.641C399.747 282.009 403.819 279.616 407.891 277.821C413.162 275.548 418.432 274.232 424.061 274.471C456.281 287.752 459.754 312.998 490.297 340.397Z" fill="#1ABED4"/>
<path d="M427.056 298.879C424.9 301.631 423.342 303.785 421.905 305.46C421.785 305.579 421.666 305.699 421.666 305.819C417.953 310.605 416.156 312.639 410.527 316.946C409.928 317.424 409.449 317.783 408.85 318.262C407.891 318.741 406.694 319.219 405.616 319.698C405.017 319.937 404.298 320.176 403.58 320.416C403.58 320.416 403.58 320.416 403.46 320.416C393.279 323.885 379.265 326.039 364.174 327.834C363.575 327.953 362.976 327.953 362.377 328.073C361.538 328.193 360.7 328.312 359.981 328.432C359.263 328.552 358.544 328.552 357.825 328.671C356.747 328.791 355.669 328.911 354.591 329.03L353.394 320.176L357.227 319.219L363.575 317.664L396.872 308.93L404.658 306.895L413.88 292.657C417.833 295.888 422.265 298.042 427.056 298.879Z" fill="#F5958F"/>
<path d="M388.847 277.702L401.783 269.566C403.34 274.591 404.538 275.907 409.449 278.539C411.125 284.402 395.195 292.657 395.794 285C393.638 280.573 392.92 280.453 388.847 277.702Z" fill="#F5958F"/>
<path d="M388.847 284.402C391.003 285 397.83 278.419 403.939 270.642L391.842 248.867L372.797 259.156C373.516 272.078 384.775 284.402 388.847 284.402Z" fill="#F5958F"/>
<path d="M353.394 320.176C351.597 318.023 349.082 316.946 346.806 315.749C345.009 316.108 345.009 316.587 344.89 318.023C346.087 319.1 346.686 319.578 346.566 321.134C344.051 322.33 339.021 320.176 338.781 320.655C338.302 322.33 339.619 324.843 341.296 327.355C343.333 329.628 344.65 330.705 347.764 331.782C350.279 331.423 352.675 330.466 354.711 328.911L353.394 320.176Z" fill="#F5958F"/>
<path d="M368.485 263.105C367.048 266.335 372.079 268.967 375.672 270.523C379.984 268.13 381.9 266.096 384.176 261.788C386.571 264.181 390.045 267.651 389.686 269.685C389.686 269.685 392.081 269.924 393.399 268.489C392.321 266.694 391.961 264.899 392.92 263.463C393.518 262.506 393.758 262.506 395.076 262.387C396.872 262.387 397.351 264.301 396.752 265.856C395.195 269.566 400.465 270.523 402.741 272.198C404.777 270.283 405.855 267.292 405.376 265.378C404.418 259.395 403.22 254.49 396.273 251.02C391.722 246.713 382.978 245.397 378.547 250.781C375.193 260.233 371.24 257.481 368.485 263.105Z" fill="#393768"/>
<path d="M384.655 291.7L372.917 294.213C372.558 298.161 372.318 304.742 374.594 309.528C381.182 308.81 389.686 307.135 397.95 305.579L384.655 291.7Z" fill="#00B0C7"/>
<g opacity="0.1">
<path opacity="0.1" d="M59.7045 316.587L63.0583 341.115L64.256 340.756L60.9023 316.108L59.7045 316.587Z" fill="black"/>
<path opacity="0.1" d="M156.723 294.691C156.483 291.461 151.572 287.991 144.625 284.88C144.745 284.641 144.865 284.402 144.985 284.162L148.338 272.916H75.1556C75.1556 273.275 75.1556 273.514 75.1556 273.873C75.1556 274.112 75.2754 274.232 75.3951 274.351C75.0358 291.581 82.4619 298.401 92.8823 305.22C86.654 307.494 80.4257 310.126 74.3172 312.758C74.4369 313.117 74.5567 313.356 74.5567 313.715C72.8799 314.194 70.9634 314.314 69.6459 314.194C69.6459 313.955 69.6459 313.715 69.5262 313.476C66.2922 312.878 63.2978 313.596 60.7825 316.228L64.1363 340.875C65.8131 341.833 67.0109 341.833 67.6097 339.799C68.9273 333.697 70.4843 328.193 72.8798 324.125C72.5205 323.766 72.281 323.287 72.0414 322.809C73.5985 321.492 76.8324 320.416 76.8324 320.416C77.3115 321.373 77.9104 322.21 78.7488 322.809C87.2529 320.535 97.314 318.142 107.255 315.63C108.932 332.021 113.843 358.703 117.556 375.573H129.653L127.857 311.322C127.857 310.964 127.737 310.605 127.617 310.246C144.266 305.46 156.842 300.315 156.723 294.691ZM121.269 296.127C120.55 295.05 119.712 294.093 118.874 293.136C121.868 293.974 124.623 294.572 126.899 294.811C125.222 295.17 123.305 295.649 121.269 296.127Z" fill="black"/>
</g>
<path d="M62.6989 113.545L64.6154 116.297V117.494L72.9996 116.417L72.6403 114.981L71.8019 111.631C73.2392 110.674 74.0776 107.204 74.5567 105.649C74.7963 104.452 75.3951 99.6662 73.8381 97.2732C73.359 96.5554 70.3646 95.1196 70.6041 97.7518C70.7239 99.5465 69.7657 101.341 69.7657 101.341C67.8493 97.8715 68.4482 94.1624 63.7769 92.248C55.6322 94.641 55.752 100.863 57.6684 106.486C58.6266 108.999 60.4232 112.349 62.6989 113.545Z" fill="#F5958F"/>
<path d="M135.642 364.805C135.642 364.805 134.804 369.112 135.762 370.787C136.72 372.462 124.144 370.787 124.144 370.787C124.144 370.787 128.575 364.685 127.497 361.694C126.3 358.464 135.642 364.805 135.642 364.805Z" fill="#F5958F"/>
<path d="M149.895 383.829L122.347 377.846C121.03 374.496 121.748 371.505 124.263 368.873C128.695 370.189 133.007 370.668 137.079 369.71C140.074 373.419 144.865 376.889 150.614 380.239C152.53 381.555 151.932 382.752 149.895 383.829Z" fill="#393768"/>
<path d="M122.093 379.148L149.724 385.106L149.977 383.936L122.346 377.978L122.093 379.148Z" fill="#A8CFEF"/>
<path d="M83.0607 304.503C83.0607 304.503 78.8686 305.938 77.6708 307.494C76.5929 309.049 74.0776 298.4 74.0776 298.4C74.0776 298.4 81.0246 298.999 83.4201 296.606C85.8156 294.213 83.0607 304.503 83.0607 304.503Z" fill="#F5958F"/>
<path d="M70.2448 325.082L66.8911 300.554C69.4064 297.922 72.4008 297.084 75.7545 297.802C75.994 301.99 76.9522 305.579 79.1082 308.331C76.5929 312.399 75.0358 317.903 73.838 324.005C73.1194 325.919 71.9216 326.039 70.2448 325.082Z" fill="#393768"/>
<path d="M65.6933 300.793L69.047 325.441L70.2448 325.082L66.8911 300.435L65.6933 300.793Z" fill="#A8CFEF"/>
<path d="M106.776 258.797C113.005 267.173 132.528 279.496 133.965 295.529L136.001 365.523C131.21 366.719 131.21 368.155 125.701 368.275C121.988 353.079 115.28 318.023 113.364 298.76C96.236 286.436 80.785 283.086 81.5037 258.438L106.776 258.797Z" fill="#00B0C7"/>
<path d="M92.523 260.831C102.584 270.882 122.826 277.821 132.887 279.137C119.113 281.889 98.7513 288.948 80.3059 297.084C81.7432 301.631 82.4619 305.34 84.8574 307.015C114.921 298.879 162.951 289.906 162.592 279.018C162.112 272.437 142.948 265.139 127.018 262.028L92.523 260.831Z" fill="#1ABED4"/>
<path d="M128.216 261.19C127.258 264.78 81.863 262.147 81.1443 258.199C80.1861 237.739 89.1693 187.248 91.9241 180.548C95.7569 179.591 99.47 178.753 103.303 178.275C109.531 177.317 115.64 176.958 121.868 177.437C125.461 177.676 128.935 178.155 132.528 178.753C132.169 186.171 132.169 192.752 132.169 198.854C132.169 200.529 132.169 202.084 132.288 203.759C132.408 212.135 130.013 248.747 128.216 261.19Z" fill="#F5CB8F"/>
<path d="M106.177 165.353C106.896 169.421 106.417 173.249 103.423 178.155C100.189 179.232 106.417 186.889 113.244 186.41C118.993 185.573 121.748 180.667 121.988 177.198C118.634 175.762 119.353 171.455 119.472 167.626L106.177 165.353Z" fill="#F5958F"/>
<path d="M102.464 167.506C107.136 171.096 118.514 175.044 121.988 173.608C128.096 171.814 130.013 145.97 123.425 139.748L105.219 143.936L97.0745 156.259C98.2722 160.926 98.8711 164.874 102.464 167.506Z" fill="#F5958F"/>
<path d="M109.172 150.516C117.796 152.191 120.191 148.004 125.102 149.32C126.779 150.157 126.3 152.79 127.497 154.345C130.132 148.363 130.492 141.184 124.263 136.757C120.311 134.484 113.005 131.253 105.938 134.484C100.428 136.398 94.4394 146.089 94.3196 151.474C93.8405 166.549 83.1805 160.926 73.7183 159.131C60.3034 156.977 50.9609 163.079 47.3677 168.104C37.7857 179.95 52.1587 174.087 61.2616 182.343C79.2279 194.427 78.15 172.651 92.2834 176.839C104.381 180.428 110.609 166.429 107.016 163.438C105.578 163.199 104.98 161.644 104.98 160.327C104.74 158.652 104.141 157.456 105.818 156.618C106.417 156.379 108.453 156.977 109.531 159.49C110.849 157.336 110.13 153.747 109.172 150.516Z" fill="#393768"/>
<path d="M93.0021 198.734C92.8823 198.615 70.9634 180.428 68.6877 173.13C66.1724 164.635 65.0944 138.552 63.6571 117.254C63.6571 117.135 63.6571 117.135 63.6571 117.135L73.838 113.426L83.1805 170.258L100.189 180.309L96.4756 195.384L93.9603 196.581L93.0021 198.734Z" fill="#F5CB8F"/>
<path d="M173.371 114.742L171.455 117.494V118.69L163.071 117.613L163.43 116.178L164.268 112.827C162.831 111.87 161.993 108.401 161.514 106.845C161.274 105.649 160.675 100.863 162.232 98.4698C162.711 97.7519 165.706 96.3161 165.466 98.9484C165.466 100.743 166.305 102.538 166.305 102.538C168.221 99.068 167.622 95.3589 172.174 93.4446C180.318 95.8375 180.318 102.059 178.402 107.683C177.444 110.195 175.647 113.545 173.371 114.742Z" fill="#F5958F"/>
<path d="M161.274 181.146C155.525 189.88 125.341 208.665 125.341 208.665L124.743 181.625L151.812 170.737L161.993 116.058L163.43 116.297L170.257 117.374L171.575 117.613L173.012 117.853C168.82 145.013 166.784 172.771 161.274 181.146Z" fill="#F5CB8F"/>
<path d="M103.423 278.06L89.888 264.66C89.0495 263.822 89.5286 262.506 90.7264 262.506C99.8293 262.028 127.617 260.353 127.857 260.353C128.216 260.353 137.199 274.351 137.199 274.351L103.423 278.06Z" fill="#ADADEA"/>
<path d="M145.823 273.275L105.099 278.3C102.943 278.539 101.746 276.864 102.464 274.471L109.651 250.542C110.37 248.149 112.645 246.115 114.801 245.875L155.525 240.85C157.681 240.611 158.879 242.286 158.16 244.679L150.973 268.608C150.255 270.882 147.859 273.035 145.823 273.275Z" fill="#393768"/>
<path d="M126.659 30.1511L129.893 36.0138L135.882 39.2443L129.893 42.4748L126.659 48.3375L123.425 42.4748L117.556 39.2443L123.425 36.0138L126.659 30.1511Z" fill="#CCE9F1"/>
<path d="M86.2947 53.0038L90.7264 61.0202L98.7513 65.4471L90.7264 69.8741L86.2947 78.0101L81.863 69.8741L73.7183 65.4471L81.863 61.0202L86.2947 53.0038Z" fill="#CCE9F1"/>
<path d="M80.3059 0L86.0551 10.529L96.5954 16.3917L86.0551 22.1348L80.3059 32.6637L74.5567 22.1348L63.8967 16.3917L74.5567 10.529L80.3059 0Z" fill="#CCE9F1"/>
<defs>
<linearGradient id="paint0_linear" x1="170.252" y1="69.2787" x2="593.002" y2="261.314" gradientUnits="userSpaceOnUse">
<stop stop-color="#FFE0DE"/>
<stop offset="0.5" stop-color="#FFFBF5"/>
<stop offset="0.61" stop-color="#FFEFEA"/>
<stop offset="0.84" stop-color="#FFDCD8"/>
<stop offset="1" stop-color="#FFD5D1"/>
</linearGradient>
</defs>
</svg>
