<svg width="716" height="519" viewBox="0 0 716 519" fill="none" xmlns="http://www.w3.org/2000/svg">
<path opacity="0.3" d="M35.8382 463.223C2.42087 463.223 5.29548 478.059 40.749 477.461C76.2025 476.863 64.9436 501.63 111.057 500.553C157.171 499.476 185.917 484.281 237.66 484.281C289.403 484.281 323.179 518.022 419.958 518.022C516.736 518.022 878.937 478.658 628.127 440.49C376.958 402.083 35.8382 463.223 35.8382 463.223Z" fill="url(#paint0_linear)"/>
<path d="M135.252 324.671C152.14 307.083 148.547 295.238 148.786 278.727C149.146 262.215 181.245 252.643 183.881 257.549C186.516 262.455 156.692 273.103 168.669 297.272C180.647 321.441 195.858 317.133 190.588 342.618C185.318 368.103 164.716 389.281 168.429 399.81C172.023 410.339 116.088 452.096 114.171 436.542C112.135 420.987 135.252 324.671 135.252 324.671Z" fill="#E66A71"/>
<path d="M116.447 408.066C116.447 408.066 120.4 390.238 134.294 379.829C148.187 369.419 161.123 344.652 148.187 325.748C135.252 306.844 122.316 286.025 126.867 267.719C131.299 249.413 112.974 242.354 110.458 220.578C107.943 198.683 101.954 218.544 106.506 231.945C110.937 245.345 77.1607 291.05 77.1607 314.382C77.1607 337.713 83.1494 383.897 97.0434 394.306C110.937 404.596 116.447 408.066 116.447 408.066Z" fill="#1ABED4"/>
<path d="M117.884 398.135C113.093 385.333 108.662 372.411 104.829 359.249C100.996 346.088 98.1214 332.448 97.762 318.569C97.4027 304.69 100.158 290.692 105.068 277.889C107.464 271.548 109.5 265.087 111.177 258.506C112.015 255.276 112.734 251.926 113.093 248.576C113.213 246.901 113.333 245.225 113.213 243.55C113.093 241.875 112.974 240.081 111.776 238.765C113.093 239.961 113.453 241.756 113.812 243.431C114.051 245.106 114.171 246.901 114.051 248.576C114.051 252.045 113.572 255.396 112.974 258.865C111.656 265.685 109.979 272.266 107.943 278.846C103.751 291.768 101.236 305.049 101.715 318.45C101.954 331.85 104.589 345.251 107.703 358.412C109.26 364.993 110.937 371.573 112.734 378.154C114.531 384.854 116.327 391.435 117.884 398.135Z" fill="#C4E8EF"/>
<path d="M106.506 439.293C106.506 439.293 97.0434 416.56 75.4838 415.005C53.9243 413.45 35.4789 413.808 24.4595 396.22C13.4402 378.632 20.1476 372.291 22.5431 357.813C24.9386 343.336 18.9499 333.047 1.70222 340.106C-5.36452 342.858 11.5238 314.98 34.2811 324.791C57.0384 334.602 58.5955 364.753 69.9742 369.539C81.3528 374.205 124.113 384.854 123.394 412.253C122.675 439.652 106.506 439.293 106.506 439.293Z" fill="url(#paint1_linear)"/>
<path d="M647.411 305.647C647.411 305.647 664.779 293.802 664.18 280.761C663.581 267.719 662.024 237.927 683.104 249.652C704.185 261.258 694.483 279.804 693.285 303.733C692.087 327.663 696.279 334.841 702.029 351.353C707.778 367.744 663.581 365.71 652.202 393.11C640.704 420.509 613.275 315.1 647.411 305.647Z" fill="url(#paint2_linear)"/>
<path d="M613.754 408.664C649.447 408.664 666.815 397.656 656.274 379.47C645.734 361.164 646.213 365.83 655.795 345.251C665.377 324.671 670.408 323.355 652.561 308.28C634.715 293.204 636.991 274.06 639.027 246.661C641.063 219.262 603.094 206.46 596.267 232.543C589.44 258.626 572.072 261.258 579.858 282.795C587.643 304.212 604.052 315.698 597.225 333.525C590.398 351.353 565.245 362.241 578.54 384.256C591.835 405.912 613.754 408.664 613.754 408.664Z" fill="#E994A9"/>
<path d="M645.255 375.402L643.818 373.009L620.941 386.529V322.877L638.548 308.04L636.751 305.887L620.941 319.287V265.326H618.306V288.538L597.345 274.061L595.788 276.334L618.306 291.888V369.659L595.668 353.985L594.111 356.258L618.306 373.009V465.137H620.941V389.76L645.255 375.402Z" fill="#E6E9F8"/>
<path d="M546.92 469.923C580.696 472.556 615.072 472.436 649.807 469.923C649.807 469.923 667.413 461.428 661.784 456.523C656.155 451.617 639.626 459.993 632.319 458.916C625.013 457.839 632.319 447.43 641.063 446.233C649.807 445.037 660.586 421.107 645.974 424.098C631.361 427.09 614.952 440.37 617.707 429.243C620.342 417.996 644.776 417.757 644.776 407.108C644.776 396.34 625.492 381.504 620.102 392.272C614.712 403.04 602.016 424.936 595.908 417.398C589.799 409.86 568.12 396.221 565.485 403.519C562.85 410.818 570.635 417.637 570.635 421.586C570.635 425.534 559.616 417.637 556.502 411.296C553.387 404.955 544.524 408.664 545.482 416.441C546.44 424.218 562.251 438.815 561.532 444.917C560.813 451.019 551.83 459.993 542.967 451.019C534.223 441.926 522.605 464.778 546.92 469.923Z" fill="#E66A71"/>
<path d="M358.273 388.324L354.56 429.961L351.566 463.223H35.8382C35.8382 463.223 22.3036 449.703 69.6148 434.747C116.806 419.791 104.11 366.548 144.594 361.283C185.078 356.019 196.337 371.812 223.287 401.006C250.236 430.2 293.714 414.526 358.273 388.324Z" fill="#E6E9F8"/>
<path opacity="0.3" d="M354.56 429.961L351.207 463.223H83.0297C81.4726 462.625 80.5144 462.266 80.5144 462.266C120.16 440.37 209.632 435.345 250.595 442.644C291.559 449.942 353.243 429.124 353.243 429.124L354.56 429.961Z" fill="url(#paint3_linear)"/>
<path d="M336.355 459.155L335.157 459.873C324.497 443.481 323.299 435.943 322.461 431.038C321.862 427.09 321.383 424.697 316.711 420.27C305.692 409.98 302.937 403.04 302.817 402.801L304.135 402.323C304.135 402.442 306.89 409.262 317.67 419.312C322.82 424.098 323.179 426.731 323.898 430.918C324.736 435.704 325.934 443.122 336.355 459.155Z" fill="url(#paint4_linear)"/>
<path d="M304.854 396.699C305.932 398.972 303.656 403.639 303.656 403.639C303.656 403.639 298.745 402.322 297.667 399.93C296.589 397.656 297.428 395.024 299.344 394.067C301.26 393.229 303.776 394.306 304.854 396.699Z" fill="url(#paint5_linear)"/>
<path d="M302.578 396.221C302.458 396.221 302.338 396.221 302.338 396.34L301.38 398.494L300.302 396.101C300.302 395.981 300.182 395.981 300.063 395.981C299.943 395.981 299.943 396.101 299.943 396.221L301.859 400.408L299.104 400.169C298.985 400.169 298.865 400.289 298.865 400.289C298.865 400.408 298.985 400.408 298.985 400.528L301.859 400.767L303.177 403.639C303.177 403.758 303.297 403.758 303.416 403.758C303.536 403.758 303.536 403.639 303.536 403.519L301.38 398.853L302.458 396.46C302.698 396.34 302.698 396.221 302.578 396.221Z" fill="url(#paint6_linear)"/>
<path d="M315.993 407.228C315.633 409.741 311.321 412.493 311.321 412.493C311.321 412.493 307.848 408.784 308.088 406.271C308.447 403.758 310.363 401.844 312.639 402.203C314.795 402.442 316.352 404.716 315.993 407.228Z" fill="url(#paint7_linear)"/>
<path d="M314.316 405.673C314.316 405.553 314.196 405.553 314.076 405.673L312.16 406.989L312.519 404.476C312.519 404.356 312.519 404.237 312.399 404.237C312.28 404.237 312.16 404.237 312.16 404.356L311.561 408.903L309.285 407.348C309.166 407.348 309.046 407.348 309.046 407.348C309.046 407.467 309.046 407.587 309.046 407.587L311.441 409.262L310.962 412.851C310.962 412.971 310.962 413.091 311.082 413.091C311.202 413.091 311.321 413.091 311.321 412.971L312.04 407.467L314.196 405.912C314.436 405.912 314.436 405.792 314.316 405.673Z" fill="url(#paint8_linear)"/>
<path d="M303.416 416.68C305.932 416.561 308.926 412.373 308.926 412.373C308.926 412.373 305.452 408.664 302.937 408.783C300.422 408.903 298.386 410.817 298.506 412.971C298.625 415.244 300.781 416.8 303.416 416.68Z" fill="url(#paint9_linear)"/>
<path d="M301.859 415.005C301.739 415.005 301.739 414.886 301.859 414.766L303.297 412.971L300.781 413.091C300.661 413.091 300.661 412.971 300.542 412.971C300.542 412.852 300.661 412.851 300.661 412.732L305.213 412.493L303.776 410.219C303.776 410.1 303.776 409.98 303.776 409.98C303.895 409.98 304.015 409.98 304.015 409.98L305.572 412.493L309.166 412.253C309.285 412.253 309.285 412.373 309.405 412.373C309.405 412.493 309.285 412.493 309.285 412.612L303.656 412.971L301.979 415.005C302.099 415.005 301.979 415.005 301.859 415.005Z" fill="url(#paint10_linear)"/>
<path d="M333.001 436.901C331.683 439.054 326.653 439.892 326.653 439.892C326.653 439.892 324.856 435.106 326.174 432.952C327.491 430.799 330.126 429.841 331.923 431.038C333.839 431.995 334.199 434.747 333.001 436.901Z" fill="url(#paint11_linear)"/>
<path d="M332.043 434.747C332.043 434.627 331.923 434.627 331.803 434.627L329.527 435.106L330.845 432.952C330.845 432.833 330.845 432.713 330.725 432.713C330.605 432.713 330.486 432.713 330.486 432.833L328.09 436.781L326.653 434.388C326.653 434.268 326.533 434.268 326.413 434.268C326.293 434.268 326.293 434.388 326.293 434.508L327.85 437.02L325.934 440.131C325.934 440.251 325.934 440.37 326.054 440.37C326.174 440.37 326.293 440.37 326.293 440.251L329.168 435.465L331.803 434.986C332.043 434.986 332.043 434.867 332.043 434.747Z" fill="url(#paint12_linear)"/>
<path d="M320.185 447.19C322.7 447.19 326.054 443.361 326.054 443.361C326.054 443.361 322.94 439.293 320.305 439.293C317.789 439.293 315.633 440.969 315.633 443.122C315.633 445.276 317.67 447.071 320.185 447.19Z" fill="url(#paint13_linear)"/>
<path d="M318.867 445.276C318.748 445.156 318.748 445.156 318.867 445.037L320.424 443.361H317.909C317.789 443.361 317.789 443.242 317.789 443.242L317.909 443.122L322.461 443.242L321.263 440.849C321.263 440.729 321.263 440.61 321.383 440.61C321.502 440.61 321.622 440.61 321.622 440.729L322.94 443.361H326.533C326.653 443.361 326.653 443.481 326.653 443.481C326.653 443.601 326.533 443.601 326.533 443.601L320.903 443.481L319.107 445.396C319.107 445.396 318.987 445.396 318.867 445.276Z" fill="url(#paint14_linear)"/>
<path d="M329.168 422.782C328.09 425.055 323.059 426.252 323.059 426.252C323.059 426.252 320.903 421.586 322.101 419.312C323.179 417.039 325.694 415.962 327.731 416.919C329.647 417.877 330.366 420.509 329.168 422.782Z" fill="url(#paint15_linear)"/>
<path d="M328.09 420.748C328.09 420.629 327.97 420.629 327.85 420.629L325.575 421.227L326.653 418.954C326.653 418.834 326.653 418.714 326.533 418.714C326.413 418.714 326.293 418.714 326.293 418.834L324.257 422.902L322.7 420.629C322.7 420.509 322.58 420.509 322.461 420.629C322.341 420.629 322.341 420.748 322.461 420.868L324.137 423.261L322.461 426.491C322.461 426.611 322.461 426.731 322.58 426.731C322.7 426.731 322.82 426.731 322.82 426.611L325.335 421.586L327.85 420.868C328.09 420.988 328.21 420.868 328.09 420.748Z" fill="url(#paint16_linear)"/>
<path d="M314.316 428.406C316.831 428.645 320.544 425.175 320.544 425.175C320.544 425.175 317.789 420.868 315.274 420.629C312.759 420.389 310.483 421.825 310.243 424.098C309.884 426.132 311.681 428.047 314.316 428.406Z" fill="url(#paint17_linear)"/>
<path d="M313.118 426.372C312.998 426.252 313.118 426.132 313.118 426.132L314.915 424.577L312.399 424.338C312.28 424.338 312.28 424.218 312.28 424.098C312.28 423.979 312.399 423.979 312.519 423.979L317.071 424.457L315.993 421.945C315.993 421.825 315.993 421.705 316.112 421.705C316.232 421.705 316.352 421.705 316.352 421.825L317.43 424.577L321.023 424.936C321.143 424.936 321.143 425.055 321.143 425.175C321.143 425.295 321.023 425.295 320.903 425.295L315.394 424.696L313.358 426.372C313.238 426.491 313.238 426.491 313.118 426.372Z" fill="url(#paint18_linear)"/>
<path d="M336.594 426.013C337.672 432.713 338.391 434.747 342.343 442.285C346.296 449.822 346.296 447.071 342.942 450.301C339.588 453.532 339.828 462.385 339.828 462.385C339.828 462.385 338.75 463.462 337.552 464.18C337.313 464.3 337.193 464.419 336.953 464.539C335.995 465.137 335.157 465.377 334.678 464.898C333.48 463.702 330.605 461.189 326.653 460.471C322.7 459.753 324.018 454.728 318.987 451.378C313.956 447.908 310.723 445.515 315.154 443.242C315.274 443.122 315.394 443.122 315.514 443.122C316.232 442.883 317.19 442.883 318.149 443.122C318.508 443.242 318.987 443.362 319.466 443.481C319.706 443.601 319.945 443.601 320.185 443.72C320.305 443.72 320.424 443.84 320.544 443.84C321.622 444.319 322.7 444.917 323.778 445.635C325.575 446.831 327.371 448.028 328.689 449.105C330.126 450.181 330.965 451.019 330.965 451.019C330.965 451.019 330.965 450.78 330.965 450.421C330.845 449.344 330.366 446.951 328.33 445.156C328.09 444.917 327.85 444.797 327.611 444.558C327.012 444.199 326.533 443.84 326.054 443.481C325.934 443.362 325.814 443.242 325.575 443.122C324.976 442.524 324.616 442.045 324.497 441.567C324.497 441.208 324.497 440.729 324.856 440.251C325.096 439.892 325.455 439.413 325.934 438.935C326.054 438.815 326.174 438.695 326.293 438.576L326.413 438.456C327.012 437.858 327.252 436.901 327.371 435.584C327.371 435.345 327.371 435.226 327.371 434.986C327.371 433.909 327.371 432.713 327.371 431.397C327.252 429.243 327.252 426.85 327.491 424.457C327.611 423.261 327.85 422.064 328.21 420.868C328.21 420.748 328.21 420.748 328.33 420.629C328.569 419.791 328.928 418.953 329.288 418.116C329.647 417.398 330.006 416.8 330.485 416.082C335.995 408.066 335.516 419.312 336.594 426.013Z" fill="#4BDAE3"/>
<path d="M333.839 421.705C332.881 424.936 332.881 428.406 332.881 431.756C332.881 431.995 332.881 432.115 332.881 432.354C332.881 433.79 333.001 435.226 333.121 436.542C333.24 438.695 333.48 440.849 333.839 443.003C334.318 446.592 334.917 450.062 335.516 453.651C336.115 457.121 336.834 460.591 337.672 464.061C337.432 464.18 337.313 464.3 337.073 464.42C335.995 462.984 334.917 461.668 333.719 460.232C332.641 458.796 331.444 457.48 330.246 456.164C329.048 454.848 327.731 453.532 326.413 452.335C325.096 451.139 323.658 449.942 322.101 449.224C323.778 449.942 325.215 451.019 326.653 452.216C327.97 453.412 329.288 454.608 330.605 455.925C332.761 458.198 334.797 460.591 336.714 462.984C336.474 461.787 336.115 460.591 335.875 459.394C335.756 458.916 335.636 458.437 335.516 457.839C335.277 456.403 334.917 455.087 334.678 453.651C334.079 450.062 333.48 446.592 333.121 443.003C332.881 441.088 332.641 439.054 332.641 437.14C332.522 435.465 332.522 433.79 332.402 432.234C332.402 431.875 332.402 431.517 332.402 431.158C332.402 429.722 332.522 428.286 332.641 426.731C332.881 425.175 333.24 423.381 333.839 421.705Z" fill="white"/>
<path d="M136.689 469.804L139.204 470.163C144.355 435.106 140.761 421.945 138.246 413.21C136.33 406.271 135.132 401.964 139.564 391.195C149.984 366.069 149.146 352.549 149.146 351.951L146.63 352.071C146.63 352.19 147.349 365.591 137.168 390.118C132.377 401.724 133.695 406.51 135.731 413.809C138.126 422.304 141.72 435.226 136.689 469.804Z" fill="url(#paint19_linear)"/>
<path d="M141.36 342.977C141.36 347.644 148.667 353.387 148.667 353.387C148.667 353.387 155.733 347.524 155.733 342.858C155.733 338.191 152.499 334.482 148.547 334.482C144.474 334.602 141.24 338.431 141.36 342.977Z" fill="url(#paint20_linear)"/>
<path d="M144.594 340.584C144.714 340.465 144.954 340.465 145.073 340.584L148.187 343.336V338.67C148.187 338.55 148.307 338.311 148.547 338.311C148.667 338.311 148.906 338.431 148.906 338.67L149.026 346.926L153.338 344.533C153.458 344.413 153.697 344.533 153.817 344.652C153.937 344.772 153.817 345.011 153.697 345.131L149.026 347.644V353.387C149.026 353.506 148.906 353.746 148.667 353.746C148.547 353.746 148.307 353.626 148.307 353.387L148.187 344.054L144.594 340.824C144.474 340.824 144.474 340.704 144.594 340.584Z" fill="url(#paint21_linear)"/>
<path d="M130.94 368.821C133.335 372.77 142.558 373.966 142.558 373.966C142.558 373.966 145.552 365.232 143.157 361.283C140.761 357.335 135.97 355.899 132.617 357.933C129.143 360.087 128.425 364.873 130.94 368.821Z" fill="url(#paint22_linear)"/>
<path d="M132.377 364.992C132.377 364.873 132.617 364.753 132.736 364.753L136.809 365.471L134.413 361.523C134.294 361.403 134.413 361.164 134.533 361.044C134.653 360.924 134.892 361.044 135.012 361.164L139.324 368.223L141.839 363.916C141.959 363.796 142.079 363.676 142.318 363.796C142.438 363.916 142.558 364.035 142.438 364.275L139.803 368.821L143.277 374.445C143.396 374.564 143.277 374.804 143.157 374.923C143.037 375.043 142.798 374.923 142.678 374.804L137.288 366.189L132.617 365.351C132.497 365.351 132.377 365.232 132.377 364.992Z" fill="url(#paint23_linear)"/>
<path d="M158.847 374.923C154.536 376.598 146.511 372.052 146.511 372.052C146.511 372.052 149.385 363.198 153.697 361.523C158.009 359.848 162.68 361.403 164.118 365.112C165.435 368.821 163.159 373.129 158.847 374.923Z" fill="url(#paint24_linear)"/>
<path d="M159.925 370.855C160.045 370.736 159.925 370.496 159.806 370.377L156.093 368.582L160.405 366.907C160.524 366.787 160.644 366.668 160.524 366.548C160.405 366.428 160.285 366.309 160.165 366.428L152.499 369.419L153.098 364.514C153.098 364.394 152.978 364.155 152.859 364.155C152.739 364.155 152.499 364.275 152.499 364.394L151.781 369.659L145.672 372.052C145.552 372.171 145.433 372.291 145.552 372.411C145.672 372.53 145.792 372.65 145.912 372.53L155.374 368.941L159.686 371.095C159.686 371.095 159.806 371.095 159.925 370.855Z" fill="url(#paint25_linear)"/>
<path d="M125.43 430.44C129.263 433.072 138.126 430.44 138.126 430.44C138.126 430.44 137.408 421.227 133.575 418.595C129.742 415.962 124.831 416.441 122.556 419.791C120.4 423.022 121.597 427.807 125.43 430.44Z" fill="url(#paint26_linear)"/>
<path d="M125.31 426.252C125.31 426.132 125.43 425.893 125.55 425.893L129.622 424.936L125.789 422.304C125.67 422.184 125.67 422.064 125.67 421.825C125.789 421.705 125.909 421.705 126.149 421.705L132.976 426.372L133.455 421.466C133.455 421.346 133.575 421.227 133.814 421.227C133.934 421.227 134.054 421.346 134.054 421.586L133.455 426.85L138.965 430.559C139.085 430.679 139.085 430.798 139.085 431.038C138.965 431.157 138.845 431.157 138.605 431.157L130.221 425.414L125.55 426.491C125.55 426.611 125.31 426.491 125.31 426.252Z" fill="url(#paint27_linear)"/>
<path d="M154.056 437.738C149.864 439.772 141.48 435.943 141.48 435.943C141.48 435.943 143.636 426.97 147.828 424.936C152.02 422.902 156.811 424.098 158.488 427.688C160.285 431.157 158.249 435.704 154.056 437.738Z" fill="url(#paint28_linear)"/>
<path d="M154.895 433.67C155.015 433.55 154.895 433.311 154.775 433.311L150.942 431.756L155.134 429.722C155.254 429.602 155.374 429.482 155.254 429.243C155.134 429.004 155.015 429.004 154.775 429.124L147.349 432.713L147.589 427.807C147.589 427.688 147.469 427.448 147.229 427.448C147.109 427.448 146.87 427.568 146.87 427.807L146.63 433.072L140.642 435.943C140.522 436.063 140.402 436.183 140.522 436.422C140.642 436.542 140.761 436.661 141.001 436.542L150.104 432.115L154.536 433.909C154.655 433.909 154.775 433.79 154.895 433.67Z" fill="url(#paint29_linear)"/>
<path d="M120.998 404.476C124.592 407.348 133.695 405.553 133.695 405.553C133.695 405.553 133.695 396.34 130.101 393.349C126.508 390.477 121.597 390.597 119.082 393.588C116.447 396.699 117.405 401.605 120.998 404.476Z" fill="url(#paint30_linear)"/>
<path d="M121.118 400.289C121.118 400.169 121.238 399.93 121.358 399.93L125.55 399.331L121.957 396.46C121.837 396.34 121.837 396.101 121.957 395.981C122.076 395.862 122.316 395.862 122.436 395.981L128.904 401.126L129.862 396.221C129.862 396.101 130.101 395.981 130.221 395.981C130.341 395.981 130.461 396.221 130.461 396.34L129.383 401.605L134.533 405.673C134.653 405.792 134.653 406.032 134.533 406.151C134.413 406.271 134.174 406.271 134.054 406.151L126.149 399.81L121.478 400.528C121.358 400.647 121.238 400.528 121.118 400.289Z" fill="url(#paint31_linear)"/>
<path d="M149.745 402.323C145.792 404.715 137.048 401.605 137.048 401.605C137.048 401.605 138.366 392.511 142.318 390.118C146.271 387.726 151.182 388.563 153.218 391.913C155.254 395.263 153.697 399.93 149.745 402.323Z" fill="url(#paint32_linear)"/>
<path d="M150.104 398.254C150.104 398.135 150.104 397.895 149.864 397.895L145.792 396.699L149.745 394.306C149.864 394.186 149.984 394.067 149.864 393.827C149.745 393.708 149.625 393.588 149.385 393.708L142.318 398.015L142.079 393.11C142.079 392.99 141.959 392.751 141.72 392.751C141.6 392.751 141.36 392.87 141.36 393.11L141.6 398.374L135.97 401.724C135.851 401.844 135.731 401.963 135.851 402.203C135.97 402.322 136.09 402.442 136.33 402.322L144.954 397.178L149.505 398.494C149.864 398.494 150.104 398.374 150.104 398.254Z" fill="url(#paint33_linear)"/>
<path d="M111.177 415.244C114.411 427.089 114.89 431.038 114.051 446.353C113.333 461.668 111.177 457.241 119.082 459.992C127.107 462.625 133.216 477.461 133.216 477.461C133.216 477.461 135.731 478.299 138.246 478.777C138.605 478.897 139.085 478.897 139.444 478.897C141.36 479.136 143.037 479.016 143.516 477.82C144.594 474.948 147.469 468.727 153.458 464.419C159.446 460.112 153.458 453.053 159.087 443.601C164.716 434.149 168.31 427.807 159.087 427.329C158.847 427.329 158.608 427.329 158.368 427.329C156.931 427.448 155.494 428.166 154.056 429.243C153.458 429.722 152.859 430.2 152.26 430.798C151.9 431.038 151.661 431.397 151.302 431.756C151.182 431.875 151.062 432.115 150.823 432.234C149.505 433.79 148.068 435.584 146.87 437.499C144.714 440.729 142.798 444.199 141.48 446.951C140.043 449.822 139.085 451.976 139.085 451.976C139.085 451.976 138.845 451.617 138.605 450.899C137.887 448.985 136.929 444.797 139.085 440.37C139.324 439.892 139.564 439.413 139.923 438.815C140.642 437.738 141.121 436.781 141.6 435.943C141.6 435.943 141.6 435.943 141.6 435.824C141.6 435.824 141.6 435.824 141.6 435.704C141.839 435.465 141.959 435.106 142.079 434.866C142.678 433.431 142.917 432.354 142.678 431.516C142.438 430.798 141.959 430.2 141.24 429.722C140.642 429.243 139.683 428.884 138.605 428.406C138.366 428.286 138.007 428.166 137.767 428.047C137.647 428.047 137.527 427.927 137.527 427.927C136.09 427.448 134.892 426.013 133.814 423.979C133.695 423.62 133.455 423.38 133.335 423.021C132.497 421.346 131.658 419.312 130.7 417.159C129.263 413.689 127.586 409.621 125.31 405.792C124.232 403.878 122.915 402.083 121.478 400.408C121.358 400.288 121.238 400.169 121.238 400.049C120.16 398.853 118.962 397.656 117.645 396.579C116.567 395.742 115.489 394.904 114.291 394.186C98.6005 385.332 107.943 403.399 111.177 415.244Z" fill="#4BDAE3"/>
<path d="M112.494 406.031C116.447 410.698 119.202 416.321 121.717 421.944C121.837 422.303 121.957 422.543 122.196 422.902C123.154 425.295 124.113 427.688 124.951 430.08C126.269 433.79 127.586 437.499 128.784 441.327C130.7 447.549 132.497 453.771 134.054 460.112C135.611 466.334 137.168 472.555 138.486 478.897C138.845 479.016 139.324 479.016 139.683 479.016C140.402 475.905 141.121 472.795 141.959 469.684C142.798 466.573 143.636 463.462 144.714 460.351C145.672 457.24 146.75 454.249 148.068 451.258C149.385 448.267 150.703 445.395 152.859 442.883C150.583 445.276 149.026 448.147 147.708 451.138C146.391 454.13 145.073 457.121 144.115 460.232C142.318 465.616 140.642 471 139.324 476.504C138.845 474.35 138.366 472.196 138.007 470.043C137.767 469.086 137.647 468.248 137.408 467.291C136.809 464.778 136.21 462.266 135.611 459.753C133.934 453.412 132.138 447.19 130.221 440.968C129.143 437.618 127.945 434.268 126.628 430.918C125.55 428.166 124.352 425.414 123.154 422.662C122.915 422.064 122.675 421.586 122.316 420.987C121.238 418.594 119.92 416.201 118.603 413.928C116.687 411.057 114.77 408.424 112.494 406.031Z" fill="white"/>
<path d="M135.611 475.666C132.736 472.795 134.174 471.359 135.132 469.445C136.09 467.53 136.689 466.334 134.892 463.941C133.096 461.667 139.564 459.394 140.402 461.907C141.121 464.419 138.126 467.53 141.001 469.205C143.876 470.88 145.912 471.12 142.079 473.034C138.246 474.948 135.611 475.666 135.611 475.666Z" fill="#43C6CE"/>
<path d="M136.21 482.008C136.21 482.008 134.773 476.504 132.377 476.264C129.982 475.906 129.263 478.298 126.149 476.264C123.035 474.23 118.363 471.718 117.645 473.513C116.926 475.307 120.639 474.709 121.717 477.461C122.795 480.213 122.675 483.204 126.269 483.443C130.101 483.563 132.736 483.922 136.21 482.008Z" fill="#1ABED4"/>
<path d="M135.851 482.008C135.851 482.008 144.115 478.897 142.798 476.025C141.48 473.154 138.725 473.273 138.725 469.086C138.725 464.898 138.007 456.283 136.809 455.805C135.611 455.326 133.335 461.189 133.335 464.061C133.335 466.932 131.06 467.53 129.383 471C127.586 474.47 128.904 477.222 131.778 479.495C134.653 481.529 135.851 482.008 135.851 482.008Z" fill="#1ABED4"/>
<path d="M135.851 482.008C134.773 478.299 134.413 474.35 134.533 470.521C134.533 468.607 134.773 466.693 135.132 464.778C135.491 462.864 135.851 460.95 136.569 459.155C135.851 462.984 135.491 466.812 135.371 470.641C135.371 472.555 135.371 474.47 135.371 476.384C135.491 478.179 135.731 479.974 135.851 482.008Z" fill="#E6E9F8"/>
<path d="M136.21 482.008C134.533 481.888 132.976 481.529 131.299 481.17C129.742 480.811 128.065 480.213 126.628 479.615C125.909 479.256 125.191 478.897 124.472 478.299C123.753 477.82 123.274 477.102 122.675 476.504C122.196 475.906 121.597 475.307 120.998 474.829C120.4 474.35 119.681 473.872 118.842 473.872C119.681 473.752 120.519 474.231 121.238 474.59C121.957 475.068 122.556 475.547 123.154 476.145C123.753 476.743 124.232 477.341 124.831 477.82C125.43 478.299 126.149 478.658 126.867 479.016C128.305 479.734 129.862 480.213 131.419 480.692C133.096 481.17 134.653 481.529 136.21 482.008Z" fill="#E6E9F8"/>
<path d="M135.731 482.008C135.731 482.008 141.72 484.879 143.756 483.084C145.792 481.17 144.355 478.777 148.427 477.581C152.499 476.384 158.368 474.111 157.29 472.197C156.212 470.282 153.937 473.872 150.703 472.675C147.469 471.479 144.954 469.086 141.959 472.197C139.085 475.307 136.689 477.461 135.731 482.008Z" fill="#4BDAE3"/>
<path d="M135.731 482.008C137.048 480.692 138.605 479.495 140.162 478.299C141.72 477.222 143.396 476.145 145.193 475.427C146.151 475.068 146.99 474.709 147.948 474.47C148.906 474.231 149.984 474.231 150.823 474.35C151.781 474.35 152.739 474.35 153.577 474.111C154.536 473.872 155.494 473.632 156.093 472.914C155.494 473.752 154.536 474.111 153.697 474.35C152.739 474.589 151.781 474.709 150.823 474.829C149.864 474.948 148.906 474.829 148.068 475.068C147.109 475.307 146.271 475.666 145.433 476.025C143.756 476.743 142.079 477.7 140.402 478.777C138.845 479.854 137.288 480.931 135.731 482.008Z" fill="#E6E9F8"/>
<path d="M195.664 36.7317C195.664 36.8514 195.664 36.8514 195.664 36.971C196.383 42.5945 192.191 47.7393 186.442 48.5768C157.576 52.4055 128.949 52.2859 100.323 48.4572C95.5321 47.8589 91.8191 44.0302 91.2202 39.2443C90.9806 37.6889 90.9806 36.0139 91.1004 34.3388C92.0586 23.4509 101.042 14.597 112.061 13.7594C115.415 13.5202 118.649 13.9987 121.643 15.0756C126.674 6.10201 136.256 0 147.395 0C161.049 0 172.548 9.3325 175.901 21.8955C176.86 21.7758 177.698 21.6562 178.656 21.6562C187.04 21.7758 194.466 28.2368 195.664 36.7317Z" fill="#E3EFF8"/>
<path d="M602.921 65.8186V65.9383C603.281 69.1688 600.885 72.0403 597.771 72.3992C581.601 74.5529 565.432 74.5529 549.262 72.2796C546.627 71.9207 544.471 69.767 544.112 67.1348C543.992 66.2972 543.992 65.3401 544.112 64.3829C544.591 58.2809 549.741 53.2557 555.85 52.7771C557.766 52.6574 559.563 52.8967 561.239 53.495C564.114 48.4698 569.504 45 575.732 45C583.398 45 589.866 50.2645 591.782 57.3237C592.261 57.204 592.74 57.204 593.339 57.204C598.01 57.4433 602.203 61.0327 602.921 65.8186Z" fill="#E3EFF8"/>
<path d="M713.208 36.3048C713.208 36.4244 713.208 36.4244 713.208 36.5441C713.807 41.5693 710.093 46.1159 705.183 46.7141C679.79 50.0642 654.518 50.0642 629.245 46.5945C625.053 45.9962 621.699 42.6461 621.22 38.4584C620.981 37.0227 620.981 35.5869 621.1 34.1511C621.939 24.5793 629.964 16.6826 639.546 16.0844C642.54 15.8451 645.415 16.3237 647.93 17.2809C652.362 9.26448 660.866 4 670.568 4C682.545 4 692.726 12.136 695.601 23.2632C696.439 23.1436 697.158 23.1436 697.996 23.1436C705.542 23.1436 712.13 28.8867 713.208 36.3048Z" fill="url(#paint34_linear)"/>
<defs>
<linearGradient id="paint0_linear" x1="357.443" y1="345.327" x2="420.956" y2="664.744" gradientUnits="userSpaceOnUse">
<stop stop-color="#5D52EE"/>
<stop offset="0.03" stop-color="#6456E9"/>
<stop offset="0.57" stop-color="#E49C93"/>
<stop offset="0.78" stop-color="#F7D3CE"/>
<stop offset="0.95" stop-color="#FFFDFC"/>
<stop offset="1" stop-color="white"/>
</linearGradient>
<linearGradient id="paint1_linear" x1="251959" y1="258675" x2="212958" y2="317644" gradientUnits="userSpaceOnUse">
<stop stop-color="#F2D09F"/>
<stop offset="0.39" stop-color="#F0B393"/>
<stop offset="0.76" stop-color="#EF9E8B"/>
<stop offset="1" stop-color="#EF9688"/>
</linearGradient>
<linearGradient id="paint2_linear" x1="147068" y1="334070" x2="96137.5" y2="368708" gradientUnits="userSpaceOnUse">
<stop stop-color="#F2D09F"/>
<stop offset="0.39" stop-color="#F0B393"/>
<stop offset="0.76" stop-color="#EF9E8B"/>
<stop offset="1" stop-color="#EF9688"/>
</linearGradient>
<linearGradient id="paint3_linear" x1="215.096" y1="397.94" x2="238.421" y2="518.967" gradientUnits="userSpaceOnUse">
<stop stop-color="#5D52EE"/>
<stop offset="0.03" stop-color="#6456E9"/>
<stop offset="0.57" stop-color="#E49C93"/>
<stop offset="0.78" stop-color="#F7D3CE"/>
<stop offset="0.95" stop-color="#FFFDFC"/>
<stop offset="1" stop-color="white"/>
</linearGradient>
<linearGradient id="paint4_linear" x1="326.296" y1="391.889" x2="311.356" y2="451.921" gradientUnits="userSpaceOnUse">
<stop stop-color="#F2D09F"/>
<stop offset="0.39" stop-color="#F0B393"/>
<stop offset="0.76" stop-color="#EF9E8B"/>
<stop offset="1" stop-color="#EF9688"/>
</linearGradient>
<linearGradient id="paint5_linear" x1="16542.7" y1="22224.8" x2="12997.7" y2="26314.7" gradientUnits="userSpaceOnUse">
<stop stop-color="#F2D09F"/>
<stop offset="0.39" stop-color="#F0B393"/>
<stop offset="0.76" stop-color="#EF9E8B"/>
<stop offset="1" stop-color="#EF9688"/>
</linearGradient>
<linearGradient id="paint6_linear" x1="302.135" y1="394.571" x2="300.17" y2="402.712" gradientUnits="userSpaceOnUse">
<stop stop-color="#F2D09F"/>
<stop offset="0.39" stop-color="#F0B393"/>
<stop offset="0.76" stop-color="#EF9E8B"/>
<stop offset="1" stop-color="#EF9688"/>
</linearGradient>
<linearGradient id="paint7_linear" x1="16588" y1="23296.4" x2="12850.1" y2="27417.3" gradientUnits="userSpaceOnUse">
<stop stop-color="#F2D09F"/>
<stop offset="0.39" stop-color="#F0B393"/>
<stop offset="0.76" stop-color="#EF9E8B"/>
<stop offset="1" stop-color="#EF9688"/>
</linearGradient>
<linearGradient id="paint8_linear" x1="312.79" y1="402.632" x2="310.564" y2="411.905" gradientUnits="userSpaceOnUse">
<stop stop-color="#F2D09F"/>
<stop offset="0.39" stop-color="#F0B393"/>
<stop offset="0.76" stop-color="#EF9E8B"/>
<stop offset="1" stop-color="#EF9688"/>
</linearGradient>
<linearGradient id="paint9_linear" x1="21597.7" y1="17925.5" x2="19218.5" y2="22410.6" gradientUnits="userSpaceOnUse">
<stop stop-color="#F2D09F"/>
<stop offset="0.39" stop-color="#F0B393"/>
<stop offset="0.76" stop-color="#EF9E8B"/>
<stop offset="1" stop-color="#EF9688"/>
</linearGradient>
<linearGradient id="paint10_linear" x1="306.747" y1="409.069" x2="306.292" y2="414.598" gradientUnits="userSpaceOnUse">
<stop stop-color="#F2D09F"/>
<stop offset="0.39" stop-color="#F0B393"/>
<stop offset="0.76" stop-color="#EF9E8B"/>
<stop offset="1" stop-color="#EF9688"/>
</linearGradient>
<linearGradient id="paint11_linear" x1="16671.8" y1="21202.4" x2="13330.5" y2="25278.8" gradientUnits="userSpaceOnUse">
<stop stop-color="#F2D09F"/>
<stop offset="0.39" stop-color="#F0B393"/>
<stop offset="0.76" stop-color="#EF9E8B"/>
<stop offset="1" stop-color="#EF9688"/>
</linearGradient>
<linearGradient id="paint12_linear" x1="330.21" y1="431.325" x2="328.718" y2="439.536" gradientUnits="userSpaceOnUse">
<stop stop-color="#F2D09F"/>
<stop offset="0.39" stop-color="#F0B393"/>
<stop offset="0.76" stop-color="#EF9E8B"/>
<stop offset="1" stop-color="#EF9688"/>
</linearGradient>
<linearGradient id="paint13_linear" x1="21604.6" y1="17935.5" x2="19229.1" y2="22416.7" gradientUnits="userSpaceOnUse">
<stop stop-color="#F2D09F"/>
<stop offset="0.39" stop-color="#F0B393"/>
<stop offset="0.76" stop-color="#EF9E8B"/>
<stop offset="1" stop-color="#EF9688"/>
</linearGradient>
<linearGradient id="paint14_linear" x1="323.994" y1="439.742" x2="323.582" y2="445.011" gradientUnits="userSpaceOnUse">
<stop stop-color="#F2D09F"/>
<stop offset="0.39" stop-color="#F0B393"/>
<stop offset="0.76" stop-color="#EF9E8B"/>
<stop offset="1" stop-color="#EF9688"/>
</linearGradient>
<linearGradient id="paint15_linear" x1="16695.5" y1="21868.6" x2="13225.7" y2="25974.7" gradientUnits="userSpaceOnUse">
<stop stop-color="#F2D09F"/>
<stop offset="0.39" stop-color="#F0B393"/>
<stop offset="0.76" stop-color="#EF9E8B"/>
<stop offset="1" stop-color="#EF9688"/>
</linearGradient>
<linearGradient id="paint16_linear" x1="326.408" y1="417.261" x2="324.687" y2="425.794" gradientUnits="userSpaceOnUse">
<stop stop-color="#F2D09F"/>
<stop offset="0.39" stop-color="#F0B393"/>
<stop offset="0.76" stop-color="#EF9E8B"/>
<stop offset="1" stop-color="#EF9688"/>
</linearGradient>
<linearGradient id="paint17_linear" x1="21447.9" y1="17735.4" x2="19101.4" y2="22176.5" gradientUnits="userSpaceOnUse">
<stop stop-color="#F2D09F"/>
<stop offset="0.39" stop-color="#F0B393"/>
<stop offset="0.76" stop-color="#EF9E8B"/>
<stop offset="1" stop-color="#EF9688"/>
</linearGradient>
<linearGradient id="paint18_linear" x1="318.485" y1="420.843" x2="318.077" y2="426.08" gradientUnits="userSpaceOnUse">
<stop stop-color="#F2D09F"/>
<stop offset="0.39" stop-color="#F0B393"/>
<stop offset="0.76" stop-color="#EF9E8B"/>
<stop offset="1" stop-color="#EF9688"/>
</linearGradient>
<linearGradient id="paint19_linear" x1="144.581" y1="330.521" x2="79.5428" y2="388.461" gradientUnits="userSpaceOnUse">
<stop stop-color="#F2D09F"/>
<stop offset="0.39" stop-color="#F0B393"/>
<stop offset="0.76" stop-color="#EF9E8B"/>
<stop offset="1" stop-color="#EF9688"/>
</linearGradient>
<linearGradient id="paint20_linear" x1="29512.1" y1="42219.4" x2="22664.9" y2="49663.3" gradientUnits="userSpaceOnUse">
<stop stop-color="#F2D09F"/>
<stop offset="0.39" stop-color="#F0B393"/>
<stop offset="0.76" stop-color="#EF9E8B"/>
<stop offset="1" stop-color="#EF9688"/>
</linearGradient>
<linearGradient id="paint21_linear" x1="151.059" y1="335.513" x2="147.192" y2="351.686" gradientUnits="userSpaceOnUse">
<stop stop-color="#F2D09F"/>
<stop offset="0.39" stop-color="#F0B393"/>
<stop offset="0.76" stop-color="#EF9E8B"/>
<stop offset="1" stop-color="#EF9688"/>
</linearGradient>
<linearGradient id="paint22_linear" x1="30044.4" y1="37918" x2="24017.2" y2="45360.2" gradientUnits="userSpaceOnUse">
<stop stop-color="#F2D09F"/>
<stop offset="0.39" stop-color="#F0B393"/>
<stop offset="0.76" stop-color="#EF9E8B"/>
<stop offset="1" stop-color="#EF9688"/>
</linearGradient>
<linearGradient id="paint23_linear" x1="140.042" y1="358.46" x2="137.271" y2="373.431" gradientUnits="userSpaceOnUse">
<stop stop-color="#F2D09F"/>
<stop offset="0.39" stop-color="#F0B393"/>
<stop offset="0.76" stop-color="#EF9E8B"/>
<stop offset="1" stop-color="#EF9688"/>
</linearGradient>
<linearGradient id="paint24_linear" x1="36878.7" y1="32360.3" x2="32395" y2="40339.7" gradientUnits="userSpaceOnUse">
<stop stop-color="#F2D09F"/>
<stop offset="0.39" stop-color="#F0B393"/>
<stop offset="0.76" stop-color="#EF9E8B"/>
<stop offset="1" stop-color="#EF9688"/>
</linearGradient>
<linearGradient id="paint25_linear" x1="156.054" y1="362.628" x2="155.302" y2="371.899" gradientUnits="userSpaceOnUse">
<stop stop-color="#F2D09F"/>
<stop offset="0.39" stop-color="#F0B393"/>
<stop offset="0.76" stop-color="#EF9E8B"/>
<stop offset="1" stop-color="#EF9688"/>
</linearGradient>
<linearGradient id="paint26_linear" x1="34107.8" y1="32995.5" x2="29326.7" y2="40728.3" gradientUnits="userSpaceOnUse">
<stop stop-color="#F2D09F"/>
<stop offset="0.39" stop-color="#F0B393"/>
<stop offset="0.76" stop-color="#EF9E8B"/>
<stop offset="1" stop-color="#EF9688"/>
</linearGradient>
<linearGradient id="paint27_linear" x1="134.953" y1="419.426" x2="133.816" y2="430.308" gradientUnits="userSpaceOnUse">
<stop stop-color="#F2D09F"/>
<stop offset="0.39" stop-color="#F0B393"/>
<stop offset="0.76" stop-color="#EF9E8B"/>
<stop offset="1" stop-color="#EF9688"/>
</linearGradient>
<linearGradient id="paint28_linear" x1="36227.3" y1="32298.4" x2="31729.3" y2="40193.5" gradientUnits="userSpaceOnUse">
<stop stop-color="#F2D09F"/>
<stop offset="0.39" stop-color="#F0B393"/>
<stop offset="0.76" stop-color="#EF9E8B"/>
<stop offset="1" stop-color="#EF9688"/>
</linearGradient>
<linearGradient id="paint29_linear" x1="150.855" y1="425.791" x2="149.957" y2="435.838" gradientUnits="userSpaceOnUse">
<stop stop-color="#F2D09F"/>
<stop offset="0.39" stop-color="#F0B393"/>
<stop offset="0.76" stop-color="#EF9E8B"/>
<stop offset="1" stop-color="#EF9688"/>
</linearGradient>
<linearGradient id="paint30_linear" x1="33036.3" y1="33268.7" x2="28125.4" y2="40892" gradientUnits="userSpaceOnUse">
<stop stop-color="#F2D09F"/>
<stop offset="0.39" stop-color="#F0B393"/>
<stop offset="0.76" stop-color="#EF9E8B"/>
<stop offset="1" stop-color="#EF9688"/>
</linearGradient>
<linearGradient id="paint31_linear" x1="130.572" y1="394.015" x2="129.314" y2="405.34" gradientUnits="userSpaceOnUse">
<stop stop-color="#F2D09F"/>
<stop offset="0.39" stop-color="#F0B393"/>
<stop offset="0.76" stop-color="#EF9E8B"/>
<stop offset="1" stop-color="#EF9688"/>
</linearGradient>
<linearGradient id="paint32_linear" x1="34999.7" y1="32464.7" x2="30380.9" y2="40247.6" gradientUnits="userSpaceOnUse">
<stop stop-color="#F2D09F"/>
<stop offset="0.39" stop-color="#F0B393"/>
<stop offset="0.76" stop-color="#EF9E8B"/>
<stop offset="1" stop-color="#EF9688"/>
</linearGradient>
<linearGradient id="paint33_linear" x1="145.814" y1="391.006" x2="144.784" y2="401.564" gradientUnits="userSpaceOnUse">
<stop stop-color="#F2D09F"/>
<stop offset="0.39" stop-color="#F0B393"/>
<stop offset="0.76" stop-color="#EF9E8B"/>
<stop offset="1" stop-color="#EF9688"/>
</linearGradient>
<linearGradient id="paint34_linear" x1="667.948" y1="8.12824" x2="664.555" y2="52.9737" gradientUnits="userSpaceOnUse">
<stop stop-color="#FDE7EB"/>
<stop offset="1" stop-color="#F7F0FF"/>
</linearGradient>
</defs>
</svg>
