<svg width="177" height="176" viewBox="0 0 177 176" fill="none" xmlns="http://www.w3.org/2000/svg">
<path d="M176.022 88C176.022 99.5563 173.746 110.999 169.323 121.676C164.901 132.353 158.419 142.054 150.247 150.225C142.076 158.397 132.375 164.879 121.698 169.301C111.021 173.724 99.578 176 88.0217 176C76.4654 176 65.0222 173.724 54.3456 169.301C43.6689 164.879 33.9679 158.397 25.7963 150.225C17.6248 142.054 11.1427 132.353 6.72033 121.676C2.29791 110.999 0.0217275 99.5563 0.0217285 88H16.2531C16.2531 97.4248 18.1095 106.757 21.7162 115.465C25.3229 124.172 30.6093 132.084 37.2736 138.748C43.938 145.412 51.8497 150.699 60.5571 154.306C69.2644 157.912 78.5969 159.769 88.0217 159.769C97.4465 159.769 106.779 157.912 115.486 154.306C124.194 150.699 132.105 145.412 138.77 138.748C145.434 132.084 150.721 124.172 154.327 115.465C157.934 106.757 159.79 97.4248 159.79 88H176.022Z" fill="white"/>
<path d="M95.6009 175.673C110.262 174.406 124.372 169.482 136.638 161.352C148.904 153.222 158.936 142.145 165.815 129.136C172.694 116.127 176.201 101.601 176.015 86.8859C175.828 72.1711 171.955 57.738 164.749 44.9072L150.597 52.8556C156.474 63.3197 159.633 75.0907 159.785 87.0914C159.937 99.092 157.077 110.939 151.466 121.549C145.856 132.158 137.675 141.192 127.671 147.822C117.667 154.453 106.16 158.468 94.203 159.502L95.6009 175.673Z" fill="#F5386E"/>
</svg>
