<svg width="274" height="55" viewBox="0 0 274 55" fill="none" xmlns="http://www.w3.org/2000/svg">
<path d="M273.447 54.676L237.912 50.4381C237.912 50.4381 222.288 34.3241 208.613 32.6256C194.939 30.9271 189.083 31.778 189.083 31.778C189.083 31.778 190.986 14.0224 170.197 14.0224C152.667 14.0224 152.948 25.0041 152.948 25.0041C152.948 25.0041 140.252 17.3692 131.462 26.6992C131.462 26.6992 119.737 -3.83707 87.5144 0.404175C55.2917 4.64542 53.3455 36.0293 53.3455 36.0293C53.3455 36.0293 26.0002 34.3341 11.3511 47.0579C6.946 50.8837 3.16393 53.2422 0.0217285 54.6861L273.447 54.676Z" fill="url(#paint0_linear)"/>
<defs>
<linearGradient id="paint0_linear" x1="492986" y1="11659.1" x2="492974" y2="18811.5" gradientUnits="userSpaceOnUse">
<stop stop-color="#FDE7EB"/>
<stop offset="1" stop-color="#F7F0FF"/>
</linearGradient>
</defs>
</svg>
