<svg width="140" height="35" viewBox="0 0 140 35" fill="none" xmlns="http://www.w3.org/2000/svg">
<path d="M138.944 33.2256C140.008 25.5155 129.112 19.1667 120.94 18.5108C117.027 18.189 112.979 18.7954 109.276 17.5084C101.278 14.7114 98.1326 4.36531 90.2576 1.07336C84.4133 -1.40179 77.6899 0.801092 72.019 3.65989C66.348 6.51869 60.7637 10.0953 54.4365 10.4913C48.9265 10.8502 42.946 8.80821 38.1294 11.4937C34.5511 13.4986 32.669 17.6816 29.363 20.0701C26.057 22.4587 21.9338 22.9537 17.8849 23.1765C13.836 23.3992 9.71279 23.4364 6.0601 25.1071C2.40741 26.7778 -0.626173 30.6514 0.14151 34.5869L138.944 33.2256Z" fill="#EBEBEB"/>
</svg>
