<svg width="47" height="12" viewBox="0 0 47 12" fill="none" xmlns="http://www.w3.org/2000/svg">
<path d="M46.6271 11.1573C46.9862 8.57073 43.3335 6.4421 40.5847 6.20696C39.2757 6.25839 37.9655 6.14614 36.6843 5.87282C33.9975 4.93226 32.9697 1.46705 30.2952 0.353232C28.3389 -0.463567 26.0854 0.266598 24.1785 1.21953C22.2717 2.17246 20.402 3.38529 18.2847 3.52142C16.4398 3.6328 14.4339 2.95213 12.8119 3.85556C11.5737 4.52385 10.9794 5.90994 9.87736 6.72674C8.71498 7.45878 7.36295 7.83319 5.9894 7.80343C4.63575 7.76517 3.28712 7.98353 2.01479 8.44697C1.38442 8.69106 0.850402 9.13317 0.493115 9.70678C0.135829 10.2804 -0.0254013 10.9544 0.0336654 11.6275L46.6271 11.1573Z" fill="#F5F5F5"/>
</svg>
