<svg xmlns="http://www.w3.org/2000/svg" xmlns:xlink="http://www.w3.org/1999/xlink" viewBox="0 0 116 29">
  <defs>
    <style>
      .cls-1 {
        clip-path: url(#clip-Custom_Size_1);
      }

      .cls-2 {
        fill: #17b6ff;
      }

      .cls-2, .cls-3 {
        stroke: rgba(0,0,0,0);
      }

      .cls-3 {
        fill: #f22074;
      }

      .cls-4 {
        fill: #fff;
      }
    </style>
    <clipPath id="clip-Custom_Size_1">
      <rect width="116" height="29"/>
    </clipPath>
  </defs>
  <g id="Custom_Size_1" data-name="Custom Size – 1" class="cls-1">
    <rect class="cls-4" width="116" height="29"/>
    <path id="Path_1" data-name="Path 1" class="cls-2" d="M8.59-15.375a2.265,2.265,0,0,0,.451,1.383,5.127,5.127,0,0,0,1.2,1.131,13.083,13.083,0,0,0,1.688.99q.943.469,1.934.967t1.934,1.066a9.5,9.5,0,0,1,1.688,1.283,5.87,5.87,0,0,1,1.2,1.617,4.551,4.551,0,0,1,.451,2.063,5.366,5.366,0,0,1-.34,1.939,5.519,5.519,0,0,1-.932,1.588,6.6,6.6,0,0,1-1.4,1.242,8.543,8.543,0,0,1-1.746.891,11.056,11.056,0,0,1-1.969.533,11.935,11.935,0,0,1-2.074.182,11.333,11.333,0,0,1-2.848-.357A7.984,7.984,0,0,1,5.355.064a5.644,5.644,0,0,1-1.729-1.8,4.837,4.837,0,0,1-.65-2.537A3.364,3.364,0,0,1,3.217-5.6a3.179,3.179,0,0,1,.6-.949,2.5,2.5,0,0,1,.779-.574,1.9,1.9,0,0,1,.785-.193.961.961,0,0,1,.627.205.775.775,0,0,1,.252.639,2.051,2.051,0,0,1-.047.422q-.047.223-.1.486t-.1.58a4.732,4.732,0,0,0-.047.691A2.613,2.613,0,0,0,6.34-2.871a3.076,3.076,0,0,0,1,.984,4.686,4.686,0,0,0,1.43.574,7.4,7.4,0,0,0,1.676.188,8.663,8.663,0,0,0,2.039-.246A6.575,6.575,0,0,0,14.309-2.1a4.305,4.305,0,0,0,1.313-1.178,2.661,2.661,0,0,0,.5-1.6,2.565,2.565,0,0,0-.451-1.488,5.231,5.231,0,0,0-1.2-1.213,12.192,12.192,0,0,0-1.693-1.049q-.949-.492-1.934-1T8.918-10.682a10.4,10.4,0,0,1-1.693-1.225,5.628,5.628,0,0,1-1.2-1.494,3.86,3.86,0,0,1-.451-1.881,4.316,4.316,0,0,1,.475-1.939,5.063,5.063,0,0,1,1.43-1.711,7.647,7.647,0,0,1,2.385-1.225,10.781,10.781,0,0,1,3.352-.469,7.972,7.972,0,0,1,2.385.363,7.048,7.048,0,0,1,2.08,1.031,5.429,5.429,0,0,1,1.471,1.594,3.9,3.9,0,0,1,.557,2.051,4.423,4.423,0,0,1-.229,1.371,6.1,6.1,0,0,1-.732,1.465,3.594,3.594,0,0,1-1.072,1.1,2.048,2.048,0,0,1-1.049.357.814.814,0,0,1-.574-.205.8.8,0,0,1-.223-.615,2.305,2.305,0,0,1,.141-.721,4.634,4.634,0,0,1,.48-.955,4.827,4.827,0,0,0,.469-.967,2.631,2.631,0,0,0,.152-.838,1.758,1.758,0,0,0-.322-1.049,2.548,2.548,0,0,0-.891-.756,4.787,4.787,0,0,0-1.365-.457,9.315,9.315,0,0,0-1.746-.152,6.252,6.252,0,0,0-1.834.24,4.38,4.38,0,0,0-1.3.621,2.579,2.579,0,0,0-.773.85A1.945,1.945,0,0,0,8.59-15.375Zm19.848,4.453a7.127,7.127,0,0,1-.07.861q-.07.545-.182,1.2t-.3,1.559q-.193.908-.3,1.506t-.182,1.049a4.832,4.832,0,0,0-.07.627q0,.328.012.6a2.083,2.083,0,0,0,.07.48.659.659,0,0,0,.182.316.516.516,0,0,0,.357.111,1.964,1.964,0,0,0,.627-.129,5.974,5.974,0,0,0,.785-.346q.416-.217.85-.492t.826-.58q.393-.3.715-.6a4.692,4.692,0,0,0,.521-.557q0,.387.006.7t.006.6q0,.287.006.592t.006.68a6.594,6.594,0,0,1-.639.551q-.381.293-.844.586t-.984.563a10.846,10.846,0,0,1-1.049.475,8.005,8.005,0,0,1-1.043.328,4.155,4.155,0,0,1-.961.123,1.546,1.546,0,0,1-.762-.176,1.671,1.671,0,0,1-.545-.492,3.047,3.047,0,0,1-.387-.756A7.768,7.768,0,0,1,24.8-2.52a9.775,9.775,0,0,1-.891,1.014,7.385,7.385,0,0,1-.955.8,4.677,4.677,0,0,1-.984.533,2.664,2.664,0,0,1-.967.193,2.031,2.031,0,0,1-.727-.129,1.5,1.5,0,0,1-.6-.434,2.19,2.19,0,0,1-.416-.8,4.286,4.286,0,0,1-.152-1.236,10.346,10.346,0,0,1,.223-2.355A24.792,24.792,0,0,0,19.988-8.5q.023-.176.088-.475t.176-.65a6.524,6.524,0,0,1,.275-.715,3.376,3.376,0,0,1,.387-.656,1.962,1.962,0,0,1,.521-.48,1.322,1.322,0,0,1,.674-.2,2.336,2.336,0,0,1,.891.158q.27.135.27.334-.105.621-.229,1.383t-.252,1.535q-.129.773-.311,1.723T22.2-5.016q-.094.574-.146.926T22-3.727a1.944,1.944,0,0,0,.041.4,1.29,1.29,0,0,0,.123.346.721.721,0,0,0,.211.246.5.5,0,0,0,.3.094,1.174,1.174,0,0,0,.527-.135,1.732,1.732,0,0,0,.5-.393,2.173,2.173,0,0,0,.434-.609,3.148,3.148,0,0,0,.281-.844L25.719-11q.059-.281.475-.475a2.213,2.213,0,0,1,.943-.193,1.838,1.838,0,0,1,.949.211A.62.62,0,0,1,28.438-10.922ZM30.91-2.449q0-.516.059-1.2T31.127-5.1q.1-.762.234-1.553t.346-1.687q.211-.9.363-1.494a8.439,8.439,0,0,1,.3-.984,2.3,2.3,0,0,1,.188-.41.813.813,0,0,1,.217-.24.711.711,0,0,1,.3-.117,2.9,2.9,0,0,1,.451-.029,2.958,2.958,0,0,1,.475.029.377.377,0,0,1,.252.141.629.629,0,0,1,.1.322q.018.211.018.574,0,.434-.059,1.23a12.583,12.583,0,0,0-.035,1.395h.129q.234-.469.586-1.23a6.685,6.685,0,0,1,.738-1.266,4.017,4.017,0,0,1,.879-.85,1.928,1.928,0,0,1,1.137-.346,1.267,1.267,0,0,1,.434.076,1.124,1.124,0,0,1,.369.217,1.027,1.027,0,0,1,.252.346,1.1,1.1,0,0,1,.094.463,3.681,3.681,0,0,1-.059.557q-.059.357-.187.932t-.187.943a4.055,4.055,0,0,0-.059.615,2.553,2.553,0,0,0,.082.7,1.313,1.313,0,0,0,.217.451.764.764,0,0,0,.3.24.926.926,0,0,0,.357.07,2.826,2.826,0,0,0,1.09-.234,7.08,7.08,0,0,0,1.031-.527,9.808,9.808,0,0,0,1.078-.773l-.176,2.742q-.3.2-.691.445a8.739,8.739,0,0,1-.826.463,6.186,6.186,0,0,1-.914.363A3.26,3.26,0,0,1,39-3.375a2.526,2.526,0,0,1-1.418-.357,2.6,2.6,0,0,1-.855-.937,4.753,4.753,0,0,1-.469-1.3q-.152-.721-.246-1.459H35.82l-2.1,5.848a7.551,7.551,0,0,1-.311.756,2.566,2.566,0,0,1-.3.486.883.883,0,0,1-.328.264A.962.962,0,0,1,32.4,0a1.323,1.323,0,0,1-.773-.205,1.335,1.335,0,0,1-.451-.551,2.631,2.631,0,0,1-.211-.785A7.62,7.62,0,0,1,30.91-2.449Zm9.4,2.895q0-.059.029-.715t.111-1.746q.082-1.09.223-2.514t.369-3.012q.229-1.588.539-3.258t.738-3.252a28.4,28.4,0,0,1,.979-2.982,13.509,13.509,0,0,1,1.236-2.449,6.18,6.18,0,0,1,1.529-1.658,3.094,3.094,0,0,1,1.852-.609,2.749,2.749,0,0,1,.838.141,2.264,2.264,0,0,1,.8.457,2.449,2.449,0,0,1,.6.838,3.059,3.059,0,0,1,.24,1.283,6.853,6.853,0,0,1-.217,1.588,15.51,15.51,0,0,1-.609,1.916q-.393,1.02-.926,2.121t-1.166,2.2q-.633,1.1-1.33,2.156T44.727-7.066l-.023.188a2.478,2.478,0,0,1,.352-.152.852.852,0,0,1,.246-.035.847.847,0,0,1,.246.029,1.409,1.409,0,0,1,.17.064q.076.035.158.064a.6.6,0,0,0,.2.029,6.95,6.95,0,0,0,2.051-.275,7.879,7.879,0,0,0,1.5-.615,5.518,5.518,0,0,0,1.242-.9L50.61-5.824a7.633,7.633,0,0,1-1.617.656,14.828,14.828,0,0,1-1.559.352,14.974,14.974,0,0,1-1.652.164,15.923,15.923,0,0,1,.762,1.605,13.688,13.688,0,0,1,.533,1.6A6.792,6.792,0,0,1,47.317.34q0,.105-.029.445t-.1.832q-.07.492-.2,1.09a11.164,11.164,0,0,1-.334,1.207,8.447,8.447,0,0,1-.5,1.178A4.814,4.814,0,0,1,45.471,6.1a3.222,3.222,0,0,1-.9.709,2.431,2.431,0,0,1-1.154.27,2.118,2.118,0,0,1-1.125-.293,2.677,2.677,0,0,1-.82-.791,4.862,4.862,0,0,1-.568-1.16,9.066,9.066,0,0,1-.357-1.4,14.546,14.546,0,0,1-.182-1.506Q40.309,1.16,40.309.445Zm3.129-6.152q-.047,0-.105.264t-.111.68q-.053.416-.1,1.2t-.082,1.277q-.035.5-.059.926t-.023.674q0,1.723.064,2.742A13.6,13.6,0,0,0,43.186,3.6a1.816,1.816,0,0,0,.223.686.335.335,0,0,0,.252.158.734.734,0,0,0,.639-.363,2.727,2.727,0,0,0,.363-.92,7.929,7.929,0,0,0,.164-1.219q.041-.662.041-1.271,0-.41-.023-1.008t-.07-1.3q-.047-.7-.193-1.611a4.147,4.147,0,0,0-.41-1.365q-.264-.457-.428-.773T43.438-5.707Zm2.848-12.258A29.57,29.57,0,0,0,45.207-15q-.387,1.289-.58,2.285t-.275,1.752q-.082.756-.164,1.4.715-1.348,1.477-2.625t1.348-2.4a23.241,23.241,0,0,0,1-2.162,4.767,4.767,0,0,0,.416-1.488,1.8,1.8,0,0,0-.176-.908.633.633,0,0,0-.586-.287.977.977,0,0,0-.82.281A8.306,8.306,0,0,0,46.285-17.965Z" transform="translate(-2 22)"/>
    <path id="Path_2" data-name="Path 2" class="cls-3" d="M17.309-2.93A11.109,11.109,0,0,1,15.17-1.166,14.583,14.583,0,0,1,12.686.1a14.853,14.853,0,0,1-2.631.768,13.659,13.659,0,0,1-2.59.258A10.143,10.143,0,0,1,4.863.8,6.374,6.374,0,0,1,2.73-.182,4.8,4.8,0,0,1,1.283-1.857,5.107,5.107,0,0,1,.75-4.266a6.168,6.168,0,0,1,.428-2.273A5.288,5.288,0,0,1,2.5-8.473,6.659,6.659,0,0,1,4.8-9.832a10.474,10.474,0,0,1,3.357-.562,6.259,6.259,0,0,1-2.25-.369,4.542,4.542,0,0,1-1.594-1,4.054,4.054,0,0,1-.949-1.465A4.983,4.983,0,0,1,3.047-15a4.112,4.112,0,0,1,.3-1.605,4.472,4.472,0,0,1,.838-1.307,5.582,5.582,0,0,1,1.26-1.014,8.167,8.167,0,0,1,1.576-.721,10.787,10.787,0,0,1,1.781-.434,12.091,12.091,0,0,1,1.881-.146,12.05,12.05,0,0,1,2.684.3,8.166,8.166,0,0,1,2.332.9,5.092,5.092,0,0,1,1.641,1.494,3.582,3.582,0,0,1,.621,2.092,1.439,1.439,0,0,1-.287.832,3.578,3.578,0,0,1-.686.732,3.7,3.7,0,0,1-.838.516,1.907,1.907,0,0,1-.732.193q-.246,0-.246-.434a5.251,5.251,0,0,1,.123-1,14.745,14.745,0,0,1,.416-1.523,3.9,3.9,0,0,0-.926-.516,11.082,11.082,0,0,0-1.377-.469,14.677,14.677,0,0,0-1.635-.346,11.13,11.13,0,0,0-1.711-.135,7.758,7.758,0,0,0-1.5.141,3.955,3.955,0,0,0-1.26.463,2.475,2.475,0,0,0-.867.85,2.452,2.452,0,0,0-.322,1.3,2.266,2.266,0,0,0,.229,1.066,2.321,2.321,0,0,0,.609.738,3.344,3.344,0,0,0,.873.5q.492.193,1.02.346t1.037.293a7.508,7.508,0,0,1,.938.322,2.647,2.647,0,0,1,.721.439,1.221,1.221,0,0,1,.387.645q.023.246.047.5T12-9.5a1.5,1.5,0,0,1-.246.955,1.211,1.211,0,0,1-.961.3q-.3,0-.756-.035T9.176-8.32a7.121,7.121,0,0,0-1.84.24,5.421,5.421,0,0,0-1.617.715A3.882,3.882,0,0,0,4.564-6.193,2.979,2.979,0,0,0,4.125-4.57a3.72,3.72,0,0,0,.252,1.465,2.422,2.422,0,0,0,.691.943,2.661,2.661,0,0,0,1.037.51A5.207,5.207,0,0,0,7.395-1.5a9.891,9.891,0,0,0,1.746-.164,14.6,14.6,0,0,0,1.822-.451,15.6,15.6,0,0,0,1.77-.68,14.977,14.977,0,0,0,1.6-.844,9.17,9.17,0,0,0,1.3-.949,4.425,4.425,0,0,0,.867-1Zm11.6.059a10.91,10.91,0,0,1-.721.879,8.83,8.83,0,0,1-1.014.961,6.338,6.338,0,0,1-1.207.773A2.9,2.9,0,0,1,24.68.059a1.782,1.782,0,0,1-1.289-.5A4.065,4.065,0,0,1,22.5-1.887a5.69,5.69,0,0,1-.691.668,6.153,6.153,0,0,1-.9.615A5.73,5.73,0,0,1,19.9-.152a3.318,3.318,0,0,1-1.055.176,2.756,2.756,0,0,1-1.1-.229A2.853,2.853,0,0,1,16.8-.861,3.208,3.208,0,0,1,16.148-1.9,3.712,3.712,0,0,1,15.9-3.293a7.01,7.01,0,0,1,.246-1.8,11.606,11.606,0,0,1,.762-2,10.919,10.919,0,0,1,1.107-1.863,8.192,8.192,0,0,1,1.295-1.371,6.312,6.312,0,0,1,1.482-.932,3.881,3.881,0,0,1,1.588-.346.732.732,0,0,1,.422.105,1.059,1.059,0,0,1,.252.24L23.25-11a.545.545,0,0,0,.234.188,1.077,1.077,0,0,0,.287.076,2.506,2.506,0,0,0,.3.018q.129,0,.264-.006t.264-.006a1.457,1.457,0,0,1,.328.035.551.551,0,0,1,.27.152.775.775,0,0,1,.182.328,2.038,2.038,0,0,1,.064.574A7.463,7.463,0,0,1,25.324-8.4q-.117.686-.258,1.406t-.34,1.635a7.508,7.508,0,0,0-.2,1.559,2.936,2.936,0,0,0,.1.861.411.411,0,0,0,.428.311,1.241,1.241,0,0,0,.516-.123,3.206,3.206,0,0,0,.545-.322,6.215,6.215,0,0,0,.551-.451q.275-.252.521-.521a17.966,17.966,0,0,0,1.16-1.43ZM18.9-3.8a3.854,3.854,0,0,0,.041.568,1.687,1.687,0,0,0,.146.492.968.968,0,0,0,.281.352.711.711,0,0,0,.445.135,1.057,1.057,0,0,0,.785-.375,3.654,3.654,0,0,0,.609-.9,6.457,6.457,0,0,0,.416-1.09,6.635,6.635,0,0,0,.205-.937l.879-3.832a1.992,1.992,0,0,0-.937.24,3.5,3.5,0,0,0-.861.65,5.82,5.82,0,0,0-.744.938,8.672,8.672,0,0,0-.668,1.3A8.367,8.367,0,0,0,19.037-4.9,4.926,4.926,0,0,0,18.9-3.8ZM28.02-2.449q0-.516.059-1.2T28.236-5.1q.1-.762.234-1.553t.346-1.687q.211-.9.363-1.494a8.439,8.439,0,0,1,.3-.984,2.3,2.3,0,0,1,.188-.41.813.813,0,0,1,.217-.24.711.711,0,0,1,.3-.117,2.9,2.9,0,0,1,.451-.029,2.958,2.958,0,0,1,.475.029.377.377,0,0,1,.252.141.629.629,0,0,1,.1.322q.018.211.018.574,0,.434-.059,1.23a12.583,12.583,0,0,0-.035,1.395h.129q.234-.469.586-1.23a6.685,6.685,0,0,1,.738-1.266,4.017,4.017,0,0,1,.879-.85,1.928,1.928,0,0,1,1.137-.346,1.267,1.267,0,0,1,.434.076,1.124,1.124,0,0,1,.369.217,1.027,1.027,0,0,1,.252.346,1.1,1.1,0,0,1,.094.463,3.681,3.681,0,0,1-.059.557q-.059.357-.187.932t-.187.943a4.055,4.055,0,0,0-.059.615,2.553,2.553,0,0,0,.082.7,1.313,1.313,0,0,0,.217.451.764.764,0,0,0,.3.24A.926.926,0,0,0,36.48-6a2.826,2.826,0,0,0,1.09-.234A7.08,7.08,0,0,0,38.6-6.762a9.808,9.808,0,0,0,1.078-.773L39.5-4.793q-.3.2-.691.445a8.739,8.739,0,0,1-.826.463,6.186,6.186,0,0,1-.914.363,3.26,3.26,0,0,1-.967.146,2.526,2.526,0,0,1-1.418-.357,2.6,2.6,0,0,1-.855-.937,4.753,4.753,0,0,1-.469-1.3q-.152-.721-.246-1.459H32.93l-2.1,5.848a7.551,7.551,0,0,1-.311.756,2.566,2.566,0,0,1-.3.486.883.883,0,0,1-.328.264A.962.962,0,0,1,29.508,0a1.323,1.323,0,0,1-.773-.205,1.335,1.335,0,0,1-.451-.551,2.631,2.631,0,0,1-.211-.785A7.62,7.62,0,0,1,28.02-2.449Zm10.1,0q0-.773.094-1.787t.234-2.227q.141-1.213.316-2.186t.34-1.664a1.835,1.835,0,0,1,.5-.9,1.366,1.366,0,0,1,1-.363.96.96,0,0,1,.879.387,1.9,1.9,0,0,1,.246,1.031,4.288,4.288,0,0,1-.035.475q-.035.3-.088.656t-.111.738q-.059.381-.111.867T41.3-6.7a2.774,2.774,0,0,0-.035.322H41.5q.07-.129.223-.416a7.126,7.126,0,0,0,.352-.826,7.1,7.1,0,0,1,.428-.955q.229-.416.428-.8t.363-.674q.164-.293.246-.434a2.12,2.12,0,0,1,.855-.867,2.4,2.4,0,0,1,1.066-.234,1.082,1.082,0,0,1,.932.492,2.333,2.333,0,0,1,.346,1.359,2.938,2.938,0,0,1-.053.434q-.053.3-.135.727t-.182,1.09q-.1.668-.182,1.2t-.135,1.043A9.382,9.382,0,0,0,46-4.289a3.346,3.346,0,0,0,.182,1.2.609.609,0,0,0,.568.469,1.156,1.156,0,0,0,.4-.105,1.524,1.524,0,0,0,.492-.246,3.655,3.655,0,0,1,.539-.387,5.786,5.786,0,0,0,.785-.469Q49.9-4.43,51.2-5.3l-.012,2.625-.586.445q-.07.059-1.1.609-1.488.8-1.863.961A11.1,11.1,0,0,1,46.5-.187,4.013,4.013,0,0,1,45.27,0q-.645,0-1.084-.932a6.611,6.611,0,0,1-.439-2.725,13.322,13.322,0,0,1,.094-1.518q.094-.814.234-1.752h-.187L40.816-.832a1.522,1.522,0,0,1-.527.656,1.3,1.3,0,0,1-.68.176,1.323,1.323,0,0,1-.773-.205,1.335,1.335,0,0,1-.451-.551,2.631,2.631,0,0,1-.211-.785A7.62,7.62,0,0,1,38.121-2.449ZM53.449,0a4.391,4.391,0,0,1-1.928-.4,3.988,3.988,0,0,1-1.377-1.072,4.589,4.589,0,0,1-.826-1.559,6.214,6.214,0,0,1-.275-1.857,6.124,6.124,0,0,1,.246-1.564q.246-.908.51-1.611A7.513,7.513,0,0,1,50.461-9.4a5.333,5.333,0,0,1,.932-1.125,4.3,4.3,0,0,1,1.2-.773,3.659,3.659,0,0,1,1.471-.287,3.444,3.444,0,0,1,1.219.211,2.983,2.983,0,0,1,.979.592,2.678,2.678,0,0,1,.65.92,3,3,0,0,1,.234,1.207,3.564,3.564,0,0,1-.475,1.629,6.521,6.521,0,0,1-1.107,1.547,6.991,6.991,0,0,1-1.506,1.148,8.05,8.05,0,0,1-1.893.785,3.743,3.743,0,0,0,.346.527,1.58,1.58,0,0,0,.346.328,1.152,1.152,0,0,0,.369.164,1.762,1.762,0,0,0,.416.047,4.368,4.368,0,0,0,1.482-.281,9.675,9.675,0,0,0,1.518-.7,12.844,12.844,0,0,0,1.395-.92,11.984,11.984,0,0,0,1.113-.943l1.512,1.57a15.483,15.483,0,0,1-2.191,1.887q-.5.352-1.084.691a9.822,9.822,0,0,1-1.219.6,8.433,8.433,0,0,1-1.324.422A6.156,6.156,0,0,1,53.449,0ZM51.891-5.508a2.322,2.322,0,0,0,.92-.217,4.136,4.136,0,0,0,.926-.557,4.49,4.49,0,0,0,.838-.914,1.786,1.786,0,0,0,.41-.949,1.738,1.738,0,0,0-.193-.867.556.556,0,0,0-.475-.34,1.833,1.833,0,0,0-.861.188,1.871,1.871,0,0,0-.6.486,2.52,2.52,0,0,0-.387.68q-.146.381-.34.943a3.725,3.725,0,0,0-.217.926Q51.891-5.766,51.891-5.508Zm6.434,3.059q0-.516.059-1.2T58.541-5.1q.1-.762.234-1.553t.346-1.687q.211-.9.363-1.494a8.439,8.439,0,0,1,.3-.984,2.3,2.3,0,0,1,.188-.41.813.813,0,0,1,.217-.24.711.711,0,0,1,.3-.117,2.9,2.9,0,0,1,.451-.029,2.958,2.958,0,0,1,.475.029.377.377,0,0,1,.252.141.629.629,0,0,1,.1.322q.018.211.018.574,0,.434-.059,1.23A12.583,12.583,0,0,0,61.7-7.922h.129q.234-.469.586-1.23a6.685,6.685,0,0,1,.738-1.266,4.017,4.017,0,0,1,.879-.85,1.928,1.928,0,0,1,1.137-.346,1.267,1.267,0,0,1,.434.076,1.124,1.124,0,0,1,.369.217,1.027,1.027,0,0,1,.252.346,1.1,1.1,0,0,1,.094.463,3.681,3.681,0,0,1-.059.557q-.059.357-.187.932t-.187.943a4.055,4.055,0,0,0-.059.615,2.553,2.553,0,0,0,.082.7,1.313,1.313,0,0,0,.217.451.764.764,0,0,0,.3.24.926.926,0,0,0,.357.07,2.826,2.826,0,0,0,1.09-.234,7.08,7.08,0,0,0,1.031-.527,9.808,9.808,0,0,0,1.078-.773l-.176,2.742q-.3.2-.691.445a8.739,8.739,0,0,1-.826.463,6.186,6.186,0,0,1-.914.363,3.26,3.26,0,0,1-.967.146,2.526,2.526,0,0,1-1.418-.357,2.6,2.6,0,0,1-.855-.937,4.753,4.753,0,0,1-.469-1.3q-.152-.721-.246-1.459h-.187l-2.1,5.848a7.551,7.551,0,0,1-.311.756,2.566,2.566,0,0,1-.3.486.883.883,0,0,1-.328.264A.962.962,0,0,1,59.813,0a1.323,1.323,0,0,1-.773-.205,1.335,1.335,0,0,1-.451-.551,2.631,2.631,0,0,1-.211-.785A7.62,7.62,0,0,1,58.324-2.449Z" transform="translate(46 22)"/>
  </g>
</svg>
