<svg width="335" height="215" viewBox="0 0 335 215" fill="none" xmlns="http://www.w3.org/2000/svg">
<rect x="165" width="170" height="141" rx="10" fill="#E7EDF0"/>
<path d="M255.02 100.248H275.879C275.879 103.128 274.711 105.736 272.825 107.624C270.937 109.51 268.33 110.678 265.449 110.678H218.168C212.407 110.678 207.738 106.009 207.738 100.248H228.598H255.02Z" fill="white"/>
<path d="M293.088 65.0044C292.74 61.8668 290.647 59.169 287.525 58.7031H272.402V51.5762C270.103 51.5762 214.214 51.5762 211.215 51.5762C211.215 55.2879 211.215 70.5189 211.215 73.0231C211.215 85.5995 217.813 93.7782 228.598 100.248H255.02C258.658 98.0648 261.82 95.6885 264.411 93.0133C280.661 95.2401 293.262 84.0646 293.262 68.959C293.262 66.9895 293.173 65.7605 293.088 65.0044ZM269.312 86.3261L269.31 86.3244C271.319 82.495 272.402 78.1215 272.402 73.0231C272.402 69.3977 272.402 71.7053 272.402 65.4824H286.178C286.246 66.0943 286.309 67.3737 286.309 68.959C286.309 78.7681 279.209 85.9559 269.312 86.3261Z" fill="#F6667F"/>
<path d="M218.168 60.2676C219.128 60.2676 219.906 59.4888 219.906 58.5293C219.906 57.5698 219.128 56.791 218.168 56.791C217.208 56.791 216.43 57.5698 216.43 58.5293C216.43 59.4888 217.208 60.2676 218.168 60.2676Z" fill="white"/>
<path d="M219.906 73.0231V65.4824C219.906 64.5225 219.128 63.7441 218.168 63.7441C217.208 63.7441 216.43 64.5225 216.43 65.4824V73.0231C216.43 77.9367 217.652 82.8562 219.964 87.2504C220.409 88.0973 221.459 88.4277 222.311 87.9793C223.161 87.5323 223.487 86.4812 223.04 85.6315C220.99 81.7347 219.906 77.3747 219.906 73.0231Z" fill="white"/>
<path d="M287.782 56.9837C287.697 56.9711 287.611 56.9648 287.525 56.9648H274.141V51.5761C274.141 50.6162 273.362 49.8378 272.402 49.8378H253.184C251.062 47.3737 251.112 44.3597 253.335 41.9229C256.817 38.1022 256.817 32.9694 253.335 29.1509C252.688 28.4417 251.588 28.3909 250.879 29.0379C250.17 29.6849 250.119 30.7842 250.766 31.4936C253.04 33.987 253.04 37.0858 250.766 39.5802C248.002 42.6096 247.433 46.4654 249.054 49.8378H242.754C240.632 47.3737 240.682 44.3597 242.905 41.9229C246.388 38.1022 246.387 32.9694 242.905 29.1509C242.258 28.4417 241.159 28.3909 240.449 29.0379C239.74 29.6849 239.689 30.7842 240.336 31.4936C242.61 33.987 242.61 37.0858 240.337 39.5802C237.572 42.6096 237.003 46.4654 238.625 49.8378H232.324C230.203 47.3737 230.252 44.3597 232.476 41.9229C235.958 38.1022 235.958 32.9694 232.475 29.1509C231.829 28.4417 230.729 28.3909 230.02 29.0379C229.31 29.6849 229.26 30.7842 229.907 31.4936C232.181 33.987 232.18 37.0858 229.907 39.5802C227.143 42.6096 226.574 46.4654 228.195 49.8378H211.215C210.255 49.8378 209.477 50.6162 209.477 51.5761V73.023C209.477 83.4592 213.768 91.6691 222.883 98.5097H207.738C206.778 98.5097 206 99.2881 206 100.248C206 106.957 211.459 112.416 218.168 112.416H265.449C272.147 112.416 277.617 106.998 277.617 100.248C277.617 99.2881 276.839 98.5097 275.879 98.5097H260.751C262.335 97.3246 263.759 96.1062 265.046 94.8399C266.219 94.9692 267.381 95.0365 268.528 95.0365C275.271 95.0365 281.467 92.8155 286.3 88.5996C291.911 83.7062 295 76.7308 295 68.9589C295 67.2935 294.938 65.8975 294.816 64.8128C294.359 60.6896 291.532 57.5433 287.782 56.9837ZM274.141 67.2207H284.543C284.56 67.7277 284.57 68.317 284.57 68.9589C284.57 76.8354 279.594 82.7833 272.157 84.2499C273.487 80.822 274.141 77.1219 274.141 73.023V67.2207ZM265.449 108.939H218.168C213.971 108.939 210.459 105.931 209.651 101.969C215.966 101.969 270.875 101.969 273.968 101.969C273.162 105.96 269.659 108.939 265.449 108.939ZM229.088 98.5097C217.937 91.7042 212.953 83.8277 212.953 73.023V53.3144H270.664V73.023C270.664 84.7672 264.593 92.3689 254.532 98.5097H229.088ZM284.015 85.9798C279.701 89.7431 274.1 91.6706 267.987 91.553C268.883 90.4045 269.681 89.2188 270.373 88.0036C275.218 87.6046 279.587 85.6355 282.763 82.3997C286.17 78.9271 288.047 74.1538 288.047 68.9591C288.047 67.4819 287.993 66.0765 287.906 65.2912C287.808 64.4107 287.064 63.7443 286.178 63.7443H274.141V60.4415H287.386C289.813 60.8679 291.13 63.1221 291.36 65.1992C291.469 66.1582 291.523 67.4232 291.523 68.9591C291.523 75.7115 288.857 81.7563 284.015 85.9798Z" fill="#31393B"/>
<g filter="url(#filter0_d)">
<rect x="15" y="42" width="169" height="154" rx="10" fill="#F3F5F7"/>
</g>
<path d="M132.895 104.559C125.631 104.559 81.9833 104.559 66.3794 104.559C63.5441 104.559 60.811 102.889 59.955 100.188C59.7265 99.4684 59.6211 98.7583 59.6211 98.0742C59.6211 100.338 59.6211 149.204 59.6211 151.895C59.6211 155.476 62.5245 158.379 66.1055 158.379H132.895C134.686 158.379 136.137 156.928 136.137 155.137C136.137 149.228 136.137 108.564 136.137 107.801C136.137 106.009 134.686 104.559 132.895 104.559Z" fill="#1ABED4"/>
<path d="M139.379 124.984V137.953C139.379 139.744 137.928 141.195 136.137 141.195H123.168C117.796 141.195 113.441 136.841 113.441 131.469C113.441 126.097 117.796 121.742 123.168 121.742H136.137C137.928 121.742 139.379 123.193 139.379 124.984Z" fill="#425AC2"/>
<path d="M126.41 131.469C126.41 129.677 124.959 128.227 123.168 128.227C121.377 128.227 119.926 129.677 119.926 131.469C119.926 133.26 121.377 134.711 123.168 134.711C124.959 134.711 126.41 133.26 126.41 131.469Z" fill="white"/>
<path d="M129.652 94.832V104.559H115.711V91.5898H126.41C128.201 91.5898 129.652 93.0407 129.652 94.832Z" fill="#08A4B9"/>
<path d="M96.2578 104.559V78.6211H115.711C115.711 79.3529 115.711 103.827 115.711 104.559C114.562 104.559 97.3269 104.559 96.2578 104.559Z" fill="#CCCCCC"/>
<path d="M96.2578 78.6211H86.5312V104.559H96.2578V78.6211Z" fill="white"/>
<path d="M86.5312 78.6211V104.559H76.8047C76.8047 103.827 76.8047 79.3525 76.8047 78.6211H86.5312Z" fill="#CCCCCC"/>
<path d="M76.8047 91.5898V104.559H66.3794C63.5441 104.559 60.811 102.889 59.955 100.188C59.7265 99.4684 59.6211 98.7583 59.6211 98.0742C59.6211 94.4916 62.5245 91.5898 66.1055 91.5898H76.8047Z" fill="#08A4B9"/>
<path d="M129.652 112.664C130.547 112.664 131.273 111.938 131.273 111.043C131.273 110.148 130.547 109.422 129.652 109.422C128.757 109.422 128.031 110.148 128.031 111.043C128.031 111.938 128.757 112.664 129.652 112.664Z" fill="#31393B"/>
<path d="M129.652 150.273C128.757 150.273 128.031 151 128.031 151.895C128.031 152.789 128.757 153.516 129.652 153.516C130.547 153.516 131.273 152.789 131.273 151.895C131.273 151 130.547 150.273 129.652 150.273Z" fill="#31393B"/>
<path d="M137.758 120.4V107.801C137.758 105.119 135.576 102.938 132.895 102.938H131.273V94.832C131.273 92.1504 129.092 89.9688 126.41 89.9688H117.332V78.6211C117.332 77.7259 116.606 77 115.711 77H76.8047C75.9094 77 75.1836 77.7259 75.1836 78.6211V89.9688H66.1055C61.6361 89.9688 58 93.6049 58 98.0742V109.261C58 109.262 58 109.263 58 109.264V150.113C58 150.114 58 150.114 58 150.115V151.895C58 156.364 61.6361 160 66.1055 160H132.895C135.576 160 137.758 157.818 137.758 155.137V142.538C139.645 141.868 141 140.067 141 137.953V124.984C141 122.871 139.645 121.069 137.758 120.4ZM126.41 93.2109C127.304 93.2109 128.031 93.9382 128.031 94.832V102.938H117.332V93.2109H126.41ZM114.09 102.938H110.848V98.0742C110.848 97.1791 110.122 96.4531 109.227 96.4531C108.331 96.4531 107.605 97.1791 107.605 98.0742V102.938H97.8789V80.2422H114.09V102.938ZM88.1523 102.938V80.2422H94.6367V102.938H88.1523ZM78.4258 80.2422H84.9102V102.938H78.4258V80.2422ZM66.1055 93.2109H75.1836V102.938H66.3794C64.111 102.938 62.1048 101.605 61.5001 99.6976C61.3289 99.1584 61.2422 98.6124 61.2422 98.0742C61.2422 95.3926 63.4239 93.2109 66.1055 93.2109ZM132.895 156.758H66.1055C63.687 156.758 61.676 154.983 61.3043 152.668C62.9187 153.225 64.6359 153.516 66.3794 153.516H74.5352C75.4305 153.516 76.1562 152.79 76.1562 151.895C76.1562 150.999 75.4305 150.273 74.5352 150.273H66.3794C64.5829 150.273 62.8253 149.887 61.2422 149.152V111.795C62.8746 112.366 64.6137 112.664 66.3794 112.664H74.5352C75.4305 112.664 76.1562 111.938 76.1562 111.043C76.1562 110.148 75.4305 109.422 74.5352 109.422H66.3794C64.5829 109.422 62.8253 109.035 61.2422 108.301V104.527C62.6759 105.568 64.4748 106.18 66.3794 106.18H76.8047H115.711H129.652H132.895C133.788 106.18 134.516 106.907 134.516 107.801V120.121H123.168C120.138 120.121 117.288 121.301 115.143 123.445C113 125.589 111.82 128.439 111.82 131.469C111.82 137.726 116.911 142.816 123.168 142.816H134.516V155.137C134.516 156.031 133.788 156.758 132.895 156.758ZM137.758 137.953C137.758 138.847 137.031 139.574 136.137 139.574H123.168C118.699 139.574 115.062 135.938 115.062 131.469C115.062 129.304 115.906 127.268 117.436 125.737C118.968 124.206 121.003 123.363 123.168 123.363H136.137C137.031 123.363 137.758 124.091 137.758 124.984V137.953Z" fill="#31393B"/>
<path d="M123.168 126.605C120.486 126.605 118.305 128.787 118.305 131.469C118.305 134.15 120.486 136.332 123.168 136.332C125.85 136.332 128.031 134.15 128.031 131.469C128.031 128.787 125.85 126.605 123.168 126.605ZM123.168 133.09C122.274 133.09 121.547 132.363 121.547 131.469C121.547 130.575 122.274 129.848 123.168 129.848C124.062 129.848 124.789 130.575 124.789 131.469C124.789 132.363 124.062 133.09 123.168 133.09Z" fill="#31393B"/>
<path d="M109.227 93.2109C110.122 93.2109 110.848 92.485 110.848 91.5898V85.1055C110.848 84.2103 110.122 83.4844 109.227 83.4844C108.331 83.4844 107.605 84.2103 107.605 85.1055V91.5898C107.605 92.485 108.331 93.2109 109.227 93.2109Z" fill="#31393B"/>
<path d="M90.7461 150.273H81.0195C80.1242 150.273 79.3984 150.999 79.3984 151.895C79.3984 152.79 80.1242 153.516 81.0195 153.516H90.7461C91.6414 153.516 92.3672 152.79 92.3672 151.895C92.3672 150.999 91.6414 150.273 90.7461 150.273Z" fill="#31393B"/>
<path d="M106.957 150.273H97.2305C96.3351 150.273 95.6094 150.999 95.6094 151.895C95.6094 152.79 96.3351 153.516 97.2305 153.516H106.957C107.852 153.516 108.578 152.79 108.578 151.895C108.578 150.999 107.852 150.273 106.957 150.273Z" fill="#31393B"/>
<path d="M123.168 150.273H113.441C112.546 150.273 111.82 150.999 111.82 151.895C111.82 152.79 112.546 153.516 113.441 153.516H123.168C124.063 153.516 124.789 152.79 124.789 151.895C124.789 150.999 124.063 150.273 123.168 150.273Z" fill="#31393B"/>
<path d="M90.7461 109.422H81.0195C80.1242 109.422 79.3984 110.148 79.3984 111.043C79.3984 111.938 80.1242 112.664 81.0195 112.664H90.7461C91.6414 112.664 92.3672 111.938 92.3672 111.043C92.3672 110.148 91.6414 109.422 90.7461 109.422Z" fill="#31393B"/>
<path d="M106.957 109.422H97.2305C96.3351 109.422 95.6094 110.148 95.6094 111.043C95.6094 111.938 96.3351 112.664 97.2305 112.664H106.957C107.852 112.664 108.578 111.938 108.578 111.043C108.578 110.148 107.852 109.422 106.957 109.422Z" fill="#31393B"/>
<path d="M113.441 112.664H123.168C124.063 112.664 124.789 111.938 124.789 111.043C124.789 110.148 124.063 109.422 123.168 109.422H113.441C112.546 109.422 111.82 110.148 111.82 111.043C111.82 111.938 112.546 112.664 113.441 112.664Z" fill="#31393B"/>
<defs>
<filter id="filter0_d" x="0" y="31" width="199" height="184" filterUnits="userSpaceOnUse" color-interpolation-filters="sRGB">
<feFlood flood-opacity="0" result="BackgroundImageFix"/>
<feColorMatrix in="SourceAlpha" type="matrix" values="0 0 0 0 0 0 0 0 0 0 0 0 0 0 0 0 0 0 127 0"/>
<feOffset dy="4"/>
<feGaussianBlur stdDeviation="7.5"/>
<feColorMatrix type="matrix" values="0 0 0 0 0 0 0 0 0 0 0 0 0 0 0 0 0 0 0.1 0"/>
<feBlend mode="normal" in2="BackgroundImageFix" result="effect1_dropShadow"/>
<feBlend mode="normal" in="SourceGraphic" in2="effect1_dropShadow" result="shape"/>
</filter>
</defs>
</svg>
