<svg width="725" height="190" viewBox="0 0 725 190" fill="none" xmlns="http://www.w3.org/2000/svg">
<g clip-path="url(#clip0)">
<path d="M684.044 136.569H667.675V13.1858H640.981V-10.1981H638.71V13.1858H636.015V45.6024H611.445V111.303H578.134V0.127464H573.364V-7.05624H567.45V-20H552.029V-7.05624H547.03V0.127464H542.112V133.198H529.549V77.61H514.814V32.135L510.272 34.426V17.4567H507.56V35.7842L459.678 59.9208V154.667H450.938V113.398H429.651V21.1877H423.149V12.9076H382.766V21.1877H376.688V141.2H351.579V72.9791H344.489V57.4007L294.809 41.8224V147.925H289.337V99.5048H242.941V128.141H198.718V158.464H190.533V74.2391H169.23V21.6131L151.767 10.2403H139.759L122.295 22.8731V139.089H110.827V131.512H90.6189V62.0317L83.2511 65.3699V41.6097H81.4377V66.1881L46.9513 81.8155V153.833H39.8449V38.4515H34.6988V9.74937H31.5296V38.4515H8.38065V9.74937H5.19502V38.4515H0V170H725V91.5029H684.044V136.569Z" fill="url(#paint0_linear)"/>
</g>
<defs>
<linearGradient id="paint0_linear" x1="-35" y1="217.5" x2="763" y2="215" gradientUnits="userSpaceOnUse">
<stop stop-color="#EBF2F5"/>
<stop offset="0.114583" stop-color="#E4EBEE"/>
<stop offset="0.406893" stop-color="#EAF0F3"/>
<stop offset="0.49181" stop-color="#EFF5F8"/>
<stop offset="0.572281" stop-color="#ECF2F5"/>
<stop offset="1" stop-color="#EAF1F3"/>
</linearGradient>
<clipPath id="clip0">
<rect width="725" height="190" fill="white"/>
</clipPath>
</defs>
</svg>
