<svg width="161" height="182" viewBox="0 0 161 182" fill="none" xmlns="http://www.w3.org/2000/svg">
<g clip-path="url(#clip0)">
<path d="M80.5 8C36.0403 8 0 44.088 0 88.6067C0 98.0541 1.62772 107.127 4.61667 115.55C6.73414 114.014 9.33417 113.098 12.1503 113.098C15.1752 113.098 17.9553 114.151 20.1448 115.903C24.2285 112.745 29.3493 110.855 34.9167 110.855C45.0719 110.855 53.7579 117.122 57.3446 125.993C59.1884 122.841 62.6095 120.678 66.4555 120.678C69.2644 120.678 71.8356 121.824 73.7442 123.671C75.516 122.329 77.7055 121.514 80.0535 121.514C80.4784 121.514 80.8889 121.55 81.2995 121.601C81.1986 121.038 81.1482 120.454 81.1482 119.863C81.1482 114.1 85.9521 109.29 91.7068 109.29C93.2337 109.29 94.6957 109.636 96.0137 110.242C95.6104 108.879 95.3943 107.444 95.3943 105.966C95.3943 97.5277 102.424 90.4817 110.858 90.4817C119.284 90.4817 126.321 97.5205 126.321 105.966C126.321 107.105 126.191 108.216 125.946 109.297C126.004 109.297 126.062 109.29 126.127 109.29C131.002 109.29 135.18 112.745 136.347 117.31C138.183 115.781 140.524 114.851 143.059 114.851C143.383 114.851 143.7 114.872 144.01 114.901C146.113 108.511 152.12 103.903 159.207 103.903C159.322 103.903 159.437 103.91 159.552 103.91C160.503 98.9556 161.007 93.8424 161.007 88.6067C161 44.088 124.96 8 80.5 8Z" fill="#00A0E3"/>
</g>
<g clip-path="url(#clip1)">
<path d="M77.636 59.8989L73.1376 56C73.1376 56 24.4885 92.9097 40.0821 146.043C40.0821 146.043 55.0002 176.974 69.983 182.18H149.05C131.035 170.729 53.3474 117.242 77.636 59.8989Z" fill="url(#paint0_linear)"/>
</g>
<g clip-path="url(#clip2)">
<path d="M136.218 1.71912C136.218 1.71912 135.883 10.9711 131.994 21.8491L115.86 5.89567C126.861 2.05083 136.218 1.71912 136.218 1.71912Z" fill="url(#paint1_linear)"/>
<path d="M115.859 5.89526L131.994 21.8487C129.467 28.9265 125.432 36.6918 119.011 43.0408C113.094 48.8916 105.975 53.575 98.5323 56.8217L80.489 38.9811C82.6862 34.0569 85.7525 28.8027 89.8044 23.8269C91.2229 22.0859 92.7613 20.3791 94.4265 18.7326C100.848 12.3835 108.701 8.39432 115.859 5.89526Z" fill="white"/>
<path d="M116.552 21.1646C119.267 23.8493 119.267 28.2029 116.552 30.8876C113.837 33.5723 109.435 33.5723 106.719 30.8876C104.003 28.2012 104.003 23.8493 106.719 21.1646C109.434 18.48 113.837 18.48 116.552 21.1646Z" fill="#00A0E3"/>
<path d="M114.094 47.9014C123.053 61.1891 106.282 69.7776 96.887 69.7776C101.803 64.917 100.367 58.635 100.367 58.635L98.5331 56.8217C103.513 54.6492 108.827 51.6174 113.86 47.611L114.094 47.9014Z" fill="url(#paint2_linear)"/>
<path d="M78.4699 51.5693L78.1883 51.2909C77.3574 50.4676 76.9489 49.2748 77.241 48.1473C77.9658 45.356 79.0366 42.2417 80.4898 38.9812L98.5331 56.8218C95.2356 58.2587 92.0858 59.3174 89.2629 60.0341C88.1226 60.3229 86.9162 59.919 86.0836 59.0974L85.802 58.819L78.4699 51.5693Z" fill="url(#paint3_linear)"/>
<path d="M89.5113 23.5953L89.805 23.8273C85.7531 28.8031 82.6868 34.0573 80.4896 38.9815L78.6557 37.1682C78.6557 37.1682 72.3023 35.7486 67.3865 40.6092C67.3865 31.3193 76.0726 14.7369 89.5113 23.5953Z" fill="url(#paint4_linear)"/>
<path d="M78.4697 51.5696L85.8018 58.8193C85.2751 60.88 84.0253 63.0491 82.1358 64.9174C78.063 68.9444 67.3865 69.778 67.3865 69.778C67.3865 69.778 68.2295 59.2214 72.3023 55.1944C74.1918 53.3261 76.3855 52.0904 78.4697 51.5696Z" fill="#FF5249"/>
<path d="M95.7008 44.2559C96.3787 43.5838 96.3787 42.4959 95.7008 41.8256C95.0211 41.1535 93.9208 41.1535 93.2411 41.8256C92.5632 42.4959 92.5632 43.5838 93.2411 44.2559C93.9208 44.9262 95.0211 44.9262 95.7008 44.2559Z" fill="#1F1F1F"/>
<path d="M117.825 32.103C121.221 28.7449 121.222 23.308 117.825 19.9494C114.428 16.5912 108.93 16.591 105.533 19.9494C102.145 23.2991 102.145 28.751 105.533 32.1034C108.922 35.4522 114.436 35.4536 117.825 32.103ZM107.991 22.3801C110.029 20.3652 113.328 20.3648 115.366 22.3801C117.404 24.3948 117.404 27.6571 115.366 29.6722C113.334 31.6821 110.025 31.6821 107.992 29.6725C105.959 27.6613 105.958 24.3898 107.991 22.3801Z" fill="#1F1F1F"/>
<path d="M66.7645 42.1964C66.9795 42.2846 67.2055 42.3274 67.4294 42.3274C67.8818 42.3274 68.3263 42.1526 68.6589 41.824C72.1498 38.3722 76.4557 38.5881 77.8623 38.771L78.4711 39.3729C77.2731 42.1916 76.308 44.9945 75.6001 47.7206C75.3446 48.7072 75.4308 49.7512 75.8107 50.7061C74.137 51.4687 72.5224 52.5885 71.1164 53.9786C66.6419 58.403 65.7333 69.1854 65.6968 69.6422C65.6568 70.1436 65.8408 70.6372 66.2004 70.9928C66.5277 71.3163 66.9705 71.4962 67.4294 71.4962C67.4749 71.4962 67.5206 71.4945 67.5663 71.4909C68.0284 71.455 78.9336 70.5566 83.4081 66.1324C84.8135 64.7428 85.9459 63.1464 86.7171 61.4919C87.7396 61.8895 88.7919 61.9385 89.7383 61.6987C92.4941 60.999 95.3286 60.0451 98.1797 58.8604L98.7884 59.4623C98.9732 60.8533 99.1915 65.1108 95.7007 68.5622C95.2037 69.0537 95.055 69.793 95.324 70.4351C95.5929 71.0774 96.2267 71.4961 96.9299 71.4961C103.81 71.4961 113.429 67.4448 116.971 60.8997C118.51 58.0574 119.557 53.5608 116.217 47.9492C117.633 46.7657 118.997 45.5282 120.284 44.256C126.023 38.5807 130.529 31.2343 133.677 22.4212C137.609 11.4216 137.985 2.16854 137.999 1.7801C138.016 1.30315 137.832 0.840633 137.491 0.503072C137.149 0.165682 136.684 -0.0171931 136.199 0.000853756C135.806 0.0147756 126.448 0.386712 115.324 4.27435C106.41 7.38631 98.9803 11.8418 93.2407 17.5171C91.9546 18.7888 90.703 20.1373 89.5055 21.5383C83.8304 18.2352 79.2827 19.2709 76.4077 20.7922C69.7882 24.295 65.6909 33.8059 65.6909 40.6087C65.6914 41.3037 66.1151 41.9305 66.7645 42.1964ZM80.9499 63.7016C78.5597 66.0648 72.9529 67.3113 69.4091 67.8202C69.924 64.316 71.1847 58.7724 73.5747 56.4093C74.9132 55.0858 76.4651 54.0824 78.025 53.5173L83.8747 59.3012C83.3032 60.8436 82.2885 62.3781 80.9499 63.7016ZM88.8747 58.3688C88.3716 58.4962 87.7889 58.3092 87.3558 57.8815C78.918 49.5387 89.7494 60.2484 79.4619 50.0764C79.0284 49.6468 78.8393 49.0709 78.9677 48.5744C79.5245 46.4304 80.2526 44.2307 81.1381 42.0099L95.5128 56.2231C93.2664 57.0988 91.0421 57.8186 88.8747 58.3688ZM113.907 59.2777C111.629 63.485 105.895 66.5863 100.669 67.6538C102.335 64.5537 102.703 60.6073 102.094 58.2143C101.953 57.6584 101.586 57.379 101.565 57.3462C105.778 55.3289 109.767 52.9087 113.47 50.1248C115.279 53.3929 115.428 56.4665 113.907 59.2777ZM131.275 18.663L119.125 6.64965C125.745 4.61672 131.503 3.85549 134.378 3.58186C134.101 6.4245 133.331 12.1185 131.275 18.663ZM95.6997 19.9478C100.849 14.8558 107.495 10.8033 115.459 7.88629L130.024 22.288C127.074 30.1618 122.976 36.7332 117.826 41.8254C116.259 43.3739 114.573 44.8701 112.813 46.2721C108.581 49.6408 103.924 52.4943 98.9553 54.7658L82.612 38.6065C84.9093 33.6933 87.7952 29.0884 91.2019 24.9051C92.621 23.1635 94.134 21.4957 95.6997 19.9478ZM78.0489 23.8229C80.8925 22.3183 84.0007 22.4657 87.3055 24.2544C84.49 27.9157 82.0424 31.8602 80.0022 36.0256C79.9763 36.0098 79.6634 35.6208 79.0821 35.4913C78.8431 35.4378 74.2438 34.4597 69.5774 36.9118C70.6572 31.7447 73.7936 26.0748 78.0489 23.8229Z" fill="#1F1F1F"/>
<path d="M100.617 39.3937L103.075 36.9634C103.753 36.2922 103.753 35.2039 103.075 34.5326C102.396 33.8614 101.295 33.8614 100.616 34.5326L98.1583 36.9629C97.4795 37.634 97.4795 38.7223 98.1583 39.3937C98.8372 40.0648 99.9377 40.0648 100.617 39.3937Z" fill="#1F1F1F"/>
</g>
<defs>
<linearGradient id="paint0_linear" x1="93.9985" y1="67.5213" x2="72.7608" y2="189.704" gradientUnits="userSpaceOnUse">
<stop stop-color="#F0F6F9"/>
<stop offset="1" stop-color="#E1E9EC"/>
</linearGradient>
<linearGradient id="paint1_linear" x1="126.039" y1="1.71912" x2="126.039" y2="21.8491" gradientUnits="userSpaceOnUse">
<stop stop-color="#FF5249"/>
<stop offset="1" stop-color="#F29E8B"/>
</linearGradient>
<linearGradient id="paint2_linear" x1="106.767" y1="47.611" x2="106.767" y2="69.7776" gradientUnits="userSpaceOnUse">
<stop stop-color="#FF5249"/>
<stop offset="1" stop-color="#F29E8B"/>
</linearGradient>
<linearGradient id="paint3_linear" x1="87.84" y1="38.9812" x2="87.84" y2="60.1271" gradientUnits="userSpaceOnUse">
<stop stop-color="#FF5249"/>
<stop offset="1" stop-color="#F29E8B"/>
</linearGradient>
<linearGradient id="paint4_linear" x1="78.5958" y1="21.0713" x2="78.5958" y2="40.6092" gradientUnits="userSpaceOnUse">
<stop stop-color="#FF5249"/>
<stop offset="1" stop-color="#F29E8B"/>
</linearGradient>
<clipPath id="clip0">
<rect y="8" width="161" height="118" fill="white"/>
</clipPath>
<clipPath id="clip1">
<rect x="37" y="56" width="112" height="126" fill="white"/>
</clipPath>
<clipPath id="clip2">
<rect x="49" width="89" height="88" fill="white"/>
</clipPath>
</defs>
</svg>
