<svg xmlns="http://www.w3.org/2000/svg" width="18" height="16" viewBox="0 0 18 16">
    <g fill="none" fill-rule="nonzero">
        <path fill="#FCBD2B" d="M8.323 11.143l-.64-1.383h-4.31l-.64 1.383H0v-.409L4.919 0H6.12l4.934 10.734v.409H8.323zM6.777 7.355L5.512 4.463 4.278 7.355h2.499z"/>
        <path fill="#FF8E12" d="M1.19 14.775H.285c-.021 1.628 2.968 1.586 2.968.032 0-.925-.713-1.02-1.442-1.1-.33-.037-.603-.095-.582-.375.031-.439 1.017-.48 1.017.01h.891c.021-1.596-2.831-1.596-2.8 0 .01.804.535 1.079 1.332 1.137.367.021.671.064.671.323 0 .433-1.148.444-1.148-.027zm2.468-.719c.005 1.258.95 1.893 1.883 1.887.781 0 1.604-.412 1.74-1.459H6.36c-.1.397-.42.598-.818.598-.556-.006-.913-.481-.913-1.026 0-.613.362-1.03.913-1.03.393 0 .67.169.802.544h.923c-.142-.988-.965-1.406-1.725-1.406-.934 0-1.878.634-1.883 1.892zm9.646 1.052c-.272 0-.56-.148-.56-.45v-2.452h-.898v2.469c0 .814.708 1.284 1.458 1.284.755 0 1.463-.47 1.463-1.284v-2.469h-.907v2.453c0 .301-.283.45-.556.45zm2.764-2.056v2.854h.928v-2.854h.897v-.846h-2.727v.846h.902zM11.459 14.062c0-2.559-3.766-2.559-3.766 0 0 2.563 3.766 2.563 3.766 0zm-2.8 0a.923.923 0 0 1 1.84 0 .924.924 0 0 1-1.84 0z"/>
        <path fill="#01C8FE" d="M13.987 7.004V4.127h-2.79v-.822h2.79V.43h.797v2.876h2.79v.822h-2.79v2.877h-.797zm-2.79 2.71V8.96h6.068v.755h-6.068z"/>
    </g>
</svg>
