<?xml version="1.0" encoding="UTF-8"?>
<svg xmlns="http://www.w3.org/2000/svg" xmlns:xlink="http://www.w3.org/1999/xlink" width="100%" height="100%" viewBox="0 0 18 23" version="1.1">
<g id="surface1">
<path style="fill-rule:nonzero;fill:rgb(100%,55.686275%,7.058824%);fill-opacity:1;stroke-width:0.5;stroke-linecap:butt;stroke-linejoin:miter;stroke:rgb(100%,55.686275%,7.058824%);stroke-opacity:1;stroke-miterlimit:4;" d="M 0.747396 14.069803 L 0.747396 14.088655 L 0.753472 14.107507 C 0.753472 14.132643 0.759549 14.151495 0.765625 14.17663 C 0.771701 14.233186 0.783854 14.296026 0.80816 14.352582 L 0.80816 14.358865 C 0.814236 14.377717 0.820312 14.390285 0.826389 14.402853 C 0.844618 14.453125 0.868924 14.503397 0.899306 14.553668 L 0.911458 14.566236 L 4.952257 20.158967 L 5.03125 20.265795 L 7.109375 20.265795 L 6.823785 19.869905 L 2.527778 13.931556 C 2.892361 12.310292 4.399306 11.204314 6.052083 11.367697 C 7.735243 11.53108 9.029514 12.957541 9.023437 14.66678 L 9.023437 14.6982 C 9.029514 14.72962 9.03559 14.761039 9.041667 14.786175 C 9.041667 14.817595 9.047743 14.849015 9.053819 14.880435 L 9.053819 14.893003 L 9.059896 14.911855 L 10.603299 20.08356 L 10.657986 20.265795 L 12.414062 20.265795 L 12.31684 19.945312 L 10.706597 14.559952 C 10.767361 12.775306 12.219618 11.348845 14 11.348845 C 15.780382 11.348845 17.232639 12.775306 17.293403 14.559952 L 15.68316 19.945312 L 15.585937 20.265795 L 17.342014 20.265795 L 17.396701 20.08356 L 18.940104 14.911855 L 18.946181 14.893003 L 18.952257 14.880435 C 18.952257 14.849015 18.958333 14.817595 18.958333 14.786175 C 18.96441 14.761039 18.970486 14.72962 18.976562 14.6982 L 18.976562 14.66678 C 18.970486 12.957541 20.264757 11.53108 21.947917 11.367697 C 23.600694 11.204314 25.107639 12.310292 25.472222 13.931556 L 21.176215 19.869905 L 20.890625 20.265795 L 22.96875 20.265795 L 23.047743 20.158967 L 27.088542 14.566236 L 27.100694 14.553668 L 27.106771 14.541101 C 27.118924 14.515965 27.131076 14.497113 27.137153 14.478261 C 27.167535 14.427989 27.19184 14.371433 27.203993 14.321162 L 27.210069 14.30231 L 27.216146 14.289742 L 27.246528 14.120075 L 27.252604 14.094939 L 27.252604 14.069803 C 27.252604 6.717561 21.322049 0.747792 14 0.747792 C 6.677951 0.747792 0.747396 6.717561 0.747396 14.069803 Z M 21.467882 9.727582 C 20.100694 9.953804 18.897569 10.7393 18.138021 11.882982 C 17.220486 10.506793 15.671007 9.664742 14 9.664742 C 12.328993 9.664742 10.779514 10.506793 9.861979 11.882982 C 9.102431 10.7393 7.899306 9.953804 6.532118 9.727582 C 5.292535 9.526495 4.028646 9.802989 2.99566 10.487942 C 4.532986 5.71841 8.962674 2.444463 14 2.438179 C 19.037326 2.444463 23.467014 5.71841 25.00434 10.487942 C 23.971354 9.802989 22.707465 9.526495 21.467882 9.727582 Z M 21.467882 9.727582 " transform="matrix(0.642857,0,0,0.621622,0,0)"/>
<path style="fill-rule:nonzero;fill:rgb(20%,24.313725%,32.54902%);fill-opacity:1;stroke-width:0.5;stroke-linecap:butt;stroke-linejoin:miter;stroke:rgb(20%,24.313725%,32.54902%);stroke-opacity:1;stroke-miterlimit:4;" d="M 11.763889 26.084749 L 16.236111 26.084749 C 16.679687 26.084749 17.044271 25.726562 17.044271 25.280401 C 17.044271 24.834239 16.679687 24.476053 16.236111 24.476053 L 11.763889 24.476053 C 11.320312 24.476053 10.955729 24.834239 10.955729 25.280401 C 10.955729 25.726562 11.320312 26.084749 11.763889 26.084749 Z M 11.763889 26.084749 " transform="matrix(0.642857,0,0,0.621622,0,0)"/>
<path style="fill-rule:nonzero;fill:rgb(100%,55.686275%,7.058824%);fill-opacity:1;stroke-width:0.2;stroke-linecap:butt;stroke-linejoin:miter;stroke:rgb(100%,55.686275%,7.058824%);stroke-opacity:1;stroke-miterlimit:4;" d="M 12.693576 28.956522 C 12.608507 28.987942 12.53559 29.031929 12.46875 29.088485 L 12.462674 29.088485 L 11.131944 30.232167 C 10.986111 30.357846 10.901042 30.527514 10.901042 30.709749 C 10.901042 30.891984 10.986111 31.067935 11.131944 31.193614 C 11.277778 31.319293 11.466146 31.382133 11.666667 31.382133 C 11.867187 31.382133 12.061632 31.319293 12.207465 31.193614 L 12.237847 31.168478 L 12.237847 32.425272 C 12.237847 32.814878 12.596354 33.097656 13.003472 33.097656 C 13.41059 33.097656 13.769097 32.814878 13.769097 32.425272 L 13.769097 31.168478 L 13.799479 31.193614 C 14.097222 31.444973 14.571181 31.444973 14.868924 31.18733 C 15.172743 30.929688 15.178819 30.496094 14.875 30.232167 L 13.538194 29.088485 C 13.532118 29.082201 13.526042 29.075917 13.519965 29.075917 C 13.513889 29.069633 13.513889 29.069633 13.507812 29.069633 C 13.447049 29.019361 13.374132 28.975374 13.295139 28.943954 L 13.282986 28.943954 C 13.27691 28.943954 13.27691 28.943954 13.270833 28.93767 C 13.270833 28.93767 13.264757 28.93767 13.264757 28.93767 C 13.19184 28.912534 13.106771 28.899966 13.027778 28.899966 C 13.003472 28.899966 12.979167 28.899966 12.954861 28.899966 C 12.888021 28.90625 12.827257 28.918818 12.766493 28.931386 C 12.742187 28.93767 12.717882 28.943954 12.693576 28.956522 Z M 12.693576 28.956522 L 12.730035 29.050781 Z M 12.693576 28.956522 " transform="matrix(0.642857,0,0,0.621622,0,0)"/>
<path style="fill-rule:nonzero;fill:rgb(100%,55.686275%,7.058824%);fill-opacity:1;stroke-width:0.2;stroke-linecap:butt;stroke-linejoin:miter;stroke:rgb(100%,55.686275%,7.058824%);stroke-opacity:1;stroke-miterlimit:4;" d="M 18.508681 29.069633 C 18.508681 29.069633 18.514757 29.069633 18.514757 29.075917 C 18.520833 29.075917 18.52691 29.082201 18.539062 29.088485 L 19.869792 30.232167 L 19.875868 30.232167 C 20.179687 30.496094 20.173611 30.929688 19.869792 31.193614 C 19.572049 31.444973 19.09809 31.444973 18.800347 31.193614 L 18.769965 31.168478 L 18.769965 32.425272 C 18.769965 32.814878 18.405382 33.097656 17.998264 33.097656 C 17.591146 33.097656 17.232639 32.814878 17.232639 32.425272 L 17.232639 31.168478 L 17.202257 31.193614 C 16.904514 31.444973 16.424479 31.444973 16.132812 31.18733 C 15.822917 30.929688 15.822917 30.496094 16.126736 30.232167 L 17.463542 29.088485 C 17.530382 29.031929 17.609375 28.987942 17.694444 28.956522 C 17.712674 28.950238 17.736979 28.93767 17.761285 28.931386 C 17.767361 28.931386 17.767361 28.931386 17.767361 28.931386 L 17.791667 29.031929 C 17.846354 29.013077 17.901042 29.006793 17.961806 29.00051 Z M 18.508681 29.069633 C 18.44184 29.019361 18.368924 28.975374 18.289931 28.943954 L 18.283854 28.943954 M 18.508681 29.069633 L 18.283854 28.943954 M 18.283854 28.943954 C 18.277778 28.943954 18.271701 28.943954 18.271701 28.93767 C 18.265625 28.93767 18.265625 28.93767 18.265625 28.93767 C 18.186632 28.918818 18.107639 28.899966 18.028646 28.899966 M 18.283854 28.943954 L 18.028646 28.899966 M 18.028646 28.899966 C 18.00434 28.899966 17.980035 28.899966 17.961806 28.899966 Z M 18.028646 28.899966 " transform="matrix(0.642857,0,0,0.621622,0,0)"/>
<path style="fill-rule:nonzero;fill:rgb(20%,24.313725%,32.54902%);fill-opacity:1;stroke-width:0.5;stroke-linecap:butt;stroke-linejoin:miter;stroke:rgb(20%,24.313725%,32.54902%);stroke-opacity:1;stroke-miterlimit:4;" d="M 22.391493 19.763077 L 5.608507 19.763077 C 4.855035 19.763077 4.241319 20.372622 4.241319 21.120414 L 4.241319 22.232677 C 4.241319 22.898777 4.727431 23.451766 5.359375 23.571162 L 5.359375 33.876868 C 5.359375 34.932575 6.228299 35.787194 7.291667 35.787194 L 20.71441 35.787194 C 21.771701 35.787194 22.640625 34.932575 22.640625 33.876868 L 22.640625 23.571162 C 23.272569 23.451766 23.758681 22.898777 23.758681 22.232677 L 23.758681 21.120414 C 23.758681 20.372622 23.144965 19.763077 22.391493 19.763077 Z M 21.018229 33.876868 C 21.018229 34.040251 20.884549 34.178499 20.708333 34.178499 L 7.291667 34.178499 C 7.115451 34.178499 6.981771 34.040251 6.981771 33.876868 L 6.981771 23.590014 L 21.018229 23.590014 Z M 5.863715 21.981318 L 5.863715 21.371773 L 22.136285 21.371773 L 22.142361 21.981318 Z M 5.863715 21.981318 " transform="matrix(0.642857,0,0,0.621622,0,0)"/>
<path style=" stroke:none;fill-rule:nonzero;fill:rgb(100%,55.686275%,7.058824%);fill-opacity:1;" d="M 1.285156 7.148438 C 0.769531 7.148438 3.855469 3.210938 6.105469 1.554688 C 8.355469 0.933594 9.320312 0.933594 11.894531 1.554688 L 15.105469 4.039062 L 17.355469 7.148438 C 17.355469 7.148438 15.488281 5.796875 14.144531 5.90625 C 13.023438 5.996094 12.824219 6.554688 11.570312 7.148438 C 11.570312 7.148438 10.234375 5.851562 9 5.90625 C 7.878906 5.953125 6.429688 7.460938 6.429688 7.460938 C 6.429688 7.460938 4.949219 6.121094 4.179688 5.90625 C 3.035156 5.585938 1.800781 7.148438 1.285156 7.148438 Z M 1.285156 7.148438 "/>
</g>
</svg>
