<svg xmlns="http://www.w3.org/2000/svg" width="17" height="16" viewBox="0 0 17 16">
    <g fill="none" fill-rule="nonzero" transform="translate(0 -1)">
        <path fill="#333E53" d="M7.391 11.519l-.568-1.206H2.995l-.568 1.206H0v-.356l4.368-9.36h1.068l4.382 9.36v.356H7.391zM6.018 8.216L4.895 5.695 3.8 8.216h2.218z"/>
        <path fill="#FCBD2B" d="M9.572 3.512l5.24-1.668 1.11 5.144-1.72-.94-3.045 5.5-3.767.02 3.962-7.085z"/>
        <rect width="16.112" height="5.979" y="11.021" fill="#FF3100" rx="1"/>
        <path fill="#FFF" d="M2.79 15.814h-.902v-3.488h1.55c1.688.005 1.688 2.596 0 2.596H2.79v.892zm.644-1.694c.493 0 .523-.992 0-.997-.212-.005-.438 0-.645 0v.997h.645zm5.493.458l.69 1.107v.13H8.61l-.604-1.027h-.469v1.026h-.9v-3.488h1.545c1.384.005 1.636 1.654.745 2.252zm-.745-.583c.488 0 .513-.867 0-.872-.212-.005-.433 0-.645 0v.872h.645zM14.818 14.075c0-2.411-3.615-2.411-3.615 0 0 2.417 3.615 2.417 3.615 0zm-2.689 0c0-1.255 1.768-1.255 1.768 0 0 1.266-1.768 1.266-1.768 0z"/>
    </g>
</svg>
