<svg xmlns="http://www.w3.org/2000/svg" width="18" height="11" viewBox="0 0 18 11">
    <g fill="none" fill-rule="evenodd">
        <path fill="#FFA23C" d="M10.887 10.41v.405h-2.44l-.4-.69a5.777 5.777 0 0 1-2.855.72C2.485 10.8 0 8.822 0 5.452 0 2.172 2.145 0 5.31 0c2.648 0 5.296 1.827 5.296 5.452 0 1.243-.281 2.262-.799 3.086l1.08 1.872zm-8.18-4.958c0 1.873 1.272 2.846 2.603 2.846 1.287 0 2.589-.943 2.589-2.846 0-1.917-1.302-2.846-2.603-2.846-1.317 0-2.59.974-2.59 2.846z"/>
        <path fill="#323E53" d="M12.783 6.05h.045l.857-2.789L14.98.091h2.935v.412l-4.545 10.361h-1.143L7.636.504V.091h2.935l1.324 3.169z"/>
    </g>
</svg>
