<svg width="320" height="64" viewBox="0 0 320 64" fill="none" xmlns="http://www.w3.org/2000/svg">
<path d="M190 47.9399C190.874 48.5709 191.883 49.066 193.029 49.4155C194.174 49.7649 195.33 49.9397 196.485 49.9397C198.203 49.9397 199.591 49.5125 200.64 48.6583C201.688 47.804 202.212 46.6876 202.212 45.2896C202.212 44.4159 201.979 43.6878 201.514 43.0957C201.048 42.5035 200.29 41.9792 199.242 41.523L196.922 40.5425C195.417 39.9115 194.339 39.1834 193.679 38.3679C193.029 37.5525 192.699 36.5331 192.699 35.31C192.699 33.9606 193.068 32.7665 193.796 31.7472C194.524 30.7181 195.524 29.9318 196.786 29.3785C198.048 28.8251 199.485 28.5436 201.077 28.5436C202.164 28.5436 203.29 28.6795 204.436 28.9513C205.581 29.2231 206.542 29.5823 207.329 30.0192L206.872 32.3782C205.125 31.4851 203.28 31.0385 201.339 31.0385C199.698 31.0385 198.397 31.3977 197.417 32.1161C196.436 32.8344 195.941 33.7955 195.941 34.9993C195.941 35.6983 196.145 36.2904 196.543 36.7661C196.941 37.2418 197.592 37.6787 198.494 38.0767L200.882 39.1251C202.494 39.8241 203.669 40.6396 204.387 41.5812C205.105 42.5229 205.465 43.6878 205.465 45.0858C205.465 46.5711 205.096 47.8719 204.348 48.9786C203.61 50.095 202.591 50.9493 201.29 51.5512C199.989 52.1531 198.514 52.454 196.854 52.454C195.631 52.454 194.417 52.289 193.223 51.9589C192.019 51.6289 190.951 51.1823 190.019 50.6192V47.9399H190Z" fill="#013D5B"/>
<path d="M207.805 51.9298L212.581 27.3592L215.62 27L213.853 36.1254C215.493 35.2517 217.047 34.8148 218.532 34.8148C220.075 34.8148 221.279 35.2031 222.133 35.9798C222.988 36.7564 223.415 37.8243 223.415 39.2028C223.415 39.7658 223.357 40.2998 223.25 40.8046L221.095 51.9298H218.114L220.24 40.9987C220.328 40.4745 220.367 40.0279 220.367 39.659C220.367 38.8533 220.114 38.232 219.609 37.8146C219.105 37.3874 218.377 37.1738 217.415 37.1738C216.784 37.1738 216.105 37.2806 215.387 37.4845C214.668 37.6883 214.008 37.9699 213.426 38.3194L210.775 51.9298H207.805Z" fill="#013D5B"/>
<path d="M232.345 52.4249C230.297 52.4249 228.734 51.8909 227.647 50.8231C226.569 49.7552 226.025 48.2019 226.025 46.173C226.025 43.9014 226.404 41.9113 227.171 40.1833C227.938 38.465 228.977 37.135 230.297 36.2127C231.617 35.2808 233.112 34.8245 234.792 34.8245C236.84 34.8245 238.403 35.3585 239.49 36.4263C240.568 37.4942 241.111 39.0474 241.111 41.0764C241.111 43.348 240.733 45.3381 239.966 47.0661C239.199 48.7941 238.16 50.1144 236.84 51.0463C235.52 51.9589 234.025 52.4249 232.345 52.4249ZM232.607 50.0659C233.695 50.0659 234.656 49.6775 235.471 48.9009C236.287 48.1243 236.918 47.0564 237.354 45.6973C237.791 44.3382 238.005 42.7947 238.005 41.0667C238.005 39.7367 237.723 38.7562 237.151 38.1252C236.588 37.4942 235.714 37.1738 234.529 37.1738C233.442 37.1738 232.481 37.5621 231.666 38.3388C230.85 39.1154 230.219 40.1833 229.782 41.5424C229.345 42.9112 229.132 44.4547 229.132 46.173C229.132 47.503 229.413 48.4835 229.986 49.1145C230.549 49.7455 231.423 50.0659 232.607 50.0659Z" fill="#013D5B"/>
<path d="M248.567 35.242V36.3584C250.285 35.3293 251.936 34.8245 253.508 34.8245C255.256 34.8245 256.596 35.407 257.537 36.5622C258.479 37.7175 258.945 39.3678 258.945 41.5035C258.945 43.6587 258.537 45.5711 257.731 47.2312C256.926 48.8912 255.829 50.1726 254.44 51.0755C253.052 51.9783 251.499 52.4346 249.781 52.4346C248.489 52.4346 247.208 52.1919 245.917 51.7162L244.509 58.9777L241.471 59.3369L246.121 35.5138L248.567 35.242ZM252.334 37.1738C251.004 37.1738 249.742 37.5524 248.538 38.3194L246.383 49.4154C247.344 49.8717 248.392 50.1047 249.528 50.1047C250.79 50.1047 251.907 49.7358 252.868 49.0077C253.829 48.2796 254.567 47.2797 255.081 46.0177C255.596 44.7557 255.848 43.3092 255.848 41.6977C255.848 40.1444 255.567 39.0086 254.994 38.2805C254.421 37.5427 253.538 37.1738 252.334 37.1738Z" fill="#013D5B"/>
<path d="M266.401 35.242V36.3584C268.119 35.3293 269.77 34.8245 271.342 34.8245C273.09 34.8245 274.43 35.407 275.371 36.5622C276.313 37.7175 276.779 39.3678 276.779 41.5035C276.779 43.6587 276.371 45.5711 275.565 47.2312C274.76 48.8912 273.663 50.1726 272.274 51.0755C270.886 51.9783 269.333 52.4346 267.615 52.4346C266.323 52.4346 265.042 52.1919 263.751 51.7162L262.343 58.9777L259.305 59.3369L263.955 35.5138L266.401 35.242ZM270.168 37.1738C268.838 37.1738 267.576 37.5524 266.372 38.3194L264.217 49.4154C265.178 49.8717 266.226 50.1047 267.362 50.1047C268.624 50.1047 269.741 49.7358 270.702 49.0077C271.663 48.2796 272.401 47.2797 272.915 46.0177C273.43 44.7557 273.682 43.3092 273.682 41.6977C273.682 40.1444 273.401 39.0086 272.828 38.2805C272.255 37.5427 271.372 37.1738 270.168 37.1738Z" fill="#013D5B"/>
<path d="M278.574 51.9298L281.749 35.6011L284.787 35.242L281.545 51.9298H278.574ZM284.079 31.9025C283.535 31.9025 283.098 31.7665 282.787 31.4947C282.467 31.2229 282.312 30.8443 282.312 30.3686C282.312 29.6697 282.516 29.1163 282.914 28.7183C283.312 28.3203 283.865 28.1164 284.564 28.1164C285.108 28.1164 285.544 28.2523 285.855 28.5241C286.175 28.7959 286.331 29.1746 286.331 29.6502C286.331 30.3492 286.127 30.9025 285.729 31.3006C285.321 31.7083 284.768 31.9025 284.079 31.9025Z" fill="#013D5B"/>
<path d="M296.311 51.9298L298.437 40.9987C298.524 40.4745 298.563 40.0279 298.563 39.659C298.563 38.8533 298.31 38.232 297.806 37.8145C297.301 37.3874 296.573 37.1738 295.612 37.1738C294.981 37.1738 294.301 37.2806 293.583 37.4845C292.864 37.6883 292.204 37.9699 291.622 38.3194L288.972 51.9298H285.991L289.195 35.5041L291.651 35.242V36.3584C293.437 35.3293 295.126 34.8245 296.718 34.8245C298.262 34.8245 299.466 35.2128 300.32 35.9895C301.174 36.7661 301.601 37.834 301.601 39.2125C301.601 39.7755 301.543 40.3095 301.436 40.8143L299.281 51.9395H296.311V51.9298Z" fill="#013D5B"/>
<path d="M314.241 50.8231C312.63 51.6968 311.115 52.1336 309.698 52.1336C307.97 52.1336 306.63 51.5706 305.659 50.4348C304.689 49.2989 304.203 47.7457 304.203 45.7556C304.203 43.6004 304.611 41.6783 305.426 40.0085C306.242 38.3388 307.349 37.0573 308.727 36.1642C310.115 35.2711 311.659 34.8245 313.358 34.8245C314.358 34.8245 315.455 34.9701 316.629 35.2711C317.804 35.5623 318.93 35.9701 319.998 36.4943L316.823 52.852C316.387 55.0557 315.484 56.7449 314.125 57.9098C312.766 59.0747 310.989 59.6572 308.805 59.6572C306.97 59.6572 305.174 59.2107 303.407 58.3175V55.9003C304.999 56.8419 306.727 57.3079 308.581 57.3079C311.523 57.3079 313.261 55.9585 313.785 53.25L314.241 50.8231ZM310.873 49.7746C312.203 49.7746 313.465 49.396 314.668 48.6291L316.765 37.834C315.804 37.3777 314.756 37.1447 313.62 37.1447C312.358 37.1447 311.241 37.5136 310.28 38.2611C309.319 38.9989 308.581 40.0085 308.067 41.2705C307.552 42.5326 307.3 43.9693 307.3 45.5614C307.31 48.367 308.494 49.7746 310.873 49.7746Z" fill="#013D5B"/>
<path d="M120.806 46.2157C120.796 46.2254 120.786 46.2254 120.786 46.2351C113.21 51.5985 104.232 57.2326 94.5681 63.147L94.1912 63.3692C94.0655 63.4659 94.0269 63.6398 94.1235 63.7751C94.2105 63.9104 94.3941 63.9394 94.5197 63.8428L94.8386 63.6688C103.034 59.3974 112.437 54.3141 121.907 49.1149C121.956 49.0859 122.004 49.0569 122.062 49.0279C121.53 48.1775 121.105 47.2401 120.806 46.2157ZM170.546 5.93637C158.601 -7.23559 81.7343 4.61241 49.0412 11.7541L48.2777 11.9184C48.1231 11.9473 48.0168 12.0923 48.0458 12.2566C48.0748 12.4112 48.2197 12.5175 48.384 12.4885L49.1378 12.3436C76.2162 7.52126 132.547 0.833806 144.666 12.8558C148.367 16.5184 147.478 21.2441 143.197 26.8202C145.507 28.3084 147.159 30.6374 147.894 33.5656C164.622 22.4231 175.871 11.8121 170.546 5.93637Z" fill="#CE0E2D"/>
<path d="M125.637 42.7464C125.792 47.3851 128.72 51.183 132.547 51.183C139.959 51.183 143.119 42.0796 142.897 35.9913C142.742 31.3429 139.727 27.5547 135.91 27.5547C129.532 27.5643 125.415 36.6291 125.637 42.7464ZM121.723 42.5048C121.453 34.59 127.647 26.5013 136.654 26.5013C142.675 26.5013 146.618 30.5118 146.84 36.6581C147.13 45.0077 141.341 52.6616 131.909 52.6616C125.879 52.6616 121.936 48.6607 121.723 42.5048Z" fill="#013D5B"/>
<path d="M36.4203 40.4077C36.1014 40.5237 35.6858 40.6493 35.164 40.7556C34.6518 40.8716 33.7144 41.0359 32.3517 41.2582C31.4143 41.4031 30.7572 41.6061 30.39 41.867C30.0324 42.1279 29.8294 42.4468 29.7618 42.8237C29.6845 43.2296 29.8198 43.5582 30.1774 43.8095C30.5349 44.0607 31.1437 44.1863 31.9942 44.1863C32.632 44.1863 33.2602 44.08 33.869 43.8868C34.4778 43.6838 34.9997 43.4132 35.3959 43.075C35.6858 42.8237 35.8984 42.5048 36.053 42.1183C36.14 41.8767 36.2656 41.3065 36.4203 40.4077ZM44.2481 35.5468C44.2191 36.2716 44.0934 36.9094 43.9002 38.0207L42.5762 45.4523C42.4602 46.1095 42.7115 46.6313 43.3203 46.9889L43.2817 47.2788L35.6955 47.2691L35.6278 45.375C34.5261 46.0418 33.1925 46.6023 31.9845 46.9309C30.7862 47.2402 29.8101 47.3755 28.3509 47.3755C25.9059 47.3755 24.4949 47.1242 23.5286 46.2738C22.5428 45.3943 22.0693 44.8145 22.1176 43.6162C22.1563 42.9204 22.5138 42.0313 23.0357 41.4128C23.5575 40.7846 24.2727 40.3691 25.0555 40.0019C25.8382 39.625 26.7563 39.3544 28.0996 39.1514C29.4429 38.9292 31.308 38.7166 33.811 38.5039C35.1253 38.3976 35.9274 38.0884 36.3043 37.9434C36.8262 37.7405 37.0291 37.5182 37.1064 37.093C37.2417 36.3296 37.0001 35.8947 35.9854 35.6917C33.2505 35.1506 28.1383 36.0396 25.4903 36.6968L26.9206 32.8312C30.3996 32.319 33.666 32.0001 37.0967 32.0001C42.5569 31.9904 44.306 33.5463 44.2481 35.5468Z" fill="#013D5B"/>
<path d="M66.2314 47.2788L68.86 32.4253H76.1177L73.4891 47.2788H66.2314ZM69.2659 28.985C69.4785 27.7673 71.4113 26.7719 73.5664 26.7719C75.7215 26.7719 77.2967 27.7673 77.0841 28.985C76.8521 30.2026 74.929 31.198 72.7739 31.198C70.6092 31.198 69.0437 30.2026 69.2659 28.985Z" fill="#013D5B"/>
<path d="M101.903 40.4464C101.574 40.5527 101.159 40.6783 100.647 40.7943C100.135 40.9199 99.1971 41.0649 97.8248 41.2871C96.8874 41.4321 96.2303 41.635 95.8727 41.8959C95.5248 42.1472 95.3219 42.4661 95.2446 42.8527C95.1672 43.2682 95.3219 43.5968 95.6601 43.8384C96.0273 44.0897 96.6362 44.2153 97.4866 44.2153C98.1147 44.2153 98.7429 44.1187 99.3517 43.9254C99.9702 43.7224 100.482 43.4518 100.888 43.1136C101.169 42.8623 101.381 42.5338 101.536 42.1472C101.623 41.9153 101.748 41.3354 101.903 40.4464ZM109.731 35.5757C109.702 36.3005 109.576 36.948 109.373 38.0497L108.059 45.4909C107.943 46.1481 108.185 46.6603 108.793 47.0275L108.745 47.2884L101.169 47.3078L101.111 45.4136C99.9992 46.0804 98.6656 46.6409 97.4673 46.9695C96.2593 47.2884 95.2929 47.4141 93.824 47.4141C91.379 47.4141 89.9874 47.1725 89.0113 46.3124C88.0256 45.433 87.5424 44.8531 87.6004 43.6548C87.6294 42.959 87.9869 42.0602 88.5184 41.4514C89.0403 40.8136 89.7554 40.4077 90.5382 40.0405C91.321 39.6732 92.2487 39.4027 93.5727 39.1804C94.916 38.9678 96.7908 38.7455 99.2937 38.5329C100.598 38.4266 101.4 38.127 101.768 37.982C102.299 37.7791 102.502 37.5472 102.579 37.122C102.715 36.3682 102.473 35.9236 101.468 35.7207C98.7236 35.1795 93.621 36.0686 90.9731 36.7257L92.4034 32.8602C95.9017 32.348 99.1391 32.0194 102.579 32.0194C108.04 32.0097 109.779 33.5753 109.731 35.5757Z" fill="#013D5B"/>
<path d="M21.1219 41.9346C18.7542 42.4081 17.4303 42.5821 15.0916 42.5821C11.6222 42.5821 8.868 40.8619 9.01296 37.7018C9.11927 35.5951 11.6126 31.1593 17.9425 31.1593C19.9332 31.1593 21.4891 31.5072 23.5862 32.7055L24.5043 27.545C21.6534 26.4723 19.7689 26.308 17.324 26.337C9.03229 26.424 1.05953 30.2026 0.0738095 37.8661C-0.931241 45.6552 8.58775 47.617 12.8109 47.5977C15.2462 47.588 17.7878 47.4914 20.1555 47.2498L21.1219 41.9346Z" fill="#013D5B"/>
<path d="M80.1196 32.3383L80.6414 29.3135L88.2373 27.6609L87.4255 32.3383H91.1462L90.4407 35.3341L86.836 35.3245L84.6423 47.2691C84.6423 47.2691 77.3267 47.2208 77.3074 47.2691L79.4914 35.3535H76.7275L77.288 32.3383H80.1196Z" fill="#013D5B"/>
<path d="M117.103 47.2691L109.71 47.2788L113.421 26.5496L120.63 26.7526L117.103 47.2691Z" fill="#013D5B"/>
<path d="M56.6265 35.9043C55.6795 35.9043 54.8097 36.1942 54.0463 36.7644C53.2925 37.3442 52.8093 38.185 52.6063 39.306C52.3744 40.601 52.5097 41.5287 53.0219 42.1086C53.5437 42.6787 54.2879 42.9686 55.2639 42.9686C55.9211 42.9686 56.6072 42.8527 57.1097 42.6014C57.7282 42.2728 58.1631 41.9249 58.5303 41.3838C58.9266 40.8039 59.1972 40.1661 59.3324 39.422C59.5354 38.2526 59.3614 37.3732 58.8203 36.7934C58.2984 36.1942 57.5736 35.9043 56.6265 35.9043ZM43.4062 52.4007L46.9433 32.4929H53.3215L52.8286 35.0345C53.3794 34.2808 54.2685 33.6526 55.4862 33.1404C56.7135 32.6379 58.1051 32.261 59.603 32.261C61.2652 32.261 62.2896 32.348 63.5363 32.9954C64.7733 33.6429 65.6333 34.59 66.1069 35.8173C66.5804 37.0253 66.6867 38.3879 66.4258 39.8569C65.9909 42.3115 64.8022 44.2443 62.8405 45.6649C60.898 47.0855 59.1392 47.4624 56.6459 47.472C55.7568 47.472 55.0223 47.3754 54.4038 47.2304C53.8047 47.0758 53.3215 46.8825 52.9542 46.6506C52.6063 46.4187 52.2391 46.0901 51.7559 45.5682L50.5672 52.391H43.4062V52.4007Z" fill="#013D5B"/>
<path d="M175.214 37.7308C175.175 36.5324 174.576 35.7303 173.339 35.7303C170.362 35.7303 167.193 41.5674 166.651 43.9157C171.532 43.9157 175.33 40.9972 175.214 37.7308ZM175.852 46.8729L176.431 47.2594C174.982 50.2166 172.015 52.5939 168.546 52.5939C165.704 52.5939 163.375 50.6998 163.25 47.1531C163.018 40.7846 168.98 34.8702 173.87 34.8702C175.967 34.8702 177.91 35.7883 177.997 38.04C178.181 43.1039 171.068 44.6502 166.381 44.7565C166.226 45.288 166.168 45.8195 166.197 46.6216C166.275 48.7187 167.55 50.4872 170.169 50.4872C172.44 50.4968 174.702 48.6704 175.852 46.8729Z" fill="#013D5B"/>
<path d="M146.725 37.5568C147.227 37.4892 148.039 37.4022 148.387 37.4022C148.918 37.4022 149.421 37.4989 149.45 38.0304C149.459 38.3396 148.889 40.601 148.773 41.1228L147.643 46.1191C147.188 48.1582 146.686 50.3036 146.251 51.9948H149.16L150.793 44.08C155.78 38.8808 157.703 37.1896 158.882 37.1896C159.413 37.1896 159.781 37.4699 159.8 38.098C159.829 39.0161 159.259 41.0938 159.065 41.6833L157.394 47.4527C157.017 48.7477 156.736 49.917 156.756 50.7578C156.804 52.0238 157.577 52.5843 158.708 52.5843C160.834 52.5843 162.38 50.3712 163.723 48.1872L163.327 47.4721C162.776 48.3515 161.52 50.2553 160.525 50.2553C160.206 50.2553 159.916 50.0427 159.906 49.5208C159.877 48.8443 160.157 47.8393 160.36 47.1725L162.216 40.4174C162.709 38.5522 162.95 37.3539 162.941 36.7161C162.892 35.4501 162.158 34.8606 161.027 34.8606C159.114 34.8606 156.572 36.2619 151.189 42.4565H151.112L151.788 39.4316C152.156 37.7791 152.513 36.0589 152.861 34.8606C150.996 35.5274 148.329 36.2812 146.686 36.6001L146.725 37.5568Z" fill="#013D5B"/>
</svg>
