<svg width="320" height="66" viewBox="0 0 320 66" fill="none" xmlns="http://www.w3.org/2000/svg">
<path d="M190 47.9399C190.874 48.5709 191.883 49.066 193.029 49.4155C194.174 49.7649 195.33 49.9397 196.485 49.9397C198.203 49.9397 199.591 49.5125 200.64 48.6583C201.688 47.804 202.212 46.6876 202.212 45.2896C202.212 44.4159 201.979 43.6878 201.514 43.0957C201.048 42.5035 200.29 41.9792 199.242 41.523L196.922 40.5425C195.417 39.9115 194.339 39.1834 193.679 38.3679C193.029 37.5525 192.699 36.5331 192.699 35.31C192.699 33.9606 193.068 32.7665 193.796 31.7472C194.524 30.7181 195.524 29.9318 196.786 29.3785C198.048 28.8251 199.485 28.5436 201.077 28.5436C202.164 28.5436 203.29 28.6795 204.436 28.9513C205.581 29.2231 206.542 29.5823 207.329 30.0192L206.872 32.3782C205.125 31.4851 203.28 31.0385 201.339 31.0385C199.698 31.0385 198.397 31.3977 197.417 32.1161C196.436 32.8344 195.941 33.7955 195.941 34.9993C195.941 35.6983 196.145 36.2904 196.543 36.7661C196.941 37.2418 197.592 37.6787 198.494 38.0767L200.882 39.1251C202.494 39.8241 203.669 40.6396 204.387 41.5812C205.105 42.5229 205.465 43.6878 205.465 45.0858C205.465 46.5711 205.096 47.8719 204.348 48.9786C203.61 50.095 202.591 50.9493 201.29 51.5512C199.989 52.1531 198.514 52.454 196.854 52.454C195.631 52.454 194.417 52.289 193.223 51.9589C192.019 51.6289 190.951 51.1823 190.019 50.6192V47.9399H190Z" fill="white"/>
<path d="M207.805 51.9298L212.581 27.3592L215.62 27L213.853 36.1254C215.493 35.2517 217.047 34.8148 218.532 34.8148C220.075 34.8148 221.279 35.2031 222.133 35.9798C222.988 36.7564 223.415 37.8243 223.415 39.2028C223.415 39.7658 223.357 40.2998 223.25 40.8046L221.095 51.9298H218.114L220.24 40.9987C220.328 40.4745 220.367 40.0279 220.367 39.659C220.367 38.8533 220.114 38.232 219.609 37.8146C219.105 37.3874 218.377 37.1738 217.415 37.1738C216.784 37.1738 216.105 37.2806 215.387 37.4845C214.668 37.6883 214.008 37.9699 213.426 38.3194L210.775 51.9298H207.805Z" fill="white"/>
<path d="M232.345 52.4249C230.297 52.4249 228.734 51.891 227.647 50.8231C226.569 49.7553 226.025 48.202 226.025 46.1731C226.025 43.9014 226.404 41.9113 227.171 40.1833C227.938 38.465 228.977 37.1351 230.297 36.2128C231.617 35.2809 233.112 34.8246 234.792 34.8246C236.84 34.8246 238.403 35.3585 239.49 36.4264C240.568 37.4942 241.111 39.0475 241.111 41.0764C241.111 43.3481 240.733 45.3382 239.966 47.0662C239.199 48.7942 238.16 50.1145 236.84 51.0464C235.52 51.9589 234.025 52.4249 232.345 52.4249ZM232.607 50.0659C233.695 50.0659 234.656 49.6776 235.471 48.901C236.287 48.1243 236.918 47.0565 237.354 45.6974C237.791 44.3383 238.005 42.7947 238.005 41.0667C238.005 39.7368 237.723 38.7563 237.151 38.1253C236.588 37.4942 235.714 37.1739 234.529 37.1739C233.442 37.1739 232.481 37.5622 231.666 38.3388C230.85 39.1155 230.219 40.1833 229.782 41.5424C229.345 42.9112 229.132 44.4548 229.132 46.1731C229.132 47.503 229.413 48.4835 229.986 49.1145C230.549 49.7456 231.423 50.0659 232.607 50.0659Z" fill="white"/>
<path d="M248.567 35.242V36.3584C250.285 35.3294 251.936 34.8246 253.508 34.8246C255.256 34.8246 256.596 35.4071 257.537 36.5623C258.479 37.7175 258.945 39.3679 258.945 41.5036C258.945 43.6587 258.537 45.5712 257.731 47.2312C256.926 48.8913 255.829 50.1727 254.44 51.0755C253.052 51.9784 251.499 52.4346 249.781 52.4346C248.489 52.4346 247.208 52.1919 245.917 51.7163L244.509 58.9777L241.471 59.3369L246.121 35.5138L248.567 35.242ZM252.334 37.1739C251.004 37.1739 249.742 37.5525 248.538 38.3194L246.383 49.4155C247.344 49.8718 248.392 50.1047 249.528 50.1047C250.79 50.1047 251.907 49.7359 252.868 49.0078C253.829 48.2797 254.567 47.2798 255.081 46.0177C255.596 44.7557 255.848 43.3093 255.848 41.6977C255.848 40.1445 255.567 39.0087 254.994 38.2806C254.421 37.5428 253.538 37.1739 252.334 37.1739Z" fill="white"/>
<path d="M266.401 35.242V36.3584C268.119 35.3294 269.77 34.8246 271.342 34.8246C273.09 34.8246 274.43 35.4071 275.371 36.5623C276.313 37.7175 276.779 39.3679 276.779 41.5036C276.779 43.6587 276.371 45.5712 275.565 47.2312C274.76 48.8913 273.663 50.1727 272.274 51.0755C270.886 51.9784 269.333 52.4346 267.615 52.4346C266.323 52.4346 265.042 52.1919 263.751 51.7163L262.343 58.9777L259.305 59.3369L263.955 35.5138L266.401 35.242ZM270.168 37.1739C268.838 37.1739 267.576 37.5525 266.372 38.3194L264.217 49.4155C265.178 49.8718 266.226 50.1047 267.362 50.1047C268.624 50.1047 269.741 49.7359 270.702 49.0078C271.663 48.2797 272.401 47.2798 272.915 46.0177C273.43 44.7557 273.682 43.3093 273.682 41.6977C273.682 40.1445 273.401 39.0087 272.828 38.2806C272.255 37.5428 271.372 37.1739 270.168 37.1739Z" fill="white"/>
<path d="M278.574 51.9298L281.749 35.6012L284.787 35.242L281.545 51.9298H278.574ZM284.079 31.9025C283.535 31.9025 283.098 31.7666 282.787 31.4948C282.467 31.223 282.312 30.8444 282.312 30.3687C282.312 29.6697 282.516 29.1164 282.914 28.7183C283.312 28.3203 283.865 28.1165 284.564 28.1165C285.108 28.1165 285.544 28.2524 285.855 28.5242C286.175 28.796 286.331 29.1746 286.331 29.6503C286.331 30.3493 286.127 30.9026 285.729 31.3006C285.321 31.7084 284.768 31.9025 284.079 31.9025Z" fill="white"/>
<path d="M296.311 51.9298L298.437 40.9988C298.524 40.4746 298.563 40.028 298.563 39.6591C298.563 38.8533 298.31 38.232 297.806 37.8146C297.301 37.3875 296.573 37.1739 295.612 37.1739C294.981 37.1739 294.301 37.2807 293.583 37.4845C292.864 37.6884 292.204 37.9699 291.622 38.3194L288.972 51.9298H285.991L289.195 35.5041L291.651 35.242V36.3584C293.437 35.3294 295.126 34.8246 296.718 34.8246C298.262 34.8246 299.466 35.2129 300.32 35.9895C301.174 36.7662 301.601 37.834 301.601 39.2125C301.601 39.7756 301.543 40.3095 301.436 40.8143L299.281 51.9395H296.311V51.9298Z" fill="white"/>
<path d="M314.241 50.8231C312.63 51.6968 311.115 52.1337 309.698 52.1337C307.97 52.1337 306.63 51.5706 305.659 50.4348C304.689 49.299 304.203 47.7457 304.203 45.7556C304.203 43.6005 304.611 41.6783 305.426 40.0086C306.242 38.3388 307.349 37.0574 308.727 36.1643C310.115 35.2711 311.659 34.8246 313.358 34.8246C314.358 34.8246 315.455 34.9702 316.629 35.2711C317.804 35.5624 318.93 35.9701 319.998 36.4943L316.823 52.8521C316.387 55.0558 315.484 56.7449 314.125 57.9099C312.766 59.0748 310.989 59.6573 308.805 59.6573C306.97 59.6573 305.174 59.2107 303.407 58.3176V55.9003C304.999 56.842 306.727 57.308 308.581 57.308C311.523 57.308 313.261 55.9586 313.785 53.2501L314.241 50.8231ZM310.873 49.7747C312.203 49.7747 313.465 49.3961 314.668 48.6292L316.765 37.834C315.804 37.3777 314.756 37.1448 313.62 37.1448C312.358 37.1448 311.241 37.5137 310.28 38.2612C309.319 38.999 308.581 40.0086 308.067 41.2706C307.552 42.5326 307.3 43.9694 307.3 45.5615C307.31 48.367 308.494 49.7747 310.873 49.7747Z" fill="white"/>
<path d="M120.806 46.2157C120.796 46.2254 120.786 46.2254 120.786 46.2351C113.21 51.5985 104.232 57.2326 94.5681 63.147L94.1912 63.3692C94.0655 63.4659 94.0269 63.6398 94.1235 63.7751C94.2105 63.9104 94.3941 63.9394 94.5197 63.8428L94.8386 63.6688C103.034 59.3974 112.437 54.3141 121.907 49.1149C121.956 49.0859 122.004 49.0569 122.062 49.0279C121.53 48.1775 121.105 47.2401 120.806 46.2157ZM170.546 5.93637C158.601 -7.23559 81.7343 4.61241 49.0412 11.7541L48.2777 11.9184C48.1231 11.9473 48.0168 12.0923 48.0458 12.2566C48.0748 12.4112 48.2197 12.5175 48.384 12.4885L49.1378 12.3436C76.2162 7.52126 132.547 0.833806 144.666 12.8558C148.367 16.5184 147.478 21.2441 143.197 26.8202C145.507 28.3084 147.159 30.6374 147.894 33.5656C164.622 22.4231 175.871 11.8121 170.546 5.93637Z" fill="#CE0E2D"/>
<path d="M125.637 42.7463C125.792 47.385 128.72 51.183 132.547 51.183C139.959 51.183 143.119 42.0795 142.897 35.9912C142.742 31.3429 139.727 27.5546 135.91 27.5546C129.532 27.5643 125.415 36.629 125.637 42.7463ZM121.723 42.5047C121.453 34.5899 127.647 26.5012 136.654 26.5012C142.675 26.5012 146.618 30.5118 146.84 36.658C147.13 45.0077 141.341 52.6615 131.909 52.6615C125.879 52.6615 121.936 48.6607 121.723 42.5047Z" fill="white"/>
<path d="M36.4203 40.4077C36.1014 40.5237 35.6858 40.6493 35.164 40.7556C34.6518 40.8715 33.7144 41.0358 32.3517 41.2581C31.4143 41.4031 30.7572 41.606 30.39 41.8669C30.0324 42.1279 29.8294 42.4468 29.7618 42.8237C29.6845 43.2296 29.8198 43.5581 30.1774 43.8094C30.5349 44.0607 31.1437 44.1863 31.9942 44.1863C32.632 44.1863 33.2602 44.08 33.869 43.8867C34.4778 43.6838 34.9997 43.4132 35.3959 43.0749C35.6858 42.8237 35.8984 42.5048 36.053 42.1182C36.14 41.8766 36.2656 41.3064 36.4203 40.4077ZM44.2481 35.5467C44.2191 36.2715 44.0934 36.9093 43.9002 38.0207L42.5762 45.4523C42.4602 46.1094 42.7115 46.6313 43.3203 46.9888L43.2817 47.2787L35.6955 47.2691L35.6278 45.375C34.5261 46.0418 33.1925 46.6023 31.9845 46.9309C30.7862 47.2401 29.8101 47.3754 28.3509 47.3754C25.9059 47.3754 24.4949 47.1241 23.5286 46.2737C22.5428 45.3943 22.0693 44.8144 22.1176 43.6161C22.1563 42.9203 22.5138 42.0312 23.0357 41.4127C23.5575 40.7846 24.2727 40.369 25.0555 40.0018C25.8382 39.6249 26.7563 39.3543 28.0996 39.1514C29.4429 38.9291 31.308 38.7165 33.811 38.5039C35.1253 38.3976 35.9274 38.0883 36.3043 37.9434C36.8262 37.7404 37.0291 37.5182 37.1064 37.0929C37.2417 36.3295 37.0001 35.8946 35.9854 35.6917C33.2505 35.1505 28.1383 36.0396 25.4903 36.6967L26.9206 32.8311C30.3996 32.319 33.666 32 37.0967 32C42.5569 31.9904 44.306 33.5463 44.2481 35.5467Z" fill="white"/>
<path d="M66.2314 47.2788L68.86 32.4253H76.1177L73.4891 47.2788H66.2314ZM69.2659 28.9849C69.4785 27.7672 71.4113 26.7719 73.5664 26.7719C75.7215 26.7719 77.2967 27.7672 77.0841 28.9849C76.8521 30.2026 74.929 31.1979 72.7739 31.1979C70.6092 31.1979 69.0437 30.2026 69.2659 28.9849Z" fill="white"/>
<path d="M101.903 40.4463C101.574 40.5526 101.159 40.6782 100.647 40.7942C100.135 40.9198 99.1971 41.0648 97.8248 41.2871C96.8874 41.432 96.2303 41.635 95.8727 41.8959C95.5248 42.1472 95.3219 42.4661 95.2446 42.8526C95.1672 43.2682 95.3219 43.5967 95.6601 43.8383C96.0273 44.0896 96.6362 44.2152 97.4866 44.2152C98.1147 44.2152 98.7429 44.1186 99.3517 43.9253C99.9702 43.7224 100.482 43.4518 100.888 43.1135C101.169 42.8623 101.381 42.5337 101.536 42.1472C101.623 41.9152 101.748 41.3354 101.903 40.4463ZM109.731 35.5757C109.702 36.3005 109.576 36.9479 109.373 38.0496L108.059 45.4909C107.943 46.148 108.185 46.6602 108.793 47.0274L108.745 47.2884L101.169 47.3077L101.111 45.4136C99.9992 46.0804 98.6656 46.6409 97.4673 46.9695C96.2593 47.2884 95.2929 47.414 93.824 47.414C91.379 47.414 89.9874 47.1724 89.0113 46.3123C88.0256 45.4329 87.5424 44.8531 87.6004 43.6547C87.6294 42.9589 87.9869 42.0602 88.5184 41.4513C89.0403 40.8135 89.7554 40.4076 90.5382 40.0404C91.321 39.6732 92.2487 39.4026 93.5727 39.1803C94.916 38.9677 96.7908 38.7454 99.2937 38.5328C100.598 38.4265 101.4 38.1269 101.768 37.982C102.299 37.779 102.502 37.5471 102.579 37.1219C102.715 36.3681 102.473 35.9236 101.468 35.7206C98.7236 35.1794 93.621 36.0685 90.9731 36.7257L92.4034 32.8601C95.9017 32.3479 99.1391 32.0193 102.579 32.0193C108.04 32.0097 109.779 33.5752 109.731 35.5757Z" fill="white"/>
<path d="M21.1219 41.9346C18.7542 42.4081 17.4303 42.5821 15.0916 42.5821C11.6222 42.5821 8.868 40.8619 9.01296 37.7018C9.11927 35.5951 11.6126 31.1593 17.9425 31.1593C19.9332 31.1593 21.4891 31.5072 23.5862 32.7055L24.5043 27.545C21.6534 26.4723 19.7689 26.308 17.324 26.337C9.03229 26.424 1.05953 30.2026 0.0738095 37.8661C-0.931241 45.6552 8.58775 47.617 12.8109 47.5977C15.2462 47.588 17.7878 47.4914 20.1555 47.2498L21.1219 41.9346Z" fill="white"/>
<path d="M80.1196 32.3382L80.6414 29.3134L88.2373 27.6609L87.4255 32.3382H91.1462L90.4407 35.3341L86.836 35.3244L84.6423 47.269C84.6423 47.269 77.3267 47.2207 77.3074 47.269L79.4914 35.3534H76.7275L77.288 32.3382H80.1196Z" fill="white"/>
<path d="M117.103 47.2692L109.71 47.2789L113.421 26.5497L120.63 26.7526L117.103 47.2692Z" fill="white"/>
<path d="M56.6265 35.9043C55.6795 35.9043 54.8097 36.1942 54.0463 36.7644C53.2925 37.3442 52.8093 38.185 52.6063 39.306C52.3744 40.601 52.5097 41.5287 53.0219 42.1086C53.5437 42.6787 54.2879 42.9686 55.2639 42.9686C55.9211 42.9686 56.6072 42.8527 57.1097 42.6014C57.7282 42.2728 58.1631 41.9249 58.5303 41.3838C58.9266 40.8039 59.1972 40.1661 59.3324 39.422C59.5354 38.2526 59.3614 37.3732 58.8203 36.7934C58.2984 36.1942 57.5736 35.9043 56.6265 35.9043ZM43.4062 52.4007L46.9433 32.4929H53.3215L52.8286 35.0345C53.3794 34.2808 54.2685 33.6526 55.4862 33.1404C56.7135 32.6379 58.1051 32.261 59.603 32.261C61.2652 32.261 62.2896 32.348 63.5363 32.9954C64.7733 33.6429 65.6333 34.59 66.1069 35.8173C66.5804 37.0253 66.6867 38.3879 66.4258 39.8569C65.9909 42.3115 64.8022 44.2443 62.8405 45.6649C60.898 47.0855 59.1392 47.4624 56.6459 47.472C55.7568 47.472 55.0223 47.3754 54.4038 47.2304C53.8047 47.0758 53.3215 46.8825 52.9542 46.6506C52.6063 46.4187 52.2391 46.0901 51.7559 45.5682L50.5672 52.391H43.4062V52.4007Z" fill="white"/>
<path d="M175.214 37.7308C175.175 36.5324 174.576 35.7303 173.339 35.7303C170.362 35.7303 167.193 41.5674 166.651 43.9157C171.532 43.9157 175.33 40.9972 175.214 37.7308ZM175.852 46.8729L176.431 47.2594C174.982 50.2166 172.015 52.5939 168.546 52.5939C165.704 52.5939 163.375 50.6998 163.25 47.1531C163.018 40.7846 168.98 34.8702 173.87 34.8702C175.967 34.8702 177.91 35.7883 177.997 38.04C178.181 43.1039 171.068 44.6502 166.381 44.7565C166.226 45.288 166.168 45.8195 166.197 46.6216C166.275 48.7187 167.55 50.4872 170.169 50.4872C172.44 50.4968 174.702 48.6704 175.852 46.8729Z" fill="white"/>
<path d="M146.725 37.5568C147.227 37.4892 148.039 37.4022 148.387 37.4022C148.918 37.4022 149.421 37.4989 149.45 38.0304C149.459 38.3396 148.889 40.601 148.773 41.1228L147.643 46.1191C147.188 48.1582 146.686 50.3036 146.251 51.9948H149.16L150.793 44.08C155.78 38.8808 157.703 37.1896 158.882 37.1896C159.413 37.1896 159.781 37.4699 159.8 38.098C159.829 39.0161 159.259 41.0938 159.065 41.6833L157.394 47.4527C157.017 48.7477 156.736 49.917 156.756 50.7578C156.804 52.0238 157.577 52.5843 158.708 52.5843C160.834 52.5843 162.38 50.3712 163.723 48.1872L163.327 47.4721C162.776 48.3515 161.52 50.2553 160.525 50.2553C160.206 50.2553 159.916 50.0427 159.906 49.5208C159.877 48.8443 160.157 47.8393 160.36 47.1725L162.216 40.4174C162.709 38.5522 162.95 37.3539 162.941 36.7161C162.892 35.4501 162.158 34.8606 161.027 34.8606C159.114 34.8606 156.572 36.2619 151.189 42.4565H151.112L151.788 39.4316C152.156 37.7791 152.513 36.0589 152.861 34.8606C150.996 35.5274 148.329 36.2812 146.686 36.6001L146.725 37.5568Z" fill="white"/>
</svg>
